<?xml version="1.0" encoding="utf-8"?>
<!-- Generator: Adobe Illustrator 23.0.0, SVG Export Plug-In . SVG Version: 6.00 Build 0)  -->
<svg version="1.1" id="Layer_1" xmlns="http://www.w3.org/2000/svg" xmlns:xlink="http://www.w3.org/1999/xlink" x="0px" y="0px"
	 viewBox="0 0 750 500" style="enable-background:new 0 0 750 500;" xml:space="preserve">
<style type="text/css">
	.st0{fill:none;}
	.st1{opacity:0.6;fill:#D2DFED;enable-background:new    ;}
	.st2{opacity:0.5;fill:#FFFFFF;enable-background:new    ;}
	.st3{fill:#30B280;}
	.st4{fill:#008C53;}
	.st5{fill:#007251;}
	.st6{fill:#0CA34C;}
	.st7{fill:#E8522A;}
	.st8{fill:#FFFFFF;}
	.st9{fill:#C6428A;}
	.st10{fill:#323361;}
	.st11{fill:#3D4F7C;}
	.st12{opacity:0.6;}
	.st13{fill:#00C972;}
	.st14{fill:#3149B9;}
	.st15{fill:#2039A5;}
	.st16{fill:#4071C9;}
	.st17{fill:#E08820;}
	.st18{fill:#E7A592;}
	.st19{fill:#282828;}
	.st20{fill:#222046;}
	.st21{fill:#EAA928;}
	.st22{fill:#E2876C;}
	.st23{fill:#BB5C4A;}
	.st24{fill:#3F3F3F;}
	.st25{fill:#C4C4C4;}
	.st26{fill:#BABABA;}
	.st27{fill:#939393;}
	.st28{fill:#F7F7F9;}
	.st29{fill:#F1CC5A;}
	.st30{opacity:0.3;fill:#FFFFFF;enable-background:new    ;}
	.st31{opacity:0.2;fill:#FFFFFF;enable-background:new    ;}
</style>
<g>
	<rect class="st0" width="750" height="500"/>
	<g id="OBJECTS">
		<g>
			<g>
				<g>
					<g>
						<path class="st1" d="M640.6,262L640.6,262c-4.2,22.4-12.6,43-24.1,61.3c-31.9,50.6-88.4,83.2-151.2,83.2H344.8
							c-48.9,0-95.6-20.1-129.3-55.4c-1.4-1.5-2.9-3.1-4.3-4.7c-18.7-21.1-32.3-46.2-39.5-73.2c-2.4-9-4.1-18.2-5.1-27.6
							c0-0.2,0-0.4-0.1-0.7c-1.7-17-2.2-33.3-1.3-48.8c1.9-34.4,10.6-64.2,27.4-86.5c19.5-25.9,50-41.5,93.6-42c1.8,0,3.6,0,5.5,0
							c120.1,1.8,116.1,56.6,214.5,80.6c22.5,5.5,50.3,9.4,86.2,10.7c0.8,0,1.6,0.1,2.4,0.1C645.1,162.4,650.6,209.6,640.6,262z"/>
						<path class="st2" d="M594.8,159.2c-34,17.8-87.2,36.8-151.3,29.9c-97.2-10.5-219.6-30.9-278.3,7.2
							c1.9-34.4,10.6-64.2,27.4-86.5c20.5-4.8,46.6-5,79.6,3.6c71.5,18.5,164.2,38.6,233.9,35.1c22.5,5.5,50.3,9.4,86.2,10.7
							C593.2,159.1,594,159.1,594.8,159.2z"/>
						<path class="st2" d="M640.6,262c-4.2,22.3-12.6,43-24.1,61.3c-24.6,7.4-57.3,10.1-99.8,0.9c-103.6-22.6-217.3-22.2-301.2,27
							c-1.4-1.5-2.9-3.1-4.3-4.7c-18.7-21.1-32.3-46.2-39.5-73.2c29.4-13.9,102.8-40.9,197.6-19.3
							C469.2,276.8,583.7,294.9,640.6,262z"/>
					</g>
				</g>
			</g>
			<path class="st1" d="M670.2,430.8c0,9-127.7,16.3-285.3,16.3s-285.3-7.3-285.3-16.3s127.7-16.3,285.3-16.3
				S670.2,421.8,670.2,430.8z"/>
			<g>
				<path class="st3" d="M164.4,431.9h5.3l-19.5-50.7c1-4.7,3-11.1,7.3-18.6c8.1-14.1,14.2-30.5,3.8-29.4c-9,1-15.3,20-14.8,38.4
					l-7-18.2c-1.2-6-2.9-14.6-2.4-24.2c1.3-22.4-1.6-43.8-12.4-38s-5.2,42.7,11.1,66.3l3.6,9.4c-11.6-17.5-33.6-31.7-42.1-25.5
					c-8.4,6.1,7.1,14.2,22.6,19.2c11.7,3.8,18.6,9.1,21.7,12l17.1,44.3c-18.4-27.6-53.2-50-66.6-40.3c-13.4,9.6,11.3,22.5,35.8,30.5
					c18.5,6,29.3,14.2,34.4,19L164.4,431.9z"/>
				<g>
					<path class="st4" d="M577.5,368.9c1.5-4.1,1.8-8.9,0.4-13.6c-3.6-12.1,3.5-15,12.9-19.6s9.6-16.3,2-25.4s4.1-17.8-1.5-31.9
						s-20.6-3.3-23,10.3c-1.7,9.8-14.5,8.7-18.2,21.5c-3.2,11.1,11.1,20-4.2,26.2c-4.9,2-7.3,6-8.4,10.6c-1.4,5.9-0.3,11.9,2.6,16.8
						L577.5,368.9z"/>
					<g>
						<path class="st5" d="M557.8,366.3l22.7-71.2c0.2-0.6-0.1-1.3-0.8-1.5c-0.6-0.2-1.3,0.1-1.5,0.8L555.4,366L557.8,366.3z"/>
					</g>
				</g>
				<g>
					<path class="st3" d="M616,372.1c0.1-1,0.1-2.1,0.1-3.1c-0.3-16.1,9.5-17.2,22.6-19.6s17.4-16.6,11.3-30.4
						c-6.1-13.7,11.2-20.3,9.2-39.6c-2-19.3-24.1-11.2-31.8,4.7c-5.5,11.4-20.7,5.6-29.7,20c-7.8,12.5,6.7,28.4-14.2,30.6
						c-6.7,0.7-11.1,4.8-14,10.1c-4.9,8.7-4.7,18.9-0.4,27.3H616L616,372.1z"/>
					<g>
						<path class="st6" d="M589.8,372.1L640,296c0.5-0.7,0.3-1.6-0.4-2.1s-1.6-0.3-2.1,0.4l-51.3,77.8L589.8,372.1L589.8,372.1z"/>
					</g>
				</g>
			</g>
			<g>
				<g>
					<g>
						<g>
							<g>
								<path class="st7" d="M654.3,245.2H626c-3.6,0-6.5-2.9-6.5-6.5v-28.2c0-3.6,2.9-6.5,6.5-6.5h28.2c3.6,0,6.5,2.9,6.5,6.5v28.2
									C660.8,242.3,657.9,245.2,654.3,245.2z"/>
							</g>
						</g>
					</g>
					<g>
						<path class="st8" d="M626.9,219.7c0-3.7,2.4-5.8,5.5-5.8c3.2,0,5.5,2.1,5.5,5.8s-2.4,5.8-5.5,5.8
							C629.3,225.5,626.9,223.4,626.9,219.7z M644.8,214.1h5L635.5,235h-5L644.8,214.1z M633.8,219.7c0-2-0.6-2.6-1.3-2.6
							c-0.6,0-1.3,0.6-1.3,2.6s0.7,2.6,1.3,2.6S633.8,221.7,633.8,219.7z M642.2,229.5c0-3.7,2.4-5.8,5.5-5.8c3.2,0,5.5,2.1,5.5,5.8
							s-2.4,5.8-5.5,5.8C644.6,235.3,642.2,233.2,642.2,229.5z M649.1,229.5c0-2-0.6-2.6-1.3-2.6s-1.3,0.6-1.3,2.6s0.6,2.6,1.3,2.6
							S649.1,231.5,649.1,229.5z"/>
					</g>
				</g>
				<g>
					<g>
						<g>
							<path class="st9" d="M346.3,97.2h-28.2c-3.6,0-6.5-2.9-6.5-6.5V62.5c0-3.6,2.9-6.5,6.5-6.5h28.2c3.6,0,6.5,2.9,6.5,6.5v28.2
								C352.8,94.3,349.9,97.2,346.3,97.2z"/>
						</g>
					</g>
					<g>
						<g>
							<path class="st8" d="M332.2,62.9c-7.6,0-13.7,6.1-13.7,13.7s6.1,13.7,13.7,13.7s13.7-6.1,13.7-13.7
								C345.9,69,339.7,62.9,332.2,62.9z M332.7,81.6v-4.8h6.2c0,1.7-0.3,3.3-0.7,4.8H332.7z M336.6,87.1c1-1.3,1.8-2.7,2.4-4.4h4.2
								c-1.8,3.1-4.7,5.3-8.2,6.1C335.6,88.3,336.1,87.8,336.6,87.1z M337.8,82.8c-0.5,1.4-1.2,2.6-2,3.7c-1.3,1.7-2.6,2.5-3,2.8
								v-6.4L337.8,82.8L337.8,82.8z M332.7,69.8V64c0.2,0,0.3,0,0.5,0c0.7,0.6,2.8,2.6,4.3,5.8H332.7L332.7,69.8z M338.7,69.8
								c-0.5-1.2-1.1-2.3-1.8-3.4c-0.5-0.8-1.1-1.5-1.7-2.1c3.2,0.8,5.9,2.7,7.7,5.5H338.7L338.7,69.8z M332.7,75.7v-4.8h5.2
								c0.6,1.5,0.9,3.2,0.9,4.8H332.7z M340,75.7c-0.1-1.6-0.4-3.2-0.9-4.8h4.3c0.8,1.5,1.2,3.1,1.3,4.8H340z M344.8,76.8
								c0,1.7-0.4,3.3-1.1,4.8h-4.4c0.4-1.5,0.6-3.1,0.7-4.8H344.8z M325.2,81.6h-4.5c-0.7-1.5-1-3.1-1.1-4.8h4.9
								C324.5,78.5,324.8,80.1,325.2,81.6z M327,69.8c0.4-0.9,0.9-1.9,1.5-2.7c1.2-1.7,2.3-2.7,2.8-3.1c0.1,0,0.2,0,0.4,0v5.8
								C331.7,69.8,327,69.8,327,69.8z M331.7,70.9v4.8h-6c0.1-1.6,0.4-3.2,0.9-4.8H331.7z M321.6,69.8c1.8-2.8,4.6-4.8,7.8-5.5
								c-0.6,0.7-1.2,1.4-1.8,2.2c-0.7,1.1-1.4,2.2-1.8,3.4L321.6,69.8L321.6,69.8z M331.7,76.8v4.8h-5.3c-0.4-1.5-0.7-3.1-0.7-4.8
								H331.7z M319.6,75.7c0.1-1.7,0.6-3.3,1.3-4.8h4.4c-0.5,1.6-0.8,3.2-0.9,4.8H319.6z M325.5,82.8c0.6,1.6,1.4,3.1,2.4,4.4
								c0.5,0.7,1.1,1.3,1.7,1.8c-3.5-0.7-6.6-3-8.4-6.2C321.2,82.8,325.5,82.8,325.5,82.8z M331.7,82.8v6.3c-0.8-0.5-3.4-2.4-5-6.3
								H331.7z"/>
						</g>
					</g>
				</g>
			</g>
			<g>
				<g>
					<rect x="392.2" y="54.1" class="st10" width="202.4" height="202.4"/>
					<path class="st11" d="M596.3,266.9H390.4c-2.9,0-5.2-2.3-5.2-5.2l0,0c0-2.9,2.3-5.2,5.2-5.2h205.9c2.9,0,5.2,2.3,5.2,5.2l0,0
						C601.5,264.5,599.2,266.9,596.3,266.9z"/>
					<rect x="398.2" y="60.1" class="st8" width="190.3" height="190.3"/>
					<g class="st12">
						<path class="st1" d="M574.8,76.1v-0.8H412.5v0.8V231v0.6h162.4V231h0.1L574.8,76.1L574.8,76.1z M439.2,229.9h-25v-24h25V229.9
							z M439.2,204.1h-25v-24h25V204.1z M439.2,178.3h-25v-24h25V178.3z M439.2,152.6h-25v-24h25V152.6z M439.2,126.8h-25v-24h25
							V126.8z M439.2,101h-25V77h25V101z M466,229.9h-25v-24h25V229.9z M466,204.1h-25v-24h25V204.1z M466,178.3h-25v-24h25V178.3z
							 M466,152.6h-25v-24h25V152.6z M466,126.8h-25v-24h25V126.8z M466,101h-25V77h25V101z M492.8,229.9h-25v-24h25V229.9z
							 M492.8,204.1h-25v-24h25V204.1z M492.8,178.3h-25v-24h25V178.3z M492.8,152.6h-25v-24h25V152.6z M492.8,126.8h-25v-24h25
							V126.8z M492.8,101h-25V77h25V101z M519.6,229.9h-25v-24h25V229.9z M519.6,204.1h-25v-24h25V204.1z M519.6,178.3h-25v-24h25
							V178.3z M519.6,152.6h-25v-24h25V152.6z M519.6,126.8h-25v-24h25V126.8z M519.6,101h-25V77h25V101z M546.4,229.9h-25v-24h25
							V229.9z M546.4,204.1h-25v-24h25V204.1z M546.4,178.3h-25v-24h25V178.3z M546.4,152.6h-25v-24h25V152.6z M546.4,126.8h-25v-24
							h25V126.8z M546.4,101h-25V77h25V101z M573.1,229.9h-25v-24h25V229.9z M573.1,204.1h-25v-24h25V204.1z M573.1,178.3h-25v-24
							h25V178.3z M573.1,152.6h-25v-24h25V152.6z M573.1,126.8h-25v-24h25V126.8z M573.1,101h-25V77h25V101z"/>
					</g>
					<path class="st13" d="M561.7,103.8l-1.7-8.5c-0.1-0.3-0.3-0.6-0.5-0.8c-0.3-0.2-0.6-0.2-0.9-0.1l-9.7,2.6
						c-0.6,0.2-1,0.8-0.8,1.4s0.8,1,1.4,0.8l6.6-1.8l-26.3,38.5l-16.4-10.7c-0.3-0.2-0.6-0.2-0.9-0.1c-0.3,0.1-0.6,0.3-0.7,0.6
						l-17.8,35l-13.2-7.5c-0.3-0.2-0.6-0.2-1-0.1c-0.3,0.1-0.6,0.4-0.7,0.7l-17.7,47.8l-21.5-22.4c-0.3-0.3-0.6-0.4-1-0.4
						c-0.4,0.1-0.7,0.3-0.9,0.6l-25,49.8c-0.3,0.6-0.1,1.3,0.5,1.6c0.2,0.1,0.4,0.1,0.5,0.1c0.4,0,0.8-0.2,1-0.6l24.3-48.3
						l21.6,22.5c0.3,0.3,0.7,0.4,1.1,0.3c0.4-0.1,0.7-0.4,0.9-0.7l17.8-48.2l13.1,7.5c0.3,0.1,0.6,0.2,0.9,0.1s0.6-0.3,0.7-0.6
						l17.7-35l16.3,10.6c0.5,0.4,1.2,0.2,1.6-0.3l27.2-39.8l1.1,5.8c0.1,0.6,0.6,0.9,1.1,0.9c0.1,0,0.1,0,0.2,0
						C561.4,105.1,561.9,104.5,561.7,103.8z"/>
				</g>
			</g>
			<g>
				<g>
					<path class="st14" d="M368.2,431.5h-58.9c0-3,1.2-5.8,3.2-7.7c2-2,4.7-3.2,7.7-3.2h0.1c0,0,12.5-1.6,12.5-11.9v-61h11.8v61
						c0,10.2,12.5,11.9,12.5,11.9h0.1C363.3,420.6,368.2,425.5,368.2,431.5z"/>
					<polygon class="st15" points="344.6,347.8 344.6,350.2 332.8,353.7 332.8,347.8 					"/>
					<path class="st16" d="M395.4,347.8H282c1.9-10.4,10.9-17.9,21.4-17.8l35.3,0.1L374,330C384.5,329.9,393.5,337.4,395.4,347.8z"
						/>
				</g>
				<g>
					<g>
						<path class="st17" d="M316.7,201c-3.2,11.6-19,41.9-25.2,46.3c-8,5.7-33.2,16.3-46.3,21.7c-2.4,1,6.4,11.3,6.4,11.3
							s33.8-8.6,47.6-17.4c3.9-2.5,12.3-10.9,23-27.9c3.2-5.1,10.7-15.3,11.6-22.6C334.9,204,325.4,198.2,316.7,201z"/>
					</g>
					<g>
						<g>
							<g>
								<path class="st18" d="M278.9,402.9l0.4,12.7c0,0-3.1,2.3-9.6,1.2l-2.6-13.6L278.9,402.9z"/>
								<g>
									<g>
										<g>
											<path class="st19" d="M271.1,415c0,0-2.2-3-4-2.9s-15.7,10.9-20.4,11.7c-4.7,0.8-4.5,6.7-2.6,7.4
												c2.1,0.8,37.1,0.1,37.1,0.1s1.3-12.4,0.2-15.8C280.2,412.1,274.8,415.9,271.1,415z"/>
										</g>
									</g>
								</g>
							</g>
							<path class="st20" d="M312,295c0,0-57.1-5.6-65.7,11.9c-5.8,11.8,19.6,99.3,19.6,99.3c5.1,1.6,12.2-0.6,15-3.4
								c0,0,4.5-12.2,0.4-47.4c-0.6-4.7,0-15.4-5-34.3l37.3-16.5L312,295z"/>
						</g>
						<g>
							<path class="st21" d="M355.6,186.2c0,0,13.6,4.4,20.8,10.8c7.3,6.4,1.2,25.4,1.4,36.2c0.2,10.8-1.6,73.5-17.1,81.4
								c-11.7,6-60.9-3.1-57.3-19.1c2.4-10.7,6.9-30.2,10.1-56.8c2.1-17.5,1.2-30.4,3.2-37.6c1.9-7.3,24.7-15.6,24.7-15.6
								L355.6,186.2z"/>
							<g>
								<path class="st17" d="M345.5,199.1c7.1,0,13.6-7.5,13.9-7.8c0.2-0.2,0.1-0.5-0.1-0.7s-0.5-0.1-0.7,0.1
									c-0.1,0.1-6.9,8-13.7,7.5c-0.3,0-0.5,0.2-0.5,0.5s0.2,0.5,0.5,0.5C345,199.1,345.3,199.1,345.5,199.1z"/>
							</g>
							<g>
								<path class="st17" d="M351.7,283.7c0.2,0,0.5-0.2,0.5-0.4c0-0.3-0.2-0.5-0.4-0.6c-18.3-2.1-25.9-33.7-25.9-34.1
									c-0.1-0.3-0.3-0.4-0.6-0.4c-0.3,0.1-0.4,0.3-0.4,0.6C325.1,250.2,332.6,281.5,351.7,283.7
									C351.6,283.7,351.6,283.7,351.7,283.7z"/>
							</g>
							<g>
								<path class="st17" d="M344.4,274.1c0.2,0,0.3-0.1,0.4-0.2c0.1-0.2,0.1-0.5-0.2-0.7c-9.7-6-11.2-14.8-11.2-14.9
									c0-0.3-0.3-0.5-0.6-0.4c-0.3,0-0.5,0.3-0.4,0.6c0.1,0.4,1.5,9.4,11.7,15.6C344.2,274.1,344.3,274.1,344.4,274.1z"/>
							</g>
						</g>
						<g>
							<circle class="st10" cx="350" cy="152.5" r="20"/>
							<path class="st10" d="M330.3,148.9c0,0-5.7-1.6-4.9-7.1c0.6-4.7,6.1-1.7,5.7-5.3c-0.5-3.7-1.6-7,3.2-7.9
								c4.1-0.8,4.2,2,9.6-2.1c6.4-4.9,11.4,6.4,17.1,6.7c8.5,0.5,9.5,5.3,10.4,9.1c0.8,3.8-2.4,6.5-2.4,6.5L330.3,148.9
								L330.3,148.9z"/>
							<g>
								<path class="st22" d="M333.4,158.1c0,0-3.2-4.2-5.5-0.7c-2.4,3.5,1,13.8,6.8,11.3L333.4,158.1z"/>
								<g>
									<path class="st23" d="M333.3,165.5c-0.2,0-0.4-0.1-0.5-0.4c-0.9-3.2-4.2-4.5-4.2-4.5c-0.3-0.1-0.4-0.4-0.3-0.6
										c0.1-0.3,0.4-0.4,0.6-0.3c0.1,0.1,3.8,1.5,4.8,5.1c0.1,0.3-0.1,0.5-0.3,0.6C333.4,165.5,333.4,165.5,333.3,165.5z"/>
								</g>
								<g>
									<g>
										<path class="st23" d="M330,163.9c-0.1,0-0.2,0-0.3-0.1c-0.2-0.1-0.3-0.4-0.1-0.7c0,0,0.6-0.9,1.8-1.5
											c0.2-0.1,0.5,0,0.6,0.2s0,0.5-0.2,0.6c-0.9,0.4-1.4,1.1-1.4,1.1C330.3,163.8,330.2,163.9,330,163.9z"/>
									</g>
								</g>
							</g>
							<path class="st18" d="M356.4,177.5v10.3c0,0-4.3,5.7-8.5,6.1c-4.1,0.4-6.5-5.8-6.5-5.8v-9.9L356.4,177.5z"/>
							<path class="st22" d="M356.4,177.5v4.6c-2.8,3.1-7.7,3.9-15,2.8v-6.6L356.4,177.5z"/>
							<path class="st18" d="M367.2,151.1c-0.2,4-0.6,9-1.3,13c-0.2,1-0.4,1.9-0.6,2.8c-2.2,7.6-7.6,20.6-22.7,15.1
								c-6.7-2.4-9.8-9.8-11.2-17.4c-0.9-5.1-1.1-10.4-1-14.1c0.1-3.8,2.2-7.3,5.4-9.1c8.9-5.1,18.4-3.2,24.6-0.8
								C364.7,142.3,367.4,146.5,367.2,151.1z"/>
							<path class="st10" d="M332.9,161.4c-0.4-2-0.7-4.6-0.5-5.9c0.5-2.4,2.4-3.7,1.8-6s1.7-4.7,3.5-5.1c1.8-0.4,5.9,0.5,10-1.5
								c3.9-1.9,10.6-0.5,11.7,2c1.3,3-0.5,3.3,3.2,6.6c1.4,1.3-0.3,4.7-0.5,6.9c-0.1,1-0.1,1.5-0.1,2.6v0.6h4.3
								c0.5-3.4,0.8-7.2,0.9-10.3c0.2-4.6-2.5-8.8-6.8-10.5c-6.2-2.4-15.6-4.3-24.6,0.8c-3.3,1.9-5.4,5.3-5.4,9.1
								c-0.1,2.9,0,6.8,0.5,10.9L332.9,161.4L332.9,161.4z"/>
							<g>
								<path class="st18" d="M364.4,163.3c0-1.1,0.1-2.3,0.3-3.4c0.3-1.5,0.7-2.9,2.3-3.6c1.3-0.5,2.6-0.5,3.6,0.9
									c2.4,3.5-0.3,14.4-6,11.9L364.4,163.3z"/>
								<g>
									<g>
										<g>
											<path class="st22" d="M365.6,165.9c0.2,0,0.4-0.2,0.4-0.4c0.3-3.3,3.2-5.2,3.3-5.2c0.2-0.1,0.3-0.4,0.1-0.7
												c-0.1-0.2-0.4-0.3-0.7-0.1c-0.1,0.1-3.4,2.2-3.7,6c0,0.3,0.2,0.5,0.4,0.5C365.5,165.9,365.5,165.9,365.6,165.9z"/>
										</g>
									</g>
								</g>
								<g>
									<g>
										<g>
											<path class="st22" d="M368.5,163.7c0.1,0,0.2-0.1,0.2-0.1c0.2-0.2,0.2-0.5,0-0.7c0,0-0.8-0.8-2.1-1.1
												c-0.3-0.1-0.5,0.1-0.6,0.4c-0.1,0.3,0.1,0.5,0.4,0.6c1,0.2,1.6,0.8,1.6,0.8C368.2,163.7,368.4,163.7,368.5,163.7z"/>
										</g>
									</g>
								</g>
							</g>
						</g>
						<g>
							<g>
								<path class="st18" d="M306.4,402.9l0.4,12.7c0,0-3.1,2.3-9.6,1.2l-2.6-13.6L306.4,402.9z"/>
								<g>
									<path class="st24" d="M298.6,415c0,0-2.2-3-4-2.9s-15.7,10.9-20.4,11.7c-4.7,0.8-4.5,6.7-2.6,7.4
										c2.1,0.8,37.1,0.1,37.1,0.1s1.3-12.4,0.2-15.8C307.6,412.1,302.3,415.9,298.6,415z"/>
								</g>
							</g>
							<path class="st10" d="M371.1,296.2c0,0-88.7-6.8-97.4,10.8c-5.8,11.8,19.6,99.3,19.6,99.3c5.1,1.6,12.2-0.6,15-3.4
								c0,0,2.6-6.3-1.5-41.6c-0.6-4.7,4.5-12.4-0.5-31.4h46.4c12.1,0,20.2-16.7,18.9-28.7L371.1,296.2z"/>
						</g>
						<g>
							<polygon class="st8" points="328.9,266.5 335.6,285.2 347.9,267.5 348.9,210.8 348.9,208 345.7,207.5 345.1,211.1 							"/>
							<polygon class="st1" points="345.1,211.1 346.6,213.1 348.9,210.8 348.9,208 345.7,207.5 							"/>
							<polygon class="st8" points="353.6,204.4 347.1,210.8 342.6,204.3 347.9,193.8 							"/>
						</g>
						<path class="st17" d="M356.4,184.6l2.5,1.9c0.5,0.4,1,0.8,1.5,1.3c1.4,1.4,1.9,2.3,1.5,4.6c-0.1,0.4-0.2,0.7-0.3,0.9l0,0
							l-4.4,17.8l-9.3-17.2C347.9,193.8,354.2,192.6,356.4,184.6z"/>
						<path class="st17" d="M341.4,184.6c0,0-6.2,6-5,11.6l4.3,11.5l7.2-13.9C347.9,193.8,342.3,191.9,341.4,184.6z"/>
					</g>
					<g>
						<g>
							<path class="st17" d="M373.6,194.8c-7.1,10.8-34.4,48.2-40.6,52.5c-8,5.7-33.2,16.3-46.3,21.7c-2.4,1,6.4,11.3,6.4,11.3
								s33.8-8.6,47.6-17.4c3.9-2.5,20.1-18.7,30.4-33.1c3.5-4.9,9.3-11.8,10.1-19.1C382.3,202.3,379.6,197.8,373.6,194.8z"/>
						</g>
					</g>
				</g>
			</g>
			<g>
				<g>
					<g>
						<path class="st10" d="M171.2,431.8l35.2-133.9c0.5-1.8-0.3-3.8-1.8-4.4s-3.1,0.4-3.6,2.2l-35.8,136L171.2,431.8L171.2,431.8z"
							/>
					</g>
					<g>
						<g>
							<path class="st10" d="M405.7,431.8h6l-35.8-136c-0.5-1.8-2.1-2.8-3.6-2.2c-1.5,0.6-2.3,2.5-1.8,4.4L405.7,431.8z"/>
						</g>
					</g>
					<path class="st11" d="M377.5,296.7h-184c-2.9,0-5.3-2.9-5.3-6.5l0,0c0-3.6,2.4-6.5,5.3-6.5h183.9c2.9,0,5.3,2.9,5.3,6.5l0,0
						C382.8,293.8,380.4,296.7,377.5,296.7z"/>
				</g>
				<g>
					<path class="st25" d="M330.9,283.7h-62.8c-1.9,0-3.4-1.5-3.4-3.4v-2.2c0-1.9,1.5-3.4,3.4-3.4h62.8c1.9,0,3.4,1.5,3.4,3.4v2.2
						C334.4,282.2,332.8,283.7,330.9,283.7z"/>
					<path class="st26" d="M246.5,283.7l-14.2-53.1c-0.8-3,1.4-5.9,4.5-5.9H268c2.1,0,4,1.4,4.5,3.4l15.6,55.6H246.5L246.5,283.7z"
						/>
					<path class="st27" d="M272.6,228.2l15.5,55.1h3.6l-15.5-55.1c-0.6-2-2.4-3.4-4.5-3.4H268C270.2,224.7,272,226.1,272.6,228.2z"
						/>
					<path class="st28" d="M264.5,256.6c0.8,3.5-1.4,6.3-4.9,6.3s-7-2.8-7.8-6.3s1.4-6.3,4.9-6.3S263.7,253.1,264.5,256.6z"/>
				</g>
			</g>
			<g>
				<g>
					<g>
						<g>
							<g>
								<path class="st21" d="M557.5,419.7c0,0.1,0,0.1,0,0.2c0,2.2-1.2,4.2-3.3,6.2c-0.5,0.5-1.1,0.9-1.7,1.4
									c-1.8,1.3-4,2.5-6.5,3.6c-0.6,0.2-1.1,0.5-1.7,0.7c-2,0.8-4.2,1.5-6.5,2.2c-0.6,0.2-1.2,0.3-1.7,0.5
									c-2.1,0.6-4.3,1.1-6.5,1.5c-0.6,0.1-1.2,0.2-1.7,0.3c-2.1,0.4-4.3,0.8-6.5,1.1c-0.6,0.1-1.2,0.2-1.7,0.2
									c-2.1,0.3-4.3,0.5-6.5,0.7c-0.6,0.1-1.2,0.1-1.7,0.1c-2.1,0.2-4.3,0.3-6.5,0.4c-0.6,0-1.2,0.1-1.7,0.1
									c-2.2,0.1-4.3,0.1-6.5,0.1c-0.4,0-0.8,0-1.2,0c-0.2,0-0.4,0-0.6,0c-2.2,0-4.4-0.1-6.5-0.1c-0.6,0-1.2,0-1.7-0.1
									c-1.6-0.1-3.3-0.2-4.9-0.3c-0.6,0-1.1-0.1-1.7-0.1s-1.2-0.1-1.7-0.1c-2.2-0.2-4.4-0.4-6.5-0.7c-0.6-0.1-1.2-0.1-1.7-0.2
									c-1.4-0.2-2.7-0.4-4-0.6c-0.9-0.1-1.7-0.3-2.6-0.4c-0.6-0.1-1.2-0.2-1.7-0.3c-2.3-0.4-4.5-0.9-6.5-1.5
									c-0.4-0.1-0.8-0.2-1.2-0.3c-0.2-0.1-0.3-0.1-0.5-0.1c-0.9-0.3-1.9-0.5-2.7-0.8c-1.3-0.4-2.6-0.9-3.8-1.3
									c-0.6-0.2-1.2-0.5-1.7-0.7c-2.2-0.9-4.2-1.9-5.8-2.9c-0.3-0.2-0.5-0.3-0.7-0.5c-0.3-0.2-0.6-0.4-0.9-0.6s-0.6-0.4-0.9-0.7
									c-2.5-2.1-3.9-4.3-3.9-6.7c0-0.2,0-0.3,0-0.5v-13.3h3.8h1.7h6.5h1.7h5.1h1.4h1.7h6.5h1.7h6.5h1.7h6.5h1.7h6.5h1.7h6.5h1.7
									h6.5h1.7h6.5h1.7h6.5h1.7h6.5h1.7h6.5h1.7h0.4h6.1h1.7h6.5h1.7h3.3L557.5,419.7L557.5,419.7z"/>
								<g>
									<g>
										<g>
											<path class="st17" d="M438.2,406.1v21.8c-0.3-0.2-0.6-0.4-0.9-0.6s-0.6-0.4-0.9-0.7v-20.5L438.2,406.1z"/>
										</g>
										<g>
											<path class="st17" d="M446.5,406.1v26c-0.6-0.2-1.2-0.5-1.7-0.7v-25.3H446.5z"/>
										</g>
										<g>
											<path class="st17" d="M454.8,406.1v28.6c-0.4-0.1-0.8-0.2-1.2-0.3c-0.2-0.1-0.3-0.1-0.5-0.1v-28.1L454.8,406.1z"/>
										</g>
										<g>
											<path class="st17" d="M463.1,406.1v30.4c-0.6-0.1-1.2-0.2-1.7-0.3v-30.1H463.1z"/>
										</g>
										<g>
											<path class="st17" d="M471.4,406.1v31.7c-0.6-0.1-1.2-0.1-1.7-0.2v-31.5H471.4z"/>
										</g>
										<g>
											<path class="st17" d="M479.7,406v32.6c-0.6,0-1.2-0.1-1.7-0.1V406H479.7z"/>
										</g>
										<g>
											<path class="st17" d="M487.9,406v33.1c-0.6,0-1.2,0-1.7-0.1v-33H487.9z"/>
										</g>
										<g>
											<path class="st17" d="M496.2,406v33.2c-0.4,0-0.8,0-1.2,0c-0.2,0-0.4,0-0.6,0V406H496.2z"/>
										</g>
										<g>
											<path class="st17" d="M504.5,406v33c-0.6,0-1.2,0.1-1.7,0.1V406H504.5z"/>
										</g>
										<g>
											<path class="st17" d="M512.8,406v32.4c-0.6,0.1-1.2,0.1-1.7,0.1V406H512.8z"/>
										</g>
										<g>
											<path class="st17" d="M521.1,406v31.5c-0.6,0.1-1.2,0.2-1.7,0.2V406H521.1z"/>
										</g>
										<g>
											<path class="st17" d="M529.4,406v30c-0.6,0.1-1.2,0.2-1.7,0.3V406H529.4z"/>
										</g>
										<g>
											<path class="st17" d="M537.6,405.9V434c-0.6,0.2-1.2,0.3-1.7,0.5v-28.6H537.6z"/>
										</g>
										<g>
											<path class="st17" d="M545.9,405.9v25.2c-0.6,0.2-1.1,0.5-1.7,0.7v-25.9L545.9,405.9L545.9,405.9z"/>
										</g>
										<g>
											<path class="st17" d="M554.2,405.9v20.2c-0.5,0.5-1.1,0.9-1.7,1.4v-21.6H554.2z"/>
										</g>
									</g>
								</g>
							</g>
							<g>
								<g>
									<path class="st29" d="M557.5,406.1c0,9.8-27.9,17.7-62.4,17.7c-4.7,0-9.3-0.1-13.7-0.4c-5.5-0.4-10.8-0.9-15.7-1.7
										c-4.4-0.7-8.4-1.5-12.1-2.4c-1.1-0.3-2.2-0.6-3.2-0.9c-4.6-1.3-8.4-2.9-11.4-4.6c-0.6-0.3-1.1-0.7-1.6-1
										c-3-2.1-4.7-4.4-4.7-6.8c0-0.2,0-0.4,0.1-0.6c1.2-9.5,28.7-17.1,62.4-17.1c8.3,0,16.2,0.5,23.4,1.3
										c1.4,0.2,2.8,0.3,4.1,0.5c5.9,0.8,11.2,1.9,15.9,3.2c1,0.3,2,0.6,3,0.9c3.4,1.1,6.3,2.3,8.7,3.5c2.5,1.3,4.4,2.7,5.6,4.2
										c0.9,1.1,1.4,2.2,1.6,3.4C557.5,405.6,557.5,405.9,557.5,406.1z"/>
									<path class="st30" d="M555.8,402l-74.5,21.3c-5.5-0.4-10.8-0.9-15.7-1.7l84.5-23.9C552.7,399.1,554.6,400.5,555.8,402z"/>
									<path class="st30" d="M522.6,390.2L439,413.9c-0.6-0.3-1.1-0.7-1.6-1l81.1-23.2C519.9,389.8,521.3,390,522.6,390.2z"/>
									<path class="st30" d="M541.5,394.2l-87.9,25.1c-1.1-0.3-2.2-0.6-3.2-0.9l88.1-25.1C539.5,393.6,540.5,393.9,541.5,394.2z"
										/>
									<path class="st17" d="M545,406.1c0,0.2,0,0.4-0.1,0.6c-1.2,7.5-23.1,13.5-49.8,13.5s-48.6-6-49.8-13.5
										c0-0.2-0.1-0.4-0.1-0.6c0-7.8,22.4-14.2,49.9-14.2C522.5,391.9,545,398.3,545,406.1z"/>
									<path class="st21" d="M544.9,406.7c-1.2,7.5-23.1,13.5-49.8,13.5c-0.6,0-1.2,0-1.8,0c-6-0.1-11.7-0.4-16.9-1
										c-5.3-0.6-10.1-1.5-14.3-2.5c-1.1-0.3-2.1-0.5-3.1-0.8c-4.5-1.3-8.1-2.9-10.4-4.6c-0.6-0.4-1.1-0.9-1.5-1.3
										c-1-1-1.7-2.1-1.8-3.2c1.2-7.5,23.1-13.5,49.8-13.5c3.4,0,6.7,0.1,9.9,0.3c1.6,0.1,3.2,0.2,4.8,0.4
										c6.4,0.6,12.3,1.5,17.3,2.7c1.1,0.3,2.1,0.5,3.2,0.8c3.9,1.1,7.2,2.4,9.6,3.8c2.4,1.4,4,2.9,4.7,4.5
										C544.8,406,544.8,406.4,544.9,406.7z"/>
									<path class="st31" d="M544.6,405.7l-51.3,14.6c-6-0.1-11.7-0.4-16.9-1l63.5-18C542.3,402.6,543.9,404.1,544.6,405.7z"/>
									<path class="st31" d="M509.8,393.8l-61.2,17.4c-0.6-0.4-1.1-0.9-1.5-1.3l57.9-16.4C506.6,393.6,508.2,393.7,509.8,393.8z"
										/>
									<path class="st31" d="M530.2,397.4l-68.1,19.4c-1.1-0.3-2.1-0.5-3.1-0.8l68.1-19.3C528.2,396.8,529.2,397.1,530.2,397.4z"
										/>
									<g>
										<g>
											<g>
												<g>
													<g>
														<path class="st17" d="M502,414.1v2.4h-10.5v-2.2c-7.5-0.1-14.7-0.7-19.2-1.5l5.7-3.7c4.9,0.8,11.5,1.4,17.3,1.4
															c5,0,6.8-0.3,6.8-0.8c0-1.9-28.9-0.4-28.9-5.9c0-2.4,6.1-4.4,18.4-4.9v-2.3H502v2.3c5.5,0.1,10.9,0.6,15.2,1.2
															l-5.3,3.6c-5.2-0.7-10-1.1-14.6-1.1c-5.2,0-6.8,0.4-6.8,0.9c0,1.8,28.9,0.3,28.9,5.8
															C519.4,411.6,513.6,413.5,502,414.1z"/>
													</g>
												</g>
											</g>
										</g>
										<g>
											<path class="st29" d="M501.7,413.3v2.4h-10.5v-2.2c-7.5-0.1-14.7-0.7-19.2-1.5l5.7-3.7c4.9,0.8,11.5,1.4,17.3,1.4
												c5,0,6.8-0.3,6.8-0.8c0-1.9-28.9-0.4-28.9-5.9c0-2.4,6.1-4.4,18.4-4.9v-2.3h10.5v2.3c5.5,0.1,10.9,0.6,15.2,1.2l-5.3,3.6
												c-5.2-0.7-10-1.1-14.6-1.1c-5.2,0-6.8,0.4-6.8,0.9c0,1.8,28.9,0.3,28.9,5.8C519.1,410.8,513.3,412.8,501.7,413.3z"/>
										</g>
									</g>
								</g>
							</g>
						</g>
						<g>
							<g>
								<path class="st21" d="M561.4,397.9c0,0.1,0,0.1,0,0.2c0,2.2-1.2,4.2-3.3,6.2c-0.5,0.5-1.1,0.9-1.7,1.4
									c-1.8,1.3-4,2.5-6.5,3.6c-0.6,0.2-1.1,0.5-1.7,0.7c-2,0.8-4.2,1.5-6.5,2.2c-0.6,0.2-1.2,0.3-1.7,0.5
									c-2.1,0.6-4.3,1.1-6.5,1.5c-0.6,0.1-1.2,0.2-1.7,0.3c-2.1,0.4-4.3,0.8-6.5,1.1c-0.6,0.1-1.2,0.2-1.7,0.2
									c-2.1,0.3-4.3,0.5-6.5,0.7c-0.6,0.1-1.2,0.1-1.7,0.1c-2.1,0.2-4.3,0.3-6.5,0.4c-0.6,0-1.2,0.1-1.7,0.1
									c-2.2,0.1-4.3,0.1-6.5,0.1c-0.4,0-0.8,0-1.2,0c-0.2,0-0.4,0-0.6,0c-2.2,0-4.4-0.1-6.5-0.1c-0.6,0-1.2,0-1.7-0.1
									c-1.6-0.1-3.3-0.2-4.9-0.3c-0.6,0-1.1-0.1-1.7-0.1s-1.2-0.1-1.7-0.1c-2.2-0.2-4.4-0.4-6.5-0.7c-0.6-0.1-1.2-0.1-1.7-0.2
									c-1.4-0.2-2.7-0.4-4-0.6c-0.9-0.1-1.7-0.3-2.6-0.4c-0.6-0.1-1.2-0.2-1.7-0.3c-2.3-0.4-4.5-0.9-6.5-1.5
									c-0.4-0.1-0.8-0.2-1.2-0.3c-0.2-0.1-0.3-0.1-0.5-0.1c-0.9-0.3-1.9-0.5-2.7-0.8c-1.3-0.4-2.6-0.9-3.8-1.3
									c-0.6-0.2-1.2-0.5-1.7-0.7c-2.2-0.9-4.2-1.9-5.8-2.9c-0.3-0.2-0.5-0.3-0.7-0.5c-0.3-0.2-0.6-0.4-0.9-0.6s-0.6-0.4-0.9-0.7
									c-2.5-2.1-3.9-4.3-3.9-6.7c0-0.2,0-0.3,0-0.5v-13.3h3.8h1.7h6.5h1.7h5.1h1.4h1.7h6.5h1.7h6.5h1.7h6.5h1.7h6.5h1.7h6.5h1.7
									h6.5h1.7h6.5h1.7h6.5h1.7h6.5h1.7h6.5h1.7h0.4h6.1h1.7h6.5h1.7h3.3L561.4,397.9L561.4,397.9z"/>
								<g>
									<g>
										<g>
											<path class="st17" d="M442.2,384.2V406c-0.3-0.2-0.6-0.4-0.9-0.6s-0.6-0.4-0.9-0.7v-20.5L442.2,384.2z"/>
										</g>
										<g>
											<path class="st17" d="M450.4,384.2v26c-0.6-0.2-1.2-0.5-1.7-0.7v-25.3H450.4z"/>
										</g>
										<g>
											<path class="st17" d="M458.7,384.2v28.6c-0.4-0.1-0.8-0.2-1.2-0.3c-0.2-0.1-0.3-0.1-0.5-0.1v-28.1L458.7,384.2z"/>
										</g>
										<g>
											<path class="st17" d="M467,384.2v30.4c-0.6-0.1-1.2-0.2-1.7-0.3v-30.1H467z"/>
										</g>
										<g>
											<path class="st17" d="M475.3,384.2v31.7c-0.6-0.1-1.2-0.1-1.7-0.2v-31.5H475.3z"/>
										</g>
										<g>
											<path class="st17" d="M483.6,384.2v32.6c-0.6,0-1.2-0.1-1.7-0.1v-32.4h1.7V384.2z"/>
										</g>
										<g>
											<path class="st17" d="M491.9,384.2v33.1c-0.6,0-1.2,0-1.7-0.1v-33H491.9z"/>
										</g>
										<g>
											<path class="st17" d="M500.2,384.1v33.2c-0.4,0-0.8,0-1.2,0c-0.2,0-0.4,0-0.6,0v-33.2H500.2z"/>
										</g>
										<g>
											<path class="st17" d="M508.4,384.1v33c-0.6,0-1.2,0.1-1.7,0.1v-33.1H508.4z"/>
										</g>
										<g>
											<path class="st17" d="M516.7,384.1v32.4c-0.6,0.1-1.2,0.1-1.7,0.1V384h1.7V384.1z"/>
										</g>
										<g>
											<path class="st17" d="M525,384.1v31.5c-0.6,0.1-1.2,0.2-1.7,0.2v-31.7H525z"/>
										</g>
										<g>
											<path class="st17" d="M533.3,384.1v30.1c-0.6,0.1-1.2,0.2-1.7,0.3v-30.4H533.3z"/>
										</g>
										<g>
											<path class="st17" d="M541.6,384.1v28.1c-0.6,0.2-1.2,0.3-1.7,0.5v-28.6H541.6z"/>
										</g>
										<g>
											<path class="st17" d="M549.9,384.1v25.2c-0.6,0.2-1.1,0.5-1.7,0.7v-25.9L549.9,384.1L549.9,384.1z"/>
										</g>
										<g>
											<path class="st17" d="M558.1,384.1v20.2c-0.5,0.5-1.1,0.9-1.7,1.4v-21.6H558.1z"/>
										</g>
									</g>
								</g>
							</g>
							<g>
								<g>
									<path class="st29" d="M561.4,384.2c0,9.8-27.9,17.7-62.4,17.7c-4.7,0-9.3-0.1-13.7-0.4c-5.5-0.4-10.8-0.9-15.7-1.7
										c-4.4-0.7-8.4-1.5-12.1-2.4c-1.1-0.3-2.2-0.6-3.2-0.9c-4.6-1.3-8.4-2.9-11.4-4.6c-0.6-0.3-1.1-0.7-1.6-1
										c-3-2.1-4.7-4.4-4.7-6.8c0-0.2,0-0.4,0.1-0.6c1.2-9.5,28.7-17.1,62.4-17.1c8.3,0,16.2,0.5,23.4,1.3
										c1.4,0.2,2.8,0.3,4.1,0.5c5.9,0.8,11.2,1.9,15.9,3.2c1,0.3,2,0.6,3,0.9c3.4,1.1,6.3,2.3,8.7,3.5c2.5,1.3,4.4,2.7,5.6,4.2
										c0.9,1.1,1.4,2.2,1.6,3.4C561.4,383.8,561.4,384,561.4,384.2z"/>
									<path class="st30" d="M559.8,380.2l-74.5,21.3c-5.5-0.4-10.8-0.9-15.7-1.7l84.5-23.9C556.6,377.3,558.5,378.7,559.8,380.2z
										"/>
									<path class="st30" d="M526.6,368.3L442.9,392c-0.6-0.3-1.1-0.7-1.6-1l81.1-23.2C523.8,368,525.2,368.1,526.6,368.3z"/>
									<path class="st30" d="M545.4,372.4l-87.9,25.1c-1.1-0.3-2.2-0.6-3.2-0.9l88.1-25.1C543.5,371.8,544.5,372.1,545.4,372.4z"
										/>
									<path class="st17" d="M548.9,384.2c0,0.2,0,0.4-0.1,0.6c-1.2,7.5-23.1,13.5-49.8,13.5s-48.6-6-49.8-13.5
										c0-0.2-0.1-0.4-0.1-0.6c0-7.8,22.4-14.2,49.9-14.2C526.5,370.1,548.9,376.4,548.9,384.2z"/>
									<path class="st21" d="M548.8,384.9c-1.2,7.5-23.1,13.5-49.8,13.5c-0.6,0-1.2,0-1.8,0c-6-0.1-11.7-0.4-16.9-1
										c-5.3-0.6-10.1-1.5-14.3-2.5c-1.1-0.3-2.1-0.5-3.1-0.8c-4.5-1.3-8.1-2.9-10.4-4.6c-0.6-0.4-1.1-0.9-1.5-1.3
										c-1-1-1.7-2.1-1.8-3.2c1.2-7.5,23.1-13.5,49.8-13.5c3.4,0,6.7,0.1,9.9,0.3c1.6,0.1,3.2,0.2,4.8,0.4
										c6.4,0.6,12.3,1.5,17.3,2.7c1.1,0.3,2.1,0.5,3.2,0.8c3.9,1.1,7.2,2.4,9.6,3.8c2.4,1.4,4,2.9,4.7,4.5
										C548.7,384.2,548.8,384.5,548.8,384.9z"/>
									<path class="st31" d="M548.5,383.8l-51.3,14.6c-6-0.1-11.7-0.4-16.9-1l63.5-18C546.2,380.7,547.8,382.2,548.5,383.8z"/>
									<path class="st31" d="M513.7,372l-61.2,17.4c-0.6-0.4-1.1-0.9-1.5-1.3l57.9-16.4C510.5,371.7,512.1,371.8,513.7,372z"/>
									<path class="st31" d="M534.2,375.5L466,394.8c-1.1-0.3-2.1-0.5-3.1-0.8l68.1-19.3C532.1,374.9,533.2,375.2,534.2,375.5z"/>
									<g>
										<g>
											<g>
												<g>
													<g>
														<path class="st17" d="M505.9,392.3v2.4h-10.5v-2.2c-7.5-0.1-14.7-0.7-19.2-1.5l5.7-3.7c4.9,0.8,11.5,1.4,17.2,1.4
															c5,0,6.8-0.3,6.8-0.8c0-1.9-28.9-0.4-28.9-5.9c0-2.4,6.1-4.4,18.4-4.9v-2.3h10.5v2.3c5.5,0.1,10.9,0.6,15.2,1.2
															l-5.3,3.6c-5.2-0.7-10-1.1-14.6-1.1c-5.2,0-6.8,0.4-6.8,0.9c0,1.8,28.9,0.3,28.9,5.8
															C523.3,389.7,517.5,391.7,505.9,392.3z"/>
													</g>
												</g>
											</g>
										</g>
										<g>
											<path class="st29" d="M505.6,391.5v2.4h-10.5v-2.2c-7.5-0.1-14.7-0.7-19.2-1.5l5.7-3.7c4.9,0.8,11.5,1.4,17.3,1.4
												c5,0,6.8-0.3,6.8-0.8c0-1.9-28.9-0.4-28.9-5.9c0-2.4,6.1-4.4,18.4-4.9V374h10.5v2.3c5.5,0.1,10.9,0.6,15.2,1.2l-5.3,3.6
												c-5.2-0.7-10-1.1-14.6-1.1c-5.2,0-6.8,0.4-6.8,0.9c0,1.8,28.9,0.3,28.9,5.8C523,388.9,517.2,390.9,505.6,391.5z"/>
										</g>
									</g>
								</g>
							</g>
						</g>
						<g>
							<g>
								<path class="st21" d="M560.8,376c0,0.1,0,0.1,0,0.2c0,2.2-1.2,4.2-3.3,6.2c-0.5,0.5-1.1,0.9-1.7,1.4c-1.8,1.3-4,2.5-6.5,3.6
									c-0.6,0.2-1.1,0.5-1.7,0.7c-2,0.8-4.2,1.5-6.5,2.2c-0.6,0.2-1.2,0.3-1.7,0.5c-2.1,0.6-4.3,1.1-6.5,1.5
									c-0.6,0.1-1.2,0.2-1.7,0.3c-2.1,0.4-4.3,0.8-6.5,1.1c-0.6,0.1-1.2,0.2-1.7,0.2c-2.1,0.3-4.3,0.5-6.5,0.7
									c-0.6,0.1-1.2,0.1-1.7,0.1c-2.1,0.2-4.3,0.3-6.5,0.4c-0.6,0-1.2,0.1-1.7,0.1c-2.2,0.1-4.3,0.1-6.5,0.1c-0.4,0-0.8,0-1.2,0
									c-0.2,0-0.4,0-0.6,0c-2.2,0-4.4-0.1-6.5-0.1c-0.6,0-1.2,0-1.7-0.1c-1.6-0.1-3.3-0.2-4.9-0.3c-0.6,0-1.1-0.1-1.7-0.1
									s-1.2-0.1-1.7-0.1c-2.2-0.2-4.4-0.4-6.5-0.7c-0.6-0.1-1.2-0.1-1.7-0.2c-1.4-0.2-2.7-0.4-4-0.6c-0.9-0.1-1.7-0.3-2.6-0.4
									c-0.6-0.1-1.2-0.2-1.7-0.3c-2.3-0.4-4.5-0.9-6.5-1.5c-0.4-0.1-0.8-0.2-1.2-0.3c-0.2-0.1-0.3-0.1-0.5-0.1
									c-0.9-0.3-1.9-0.5-2.7-0.8c-1.3-0.4-2.6-0.9-3.8-1.3c-0.6-0.2-1.2-0.5-1.7-0.7c-2.2-0.9-4.2-1.9-5.8-2.9
									c-0.3-0.2-0.5-0.3-0.7-0.5c-0.3-0.2-0.6-0.4-0.9-0.6s-0.6-0.4-0.9-0.7c-2.5-2.1-3.9-4.3-3.9-6.7c0-0.2,0-0.3,0-0.5v-13.3
									h3.8h1.7h6.5h1.7h5.1h1.4h1.7h6.5h1.7h6.5h1.7h6.5h1.7h6.5h1.7h6.5h1.7h6.5h1.7h6.5h1.7h6.5h1.7h6.5h1.7h6.5h1.7h0.4h6.1
									h1.7h6.5h1.7h3.3L560.8,376L560.8,376z"/>
								<g>
									<g>
										<g>
											<path class="st17" d="M441.6,362.4v21.8c-0.3-0.2-0.6-0.4-0.9-0.6s-0.6-0.4-0.9-0.7v-20.5L441.6,362.4z"/>
										</g>
										<g>
											<path class="st17" d="M449.9,362.4v26c-0.6-0.2-1.2-0.5-1.7-0.7v-25.3H449.9z"/>
										</g>
										<g>
											<path class="st17" d="M458.2,362.3v28.6c-0.4-0.1-0.8-0.2-1.2-0.3c-0.2-0.1-0.3-0.1-0.5-0.1v-28.1L458.2,362.3z"/>
										</g>
										<g>
											<path class="st17" d="M466.4,362.3v30.4c-0.6-0.1-1.2-0.2-1.7-0.3v-30.1H466.4z"/>
										</g>
										<g>
											<path class="st17" d="M474.7,362.3V394c-0.6-0.1-1.2-0.1-1.7-0.2v-31.5H474.7z"/>
										</g>
										<g>
											<path class="st17" d="M483,362.3v32.6c-0.6,0-1.2-0.1-1.7-0.1v-32.4h1.7V362.3z"/>
										</g>
										<g>
											<path class="st17" d="M491.3,362.3v33.1c-0.6,0-1.2,0-1.7-0.1v-33H491.3z"/>
										</g>
										<g>
											<path class="st17" d="M499.6,362.3v33.2c-0.4,0-0.8,0-1.2,0c-0.2,0-0.4,0-0.6,0v-33.2H499.6z"/>
										</g>
										<g>
											<path class="st17" d="M507.9,362.3v33c-0.6,0-1.2,0.1-1.7,0.1v-33.1H507.9z"/>
										</g>
										<g>
											<path class="st17" d="M516.1,362.3v32.4c-0.6,0.1-1.2,0.1-1.7,0.1v-32.6h1.7V362.3z"/>
										</g>
										<g>
											<path class="st17" d="M524.4,362.3v31.5c-0.6,0.1-1.2,0.2-1.7,0.2v-31.7H524.4z"/>
										</g>
										<g>
											<path class="st17" d="M532.7,362.2v30.1c-0.6,0.1-1.2,0.2-1.7,0.3v-30.4H532.7z"/>
										</g>
										<g>
											<path class="st17" d="M541,362.2v28.1c-0.6,0.2-1.2,0.3-1.7,0.5v-28.6H541z"/>
										</g>
										<g>
											<path class="st17" d="M549.3,362.2v25.2c-0.6,0.2-1.1,0.5-1.7,0.7v-25.9L549.3,362.2L549.3,362.2z"/>
										</g>
										<g>
											<path class="st17" d="M557.6,362.2v20.2c-0.5,0.5-1.1,0.9-1.7,1.4v-21.6H557.6z"/>
										</g>
									</g>
								</g>
							</g>
							<g>
								<g>
									<path class="st29" d="M560.8,362.4c0,9.8-27.9,17.7-62.4,17.7c-4.7,0-9.3-0.1-13.7-0.4c-5.5-0.4-10.8-0.9-15.7-1.7
										c-4.4-0.7-8.4-1.5-12.1-2.4c-1.1-0.3-2.2-0.6-3.2-0.9c-4.6-1.3-8.4-2.9-11.4-4.6c-0.6-0.3-1.1-0.7-1.6-1
										c-3-2.1-4.7-4.4-4.7-6.8c0-0.2,0-0.4,0.1-0.6c1.2-9.5,28.7-17.1,62.4-17.1c8.3,0,16.2,0.5,23.4,1.3
										c1.4,0.2,2.8,0.3,4.1,0.5c5.9,0.8,11.2,1.9,15.9,3.2c1,0.3,2,0.6,3,0.9c3.4,1.1,6.3,2.3,8.7,3.5c2.5,1.3,4.4,2.7,5.6,4.2
										c0.9,1.1,1.4,2.2,1.6,3.4C560.8,361.9,560.8,362.1,560.8,362.4z"/>
									<path class="st30" d="M559.2,358.3l-74.5,21.3c-5.5-0.4-10.8-0.9-15.7-1.7l84.5-23.9C556.1,355.4,558,356.8,559.2,358.3z"
										/>
									<path class="st30" d="M526,346.5l-83.6,23.7c-0.6-0.3-1.1-0.7-1.6-1l81.1-23.2C523.3,346.1,524.6,346.3,526,346.5z"/>
									<path class="st30" d="M544.8,350.5L457,375.6c-1.1-0.3-2.2-0.6-3.2-0.9l88.1-25.1C542.9,349.9,543.9,350.2,544.8,350.5z"/>
									<path class="st17" d="M548.3,362.4c0,0.2,0,0.4-0.1,0.6c-1.2,7.5-23.1,13.5-49.8,13.5s-48.6-6-49.8-13.5
										c0-0.2-0.1-0.4-0.1-0.6c0-7.8,22.4-14.2,49.9-14.2C525.9,348.2,548.3,354.6,548.3,362.4z"/>
									<path class="st21" d="M548.3,363c-1.2,7.5-23.1,13.5-49.8,13.5c-0.6,0-1.2,0-1.8,0c-6-0.1-11.7-0.4-16.9-1
										c-5.3-0.6-10.1-1.5-14.3-2.5c-1.1-0.3-2.1-0.5-3.1-0.8c-4.5-1.3-8.1-2.9-10.4-4.6c-0.6-0.4-1.1-0.9-1.5-1.3
										c-1-1-1.7-2.1-1.8-3.2c1.2-7.5,23.1-13.5,49.8-13.5c3.4,0,6.7,0.1,9.9,0.3c1.6,0.1,3.2,0.2,4.8,0.4
										c6.4,0.6,12.3,1.5,17.3,2.7c1.1,0.3,2.1,0.5,3.2,0.8c3.9,1.1,7.2,2.4,9.6,3.8c2.4,1.4,4,2.9,4.7,4.5
										C548.1,362.3,548.2,362.7,548.3,363z"/>
									<path class="st31" d="M547.9,362l-51.3,14.6c-6-0.1-11.7-0.4-16.9-1l63.5-18C545.6,358.8,547.3,360.4,547.9,362z"/>
									<path class="st31" d="M513.1,350.1L452,367.5c-0.6-0.4-1.1-0.9-1.5-1.3l57.9-16.4C509.9,349.9,511.6,350,513.1,350.1z"/>
									<path class="st31" d="M533.6,353.6L465.5,373c-1.1-0.3-2.1-0.5-3.1-0.8l68.1-19.3C531.5,353.1,532.6,353.3,533.6,353.6z"/>
									<g>
										<g>
											<g>
												<g>
													<g>
														<path class="st17" d="M505.4,370.4v2.4h-10.5v-2.2c-7.5-0.1-14.7-0.7-19.2-1.5l5.7-3.7c4.9,0.8,11.5,1.4,17.3,1.4
															c5,0,6.8-0.3,6.8-0.8c0-1.9-28.9-0.4-28.9-5.9c0-2.4,6.1-4.4,18.4-4.9v-2.3h10.5v2.3c5.5,0.1,10.9,0.6,15.2,1.2
															l-5.3,3.6c-5.2-0.7-10-1.1-14.6-1.1c-5.2,0-6.8,0.4-6.8,0.9c0,1.8,28.9,0.3,28.9,5.8
															C522.7,367.8,516.9,369.8,505.4,370.4z"/>
													</g>
												</g>
											</g>
										</g>
										<g>
											<path class="st29" d="M505,369.6v2.4h-10.5v-2.2c-7.5-0.1-14.7-0.7-19.2-1.5l5.7-3.7c4.9,0.8,11.5,1.4,17.3,1.4
												c5,0,6.8-0.3,6.8-0.8c0-1.9-28.9-0.4-28.9-5.9c0-2.4,6.1-4.4,18.4-4.9V352h10.5v2.3c5.5,0.1,10.9,0.6,15.2,1.2l-5.3,3.6
												c-5.2-0.7-10-1.1-14.6-1.1c-5.2,0-6.8,0.4-6.8,0.9c0,1.8,28.9,0.3,28.9,5.8C522.5,367.1,516.6,369,505,369.6z"/>
										</g>
									</g>
								</g>
							</g>
						</g>
						<g>
							<g>
								<path class="st21" d="M557.7,356.5c0,0.1,0,0.1,0,0.2c0,2.2-1.2,4.2-3.3,6.2c-0.5,0.5-1.1,0.9-1.7,1.4
									c-1.8,1.3-4,2.5-6.5,3.6c-0.6,0.2-1.1,0.5-1.7,0.7c-2,0.8-4.2,1.5-6.5,2.2c-0.6,0.2-1.2,0.3-1.7,0.5
									c-2.1,0.6-4.3,1.1-6.5,1.5c-0.6,0.1-1.2,0.2-1.7,0.3c-2.1,0.4-4.3,0.8-6.5,1.1c-0.6,0.1-1.2,0.2-1.7,0.2
									c-2.1,0.3-4.3,0.5-6.5,0.7c-0.6,0.1-1.2,0.1-1.7,0.1c-2.1,0.2-4.3,0.3-6.5,0.4c-0.6,0-1.2,0.1-1.7,0.1
									c-2.2,0.1-4.3,0.1-6.5,0.1c-0.4,0-0.8,0-1.2,0c-0.2,0-0.4,0-0.6,0c-2.2,0-4.4-0.1-6.5-0.1c-0.6,0-1.2,0-1.7-0.1
									c-1.6-0.1-3.3-0.2-4.9-0.3c-0.6,0-1.1-0.1-1.7-0.1s-1.2-0.1-1.7-0.1c-2.2-0.2-4.4-0.4-6.5-0.7c-0.6-0.1-1.2-0.1-1.7-0.2
									c-1.4-0.2-2.7-0.4-4-0.6c-0.9-0.1-1.7-0.3-2.6-0.4c-0.6-0.1-1.2-0.2-1.7-0.3c-2.3-0.4-4.5-0.9-6.5-1.5
									c-0.4-0.1-0.8-0.2-1.2-0.3c-0.2-0.1-0.3-0.1-0.5-0.1c-0.9-0.3-1.9-0.5-2.7-0.8c-1.3-0.4-2.6-0.9-3.8-1.3
									c-0.6-0.2-1.2-0.5-1.7-0.7c-2.2-0.9-4.2-1.9-5.8-2.9c-0.3-0.2-0.5-0.3-0.7-0.5c-0.3-0.2-0.6-0.4-0.9-0.6s-0.6-0.4-0.9-0.7
									c-2.5-2.1-3.9-4.3-3.9-6.7c0-0.2,0-0.3,0-0.5V343h3.8h1.7h6.5h1.7h5.1h1.4h1.7h6.5h1.7h6.5h1.7h6.5h1.7h6.5h1.7h6.5h1.7h6.5
									h1.7h6.5h1.7h6.5h1.7h6.5h1.7h6.5h1.7h0.4h6.1h1.7h6.5h1.7h3.3L557.7,356.5L557.7,356.5z"/>
								<g>
									<g>
										<g>
											<path class="st17" d="M438.5,342.8v21.8c-0.3-0.2-0.6-0.4-0.9-0.6s-0.6-0.4-0.9-0.7v-20.5L438.5,342.8z"/>
										</g>
										<g>
											<path class="st17" d="M446.8,342.8v26c-0.6-0.2-1.2-0.5-1.7-0.7v-25.3H446.8z"/>
										</g>
										<g>
											<path class="st17" d="M455,342.8v28.6c-0.4-0.1-0.8-0.2-1.2-0.3c-0.2-0.1-0.3-0.1-0.5-0.1v-28.1L455,342.8z"/>
										</g>
										<g>
											<path class="st17" d="M463.3,342.8v30.4c-0.6-0.1-1.2-0.2-1.7-0.3v-30.1H463.3z"/>
										</g>
										<g>
											<path class="st17" d="M471.6,342.8v31.7c-0.6-0.1-1.2-0.1-1.7-0.2v-31.5H471.6z"/>
										</g>
										<g>
											<path class="st17" d="M479.9,342.8v32.6c-0.6,0-1.2-0.1-1.7-0.1v-32.4h1.7V342.8z"/>
										</g>
										<g>
											<path class="st17" d="M488.2,342.8v33.1c-0.6,0-1.2,0-1.7-0.1v-33H488.2z"/>
										</g>
										<g>
											<path class="st17" d="M496.5,342.7v33.2c-0.4,0-0.8,0-1.2,0c-0.2,0-0.4,0-0.6,0v-33.2H496.5z"/>
										</g>
										<g>
											<path class="st17" d="M504.8,342.7v33c-0.6,0-1.2,0.1-1.7,0.1v-33.1H504.8z"/>
										</g>
										<g>
											<path class="st17" d="M513,342.7v32.4c-0.6,0.1-1.2,0.1-1.7,0.1v-32.6h1.7V342.7z"/>
										</g>
										<g>
											<path class="st17" d="M521.3,342.7v31.5c-0.6,0.1-1.2,0.2-1.7,0.2v-31.7H521.3z"/>
										</g>
										<g>
											<path class="st17" d="M529.6,342.7v30.1c-0.6,0.1-1.2,0.2-1.7,0.3v-30.4H529.6z"/>
										</g>
										<g>
											<path class="st17" d="M537.9,342.7v28.1c-0.6,0.2-1.2,0.3-1.7,0.5v-28.6H537.9z"/>
										</g>
										<g>
											<path class="st17" d="M546.2,342.7v25.2c-0.6,0.2-1.1,0.5-1.7,0.7v-25.9L546.2,342.7L546.2,342.7z"/>
										</g>
										<g>
											<path class="st17" d="M554.5,342.6v20.2c-0.5,0.5-1.1,0.9-1.7,1.4v-21.6H554.5z"/>
										</g>
									</g>
								</g>
							</g>
							<g>
								<g>
									<path class="st29" d="M557.7,342.8c0,9.8-27.9,17.7-62.4,17.7c-4.7,0-9.3-0.1-13.7-0.4c-5.5-0.4-10.8-0.9-15.7-1.7
										c-4.4-0.7-8.4-1.5-12.1-2.4c-1.1-0.3-2.2-0.6-3.2-0.9c-4.6-1.3-8.4-2.9-11.4-4.6c-0.6-0.3-1.1-0.7-1.6-1
										c-3-2.1-4.7-4.4-4.7-6.8c0-0.2,0-0.4,0.1-0.6c1.2-9.5,28.7-17.1,62.4-17.1c8.3,0,16.2,0.5,23.4,1.3
										c1.4,0.2,2.8,0.3,4.1,0.5c5.9,0.8,11.2,1.9,15.9,3.2c1,0.3,2,0.6,3,0.9c3.4,1.1,6.3,2.3,8.7,3.5c2.5,1.3,4.4,2.7,5.6,4.2
										c0.9,1.1,1.4,2.2,1.6,3.4C557.7,342.4,557.7,342.6,557.7,342.8z"/>
									<path class="st30" d="M556.1,338.8l-74.5,21.3c-5.5-0.4-10.8-0.9-15.7-1.7l84.5-23.9C553,335.8,554.8,337.3,556.1,338.8z"
										/>
									<path class="st30" d="M522.9,326.9l-83.6,23.7c-0.6-0.3-1.1-0.7-1.6-1l81.1-23.2C520.2,326.5,521.5,326.7,522.9,326.9z"/>
									<path class="st30" d="M541.7,331l-87.9,25.1c-1.1-0.3-2.2-0.6-3.2-0.9l88.1-25.1C539.8,330.4,540.8,330.7,541.7,331z"/>
									<path class="st17" d="M545.2,342.8c0,0.2,0,0.4-0.1,0.6C543.9,351,522,357,495.3,357s-48.6-6-49.8-13.5
										c0-0.2-0.1-0.4-0.1-0.6c0-7.8,22.4-14.2,49.9-14.2C522.8,328.7,545.2,335,545.2,342.8z"/>
									<path class="st21" d="M545.1,343.5C543.9,351,522,357,495.3,357c-0.6,0-1.2,0-1.8,0c-6-0.1-11.7-0.4-16.9-1
										c-5.3-0.6-10.1-1.5-14.3-2.5c-1.1-0.3-2.1-0.5-3.1-0.8c-4.5-1.3-8.1-2.9-10.4-4.6c-0.6-0.4-1.1-0.9-1.5-1.3
										c-1-1-1.7-2.1-1.8-3.2c1.2-7.5,23.1-13.5,49.8-13.5c3.4,0,6.7,0.1,9.9,0.3c1.6,0.1,3.2,0.2,4.8,0.4
										c6.4,0.6,12.3,1.5,17.3,2.7c1.1,0.3,2.1,0.5,3.2,0.8c3.9,1.1,7.2,2.4,9.6,3.8c2.4,1.4,4,2.9,4.7,4.5
										C545,342.8,545.1,343.1,545.1,343.5z"/>
									<path class="st31" d="M544.8,342.4L493.5,357c-6-0.1-11.7-0.4-16.9-1l63.5-18C542.5,339.3,544.2,340.8,544.8,342.4z"/>
									<path class="st31" d="M510,330.6L448.8,348c-0.6-0.4-1.1-0.9-1.5-1.3l57.9-16.4C506.8,330.3,508.4,330.4,510,330.6z"/>
									<path class="st31" d="M530.5,334.1l-68.1,19.4c-1.1-0.3-2.1-0.5-3.1-0.8l68.1-19.3C528.4,333.5,529.5,333.8,530.5,334.1z"
										/>
									<g>
										<g>
											<g>
												<g>
													<g>
														<path class="st17" d="M502.2,350.8v2.4h-10.5V351c-7.5-0.1-14.7-0.7-19.2-1.5l5.7-3.7c4.9,0.8,11.5,1.4,17.2,1.4
															c5,0,6.8-0.3,6.8-0.8c0-1.9-28.9-0.4-28.9-5.9c0-2.4,6.1-4.4,18.4-4.9v-2.3h10.5v2.3c5.5,0.1,10.9,0.6,15.2,1.2
															l-5.3,3.6c-5.2-0.7-10-1.1-14.6-1.1c-5.2,0-6.8,0.4-6.8,0.9c0,1.8,28.9,0.3,28.9,5.8
															C519.7,348.3,513.8,350.3,502.2,350.8z"/>
													</g>
												</g>
											</g>
										</g>
										<g>
											<path class="st29" d="M502,350.1v2.4h-10.5v-2.2c-7.5-0.1-14.7-0.7-19.2-1.5l5.7-3.7c4.9,0.8,11.5,1.4,17.3,1.4
												c5,0,6.8-0.3,6.8-0.8c0-1.9-28.9-0.4-28.9-5.9c0-2.4,6.1-4.4,18.4-4.9v-2.3H502v2.3c5.5,0.1,10.9,0.6,15.2,1.2l-5.3,3.6
												c-5.2-0.7-10-1.1-14.6-1.1c-5.2,0-6.8,0.4-6.8,0.9c0,1.8,28.9,0.3,28.9,5.8C519.4,347.5,513.5,349.5,502,350.1z"/>
										</g>
									</g>
								</g>
							</g>
						</g>
						<g>
							<g>
								<path class="st21" d="M557.3,333.4c0,0.1,0,0.1,0,0.2c0,2.2-1.2,4.2-3.3,6.2c-0.5,0.5-1.1,0.9-1.7,1.4
									c-1.8,1.3-4,2.5-6.5,3.6c-0.6,0.2-1.1,0.5-1.7,0.7c-2,0.8-4.2,1.5-6.5,2.2c-0.6,0.2-1.2,0.3-1.7,0.5
									c-2.1,0.6-4.3,1.1-6.5,1.5c-0.6,0.1-1.2,0.2-1.7,0.3c-2.1,0.4-4.3,0.8-6.5,1.1c-0.6,0.1-1.2,0.2-1.7,0.2
									c-2.1,0.3-4.3,0.5-6.5,0.7c-0.6,0.1-1.2,0.1-1.7,0.1c-2.1,0.2-4.3,0.3-6.5,0.4c-0.6,0-1.2,0.1-1.7,0.1
									c-2.2,0.1-4.3,0.1-6.5,0.1c-0.4,0-0.8,0-1.2,0c-0.2,0-0.4,0-0.6,0c-2.2,0-4.4-0.1-6.5-0.1c-0.6,0-1.2,0-1.7-0.1
									c-1.6-0.1-3.3-0.2-4.9-0.3c-0.6,0-1.1-0.1-1.7-0.1s-1.2-0.1-1.7-0.1c-2.2-0.2-4.4-0.4-6.5-0.7c-0.6-0.1-1.2-0.1-1.7-0.2
									c-1.4-0.2-2.7-0.4-4-0.6c-0.9-0.1-1.7-0.3-2.6-0.4c-0.6-0.1-1.2-0.2-1.7-0.3c-2.3-0.4-4.5-0.9-6.5-1.5
									c-0.4-0.1-0.8-0.2-1.2-0.3c-0.2-0.1-0.3-0.1-0.5-0.1c-0.9-0.3-1.9-0.5-2.7-0.8c-1.3-0.4-2.6-0.9-3.8-1.3
									c-0.6-0.2-1.2-0.5-1.7-0.7c-2.2-0.9-4.2-1.9-5.8-2.9c-0.3-0.2-0.5-0.3-0.7-0.5c-0.3-0.2-0.6-0.4-0.9-0.6s-0.6-0.4-0.9-0.7
									c-2.5-2.1-3.9-4.3-3.9-6.7c0-0.2,0-0.3,0-0.5v-13.3h3.8h1.7h6.5h1.7h5.1h1.4h1.7h6.5h1.7h6.5h1.7h6.5h1.7h6.5h1.7h6.5h1.7
									h6.5h1.7h6.5h1.7h6.5h1.7h6.5h1.7h6.5h1.7h0.4h6.1h1.7h6.5h1.7h3.3L557.3,333.4L557.3,333.4z"/>
								<g>
									<g>
										<g>
											<path class="st17" d="M438,319.8v21.8c-0.3-0.2-0.6-0.4-0.9-0.6s-0.6-0.4-0.9-0.7v-20.5L438,319.8L438,319.8z"/>
										</g>
										<g>
											<path class="st17" d="M446.3,319.7v26c-0.6-0.2-1.2-0.5-1.7-0.7v-25.3H446.3z"/>
										</g>
										<g>
											<path class="st17" d="M454.6,319.7v28.6c-0.4-0.1-0.8-0.2-1.2-0.3c-0.2-0.1-0.3-0.1-0.5-0.1v-28.1L454.6,319.7z"/>
										</g>
										<g>
											<path class="st17" d="M462.9,319.7v30.4c-0.6-0.1-1.2-0.2-1.7-0.3v-30.1H462.9z"/>
										</g>
										<g>
											<path class="st17" d="M471.2,319.7v31.7c-0.6-0.1-1.2-0.1-1.7-0.2v-31.5H471.2z"/>
										</g>
										<g>
											<path class="st17" d="M479.4,319.7v32.6c-0.6,0-1.2-0.1-1.7-0.1v-32.4h1.7V319.7z"/>
										</g>
										<g>
											<path class="st17" d="M487.7,319.7v33.1c-0.6,0-1.2,0-1.7-0.1v-33H487.7z"/>
										</g>
										<g>
											<path class="st17" d="M496,319.7v33.2c-0.4,0-0.8,0-1.2,0c-0.2,0-0.4,0-0.6,0v-33.2H496z"/>
										</g>
										<g>
											<path class="st17" d="M504.3,319.7v33c-0.6,0-1.2,0.1-1.7,0.1v-33.1H504.3z"/>
										</g>
										<g>
											<path class="st17" d="M512.6,319.7v32.4c-0.6,0.1-1.2,0.1-1.7,0.1v-32.6h1.7V319.7z"/>
										</g>
										<g>
											<path class="st17" d="M520.9,319.6v31.5c-0.6,0.1-1.2,0.2-1.7,0.2v-31.7H520.9z"/>
										</g>
										<g>
											<path class="st17" d="M529.1,319.6v30.1c-0.6,0.1-1.2,0.2-1.7,0.3v-30.4H529.1z"/>
										</g>
										<g>
											<path class="st17" d="M537.4,319.6v28.1c-0.6,0.2-1.2,0.3-1.7,0.5v-28.6H537.4z"/>
										</g>
										<g>
											<path class="st17" d="M545.7,319.6v25.2c-0.6,0.2-1.1,0.5-1.7,0.7v-25.9L545.7,319.6L545.7,319.6z"/>
										</g>
										<g>
											<path class="st17" d="M554,319.6v20.2c-0.5,0.5-1.1,0.9-1.7,1.4v-21.6H554z"/>
										</g>
									</g>
								</g>
							</g>
							<g>
								<g>
									<path class="st29" d="M557.3,319.7c0,9.8-27.9,17.7-62.4,17.7c-4.7,0-9.3-0.1-13.7-0.4c-5.5-0.4-10.8-0.9-15.7-1.7
										c-4.4-0.7-8.4-1.5-12.1-2.4c-1.1-0.3-2.2-0.6-3.2-0.9c-4.6-1.3-8.4-2.9-11.4-4.6c-0.6-0.3-1.1-0.7-1.6-1
										c-3-2.1-4.7-4.4-4.7-6.8c0-0.2,0-0.4,0.1-0.6c1.2-9.5,28.7-17.1,62.4-17.1c8.3,0,16.2,0.5,23.4,1.3
										c1.4,0.2,2.8,0.3,4.1,0.5c5.9,0.8,11.2,1.9,15.9,3.2c1,0.3,2,0.6,3,0.9c3.4,1.1,6.3,2.3,8.7,3.5c2.5,1.3,4.4,2.7,5.6,4.2
										c0.9,1.1,1.4,2.2,1.6,3.4C557.2,319.3,557.3,319.5,557.3,319.7z"/>
									<path class="st30" d="M555.6,315.7L481.1,337c-5.5-0.4-10.8-0.9-15.7-1.7l84.5-23.9C552.5,312.8,554.4,314.2,555.6,315.7z"
										/>
									<path class="st30" d="M522.4,303.8l-83.6,23.7c-0.6-0.3-1.1-0.7-1.6-1l81.1-23.2C519.7,303.5,521.1,303.7,522.4,303.8z"/>
									<path class="st30" d="M541.3,307.9L453.4,333c-1.1-0.3-2.2-0.6-3.2-0.9l88.1-25.1C539.3,307.3,540.3,307.6,541.3,307.9z"/>
									<path class="st17" d="M544.7,319.7c0,0.2,0,0.4-0.1,0.6c-1.2,7.5-23.1,13.5-49.8,13.5s-48.6-6-49.8-13.5
										c0-0.2-0.1-0.4-0.1-0.6c0-7.8,22.4-14.2,49.9-14.2C522.3,305.6,544.7,311.9,544.7,319.7z"/>
									<path class="st21" d="M544.7,320.4c-1.2,7.5-23.1,13.5-49.8,13.5c-0.6,0-1.2,0-1.8,0c-6-0.1-11.7-0.4-16.9-1
										c-5.3-0.6-10.1-1.5-14.3-2.5c-1.1-0.3-2.1-0.5-3.1-0.8c-4.5-1.3-8.1-2.9-10.4-4.6c-0.6-0.4-1.1-0.9-1.5-1.3
										c-1-1-1.7-2.1-1.8-3.2c1.2-7.5,23.1-13.5,49.8-13.5c3.4,0,6.7,0.1,9.9,0.3c1.6,0.1,3.2,0.2,4.8,0.4
										c6.4,0.6,12.3,1.5,17.3,2.7c1.1,0.3,2.1,0.5,3.2,0.8c3.9,1.1,7.2,2.4,9.6,3.8c2.4,1.4,4,2.9,4.7,4.5
										C544.5,319.7,544.6,320,544.7,320.4z"/>
									<path class="st31" d="M544.4,319.3l-51.3,14.6c-6-0.1-11.7-0.4-16.9-1l63.5-18C542.1,316.2,543.7,317.7,544.4,319.3z"/>
									<path class="st31" d="M509.5,307.5l-61.2,17.4c-0.6-0.4-1.1-0.9-1.5-1.3l57.9-16.4C506.4,307.3,508,307.4,509.5,307.5z"/>
									<path class="st31" d="M530,311l-68.1,19.4c-1.1-0.3-2.1-0.5-3.1-0.8l68.1-19.3C528,310.5,529,310.7,530,311z"/>
								</g>
							</g>
						</g>
					</g>
				</g>
				<g>
					<g>
						<g>
							<g>
								<path class="st21" d="M626.7,421.5c0,0.1,0,0.1,0,0.2c0,2.1-1.1,4-3.1,5.9c-0.5,0.4-1,0.9-1.7,1.3c-1.7,1.2-3.8,2.4-6.2,3.4
									c-0.5,0.2-1.1,0.5-1.7,0.7c-1.9,0.7-4,1.4-6.2,2.1c-0.5,0.1-1.1,0.3-1.7,0.5c-2,0.5-4,1-6.2,1.5c-0.5,0.1-1.1,0.2-1.7,0.3
									c-2,0.4-4.1,0.7-6.2,1c-0.5,0.1-1.1,0.1-1.7,0.2c-2,0.3-4.1,0.5-6.2,0.7c-0.5,0.1-1.1,0.1-1.7,0.1c-2,0.2-4.1,0.3-6.2,0.4
									c-0.5,0-1.1,0.1-1.7,0.1c-2,0.1-4.1,0.1-6.2,0.1c-0.4,0-0.7,0-1.1,0c-0.2,0-0.4,0-0.5,0c-2.1,0-4.2,0-6.2-0.1
									c-0.6,0-1.1,0-1.7-0.1c-1.6-0.1-3.1-0.1-4.6-0.3c-0.5,0-1.1-0.1-1.6-0.1c-0.6,0-1.1-0.1-1.7-0.1c-2.1-0.2-4.2-0.4-6.2-0.7
									c-0.6-0.1-1.1-0.1-1.7-0.2c-1.3-0.2-2.6-0.4-3.8-0.6c-0.8-0.1-1.6-0.3-2.4-0.4c-0.6-0.1-1.1-0.2-1.7-0.3
									c-2.2-0.4-4.3-0.9-6.2-1.4c-0.4-0.1-0.8-0.2-1.2-0.3c-0.2,0-0.3-0.1-0.5-0.1c-0.9-0.2-1.8-0.5-2.6-0.8
									c-1.3-0.4-2.5-0.8-3.6-1.3c-0.6-0.2-1.1-0.4-1.7-0.6c-2.1-0.9-4-1.8-5.5-2.8c-0.2-0.1-0.5-0.3-0.7-0.5
									c-0.3-0.2-0.6-0.4-0.8-0.6c-0.3-0.2-0.6-0.4-0.8-0.6c-2.4-2-3.7-4.1-3.7-6.4c0-0.1,0-0.3,0-0.5v-12.7h3.7h1.7h6.2h1.7h4.9
									h1.4h1.7h6.2h1.7h6.2h1.7h6.2h1.7h6.2h1.7h6.2h1.7h6.2h1.7h6.2h1.7h6.2h1.7h6.2h1.7h6.2h1.7h0.4h5.8h1.7h6.2h1.7h3.1
									L626.7,421.5L626.7,421.5z"/>
								<g>
									<g>
										<g>
											<path class="st17" d="M513.2,408.5v20.7c-0.3-0.2-0.6-0.4-0.8-0.6c-0.3-0.2-0.6-0.4-0.8-0.6v-19.5H513.2z"/>
										</g>
										<g>
											<path class="st17" d="M521.1,408.5v24.7c-0.6-0.2-1.1-0.4-1.7-0.6v-24L521.1,408.5z"/>
										</g>
										<g>
											<path class="st17" d="M529,408.5v27.2c-0.4-0.1-0.8-0.2-1.2-0.3c-0.2,0-0.3-0.1-0.5-0.1v-26.7L529,408.5z"/>
										</g>
										<g>
											<path class="st17" d="M536.9,408.5v28.9c-0.6-0.1-1.1-0.2-1.7-0.3v-28.6H536.9z"/>
										</g>
										<g>
											<path class="st17" d="M544.8,408.4v30.2c-0.6-0.1-1.1-0.1-1.7-0.2v-29.9h1.7V408.4z"/>
										</g>
										<g>
											<path class="st17" d="M552.6,408.4v31c-0.6,0-1.1-0.1-1.7-0.1v-30.9H552.6z"/>
										</g>
										<g>
											<path class="st17" d="M560.5,408.4v31.4c-0.6,0-1.1,0-1.7-0.1v-31.4h1.7V408.4z"/>
										</g>
										<g>
											<path class="st17" d="M568.4,408.4V440c-0.4,0-0.7,0-1.1,0c-0.2,0-0.4,0-0.5,0v-31.6H568.4z"/>
										</g>
										<g>
											<path class="st17" d="M576.3,408.4v31.4c-0.5,0-1.1,0.1-1.7,0.1v-31.4h1.7V408.4z"/>
										</g>
										<g>
											<path class="st17" d="M584.2,408.4v30.9c-0.5,0.1-1.1,0.1-1.7,0.1v-31H584.2z"/>
										</g>
										<g>
											<path class="st17" d="M592,408.4v29.9c-0.5,0.1-1.1,0.1-1.7,0.2v-30.2L592,408.4z"/>
										</g>
										<g>
											<path class="st17" d="M599.9,408.4V437c-0.5,0.1-1.1,0.2-1.7,0.3v-28.9H599.9z"/>
										</g>
										<g>
											<path class="st17" d="M607.8,408.4v26.7c-0.5,0.1-1.1,0.3-1.7,0.5v-27.2H607.8z"/>
										</g>
										<g>
											<path class="st17" d="M615.7,408.4v23.9c-0.5,0.2-1.1,0.5-1.7,0.7v-24.6H615.7z"/>
										</g>
										<g>
											<path class="st17" d="M623.5,408.3v19.2c-0.5,0.4-1,0.9-1.7,1.3v-20.5H623.5z"/>
										</g>
									</g>
								</g>
							</g>
							<g>
								<g>
									<path class="st29" d="M626.6,408.5c0,9.3-26.6,16.9-59.4,16.9c-4.5,0-8.8-0.1-13-0.4c-5.3-0.3-10.3-0.9-14.9-1.6
										c-4.1-0.6-8-1.4-11.5-2.3c-1.1-0.3-2.1-0.6-3.1-0.8c-4.4-1.3-8-2.7-10.8-4.4c-0.5-0.3-1.1-0.6-1.5-1
										c-2.9-2-4.5-4.2-4.5-6.4c0-0.2,0-0.4,0.1-0.6c1.2-9,27.3-16.2,59.3-16.2c7.9,0,15.4,0.4,22.3,1.2c1.3,0.1,2.6,0.3,3.9,0.5
										c5.6,0.8,10.7,1.8,15.1,3c1,0.3,1.9,0.5,2.8,0.8c3.2,1,6,2.2,8.3,3.4c2.4,1.3,4.2,2.6,5.3,4c0.9,1,1.4,2.1,1.5,3.2
										C626.6,408.1,626.6,408.3,626.6,408.5z"/>
									<path class="st30" d="M625.1,404.6l-70.8,20.3c-5.3-0.3-10.3-0.9-14.9-1.6l80.4-22.8C622.1,401.9,623.9,403.2,625.1,404.6z
										"/>
									<path class="st30" d="M593.5,393.4L514,415.9c-0.5-0.3-1.1-0.6-1.5-1l77.1-22.1C590.9,393,592.2,393.2,593.5,393.4z"/>
									<path class="st30" d="M611.4,397.2l-83.6,23.9c-1.1-0.3-2.1-0.6-3.1-0.8l83.8-23.9C609.6,396.7,610.5,396.9,611.4,397.2z"
										/>
									<path class="st17" d="M614.7,408.5c0,0.2,0,0.4,0,0.6c-1.2,7.1-22,12.9-47.4,12.9s-46.3-5.7-47.4-12.9c0-0.2,0-0.4,0-0.6
										c0-7.4,21.3-13.5,47.4-13.5C593.5,395,614.7,401.1,614.7,408.5z"/>
									<path class="st21" d="M614.7,409.1c-1.2,7.1-22,12.9-47.4,12.9c-0.6,0-1.1,0-1.7,0c-5.7-0.1-11.1-0.4-16.1-1
										s-9.6-1.4-13.6-2.4c-1-0.3-2-0.5-2.9-0.8c-4.2-1.3-7.6-2.8-9.9-4.4c-0.6-0.4-1-0.8-1.4-1.2c-1-1-1.6-2-1.7-3
										c1.2-7.1,22-12.9,47.4-12.9c3.2,0,6.4,0.1,9.4,0.3c1.5,0.1,3.1,0.2,4.6,0.3c6.1,0.5,11.7,1.4,16.5,2.6c1,0.2,2,0.5,3,0.8
										c3.7,1.1,6.8,2.3,9.2,3.6c2.3,1.3,3.8,2.8,4.5,4.3C614.5,408.4,614.6,408.8,614.7,409.1z"/>
									<path class="st31" d="M614.4,408.1L565.6,422c-5.7-0.1-11.1-0.4-16.1-1l60.4-17.2C612.2,405.1,613.8,406.6,614.4,408.1z"/>
									<path class="st31" d="M581.3,396.9l-58.2,16.5c-0.6-0.4-1-0.8-1.4-1.2l55.1-15.6C578.3,396.6,579.8,396.7,581.3,396.9z"/>
									<path class="st31" d="M600.7,400.2l-64.8,18.4c-1-0.3-2-0.5-2.9-0.8l64.7-18.4C598.8,399.7,599.8,399.9,600.7,400.2z"/>
									<g>
										<g>
											<g>
												<g>
													<g>
														<path class="st17" d="M573.9,416.1v2.2h-10v-2.1c-7.1-0.1-14-0.7-18.3-1.4l5.4-3.5c4.7,0.8,10.9,1.3,16.4,1.3
															c4.7,0,6.5-0.3,6.5-0.8c0-1.8-27.5-0.3-27.5-5.6c0-2.3,5.8-4.2,17.5-4.7v-2.2h10v2.2c5.3,0.1,10.4,0.5,14.4,1.2
															l-5,3.5c-4.9-0.7-9.5-1.1-13.8-1.1c-4.9,0-6.5,0.4-6.5,0.9c0,1.7,27.5,0.3,27.5,5.5
															C590.4,413.7,584.9,415.6,573.9,416.1z"/>
													</g>
												</g>
											</g>
										</g>
										<g>
											<path class="st29" d="M573.6,415.4v2.2h-10v-2.1c-7.1-0.1-14-0.7-18.3-1.4l5.4-3.5c4.7,0.8,10.9,1.3,16.4,1.3
												c4.7,0,6.5-0.3,6.5-0.8c0-1.8-27.5-0.3-27.5-5.6c0-2.3,5.8-4.2,17.5-4.7v-2.2h10v2.2c5.3,0.1,10.4,0.5,14.4,1.2l-5,3.5
												c-4.9-0.7-9.5-1.1-13.8-1.1c-4.9,0-6.5,0.4-6.5,0.9c0,1.7,27.5,0.3,27.5,5.5C590.2,413,584.6,414.8,573.6,415.4z"/>
										</g>
									</g>
								</g>
							</g>
						</g>
						<g>
							<g>
								<path class="st21" d="M630.4,400.7c0,0.1,0,0.1,0,0.2c0,2.1-1.1,4-3.1,5.9c-0.5,0.4-1,0.9-1.7,1.3c-1.7,1.2-3.8,2.4-6.2,3.4
									c-0.5,0.2-1.1,0.5-1.7,0.7c-1.9,0.7-4,1.4-6.2,2.1c-0.5,0.1-1.1,0.3-1.7,0.5c-2,0.5-4,1-6.2,1.5c-0.5,0.1-1.1,0.2-1.7,0.3
									c-2,0.4-4.1,0.7-6.2,1c-0.5,0.1-1.1,0.1-1.7,0.2c-2,0.3-4.1,0.5-6.2,0.7c-0.5,0.1-1.1,0.1-1.7,0.1c-2,0.2-4.1,0.3-6.2,0.4
									c-0.5,0-1.1,0.1-1.7,0.1c-2,0.1-4.1,0.1-6.2,0.1c-0.4,0-0.7,0-1.1,0c-0.2,0-0.4,0-0.5,0c-2.1,0-4.2,0-6.2-0.1
									c-0.6,0-1.1,0-1.7-0.1c-1.6-0.1-3.1-0.1-4.6-0.3c-0.5,0-1.1-0.1-1.6-0.1c-0.6,0-1.1-0.1-1.7-0.1c-2.1-0.2-4.2-0.4-6.2-0.7
									c-0.6-0.1-1.1-0.1-1.7-0.2c-1.3-0.2-2.6-0.4-3.8-0.6c-0.8-0.1-1.6-0.3-2.4-0.4c-0.6-0.1-1.1-0.2-1.7-0.3
									c-2.2-0.4-4.3-0.9-6.2-1.4c-0.4-0.1-0.8-0.2-1.2-0.3c-0.2,0-0.3-0.1-0.5-0.1c-0.9-0.2-1.8-0.5-2.6-0.8
									c-1.3-0.4-2.5-0.8-3.6-1.3c-0.6-0.2-1.1-0.4-1.7-0.6c-2.1-0.9-4-1.8-5.5-2.8c-0.2-0.1-0.5-0.3-0.7-0.5
									c-0.3-0.2-0.6-0.4-0.8-0.6c-0.3-0.2-0.6-0.4-0.8-0.6c-2.4-2-3.7-4.1-3.7-6.4c0-0.1,0-0.3,0-0.5v-12.7h3.7h1.7h6.2h1.7h4.9
									h1.4h1.7h6.2h1.7h6.2h1.7h6.2h1.7h6.2h1.7h6.2h1.7h6.2h1.7h6.2h1.7h6.2h1.7h6.2h1.7h6.2h1.7h0.4h5.8h1.7h6.2h1.7h3.1
									L630.4,400.7L630.4,400.7z"/>
								<g>
									<g>
										<g>
											<path class="st17" d="M517,387.7v20.7c-0.3-0.2-0.6-0.4-0.8-0.6c-0.3-0.2-0.6-0.4-0.8-0.6v-19.5H517z"/>
										</g>
										<g>
											<path class="st17" d="M524.8,387.7v24.7c-0.6-0.2-1.1-0.4-1.7-0.6v-24L524.8,387.7z"/>
										</g>
										<g>
											<path class="st17" d="M532.7,387.7v27.2c-0.4-0.1-0.8-0.2-1.2-0.3c-0.2,0-0.3-0.1-0.5-0.1v-26.7L532.7,387.7z"/>
										</g>
										<g>
											<path class="st17" d="M540.6,387.7v28.9c-0.6-0.1-1.1-0.2-1.7-0.3v-28.6H540.6z"/>
										</g>
										<g>
											<path class="st17" d="M548.5,387.7v30.2c-0.6-0.1-1.1-0.1-1.7-0.2v-29.9L548.5,387.7z"/>
										</g>
										<g>
											<path class="st17" d="M556.4,387.7v31c-0.6,0-1.1-0.1-1.7-0.1v-30.9H556.4z"/>
										</g>
										<g>
											<path class="st17" d="M564.3,387.6V419c-0.6,0-1.1,0-1.7-0.1v-31.4L564.3,387.6z"/>
										</g>
										<g>
											<path class="st17" d="M572.1,387.6v31.6c-0.4,0-0.7,0-1.1,0c-0.2,0-0.4,0-0.5,0v-31.6H572.1z"/>
										</g>
										<g>
											<path class="st17" d="M580,387.6V419c-0.5,0-1.1,0.1-1.7,0.1v-31.4h1.7V387.6z"/>
										</g>
										<g>
											<path class="st17" d="M587.9,387.6v30.9c-0.5,0.1-1.1,0.1-1.7,0.1v-31H587.9z"/>
										</g>
										<g>
											<path class="st17" d="M595.8,387.6v29.9c-0.5,0.1-1.1,0.1-1.7,0.2v-30.2h1.7V387.6z"/>
										</g>
										<g>
											<path class="st17" d="M603.6,387.6v28.6c-0.5,0.1-1.1,0.2-1.7,0.3v-28.9H603.6z"/>
										</g>
										<g>
											<path class="st17" d="M611.5,387.6v26.7c-0.5,0.1-1.1,0.3-1.7,0.5v-27.2H611.5z"/>
										</g>
										<g>
											<path class="st17" d="M619.4,387.6v23.9c-0.5,0.2-1.1,0.5-1.7,0.7v-24.6H619.4z"/>
										</g>
										<g>
											<path class="st17" d="M627.3,387.5v19.2c-0.5,0.4-1,0.9-1.7,1.3v-20.5H627.3z"/>
										</g>
									</g>
								</g>
							</g>
							<g>
								<g>
									<path class="st29" d="M630.4,387.7c0,9.3-26.6,16.9-59.4,16.9c-4.5,0-8.8-0.1-13-0.4c-5.3-0.3-10.3-0.9-14.9-1.6
										c-4.1-0.6-8-1.4-11.5-2.3c-1.1-0.3-2.1-0.6-3.1-0.8c-4.4-1.3-8-2.7-10.8-4.4c-0.5-0.3-1.1-0.6-1.5-1
										c-2.9-2-4.5-4.2-4.5-6.4c0-0.2,0-0.4,0.1-0.6c1.2-9,27.3-16.2,59.3-16.2c7.9,0,15.4,0.4,22.3,1.2c1.3,0.1,2.6,0.3,3.9,0.5
										c5.6,0.8,10.7,1.8,15.1,3c1,0.3,1.9,0.5,2.8,0.8c3.2,1,6,2.2,8.3,3.4c2.4,1.3,4.2,2.6,5.3,4c0.9,1,1.4,2.1,1.5,3.2
										C630.4,387.3,630.4,387.5,630.4,387.7z"/>
									<path class="st30" d="M628.8,383.8L558,404.1c-5.3-0.3-10.3-0.9-14.9-1.6l80.4-22.8C625.8,381.1,627.6,382.4,628.8,383.8z"
										/>
									<path class="st30" d="M597.2,372.6l-79.5,22.5c-0.5-0.3-1.1-0.6-1.5-1l77.1-22.1C594.6,372.2,596,372.4,597.2,372.6z"/>
									<path class="st30" d="M615.2,376.4l-83.6,23.9c-1.1-0.3-2.1-0.6-3.1-0.8l83.8-23.9C613.3,375.9,614.3,376.1,615.2,376.4z"
										/>
									<path class="st17" d="M618.5,387.7c0,0.2,0,0.4,0,0.6c-1.2,7.1-22,12.9-47.4,12.9s-46.3-5.7-47.4-12.9c0-0.2,0-0.4,0-0.6
										c0-7.4,21.3-13.5,47.4-13.5S618.5,380.3,618.5,387.7z"/>
									<path class="st21" d="M618.4,388.3c-1.2,7.1-22,12.9-47.4,12.9c-0.6,0-1.1,0-1.7,0c-5.7-0.1-11.1-0.4-16.1-1
										s-9.6-1.4-13.6-2.4c-1-0.3-2-0.5-2.9-0.8c-4.2-1.3-7.6-2.8-9.9-4.4c-0.6-0.4-1-0.8-1.4-1.2c-1-1-1.6-2-1.7-3
										c1.2-7.1,22-12.9,47.4-12.9c3.2,0,6.4,0.1,9.4,0.3c1.5,0.1,3.1,0.2,4.6,0.3c6.1,0.5,11.7,1.4,16.5,2.6c1,0.2,2,0.5,3,0.8
										c3.7,1.1,6.8,2.3,9.2,3.6c2.3,1.3,3.8,2.8,4.5,4.3C618.3,387.6,618.4,388,618.4,388.3z"/>
									<path class="st31" d="M618.1,387.3l-48.8,13.9c-5.7-0.1-11.1-0.4-16.1-1l60.4-17.2C615.9,384.3,617.5,385.8,618.1,387.3z"
										/>
									<path class="st31" d="M585,376.1l-58.2,16.5c-0.6-0.4-1-0.8-1.4-1.2l55.1-15.6C582,375.8,583.5,375.9,585,376.1z"/>
									<path class="st31" d="M604.5,379.4l-64.8,18.4c-1-0.3-2-0.5-2.9-0.8l64.7-18.4C602.5,378.9,603.5,379.1,604.5,379.4z"/>
									<g>
										<g>
											<g>
												<g>
													<g>
														<path class="st17" d="M577.6,395.3v2.2h-10v-2.1c-7.1-0.1-14-0.7-18.3-1.4l5.4-3.5c4.7,0.8,10.9,1.3,16.4,1.3
															c4.7,0,6.5-0.3,6.5-0.8c0-1.8-27.5-0.3-27.5-5.6c0-2.3,5.8-4.2,17.5-4.7v-2.2h10v2.2c5.3,0.1,10.4,0.5,14.4,1.2
															l-5,3.5c-4.9-0.7-9.5-1.1-13.8-1.1c-4.9,0-6.5,0.4-6.5,0.9c0,1.7,27.5,0.3,27.5,5.5
															C594.2,392.9,588.6,394.8,577.6,395.3z"/>
													</g>
												</g>
											</g>
										</g>
										<g>
											<path class="st29" d="M577.3,394.6v2.2h-10v-2.1c-7.1-0.1-14-0.7-18.3-1.4l5.4-3.5c4.7,0.8,10.9,1.3,16.4,1.3
												c4.7,0,6.5-0.3,6.5-0.8c0-1.8-27.5-0.3-27.5-5.6c0-2.3,5.8-4.2,17.5-4.7v-2.2h10v2.2c5.3,0.1,10.4,0.5,14.4,1.2l-5,3.5
												c-4.9-0.7-9.5-1.1-13.8-1.1c-4.9,0-6.5,0.4-6.5,0.9c0,1.7,27.5,0.3,27.5,5.5C593.9,392.2,588.3,394.1,577.3,394.6z"/>
										</g>
									</g>
								</g>
							</g>
						</g>
						<g>
							<g>
								<path class="st21" d="M629.9,379.9c0,0.1,0,0.1,0,0.2c0,2.1-1.1,4-3.1,5.9c-0.5,0.4-1,0.9-1.7,1.3c-1.7,1.2-3.8,2.4-6.2,3.4
									c-0.5,0.2-1.1,0.5-1.7,0.7c-1.9,0.7-4,1.4-6.2,2.1c-0.5,0.1-1.1,0.3-1.7,0.5c-2,0.5-4,1-6.2,1.5c-0.5,0.1-1.1,0.2-1.7,0.3
									c-2,0.4-4.1,0.7-6.2,1c-0.5,0.1-1.1,0.1-1.7,0.2c-2,0.3-4.1,0.5-6.2,0.7c-0.5,0.1-1.1,0.1-1.7,0.1c-2,0.2-4.1,0.3-6.2,0.4
									c-0.5,0-1.1,0.1-1.7,0.1c-2,0.1-4.1,0.1-6.2,0.1c-0.4,0-0.7,0-1.1,0c-0.2,0-0.4,0-0.5,0c-2.1,0-4.2,0-6.2-0.1
									c-0.6,0-1.1,0-1.7-0.1c-1.6-0.1-3.1-0.1-4.6-0.3c-0.5,0-1.1-0.1-1.6-0.1c-0.6,0-1.1-0.1-1.7-0.1c-2.1-0.2-4.2-0.4-6.2-0.7
									c-0.6-0.1-1.1-0.1-1.7-0.2c-1.3-0.2-2.6-0.4-3.8-0.6c-0.8-0.1-1.6-0.3-2.4-0.4c-0.6-0.1-1.1-0.2-1.7-0.3
									c-2.2-0.4-4.3-0.9-6.2-1.4c-0.4-0.1-0.8-0.2-1.2-0.3c-0.2,0-0.3-0.1-0.5-0.1c-0.9-0.2-1.8-0.5-2.6-0.8
									c-1.3-0.4-2.5-0.8-3.6-1.3c-0.6-0.2-1.1-0.4-1.7-0.6c-2.1-0.9-4-1.8-5.5-2.8c-0.2-0.1-0.5-0.3-0.7-0.5
									c-0.3-0.2-0.6-0.4-0.8-0.6c-0.3-0.2-0.6-0.4-0.8-0.6c-2.4-2-3.7-4.1-3.7-6.4c0-0.1,0-0.3,0-0.5V367h3.7h1.7h6.2h1.7h4.9h1.4
									h1.7h6.2h1.7h6.2h1.7h6.2h1.7h6.2h1.7h6.2h1.7h6.2h1.7h6.2h1.7h6.2h1.7h6.2h1.7h6.2h1.7h0.4h5.8h1.7h6.2h1.7h3.1
									L629.9,379.9L629.9,379.9z"/>
								<g>
									<g>
										<g>
											<path class="st17" d="M516.4,366.9v20.7c-0.3-0.2-0.6-0.4-0.8-0.6c-0.3-0.2-0.6-0.4-0.8-0.6v-19.5H516.4z"/>
										</g>
										<g>
											<path class="st17" d="M524.3,366.9v24.7c-0.6-0.2-1.1-0.4-1.7-0.6v-24L524.3,366.9z"/>
										</g>
										<g>
											<path class="st17" d="M532.2,366.9v27.2c-0.4-0.1-0.8-0.2-1.2-0.3c-0.2,0-0.3-0.1-0.5-0.1v-26.8L532.2,366.9L532.2,366.9
												z"/>
										</g>
										<g>
											<path class="st17" d="M540.1,366.9v28.9c-0.6-0.1-1.1-0.2-1.7-0.3v-28.6H540.1z"/>
										</g>
										<g>
											<path class="st17" d="M547.9,366.9V397c-0.6-0.1-1.1-0.1-1.7-0.2v-29.9H547.9z"/>
										</g>
										<g>
											<path class="st17" d="M555.8,366.9v31c-0.6,0-1.1-0.1-1.7-0.1v-30.9H555.8z"/>
										</g>
										<g>
											<path class="st17" d="M563.7,366.8v31.4c-0.6,0-1.1,0-1.7-0.1v-31.4L563.7,366.8z"/>
										</g>
										<g>
											<path class="st17" d="M571.6,366.8v31.6c-0.4,0-0.7,0-1.1,0c-0.2,0-0.4,0-0.5,0v-31.6H571.6z"/>
										</g>
										<g>
											<path class="st17" d="M579.5,366.8v31.4c-0.5,0-1.1,0.1-1.7,0.1v-31.4h1.7V366.8z"/>
										</g>
										<g>
											<path class="st17" d="M587.3,366.8v30.9c-0.5,0.1-1.1,0.1-1.7,0.1v-31H587.3z"/>
										</g>
										<g>
											<path class="st17" d="M595.2,366.8v29.9c-0.5,0.1-1.1,0.1-1.7,0.2v-30.2h1.7V366.8z"/>
										</g>
										<g>
											<path class="st17" d="M603.1,366.8v28.6c-0.5,0.1-1.1,0.2-1.7,0.3v-28.9H603.1z"/>
										</g>
										<g>
											<path class="st17" d="M611,366.8v26.7c-0.5,0.1-1.1,0.3-1.7,0.5v-27.2H611z"/>
										</g>
										<g>
											<path class="st17" d="M618.9,366.8v23.9c-0.5,0.2-1.1,0.5-1.7,0.7v-24.6H618.9z"/>
										</g>
										<g>
											<path class="st17" d="M626.7,366.7v19.2c-0.5,0.4-1,0.9-1.7,1.3v-20.5H626.7z"/>
										</g>
									</g>
								</g>
							</g>
							<g>
								<g>
									<path class="st29" d="M629.8,366.9c0,9.3-26.6,16.9-59.4,16.9c-4.5,0-8.8-0.1-13-0.4c-5.3-0.3-10.3-0.9-14.9-1.6
										c-4.1-0.6-8-1.4-11.5-2.3c-1.1-0.3-2.1-0.6-3.1-0.8c-4.4-1.3-8-2.7-10.8-4.4c-0.5-0.3-1.1-0.6-1.5-1
										c-2.9-2-4.5-4.2-4.5-6.4c0-0.2,0-0.4,0.1-0.6c1.2-9,27.3-16.2,59.3-16.2c7.9,0,15.4,0.4,22.3,1.2c1.3,0.1,2.6,0.3,3.9,0.5
										c5.6,0.8,10.7,1.8,15.1,3c1,0.3,1.9,0.5,2.8,0.8c3.2,1,6,2.2,8.3,3.4c2.4,1.3,4.2,2.6,5.3,4c0.9,1,1.4,2.1,1.5,3.2
										C629.8,366.5,629.8,366.7,629.8,366.9z"/>
									<path class="st30" d="M628.3,363l-70.8,20.3c-5.3-0.3-10.3-0.9-14.9-1.6l80.4-22.8C625.3,360.3,627.1,361.6,628.3,363z"/>
									<path class="st30" d="M596.7,351.8l-79.5,22.5c-0.5-0.3-1.1-0.6-1.5-1l77.1-22.1C594.1,351.4,595.4,351.6,596.7,351.8z"/>
									<path class="st30" d="M614.6,355.6L531,379.5c-1.1-0.3-2.1-0.6-3.1-0.8l83.8-23.9C612.8,355.1,613.7,355.3,614.6,355.6z"/>
									<path class="st17" d="M617.9,366.9c0,0.2,0,0.4,0,0.6c-1.2,7.1-22,12.9-47.4,12.9s-46.3-5.7-47.4-12.9c0-0.2,0-0.4,0-0.6
										c0-7.4,21.3-13.5,47.4-13.5C596.6,353.4,617.9,359.5,617.9,366.9z"/>
									<path class="st21" d="M617.9,367.5c-1.2,7.1-22,12.9-47.4,12.9c-0.6,0-1.1,0-1.7,0c-5.7-0.1-11.1-0.4-16.1-1
										s-9.6-1.4-13.6-2.4c-1-0.3-2-0.5-2.9-0.8c-4.2-1.3-7.6-2.8-9.9-4.4c-0.6-0.4-1-0.8-1.4-1.2c-1-1-1.6-2-1.7-3
										c1.2-7.1,22-12.9,47.4-12.9c3.2,0,6.4,0.1,9.4,0.3c1.5,0.1,3.1,0.2,4.6,0.3c6.1,0.5,11.7,1.4,16.5,2.6c1,0.2,2,0.5,3,0.8
										c3.7,1.1,6.8,2.3,9.2,3.6c2.3,1.3,3.8,2.8,4.5,4.3C617.7,366.9,617.8,367.2,617.9,367.5z"/>
									<path class="st31" d="M617.6,366.5l-48.8,13.9c-5.7-0.1-11.1-0.4-16.1-1l60.4-17.2C615.4,363.5,616.9,365,617.6,366.5z"/>
									<path class="st31" d="M584.5,355.3l-58.2,16.5c-0.6-0.4-1-0.8-1.4-1.2L580,355C581.4,355,583,355.1,584.5,355.3z"/>
									<path class="st31" d="M603.9,358.6L539.1,377c-1-0.3-2-0.5-2.9-0.8l64.7-18.4C602,358.1,603,358.3,603.9,358.6z"/>
								</g>
							</g>
						</g>
					</g>
				</g>
			</g>
		</g>
	</g>
</g>
</svg>
