<svg xmlns="http://www.w3.org/2000/svg" width="89" height="89" viewBox="0 0 89 89">
  <g id="Group_3592" data-name="Group 3592" transform="translate(0 -89)">
    <rect id="Rectangle_820" data-name="Rectangle 820" width="89" height="89" transform="translate(0 89)" fill="none"/>
    <g id="home_2_" data-name="home(2)" transform="translate(24 87.613)">
      <path id="Path_3566" data-name="Path 3566" d="M88.314,224.037h-9.6a1.258,1.258,0,0,1-1.281-1.281v-8.068H70.983v8.068a1.258,1.258,0,0,1-1.281,1.281H60.141a1.258,1.258,0,0,1-1.281-1.281V202.822h2.561v18.654h7v-8.068a1.258,1.258,0,0,1,1.281-1.281h9.007a1.258,1.258,0,0,1,1.281,1.281v8.068h7.043V202.822h2.561v19.935A1.258,1.258,0,0,1,88.314,224.037Z" transform="translate(-54.051 -160.841)" fill="#fff"/>
      <path id="Path_3567" data-name="Path 3567" d="M1.266,47.616a1.211,1.211,0,0,1-.939-.427A1.277,1.277,0,0,1,.413,45.4l18.91-17.373a1.263,1.263,0,0,1,1.75,0L39.642,45.4a1.268,1.268,0,0,1-1.75,1.836L20.177,30.712,2.12,47.275A1.269,1.269,0,0,1,1.266,47.616Z" transform="translate(0 0)" fill="#fff"/>
    </g>
    <g id="home_2_2" data-name="home(2)" transform="translate(24 87.613)">
      <path id="Path_3566-2" data-name="Path 3566" d="M88.314,224.037h-9.6a1.258,1.258,0,0,1-1.281-1.281v-8.068H70.983v8.068a1.258,1.258,0,0,1-1.281,1.281H60.141a1.258,1.258,0,0,1-1.281-1.281V202.822h2.561v18.654h7v-8.068a1.258,1.258,0,0,1,1.281-1.281h9.007a1.258,1.258,0,0,1,1.281,1.281v8.068h7.043V202.822h2.561v19.935A1.258,1.258,0,0,1,88.314,224.037Z" transform="translate(-54.051 -160.841)" fill="#1185e0"/>
      <path id="Path_3567-2" data-name="Path 3567" d="M1.266,47.616a1.211,1.211,0,0,1-.939-.427A1.277,1.277,0,0,1,.413,45.4l18.91-17.373a1.263,1.263,0,0,1,1.75,0L39.642,45.4a1.268,1.268,0,0,1-1.75,1.836L20.177,30.712,2.12,47.275A1.269,1.269,0,0,1,1.266,47.616Z" transform="translate(0 0)" fill="#4dcfe0"/>
    </g>
  </g>
</svg>
