<svg xmlns="http://www.w3.org/2000/svg" width="86" height="87" viewBox="0 0 86 87">
  <g id="Group_3301" data-name="Group 3301" transform="translate(0 -0.237)">
    <rect id="Rectangle_1017" data-name="Rectangle 1017" width="86" height="87" rx="4" transform="translate(0 0.237)" fill="none"/>
    <g id="group_1_" data-name="group(1)" transform="translate(25.592 26.002)">
      <g id="Group_3289" data-name="Group 3289" transform="translate(0 0)">
        <path id="Path_3247" data-name="Path 3247" d="M296.744,160.013h-7.258a1.135,1.135,0,0,1-1.146-1.07l-.573-7.488,2.292-.191.5,6.418h5.119l.688-8.71a1.135,1.135,0,0,1,1.146-1.07h1.337v-6.074a3.424,3.424,0,0,0-3.438-3.438h-4.546a3.411,3.411,0,0,0-3.056,1.872l-2.025-1.07A5.729,5.729,0,0,1,290.9,136.1h4.546a5.723,5.723,0,0,1,5.73,5.73v7.22a1.126,1.126,0,0,1-1.146,1.146h-1.414l-.726,8.748A1.135,1.135,0,0,1,296.744,160.013Z" transform="translate(-264.883 -126.318)" fill="#00a7fe"/>
        <path id="Path_3248" data-name="Path 3248" d="M327.98,11.52a4.584,4.584,0,1,1,4.584-4.584A4.6,4.6,0,0,1,327.98,11.52Zm0-6.876a2.292,2.292,0,1,0,2.292,2.292A2.3,2.3,0,0,0,327.98,4.643Z" transform="translate(-299.749 -2.351)" fill="#00a7fe"/>
        <path id="Path_3249" data-name="Path 3249" d="M11.613,160.5H4.355a1.135,1.135,0,0,1-1.146-1.07l-.688-8.748H1.146A1.126,1.126,0,0,1,0,149.533v-7.182a5.723,5.723,0,0,1,5.73-5.73h4.546a5.816,5.816,0,0,1,5.119,3.094l-2.025,1.07a3.5,3.5,0,0,0-3.056-1.872H5.73a3.424,3.424,0,0,0-3.438,3.438v6.036h1.3a1.135,1.135,0,0,1,1.146,1.07l.688,8.748h5.119l.5-6.494,2.292.191-.573,7.526A1.135,1.135,0,0,1,11.613,160.5Z" transform="translate(0 -126.803)" fill="#00a7fe"/>
        <path id="Path_3250" data-name="Path 3250" d="M51.082,11.52a4.584,4.584,0,1,1,4.584-4.584A4.6,4.6,0,0,1,51.082,11.52Zm0-6.876a2.292,2.292,0,1,0,2.292,2.292A2.3,2.3,0,0,0,51.082,4.643Z" transform="translate(-43.098 -2.351)" fill="#00a7fe"/>
      </g>
      <g id="Group_3290" data-name="Group 3290" transform="translate(10.124 2.216)">
        <path id="Path_3251" data-name="Path 3251" d="M150.1,190.838h-7.258a1.135,1.135,0,0,1-1.146-1.07l-.726-8.748H139.6a1.126,1.126,0,0,1-1.146-1.146v-7.22a5.723,5.723,0,0,1,5.73-5.73h4.546a5.723,5.723,0,0,1,5.73,5.73v7.22a1.126,1.126,0,0,1-1.146,1.146h-1.375l-.688,8.748A1.135,1.135,0,0,1,150.1,190.838Zm-6.189-2.292h5.157l.688-8.748a1.135,1.135,0,0,1,1.146-1.07h1.261v-6.074a3.424,3.424,0,0,0-3.438-3.438H144.18a3.424,3.424,0,0,0-3.438,3.438v6.074h1.3a1.135,1.135,0,0,1,1.146,1.07Z" transform="translate(-138.45 -157.105)" fill="#4dcfe0"/>
        <path id="Path_3252" data-name="Path 3252" d="M189.531,41.822a4.584,4.584,0,1,1,4.584-4.584A4.6,4.6,0,0,1,189.531,41.822Zm0-6.876a2.292,2.292,0,1,0,2.292,2.292A2.3,2.3,0,0,0,189.531,34.945Z" transform="translate(-181.547 -32.653)" fill="#4dcfe0"/>
      </g>
    </g>
  </g>
</svg>
