<?xml version="1.0" encoding="utf-8"?>
<!-- Generator: Adobe Illustrator 23.0.0, SVG Export Plug-In . SVG Version: 6.00 Build 0)  -->
<svg version="1.1" id="Layer_1" xmlns="http://www.w3.org/2000/svg" xmlns:xlink="http://www.w3.org/1999/xlink" x="0px" y="0px"
	 viewBox="0 0 750 500" style="enable-background:new 0 0 750 500;" xml:space="preserve">
<style type="text/css">
	.st0{fill:none;}
	.st1{fill:#E7F3FE;}
	.st2{fill:#CCE2FF;}
	.st3{opacity:0.5;fill:#9EC8FF;}
	.st4{fill:#FFFFFF;}
	.st5{fill:#303C60;}
	.st6{fill:#B7B7B7;}
	.st7{fill:#939393;}
	.st8{fill:#F09959;}
	.st9{fill:#F25F9B;}
	.st10{fill:#E83891;}
	.st11{fill:#E38540;}
	.st12{fill:#3A3A3A;}
	.st13{fill:#F5DC95;}
	.st14{fill:#25BAA4;}
	.st15{fill:#27A88F;}
	.st16{fill:#75A1DE;}
	.st17{fill:#3E6BAB;}
	.st18{fill:#636363;}
	.st19{fill:#2E5B9A;}
	.st20{fill:#545454;}
	.st21{fill:#6791C9;}
	.st22{fill:#F37168;}
	.st23{fill:#D54A41;}
	.st24{fill:#F2E5DE;}
	.st25{fill:#21B4CC;}
	.st26{fill:#7F4008;}
	.st27{fill:#443711;}
	.st28{fill:#564615;}
	.st29{fill:#A86B48;}
	.st30{fill:#7A4E34;}
	.st31{fill:#1FC3EA;}
	.st32{fill:#74B570;}
	.st33{fill:#9CD499;}
	.st34{opacity:0.5;fill:#FFFFFF;}
	.st35{fill:#94BDF2;}
	.st36{fill:#9EC8FF;}
	.st37{fill:#F39892;}
	.st38{clip-path:url(#SVGID_2_);fill:#A2DFF2;}
	.st39{clip-path:url(#SVGID_2_);fill:#9CD499;}
	.st40{clip-path:url(#SVGID_2_);fill:#9EC8FF;}
	.st41{clip-path:url(#SVGID_2_);fill:#F39892;}
	.st42{clip-path:url(#SVGID_2_);fill:#FFFFFF;}
	.st43{clip-path:url(#SVGID_2_);fill:#E7F3FE;}
	.st44{fill:#FFB8B3;}
	.st45{fill:#FAE8B6;}
</style>
<g>
	<rect class="st0" width="750" height="500"/>
	<g>
		<path class="st1" d="M157,112.6c84.3-31.3,169.9-3.6,228,56.6c58.1,60.2,180-41.6,244.7,18.6c44.1,41,23.9,146.6-36.6,192.3
			c-82.2,62.1-388.6,64-439.4,42.7c-86.9-36.4-0.6-103.9-41.1-168.6C64.7,177.9,119.7,126.5,157,112.6z"/>
		<path class="st2" d="M631.3,404.8c-42.2-2.1-185.7,1.4-229.3,2.8c-43.6,1.4-94.3-1.8-120.6-6.4c-26.3-4.6-178.4,0.4-171.5,12.9
			c6.9,12.5,67.8,5.6,136.8,10.6c69,5,224.3-0.6,259.3,0c35,0.6,67.1-1.3,112.3-3.8S655.8,406,631.3,404.8z"/>
		<g>
			<path class="st3" d="M539.8,129.9c0.2-1.5,0.3-3,0.3-4.5c0-0.8,0-1.6-0.1-2.4l-7.5-2.4c-0.5-3.2-1.4-6.2-2.7-9l5-6.1
				c-1.2-2-2.5-3.9-3.9-5.7l-7.5,2.4c-2.2-2.2-4.7-4.2-7.4-5.7l0.4-7.9c-2.1-1-4.3-1.7-6.6-2.3l-4.6,6.4c-1.8-0.3-3.7-0.5-5.6-0.5
				c-1.3,0-2.6,0.1-3.8,0.2l-4.3-6.6c-2.3,0.5-4.5,1.1-6.7,2l0,7.9c-2.8,1.4-5.4,3.2-7.7,5.3l-7.4-2.8c-1.6,1.7-3,3.6-4.2,5.5
				l4.6,6.4c-1.4,2.7-2.5,5.7-3.1,8.8l-7.6,2c-0.2,1.5-0.3,3-0.3,4.5c0,0.8,0,1.6,0.1,2.4l7.5,2.4c0.5,3.2,1.4,6.2,2.7,9l-5,6.1
				c1.2,2,2.5,3.9,3.9,5.7l7.5-2.4c2.2,2.2,4.7,4.2,7.4,5.7l-0.4,7.9c2.1,1,4.3,1.7,6.6,2.3l4.6-6.4c1.8,0.3,3.7,0.5,5.6,0.5
				c1.3,0,2.6-0.1,3.8-0.2l4.3,6.6c2.3-0.5,4.5-1.1,6.7-2l0-7.9c2.8-1.4,5.4-3.2,7.7-5.3l7.4,2.8c1.6-1.7,3-3.6,4.2-5.5l-4.6-6.4
				c1.4-2.7,2.5-5.7,3.1-8.8L539.8,129.9z M499.6,141.2c-8.8,0-15.9-7.1-15.9-15.9c0-8.8,7.1-15.9,15.9-15.9
				c8.8,0,15.9,7.1,15.9,15.9C515.5,134.1,508.4,141.2,499.6,141.2z"/>
			<g>
				<path class="st4" d="M521.3,143.7c-0.2,0-0.4-0.1-0.5-0.2c-0.3-0.3-0.4-0.8-0.1-1.2c4-4.8,6.1-10.8,6.1-17c0-3-0.5-5.9-1.4-8.7
					c-0.1-0.4,0.1-0.9,0.5-1c0.4-0.1,0.9,0.1,1,0.5c1,2.9,1.5,6,1.5,9.2c0,6.6-2.3,13-6.5,18C521.7,143.6,521.5,143.7,521.3,143.7z"
					/>
			</g>
			<g>
				<path class="st4" d="M519,106.2c-0.2,0-0.4-0.1-0.6-0.2c-2.7-2.5-5.7-4.4-9.1-5.6c-0.4-0.2-0.6-0.6-0.5-1c0.2-0.4,0.6-0.6,1-0.5
					c3.6,1.3,6.9,3.3,9.7,6c0.3,0.3,0.3,0.8,0,1.2C519.4,106.1,519.2,106.2,519,106.2z"/>
			</g>
			<g>
				<path class="st4" d="M493.5,99.6c-0.4,0-0.7-0.2-0.8-0.6c-0.1-0.4,0.2-0.9,0.6-1c2.3-0.6,4.6-0.9,6.9-0.9c0.5,0,0.8,0.4,0.8,0.8
					s-0.4,0.8-0.8,0.8c-2.2,0-4.4,0.3-6.5,0.8C493.6,99.6,493.6,99.6,493.5,99.6z"/>
			</g>
		</g>
		<rect x="222.4" y="85.8" class="st3" width="252.7" height="151.8"/>
		<rect x="234.7" y="89.5" class="st4" width="237.8" height="139.4"/>
		<g>
			<path class="st5" d="M437.5,161.6c11.3-10.8,30.7-10.5,30.3,5.9c-0.4,16.4,0.9,18,5.6,26.6c16.2,29.9-19.3,28.1-34.1,29.1
				c-14.8,1-13.6-26.9-11-42.3S434.2,164.7,437.5,161.6z"/>
			<path class="st6" d="M442.8,255.7c-3.6,30.5-10.2,53.1-11,67.5c-0.7,14.5-3.7,71.4-3.7,71.4s8.1-0.6,8.8-1.8
				c0.7-1.2,15.2-33.3,14.5-53.2c-0.7-19.9,14.4-50,14.4-50l-3.7-29.6L442.8,255.7z"/>
			<path class="st7" d="M446.3,269l-5.7,2.4c-1.5,9.7-3.3,18.4-4.8,26.1c9,5.8,13.7,25.3,15.7,37.2c1-13.3,7.3-29.4,11.2-38.3
				L446.3,269z"/>
			<path class="st6" d="M472.5,252.7c0,0,12.2,15.6,11.9,33.3c-0.6,27-3.5,34.7,1.6,63c2,11-4.4,47.2-4.4,47.2s-5.5,0.4-8.4-1
				c0.2-2.7-3.5-45.8-10.9-65.7c-3.6-9.6-8.6-36.5-11.3-52c-2.7-15.4-3.2-18.6-2.2-18.6C449.7,258.8,472.5,252.7,472.5,252.7z"/>
			<path class="st8" d="M402.8,209.3c0,0,0.5-8.1-0.3-10.6c-0.9-2.5-8.4-4.7-8.4-4.7s-0.3,11.5,0.4,13s5.2,5.4,5.2,5.4L402.8,209.3z
				"/>
			<path class="st9" d="M445,203.4c-17.2,18.5-22.8,26.3-24.1,26.3c-4.1-7.2-17.7-22.5-17.7-22.5l-5.8,3.7c0,0,13.4,34.9,21.9,35.3
				c8.5,0.4,25.8-12,26-13.5C445.5,231.4,445,203.4,445,203.4z"/>
			<path class="st10" d="M427.1,244.5c8.4-3.4,18.1-10.6,18.2-11.7c0.2-1.4-0.3-29.4-0.3-29.4c-3.8,4-7,7.6-9.9,10.8
				C432.1,225.6,432.3,238.1,427.1,244.5z"/>
			<path class="st9" d="M462.5,191.2c0,0,16.5,8.3,20.1,22.9c3.6,14.6-7,32.7-8.4,42.3c-1.3,9.6-31.4,11.3-31.4,1
				c0-9.9-7.5-30.9-7.1-36.2c1-12.5,19.3-27.9,19.3-27.9L462.5,191.2z"/>
			<path class="st8" d="M457.7,172.3l7.1,21.8c0,0-7.6,5.8-20.5,19.8c0.5-9.3,8.3-19.5,8.3-19.5l-5.3-20.6L457.7,172.3z"/>
			<path class="st11" d="M461,182.4l-3.3-10.2l-10.4,1.6l5.3,20.6c0,0-0.5,0.8-1.3,2.1C456.4,192.8,459.5,188.2,461,182.4z"/>
			<path class="st8" d="M453.8,177.2c-1.9,6.9-9.3,10.8-14.5,9.3c-5.2-1.4-6.4-7.6-4.5-14.5c1.9-6.9,7.7-11.4,13-10
				C453,163.5,455.7,170.3,453.8,177.2z"/>
			<path class="st9" d="M441.5,247.6c2.3,14.5-6.2,45.6-6.2,45.6s5.1,1.2,20.3-0.3s21.9-16.6,24.2-17.1c2.3-0.4,3.5,14.1,4.6,15.3
				c1.1,1.1,1.3-18.4-1.6-26c-5.2-13.6-4.2-19.4-2.3-27.6C484,222.8,441.5,247.6,441.5,247.6z"/>
			<path class="st12" d="M428.5,387.5c1.4,5.6-1.3,10-5,13.2c-2.9,2.6-12,3.7-11.5,5c0.4,1.3,11.1,1.7,14.7,1.2
				c3.6-0.5,4.6-2.3,9.1-2.3c2.9,0,3.5-2.4,2.2-5.3s-1.8-4.6-0.6-7.2C438.5,389.5,428.5,387.5,428.5,387.5z"/>
			<path class="st12" d="M481.9,387.5c-0.2,5.8-0.9,10.1,0.5,12.8c5.5,4.6,10,9.8,8.3,10.1c-8.3,1.7-11.4-3.3-16.1-4.7
				c-5.7-1.7,0.5-9-1.7-18.2c-1.3-5.2,8.7-3.9,8.7-3.9L481.9,387.5z"/>
			<path class="st10" d="M484,269.8c-0.3-1.8-0.7-3.4-1.2-4.7c-5.2-13.6-4.2-19.4-2.3-27.6c0.2-0.6,0.2-1.2,0.2-1.7
				c0.4-1.5,0.9-3,1.2-4.5l-1.8-16L467.3,200c-9.6,14.1-3.1,31.5-4.6,41.2c-1.4,9.6-17.5,21.9-17.5,21.9l0.5,3.4
				c0.7,4.7,5.1,8,9.8,7.3c6.6-0.9,15.3-2.8,19.2-6.4C478.5,264.1,481.8,266.7,484,269.8z"/>
			<path class="st8" d="M449,262.6c0,0-7.1,2-7.9,2.4c-0.8,0.4-1.3,2.8-1.3,2.8s-4.1,3.5-2.5,4.8c1.6,1.2,4.3,4.4,8,2.9
				c2.3-0.9,4-9.2,5.5-9.3C452.2,266.2,449,262.6,449,262.6z"/>
			<path class="st9" d="M469.1,198.2c7.6,0.2,14.5,13.9,16.9,25.8c2.4,11.9,4.9,28.7,4.9,28.7s-12.6,9.9-25,12.8
				c-10.8,2.5-16.4,3.5-16.4,3.5l-2.2-6.2l26-15.2c0,0-9.5-18-10.5-31.5C461.8,202.5,463.3,198,469.1,198.2z"/>
			
				<rect x="378.1" y="193.1" transform="matrix(0.9805 -0.1967 0.1967 0.9805 -31.616 80.1826)" class="st13" width="19.3" height="12.3"/>
			<path class="st8" d="M398.2,208.3c0.3-5-2.2-11.8-3.6-11.7c-1.4,0,0.4,4.4-0.3,7.4C393.8,205.6,398.2,208.3,398.2,208.3z"/>
			<path class="st5" d="M436.2,164.2c0.4,13.6,16.3,12.6,20.7,11.7c4.4-0.8-5.3,28.7,3,30.4c6.1,1.3,4.7-8.3,11.5-7.6
				c3,0.3,6,4.9,6,4.9s-0.5-2.9-2.7-4.9c-2.3-2.1-8.3-14.7-9.9-23.7c-1.6-9-12.3-14.9-15.4-15.1c-3.2-0.2-10.9,3.4-10.9,3.4
				L436.2,164.2z"/>
			<g>
				<path class="st5" d="M459.8,209.4c-0.2,0-0.4,0-0.7-0.1c-2.7-0.6-3.9-3.4-4.1-8.8c-0.1-4.7,0.7-10.6,1.5-17
					c0.3-2.6,0.7-5.2,0.9-7.8c0-0.2,0.2-0.4,0.4-0.4c0.2,0,0.4,0.2,0.4,0.4c-0.3,2.6-0.6,5.2-1,7.8c-1.6,12.2-3.1,23.8,1.9,24.9
					c0.2,0,0.3,0,0.5,0c2.9,0,5.5-5.6,7-11.1c0.1-0.2,0.3-0.3,0.5-0.3c0.2,0.1,0.3,0.3,0.3,0.5C466.5,201.4,463.8,209.4,459.8,209.4
					z"/>
			</g>
			<g>
				<path class="st5" d="M458.7,212.6c-0.9,0-1.7-0.4-2.4-1c-5.4-5.7-0.1-34.5,0.2-35.7c0-0.2,0.3-0.4,0.5-0.3
					c0.2,0,0.4,0.2,0.3,0.5c-0.1,0.3-5.5,29.6-0.4,35c0.6,0.6,1.3,0.9,2.2,0.8c2.8-0.4,4.4-4.2,5.9-7.6c1.4-3.3,2.7-6.4,5-6.3
					c0.2,0,0.4,0.2,0.4,0.4c0,0.2-0.2,0.4-0.4,0.4c0,0,0,0-0.1,0c-1.7,0-2.9,2.8-4.2,5.8c-1.5,3.6-3.2,7.6-6.5,8
					C459,212.6,458.9,212.6,458.7,212.6z"/>
			</g>
			<path class="st8" d="M457.5,178.5c-1.1,1.4-2.9,2-3.9,1.1c-1-0.8-1-2.6,0.1-4.1c1.1-1.4,2.9-2,3.9-1.1
				C458.7,175.3,458.6,177.1,457.5,178.5z"/>
		</g>
		<g>
			<path class="st5" d="M333.9,229c3.9,7.8,0.7,16.7-7,19.9c-7.7,3.2-16.1,1.4-20-6.4c-3.9-7.8-1-17.1,6.4-20.8
				C320.8,217.9,330,221.2,333.9,229z"/>
			<g>
				<path class="st5" d="M313,249.8c-0.9,0-2.5-0.3-4.7-2.2c-1.8-1.6-3-4-3.6-6.8c-0.7-3.5-0.2-7.6,1.3-12c0.1-0.2,0.3-0.3,0.5-0.2
					c0.2,0.1,0.3,0.3,0.2,0.5c-1.5,4.3-1.9,8.2-1.3,11.6c0.5,2.6,1.7,4.9,3.3,6.3c2.7,2.4,4.6,2,4.6,2c0.2-0.1,0.4,0.1,0.5,0.3
					c0.1,0.2-0.1,0.4-0.3,0.5C313.5,249.7,313.3,249.8,313,249.8z"/>
			</g>
			<g>
				<path class="st14" d="M324.8,259.2c4.4,1,10,13.3,12.7,21.1c2.8,7.9,7.4,17.8,10.5,20.8c3.1,3.1,23.2,10.2,23.2,10.2
					s-49.7,0.1-48.6,0C323.6,311.2,324.8,259.2,324.8,259.2z"/>
				<path class="st15" d="M351.2,307.4c-2.7-0.4-12.5,0.9-8.4-0.9c4.2-1.7,3.6-4,3.6-4s-5.9,5-7,0.6c-0.9-3.7-1.3-16.9-4.8-30.1
					c-2.9-6.6-6.7-13.1-9.8-13.8c0,0-0.1,4.7-0.3,11.2c1.2,14.4,3.3,35.6,3.8,41c6.6,0,17.6,0,26.8,0l6.1-0.3
					C361.3,311.1,353.9,307.8,351.2,307.4z"/>
				<path class="st14" d="M308.6,256.5c0,0-14.1,7.9-17.3,9.5c-3.3,1.7,9.2,50.7,12,52.8c2.8,2.1,27.2,0.4,29.9-2.3
					c2.8-2.6-2.1-10.8,0.3-27c2.4-16.3-7.3-30.3-8.6-30.3c-1.3,0-9.4-2.7-9.4-2.7H308.6z"/>
				<path class="st15" d="M303.2,318.8c2.8,2.1,20.2,2.1,27.7-0.2c0.8-0.3,4.6-1.8,4.7-3.2c-0.9-0.2-4.5,0.3-5.9-0.1
					c-5-1.2-7.8-7.4-7.8-7.4s-2.8-1-9-3.6c-6.2-2.6-3.6-10.6-3.8-14.1c-0.1-3.5-6.1-14.9-17.3-23.6l-1,0.5
					C290,275.1,300.6,316.9,303.2,318.8z"/>
				<g>
					<path class="st16" d="M399.8,280.3h-33.9l-15.4,32.8h37.3l14-29.7C402.5,282,401.4,280.3,399.8,280.3z"/>
					<g>
						<path class="st17" d="M352.5,313.6h-20.4c-1.3,0-2.3-1-2.3-2.3c0-1.3,1-2.3,2.3-2.3h18.9l12.8-27.5c0.5-1.1,1.9-1.6,3-1.1
							c1.1,0.5,1.6,1.9,1.1,3l-13.4,28.8C354.2,313.1,353.4,313.6,352.5,313.6z"/>
					</g>
				</g>
				<path class="st8" d="M317.2,306.6c8.8,1.7,11,3.7,15.8,4.5c5.5,0.9,4.8,2.1,0.8,2.1c-4.1,0-14.2,0.2-17.7-0.6
					C312.6,311.7,317.2,306.6,317.2,306.6z"/>
				<path class="st14" d="M290.1,266.9c-6.8,21.7-16.4,46.2-14.8,46.2c1.5,0,40.4,1.6,42,0.3s1.1-6.3,0.9-7
					c-0.2-0.7-22.1-4.5-22.1-4.5s2.9-5.6,4-16.6C301.1,274.3,291.4,262.8,290.1,266.9z"/>
			</g>
			<path class="st8" d="M313.7,237.7l-5.5,19.9c0,0,9.2,14.4,11.8,13.1c2.5-1.3-1.4-11.7-1.4-13.1c0-1.4,4-16,4-16L313.7,237.7z"/>
			<path class="st11" d="M318.8,258.6c-0.1-0.5-0.2-0.8-0.2-1c0-1.4,4-16,4-16l-8.8-3.9l-1.8,6.6
				C313.5,251.1,316.4,255.6,318.8,258.6z"/>
			<path class="st8" d="M334.1,237.3c1,5.8,0.4,13.5-4.8,15.4c-5.1,2-11.3-1.8-13.8-8.3c-2.5-6.6-0.4-13.5,4.8-15.4
				C325.5,227,332.9,230.4,334.1,237.3z"/>
			<path class="st8" d="M316.8,240.6c0.7,2,0.1,4.1-1.4,4.6s-3.3-0.7-4-2.7c-0.7-2-0.1-4.1,1.4-4.6
				C314.3,237.3,316.1,238.6,316.8,240.6z"/>
			<path class="st5" d="M334.2,230.1c-1.7,13.6-18.2,11.8-18.2,11.8s-3.4-4.5-4.9-2.1c-1.5,2.3,2.1-13.8,11.6-14.3
				C325.7,225.3,334.2,230.1,334.2,230.1z"/>
			<ellipse class="st5" cx="308.5" cy="224.3" rx="8.9" ry="8.4"/>
		</g>
		<g>
			<g>
				<polygon class="st18" points="290.7,411.7 292.8,411.7 306,350.6 301.5,350.6 				"/>
				<polygon class="st18" points="354.2,411.7 352.2,411.7 336.8,348.5 341.3,348.5 				"/>
				<g>
					<path class="st18" d="M314,352.9c-8.2,0-13.4-1.5-16.7-4.7c-4.1-4-4.9-10.2-5-18.2c0-6.3-0.2-10.5-0.5-13.8
						c-0.1-1.3,0.8-2.4,2-2.5c1.3-0.1,2.4,0.8,2.5,2c0.4,3.5,0.5,7.8,0.5,14.3c0,8.2,1,12.5,3.6,15c2.6,2.5,7.3,3.6,15.2,3.4
						c7.6-0.2,12.9-1.3,17.1-2.1c5.6-1.1,9.6-1.9,14.3,0.3c1.1,0.5,1.6,1.9,1.1,3.1c-0.5,1.1-1.9,1.6-3.1,1.1c-3.4-1.6-6.3-1-11.5,0
						c-4.4,0.9-9.9,2-17.9,2.2C315.2,352.9,314.6,352.9,314,352.9z"/>
				</g>
			</g>
			<path class="st18" d="M295.5,313.4l12.5,0.5l-3.3,34.6c0,0-9.3-6-9.2-12.4C295.6,329.7,295.5,313.4,295.5,313.4z"/>
			<path class="st8" d="M357.3,316.6c10.6-1.6,14.2-1.1,20.7,11c6.5,12.1,15.1,33.8,20.1,36.6c7.5,4.2,9.9,14.6,13,14.1
				c3.1-0.5,5,0.9,1.7,3.7c-3.3,2.8-8.7,5.1-10.6,4.6c-1.8-0.5-3.3-8.5-8.1-11c-4.8-2.6-3.4-4.7-3.1-7c0.3-2.3-14-12.8-24.9-25.9
				c-6.6-8-10-13.3-10.5-18.1C355.1,319.8,357.3,316.6,357.3,316.6z"/>
			<path class="st11" d="M383.5,360.3c-2.5-6.2-4.9-16.5-7.2-26c-3.3-13.4-6.8-16.6-8.9-18c-2.6-0.7-5.8-0.4-10.1,0.3
				c0,0-2.2,3.1-1.7,7.9c0.5,4.8,3.9,10.1,10.5,18.1C371.8,349.5,378.5,355.7,383.5,360.3L383.5,360.3z"/>
			<path class="st12" d="M360.5,327.2c0,0-2.8,21.2-5.4,23.4c-1.9,1.5-3.2,1.6-4.5-4.7c-1.3-6.3,2-30,2-30L360.5,327.2z"/>
			<polygon class="st8" points="358.2,338.7 332.2,343.1 346.9,322 358.1,319.7 364.8,321.3 			"/>
			<path class="st19" d="M391,368.5c-0.8,3.4-0.7,5.9,0.7,7.2c1.5,1.3,7,10.6,7,10.6l1.7-0.3l-4-8.6L391,368.5z"/>
			<path class="st19" d="M402.1,386.6c1.8,0.5,7.2-1.9,10.6-4.6c3.3-2.8,1.4-4.1-1.7-3.7c-0.2,0-0.3,0-0.5,0c-1.5,3.4-6.6,6-8.2,2.4
				c-1.6-3.6-8.5-10.7-11.3-12.2c0,0.1,0,0.1,0,0.2c-0.3,2.3-1.8,4.4,3.1,7C398.8,378.1,400.3,386.1,402.1,386.6z"/>
			<path class="st11" d="M304.1,317.5c-9.2,16.6-2.9,27.1,8.3,28.2c11.2,1.1,29-1,39.3-9.6c10.3-8.6,18.8-17.7,17.6-19
				S304.1,317.5,304.1,317.5z"/>
			<path class="st8" d="M356.5,329.9c1.9-5.7,4.1-10,8.3-10.1c4.4-0.1,7.2,2.2,7.4,9.5c0.2,8.7,0.5,37.3,0.1,50.1
				c-0.3,9.6,2.5,12.7,2.3,22.8c-0.2,7.6,7.9,3.7,4.8,7.7c-2.1,2.7-8.5,1.8-12.5,1.3c-3.5-0.4,1.8-10.9-3-13.7
				c-4.2-2.4-4.2-6.3-1.6-9.3c2.6-3,0.3-11.7-1.5-17.8c-1.7-6.1-4.5-12.7-6.2-27.2C354,339,355.3,333.3,356.5,329.9z"/>
			<path class="st19" d="M376.6,406.7c-1.3,0.4-3,0.9-4.4,0.9c-2.9,0.1-3.8-3.1-4-7.5c-0.2-3.8-2.9-9.8-5.8-12.2
				c-0.1,0.1-0.1,0.1-0.2,0.2c-2.6,3-2.5,6.9,1.6,9.3c4.8,2.8-0.5,13.3,3,13.7c3.9,0.5,10.3,1.4,12.5-1.3
				C381.4,407.2,378.9,407,376.6,406.7z"/>
			<path class="st19" d="M362.9,387c0,0-4.2,4.4-3.9,6.3c0.4,1.8,1.7,6.5,1.9,10.1c0.2,3.6,0.4,7.7,0.4,7.7s1.5,0,1.7-0.4
				c0.1-0.4,1-14.6,1-14.6L362.9,387z"/>
			<path class="st20" d="M299.6,316c0,0-5.5,23.3,1.4,29.7c6.9,6.5,35.7,0.6,42.5,0.3c4.6-0.3,9,5.3,9,5.3s-3.2-13-1-23.5
				c2.2-10.5,5.7-11.2,5.7-11.2l-4.7-0.7H299.6z"/>
			<path class="st15" d="M298.4,309.9c2.3,5-2.5,13.6-0.8,16c1.7,2.5,11.5,0.3,17.9-4.8c6.4-5.2,18.5-6.3,18.5-6.3L298.4,309.9z"/>
			<path class="st18" d="M308.3,352.3c19.4,0.7,39.8,0.4,39.8-2.5c0-2.9-0.9-4.9-15.9-3.8c-15,1.2-25.2,2.8-29.7,1.7
				C297.9,346.8,308.3,352.3,308.3,352.3z"/>
		</g>
		<path class="st18" d="M514.6,318.4H242.2c-1.3,0-2.4-1.1-2.4-2.4v-0.5c0-1.3,1.1-2.4,2.4-2.4h272.4c1.3,0,2.4,1.1,2.4,2.4v0.5
			C517,317.3,515.9,318.4,514.6,318.4z"/>
		<g>
			<path class="st8" d="M551.2,242.5c1.9,6.6-2.7,13.4-7.8,14.9c-5,1.4-8.7-3.1-10.5-9.7c-1.9-6.6,0.7-13.1,5.7-14.6
				C543.7,231.6,549.3,235.8,551.2,242.5z"/>
			<path class="st8" d="M522.8,370.7c0,0,12.9,20.1,14.7,21s6.1,1.1,4.5,4.4c-1.6,3.3-2.3,16.2-3.8,16.8s-14.6,2.2-12.7,0
				c2-2.2,3.2-1.1,4.2-5c1-3.9,2.4-11.4,0.5-12.9c-1.9-1.5-13.2-15.3-13.2-15.3L522.8,370.7z"/>
			<path class="st8" d="M457.7,379.3c0,0-15.7,25.9-18.6,28.3c-2.9,2.3-12.5,5.8-4.7,6.4c7.9,0.6,11.7-2.6,16.6-4.1
				c5-1.5,11.1-2.3,8.7-6.1c-2.3-3.8-1.4-12.1,3.7-17.3C468.4,381.2,457.7,379.3,457.7,379.3z"/>
			<path class="st21" d="M538,319.2c0,0-38.9-1-54.4,11.7c-9,13.7-30.9,54.1-32.6,58.5c1.2,1.2,7.7,3.3,10.6,3
				c8.6-10.2,20-19.1,24.5-27.1c5.6-9.9,7.3-14.9,16.3-15.7c9-0.9,29.4-3.8,35.5-3.8S538,319.2,538,319.2z"/>
			<polygon class="st18" points="571.9,414.1 569.9,414.1 555.3,353 559.8,353 			"/>
			<polygon class="st18" points="510.8,414.1 512.8,414.1 529.6,350.8 525.1,350.8 			"/>
			<path class="st16" d="M560.2,316.5l-22.6,3.9c0,0-30.1,0.3-43.8,2.8c-12.5,2.3-14.4,16.5,0,36.1c8.2,11.1,15.1,20,29.2,30
				c3.6-2.6,5-3.6,6-10c-1-1.4-3.7-10.2-4.5-11.9c-7.8-16.3-18.2-22.2-18.4-23.8c1.7-2.8,46.3,14.8,55.2,4.4
				C569.6,338.2,560.2,316.5,560.2,316.5z"/>
			<path class="st22" d="M561.1,265.3c-6-0.8-12,0.3-17.7,4.4c-5,5.1-10.6,13.4-10.2,27.2c0.4,17.5-2.7,18.6,0.6,23.4
				c13.7,5.6,37,29.9,31.5,3.9c-4-18.8,8.7-32.9-1.5-53.7C562.9,268.7,561.9,267.1,561.1,265.3z"/>
			<path class="st23" d="M533.2,303.4c-0.3,9.1-1.6,11.8-0.6,14.7c5.6,0.6,15.8,2.8,18.3,6.4c2.9,4.1,5.8,4.7,4.5,1.7
				c-1.4-3-5-7.3,0.6-21.9c5.5-14.7,8.2-24.6,2.7-34.8L533.2,303.4z"/>
			<path class="st8" d="M561.1,265.3c-3.7-8.7-4.6-18.5-4.6-18.5l-9.6,2.8c0,0,5.5,12.2,0.2,16.6c-1.1,0.9-2.4,2.1-3.7,3.4
				C549.1,265.6,555.2,264.4,561.1,265.3z"/>
			<path class="st11" d="M556.8,249.1c-0.6-0.5-1.3-1.1-2-1.8l-7.8,2.3c0,0,0,0,0,0c0.2,0.4,2.2,5.1,2.4,9.6
				c2.3-1.4,4.9-3.7,7.8-7.8C557.1,250.6,556.9,249.8,556.8,249.1z"/>
			<path class="st8" d="M554.4,268c-9.9,3.5-8.8,13.9-17.9,29.3c-4.7,8-9.1,7.8-9.1,7.8s-11.1,0.1-24.4-1.5c-8.4-1-8.9,1.5-3.1,3.6
				c11.8,4.2,23.9,8.7,33.8,7.6c9.8-1.1,26.6-26.2,27.5-32.7C562.3,273,559.3,266.3,554.4,268z"/>
			<g>
				<path class="st18" d="M549.3,355.3c-0.6,0-1.2,0-1.9,0c-8-0.2-13.5-1.3-17.9-2.2c-5.2-1.1-8.1-1.6-11.5,0
					c-1.1,0.5-2.5,0.1-3.1-1.1c-0.5-1.1-0.1-2.5,1.1-3.1c4.8-2.3,8.8-1.5,14.3-0.3c4.2,0.9,9.5,1.9,17.1,2.1
					c8.6,0.2,13.9-1.1,16.6-4.1c2.4-2.7,3.1-7.1,2.2-14c-0.3-2.3-0.6-4.3-0.9-6c-0.7-4.8-1.2-8-0.6-12.8c0.6-4.5,2.1-10.6,5.6-22.4
					c0.4-1.2,1.6-1.9,2.8-1.5c1.2,0.4,1.9,1.6,1.5,2.8c-6.5,22-6.2,24.2-4.8,33.2c0.3,1.7,0.6,3.7,0.9,6.1c1.1,8.3,0,13.9-3.4,17.6
					C564,353.5,558.3,355.3,549.3,355.3z"/>
			</g>
			<path class="st23" d="M458.8,401.2c-10.4,5.1-16.1,8-19.4,7.8c-0.8-0.1-1.4-0.1-2-0.2c-3.7,2.2-9.7,4.8-3,5.3
				c7.9,0.6,11.7-2.6,16.6-4.1c5-1.5,11.1-2.3,8.7-6.1C459.3,403.1,459,402.2,458.8,401.2z"/>
			<path class="st23" d="M538.7,392.1c-0.3,8.3-1.4,16.5-6.4,18c-1.3,0.4-2.6,0.5-3.6,0.3c-0.8,1-1.8,1-3.1,2.4
				c-2,2.2,11.1,0.7,12.7,0c1.5-0.7,2.2-13.5,3.8-16.8C543.4,393.3,540.6,392.7,538.7,392.1z"/>
			<g>
				<path class="st16" d="M498.5,313.6h-33.2c-0.9,0-1.7-0.5-2.1-1.3l-13.4-28.8c-0.5-1.1,0-2.5,1.1-3c1.1-0.5,2.5,0,3,1.1
					l12.8,27.5h31.7c1.3,0,2.3,1,2.3,2.3C500.7,312.6,499.7,313.6,498.5,313.6z"/>
			</g>
			<path class="st8" d="M505.4,303.9c-6.7-0.1-13.3-4.1-16.6-3.5c-3.3,0.6-14.1,8.1-12.7,8.4c1.4,0.3,9.9-4.1,10.2-4.2
				c0.3-0.1,2.1,3.1,6.7,4.2c4.6,1.2,0-3.4,14.2,0.9C516.3,312.3,505.4,303.9,505.4,303.9z"/>
			<path class="st24" d="M560.1,257.3l1,7.9c0,0-8.7,0.5-13,2.9c-4.3,2.4-10.7,9.4-10.7,9.4l5.2-9l0.7-5.7L560.1,257.3z"/>
			<path class="st24" d="M556.4,267c-6.4-1.2-9.4,4.6-13.6,14c-4.2,9.4-11.3,20.9-12.7,22.3c-1.4,1.5-23.9,0-23.9,0s-0.7,6.5,0,7.3
				c0.7,0.8,4.6,0.7,4.6,0.7s1.6,1.2,3,2.2c1.5,1,13.8,2.8,19.5,2.5c5.7-0.3,11-0.8,11.8-1.7c0.8-0.9,16.4-25,17.4-33.6
				C563.4,272.2,559.7,267.7,556.4,267z"/>
			<path class="st5" d="M537.4,227.4c-12.2,0.6-10.3,18.9-10.3,18.9s3.2,1,9.8-0.1c-0.5-2-0.3-7-0.3-7s0.8,4.1,1.7,6.6
				c1.4,0.6,3,0.1,5.7-0.6c1.4,5.8,5.3,8.3,8,9.1c3,0.9,6.1,2,9.6,0.3c3.5-1.7,1.6-19.6-0.3-23.2c-2.8-5.4-7.4-10.2-15.4-7.7
				C541.9,225,537.4,227.4,537.4,227.4z"/>
			<path class="st5" d="M558.6,249.2l5,7.3c0,0-5.5,13.8,10.5,20c12.6,4.9,11.1,13.5,5.4,22.2c-5.7,8.7,3.4,16.2,3.4,16.2
				s1.4-9.6,13.6-11.4c16.7-2.5,21.4-24.8,8.9-36c-10.3-9.3-13.4-1.6-20.4-9.9c-7-8.3-20.1-2.7-20.1-2.7l-4.8-7L558.6,249.2z"/>
			<g>
				<path class="st5" d="M611.2,290c-0.1,0-0.1,0-0.2,0c-0.2-0.1-0.3-0.3-0.2-0.5c4.2-7.7,0.8-17-1-19.5c-0.2-0.3-0.4-0.5-0.5-0.8
					c-1.7-2.6-3.8-5.9-15-8c-2.7-0.5-4.9-2.1-7.2-3.8c-4.8-3.5-10.2-7.5-22-2.1c-0.2,0.1-0.4,0-0.5-0.2c-0.1-0.2,0-0.4,0.2-0.5
					c12.2-5.6,17.9-1.5,22.8,2.2c2.2,1.6,4.3,3.2,6.9,3.6c11.6,2.1,13.8,5.5,15.6,8.3c0.2,0.3,0.3,0.5,0.5,0.8
					c1,1.5,2.3,4.7,2.8,8.3c0.5,3.1,0.5,7.7-1.9,12.1C611.5,289.9,611.4,290,611.2,290z"/>
			</g>
			<g>
				<path class="st5" d="M556,256.6c-0.8,0-1.7-0.1-2.6-0.2c-4.2-0.6-9.9-3.1-10.4-16.6c0-0.2,0.2-0.4,0.4-0.4
					c0.2,0,0.4,0.2,0.4,0.4c0.2,5.6,1.3,9.8,3.3,12.4c1.5,2,3.6,3.1,6.4,3.5c4,0.6,6.6-0.1,7.8-2.2c0.1-0.2,0.4-0.2,0.5-0.1
					c0.2,0.1,0.3,0.4,0.1,0.5C560.9,255.7,558.9,256.6,556,256.6z"/>
			</g>
		</g>
		<g>
			<path class="st25" d="M175.8,266.2c-14.1,8.1-33.8,41.7-29.7,47.2c4.2,5.5,26.4-8.9,26.4-8.9L175.8,266.2z"/>
			<path class="st5" d="M202.2,227.2c-5.4-0.1-3.4-4.2-9.6-2.6c-3.3,0.8-0.9,2.2-5.1,1.7c-4.2-0.4-6.3-0.9-6.9,1.9
				c-0.5,2.8-0.8,3.6-2.8,4.1c-2,0.4-3,4.1,0,6.6c3,2.5,1.5,3.5,0.9,5.5c-0.7,2,1.6,2.2,2.8,4.1c1.2,1.9-1.1,2.3,0.6,3.9
				c1.7,1.6,4.2,1.5,4.2,1.5l7.4-14.1L202.2,227.2z"/>
			<path class="st26" d="M312.2,396.6c0,0,7.9,0.2,14-2.2c6.1-2.4,10.3-6.1,9.2-1.7c-1.1,4.4-6.1,11.9-10.5,12.6
				c-4.4,0.7-5.9,5.5-8.3,5.5c-2.4,0-5.9-5.5-12-8.3C299,400,312.2,396.6,312.2,396.6z"/>
			<path class="st26" d="M250.2,395.9c0,0,3.3,4.6,9.1,7.7c5.9,3.3,12.8,4.9,8.6,6.3c-4.3,1.5-10.5,2.6-16.5,0.9
				c-4.3-1.2-9.2-1.5-10.6-3.5c-1.3-2,1.6-7.1,0.4-14.6C240.2,386.7,250.2,395.9,250.2,395.9z"/>
			<path class="st27" d="M213.4,322.5c0,0,45.6,17.1,49.2,21.8c3.7,4.8,51.6,48.2,51.6,51.4c0,3.2-8.2,9-8.2,9s-41.1-25.2-51.3-38
				c-10.2-12.8-35.1-19-48.3-20.2C193.2,345.4,213.4,322.5,213.4,322.5z"/>
			<path class="st28" d="M215.1,322.5c0,0,31.2-1.2,37.9,0c6.7,1.2,21.4,1.2,11.8,28.3c-7.5,21.3-10,48.2-10,48.2l-15,3.7
				c0,0,0.6-48.4,7.7-61.3c-5.2,0.9-14.8,2.5-28,6.3c-24.6,7-38,3.5-38,3.5l-3.7-12.8L215.1,322.5z"/>
			<polygon class="st29" points="189.1,242 181.5,264.6 191.1,270.9 196.6,251.4 			"/>
			<path class="st30" d="M192,267.8l4.6-16.4l-7.5-9.4l-2.8,8.2C187.3,257.7,189.6,263.9,192,267.8z"/>
			<path class="st29" d="M208.5,245.9c0.2,6.8-3.1,12.8-8.5,13.3c-5.3,0.5-10.2-4.6-10.9-11.4c-0.7-6.8,3.1-12.8,8.5-13.3
				C203,233.9,208.2,235.1,208.5,245.9z"/>
			<path class="st31" d="M177.8,263.9c-23.4,15.8-8.8,41.3-3.7,60c4.4,15.9,4.2,25.5,4.9,25.5c0.7,0,16.7-2.4,25.9-10.7
				c9.2-8.3,15.4-16.3,15.4-16.3s-11.8-2.1-15.6-17.3c-2-7.7-1.1-11.9-5.5-24.1C194.8,268.6,177.8,263.9,177.8,263.9z"/>
			<path class="st25" d="M177.8,263.9l2.5-6.1c0,0,7.9,5.2,11.1,7.7c3.2,2.5,5.1,3.1,5.1,3.1s1.1,8.8,0.4,8
				C187.6,266.5,177.8,263.9,177.8,263.9z"/>
			<g>
				<polygon class="st18" points="167.5,414.1 169.5,414.1 184.2,353 179.7,353 				"/>
				<polygon class="st18" points="228.6,414.1 226.6,414.1 209.8,350.8 214.3,350.8 				"/>
				<g>
					<path class="st18" d="M190.2,355.3c-8.2,0-13.4-1.5-16.7-4.7c-4.1-4-4.9-10.2-5-18.2c0-16.9-1-20.4-5.7-30.8
						c-0.5-1.1,0-2.5,1.1-3c1.1-0.5,2.5,0,3,1.1c5,10.9,6.1,15,6.2,32.7c0,8.2,1,12.5,3.6,15c2.6,2.5,7.3,3.6,15.2,3.4
						c7.6-0.2,12.9-1.3,17.1-2.1c5.6-1.1,9.6-1.9,14.3,0.3c1.1,0.5,1.6,1.9,1.1,3.1c-0.5,1.1-1.9,1.6-3.1,1.1c-3.4-1.6-6.3-1-11.5,0
						c-4.4,0.9-9.9,2-17.9,2.2C191.4,355.3,190.8,355.3,190.2,355.3z"/>
				</g>
			</g>
			<g>
				<path class="st17" d="M291.2,313.3h-33.2c-1.3,0-2.3-1-2.3-2.3c0-1.3,1-2.3,2.3-2.3h31.7l12.8-27.5c0.5-1.1,1.9-1.6,3-1.1
					c1.1,0.5,1.6,1.9,1.1,3L293.3,312C292.9,312.8,292.1,313.3,291.2,313.3z"/>
			</g>
			<path class="st25" d="M178.7,286.9c0,0,5.8,17.8,13,25.1c7.2,7.4,21.7,9.8,26.3,9.5c-3.6-1.5-10.5-5.6-13.3-16.6
				c-2-7.7-1.1-11.9-5.5-24.1c-3.3-9.1-13.5-14-18.5-15.9c6.3,4.5,14.1,11.9,16.5,17.6C199.9,288.7,178.7,286.9,178.7,286.9z"/>
			<path class="st29" d="M259.1,302.5c0,0,10.1-4.6,11.1-4.2c1.1,0.4,12.2,7.2,12.2,8.3c0,1.1-9.8-4.2-9.8-4.2s1.1,2.9,0.4,4.3
				c-0.7,1.4-8.2,1.4-15,1C251.3,307.3,259.1,302.5,259.1,302.5z"/>
			<path class="st31" d="M179,273.2c-9.3,19,22.5,38.2,41.4,40c18.9,1.7,41.3-4.5,41.3-4.5l-2.5-6.2c0,0-37.8-4.9-38.7-5.6
				C219.4,296.2,182.4,266.2,179,273.2z"/>
			<path class="st29" d="M191.1,242.7c0.9,2.3,0.2,4.6-1.4,5.2c-1.6,0.6-3.7-0.7-4.5-3c-0.9-2.3-0.2-4.6,1.4-5.2
				C188.2,239.1,190.2,240.4,191.1,242.7z"/>
			<path class="st5" d="M208.6,228.2c2.6-1.1,5.4-2.2,4.6,2.1c-0.4,1.9,0,1.4,0.7,3.1c0.7,1.7-1.7,3.1-2.5,4.1c-0.8,1,1.1,2-0.4,3.2
				c-1.6,1.2-3.6-0.4-5,0c-4.3,1.3-3.8-2.1-6.2-2.8c-2.4-0.7-3.6-0.6-4.1,1c-0.5,1.6,1.7,6.7-0.1,6.2c-1.8-0.5-2.3,3.6-2.8,6
				s-1.8-1.6-1.7-4.3c0.1-4.1-0.9-5.8-2.4-7c-1.5-1.1-2.1-11.5,5.1-11.9c7.3-0.4,7.3-1.1,10.4-1.7
				C207.2,225.5,207.4,228.7,208.6,228.2z"/>
		</g>
		<g>
			<path class="st32" d="M616.9,347c4.6,4.2,2.6,8.5-0.8,16.4c-3.4,7.9-4,37-4,37l2.8-0.4c0,0-0.4-29.9,3.4-38
				c3.8-8.1,5.5-12.1,8.9-9.5C630.6,355.1,616.9,347,616.9,347z"/>
			<path class="st33" d="M614.3,341.5c0.6-2.5,3.9-5.2,8.4-7.5c-0.7,3.7-2.8,9.8-0.6,11c3,1.7,0.3-6.8,1.4-11.4
				c4.2-2.1,9.3-3.7,13.9-4.6c0,0,0,0,0,0.1c-2.6,6.7-6.1,9.3-4.6,10.3c1.1,0.8,4.5-6.9,9.1-10.9c3.4-0.2,6.3,0.3,8.1,1.6
				c2.7,2.1,4.4,4,1.8,10.4c-1.5,1.1-3.5,1.9-5.8,2.1c-6.1,0.6-8.9,0.8-4.6,2.8c2.1,1,5.6-0.1,8.4-0.7c-0.9,1.7-2,3.6-3.4,5.8
				c-0.9,1.4-1.8,2.6-2.8,3.6c-2,0.4-3.7,0.4-4.6,0c-2.8-1.2-10.1-5-11.9-3.4c-1.8,1.6,13.5,2.6,12.4,6.6
				c-7.4,4.3-15.8,2.2-17.3-1.7C620.1,350.3,612.7,349.1,614.3,341.5z"/>
			<path class="st32" d="M629.6,370.3c-8.1-6.1-16.4-0.4-20.6,6.1c-4.2,6.5-1.2,21-1.2,21s1.6,0,1.6-0.6c0-0.6-4.4-17.2,6.1-24.6
				c6.6-4.7,11.3-2.4,11.9-0.2c0.6,2.2-2.6,6.3-2.6,6.3L629.6,370.3z"/>
			<path class="st33" d="M611,357.8c8.1,0,10.7,12.5,8.5,19.8c-2.2,7.3-5.2,20.8-5.2,20.8l-2-2c0,0,7.7-19,5.9-27.5
				c-1.8-8.5-6.3-9.9-7.1-9.9C610.2,359,611,357.8,611,357.8z"/>
			<path class="st32" d="M617.8,377.6c0.6-0.8,1.3-1.4,2.1-1.8c-0.1,0.6-0.3,1.2-0.4,1.7c-1,3.3-2.2,7.9-3.2,12
				c-0.1-0.5-0.2-1.3-0.4-2.5c-0.1-0.3-0.1-0.6-0.1-0.9C616.6,383.4,617.3,380.4,617.8,377.6z"/>
			<path class="st33" d="M620,377.7c15.3-6.5,7.3-15.3,20.8-9.5c1,0.4,2.1,1.5,3.3,2.9c-1.2,0.3-2.7,0.6-4.3,0.3
				c-4-0.6-2.6,2.6,4,3.4c1.3,0.2,2.3,0.4,3.1,0.7c3.2,6.1,4.6,14.1-2.1,16.9c-1.3,0.5-3,0.9-4.8,1c-2.1-1.6,0.5-11.2-2.7-9.9
				c-3.1,1.3,1,8.2,0.4,9.9c-3-0.1-6.4-0.5-9.6-1.3c-1.3-0.7-2.2-1.7-2.5-2.9c-1-4.2,5.7-6.9,5.9-10.5c0.2-3.3-2.4,7.4-9.4,8.9
				C615.8,384.7,612.9,380.7,620,377.7z"/>
			<path class="st33" d="M609.1,366.3c1.6-3.4-2.6-4.2-2.4-1.6c0.2,2.3,0.2,8-2.2,9.5c-4.1-0.4-9.7-2.1-13.9-4.6
				c-0.1-0.3,0-0.7,0.2-1.1c1.8-3.6,13.5-6.7,9.9-7.9c-2.9-1-8,4.7-12.1,7.6c-2.5-1.9-4.1-4.1-4.1-6.6c0-3.4,4.1-7.2,9.3-9
				c2.4,0.2,4.6,1.5,8,3.5c5.1,2.9,3.9-1.8-0.9-4.5c4.2,0.2,8.3,2,11.3,6.2c0,0-0.3,1.8,1.6,4.6c5.2,7.6-0.8,12.1-8,11.8
				C606.3,372.3,608,368.7,609.1,366.3z"/>
			<path class="st32" d="M629.1,369.9c3.9,3.1,8.3,6.6,13.7,9c5.4,2.4,4.3,10.3,4.3,10.3s0.8-6.8-3.7-9.2c-4.5-2.3-7.4-5.1-10.9-5.7
				c-3.4-0.5-5.3-1.1-5.3-1.1s1.1-2.2,0.4-3C627.1,369.6,629.1,369.9,629.1,369.9z"/>
			<path class="st32" d="M648.6,334.1c-14.4,3.9-25,13.1-27,15.3c-2,2.2-2,2.9-2,2.9l1.5,2.9l0.7-0.4c0,0-1.2-2.4,1.9-5.6
				c5.3-5.4,11.7-9.7,16.1-11.6S648.6,334.1,648.6,334.1z"/>
			<path class="st16" d="M610.6,414.1h1.8c5,0,9-4,9-9v-10.8h-19.7v10.8C601.6,410,605.6,414.1,610.6,414.1z"/>
			<rect x="601.6" y="396.5" class="st4" width="19.7" height="1.4"/>
			<rect x="601.6" y="399.1" class="st4" width="19.7" height="0.8"/>
		</g>
		<g>
			<g>
				<path class="st13" d="M374.6,129.4c0-15-12-27.1-26.9-27.3c-15-0.2-27.4,11.9-27.6,26.9c-0.1,7.3,2.6,14,7.2,18.9
					c2.1,2.3,3.3,5.3,3.3,8.4v12.2c0,7.9,6.5,14.4,14.4,14.4h4.8c7.9,0,14.4-6.5,14.4-14.4v-12.2c0-3.1,1.2-6.1,3.3-8.4
					C371.9,143,374.6,136.5,374.6,129.4z"/>
				<path class="st34" d="M370.8,131.2c0-12.9-10.3-23.3-23.2-23.5c-12.9-0.2-23.6,10.2-23.8,23.1c-0.1,6.3,2.3,12,6.2,16.3
					c1.8,2,2.8,4.5,2.8,7.2v10.5c0,6.8,5.6,12.4,12.4,12.4h4.1c6.8,0,12.4-5.6,12.4-12.4v-10.5c0-2.7,1-5.3,2.9-7.3
					C368.4,142.9,370.8,137.4,370.8,131.2z"/>
				<g>
					<path class="st35" d="M351.3,161.2h-9c-0.4,0-0.8-0.3-0.8-0.7c0-0.2-1.7-17.5-9.5-22.4c-0.4-0.2-0.5-0.7-0.3-1.1
						c0.2-0.4,0.7-0.5,1.1-0.3c7.6,4.7,9.7,19.4,10.1,22.9h7.4c0-1.2,0-3.5,0.7-6.6c0.9-4,3.2-10.1,8.8-16.2c0.3-0.3,0.8-0.4,1.2,0
						c0.3,0.3,0.4,0.8,0,1.2c-10.2,11.1-9.1,22.2-9.1,22.4c0,0.2,0,0.5-0.2,0.6C351.8,161.1,351.6,161.2,351.3,161.2z"/>
				</g>
				<g>
					<path class="st35" d="M358.1,139.2c-3,0-7.2-2.2-11.5-4.5c-5.6,3-10.9,5.7-13.8,3.9c-1.4-0.8-2-2.5-2-5c0-2.4,0.7-4,2-4.8
						c2.9-1.7,8.2,1,13.8,4c5.7-3,11.1-5.9,14-4.1c1.3,0.8,2,2.4,1.9,4.9c0,2.5-0.8,4.2-2.1,5C359.7,139,358.9,139.2,358.1,139.2z
						 M348.3,133.8c4.5,2.4,9.2,4.7,11.3,3.4c0.9-0.5,1.3-1.7,1.3-3.6c0-1.8-0.4-3-1.2-3.4C357.7,128.9,352.8,131.4,348.3,133.8z
						 M334.9,129.9c-0.5,0-1,0.1-1.4,0.3c-0.8,0.5-1.2,1.6-1.2,3.4c0,1.9,0.4,3.1,1.2,3.6c2,1.2,6.7-1,11.2-3.4
						C341.1,131.8,337.3,129.9,334.9,129.9z"/>
				</g>
				<path class="st35" d="M350.3,186.8h-5.4c-1.8,0-3.3-1.5-3.3-3.3v-0.7c0-1.8,1.5-3.3,3.3-3.3h5.4c1.8,0,3.3,1.5,3.3,3.3v0.7
					C353.5,185.3,352.1,186.8,350.3,186.8z"/>
				<path class="st35" d="M329.7,159.7v8.7c0,8.3,6.8,15.1,15.1,15.1h5c8.3,0,15.1-6.8,15.1-15.1v-8.7H329.7z"/>
				<path class="st36" d="M364.8,162.5h-34.6c-1,0-1.9-0.8-1.9-1.9v-0.4c0-1,0.8-1.9,1.9-1.9h34.6c1,0,1.9,0.8,1.9,1.9v0.4
					C366.7,161.6,365.8,162.5,364.8,162.5z"/>
				<path class="st36" d="M364.9,165.6l-34.2,4.2c-1.1,0.1-2.1-0.6-2.2-1.7l0-0.2c-0.1-1.1,0.6-2.1,1.7-2.2l34.2-4.2
					c1.1-0.1,2.1,0.6,2.2,1.7l0,0.2C366.7,164.5,365.9,165.4,364.9,165.6z"/>
				<path class="st36" d="M364.9,171.5l-34.2,4.2c-1.1,0.1-2.1-0.6-2.2-1.7l0-0.2c-0.1-1.1,0.6-2.1,1.7-2.2l34.2-4.2
					c1.1-0.1,2.1,0.6,2.2,1.7l0,0.2C366.7,170.4,365.9,171.4,364.9,171.5z"/>
				<path class="st36" d="M362.7,177.9l-28.5,3.5c-1,0.1-1.9-0.6-2-1.6l-0.1-0.5c-0.1-1,0.6-1.9,1.6-2l28.5-3.5c1-0.1,1.9,0.6,2,1.6
					l0.1,0.5C364.4,176.9,363.7,177.8,362.7,177.9z"/>
			</g>
			<g>
				<path class="st36" d="M609.1,185.7h18.3c0,10.1-8.3,18.3-18.3,18.3c-10.1,0-18.3-8.3-18.3-18.3c0-10.1,8.3-18.3,18.3-18.3V185.7
					z"/>
				<g>
					<path class="st37" d="M630.6,183.1c0-10.1-8.2-18.3-18.3-18.3v18.3H630.6z"/>
					<path class="st37" d="M593.9,183.1c0,10.1,8.2,18.3,18.3,18.3C602.2,201.5,593.9,193.2,593.9,183.1z"/>
					<path class="st37" d="M612.2,164.8c-10.1,0-18.3,8.2-18.3,18.3C593.9,173.1,602.2,164.8,612.2,164.8z"/>
					<path class="st37" d="M612.2,201.5c10.1,0,18.3-8.2,18.3-18.3C630.6,193.2,622.3,201.5,612.2,201.5z"/>
				</g>
			</g>
			<g>
				<rect x="250.1" y="173.6" class="st36" width="4" height="11.6"/>
				<rect x="301.5" y="177.3" class="st36" width="4" height="7.8"/>
				<rect x="267.1" y="158" class="st36" width="4" height="27.1"/>
				<rect x="275.6" y="173" class="st36" width="4" height="12.2"/>
				<rect x="284.1" y="169.5" class="st36" width="4" height="15.6"/>
				<rect x="258.6" y="165.9" class="st36" width="4" height="19.2"/>
				<rect x="292.6" y="161.5" class="st36" width="4" height="23.7"/>
			</g>
			<g>
				<defs>
					<path id="SVGID_1_" d="M122.4,115.5c-12.8,0-23.2,10.4-23.2,23.2c0,12.8,10.4,23.2,23.2,23.2s23.2-10.4,23.2-23.2
						C145.6,125.9,135.2,115.5,122.4,115.5z M122.4,151c-6.8,0-12.3-5.5-12.3-12.3c0-6.8,5.5-12.3,12.3-12.3s12.3,5.5,12.3,12.3
						C134.7,145.5,129.2,151,122.4,151z"/>
				</defs>
				<clipPath id="SVGID_2_">
					<use xlink:href="#SVGID_1_"  style="overflow:visible;"/>
				</clipPath>
				<path class="st38" d="M143.4,151.6l-21-12.8l-3.8,24.3C128.4,164.6,138.2,160,143.4,151.6z"/>
				<path class="st39" d="M143.4,151.5c0.1-0.1,0.1-0.2,0.1-0.2c4.4-7.4,4.6-16.7,0.5-24.2c-7.4,3.9-3,1.5-21.7,11.6
					C143.4,151.6,140.1,149.6,143.4,151.5z"/>
				<path class="st40" d="M99.3,130.2l23.1,8.5L144,127C133.9,108.2,106.6,110.5,99.3,130.2z"/>
				<path class="st41" d="M118.6,163l3.8-24.3l-23.1-8.5C93.8,144.9,103.5,160.7,118.6,163z"/>
				<path class="st42" d="M97.8,134.2c0.4,0,0.8,0.1,1.2,0.3c0.2-1.1,0.5-2.2,0.8-3.3l12.5,4.6c0,0,0,0,0,0c0-0.6,0.2-1.1,0.5-1.5
					l-1.3-0.5l-11.3-4.1c0.9-2.2,2.2-4.3,3.6-6.1c-0.5-0.2-1-0.6-1.3-1.1c-1.6,1.9-2.9,4.2-3.9,6.6l0,0l-0.3,0.8l-0.3,0.8l0,0
					c-0.4,1.2-0.7,2.4-0.9,3.6C97.5,134.2,97.6,134.2,97.8,134.2z"/>
				<path class="st43" d="M145.1,127.3L145.1,127.3l-0.4-0.7c0,0,0,0,0,0l-0.3-0.6l0,0c-2.5-4.3-5.9-7.7-10.2-9.8
					c-4.1-2.1-8.8-3.1-13.5-2.8c-5.6,0.4-10.7,2.5-14.7,5.9c0.5,0.3,0.8,0.7,1,1.3c3.8-3.2,8.5-5.1,13.8-5.5
					c9.1-0.6,17.5,3.8,22.1,11.7l-6.4,3.5c-1.3,0.7-3.2,1.7-6.3,3.4c-2,1.1-4.5,2.4-7.7,4.1l-0.2,0.1l-0.6-0.4l0,0.2l-4.5-1.7
					c0,0.6-0.2,1.1-0.6,1.5l4.9,1.8l-3.6,22.8c-6.7-1.3-12.6-5.4-16.1-11.5c-2.1-3.6-3.2-7.6-3.2-11.6c-0.3,0.1-0.5,0.1-0.8,0.1
					c-0.3,0-0.6-0.1-0.8-0.2c0,4.3,1.2,8.6,3.5,12.5c3.8,6.4,10,10.9,17.2,12.3l0,0l0.8,0.1c0,0,0.8,0.1,0.8,0.1l0,0
					c1,0.1,2.1,0.2,3.1,0.2c3.7,0,7.3-0.8,10.7-2.4c4.3-2,8-5.2,10.6-9.1l0,0l0.2-0.3c0,0,0.3-0.4,0.3-0.4c0-0.1,0.1-0.1,0.1-0.2
					l0,0c0,0,0,0,0,0l0.3-0.4l0,0C148.7,143.9,148.9,134.9,145.1,127.3z M119.5,162.3L123,140l9.1,5.5c3.7,2.2,5.7,3.5,7.1,4.3
					l3.1,1.9C137.2,159.4,128.5,163.4,119.5,162.3z M143.1,150.4c0,0-0.2-0.1-0.2-0.1c-0.9-0.5-1.2-0.7-2.9-1.8l-16-9.8l13.3-7.2
					c2-1,2.8-1.5,4.7-2.5c0.5-0.3,1-0.5,1.7-0.9C147.2,135.2,147,143.6,143.1,150.4z"/>
			</g>
			<g>
				<path class="st36" d="M250.3,143.2h-54.1c-4.5,0-8.2-3.7-8.2-8.2v-15.5c0-4.5,3.7-8.2,8.2-8.2h54.1c4.5,0,8.2,3.7,8.2,8.2V135
					C258.4,139.5,254.8,143.2,250.3,143.2z"/>
				<path class="st4" d="M249.9,141.7h-53.4c-3.6,0-6.6-3-6.6-6.6v-8.8c0-3.6,3-6.6,6.6-6.6h53.4c3.6,0,6.6,3,6.6,6.6v8.8
					C256.5,138.8,253.5,141.7,249.9,141.7z"/>
				<g>
					<path class="st4" d="M192.5,116.2H192c-0.6,0-1.1-0.5-1.1-1.1v-0.2c0-0.6,0.5-1.1,1.1-1.1h0.5c0.6,0,1.1,0.5,1.1,1.1v0.2
						C193.7,115.7,193.2,116.2,192.5,116.2z"/>
					<path class="st4" d="M197.5,116.2H197c-0.6,0-1.1-0.5-1.1-1.1v-0.2c0-0.6,0.5-1.1,1.1-1.1h0.5c0.6,0,1.1,0.5,1.1,1.1v0.2
						C198.7,115.7,198.2,116.2,197.5,116.2z"/>
					<path class="st4" d="M202.6,116.2h-0.5c-0.6,0-1.1-0.5-1.1-1.1v-0.2c0-0.6,0.5-1.1,1.1-1.1h0.5c0.6,0,1.1,0.5,1.1,1.1v0.2
						C203.7,115.7,203.2,116.2,202.6,116.2z"/>
				</g>
				<path class="st36" d="M253.8,124.6h-35.2c-0.6,0-1.1-0.5-1.1-1.1c0-0.6,0.5-1.1,1.1-1.1h35.2c0.6,0,1.1,0.5,1.1,1.1
					C254.8,124.1,254.4,124.6,253.8,124.6z"/>
				<path class="st36" d="M227.3,140.8h-35.2c-0.6,0-1.1-0.5-1.1-1.1c0-0.6,0.5-1.1,1.1-1.1h35.2c0.6,0,1.1,0.5,1.1,1.1
					C228.4,140.3,227.9,140.8,227.3,140.8z"/>
				<path class="st36" d="M233.2,140.8h-2.4c-0.5,0-1-0.4-1-1v-0.2c0-0.5,0.4-1,1-1h2.4c0.5,0,1,0.4,1,1v0.2
					C234.2,140.4,233.7,140.8,233.2,140.8z"/>
				<path class="st36" d="M238.7,140.8h-2.4c-0.5,0-1-0.4-1-1v-0.2c0-0.5,0.4-1,1-1h2.4c0.5,0,1,0.4,1,1v0.2
					C239.6,140.4,239.2,140.8,238.7,140.8z"/>
				<path class="st36" d="M254.1,129.1h-58.3c-0.4,0-0.7-0.3-0.7-0.7c0-0.4,0.3-0.7,0.7-0.7h58.3c0.4,0,0.7,0.3,0.7,0.7
					C254.8,128.8,254.5,129.1,254.1,129.1z"/>
				<path class="st36" d="M254.1,132.2h-58.3c-0.4,0-0.7-0.3-0.7-0.7c0-0.4,0.3-0.7,0.7-0.7h58.3c0.4,0,0.7,0.3,0.7,0.7
					C254.8,131.9,254.5,132.2,254.1,132.2z"/>
			</g>
			<g>
				<path class="st44" d="M430.1,122.9H400v-17.5h22.6c2.9,2.9,4.5,4.5,7.5,7.5V122.9z"/>
				<polygon class="st37" points="422,105.4 422,114.8 430.1,114.8 430.1,113 422.5,105.5 				"/>
				<polygon class="st44" points="422.6,105.4 422.6,113 430.1,113 				"/>
				<path class="st4" d="M416.8,112h-13.4c-0.3,0-0.5-0.2-0.5-0.5c0-0.3,0.2-0.5,0.5-0.5h13.4c0.3,0,0.5,0.2,0.5,0.5
					C417.3,111.8,417.1,112,416.8,112z"/>
				<path class="st4" d="M416.8,114.7h-13.4c-0.3,0-0.5-0.2-0.5-0.5c0-0.3,0.2-0.5,0.5-0.5h13.4c0.3,0,0.5,0.2,0.5,0.5
					C417.3,114.5,417.1,114.7,416.8,114.7z"/>
				<path class="st4" d="M416.8,117.6h-13.4c-0.3,0-0.5-0.2-0.5-0.5c0-0.3,0.2-0.5,0.5-0.5h13.4c0.3,0,0.5,0.2,0.5,0.5
					C417.3,117.3,417.1,117.6,416.8,117.6z"/>
			</g>
			<circle class="st17" cx="414.1" cy="106.8" r="0.9"/>
			
				<rect x="279.6" y="104.2" transform="matrix(0.9818 0.1897 -0.1897 0.9818 27.213 -52.7549)" class="st45" width="19.1" height="23"/>
			<path class="st36" d="M296.8,116.1l-9.9-1.9c-0.3-0.1-0.4-0.3-0.4-0.6s0.3-0.4,0.6-0.4l9.9,1.9c0.3,0.1,0.4,0.3,0.4,0.6
				C297.3,115.9,297,116.1,296.8,116.1z"/>
			<path class="st36" d="M296.3,118.5l-9.9-1.9c-0.3-0.1-0.4-0.3-0.4-0.6c0.1-0.3,0.3-0.4,0.6-0.4l9.9,1.9c0.3,0.1,0.4,0.3,0.4,0.6
				C296.8,118.4,296.6,118.6,296.3,118.5z"/>
			<path class="st36" d="M295.8,121.1l-9.9-1.9c-0.3-0.1-0.4-0.3-0.4-0.6c0.1-0.3,0.3-0.4,0.6-0.4l9.9,1.9c0.3,0.1,0.4,0.3,0.4,0.6
				S296.1,121.1,295.8,121.1z"/>
			<path class="st17" d="M290,105.7c-0.1,0.4-0.5,0.7-1,0.6c-0.4-0.1-0.7-0.5-0.6-1c0.1-0.4,0.5-0.7,1-0.6
				C289.8,104.8,290.1,105.2,290,105.7z"/>
			<path class="st36" d="M443.9,147.5l-29-3.1l1.9-18.2l23,2.4c2.1,2.6,3.3,4.1,5.4,6.6L443.9,147.5z"/>
			<polygon class="st4" points="439.4,129.9 417.8,127.6 416.2,143 443.1,145.8 444,136.8 438.8,136.3 			"/>
			<path class="st36" d="M436.5,135.5l-14-1.5c-0.3,0-0.6-0.3-0.5-0.6c0-0.3,0.3-0.6,0.6-0.5l14,1.5c0.3,0,0.6,0.3,0.5,0.6
				C437.1,135.3,436.8,135.5,436.5,135.5z"/>
			<path class="st36" d="M436.2,138.6l-14-1.5c-0.3,0-0.6-0.3-0.5-0.6c0-0.3,0.3-0.6,0.6-0.5l14,1.5c0.3,0,0.6,0.3,0.5,0.6
				C436.8,138.4,436.5,138.6,436.2,138.6z"/>
			<path class="st36" d="M435.8,141.8l-14-1.5c-0.3,0-0.6-0.3-0.5-0.6c0-0.3,0.3-0.6,0.6-0.5l14,1.5c0.3,0,0.6,0.3,0.5,0.6
				C436.4,141.6,436.1,141.8,435.8,141.8z"/>
			<circle class="st17" cx="427.7" cy="130.4" r="0.9"/>
			<g>
				<path class="st33" d="M588.2,116.2c0,5.5-4.5,10-10,10c-5.5,0-10-4.5-10-10c0-5.5,4.5-10,10-10
					C583.7,106.2,588.2,110.7,588.2,116.2z"/>
				<g>
					<path class="st4" d="M577.2,119.6C577.2,119.6,577.2,119.6,577.2,119.6c-0.2,0-0.3-0.1-0.4-0.2l-2.7-3.1
						c-0.2-0.2-0.2-0.5,0-0.7c0.2-0.2,0.5-0.2,0.7,0l2.4,2.7l5.4-5.3c0.2-0.2,0.5-0.2,0.7,0c0.2,0.2,0.2,0.5,0,0.7l-5.8,5.7
						C577.5,119.6,577.3,119.6,577.2,119.6z"/>
				</g>
			</g>
			<g>
				<path class="st36" d="M135.6,209.3h39.5c6.5,0,11.8-5.3,11.8-11.8v-2.4c0-6.5-5.3-11.8-11.8-11.8h-39.5
					c-6.5,0-11.8,5.3-11.8,11.8v2.4C123.7,204,129.1,209.3,135.6,209.3z"/>
				<path class="st36" d="M179.3,205.4v14.4l-16.6-16.6C162.7,203.2,179,205.4,179.3,205.4z"/>
				<path class="st4" d="M136.5,206.7h37.7c5.2,0,9.5-4.3,9.5-9.5v-1.9c0-5.2-4.3-9.5-9.5-9.5h-37.7c-5.2,0-9.5,4.3-9.5,9.5v1.9
					C127,202.4,131.3,206.7,136.5,206.7z"/>
				<path class="st36" d="M152.8,191h25.6c0.6,0,1.1-0.5,1.1-1.1s-0.5-1.1-1.1-1.1h-25.6c-0.6,0-1.1,0.5-1.1,1.1
					S152.2,191,152.8,191z"/>
				<path class="st36" d="M131.4,195.3H179c0.3,0,0.6-0.3,0.6-0.6v-0.1c0-0.3-0.3-0.6-0.6-0.6h-47.6c-0.3,0-0.6,0.3-0.6,0.6v0.1
					C130.8,195,131.1,195.3,131.4,195.3z"/>
				<path class="st36" d="M131.4,197.7H179c0.3,0,0.6-0.3,0.6-0.6V197c0-0.3-0.3-0.6-0.6-0.6h-47.6c-0.3,0-0.6,0.3-0.6,0.6v0.1
					C130.8,197.5,131.1,197.7,131.4,197.7z"/>
			</g>
			<g>
				<path class="st36" d="M555,191.1h1c1.2,0,2.2-1,2.2-2.2v-0.4c0-1.2-1-2.2-2.2-2.2h-1c-1.2,0-2.2,1-2.2,2.2v0.4
					C552.8,190.1,553.8,191.1,555,191.1z"/>
				<path class="st36" d="M545.3,191.1h1c1.2,0,2.2-1,2.2-2.2v-0.4c0-1.2-1-2.2-2.2-2.2h-1c-1.2,0-2.2,1-2.2,2.2v0.4
					C543.1,190.1,544.1,191.1,545.3,191.1z"/>
				<path class="st36" d="M535.6,191.1h1c1.2,0,2.2-1,2.2-2.2v-0.4c0-1.2-1-2.2-2.2-2.2h-1c-1.2,0-2.2,1-2.2,2.2v0.4
					C533.4,190.1,534.4,191.1,535.6,191.1z"/>
			</g>
		</g>
	</g>
</g>
</svg>
