<svg xmlns="http://www.w3.org/2000/svg" width="89" height="87" viewBox="0 0 89 87">
  <g id="Group_4586" data-name="Group 4586" transform="translate(0 -0.236)">
    <rect id="Rectangle_1017" data-name="Rectangle 1017" width="89" height="87" rx="4" transform="translate(0 0.236)" fill="none"/>
    <g id="megaphone_2_" data-name="megaphone(2)" transform="translate(25.232 25.52)">
      <path id="Path_3561" data-name="Path 3561" d="M14.705,117.616a17.928,17.928,0,0,1-1.817-8.055h.991v-2.478H2.478V96.715h11.4V94.237H2.478A2.434,2.434,0,0,0,0,96.715v10.368a2.434,2.434,0,0,0,2.478,2.478H2.6L6.444,121.5a2.419,2.419,0,0,0,2.313,1.817h.289a10.723,10.723,0,0,0,4.709-1.446,2.979,2.979,0,0,0,.785-.578l.124-.124A3.04,3.04,0,0,0,14.705,117.616Zm-1.983,1.941c-.041.041-.083.041-.124.083s-.083.041-.124.083A7.96,7.96,0,0,1,8.84,120.8v-.041L5.246,109.562h5.2a20.155,20.155,0,0,0,2.231,9.418A.587.587,0,0,1,12.722,119.558Z" transform="translate(0 -87.845)" fill="#4dcfe0"/>
      <g id="Group_4584" data-name="Group 4584" transform="translate(12.598 0)">
        <path id="Path_3562" data-name="Path 3562" d="M177.109,41.507a1.075,1.075,0,0,1-.62-.165c-.124-.083-10.616-6.237-15.9-6.237a1.217,1.217,0,0,1-1.239-1.239V21.019a1.217,1.217,0,0,1,1.239-1.239c4.131,0,12.888-4.5,15.9-6.237a1.317,1.317,0,0,1,1.239,0,1.233,1.233,0,0,1,.62,1.074V40.268a1.233,1.233,0,0,1-.62,1.074A1.166,1.166,0,0,1,177.109,41.507Zm-15.283-8.8c4.544.537,10.9,3.759,14.044,5.452V16.723c-3.181,1.652-9.666,4.874-14.044,5.452Z" transform="translate(-159.347 -13.388)" fill="#33a5f1"/>
        <path id="Path_3563" data-name="Path 3563" d="M385.983,124.582H384V122.1h1.983a2.768,2.768,0,1,0,0-5.535H384V114.09h1.983a5.246,5.246,0,1,1,0,10.492Z" transform="translate(-366.238 -106.128)" fill="#33a5f1"/>
      </g>
    </g>
  </g>
</svg>
