<svg xmlns="http://www.w3.org/2000/svg" width="89" height="87" viewBox="0 0 89 87">
  <g id="Group_4587" data-name="Group 4587" transform="translate(0 -0.236)">
    <rect id="Rectangle_1017" data-name="Rectangle 1017" width="89" height="87" rx="4" transform="translate(0 0.236)" fill="none"/>
    <g id="gear" transform="translate(26.571 25.52)">
      <path id="Path_3564" data-name="Path 3564" d="M127.065,135.536A8.633,8.633,0,1,1,135.7,126.9,8.62,8.62,0,0,1,127.065,135.536Zm0-14.857a6.224,6.224,0,1,0,6.224,6.224A6.255,6.255,0,0,0,127.065,120.678Z" transform="translate(-109.342 -109.179)" fill="#4dcfe0"/>
      <path id="Path_3565" data-name="Path 3565" d="M14.112,35.472a1.706,1.706,0,0,1-.442-.08L9.093,33.625A1.169,1.169,0,0,1,8.33,32.46l.08-2.088A13.609,13.609,0,0,1,5.72,27.8l-2.088.161a1.188,1.188,0,0,1-1.2-.723L.46,22.743A1.158,1.158,0,0,1,.7,21.378l1.526-1.446a16.6,16.6,0,0,1-.08-3.734L.58,14.833a1.169,1.169,0,0,1-.321-1.365L2.026,8.89A1.169,1.169,0,0,1,3.19,8.127l2.088.08a13.608,13.608,0,0,1,2.57-2.69L7.687,3.429a1.188,1.188,0,0,1,.723-1.2l4.5-1.968a1.2,1.2,0,0,1,1.325.281l1.446,1.526a16.6,16.6,0,0,1,3.734-.08L20.778.417A1.169,1.169,0,0,1,22.143.1l4.578,1.767a1.169,1.169,0,0,1,.763,1.164L27.4,5.115a13.608,13.608,0,0,1,2.69,2.57l2.088-.161a1.188,1.188,0,0,1,1.2.723l1.968,4.5a1.234,1.234,0,0,1-.281,1.365l-1.526,1.405a16.6,16.6,0,0,1,.08,3.734l1.566,1.365a1.169,1.169,0,0,1,.321,1.365l-1.767,4.578a1.2,1.2,0,0,1-1.164.763L30.5,27.24a13.608,13.608,0,0,1-2.57,2.69l.161,2.088a1.188,1.188,0,0,1-.723,1.2l-4.5,1.968A1.234,1.234,0,0,1,21.5,34.91L20.1,33.384a16.6,16.6,0,0,1-3.734.08L15,35.03A1.066,1.066,0,0,1,14.112,35.472ZM10.779,31.7l2.971,1.164,1.2-1.405a1.241,1.241,0,0,1,1.084-.4,12.847,12.847,0,0,0,4.3-.12,1.117,1.117,0,0,1,1.084.361l1.325,1.365,2.931-1.285-.161-1.927A1.189,1.189,0,0,1,26,28.4a11.938,11.938,0,0,0,2.931-3.092,1.1,1.1,0,0,1,1.044-.522l1.887.04,1.164-2.971-1.405-1.2a1.241,1.241,0,0,1-.4-1.084,12.847,12.847,0,0,0-.12-4.3,1.117,1.117,0,0,1,.361-1.084l1.365-1.325L31.54,9.934l-1.927.161a1.189,1.189,0,0,1-1.044-.482,11.938,11.938,0,0,0-3.092-2.931,1.134,1.134,0,0,1-.522-1.044l.04-1.887L22.023,2.585l-1.2,1.405a1.241,1.241,0,0,1-1.084.4,12.847,12.847,0,0,0-4.3.12,1.117,1.117,0,0,1-1.084-.361L13.068,2.826,10.137,4.111,10.257,6a1.189,1.189,0,0,1-.482,1.044,11.938,11.938,0,0,0-2.931,3.092,1.134,1.134,0,0,1-1.044.522l-1.887-.04L2.748,13.588l1.405,1.2a1.241,1.241,0,0,1,.4,1.084,12.847,12.847,0,0,0,.12,4.3,1.117,1.117,0,0,1-.361,1.084L2.989,22.542l1.285,2.931,1.887-.12a1.189,1.189,0,0,1,1.044.482A11.938,11.938,0,0,0,10.3,28.766a1.134,1.134,0,0,1,.522,1.044Z" transform="translate(-0.163 0)" fill="#33a5f1"/>
    </g>
  </g>
</svg>
