<svg xmlns="http://www.w3.org/2000/svg" width="87" height="87" viewBox="0 0 87 87">
  <g id="Group_3296" data-name="Group 3296" transform="translate(-0.137 -0.237)">
    <rect id="Rectangle_1017" data-name="Rectangle 1017" width="87" height="87" rx="4" transform="translate(0.137 0.237)" fill="none"/>
    <g id="cpu" transform="translate(25.312 25.236)">
      <path id="Path_3306" data-name="Path 3306" d="M31.681,17.181a3.13,3.13,0,0,0,2.843,1.868,3.087,3.087,0,0,0,0-6.174,3.13,3.13,0,0,0-2.843,1.868h-3.7v-3.9a1.2,1.2,0,0,0-1.218-1.218h-3.94V6.052h2.437A3.13,3.13,0,0,0,28.107,7.92a3.087,3.087,0,0,0,0-6.174,3.13,3.13,0,0,0-2.843,1.868H21.608A1.2,1.2,0,0,0,20.39,4.833V9.626H16.734V5.93A3.13,3.13,0,0,0,18.6,3.087a3.087,3.087,0,0,0-6.174,0A3.13,3.13,0,0,0,14.3,5.93v3.7H10.845a1.2,1.2,0,0,0-1.218,1.218V14.7H6.052V12.266A3.13,3.13,0,0,0,7.92,9.423a3.087,3.087,0,1,0-6.174,0,3.13,3.13,0,0,0,1.868,2.843v3.655A1.2,1.2,0,0,0,4.833,17.14H9.626V20.8H5.93a3.13,3.13,0,0,0-2.843-1.868,3.087,3.087,0,1,0,0,6.174A3.13,3.13,0,0,0,5.93,23.233h3.7v3.534a1.2,1.2,0,0,0,1.218,1.218H14.7v3.574H12.266a3.13,3.13,0,0,0-2.843-1.868,3.087,3.087,0,1,0,0,6.174A3.13,3.13,0,0,0,12.266,34h3.655a1.2,1.2,0,0,0,1.218-1.218V27.985H20.8v3.7a3.13,3.13,0,0,0-1.868,2.843,3.087,3.087,0,0,0,6.174,0,3.13,3.13,0,0,0-1.868-2.843v-3.7h3.534a1.2,1.2,0,0,0,1.218-1.218V23.273h3.574V25.71a3.13,3.13,0,0,0-1.868,2.843,3.087,3.087,0,1,0,6.174,0A3.13,3.13,0,0,0,34,25.71V22.055a1.2,1.2,0,0,0-1.218-1.218H27.985V17.181h3.7Zm2.843-1.868a.65.65,0,1,1-.65.65A.642.642,0,0,1,34.524,15.312ZM28.107,4.183a.65.65,0,1,1-.65.65A.642.642,0,0,1,28.107,4.183ZM4.833,10.073a.65.65,0,1,1,.65-.65A.642.642,0,0,1,4.833,10.073ZM3.087,22.664a.65.65,0,1,1,.65-.65A.642.642,0,0,1,3.087,22.664ZM9.423,33.427a.65.65,0,1,1,.65-.65A.642.642,0,0,1,9.423,33.427Zm6.093-30.99a.65.65,0,1,1-.65.65A.642.642,0,0,1,15.516,2.437Zm6.5,32.737a.65.65,0,1,1,.65-.65A.642.642,0,0,1,22.014,35.174Zm3.534-9.626H12.063V12.063H25.548V25.548Zm7.23,2.356a.65.65,0,1,1-.65.65A.642.642,0,0,1,32.777,27.9Z" transform="translate(0 0)" fill="#00a7fe"/>
      <path id="Path_3307" data-name="Path 3307" d="M185.083,186.3h-7.8a1.2,1.2,0,0,1-1.218-1.218v-7.8a1.2,1.2,0,0,1,1.218-1.218h7.8a1.2,1.2,0,0,1,1.218,1.218v7.8A1.2,1.2,0,0,1,185.083,186.3Zm-6.58-2.437h5.361V178.5H178.5Z" transform="translate(-162.378 -162.378)" fill="#4dcfe0"/>
    </g>
  </g>
</svg>
