<svg id="Group_3293" data-name="Group 3293" xmlns="http://www.w3.org/2000/svg" width="87" height="87" viewBox="0 0 87 87">
  <rect id="Rectangle_1014" data-name="Rectangle 1014" width="87" height="87" rx="4" transform="translate(0 0)" fill="none"/>
  <g id="car_8_" data-name="car(8)" transform="translate(23.287 27.735)">
    <path id="Path_3237" data-name="Path 3237" d="M98.653,125.082H96.116a3.426,3.426,0,1,0-6.851,0H86.727a5.963,5.963,0,1,1,11.926,0Z" transform="translate(-79.706 -113.494)" fill="#4dcfe0"/>
    <path id="Path_3238" data-name="Path 3238" d="M38.19,62.194l-1.142-1.311L34.383,50.563a1.233,1.233,0,0,0-1.226-.93H6.6a1.233,1.233,0,0,0-1.226.93L2.749,60.713l-1.4,1.353A4.447,4.447,0,0,0,0,65.281V79.576a1.246,1.246,0,0,0,1.269,1.269h7.19a1.246,1.246,0,0,0,1.269-1.269V76.319H29.52v3.256a1.246,1.246,0,0,0,1.269,1.269h7.19a1.246,1.246,0,0,0,1.269-1.269V65.112A4.577,4.577,0,0,0,38.19,62.194ZM7.57,52.171H32.184l2.03,7.782H5.583ZM7.19,78.307H2.538V76.319H7.19Zm24.868,0V76.319h4.652v1.988Zm4.652-4.525H2.538v-8.5a1.918,1.918,0,0,1,.592-1.4l1.438-1.4H35.06l1.184,1.4a1.843,1.843,0,0,1,.465,1.226v8.67Z" transform="translate(0 -49.633)" fill="#00a7fe"/>
    <g id="Group_3286" data-name="Group 3286" transform="translate(3.722 16.409)">
      <path id="Path_3239" data-name="Path 3239" d="M53.292,259.026H47.245a1.246,1.246,0,0,1-1.269-1.269v-4.145a1.246,1.246,0,0,1,1.269-1.269h6.048a1.246,1.246,0,0,1,1.269,1.269v4.145A1.246,1.246,0,0,1,53.292,259.026Zm-4.779-2.538h3.51v-1.607h-3.51Z" transform="translate(-45.976 -252.344)" fill="#4dcfe0"/>
      <path id="Path_3240" data-name="Path 3240" d="M340.117,259.026H334.07a1.246,1.246,0,0,1-1.269-1.269v-4.145a1.246,1.246,0,0,1,1.269-1.269h6.048a1.246,1.246,0,0,1,1.269,1.269v4.145A1.246,1.246,0,0,1,340.117,259.026Zm-4.779-2.538h3.51v-1.607h-3.51Z" transform="translate(-309.583 -252.344)" fill="#4dcfe0"/>
    </g>
  </g>
</svg>
