<?xml version="1.0" encoding="utf-8"?>
<!-- Generator: Adobe Illustrator 23.0.0, SVG Export Plug-In . SVG Version: 6.00 Build 0)  -->
<svg version="1.1" id="Layer_1" xmlns="http://www.w3.org/2000/svg" xmlns:xlink="http://www.w3.org/1999/xlink" x="0px" y="0px"
	 viewBox="0 0 750 500" style="enable-background:new 0 0 750 500;" xml:space="preserve">
<style type="text/css">
	.st0{fill:none;}
	.st1{opacity:0.59;}
	.st2{fill:#F5E0BD;}
	.st3{fill:#F5EAEA;}
	.st4{opacity:0.92;}
	.st5{fill:#F7A741;}
	.st6{fill:#66423B;}
	.st7{fill:#BB6C43;}
	.st8{fill:#C93743;}
	.st9{fill:#B4293C;}
	.st10{fill:#D0A16D;}
	.st11{fill:#7F4921;}
	.st12{fill:#77401F;}
	.st13{fill:#D8CCD4;}
	.st14{fill:#FAF1F8;}
	.st15{fill:#E6D9E1;}
	.st16{fill:#E5BC85;}
	.st17{fill:#373A4A;}
	.st18{fill:#2F323F;}
	.st19{fill:#414559;}
	.st20{fill:#BB794E;}
	.st21{fill:#8692B0;}
	.st22{fill:#ABBED4;}
	.st23{opacity:0.2;fill:#ABBED4;enable-background:new    ;}
	.st24{fill:#C0D4EF;}
</style>
<g>
	<rect class="st0" width="750" height="500"/>
	<g>
		<g id="BACKGROUND">
			<g class="st1">
				<path class="st2" d="M379.2,90.2c-13.9,1-28.6-0.5-42.1-3.2c-29.3-5.8-59.2-15.6-88.6-9.9c-9.7,1.9-19.2,5.6-26.1,12.2
					c-6.9,6.6-10.6,16.4-7.8,25.2c3.7,11.8,17.5,19,21.3,30.8c3.9,12.2-4.5,25.2-15.7,32.6c-11.2,7.4-24.7,10.8-37.3,15.9
					c-29.2,11.8-54,33.8-65.7,61.4c-11.7,27.5-9.5,60.2,7.7,85.2c17.2,24.9,48.8,57.5,80.6,54.6c22.1-2.1,167.1-15.2,218-2
					c45.7,11.8,94.7,12.2,140.6,1c27.7-6.7,55.9-19,70.1-42c18.7-30.3,6-71-20.9-95.4c-15.6-14.1-35.2-24.1-50.7-38.3
					c-15.5-14.2-26.8-35.5-19.6-54.5c5.3-13.8,19-23.4,26-36.6c9.9-18.8,3.8-42.8-11.8-57.9c-15.6-15.1-39-21.9-61.6-21.3
					c-22.6,0.6-44.4,7.9-64.4,17.5C414,73.8,399.4,88.7,379.2,90.2"/>
			</g>
		</g>
		<g id="OBJECTS">
			<ellipse class="st3" cx="376.4" cy="418.3" rx="254.6" ry="31.4"/>
			<g class="st4">
				<g>
					<path class="st2" d="M540.2,392.1H309.6c-2.1,0-3.7-1.7-3.7-3.7v-143c0-2.1,1.7-3.7,3.7-3.7h230.6c2.1,0,3.7,1.7,3.7,3.7v143
						C543.9,390.4,542.2,392.1,540.2,392.1z"/>
					<g>
						<g>
							<rect x="312.9" y="248.6" class="st2" width="224" height="27.3"/>
							<path class="st2" d="M437.9,265.1h-26c-1.6,0-2.9-1.3-2.9-2.9l0,0c0-1.6,1.3-2.9,2.9-2.9h26c1.6,0,2.9,1.3,2.9,2.9l0,0
								C440.7,263.8,439.4,265.1,437.9,265.1z"/>
						</g>
						<g>
							<rect x="312.9" y="282.6" class="st2" width="224" height="27.3"/>
							<path class="st2" d="M437.9,299.1h-26c-1.6,0-2.9-1.3-2.9-2.9l0,0c0-1.6,1.3-2.9,2.9-2.9h26c1.6,0,2.9,1.3,2.9,2.9l0,0
								C440.7,297.8,439.4,299.1,437.9,299.1z"/>
						</g>
						<g>
							<rect x="312.9" y="316.6" class="st2" width="224" height="27.3"/>
							<path class="st2" d="M437.9,333.1h-26c-1.6,0-2.9-1.3-2.9-2.9l0,0c0-1.6,1.3-2.9,2.9-2.9h26c1.6,0,2.9,1.3,2.9,2.9l0,0
								C440.7,331.8,439.4,333.1,437.9,333.1z"/>
						</g>
						<g>
							<rect x="312.9" y="350.7" class="st2" width="224" height="27.3"/>
							<path class="st2" d="M437.9,367.2h-26c-1.6,0-2.9-1.3-2.9-2.9l0,0c0-1.6,1.3-2.9,2.9-2.9h26c1.6,0,2.9,1.3,2.9,2.9l0,0
								C440.7,365.9,439.4,367.2,437.9,367.2z"/>
						</g>
					</g>
				</g>
				<g>
					<g>
						<rect x="381.9" y="215.3" class="st2" width="49.9" height="13.2"/>
						<rect x="384.2" y="217.6" class="st2" width="42.4" height="5.2"/>
					</g>
					<g>
						<rect x="384.7" y="228.5" class="st2" width="49.9" height="13.2"/>
						<rect x="387" y="230.8" class="st2" width="42.4" height="5.2"/>
					</g>
				</g>
				<g>
					<path class="st2" d="M351.3,179v-3.4h-14.5v2.2c0,10.9-3.7,21.4-9.9,30.4c-2,2.9-3.2,6.2-3.5,9.8c-0.7,8.3,3.5,15.6,10,19.5h0
						v2.4c0,1,0.8,1.8,1.8,1.8h17.4c1,0,1.8-0.8,1.8-1.8v-2.3c6.1-3.6,10.2-10.2,10.2-17.8c0-4.4-1.4-8.5-3.8-11.9
						C355,199.3,351.3,189.4,351.3,179z"/>
					<g>
						<polygon class="st2" points="380.1,193.4 308.1,193.4 327.6,115.1 360.6,115.1 						"/>
						<polygon class="st2" points="371.9,193.4 316.3,193.4 331.3,115.1 356.9,115.1 						"/>
						<polygon class="st2" points="361.5,193.4 326.7,193.4 336.1,115.1 352.1,115.1 						"/>
						<polygon class="st2" points="351.7,193.4 336.4,193.4 340.6,115.1 347.6,115.1 						"/>
					</g>
				</g>
				<g>
					<g>
						<g>
							<g>
								<path class="st2" d="M559.1,145.8c-0.6-1.3-2.2-1.7-3.7-1.8c-6.9-0.2-13.2,3.9-18.1,8.8c-7.3,7.3-12.4,16.7-15.7,26.5
									c-3.3,9.8-4.9,20.1-5.9,30.4l7.5,2.9c1.6-9.9,4.1-19.8,9-28.4c7.3-12.7,19.5-22,26.3-35
									C559.1,148.2,559.6,146.9,559.1,145.8z"/>
							</g>
							<path class="st2" d="M539.2,160.8c4.1-0.2,8.1-1.4,11.6-3.6c0.5-0.3,0.1-1.2-0.4-0.9c-3.2,2-6.9,3.2-10.8,3.5
								c0.1-0.1,0.2-0.2,0.3-0.3c3.3-3.4,7.1-6.3,11.2-8.6c0.5-0.3,0.1-1.2-0.4-0.9c-6.4,3.6-11.9,8.7-16.3,14.5
								c-0.2-2,0.3-4.1,1.4-5.8c0.3-0.5-0.5-1.1-0.8-0.5c-1.4,2.2-1.9,4.9-1.4,7.5c-0.4,0.6-0.9,1.2-1.3,1.9
								c-2.7,4-4.8,8.3-6.6,12.8c-0.4-2.3-0.3-4.7,0.1-7.1c0.1-0.6-0.8-0.7-0.9-0.1c-0.5,2.7-0.5,5.6,0,8.3c0,0.1,0.1,0.3,0.2,0.3
								c-1.5,3.9-2.7,7.9-3.6,11.9c0,0,0,0.1,0,0.1c-0.2-1.8-0.3-3.6,0-5.4c0.1-0.6-0.9-0.7-0.9-0.1c-0.3,2.2-0.3,4.4,0.1,6.6
								c0,0.3,0.3,0.4,0.5,0.4c-1.1,5-1.8,10.1-2.4,15.2c-0.1,0.6,0.9,0.7,0.9,0.1c0.3-3.1,0.7-6.1,1.2-9.2c0.1,0,0.1,0,0.2-0.1
								c2-1.6,3.8-3.4,5.3-5.5c0.4-0.5-0.4-1-0.8-0.5c-1.3,1.8-2.8,3.3-4.5,4.7c0.7-3.9,1.5-7.7,2.6-11.5c0.1,0,0.1,0,0.2,0
								c3.3-1.7,6.1-4,8.5-6.8c0.4-0.5-0.4-1-0.8-0.5c-2.1,2.5-4.7,4.5-7.5,6.1c0.6-1.9,1.2-3.7,1.9-5.6c1.1-2.8,2.4-5.6,3.8-8.3
								c0.1,0.1,0.2,0.2,0.4,0.1c3-0.3,6-1.2,8.7-2.5c0.5-0.3,0.1-1.1-0.4-0.9c-2.6,1.3-5.4,2.1-8.2,2.4c2.4-4.3,5.2-8.3,8.5-11.9
								C538.9,160.7,539,160.8,539.2,160.8z"/>
						</g>
						<g>
							<g>
								<path class="st2" d="M448.7,142.5c0.6-1.4,2.4-1.7,3.9-1.7c7.3,0.1,13.7,4.7,18.7,10c7.4,8,12.3,18,15.4,28.5
									c3.1,10.4,4.3,21.3,4.9,32.2l-7.9,2.7c-1.3-10.4-3.4-20.9-8.3-30.3c-7.1-13.6-19.6-24-26.1-37.9
									C448.7,145,448.2,143.7,448.7,142.5z"/>
							</g>
							<path class="st2" d="M469.1,159c-4.3-0.4-8.5-1.8-12.1-4.3c-0.5-0.4-0.1-1.2,0.5-0.9c3.3,2.3,7.2,3.7,11.2,4.1
								c-0.1-0.1-0.2-0.2-0.3-0.3c-3.3-3.7-7.2-7-11.4-9.6c-0.5-0.3-0.1-1.2,0.5-0.9c6.6,4,12.1,9.6,16.5,16
								c0.3-2.1-0.1-4.3-1.2-6.2c-0.3-0.6,0.5-1.1,0.8-0.5c1.3,2.4,1.8,5.2,1.2,7.9c0.4,0.7,0.9,1.3,1.3,2c2.6,4.3,4.7,8.9,6.4,13.7
								c0.5-2.4,0.5-4.9,0.2-7.4c-0.1-0.6,0.9-0.7,1,0c0.4,2.9,0.3,5.9-0.4,8.7c0,0.2-0.1,0.3-0.2,0.3c1.4,4.1,2.5,8.4,3.3,12.7
								c0,0,0,0.1,0,0.1c0.3-1.9,0.4-3.7,0.2-5.6c-0.1-0.6,0.9-0.7,1,0c0.2,2.3,0.1,4.6-0.4,6.9c-0.1,0.3-0.3,0.4-0.5,0.4
								c0.9,5.3,1.5,10.7,1.8,16.1c0,0.6-1,0.7-1,0c-0.2-3.2-0.5-6.5-0.9-9.7c-0.1,0-0.1,0-0.2-0.1c-2-1.7-3.9-3.7-5.4-6
								c-0.4-0.5,0.5-1.1,0.8-0.5c1.3,1.9,2.8,3.6,4.5,5.1c-0.6-4.1-1.3-8.2-2.3-12.2c-0.1,0-0.1,0-0.2-0.1
								c-3.4-1.9-6.3-4.5-8.7-7.5c-0.4-0.5,0.4-1,0.8-0.5c2.1,2.7,4.7,5,7.6,6.8c-0.5-2-1.1-4-1.8-6c-1-3-2.2-6-3.6-8.9
								c-0.1,0.1-0.2,0.2-0.4,0.1c-3.2-0.4-6.2-1.5-9-3c-0.6-0.3-0.1-1.2,0.5-0.9c2.7,1.4,5.5,2.4,8.5,2.8
								c-2.3-4.6-5.1-8.9-8.4-12.8C469.3,159,469.2,159.1,469.1,159z"/>
						</g>
						<g>
							<g>
								<path class="st2" d="M467.1,115.9c1.2-1.5,3.5-1.5,5.4-1.1c9.2,2.1,16.1,9.7,20.9,17.8c7.1,12.2,10.7,26.2,11.7,40.3
									c1,14.1-0.4,28.2-2.7,42.1l-10.8,1.3c1.2-13.6,1.4-27.5-2.2-40.6c-5.2-19.2-18.2-35.7-22.7-55.1
									C466.3,119,466.1,117.2,467.1,115.9z"/>
							</g>
							<path class="st2" d="M488.3,142.4c-5.4-1.6-10.3-4.6-14.1-8.7c-0.6-0.6,0.3-1.6,0.8-1c3.6,3.8,8.1,6.6,13,8.2
								c-0.1-0.1-0.2-0.3-0.2-0.4c-3.2-5.6-7.2-10.8-11.8-15.2c-0.6-0.6,0.2-1.6,0.8-1c7.3,6.9,12.7,15.5,16.6,24.7
								c0.9-2.6,1-5.5,0.2-8.1c-0.2-0.8,1-1.2,1.2-0.4c1,3.4,0.8,7.1-0.7,10.3c0.4,1,0.7,1.9,1.1,2.9c2.1,6.2,3.5,12.6,4.4,19.1
								c1.3-3,2-6.1,2.2-9.4c0-0.8,1.3-0.6,1.3,0.2c-0.2,3.8-1.2,7.5-2.9,11c-0.1,0.2-0.2,0.3-0.4,0.3c0.6,5.6,0.8,11.3,0.7,16.9
								c0,0,0,0.1,0,0.1c0.9-2.3,1.6-4.6,1.8-7.1c0.1-0.8,1.4-0.6,1.3,0.2c-0.3,3-1.2,5.9-2.4,8.6c-0.2,0.3-0.5,0.4-0.7,0.3
								c-0.3,7-1,14-2.1,20.9c-0.1,0.8-1.4,0.6-1.3-0.2c0.6-4.2,1.1-8.3,1.5-12.5c-0.1,0-0.1-0.1-0.2-0.2c-2.1-2.8-3.8-5.8-5.1-9
								c-0.3-0.8,0.9-1.2,1.2-0.4c1.1,2.7,2.6,5.3,4.3,7.8c0.4-5.4,0.6-10.7,0.5-16.1c-0.1,0-0.1-0.1-0.2-0.1
								c-3.7-3.4-6.7-7.4-8.9-11.9c-0.4-0.7,0.9-1.2,1.2-0.4c1.9,4,4.6,7.6,7.8,10.6c-0.1-2.7-0.3-5.4-0.6-8
								c-0.5-4.1-1.2-8.2-2.2-12.2c-0.2,0.1-0.3,0.1-0.6,0.1c-3.9-1.4-7.5-3.6-10.6-6.3c-0.6-0.5,0.2-1.5,0.8-1
								c3,2.6,6.3,4.6,10,5.9c-1.7-6.4-4-12.7-7.2-18.6C488.6,142.4,488.5,142.4,488.3,142.4z"/>
						</g>
						<g>
							<g>
								<path class="st2" d="M546.8,115.7c-1.1-1.6-3.4-1.8-5.3-1.5c-9.3,1.4-16.8,8.4-22.2,16.2c-8,11.6-12.7,25.3-14.8,39.3
									c-2.1,13.9-1.8,28.2-0.6,42.2l10.7,2.1c-0.2-13.6,0.7-27.5,5.3-40.3c6.7-18.8,20.9-34.2,26.8-53.2
									C547.3,118.9,547.7,117,546.8,115.7z"/>
							</g>
							<path class="st2" d="M523.6,140.5c5.5-1.2,10.6-3.8,14.8-7.6c0.6-0.6-0.1-1.6-0.7-1c-3.9,3.5-8.5,6-13.6,7.2
								c0.1-0.1,0.2-0.3,0.3-0.4c3.6-5.3,8-10.2,13-14.3c0.6-0.5-0.1-1.6-0.7-1c-7.8,6.4-13.9,14.5-18.4,23.4
								c-0.7-2.7-0.6-5.5,0.4-8.1c0.3-0.8-0.9-1.3-1.2-0.5c-1.3,3.3-1.3,7-0.1,10.3c-0.4,0.9-0.9,1.9-1.3,2.8
								c-2.6,6-4.5,12.3-5.8,18.7c-1-3.1-1.6-6.3-1.5-9.5c0-0.8-1.3-0.7-1.3,0.1c-0.1,3.8,0.6,7.6,2,11.2c0.1,0.2,0.2,0.3,0.4,0.4
								c-1,5.6-1.7,11.2-1.9,16.8c0,0,0,0.1,0,0.1c-0.8-2.3-1.2-4.7-1.3-7.2c0-0.8-1.3-0.7-1.3,0.1c0.1,3,0.7,6,1.8,8.8
								c0.1,0.3,0.4,0.4,0.7,0.4c-0.2,7,0,14,0.5,21c0.1,0.8,1.3,0.7,1.3-0.1c-0.3-4.2-0.5-8.4-0.6-12.6c0.1,0,0.1-0.1,0.2-0.1
								c2.3-2.6,4.3-5.5,5.8-8.6c0.4-0.7-0.8-1.3-1.2-0.5c-1.3,2.7-3,5.1-4.9,7.4c0-5.4,0.2-10.7,0.8-16.1c0.1,0,0.1,0,0.2-0.1
								c4-3.1,7.3-6.9,9.8-11.2c0.4-0.7-0.8-1.2-1.2-0.5c-2.2,3.8-5.2,7.2-8.6,10c0.3-2.7,0.7-5.3,1.2-7.9c0.8-4.1,1.8-8.1,3.1-12.1
								c0.1,0.1,0.3,0.2,0.6,0.1c4-1.1,7.7-3,11-5.4c0.7-0.5-0.1-1.5-0.7-1c-3.1,2.3-6.7,4.1-10.4,5.2c2.1-6.3,5-12.4,8.5-18
								C523.2,140.5,523.4,140.5,523.6,140.5z"/>
						</g>
					</g>
					<g>
						<path class="st2" d="M526.3,200.2h-44.8v29.8c0,6.5,5.3,11.8,11.8,11.8h21.3c6.5,0,11.8-5.3,11.8-11.8V200.2z"/>
						<path class="st2" d="M525.6,206.2h-45.3c-2,0-3.6-1.6-3.6-3.6l0,0c0-2,1.6-3.6,3.6-3.6h45.3c2,0,3.6,1.6,3.6,3.6l0,0
							C529.2,204.6,527.5,206.2,525.6,206.2z"/>
					</g>
				</g>
			</g>
			<g>
				<g>
					<g>
						<path class="st5" d="M156.2,334.8c-2.2,3.3-4.4,6.6-5.3,10.4c-2.2,9.7,3.1,19.9,11.1,25.8c8,5.9,18.2,7.9,28,8.4
							c9,0.4,19.2-0.9,24.6-8.1c5.6-7.4,3.7-17.9,0.8-26.7s-6.4-18.3-3.4-27.1c3.4-10,14.7-17.3,14.1-27.8
							c-0.6-10.4-12.2-16.1-17.7-24.9c-3.6-5.8-4.5-13-5-19.8c-0.5-6.9-0.7-13.9-3.4-20.3c-2.7-6.4-8.4-12-15.3-12.2
							c-6.6-0.2-12.4,4.3-16.7,9.3c-17,19.7-20.3,48.5-13.7,73.6c2.2,8.3,7.7,18.8,7,27.5C161.2,327.2,158.7,331,156.2,334.8z"/>
					</g>
					<path class="st6" d="M188.7,324.1c6-6,12-12,18-18c1.9-1.9-1-4.7-2.9-2.9c-5.3,5.3-10.6,10.6-15.9,15.9v-21.2
						c0-2.6-4.1-2.6-4.1,0v61.8l-6.9-6.9c-0.7-0.7-2.1-0.8-2.9,0s-0.8,2.1,0,2.9l9,9c0.2,0.2,0.5,0.4,0.7,0.5v44.1
						c0,2.6,4.1,2.6,4.1,0v-62.5c0.3-0.1,0.5-0.2,0.7-0.5l8.1-8.1c0.7-0.7,0.8-2.1,0-2.9c-0.8-0.7-2.1-0.8-2.9,0c-2,2-4,4-6,6v-16.6
						C188.2,324.5,188.5,324.3,188.7,324.1z"/>
				</g>
				<g>
					<path class="st7" d="M203.1,393.3h-35.5l4.2,25.8c0.7,4.1,4.1,7.1,7.7,7.1h11.8c3.6,0,7-3,7.7-7.1L203.1,393.3z"/>
					<path class="st6" d="M204.1,400.3h-37.3c-1.8,0-3.2-1.4-3.2-3.2v-2.3c0-1.8,1.4-3.2,3.2-3.2h37.3c1.8,0,3.2,1.4,3.2,3.2v2.3
						C207.3,398.9,205.9,400.3,204.1,400.3z"/>
				</g>
			</g>
			<g>
				<path class="st8" d="M444.2,307.8c-23.1-14.2-24.6-11.2-40.6-20.9c-31.4-19-33-122.2-108.9-120
					c-79.1,2.3-104.1,234.9,23.5,249.2c22.5,2.5,57.2,7.5,96.4-6.3C474,389,471,324.2,444.2,307.8z"/>
				<path class="st9" d="M294.9,166.9c73.8-2,77.2,96.1,106.5,118.4c4.6,11.8,7.1,19.5,7.1,19.5s-84.1,21.7-99.7,26.2
					c-15.6,4.5-30.2,10.2-39.6,5.3C240.4,321.2,240.4,193,294.9,166.9z"/>
				<path class="st9" d="M251.3,197.5c-29.1,69.5-12.1,198,82.3,204.2c22.6,1.5,57.5,4.9,96-10.7c11.7-4.7,20.8-11.1,27.6-18.4
					c-6.7,15.4-20.2,29.5-42.6,37.4c-39.2,13.8-73.9,8.8-96.4,6.3C218.9,405,212.1,261.5,251.3,197.5z"/>
				<path class="st10" d="M395.6,265.5c0,0,7.5,1.1,14.1,3.4c1.8,0.6,7,3.3,6.4,4.4c-0.6,1-4-1.8-5.5-2.2c-1.8-0.5-3.3-1-3.6-0.8
					s2.4,0.9,3.9,1.9c1.5,0.9,5.6,3.5,4.6,4.6c-1,1.1-5.5-2.7-6.7-3.1c-1.9-0.7-4-1.8-4.7-1.5c-0.8,0.3,2.8,1.5,4,2.4
					c1.3,0.9,5.8,4.5,4.7,5.4c-1.2,0.9-5-3.1-6.6-4c-1.7-1-7.6-3.2-7.7-2.5c-0.1,0.7,0.1,1.8,1.3,2.5c1.2,0.7,4.5,2.3,3.8,3.1
					c-0.6,0.7-5.1-1.2-6.7-2.3c-3.1-2-4.3-5-4.3-5l-8.2,0.2l-1.5-7.5L395.6,265.5z"/>
				<path class="st11" d="M307.8,180.7c-3.3-0.8-22.7-39.8-11.2-47.3c5.9-3.8,13.4,13.4,13.4,13.4S315.4,180.5,307.8,180.7z"/>
				<path class="st12" d="M296.6,133.5c-10.9,7.1,1.8,45.3,10.6,46.9c-0.5-2.4-0.7-5.4-0.8-9.7c0.1-2.4,0.2-4.6,0.4-6.7l0.1,3.5
					l2.2,0.4c0,0-0.2-16.4,3.3-25.6c-1.9,1.5-12,8.6-16.9,0.6C292.2,137.7,296.6,133.5,296.6,133.5z"/>
				<path class="st13" d="M351.1,208.3c6.3,3.1,13,35.8,17.5,53.9c0,0,7.3,0.3,23.4,2.5l-1.4,7.3c0,0-23.6,12.8-37.5,8.6
					C339.2,276.4,341.4,203.6,351.1,208.3z"/>
				<path class="st14" d="M371.3,289.5c0,0-19.8-1.1-38.1,3.8c-20.8,5.5-37.1,15.6-37.1,15.6c-12-21.9-17.3-82.5-17.1-98
					c14.9-10.3,58-13.3,72.1-2.5c-0.4-0.9,5.4,12.3,1.7,30.2c-3.5,16.8-7.4,33.8,2.6,43C360.7,285.9,371.3,289.5,371.3,289.5z"/>
				<path class="st15" d="M282.7,254.9c1.3-8.1,3.1-13.5,3.1-13.5c3.7,9.7,12.3,20.5,39.8,17.5c18.2-2,24.2-10.3,26.2-15.7
					c-3.1,15.2-5.5,29.9,3.6,38.2c1.3,1.1,3,2.1,4.7,3.1c0.6,1.7,1.2,3.3,1.8,4.8c-7.5,0.2-18.3,1-28.8,3.8
					c-19.8,5.2-35.6,14.8-35.6,14.8c0,0,0,0,0,0c-0.5,0.3-0.8,0.5-1,0.6c0,0,0,0,0,0c-0.2,0.1-0.4,0.2-0.4,0.2
					C289,295.8,284.7,269.7,282.7,254.9z"/>
				<path class="st16" d="M445.6,425.4c0,0,3.6,4.3,10.5,6.9c6.9,2.6,10.8,2,10.7,3.7c-0.1,1.7-24.9,0.9-25.1-1.2
					c-0.2-2,0.6-4.9-0.2-9.5C440.8,420.8,445.6,425.4,445.6,425.4z"/>
				<path class="st16" d="M382.4,425.4c0,0,3.6,4.3,10.5,6.9c6.9,2.6,10.8,2,10.7,3.7c-0.1,1.7-24.9,0.9-25.1-1.2
					c-0.2-2,0.6-4.9-0.2-9.5C377.6,420.8,382.4,425.4,382.4,425.4z"/>
				<path class="st17" d="M356.3,290.7c-15.1,5-61,44.8-34,42.8c48.5-3.6,106.2-25.4,106.2-25.4s-2.9-20.4-10.5-25.7
					C411.5,277.9,371.3,285.7,356.3,290.7z"/>
				<path class="st18" d="M363.1,290.9l12.1,12.4c0,0,33.3-4,34.8-1.5c1.5,2.5-0.4,27,1.9,37.9c2,9.5,26.9,73,31.6,86.6h-4.7
					c0,0-33.5-72.7-35.9-90.2c-1.3-9.5-2-11.5-1.8-19.1c0,0-56.4,17.3-83.4,16.5C311.7,333.3,363.1,290.9,363.1,290.9z"/>
				<path class="st19" d="M296.1,308.9c1.4,5.1,3.3,10.1,5.9,13.5l90.4-14.3c0,0,3.6-15.9-3.3-22.2
					C380.9,278.4,321.7,291.9,296.1,308.9z"/>
				<path class="st17" d="M360.8,333c0.3-9.5-0.3-8,1.6-14.3c0,0-38.8,21.8-53.3,12.6c-8-5.1-11.6-17.3-13-22.4l21.7-9.8
					c0,0,2.1,10.2,6.3,12.5c4.1,2.3,50.6-12.2,52.4-10.4c1.8,1.8-5.9,19.9-7.3,32.9c-1.4,13,11.2,92.2,11.2,92.2h0h-5
					C375.3,426.3,360.3,350.4,360.8,333z"/>
				<path class="st8" d="M425.6,315.6c0,0-73.5-3.1-139.5,23.2C286.2,338.8,400.3,369.8,425.6,315.6z"/>
				<path class="st9" d="M423.2,315.6c1.6,8.7,4.4,23.6,7.5,40.2c1.8,16.5,3,31.2,3.6,44.2c-3.4,2.4-7.2,4.6-11.4,6.5
					c-10.1-22.9-25.1-58.1-26.6-69.6c-1-7-1.1-14.4-1-20.6C408.9,315.4,418.9,315.5,423.2,315.6z"/>
				<path class="st9" d="M381,417.7c-4.8,0.6-9.4,1-14,1.2c-3.8-20-13.3-71.3-13-85.2c0.1-4.6,0.7-9.1,1.5-13.2
					c10.7-1.7,20.8-2.8,29.8-3.6C384.8,336.1,383,384.8,381,417.7z"/>
				<path class="st17" d="M428.3,306.6c0,0,14.9,79.5,22.3,119.7h-11.8c0,0-33.5-72.7-35.9-90.2c-2.4-17.5,0-36.7,0-36.7
					L428.3,306.6z"/>
				<path class="st19" d="M392.4,308.1c0,0-2.5,78.1-5.3,118.2h-11.8c0,0-15-75.9-14.5-93.3c0.5-17.5,7.5-33.5,7.5-33.5
					C377.3,299,385.3,302.1,392.4,308.1z"/>
				<path class="st17" d="M360.8,333C360.8,333,360.8,332.9,360.8,333c-0.9-10.6,5.5-30.3,5.5-30.3s9-2.6,10.1-1.6
					c1.1,1.1-6.1,21.4-7.3,32.9c-1.4,13,11.2,92.2,11.2,92.2h0h-5c0,0-0.6-3.7-1.6-9.6C370.8,399.2,360.4,346.1,360.8,333z"/>
				<path class="st18" d="M402,301.1c0,0,6.4-0.7,7.6,0.3c1.2,1,0,27.4,2.3,38.4c2,9.5,26.9,73,31.6,86.6h-4.7
					c-6.1-14.3-33.8-75-35.9-90.2C401.4,325,399.6,309.9,402,301.1z"/>
				<path class="st18" d="M341.5,290.2c0,0-23.6,5.2-45.4,18.7l1.1,3.6C297.2,312.5,318.7,297.1,341.5,290.2z"/>
				<path class="st16" d="M303.8,172.2c0,0,2,21.3-1.2,31.7l26.8-1.4c0,0-1.8-3.4-1.9-16.8C327.4,166.9,303.8,172.2,303.8,172.2z"/>
				<g>
					<path class="st10" d="M333.3,272c0,0,11.9,0.3,19,1.6c0,0,4.5,0.5,7.6,2.2c1.7,0.9,4.8,3.8,4.2,4.8c-0.6,1-2.6-1-5.5-2.4
						c-1.6-0.8-5.6-1.4-5.8-1.1c-0.2,0.3,3.3,1.3,4.8,2.3c1.2,0.9,5.1,5.3,4.2,6.1c-1.1,1.1-2.4-1-5.8-3.9c-1.2-0.9-5.4-2.1-5.6-1.8
						c-0.2,0.3,3,1.6,4,2.8c1,1.2,3.7,4.7,2.7,5.5c-1,0.8-2.7-1.9-4.6-3.6c-1-0.9-4.7-2.6-4.8-2.5c-0.1,0.1,1.4,1.2,2.1,2.5
						c0.7,1.2,1.7,4.3,0.8,4.5c-0.9,0.2-1.4-1.2-3.3-3.6c-0.6-0.7-2.9-2.4-2.9-2.4s-7.4-0.3-11.3-4.7
						C333.3,278.2,331.2,272.7,333.3,272z"/>
					<path class="st10" d="M333.3,278.2l-10.8,3.7l-1.3-9.9l12.1-0.1C333.3,272,335.7,276.4,333.3,278.2z"/>
				</g>
				<path class="st16" d="M337.1,202.9c-0.9,2.3-4.6,9-18.7,10.1c-14.4,1.2-24.6-5.5-27.4-7.5C304.4,201.5,323.2,200.3,337.1,202.9z
					"/>
				<path class="st14" d="M279.8,210.5c-15.6,4.5-18.6,86.1-5.6,88.7c17.1,3.4,44.4-13,57.2-18.8l-0.7-8.9c0,0-22.7-0.6-41.4,1.9
					C289.3,273.4,294.3,206.4,279.8,210.5z"/>
				<path class="st20" d="M291,205.5c3.6-1.1,7.7-1.9,11.9-2.6c2.8-10.7,0.9-30.8,0.9-30.8s6.4-1.4,12.6-0.1
					c4.3,4.1,8.5,9.1,11.2,14.6c0.1,7.6,0.8,11.8,1.3,13.9c-3,2.7-10.8,8.5-24.9,11.1C297.3,209.9,292.7,206.8,291,205.5z"/>
				<g id="laptop_5_">
					<polygon class="st21" points="432.1,276.4 363.3,284.5 371.4,229.4 440.2,221.2 					"/>
					
						<rect x="335.7" y="282.9" transform="matrix(0.993 -0.1185 0.1185 0.993 -31.0638 47.5169)" class="st22" width="96.7" height="4.2"/>
					<polygon class="st22" points="432.1,276.3 364.9,284.3 372.9,230.3 440.1,222.2 					"/>
					<path class="st21" d="M408.9,251.9c-0.5,2.7-3.3,5.1-6.1,5.4c-2.8,0.3-4.6-1.5-4.1-4.2c0.5-2.7,3.3-5.1,6.1-5.4
						C407.6,247.4,409.4,249.3,408.9,251.9z"/>
					<polygon class="st23" points="364.9,284.3 372.9,230.3 440.1,222.2 					"/>
					
						<rect x="335.9" y="287" transform="matrix(0.993 -0.1184 0.1184 0.993 -31.769 43.437)" class="st21" width="27.6" height="4.2"/>
					
						<rect x="371.8" y="282.8" transform="matrix(0.993 -0.1185 0.1185 0.993 -30.9543 46.8088)" class="st21" width="12.7" height="1.8"/>
					
						<rect x="416.8" y="277.5" transform="matrix(0.993 -0.1185 0.1185 0.993 -30.0206 51.9944)" class="st21" width="10.9" height="1.8"/>
					<polygon class="st24" points="373.4,230.9 440,222.9 440.1,222.2 372.9,230.3 364.9,284.3 365.5,284.3 					"/>
				</g>
				<path class="st11" d="M344.3,159.9c0,0,8.3-9.6,7.6-22.2c-0.7-12.6-59.8-31.7-52.2-1.3C299.7,136.3,327.1,171.9,344.3,159.9z"/>
				<path class="st16" d="M306.4,170.6c0.4,14,1.3,13.7,12.5,23.6c2.4,2.1,10.2,2.7,12.4,1.7c2.2-1.1,2.4-3.1,5.6-7.7
					c3.6-5.1,5.6-10.5,6.1-13.5c0.6-4,0.4-6.8,0.7-9.7c0.7-5.5,2.1-10.4,2.5-16.7c0.3-6.3-6.8-10.8-16.2-11.4
					C308.4,135.7,307.7,144.8,306.4,170.6z"/>
				<path class="st10" d="M321.5,194.2c-15.6-11.8-10.5-48.9-3.3-53.7c-13.7,1.5-12.4,14.5-11.9,33.1c0.4,10.1,1.7,13,13.2,21.7
					c2.5,1.9,10,1.9,12,0.7c0.3-0.2,0.6-0.4,0.8-0.7C329.5,196,323.6,195.8,321.5,194.2z"/>
				<path class="st11" d="M306.7,162l0.1,5.6l2.2,0.4c0,0-0.4-25.1,6.6-30.7C315.6,137.2,306.1,135.4,306.7,162z"/>
				<path class="st11" d="M308.8,139.7c0,0,2.1,4.8,12.5,1.3c22-7.3,24.9,4.9,24.9,4.9S344.1,119.5,308.8,139.7z"/>
				<g>
					<path class="st12" d="M345.3,158.6c2.2-3,7.2-11,6.6-20.9c0-0.7-0.3-1.5-0.7-2.3c-3.9-6.6-25.8,4.4-30.9,6
						c11.3-3.6,17.3-3.1,20.9-1.2C344.9,142.6,345.4,145.5,345.3,158.6z"/>
				</g>
				<g>
					<path class="st10" d="M309.5,168.7c-0.5,3.1-3.5,5.1-6.5,4.6c-3.1-0.5-5.1-3.5-4.6-6.6c0.5-3.1,3.5-5.1,6.5-4.6
						C308,162.7,310.1,165.6,309.5,168.7z"/>
					<path class="st20" d="M304.7,170.6c-1.4-0.3-2.3-1.8-2-3.2c0.3-1.4,1.7-2.3,3.1-2c-0.3-0.3-0.7-0.5-1.2-0.6
						c-1.7-0.4-3.4,0.7-3.8,2.4c-0.4,1.7,0.7,3.4,2.4,3.8c0.8,0.2,1.6,0,2.2-0.4C305.3,170.6,305,170.7,304.7,170.6z"/>
				</g>
				<path class="st12" d="M305.7,162.2c1,1.3,1.4,3.1,1.1,5.4l2.2,0.4c0,0-0.2-16.4,3.3-25.6c-0.5,0.4-4.4,2.7-6,3.6
					C305,152.4,305.7,155.7,305.7,162.2z"/>
				<path class="st11" d="M300.4,133.8c0,0-3-4.1-1.7-7.8c1.3-3.7,4.8-5.2,4.8-5.2s-9,2.7-8.2,6.7
					C296.3,132.7,300.4,133.8,300.4,133.8z"/>
				<g>
					<path class="st13" d="M266.9,247.3c-1.5,22.1,1.1,45.3,8.1,46.7c17,3.4,43.3-10.6,56.2-16.5l0.2,2.9
						c-12.8,5.9-40.1,22.2-57.2,18.8C266.9,297.8,264.7,271,266.9,247.3z"/>
				</g>
			</g>
		</g>
	</g>
</g>
</svg>
