<?xml version="1.0" encoding="utf-8"?>
<!-- Generator: Adobe Illustrator 23.0.0, SVG Export Plug-In . SVG Version: 6.00 Build 0)  -->
<svg version="1.1" id="Layer_1" xmlns="http://www.w3.org/2000/svg" xmlns:xlink="http://www.w3.org/1999/xlink" x="0px" y="0px"
	 viewBox="0 0 89 87" style="enable-background:new 0 0 89 87;" xml:space="preserve">
<style type="text/css">
	.st0{fill:none;}
	.st1{fill:#00A7FE;}
	.st2{fill:#4DCFE0;}
</style>
<g id="Group_4586" transform="translate(0 -0.236)">
	<path id="Rectangle_1017" class="st0" d="M4,0.2h81c2.2,0,4,1.8,4,4v79c0,2.2-1.8,4-4,4H4c-2.2,0-4-1.8-4-4v-79C0,2,1.8,0.2,4,0.2z
		"/>
	<g id="property" transform="translate(-7.58 0.1)">
		<path id="Path_3642" class="st1" d="M76.1,40.5L67,32.6V18.8c0-0.9-0.7-1.7-1.6-1.7c0,0,0,0-0.1,0H58c-0.9,0-1.7,0.7-1.7,1.6
			c0,0,0,0,0,0.1v4.4l-3.4-3c-0.6-0.6-1.6-0.6-2.2,0L27.2,40.5c-0.7,0.6-0.8,1.6-0.2,2.3c0,0,0,0,0,0.1c0.3,0.4,0.8,0.6,1.3,0.6
			c0.4,0,0.8-0.1,1.1-0.4l2.8-2.4v26.6c0,0.9,0.7,1.7,1.6,1.7c0,0,0,0,0.1,0h35.5c0.9,0,1.7-0.7,1.7-1.6c0,0,0,0,0-0.1V40.6l2.8,2.5
			c0.7,0.6,1.7,0.6,2.3-0.1c0,0,0,0,0-0.1C76.9,42.2,76.8,41.2,76.1,40.5z M59.7,20.5h3.9v9.2l-3.9-3.4V20.5z M67.7,65.6H35.6V37.8
			l16.3-13.9l15.9,13.9V65.6z"/>
		<path id="Path_3643" class="st2" d="M46.2,38.6v1.6h-6.1c-0.9,0-1.6,0.7-1.6,1.5c0,0,0,0,0,0v7.6c0,0.8,0.5,1.4,1.3,1.5v6.5
			c0,1.3,1,2.4,2.4,2.4c0,0,0,0,0.1,0h18.4c1.3,0,2.4-1,2.4-2.4c0,0,0,0,0-0.1v-6.5c0.8-0.1,1.3-0.8,1.3-1.5v-7.6
			c0-0.4-0.1-0.8-0.4-1.1c-0.3-0.3-0.7-0.5-1.1-0.5h-6.4v-1.6c0-1.3-1-2.4-2.4-2.4c0,0,0,0-0.1,0h-5.4
			C47.3,36.2,46.2,37.2,46.2,38.6C46.2,38.6,46.2,38.6,46.2,38.6z M52.8,49.9h-3.5v-1.2h3.5V49.9z M42.9,50.9H47V51
			c0,0.9,0.7,1.6,1.5,1.6c0,0,0,0,0,0h5.3c0.9,0,1.6-0.7,1.6-1.5c0,0,0,0,0,0v-0.1h4.4v5.8H42.9L42.9,50.9z M53.9,46.1h-5.3
			c-0.9,0-1.6,0.7-1.6,1.5c0,0,0,0,0,0v0.1h-5.4v-4.4h19.6v4.4h-5.7v-0.1C55.5,46.8,54.8,46.1,53.9,46.1
			C53.9,46.1,53.9,46.1,53.9,46.1L53.9,46.1z M53.2,40.2h-4v-0.9h4V40.2z"/>
	</g>
</g>
</svg>
