<svg xmlns="http://www.w3.org/2000/svg" width="88" height="87" viewBox="0 0 88 87">
  <g id="activity-active" transform="translate(-3984 4311)">
    <rect id="Rectangle_2120" data-name="Rectangle 2120" width="88" height="87" transform="translate(3984 -4311)" fill="#0084e6"/>
    <g id="list" transform="translate(4009.261 -4288.743)">
      <path id="Path_251" data-name="Path 251" d="M31.663,3.012H29.979V.962a.962.962,0,1,0-1.925,0V3.022H8.623V.962A.962.962,0,0,0,6.7.962V3.022H5.062A4.814,4.814,0,0,0,.25,7.834V37.582a4.814,4.814,0,0,0,4.812,4.812H31.654a4.814,4.814,0,0,0,4.812-4.812V7.825a4.812,4.812,0,0,0-4.8-4.812Zm2.887,34.56a2.9,2.9,0,0,1-2.887,2.887H5.062a2.9,2.9,0,0,1-2.887-2.887V7.824A2.9,2.9,0,0,1,5.062,4.937H6.7V6.429a.962.962,0,0,0,1.925,0V4.937H28.054V6.429a.962.962,0,1,0,1.925,0V4.937h1.684A2.9,2.9,0,0,1,34.55,7.824Zm0,0" fill="#fff" stroke="#fff" stroke-width="0.4"/>
      <path id="Path_252" data-name="Path 252" d="M63.354,209.413,59.8,212.8l-1.636-1.636a.96.96,0,0,0-1.357,1.357l2.3,2.3a.945.945,0,0,0,.683.279.932.932,0,0,0,.664-.27l4.225-4.042a.956.956,0,1,0-1.328-1.376Zm0,0" transform="translate(-50.862 -189.01)" fill="#3dc0d8" stroke="#3dc0d8" stroke-width="0.4"/>
      <path id="Path_253" data-name="Path 253" d="M197.479,230.2H186.411a.962.962,0,1,0,0,1.925h11.068a.962.962,0,1,0,0-1.925Zm0,0" transform="translate(-167.375 -208.044)" fill="#3dc0d8" stroke="#3dc0d8" stroke-width="0.4"/>
      <path id="Path_254" data-name="Path 254" d="M63.354,109.413,59.8,112.8l-1.636-1.636a.96.96,0,1,0-1.357,1.357l2.3,2.3a.945.945,0,0,0,.683.279.932.932,0,0,0,.664-.27l4.225-4.042a.956.956,0,1,0-1.328-1.376Zm0,0" transform="translate(-50.862 -98.634)" fill="#3dc0d8" stroke="#3dc0d8" stroke-width="0.4"/>
      <path id="Path_255" data-name="Path 255" d="M197.479,130.2H186.411a.962.962,0,1,0,0,1.925h11.068a.962.962,0,1,0,0-1.925Zm0,0" transform="translate(-167.375 -117.668)" fill="#3dc0d8" stroke="#3dc0d8" stroke-width="0.4"/>
      <path id="Path_256" data-name="Path 256" d="M63.354,309.414,59.8,312.8l-1.636-1.636a.96.96,0,0,0-1.357,1.357l2.3,2.3a.944.944,0,0,0,.683.279.932.932,0,0,0,.664-.27l4.225-4.042a.956.956,0,1,0-1.328-1.376Zm0,0" transform="translate(-50.862 -279.386)" fill="#3dc0d8" stroke="#3dc0d8" stroke-width="0.4"/>
      <path id="Path_257" data-name="Path 257" d="M197.479,330.2H186.411a.962.962,0,1,0,0,1.925h11.068a.962.962,0,1,0,0-1.925Zm0,0" transform="translate(-167.375 -298.42)" fill="#3dc0d8" stroke="#3dc0d8" stroke-width="0.4"/>
    </g>
  </g>
</svg>
