<svg width="40" height="40" viewBox="0 0 40 40" fill="none" xmlns="http://www.w3.org/2000/svg">
<path fill-rule="evenodd" clip-rule="evenodd" d="M10.6756 29.7231C11.1918 28.5408 12.0417 27.5346 13.121 26.8279C14.2004 26.1211 15.4625 25.7445 16.7526 25.7441H22.9936C24.2838 25.7445 25.5458 26.1211 26.6252 26.8279C27.7046 27.5346 28.5544 28.5408 29.0706 29.7231C29.1947 30.0076 29.4268 30.2311 29.7157 30.3444C30.0046 30.4578 30.3267 30.4518 30.6111 30.3276C30.8956 30.2035 31.119 29.9715 31.2324 29.6826C31.3458 29.3937 31.3397 29.0716 31.2156 28.7871C30.5175 27.187 29.3676 25.8254 27.907 24.8692C26.4463 23.913 24.7384 23.4039 22.9926 23.4041H16.7526C15.0068 23.4039 13.2989 23.913 11.8383 24.8692C10.3776 25.8254 9.22773 27.187 8.52961 28.7871C8.40549 29.0716 8.39944 29.3937 8.51281 29.6826C8.62618 29.9715 8.84966 30.2035 9.13411 30.3276C9.41855 30.4518 9.74065 30.4578 10.0296 30.3444C10.3185 30.2311 10.5505 30.0076 10.6746 29.7231H10.6756Z" fill="white"/>
<path fill-rule="evenodd" clip-rule="evenodd" d="M19.8736 7.80115C18.0991 7.80115 16.3645 8.32735 14.889 9.3132C13.4136 10.2991 12.2636 11.7003 11.5846 13.3397C10.9055 14.9791 10.7278 16.7831 11.074 18.5235C11.4202 20.2639 12.2747 21.8626 13.5295 23.1173C14.7842 24.3721 16.3829 25.2266 18.1233 25.5728C19.8637 25.9189 21.6676 25.7413 23.3071 25.0622C24.9465 24.3831 26.3477 23.2332 27.3336 21.7577C28.3194 20.2823 28.8456 18.5476 28.8456 16.7731C28.8448 14.3939 27.8993 12.1123 26.2169 10.4299C24.5345 8.74746 22.2529 7.80194 19.8736 7.80115ZM19.8736 10.1411C21.1851 10.1411 22.4671 10.53 23.5576 11.2587C24.6481 11.9873 25.498 13.0229 25.9999 14.2346C26.5017 15.4462 26.6331 16.7795 26.3772 18.0658C26.1213 19.3521 25.4898 20.5336 24.5624 21.461C23.6351 22.3883 22.4535 23.0199 21.1673 23.2757C19.881 23.5316 18.5477 23.4003 17.336 22.8984C16.1244 22.3965 15.0888 21.5466 14.3601 20.4561C13.6315 19.3657 13.2426 18.0836 13.2426 16.7721C13.2434 15.0137 13.9423 13.3276 15.1857 12.0842C16.429 10.8408 18.1152 10.1419 19.8736 10.1411Z" fill="white"/>
<path fill-rule="evenodd" clip-rule="evenodd" d="M36.4296 14.0432C37.7539 17.794 37.7639 21.8836 36.458 25.6409C35.1521 29.3982 32.6079 32.6 29.2428 34.721C25.8777 36.8421 21.8916 37.7563 17.9385 37.3137C13.9855 36.8711 10.3002 35.0979 7.48753 32.2852C4.67482 29.4725 2.9017 25.7873 2.4591 21.8342C2.01649 17.8812 2.9307 13.8951 5.05171 10.53C7.17273 7.16485 10.3746 4.62063 14.1319 3.31474C17.8892 2.00886 21.9788 2.01888 25.7296 3.34316C25.8749 3.39648 26.0294 3.42044 26.1841 3.41363C26.3387 3.40683 26.4905 3.36939 26.6306 3.30351C26.7707 3.23762 26.8963 3.14459 27.0002 3.0298C27.104 2.91501 27.1841 2.78075 27.2357 2.63479C27.2873 2.48884 27.3094 2.33409 27.3008 2.17952C27.2922 2.02495 27.253 1.87363 27.1854 1.73433C27.1179 1.59503 27.0234 1.47052 26.9074 1.36801C26.7914 1.2655 26.6562 1.18704 26.5096 1.13716C22.2582 -0.366001 17.6221 -0.379307 13.3622 1.09942C9.10221 2.57815 5.47146 5.46107 3.06577 9.27506C0.660077 13.089 -0.377647 17.6075 0.122901 22.089C0.623448 26.5704 2.63253 30.7486 5.82043 33.9378C9.00834 37.127 13.1857 39.1378 17.6669 39.6402C22.1481 40.1426 26.6671 39.1068 30.482 36.7026C34.297 34.2985 37.1814 30.669 38.6619 26.4096C40.1424 22.1503 40.131 17.5142 38.6296 13.2622C38.5235 12.9731 38.3078 12.7375 38.0292 12.6064C37.7505 12.4754 37.4315 12.4595 37.1412 12.5621C36.8509 12.6648 36.6128 12.8777 36.4784 13.1548C36.3441 13.4318 36.3244 13.7507 36.4236 14.0422L36.4296 14.0432Z" fill="white"/>
<path fill-rule="evenodd" clip-rule="evenodd" d="M29.2346 7.80115H37.0346C37.3449 7.80115 37.6425 7.67788 37.8619 7.45847C38.0813 7.23905 38.2046 6.94145 38.2046 6.63115C38.2046 6.32085 38.0813 6.02325 37.8619 5.80384C37.6425 5.58442 37.3449 5.46115 37.0346 5.46115H29.2346C28.9243 5.46115 28.6267 5.58442 28.4073 5.80384C28.1878 6.02325 28.0646 6.32085 28.0646 6.63115C28.0646 6.94145 28.1878 7.23905 28.4073 7.45847C28.6267 7.67788 28.9243 7.80115 29.2346 7.80115Z" fill="white"/>
<path fill-rule="evenodd" clip-rule="evenodd" d="M31.9656 2.73015V10.5302C31.9656 10.8405 32.0888 11.138 32.3083 11.3575C32.5277 11.5769 32.8253 11.7002 33.1356 11.7002C33.4459 11.7002 33.7435 11.5769 33.9629 11.3575C34.1823 11.138 34.3056 10.8405 34.3056 10.5302V2.73015C34.3056 2.41985 34.1823 2.12225 33.9629 1.90284C33.7435 1.68342 33.4459 1.56015 33.1356 1.56015C32.8253 1.56015 32.5277 1.68342 32.3083 1.90284C32.0888 2.12225 31.9656 2.41985 31.9656 2.73015Z" fill="white"/>
</svg>
