<svg width="39" height="39" viewBox="0 0 39 39" fill="none" xmlns="http://www.w3.org/2000/svg">
<path fill-rule="evenodd" clip-rule="evenodd" d="M10.4043 28.9762C10.9076 27.8234 11.7362 26.8425 12.7886 26.1535C13.841 25.4645 15.0715 25.0974 16.3293 25.0972H22.4133C23.6712 25.0974 24.9017 25.4645 25.9541 26.1535C27.0065 26.8425 27.8351 27.8234 28.3383 28.9762C28.4629 29.2481 28.6892 29.4603 28.9686 29.5669C29.248 29.6736 29.5581 29.6663 29.8322 29.5467C30.1063 29.427 30.3224 29.2045 30.4341 28.9271C30.5458 28.6496 30.5441 28.3394 30.4293 28.0632C29.7488 26.5034 28.6279 25.176 27.204 24.2438C25.7801 23.3116 24.1152 22.8151 22.4133 22.8152H16.3293C14.6271 22.8154 12.962 23.3123 11.5381 24.245C10.1142 25.1778 8.99343 26.5058 8.31333 28.0662C8.19859 28.3424 8.19687 28.6526 8.30855 28.9301C8.42022 29.2075 8.63636 29.43 8.91044 29.5497C9.18452 29.6693 9.49463 29.6766 9.77403 29.5699C10.0534 29.4633 10.2798 29.2511 10.4043 28.9792V28.9762Z" fill="#41BC75"/>
<path fill-rule="evenodd" clip-rule="evenodd" d="M19.3743 7.60523C17.6445 7.60443 15.9534 8.11661 14.5146 9.07697C13.0759 10.0373 11.9543 11.4028 11.2916 13.0006C10.6289 14.5984 10.4549 16.3568 10.7916 18.0536C11.1283 19.7503 11.9606 21.309 13.1831 22.5328C14.4057 23.7565 15.9637 24.5901 17.6601 24.9284C19.3566 25.2666 21.1152 25.0942 22.7136 24.433C24.312 23.7718 25.6785 22.6514 26.6401 21.2136C27.6018 19.7757 28.1155 18.085 28.1163 16.3552C28.1166 14.0359 27.1959 11.8113 25.5566 10.1706C23.9174 8.5298 21.6937 7.60708 19.3743 7.60523ZM19.3743 9.88723C20.6527 9.88782 21.9023 10.2674 22.965 10.978C24.0277 11.6886 24.8558 12.6984 25.3448 13.8796C25.8337 15.0608 25.9615 16.3604 25.712 17.6142C25.4624 18.868 24.8467 20.0197 23.9428 20.9237C23.0388 21.8276 21.8871 22.4433 20.6333 22.6929C19.3795 22.9424 18.0799 22.8146 16.8987 22.3257C15.7175 21.8367 14.7077 21.0086 13.9971 19.9459C13.2865 18.8832 12.9069 17.6336 12.9063 16.3552C12.9062 15.5058 13.0734 14.6647 13.3984 13.8799C13.7234 13.0951 14.1998 12.382 14.8005 11.7814C15.4011 11.1807 16.1142 10.7043 16.899 10.3793C17.6838 10.0543 18.5249 9.88709 19.3743 9.88723Z" fill="#41BC75"/>
<path fill-rule="evenodd" clip-rule="evenodd" d="M35.5083 13.6902C36.7991 17.347 36.8087 21.3339 35.5354 24.9968C34.2621 28.6597 31.7817 31.781 28.501 33.8487C25.2203 35.9163 21.3343 36.8075 17.4805 36.3759C13.6267 35.9444 10.034 34.2157 7.29192 31.4737C4.54984 28.7316 2.82121 25.1389 2.38966 21.2851C1.95811 17.4313 2.84927 13.5453 4.91692 10.2646C6.98457 6.98391 10.1059 4.50344 13.7688 3.23017C17.4317 1.9569 21.4186 1.96644 25.0753 3.25723C25.2173 3.31027 25.3684 3.3345 25.5198 3.32852C25.6712 3.32253 25.8199 3.28645 25.9572 3.22238C26.0945 3.15831 26.2177 3.06753 26.3195 2.95535C26.4214 2.84316 26.4998 2.71181 26.5504 2.56896C26.6009 2.42612 26.6225 2.27464 26.6139 2.12336C26.6052 1.97208 26.5665 1.82404 26.5001 1.68788C26.4336 1.55171 26.3407 1.43015 26.2267 1.33029C26.1128 1.23042 25.9801 1.15425 25.8363 1.10623C21.6916 -0.357522 17.1725 -0.368974 13.0204 1.07375C8.86836 2.51648 5.33 5.32769 2.98596 9.0461C0.641916 12.7645 -0.368585 17.1693 0.120269 21.5376C0.609123 25.9059 2.56829 29.9783 5.67631 33.0866C8.78432 36.1948 12.8566 38.1544 17.2248 38.6436C21.5931 39.1328 25.9979 38.1227 29.7165 35.7789C33.4351 33.4352 36.2467 29.8971 37.6897 25.7452C39.1328 21.5932 39.1217 17.0741 37.6583 12.9292C37.5536 12.649 37.3431 12.4211 37.072 12.2946C36.8009 12.1681 36.491 12.1532 36.209 12.2529C35.9269 12.3527 35.6954 12.5592 35.5642 12.8281C35.4329 13.0969 35.4135 13.4065 35.5083 13.6902Z" fill="#41BC75"/>
<path fill-rule="evenodd" clip-rule="evenodd" d="M27.6914 8.03125L30.7334 11.0732C30.8392 11.1792 30.9648 11.2632 31.1031 11.3206C31.2414 11.3779 31.3896 11.4075 31.5394 11.4075C31.6891 11.4075 31.8373 11.3779 31.9756 11.3206C32.1139 11.2632 32.2396 11.1792 32.3454 11.0732L38.4294 4.99224C38.6376 4.77734 38.7529 4.4892 38.7505 4.19C38.7481 3.89079 38.6282 3.60452 38.4167 3.39295C38.2051 3.18138 37.9188 3.06146 37.6196 3.05909C37.3204 3.05671 37.0323 3.17206 36.8174 3.38024L31.5394 8.65725L29.3064 6.41925C29.0915 6.21106 28.8033 6.09571 28.5041 6.09809C28.2049 6.10046 27.9186 6.22038 27.7071 6.43195C27.4955 6.64352 27.3756 6.9298 27.3732 7.229C27.3708 7.5282 27.4862 7.81634 27.6944 8.03125H27.6914Z" fill="#41BC75"/>
</svg>
