<svg xmlns="http://www.w3.org/2000/svg" width="86" height="87" viewBox="0 0 86 87">
  <g id="employee-manager-inactive" transform="translate(0 -77)">
    <rect id="Rectangle_1015" data-name="Rectangle 1015" width="86" height="87" transform="translate(0 77)" fill="rgba(0,0,0,0)"/>
    <g id="employees" transform="translate(14 62.936)">
      <g id="Group_160304" data-name="Group 160304" transform="translate(31.515 69.233)">
        <g id="Group_160303" data-name="Group 160303">
          <path id="Path_5676" data-name="Path 5676" d="M283.49,361.686h-3.165a.846.846,0,1,0,0,1.691h3.165a.846.846,0,0,0,0-1.691Z" transform="translate(-279.479 -361.686)" fill="#4dcfe0"/>
        </g>
      </g>
      <g id="Group_160306" data-name="Group 160306" transform="translate(24.891 32.063)">
        <g id="Group_160305" data-name="Group 160305" transform="translate(0 0)">
          <path id="Path_5677" data-name="Path 5677" d="M249.994,60.181,245.388,58.4l-2.348-2.348a.842.842,0,0,0-.544-.245V53.943a8.722,8.722,0,0,0,2.212-4.358,2.42,2.42,0,0,0,.593-.047,2.5,2.5,0,0,0,1.942-2.482v-.617a2.535,2.535,0,0,0-.745-1.8c.747-4.062.132-7.372-1.787-9.587-1.856-2.143-4.846-3.167-8.646-2.962a11.328,11.328,0,0,0-6.5,2.4,4.456,4.456,0,0,0-1.74.591,4.5,4.5,0,0,0-2.059,4.187,21.119,21.119,0,0,0,.586,4.913,2.507,2.507,0,0,0-1.378,2.27v.607a2.5,2.5,0,0,0,1.942,2.482,2.415,2.415,0,0,0,.593.047,8.723,8.723,0,0,0,2.212,4.358v1.868a.842.842,0,0,0-.544.245L226.836,58.4l-4.605,1.776a5.6,5.6,0,0,0-1.131.592.846.846,0,1,0,.951,1.4,3.913,3.913,0,0,1,.789-.413l4.274-1.649,3.268,4.9a2.419,2.419,0,0,0,1.781,1.069c.081.008.162.012.242.012a2.414,2.414,0,0,0,1.19-.315l-.7,15.907a.846.846,0,0,0,.808.882h.038a.846.846,0,0,0,.844-.809L235.234,67h1.756l.651,14.765a.846.846,0,0,0,.844.809h.038a.846.846,0,0,0,.808-.882l-.7-15.907a2.414,2.414,0,0,0,1.19.315c.08,0,.161,0,.242-.012a2.42,2.42,0,0,0,1.781-1.069l3.268-4.9,4.274,1.649a3.893,3.893,0,0,1,1.521,1.06l-2.924,2.924a5.556,5.556,0,0,0-1.638,3.955V81.723a.846.846,0,1,0,1.691,0V69.7a3.876,3.876,0,0,1,1.143-2.759l2.566-2.566a3.9,3.9,0,0,1,.135,1.182l-.655,16.134a.846.846,0,0,0,.811.879h.035a.846.846,0,0,0,.844-.811l.655-16.134A5.591,5.591,0,0,0,249.994,60.181ZM229.171,49.237a1.646,1.646,0,0,0-1.713-1.342.725.725,0,0,1-.2-.013.82.82,0,0,1-.59-.825v-.607a.8.8,0,0,1,.6-.8.735.735,0,0,1,.724.277,1.18,1.18,0,0,0,1.621.254A6.14,6.14,0,0,0,231,44.82a.846.846,0,0,0-1.357-1.009,4.489,4.489,0,0,1-.659.712,2.419,2.419,0,0,0-.917-.49,19.452,19.452,0,0,1-.6-4.767,2.963,2.963,0,0,1,1.187-2.7,2.745,2.745,0,0,1,1.264-.406.854.854,0,0,0,.584-.234,9.527,9.527,0,0,1,5.66-2.141c3.259-.176,5.775.647,7.276,2.38s2.016,4.428,1.47,7.785a3.666,3.666,0,0,0-.721.05l-.795-1.908a.847.847,0,0,0-.995-.493c-.079.021-7.889,2-11.163-2.077a.846.846,0,1,0-1.319,1.059c3.344,4.163,9.98,3.258,12.188,2.816l.614,1.476a1.39,1.39,0,0,0,1.606.824,1.825,1.825,0,0,1,.633-.046.8.8,0,0,1,.6.794v.617a.82.82,0,0,1-.59.825.717.717,0,0,1-.2.013,1.647,1.647,0,0,0-1.713,1.342,7.058,7.058,0,0,1-13.882,0Zm3.752,14.95a.737.737,0,0,1-1.134-.112L228.5,59.136l1.324-1.324,5.054,4.422Zm2.386,1.117.051-1.162.752-.752.752.752.051,1.162Zm.8-4.234-4.693-4.106V55.345a8.753,8.753,0,0,0,9.386,0v1.619Zm4.323,3a.737.737,0,0,1-1.134.112l-1.952-1.952,5.054-4.422,1.324,1.324Z" transform="translate(-220.729 -32.066)" fill="#00a7fe"/>
        </g>
      </g>
      <g id="Group_160308" data-name="Group 160308" transform="translate(0 32.063)">
        <g id="Group_160307" data-name="Group 160307" transform="translate(0 0)">
          <path id="Path_5678" data-name="Path 5678" d="M26.821,64.611l-4.13-1.8-2.257-2.257a.841.841,0,0,0-.544-.245V58.975a8.735,8.735,0,0,0,3.795-5.687,2.43,2.43,0,0,0,.667-.064,2.517,2.517,0,0,0,1.868-2.466v-.617a2.521,2.521,0,0,0-1.084-2.08,9.563,9.563,0,0,0,.293-2.343,9.861,9.861,0,0,0-4.749-8.362,5.483,5.483,0,0,0-5.592-5.295A5.483,5.483,0,0,0,9.5,37.358a9.861,9.861,0,0,0-4.749,8.362,9.563,9.563,0,0,0,.291,2.336,2.527,2.527,0,0,0-1.082,2.1v.607a2.517,2.517,0,0,0,1.868,2.466,2.425,2.425,0,0,0,.667.064,8.735,8.735,0,0,0,3.795,5.687v1.331a.841.841,0,0,0-.544.245L7.485,62.808l-4.13,1.8a5.628,5.628,0,0,0-3.35,5.363L.5,81.757a.846.846,0,0,0,.844.81h.036a.846.846,0,0,0,.809-.881L1.7,69.9a3.894,3.894,0,0,1,.536-2.13l2.22,2.664a4.7,4.7,0,0,1,1.088,3v8.281a.846.846,0,1,0,1.691,0V73.44a6.4,6.4,0,0,0-1.48-4.087l-2.36-2.832a3.834,3.834,0,0,1,.642-.36l3.6-1.571,2.543,4.128a1.637,1.637,0,0,0,2.456.387l1.612-1.375V81.721a.846.846,0,0,0,1.691,0V67.73L17.546,69.1A1.637,1.637,0,0,0,20,68.718l2.543-4.128,3.6,1.571a3.839,3.839,0,0,1,.642.36l-2.36,2.832a6.4,6.4,0,0,0-1.48,4.087v8.281a.846.846,0,0,0,1.691,0V73.44a4.7,4.7,0,0,1,1.088-3l2.22-2.664a3.894,3.894,0,0,1,.536,2.13l-.5,11.783a.846.846,0,0,0,.809.881h.036a.846.846,0,0,0,.844-.81l.5-11.783A5.629,5.629,0,0,0,26.821,64.611ZM15.088,33.754a3.875,3.875,0,0,1,3.766,2.7,10.725,10.725,0,0,0-7.532,0A3.875,3.875,0,0,1,15.088,33.754ZM8.147,52.94A1.647,1.647,0,0,0,6.434,51.6a.731.731,0,0,1-.221-.019.826.826,0,0,1-.566-.82v-.607a.8.8,0,0,1,.6-.8.735.735,0,0,1,.724.277,1.179,1.179,0,0,0,1.621.255,6.135,6.135,0,0,0,1.369-1.332.846.846,0,0,0-1.353-1.016,4.484,4.484,0,0,1-.645.694,2.423,2.423,0,0,0-1.276-.562,7.877,7.877,0,0,1-.245-1.944,8.468,8.468,0,0,1,8.649-8.254,8.468,8.468,0,0,1,8.649,8.254,7.874,7.874,0,0,1-.244,1.94,3.88,3.88,0,0,0-.658.108l-.636-.523a1.624,1.624,0,0,0-1.129-.37c-1.243.073-7.61.242-10.876-3.668a.846.846,0,0,0-1.3,1.085,12.087,12.087,0,0,0,7.022,3.875,20.7,20.7,0,0,0,5.222.4l.992.816a.844.844,0,0,0,.962.078,1.866,1.866,0,0,1,.833-.111.8.8,0,0,1,.6.794v.617a.826.826,0,0,1-.566.82.723.723,0,0,1-.221.019,1.649,1.649,0,0,0-1.713,1.342,7.058,7.058,0,0,1-13.882,0Zm3.434,14.837L9.038,63.648l1.3-1.3,3.5,3.5ZM15.088,64.7l-3.11-3.11V59.84a8.743,8.743,0,0,0,6.221,0v1.75ZM18.6,67.777l-2.262-1.93,3.5-3.5,1.3,1.3Z" transform="translate(0 -32.063)" fill="#4dcfe0"/>
        </g>
      </g>
      <g id="Group_160310" data-name="Group 160310" transform="translate(8.704 72.963)">
        <g id="Group_160309" data-name="Group 160309">
          <path id="Path_5679" data-name="Path 5679" d="M80.4,394.766H78.03a.846.846,0,0,0,0,1.691H80.4a.846.846,0,0,0,0-1.691Z" transform="translate(-77.184 -394.766)" fill="#00a7fe"/>
        </g>
      </g>
    </g>
  </g>
</svg>
