<svg xmlns="http://www.w3.org/2000/svg" width="79" height="79" viewBox="0 0 79 79">
  <g id="feedback" transform="translate(21013 -11776)">
    <rect id="Rectangle_2135" data-name="Rectangle 2135" width="79" height="79" transform="translate(-21013 11776)" fill="#fff" opacity="0"/>
    <g id="Group_1872" data-name="Group 1872" transform="translate(744.163 -296.48)">
      <g id="g1015" transform="translate(-21724.342 12098.221)">
        <path id="path1017" d="M0-35.029c0,1.409.685,2.551,1.53,2.551s1.53-1.142,1.53-2.551S2.376-37.58,1.53-37.58,0-36.438,0-35.029" transform="translate(0 37.58)" fill="#00a7fe"/>
      </g>
      <g id="g1019" transform="translate(-21724.342 12098.221)">
        <path id="path1021" d="M0-35.029c0,1.409.685,2.551,1.53,2.551s1.53-1.142,1.53-2.551S2.376-37.58,1.53-37.58,0-36.438,0-35.029Z" transform="translate(0 37.58)" fill="none" stroke="#00a7fe" stroke-miterlimit="10" stroke-width="0.333"/>
      </g>
      <g id="g1023" transform="translate(-21734.057 12098.221)">
        <path id="path1025" d="M0-35.029c0,1.409.685,2.551,1.53,2.551s1.53-1.142,1.53-2.551S2.376-37.58,1.53-37.58,0-36.438,0-35.029" transform="translate(0 37.58)" fill="#00a7fe"/>
      </g>
      <g id="g1027" transform="translate(-21734.057 12098.221)">
        <path id="path1029" d="M0-35.029c0,1.409.685,2.551,1.53,2.551s1.53-1.142,1.53-2.551S2.376-37.58,1.53-37.58,0-36.438,0-35.029Z" transform="translate(0 37.58)" fill="none" stroke="#00a7fe" stroke-miterlimit="10" stroke-width="0.333"/>
      </g>
      <g id="g1031" transform="translate(-21731.75 12105.307)">
        <path id="path1033" d="M0-25.126a5.454,5.454,0,0,1,4.081-1.83,5.454,5.454,0,0,1,4.081,1.83" transform="translate(0 26.956)" fill="none" stroke="#00a7fe" stroke-linecap="round" stroke-linejoin="round" stroke-miterlimit="10" stroke-width="2"/>
      </g>
      <g id="g1035" transform="translate(-21740.164 12089.48)">
        <path id="path1037" d="M-31.481-270.676a12.442,12.442,0,0,1-2.292-7.216,12.494,12.494,0,0,1,12.494-12.494,12.5,12.5,0,0,1,12.3,10.306" transform="translate(33.773 290.386)" fill="none" stroke="#00a7fe" stroke-linecap="round" stroke-linejoin="round" stroke-miterlimit="10" stroke-width="2"/>
      </g>
      <g id="g1039" transform="translate(-21736.072 12111.223)">
        <path id="path1041" d="M-35.657-24.981a12.546,12.546,0,0,1-2.6-1.819" transform="translate(38.253 26.8)" fill="none" stroke="#00a7fe" stroke-linecap="round" stroke-linejoin="round" stroke-miterlimit="10" stroke-width="2"/>
      </g>
      <g id="g1043" transform="translate(-21737.156 12109.403)">
        <path id="path1045" d="M-342.984-163.308q.015.3.014.6a12.5,12.5,0,0,1-12.494,12.5,12.5,12.5,0,0,1-12.5-12.5,12.5,12.5,0,0,1,12.5-12.494,12.452,12.452,0,0,1,4.5.836" transform="translate(367.959 175.2)" fill="none" stroke="#00a7fe" stroke-linecap="round" stroke-linejoin="round" stroke-miterlimit="10" stroke-width="2"/>
      </g>
      <g id="g1047" transform="translate(-21721.322 12117.903)">
        <path id="path1049" d="M0-35.16c0,1.414.688,2.56,1.536,2.56s1.536-1.146,1.536-2.56-.688-2.56-1.536-2.56S0-36.574,0-35.16" transform="translate(0 37.72)" fill="#00a7fe"/>
      </g>
      <g id="g1051" transform="translate(-21721.322 12117.903)">
        <path id="path1053" d="M0-35.16c0,1.414.688,2.56,1.536,2.56s1.536-1.146,1.536-2.56-.688-2.56-1.536-2.56S0-36.574,0-35.16Z" transform="translate(0 37.72)" fill="none" stroke="#00a7fe" stroke-miterlimit="10" stroke-width="0.333"/>
      </g>
      <g id="g1055" transform="translate(-21731.076 12117.903)">
        <path id="path1057" d="M0-35.16c0,1.414.688,2.56,1.536,2.56s1.536-1.146,1.536-2.56-.688-2.56-1.536-2.56S0-36.574,0-35.16" transform="translate(0 37.72)" fill="#00a7fe"/>
      </g>
      <g id="g1059" transform="translate(-21731.076 12117.903)">
        <path id="path1061" d="M0-35.16c0,1.414.688,2.56,1.536,2.56s1.536-1.146,1.536-2.56-.688-2.56-1.536-2.56S0-36.574,0-35.16Z" transform="translate(0 37.72)" fill="none" stroke="#00a7fe" stroke-miterlimit="10" stroke-width="0.333"/>
      </g>
      <g id="g1063" transform="translate(-21730.219 12125.543)">
        <path id="path1065" d="M0,0H11.114" fill="none" stroke="#00a7fe" stroke-linecap="round" stroke-linejoin="round" stroke-miterlimit="10" stroke-width="2"/>
      </g>
      <g id="g1067" transform="translate(-21720.174 12097.143)">
        <path id="path1069" d="M-274.666-308.769a12.473,12.473,0,0,0,4.988-9.989,12.494,12.494,0,0,0-12.494-12.494,12.494,12.494,0,0,0-12.494,12.494,12.5,12.5,0,0,0,12.494,12.5,12.428,12.428,0,0,0,5.177-1.12" transform="translate(294.666 331.253)" fill="none" stroke="#00a7fe" stroke-linecap="round" stroke-linejoin="round" stroke-miterlimit="10" stroke-width="2"/>
      </g>
      <g id="g1071" transform="translate(-21704.42 12105.806)">
        <path id="path1073" d="M0-34.315c0,1.38.671,2.5,1.5,2.5S3-32.935,3-34.315s-.671-2.5-1.5-2.5S0-35.695,0-34.315" transform="translate(0 36.813)" fill="#00a7fe"/>
      </g>
      <g id="g1075" transform="translate(-21704.42 12105.806)">
        <path id="path1077" d="M0-34.315c0,1.38.671,2.5,1.5,2.5S3-32.935,3-34.315s-.671-2.5-1.5-2.5S0-35.695,0-34.315Z" transform="translate(0 36.813)" fill="none" stroke="#00a7fe" stroke-miterlimit="10" stroke-width="0.333"/>
      </g>
      <g id="g1079" transform="translate(-21713.939 12105.806)">
        <path id="path1081" d="M0-34.315c0,1.38.671,2.5,1.5,2.5S3-32.935,3-34.315s-.671-2.5-1.5-2.5S0-35.695,0-34.315" transform="translate(0 36.813)" fill="#00a7fe"/>
      </g>
      <g id="g1083" transform="translate(-21713.939 12105.806)">
        <path id="path1085" d="M0-34.315c0,1.38.671,2.5,1.5,2.5S3-32.935,3-34.315s-.671-2.5-1.5-2.5S0-35.695,0-34.315Z" transform="translate(0 36.813)" fill="none" stroke="#00a7fe" stroke-miterlimit="10" stroke-width="0.333"/>
      </g>
      <g id="g1087" transform="translate(-21712.619 12113.285)">
        <path id="path1089" d="M-135.656,0A5.36,5.36,0,0,1-140.6,3.279,5.36,5.36,0,0,1-145.534,0" transform="translate(145.534)" fill="none" stroke="#00a7fe" stroke-linecap="round" stroke-linejoin="round" stroke-miterlimit="10" stroke-width="2"/>
      </g>
    </g>
  </g>
</svg>
