<svg width="43" height="41" viewBox="0 0 43 41" fill="none" xmlns="http://www.w3.org/2000/svg">
<path d="M13.142 18.685C12.7298 18.6982 12.3305 18.8324 11.9941 19.071C11.6577 19.3096 11.399 19.642 11.2503 20.0267C11.1016 20.4114 11.0694 20.8314 11.1579 21.2342C11.2463 21.6371 11.4514 22.005 11.7476 22.292C12.0438 22.579 12.4179 22.7725 12.8233 22.8482C13.2288 22.924 13.6475 22.8787 14.0274 22.7179C14.4072 22.5572 14.7313 22.2882 14.9592 21.9444C15.1871 21.6007 15.3088 21.1974 15.309 20.785C15.2995 20.2194 15.066 19.6806 14.6598 19.2869C14.2535 18.8932 13.7077 18.6767 13.142 18.685ZM13.142 21.527C12.9976 21.5142 12.8601 21.4597 12.7462 21.3701C12.6323 21.2805 12.5469 21.1597 12.5004 21.0224C12.454 20.8851 12.4485 20.7373 12.4845 20.5969C12.5206 20.4565 12.5968 20.3297 12.7037 20.2319C12.8106 20.134 12.9437 20.0694 13.0867 20.0459C13.2297 20.0223 13.3765 20.0409 13.5091 20.0993C13.6418 20.1577 13.7545 20.2535 13.8337 20.3749C13.9129 20.4963 13.955 20.6381 13.955 20.783C13.9451 20.9892 13.8541 21.1832 13.7018 21.3226C13.5495 21.4619 13.3483 21.5354 13.142 21.527Z" fill="#0084E6"/>
<path d="M16.811 20.781C16.811 20.9605 16.8824 21.1327 17.0093 21.2597C17.1363 21.3867 17.3085 21.458 17.488 21.458H26.515C26.6946 21.458 26.8668 21.3867 26.9938 21.2597C27.1207 21.1327 27.192 20.9605 27.192 20.781C27.192 20.6014 27.1207 20.4292 26.9938 20.3023C26.8668 20.1753 26.6946 20.104 26.515 20.104H17.492C17.4028 20.1035 17.3143 20.1206 17.2317 20.1544C17.1491 20.1882 17.074 20.2379 17.0107 20.3009C16.9475 20.3638 16.8972 20.4386 16.863 20.521C16.8287 20.6034 16.811 20.6917 16.811 20.781Z" fill="#0084E6"/>
<path d="M13.142 12.797C12.7298 12.8101 12.3305 12.9444 11.9941 13.183C11.6577 13.4216 11.399 13.754 11.2503 14.1387C11.1016 14.5234 11.0694 14.9434 11.1579 15.3462C11.2463 15.7491 11.4514 16.117 11.7476 16.404C12.0438 16.691 12.4179 16.8844 12.8233 16.9602C13.2288 17.0359 13.6475 16.9906 14.0274 16.8299C14.4072 16.6692 14.7313 16.4002 14.9592 16.0564C15.1871 15.7127 15.3088 15.3094 15.309 14.897C15.2995 14.3313 15.066 13.7926 14.6598 13.3989C14.2535 13.0052 13.7077 12.7887 13.142 12.797ZM13.142 15.64C12.9976 15.6272 12.8601 15.5726 12.7462 15.483C12.6323 15.3934 12.5469 15.2726 12.5004 15.1354C12.454 14.9981 12.4485 14.8503 12.4845 14.7099C12.5206 14.5695 12.5968 14.4427 12.7037 14.3448C12.8106 14.247 12.9437 14.1823 13.0867 14.1588C13.2297 14.1353 13.3765 14.1539 13.5091 14.2123C13.6418 14.2707 13.7545 14.3665 13.8337 14.4879C13.9129 14.6093 13.955 14.751 13.955 14.896C13.9451 15.1022 13.8541 15.2962 13.7018 15.4355C13.5495 15.5749 13.3483 15.6484 13.142 15.64Z" fill="#0084E6"/>
<path d="M13.142 24.57C12.7298 24.5832 12.3305 24.7174 11.9941 24.956C11.6577 25.1946 11.399 25.527 11.2503 25.9117C11.1016 26.2964 11.0694 26.7164 11.1579 27.1192C11.2463 27.5221 11.4514 27.89 11.7476 28.177C12.0438 28.464 12.4179 28.6575 12.8233 28.7332C13.2288 28.8089 13.6475 28.7636 14.0274 28.6029C14.4072 28.4422 14.7313 28.1732 14.9592 27.8294C15.1871 27.4857 15.3088 27.0824 15.309 26.67C15.2995 26.1044 15.066 25.5656 14.6598 25.1719C14.2535 24.7782 13.7077 24.5617 13.142 24.57ZM13.142 27.412C12.9976 27.3992 12.8601 27.3447 12.7462 27.2551C12.6323 27.1655 12.5469 27.0446 12.5004 26.9074C12.454 26.7701 12.4485 26.6223 12.4845 26.4819C12.5206 26.3415 12.5968 26.2147 12.7037 26.1168C12.8106 26.019 12.9437 25.9544 13.0867 25.9308C13.2297 25.9073 13.3765 25.9259 13.5091 25.9843C13.6418 26.0427 13.7545 26.1384 13.8337 26.2598C13.9129 26.3812 13.955 26.5231 13.955 26.668C13.9457 26.8745 13.8548 27.0688 13.7024 27.2085C13.5501 27.3481 13.3485 27.4217 13.142 27.413V27.412Z" fill="#0084E6"/>
<path d="M26.5151 26.023H17.4921C17.3125 26.023 17.1403 26.0944 17.0134 26.2213C16.8864 26.3483 16.8151 26.5205 16.8151 26.7C16.8151 26.8796 16.8864 27.0517 17.0134 27.1787C17.1403 27.3057 17.3125 27.377 17.4921 27.377H26.5191C26.6986 27.377 26.8708 27.3057 26.9978 27.1787C27.1247 27.0517 27.1961 26.8796 27.1961 26.7C27.1961 26.5205 27.1247 26.3483 26.9978 26.2213C26.8708 26.0944 26.6986 26.023 26.5191 26.023H26.5151Z" fill="#0084E6"/>
<path d="M32.678 0.712006C30.7018 0.725144 28.7766 1.34072 27.1594 2.47657C25.5422 3.61242 24.3099 5.21451 23.627 7.06901H6.822C6.63982 7.07699 6.46775 7.15496 6.34164 7.28666C6.21552 7.41837 6.14508 7.59365 6.145 7.77601L5.985 31.527H1.195C1.10671 31.5231 1.01853 31.5369 0.935592 31.5674C0.852659 31.5979 0.776635 31.6447 0.711948 31.7049C0.647262 31.7651 0.595208 31.8376 0.558819 31.9181C0.522431 31.9987 0.502436 32.0857 0.5 32.174L0.5 35.188C0.503234 36.5547 1.03252 37.8677 1.97803 38.8545C2.92354 39.8414 4.21269 40.4263 5.578 40.488V40.503H26.478V40.483C26.647 40.489 26.717 40.503 26.824 40.503H26.839C28.248 40.5009 29.5986 39.9397 30.5942 38.9426C31.5898 37.9455 32.149 36.594 32.149 35.185V19.942C32.318 19.951 32.497 19.956 32.673 19.956C35.2249 19.956 37.6723 18.9423 39.4768 17.1378C41.2813 15.3333 42.295 12.8859 42.295 10.334C42.295 7.78209 41.2813 5.3347 39.4768 3.53022C37.6723 1.72575 35.2249 0.712006 32.673 0.712006H32.678ZM5.835 39.145C4.78279 39.1434 3.77396 38.7256 3.02881 37.9827C2.28367 37.2398 1.86275 36.2322 1.858 35.18V32.88H21.489V35.169C21.4895 35.8688 21.6283 36.5615 21.8974 37.2075C22.1665 37.8534 22.5606 38.4398 23.057 38.933C23.128 39.004 23.216 39.059 23.291 39.144L5.835 39.145ZM30.8 35.181C30.8003 36.2311 30.3838 37.2384 29.6422 37.9818C28.9005 38.7252 27.8941 39.1439 26.844 39.146H26.831C25.7767 39.1442 24.7658 38.7254 24.0191 37.9811C23.2723 37.2368 22.8503 36.2273 22.845 35.173V32.173C22.8478 32.0875 22.833 32.0023 22.8015 31.9227C22.77 31.8431 22.7225 31.7708 22.6619 31.7104C22.6014 31.6499 22.529 31.6025 22.4494 31.5711C22.3698 31.5398 22.2845 31.5251 22.199 31.528H7.339L7.494 8.42201H23.25C23.1302 9.04158 23.0682 9.67096 23.065 10.302C23.0635 11.6366 23.3418 12.9566 23.882 14.177H17.482C17.3931 14.177 17.3051 14.1945 17.2229 14.2285C17.1408 14.2626 17.0662 14.3124 17.0033 14.3753C16.9404 14.4382 16.8906 14.5128 16.8565 14.5949C16.8225 14.6771 16.805 14.7651 16.805 14.854C16.805 14.9429 16.8225 15.0309 16.8565 15.1131C16.8906 15.1952 16.9404 15.2699 17.0033 15.3327C17.0662 15.3956 17.1408 15.4454 17.2229 15.4795C17.3051 15.5135 17.3931 15.531 17.482 15.531H24.612C25.3034 16.618 26.2075 17.5539 27.2698 18.2826C28.3322 19.0112 29.531 19.5175 30.794 19.771L30.8 35.181ZM32.679 18.603C31.0455 18.603 29.4487 18.1186 28.0905 17.2111C26.7324 16.3036 25.6738 15.0137 25.0487 13.5046C24.4236 11.9955 24.26 10.3348 24.5787 8.73275C24.8974 7.13067 25.684 5.65905 26.839 4.50401C27.994 3.34897 29.4657 2.56238 31.0677 2.2437C32.6698 1.92502 34.3304 2.08858 35.8396 2.71368C37.3487 3.33879 38.6386 4.39737 39.5461 5.75555C40.4536 7.11374 40.938 8.71053 40.938 10.344C40.9381 11.4287 40.7246 12.5028 40.3095 13.505C39.8944 14.5071 39.286 15.4177 38.5189 16.1846C37.7519 16.9516 36.8412 17.5599 35.839 17.9749C34.8368 18.3898 33.7637 18.6033 32.679 18.603Z" fill="#0084E6"/>
<path d="M36.5561 11.58C36.5246 12.532 36.1312 13.4361 35.4561 14.108C35.1837 14.4078 34.8531 14.6489 34.4845 14.8167C34.1159 14.9845 33.717 15.0754 33.3121 15.084C32.9603 15.1292 32.6028 15.0855 32.2723 14.9569C31.9418 14.8284 31.6488 14.619 31.4201 14.348C31.2669 14.1246 31.1683 13.8684 31.1321 13.6C31.0857 13.2553 31.0643 12.9078 31.0681 12.56V9.212H30.2521L29.6121 8.364H31.1321V6.572C31.1321 6.156 30.9454 5.948 30.5721 5.948C30.4916 5.94564 30.4118 5.96352 30.3401 6C30.265 6.03847 30.1875 6.07188 30.1081 6.1L29.7881 5.2C30.0765 5.07584 30.3861 5.00796 30.7001 5C30.9012 4.98352 31.1033 5.019 31.2868 5.10306C31.4703 5.18711 31.6291 5.31691 31.7481 5.48C32.0054 5.9662 32.1192 6.51557 32.0761 7.064V8.364H32.9561L33.6441 9.212H32.0761V13.356C32.1081 13.8893 32.4174 14.156 33.0041 14.156C33.2876 14.1521 33.5671 14.0876 33.8237 13.9669C34.0804 13.8462 34.3082 13.672 34.4921 13.456C34.9098 13.0343 35.1454 12.4656 35.1481 11.872C35.0168 11.9019 34.8827 11.918 34.7481 11.92C34.6134 11.9266 34.4788 11.9059 34.3523 11.8592C34.2258 11.8125 34.1101 11.7406 34.0121 11.648C33.9155 11.5396 33.8417 11.413 33.795 11.2756C33.7483 11.1381 33.7296 10.9928 33.7401 10.848C33.727 10.6771 33.7502 10.5054 33.8081 10.3441C33.866 10.1828 33.9573 10.0356 34.0761 9.912C34.3124 9.69931 34.6224 9.58735 34.9401 9.6C36.0174 9.6 36.5561 10.26 36.5561 11.58Z" fill="#0084E6" stroke="#0084E6" stroke-width="0.3"/>
</svg>
