<svg width="39" height="39" viewBox="0 0 39 39" fill="none" xmlns="http://www.w3.org/2000/svg">
<path d="M32.0641 28.1316L30.451 27.1651C29.9602 26.8716 29.3993 26.7162 28.8274 26.7152H26.3958C25.8987 26.7148 25.4037 26.779 24.9231 26.9063L17.6093 28.8699C17.2159 28.979 16.8544 29.181 16.5552 29.4589C16.2561 29.7368 16.028 30.0824 15.8902 30.4667L9.4569 26.9865C8.93616 26.6896 8.32666 26.588 7.73779 26.7C7.51527 26.7392 7.29949 26.8099 7.09694 26.9101C6.63961 27.1292 6.26008 27.4827 6.00913 27.9234C5.7896 28.3069 5.67404 28.7412 5.6739 29.1831C5.67056 29.6263 5.78466 30.0625 6.00458 30.4474C6.22451 30.8322 6.54242 31.1519 6.92599 31.374L18.4564 38.2724C18.957 38.5837 19.5345 38.7491 20.124 38.75H29.0471C29.4457 38.7504 29.8407 38.6752 30.2113 38.5284L32.0698 37.7949V38.75H38.4028V26.082H32.0641V28.1316ZM29.7405 37.3517C29.5187 37.439 29.2825 37.4841 29.0442 37.4845H20.1182C19.7616 37.4851 19.4119 37.3859 19.1087 37.198L7.56301 30.2843C7.37037 30.173 7.21065 30.0126 7.1001 29.8195C6.98955 29.6264 6.93211 29.4075 6.93362 29.185C6.93465 28.9628 6.99322 28.7447 7.10363 28.5518C7.22974 28.3329 7.41966 28.1576 7.64801 28.0495C7.74836 28.0004 7.85509 27.9657 7.96509 27.9463C8.04508 27.9313 8.12628 27.9236 8.20767 27.9234C8.42543 27.9228 8.63952 27.9794 8.82846 28.0877L15.8004 31.8573C15.808 31.8955 15.808 31.9337 15.8185 31.9728C15.9644 32.5107 16.2832 32.9857 16.7258 33.3245C17.1683 33.6633 17.71 33.8472 18.2673 33.8476C18.6199 33.8153 18.9692 33.753 19.3112 33.6614L25.8916 31.9003L25.5649 30.6768L19.0065 32.4303C18.72 32.4972 18.3447 32.5726 18.2683 32.5793C17.99 32.5799 17.7193 32.4888 17.498 32.3201C17.2767 32.1515 17.1171 31.9146 17.0439 31.6462C17.0235 31.5697 17.011 31.4913 17.0066 31.4122C17.0066 31.4122 17.0019 31.2585 17.0066 31.205C17.0301 30.9461 17.1319 30.7005 17.2984 30.5009C17.465 30.3013 17.6883 30.1571 17.9388 30.0876L25.2498 28.1316C25.6235 28.0314 26.0089 27.9807 26.3958 27.9807H28.8236C29.1674 27.9808 29.5048 28.0742 29.7997 28.251L32.0641 29.6062V36.4292L29.7405 37.3517ZM33.3305 27.3513H37.1307V37.4845H33.3305V27.3513Z" fill="#F39C12" stroke="#F39C12" stroke-width="0.4"/>
<path d="M26.3201 5.31184L22.923 1.91947C22.395 1.38845 21.7669 0.967465 21.0751 0.680899C20.3832 0.394332 19.6414 0.24788 18.8926 0.250023H10.9303C10.4387 0.250758 9.95395 0.365162 9.51392 0.584294L8.0947 1.2939C7.80874 1.43746 7.49082 1.50551 7.17116 1.4916L6.52744 1.46868V0.250023H0.199219V14.1824H6.53222V12.2838H7.60953L7.99155 12.5369C9.06365 13.2489 10.3117 13.6509 11.5979 13.6982V21.7838H38.1982V5.31184H26.3201ZM5.26104 12.916H1.46563V1.51643H5.26104V12.916ZM8.68874 11.4834L7.98391 11.0174H6.53222V2.73318L7.12913 2.75419C7.65814 2.77265 8.18339 2.65874 8.65723 2.42278L10.0755 1.71317C10.3397 1.5812 10.6311 1.51254 10.9265 1.51261H18.8888C19.4711 1.51096 20.048 1.62483 20.586 1.84762C21.1241 2.0704 21.6126 2.39769 22.0233 2.81054L24.5284 5.31184H19.3004L17.7656 3.78374L16.8707 4.67864L21.3442 9.14831C21.4684 9.26463 21.5679 9.40469 21.6369 9.5602C21.7059 9.7157 21.7429 9.88348 21.7458 10.0536C21.7487 10.2237 21.7174 10.3926 21.6538 10.5504C21.5902 10.7082 21.4955 10.8515 21.3754 10.972C21.2553 11.0925 21.1122 11.1876 20.9546 11.2518C20.7971 11.3159 20.6282 11.3477 20.4581 11.3454C20.288 11.343 20.1201 11.3065 19.9644 11.238C19.8087 11.1695 19.6683 11.0705 19.5516 10.9467L15.8154 7.21241L15.3723 7.59443C14.7785 8.09859 14.0279 8.38058 13.249 8.39208C12.4702 8.40358 11.7115 8.14388 11.1031 7.65747L10.7364 7.36044L9.94083 8.34129L10.3123 8.64213C10.7005 8.95225 11.1362 9.19767 11.6026 9.36893V12.4251C10.5661 12.3791 9.56174 12.0515 8.69734 11.4777L8.68874 11.4834ZM17.6978 10.8903L18.6529 11.8454C19.1302 12.3148 19.7728 12.5778 20.4422 12.5778C21.1116 12.5778 21.7542 12.3148 22.2315 11.8454C21.7838 12.5384 21.6204 13.3773 21.7754 14.1876C21.9304 14.998 22.3918 15.7174 23.0637 16.1962C23.7355 16.675 24.5661 16.8764 25.3827 16.7585C26.1992 16.6406 26.9389 16.2125 27.4479 15.5631C27.9568 14.9138 28.1958 14.0932 28.1153 13.2721C28.0347 12.451 27.6407 11.6926 27.0152 11.1546C26.3897 10.6166 25.5809 10.3405 24.757 10.3835C23.9331 10.4266 23.1575 10.7857 22.5915 11.386C22.8048 11.0511 22.9348 10.67 22.9709 10.2746C23.0069 9.87924 22.9479 9.48095 22.7988 9.11298H31.2797C31.4126 9.89063 31.7836 10.6079 32.3414 11.1657C32.8993 11.7236 33.6165 12.0946 34.3942 12.2274V14.8663C33.6165 14.9991 32.8993 15.3701 32.3414 15.9279C31.7836 16.4858 31.4126 17.2031 31.2797 17.9807H18.5125C18.3796 17.2031 18.0087 16.4858 17.4508 15.9279C16.8929 15.3701 16.1757 14.9991 15.398 14.8663V12.2303C16.3027 12.0788 17.1214 11.6036 17.7016 10.8932L17.6978 10.8903ZM22.9946 13.5502C22.9946 13.1745 23.106 12.8072 23.3147 12.4948C23.5235 12.1824 23.8201 11.9389 24.1672 11.7952C24.5144 11.6514 24.8963 11.6138 25.2648 11.6871C25.6333 11.7604 25.9718 11.9413 26.2374 12.207C26.5031 12.4726 26.684 12.8111 26.7573 13.1796C26.8306 13.5481 26.793 13.93 26.6492 14.2771C26.5054 14.6242 26.262 14.9209 25.9496 15.1297C25.6372 15.3384 25.2699 15.4498 24.8942 15.4498C24.3909 15.4488 23.9085 15.2481 23.5531 14.8917C23.1977 14.5354 22.9982 14.0525 22.9984 13.5492L22.9946 13.5502ZM36.9318 20.5164H12.8643V9.63444C13.8684 9.70962 14.8694 9.45365 15.7142 8.90573L16.7962 9.99163C16.5619 10.3101 16.2562 10.5692 15.9035 10.748C15.5509 10.9268 15.1612 11.0204 14.7658 11.0212H14.1326V16.083H14.7658C15.4368 16.0843 16.0799 16.3516 16.554 16.8265C17.0281 17.3013 17.2945 17.9448 17.2948 18.6158V19.249H32.4984V18.6158C32.4986 17.9442 32.7656 17.3001 33.2405 16.8251C33.7155 16.3502 34.3595 16.0833 35.0312 16.083H35.6644V11.0212H35.0312C34.6981 11.0211 34.3684 10.9553 34.0608 10.8276C33.7531 10.6999 33.4737 10.5128 33.2385 10.277C33.0032 10.0413 32.8168 9.76142 32.6898 9.45352C32.5628 9.14562 32.4978 8.8157 32.4984 8.48264V7.84943H21.8361L20.5697 6.58302H36.9318V20.5164Z" fill="#F39C12" stroke="#F39C12" stroke-width="0.4"/>
</svg>
