<svg width="38" height="39" viewBox="0 0 38 39" fill="none" xmlns="http://www.w3.org/2000/svg">
<g clip-path="url(#clip0_1135_3166)">
<path d="M10.1528 30.8472C6.54114 30.8472 3.61328 33.775 3.61328 37.3867H16.6923C16.6923 33.775 13.7645 30.8472 10.1528 30.8472Z" stroke="#1884E6" stroke-width="2.22656" stroke-miterlimit="10"/>
<path d="M10.1534 30.8474C12.8497 30.8474 15.0354 28.6617 15.0354 25.9655C15.0354 23.2692 12.8497 21.0835 10.1534 21.0835C7.45721 21.0835 5.27148 23.2692 5.27148 25.9655C5.27148 28.6617 7.45721 30.8474 10.1534 30.8474Z" stroke="#1884E6" stroke-width="2.22656" stroke-miterlimit="10"/>
<path d="M27.8442 30.8472C31.4559 30.8472 34.3837 33.775 34.3837 37.3867H21.3047C21.3047 33.775 24.2325 30.8472 27.8442 30.8472Z" stroke="#1884E6" stroke-width="2.22656" stroke-miterlimit="10"/>
<path d="M27.8449 30.8474C30.5411 30.8474 32.7268 28.6617 32.7268 25.9655C32.7268 23.2692 30.5411 21.0835 27.8449 21.0835C25.1486 21.0835 22.9629 23.2692 22.9629 25.9655C22.9629 28.6617 25.1486 30.8474 27.8449 30.8474Z" stroke="#1884E6" stroke-width="2.22656" stroke-miterlimit="10"/>
<path d="M18.9997 1.61328C14.6992 1.61328 11.2129 5.09956 11.2129 9.40009C11.2129 11.3267 11.9126 13.0899 13.0718 14.4496C14.5 16.1247 18.9997 20.9669 18.9997 20.9669C18.9997 20.9669 23.4994 16.1247 24.9276 14.4496C26.0868 13.09 26.7865 11.3268 26.7865 9.40009C26.7865 5.09956 23.3002 1.61328 18.9997 1.61328Z" stroke="#1884E6" stroke-width="2.22656" stroke-miterlimit="10"/>
<path d="M18.9997 12.101C20.4914 12.101 21.7006 10.8918 21.7006 9.40011C21.7006 7.90845 20.4914 6.69922 18.9997 6.69922C17.5081 6.69922 16.2988 7.90845 16.2988 9.40011C16.2988 10.8918 17.5081 12.101 18.9997 12.101Z" stroke="#1884E6" stroke-width="2.22656" stroke-miterlimit="10"/>
</g>
<defs>
<clipPath id="clip0_1135_3166">
<rect width="38" height="38" fill="white" transform="translate(0 0.5)"/>
</clipPath>
</defs>
</svg>
