<svg xmlns="http://www.w3.org/2000/svg" width="86" height="87" viewBox="0 0 86 87">
  <g id="issue-register-active" transform="translate(-3463 4311)">
    <rect id="Rectangle_2122" data-name="Rectangle 2122" width="86" height="87" transform="translate(3463 -4311)" fill="#0084e6"/>
    <g id="error" transform="translate(3486 -4287)">
      <path id="Path_423" data-name="Path 423" d="M39.394,11.3,28.438.341A1.164,1.164,0,0,0,27.615,0H12.12A1.163,1.163,0,0,0,11.3.341L.341,11.3A1.164,1.164,0,0,0,0,12.12V27.615a1.163,1.163,0,0,0,.341.823L11.3,39.394a1.164,1.164,0,0,0,.823.341H27.615a1.163,1.163,0,0,0,.823-.341L39.394,28.438a1.164,1.164,0,0,0,.341-.823V12.12A1.164,1.164,0,0,0,39.394,11.3ZM37.407,27.132,27.132,37.407H12.6L2.328,27.132V12.6L12.6,2.328h14.53L37.407,12.6Z" transform="translate(0 0)" fill="#fff"/>
      <path id="Path_424" data-name="Path 424" d="M202.386,72.627h-3.919a2.716,2.716,0,0,0-2.713,2.849l.624,12.735a2.714,2.714,0,0,0,2.713,2.583h2.671a2.714,2.714,0,0,0,2.713-2.583l.624-12.735a2.716,2.716,0,0,0-2.713-2.849ZM202.15,88.1a.388.388,0,0,1-.388.369h-2.671a.388.388,0,0,1-.388-.369l-.624-12.735a.388.388,0,0,1,.388-.407h3.919a.388.388,0,0,1,.388.407Z" transform="translate(-180.559 -66.991)" fill="#3dbfd8"/>
      <path id="Path_425" data-name="Path 425" d="M208.725,336.866a3.978,3.978,0,1,0,3.978,3.978A3.982,3.982,0,0,0,208.725,336.866Zm0,5.627a1.649,1.649,0,1,1,1.649-1.649A1.651,1.651,0,0,1,208.725,342.493Z" transform="translate(-188.857 -310.723)" fill="#3dbfd8"/>
    </g>
  </g>
</svg>
