<svg width="46" height="39" viewBox="0 0 46 39" fill="none" xmlns="http://www.w3.org/2000/svg">
<path fill-rule="evenodd" clip-rule="evenodd" d="M42.9185 0.83752L45.2338 3.15286C45.3954 3.31443 45.5055 3.5203 45.5501 3.74443C45.5946 3.96856 45.5718 4.20088 45.4843 4.412C45.3969 4.62313 45.2488 4.80358 45.0587 4.93052C44.8687 5.05746 44.6453 5.12519 44.4168 5.12515H29.7141C29.5623 5.12515 29.4121 5.09527 29.272 5.03721C29.1318 4.97915 29.0044 4.89405 28.8972 4.78678C28.7899 4.6795 28.7048 4.55214 28.6467 4.41198C28.5887 4.27181 28.5588 4.12158 28.5588 3.96987C28.5588 3.81816 28.5887 3.66793 28.6467 3.52776C28.7048 3.3876 28.7899 3.26024 28.8972 3.15296C29.0044 3.04568 29.1318 2.96059 29.272 2.90253C29.4121 2.84447 29.5623 2.81459 29.7141 2.81459H41.6227L41.2854 2.47536C41.0682 2.2588 40.946 1.96484 40.9455 1.65813C40.9451 1.35142 41.0665 1.0571 41.283 0.839909C41.4996 0.622717 41.7936 0.500449 42.1003 0.500001C42.407 0.499553 42.7013 0.620962 42.9185 0.83752Z" fill="#41BC75"/>
<path fill-rule="evenodd" clip-rule="evenodd" d="M29.7178 9.74708H41.6303L41.293 10.0863C41.0764 10.3029 40.9548 10.5966 40.9548 10.9028C40.9548 11.2091 41.0764 11.5028 41.293 11.7194C41.5095 11.9359 41.8032 12.0576 42.1095 12.0576C42.4157 12.0576 42.7095 11.9359 42.926 11.7194L45.2365 9.40881C45.3982 9.24724 45.5082 9.04137 45.5528 8.81724C45.5974 8.59312 45.5745 8.3608 45.4871 8.14967C45.3996 7.93854 45.2515 7.7581 45.0615 7.63116C44.8715 7.50422 44.6481 7.43648 44.4195 7.43652H29.7178C29.5661 7.43652 29.4158 7.46641 29.2757 7.52446C29.1355 7.58252 29.0081 7.66762 28.9009 7.7749C28.7936 7.88218 28.7085 8.00953 28.6504 8.1497C28.5924 8.28986 28.5625 8.44009 28.5625 8.5918C28.5625 8.74352 28.5924 8.89375 28.6504 9.03391C28.7085 9.17408 28.7936 9.30143 28.9009 9.40871C29.0081 9.51599 29.1355 9.60109 29.2757 9.65914C29.4158 9.7172 29.5661 9.74708 29.7178 9.74708Z" fill="#41BC75"/>
<path fill-rule="evenodd" clip-rule="evenodd" d="M10.2006 28.9054C10.6939 27.7756 11.5059 26.8141 12.5373 26.1388C13.5687 25.4634 14.7747 25.1036 16.0075 25.1032H21.9711C23.2039 25.1036 24.4099 25.4634 25.4413 26.1388C26.4727 26.8141 27.2848 27.7756 27.778 28.9054C27.8966 29.1772 28.1184 29.3908 28.3944 29.4991C28.6705 29.6074 28.9783 29.6017 29.2501 29.4831C29.5219 29.3645 29.7354 29.1427 29.8437 28.8667C29.9521 28.5906 29.9463 28.2828 29.8277 28.011C29.1606 26.482 28.0618 25.1809 26.6661 24.2672C25.2704 23.3535 23.6384 22.8669 21.9702 22.8672H16.0075C14.3393 22.8669 12.7073 23.3535 11.3116 24.2672C9.91583 25.1809 8.81705 26.482 8.14996 28.011C8.03136 28.2828 8.02558 28.5906 8.13391 28.8667C8.24224 29.1427 8.45579 29.3645 8.7276 29.4831C8.9994 29.6017 9.30718 29.6074 9.58324 29.4991C9.8593 29.3908 10.081 29.1772 10.1996 28.9054H10.2006Z" fill="#41BC75"/>
<path fill-rule="evenodd" clip-rule="evenodd" d="M18.9912 7.95801C17.2956 7.95801 15.638 8.46083 14.2282 9.40288C12.8183 10.3449 11.7195 11.6839 11.0706 13.2505C10.4217 14.8171 10.2519 16.5409 10.5827 18.2039C10.9135 19.867 11.73 21.3946 12.929 22.5936C14.128 23.7926 15.6556 24.6092 17.3187 24.94C18.9817 25.2708 20.7055 25.101 22.2721 24.4521C23.8386 23.8032 25.1776 22.7043 26.1196 21.2945C27.0616 19.8846 27.5645 18.227 27.5645 16.5314C27.5637 14.2578 26.6602 12.0776 25.0526 10.4699C23.4449 8.86227 21.2647 7.95877 18.9912 7.95801ZM18.9912 10.194C20.2444 10.194 21.4695 10.5657 22.5115 11.2619C23.5535 11.9582 24.3656 12.9478 24.8452 14.1056C25.3248 15.2634 25.4502 16.5374 25.2058 17.7666C24.9613 18.9957 24.3578 20.1247 23.4716 21.0109C22.5855 21.897 21.4565 22.5005 20.2274 22.745C18.9982 22.9895 17.7242 22.864 16.5664 22.3844C15.4086 21.9049 14.419 21.0927 13.7228 20.0507C13.0265 19.0087 12.6549 17.7836 12.6549 16.5304C12.6557 14.8501 13.3235 13.2389 14.5116 12.0508C15.6997 10.8626 17.311 10.1948 18.9912 10.194Z" fill="#41BC75"/>
<path fill-rule="evenodd" clip-rule="evenodd" d="M34.8105 13.9221C36.0759 17.5063 36.0855 21.4142 34.8377 25.0045C33.5898 28.5949 31.1587 31.6545 27.9431 33.6812C24.7276 35.708 20.9186 36.5816 17.1413 36.1586C13.3639 35.7357 9.84244 34.0414 7.15475 31.3536C4.46705 28.6659 2.77273 25.1444 2.3498 21.367C1.92687 17.5896 2.80045 13.7806 4.82719 10.565C6.85394 7.34943 9.91347 4.91825 13.5038 3.67039C17.0941 2.42253 21.0019 2.4321 24.5861 3.69754C24.7249 3.7485 24.8725 3.77139 25.0203 3.76488C25.1681 3.75838 25.3131 3.72261 25.447 3.65965C25.5809 3.59669 25.7009 3.50779 25.8002 3.3981C25.8994 3.28841 25.9759 3.16012 26.0252 3.02065C26.0745 2.88118 26.0957 2.73331 26.0874 2.58561C26.0792 2.43791 26.0417 2.29331 25.9772 2.1602C25.9126 2.02709 25.8223 1.90811 25.7115 1.81016C25.6006 1.7122 25.4714 1.63722 25.3314 1.58956C21.269 0.153191 16.8389 0.140476 12.7683 1.5535C8.69766 2.96653 5.22828 5.72135 2.92951 9.36587C0.63074 13.0104 -0.360862 17.3281 0.117438 21.6104C0.595739 25.8927 2.51553 29.8853 5.56175 32.9328C8.60797 35.9803 12.5997 37.9017 16.8817 38.3818C21.1638 38.8619 25.4819 37.8721 29.1273 35.5748C32.7727 33.2775 35.5289 29.8092 36.9436 25.7391C38.3583 21.669 38.3474 17.2389 36.9127 13.1758C36.8651 13.0358 36.7901 12.9066 36.6921 12.7957C36.5942 12.6849 36.4752 12.5946 36.3421 12.53C36.209 12.4655 36.0644 12.428 35.9167 12.4198C35.769 12.4115 35.6211 12.4327 35.4817 12.482C35.3422 12.5313 35.2139 12.6078 35.1042 12.707C34.9945 12.8063 34.9056 12.9263 34.8427 13.0602C34.7797 13.1941 34.7439 13.3391 34.7374 13.4869C34.7309 13.6347 34.7538 13.7823 34.8048 13.9212L34.8105 13.9221Z" fill="#41BC75"/>
</svg>
