<svg xmlns="http://www.w3.org/2000/svg" width="86" height="87" viewBox="0 0 86 87">
  <g id="leave-attendance" transform="translate(0 -77)">
    <rect id="Rectangle_1015" data-name="Rectangle 1015" width="86" height="87" transform="translate(0 77)" fill="rgba(0,0,0,0)"/>
    <g id="checklist" transform="translate(17 95.549)">
      <path id="Path_281" data-name="Path 281" d="M14.194,31.9a3.945,3.945,0,0,0,7.654,0l.475-1.9h-8.6Zm6.038-.27a2.316,2.316,0,0,1-4.423,0Z" transform="translate(-2.544 -5.563)" fill="#00a7fe"/>
      <path id="Path_282" data-name="Path 282" d="M14.517,23.258a3.258,3.258,0,1,0-6.517,0H9.629a1.629,1.629,0,1,1,3.258,0Z" transform="translate(-1.483 -3.708)" fill="#00a7fe"/>
      <path id="Path_283" data-name="Path 283" d="M25.258,20A3.262,3.262,0,0,0,22,23.258h1.629a1.629,1.629,0,1,1,3.258,0h1.629A3.262,3.262,0,0,0,25.258,20Z" transform="translate(-4.079 -3.708)" fill="#00a7fe"/>
      <path id="Path_284" data-name="Path 284" d="M43.629,18.711H53.4a1.631,1.631,0,0,0,1.629-1.629V8.955l3.809-3.491-1.1-1.2L54.951,6.82A1.626,1.626,0,0,0,53.4,5.678H43.629A1.631,1.631,0,0,0,42,7.307v9.775A1.631,1.631,0,0,0,43.629,18.711Zm0-11.4H53.4v.931L48.541,12.7,46.649,10.8,45.5,11.956l3,3,4.912-4.5v6.634H43.629Z" transform="translate(-7.788 -0.79)" fill="#4dcfe0"/>
      <path id="Path_285" data-name="Path 285" d="M57.741,24.263l-2.79,2.558A1.626,1.626,0,0,0,53.4,25.678H43.629A1.631,1.631,0,0,0,42,27.307v9.775a1.631,1.631,0,0,0,1.629,1.629H53.4a1.631,1.631,0,0,0,1.629-1.629V28.955l3.809-3.491ZM53.4,37.082H43.629V27.307H53.4v.931L48.541,32.7,46.649,30.8,45.5,31.956l3,3,4.912-4.5Z" transform="translate(-7.788 -4.499)" fill="#1bb7ea"/>
      <path id="Path_286" data-name="Path 286" d="M42,46h4.887v1.629H42Z" transform="translate(-7.788 -8.529)" fill="#4dcfe0"/>
      <path id="Path_287" data-name="Path 287" d="M50,46h6.517v1.629H50Z" transform="translate(-9.271 -8.529)" fill="#4dcfe0"/>
      <path id="Path_288" data-name="Path 288" d="M42,50H55.033v1.629H42Z" transform="translate(-7.788 -9.271)" fill="#4dcfe0"/>
      <path id="Path_289" data-name="Path 289" d="M42,54h1.629v1.629H42Z" transform="translate(-7.788 -10.013)" fill="#1bb7ea"/>
      <path id="Path_290" data-name="Path 290" d="M46,54h1.629v1.629H46Z" transform="translate(-8.529 -10.013)" fill="#1bb7ea"/>
      <path id="Path_291" data-name="Path 291" d="M50,54h1.629v1.629H50Z" transform="translate(-9.271 -10.013)" fill="#1bb7ea"/>
      <path id="Path_292" data-name="Path 292" d="M30.954,12.246A12.26,12.26,0,0,0,18.708,0H12.246A12.245,12.245,0,0,0,.472,15.611l.847,2.966a3.248,3.248,0,0,0,1.94,5.861h.261A12.342,12.342,0,0,0,8.206,31.8l-1.032.573-.82-1.092-1.3.977.713.95A5.929,5.929,0,0,0,7.185,43.628L6.421,50.5H24.533l-.764-6.876a5.938,5.938,0,0,0,.871-10.779L22.749,31.8a12.348,12.348,0,0,0,4.687-7.361h.26a3.248,3.248,0,0,0,1.94-5.861l.847-2.966a12.233,12.233,0,0,0,.472-3.364ZM3.258,22.808a1.629,1.629,0,1,1,0-3.258v2.444c0,.274.017.544.036.815Zm6.516,9.983c.165.088.335.168.505.248a1.62,1.62,0,0,0-.5,1.173v1.63L8.16,33.689Zm7.332,3.051a1.631,1.631,0,0,0,1.629-1.629h.815v3.258H16.292a3.258,3.258,0,1,0,0,6.517H19.55v1.629H11.4v-11.4h.815a1.631,1.631,0,0,0,1.629,1.629Zm-3.258-1.629V32.583h3.258v1.629Zm2.444,8.146a1.629,1.629,0,1,1,0-3.258h1.629v3.258Zm-11.4-4.314A4.309,4.309,0,0,1,6.741,34.51L8.984,37.5a3.557,3.557,0,0,0-2.229,1.022l1.153,1.152A1.95,1.95,0,0,1,9.3,39.1h.477v3.258H9.2A4.318,4.318,0,0,1,4.887,38.044ZM22.713,48.875H8.241l.545-4.909c.138.01.275.021.415.021h.574v1.629A1.631,1.631,0,0,0,11.4,47.246H19.55a1.631,1.631,0,0,0,1.629-1.629V43.987h.574c.14,0,.277-.011.415-.021Zm1.135-14.6a4.314,4.314,0,0,1-2.094,8.085h-2.2V39.1h2.107a1.953,1.953,0,0,1,1.39.576L24.2,38.524a3.572,3.572,0,0,0-2.543-1.053h-.477V34.212a1.62,1.62,0,0,0-.5-1.173c.169-.081.34-.16.505-.248Zm2.219-12.28a10.657,10.657,0,0,1-7.413,10.1,1.626,1.626,0,0,0-1.547-1.144H13.848A1.626,1.626,0,0,0,12.3,32.1a10.657,10.657,0,0,1-7.413-10.1V15.151a2.443,2.443,0,0,1,1.452-2.233l3.853-1.712a11.761,11.761,0,0,0,6.271,1.827h7.159a2.447,2.447,0,0,1,2.444,2.444Zm1.629.815H27.66c.019-.27.036-.541.036-.815V19.55a1.629,1.629,0,0,1,0,3.258Zm0-4.887V15.477A4.078,4.078,0,0,0,23.623,11.4H16.463A10.14,10.14,0,0,1,8.009,6.879l-1.355.9a11.813,11.813,0,0,0,2.03,2.309L5.678,11.429a4.077,4.077,0,0,0-2.419,3.723v2.77a3.236,3.236,0,0,0-.42.042l-.8-2.8A10.616,10.616,0,0,1,12.246,1.629h6.461A10.619,10.619,0,0,1,28.917,15.163l-.8,2.8a3.263,3.263,0,0,0-.421-.042Z" transform="translate(0 0)" fill="#00a7fe"/>
    </g>
  </g>
</svg>
