<svg xmlns="http://www.w3.org/2000/svg" width="33.639" height="39.309" viewBox="0 0 33.639 39.309">
  <g id="management-icon" transform="translate(-0.05 0.2)">
    <path id="Path_251" data-name="Path 251" d="M29.08,2.765H27.535V.883a.883.883,0,1,0-1.767,0v1.89H7.935V.883a.883.883,0,0,0-1.767,0v1.89h-1.5A4.418,4.418,0,0,0,.25,7.19v27.3a4.418,4.418,0,0,0,4.416,4.416H29.072a4.418,4.418,0,0,0,4.416-4.416V7.181A4.416,4.416,0,0,0,29.08,2.765Zm2.65,31.719a2.657,2.657,0,0,1-2.65,2.65H4.666a2.657,2.657,0,0,1-2.65-2.65V7.181a2.657,2.657,0,0,1,2.65-2.65h1.5V5.9a.883.883,0,0,0,1.767,0V4.531H25.768V5.9a.883.883,0,1,0,1.767,0V4.531H29.08a2.657,2.657,0,0,1,2.65,2.65Zm0,0" fill="#00a7fe" stroke="#00a7fe" stroke-width="0.4"/>
    <path id="Path_252" data-name="Path 252" d="M62.792,209.391,59.533,212.5l-1.5-1.5a.881.881,0,0,0-1.246,1.246l2.111,2.111a.867.867,0,0,0,.627.256.856.856,0,0,0,.61-.247l3.877-3.71a.878.878,0,1,0-1.219-1.263Zm0,0" transform="translate(-51.307 -190.665)" fill="#3dc0d8" stroke="#3dc0d8" stroke-width="0.4"/>
    <path id="Path_253" data-name="Path 253" d="M196.49,230.2H186.332a.883.883,0,0,0,0,1.767H196.49a.883.883,0,0,0,0-1.767Zm0,0" transform="translate(-168.841 -209.866)" fill="#3dc0d8" stroke="#3dc0d8" stroke-width="0.4"/>
    <path id="Path_254" data-name="Path 254" d="M62.792,109.391,59.533,112.5l-1.5-1.5a.881.881,0,0,0-1.246,1.246l2.111,2.111a.867.867,0,0,0,.627.256.856.856,0,0,0,.61-.247l3.877-3.71a.878.878,0,1,0-1.219-1.263Zm0,0" transform="translate(-51.307 -99.498)" fill="#3dc0d8" stroke="#3dc0d8" stroke-width="0.4"/>
    <path id="Path_255" data-name="Path 255" d="M196.49,130.2H186.332a.883.883,0,1,0,0,1.767H196.49a.883.883,0,1,0,0-1.767Zm0,0" transform="translate(-168.841 -118.699)" fill="#3dc0d8" stroke="#3dc0d8" stroke-width="0.4"/>
    <path id="Path_256" data-name="Path 256" d="M62.792,309.391,59.533,312.5l-1.5-1.5a.881.881,0,1,0-1.246,1.246l2.111,2.111a.867.867,0,0,0,.627.256.856.856,0,0,0,.61-.247l3.877-3.71a.878.878,0,1,0-1.219-1.263Zm0,0" transform="translate(-51.307 -281.832)" fill="#3dc0d8" stroke="#3dc0d8" stroke-width="0.4"/>
    <path id="Path_257" data-name="Path 257" d="M196.49,330.2H186.332a.883.883,0,0,0,0,1.767H196.49a.883.883,0,0,0,0-1.767Zm0,0" transform="translate(-168.841 -301.033)" fill="#3dc0d8" stroke="#3dc0d8" stroke-width="0.4"/>
  </g>
</svg>
