<svg xmlns="http://www.w3.org/2000/svg" width="88" height="87" viewBox="0 0 88 87">
  <g id="management-active" transform="translate(-4281 4311)">
    <rect id="Rectangle_2120" data-name="Rectangle 2120" width="88" height="87" transform="translate(4281 -4311)" fill="#0084e6"/>
    <g id="accounting_1_" data-name="accounting(1)" transform="translate(4301 -4291)">
      <path id="Path_5732" data-name="Path 5732" d="M41.033,1V20.275H39.551V5.448H33.62V20.275H32.137V9.9H26.206V20.275H24.724V14.344H18.793v7.414H32.572l-5.049,5.049a3.013,3.013,0,0,1-4.114.137L20.59,24.477a9.6,9.6,0,0,0-5.151-2.31l-2.578-.322v-1.7l.333.067a3.441,3.441,0,0,0,4.115-3.373V13.91l1.79-1.79-.524-.524A4.292,4.292,0,0,1,17.31,8.54V7.653A3.694,3.694,0,0,0,15.086,1h-6.6A5.369,5.369,0,0,0,3.335,4.9,3.989,3.989,0,0,0,1,8.534a10.93,10.93,0,0,0,4.352,8.7l1.579,1.185v3.5l-1.438.36A5.923,5.923,0,0,0,1,28.034V31.4a6.678,6.678,0,0,0,4.448,6.283v9.286H18.793V41.033h1.483a1.484,1.484,0,0,0,1.483-1.483v-6.86a7.93,7.93,0,0,0,3.707.929,7.847,7.847,0,0,0,5.586-2.314l6.187-6.187a2.841,2.841,0,0,0,.83-2.045,2.772,2.772,0,0,0-.343-1.316h9.239V1ZM23.241,20.275H20.275V15.827h2.965ZM35.1,6.931h2.965V20.275H35.1Zm-7.414,4.448h2.965v8.9H27.689ZM13.407,23.408l-.34,1.7-1.346-.673.763-1.144Zm3.629-11.32L15.827,13.3v2.531H14.344a1.484,1.484,0,0,1-1.483-1.483H11.379a2.968,2.968,0,0,0,2.965,2.965h1.418a1.951,1.951,0,0,1-2.276,1.445l-3.444-.689L9.751,19.52l1.628.325v2.429l-.924,1.386L8.414,22.129V14.038L7.148,12.772a.738.738,0,0,1-.217-.525V12.12a.743.743,0,0,1,.741-.741h.741V9.9a2.968,2.968,0,0,1,2.965-2.965h.136A2.221,2.221,0,0,0,13.6,8.414h1.483a3.7,3.7,0,0,0,.741-.075v.2a5.765,5.765,0,0,0,1.208,3.547ZM6.241,16.052A9.445,9.445,0,0,1,2.483,8.534,2.508,2.508,0,0,1,4.2,6.152l.408-.136.085-.422a3.882,3.882,0,0,1,3.8-3.111h6.6a2.224,2.224,0,0,1,0,4.448H13.6a.741.741,0,0,1,0-1.483h.741V3.965H13.6a2.221,2.221,0,0,0-2.088,1.483h-.136A4.453,4.453,0,0,0,6.931,9.9v.127a2.228,2.228,0,0,0-1.483,2.1v.127A2.211,2.211,0,0,0,6.1,13.82l.831.831v1.917ZM7.51,23.3l2,1.5L8.464,25.85l-1.92-2.3Zm.162,14.763h3.707v1.483H6.931V38.024A6.625,6.625,0,0,0,7.672,38.068Zm5.19-4.448a1.483,1.483,0,0,1,0,2.965H11.379V33.62ZM17.31,45.482H12.862V42.516H11.379v2.965H6.931V41.033H17.31Zm2.965-5.931H12.862V38.068a2.965,2.965,0,0,0,2.693-1.739,2.191,2.191,0,0,0,1.014.257,2.224,2.224,0,1,0-1.695-3.647,2.944,2.944,0,0,0-2.012-.8V29.172h7.414Zm-4.448-5.19a.741.741,0,1,1,.741.741A.743.743,0,0,1,15.827,34.361ZM30,30.258a6.374,6.374,0,0,1-4.538,1.879,6.445,6.445,0,0,1-3.707-1.185v-1.78a1.484,1.484,0,0,0-1.483-1.483H12.862a1.484,1.484,0,0,0-1.483,1.483v2.965H7.672a.743.743,0,0,1-.741-.741V29.172H5.448V31.4A2.227,2.227,0,0,0,7.672,33.62H9.9v2.965H7.672a5.2,5.2,0,0,1-5.19-5.19V28.034a4.435,4.435,0,0,1,2.533-4.006l3.347,4.017,2.421-2.421L14.139,27.3l.742-3.712.374.047a8.127,8.127,0,0,1,4.358,1.955l2.819,2.467a4.5,4.5,0,0,0,6.139-.2l3.566-3.566,1.916,1.917Zm6.2-8.114a1.33,1.33,0,0,1,.386.964,1.35,1.35,0,0,1-.394.962L35.1,25.158l-1.917-1.917,1.086-1.086a1.372,1.372,0,0,1,1-.4,1.308,1.308,0,0,1,.93.386Zm9.282-1.868H42.516V2.483h2.965Z" transform="translate(0)" fill="#fff"/>
      <g id="Group_1858" data-name="Group 1858" transform="translate(12.523 9.864)">
        <circle id="Ellipse_121" data-name="Ellipse 121" cx="1" cy="1" r="1" transform="translate(-0.468 0.191)" fill="#8fdfeb"/>
        <path id="Path_5733" data-name="Path 5733" d="M36.931,47a5.931,5.931,0,1,0,5.931,5.931A5.938,5.938,0,0,0,36.931,47Zm-.741,1.549V52.5l-3.424,1.976a4.43,4.43,0,0,1,3.424-5.929Zm.741,8.83a4.442,4.442,0,0,1-3.426-1.614l3.426-1.978,3.426,1.978A4.442,4.442,0,0,1,36.931,57.379Zm4.165-2.9L37.672,52.5V48.549A4.431,4.431,0,0,1,41.1,54.48Z" transform="translate(-20.282 -21.762)" fill="#8fdfeb"/>
        <path id="Path_5734" data-name="Path 5734" d="M49,61h1.483v1.483H49Z" transform="translate(-24.938 -25.383)" fill="#8fdfeb"/>
        <path id="Path_5735" data-name="Path 5735" d="M53,61h7.414v1.483H53Z" transform="translate(-25.973 -25.383)" fill="#8fdfeb"/>
        <path id="Path_5736" data-name="Path 5736" d="M49,57h1.483v1.483H49Z" transform="translate(-24.938 -24.348)" fill="#8fdfeb"/>
        <path id="Path_5737" data-name="Path 5737" d="M53,57h7.414v1.483H53Z" transform="translate(-25.973 -24.348)" fill="#8fdfeb"/>
        <path id="Path_5738" data-name="Path 5738" d="M49,53h1.483v1.483H49Z" transform="translate(-24.938 -23.314)" fill="#8fdfeb"/>
        <path id="Path_5739" data-name="Path 5739" d="M53,53h7.414v1.483H53Z" transform="translate(-25.973 -23.314)" fill="#8fdfeb"/>
        <path id="Path_5740" data-name="Path 5740" d="M49,49h1.483v1.483H49Z" transform="translate(-24.938 -22.279)" fill="#8fdfeb"/>
        <path id="Path_5741" data-name="Path 5741" d="M53,49h7.414v1.483H53Z" transform="translate(-25.973 -22.279)" fill="#8fdfeb"/>
        <path id="Path_5742" data-name="Path 5742" d="M47,45H57.379v1.483H47Z" transform="translate(-24.421 -21.244)" fill="#8fdfeb"/>
        <path id="Path_5743" data-name="Path 5743" d="M47,41H57.379v1.483H47Z" transform="translate(-24.421 -20.21)" fill="#8fdfeb"/>
        <path id="Path_5744" data-name="Path 5744" d="M49,37h2.965v1.483H49Z" transform="translate(-24.938 -19.175)" fill="#8fdfeb"/>
        <path id="Path_5745" data-name="Path 5745" d="M55,37h4.448v1.483H55Z" transform="translate(-26.49 -19.175)" fill="#8fdfeb"/>
      </g>
    </g>
  </g>
</svg>
