<svg id="milestone-color" xmlns="http://www.w3.org/2000/svg" width="38.787" height="38.787" viewBox="0 0 38.787 38.787">
  <path id="Path_325" data-name="Path 325" d="M75,75h2.282v2.282H75Z" transform="translate(-69.296 -69.296)" fill="#3dc0d8"/>
  <path id="Path_326" data-name="Path 326" d="M75,405h2.282v2.282H75Z" transform="translate(-69.296 -374.198)" fill="#3dc0d8"/>
  <path id="Path_327" data-name="Path 327" d="M38.787,25.1V13.69H35.294A9.14,9.14,0,0,0,26.238,5.7H13.594a6.845,6.845,0,1,0,0,2.282H26.238a6.856,6.856,0,0,1,6.749,5.7H27.379v4.563H13.69a8,8,0,0,0-7.916,6.929,6.845,6.845,0,1,0,7.82,7.9H25.766l-1.475,1.475L25.9,36.171l4.229-4.229L25.9,27.713l-1.613,1.613L25.766,30.8H13.594A6.863,6.863,0,0,0,8.08,25.21a5.712,5.712,0,0,1,5.609-4.675h13.69V25.1ZM6.845,11.408a4.563,4.563,0,1,1,4.563-4.563A4.568,4.568,0,0,1,6.845,11.408Zm4.563,20.534a4.563,4.563,0,1,1-4.563-4.563A4.568,4.568,0,0,1,11.408,31.942ZM29.661,15.971h6.845v6.845H29.661Z" fill="#00a7fe"/>
  <path id="Path_328" data-name="Path 328" d="M420,240h2.282v2.282H420Z" transform="translate(-388.058 -221.747)" fill="#3dc0d8"/>
</svg>
