<svg width="39" height="39" viewBox="0 0 39 39" fill="none" xmlns="http://www.w3.org/2000/svg">
<path fill-rule="evenodd" clip-rule="evenodd" d="M10.7994 28.9053C11.2928 27.7752 12.105 26.8136 13.1366 26.1382C14.1683 25.4628 15.3745 25.1029 16.6076 25.1027H22.5716C23.8046 25.1029 25.0109 25.4628 26.0425 26.1382C27.0741 26.8136 27.8864 27.7752 28.3797 28.9053C28.5018 29.1718 28.7237 29.3798 28.9976 29.4843C29.2715 29.5889 29.5755 29.5818 29.8441 29.4645C30.1128 29.3472 30.3247 29.129 30.4342 28.8571C30.5436 28.5851 30.542 28.281 30.4295 28.0103C29.7623 26.4812 28.6635 25.1799 27.2678 24.2661C25.872 23.3523 24.2399 22.8656 22.5716 22.8657H16.6076C14.9389 22.8659 13.3066 23.353 11.9108 24.2673C10.515 25.1817 9.41634 26.4835 8.74965 28.0132C8.63718 28.284 8.63549 28.588 8.74497 28.86C8.85444 29.132 9.06631 29.3501 9.33499 29.4674C9.60367 29.5847 9.90766 29.5919 10.1815 29.4873C10.4554 29.3827 10.6773 29.1748 10.7994 28.9082V28.9053Z" fill="white"/>
<path fill-rule="evenodd" clip-rule="evenodd" d="M19.5931 7.95557C17.8974 7.95479 16.2395 8.45687 14.8292 9.3983C13.4189 10.3397 12.3194 11.6783 11.6697 13.2446C11.0201 14.8109 10.8496 16.5347 11.1796 18.198C11.5097 19.8612 12.3255 21.3893 13.524 22.5889C14.7225 23.7885 16.2497 24.6057 17.9127 24.9373C19.5756 25.2689 21.2996 25.0999 22.8665 24.4517C24.4334 23.8035 25.7729 22.7052 26.7156 21.2957C27.6583 19.8862 28.1619 18.2288 28.1626 16.5331C28.1629 14.2595 27.2604 12.0788 25.6534 10.4704C24.0465 8.86192 21.8667 7.95739 19.5931 7.95557ZM19.5931 10.1926C20.8462 10.1932 22.0711 10.5653 23.1129 11.2619C24.1546 11.9585 24.9665 12.9483 25.4458 14.1062C25.9251 15.2642 26.0503 16.5382 25.8057 17.7673C25.5611 18.9964 24.9575 20.1254 24.0714 21.0115C23.1853 21.8977 22.0563 22.5012 20.8272 22.7458C19.5981 22.9905 18.3241 22.8652 17.1662 22.3859C16.0083 21.9066 15.0185 21.0947 14.3219 20.053C13.6253 19.0112 13.2532 17.7863 13.2526 16.5331C13.2525 15.7004 13.4164 14.8759 13.735 14.1065C14.0536 13.3372 14.5206 12.6382 15.1094 12.0494C15.6982 11.4606 16.3972 10.9936 17.1665 10.675C17.9358 10.3564 18.7604 10.1925 19.5931 10.1926Z" fill="white"/>
<path fill-rule="evenodd" clip-rule="evenodd" d="M35.4077 13.9204C36.673 17.5051 36.6823 21.4134 35.4342 25.0041C34.186 28.5948 31.7545 31.6546 28.5385 33.6815C25.3225 35.7084 21.5131 36.582 17.7353 36.159C13.9575 35.7359 10.4357 34.0413 7.74772 31.3533C5.05972 28.6653 3.36518 25.1434 2.94214 21.3656C2.5191 17.5877 3.39269 13.7783 5.41956 10.5623C7.44643 7.34626 10.5062 4.91468 14.0969 3.66651C17.6875 2.41833 21.5958 2.42768 25.1804 3.69303C25.3196 3.74502 25.4677 3.76878 25.6161 3.76291C25.7645 3.75705 25.9103 3.72168 26.0449 3.65887C26.1795 3.59606 26.3002 3.50707 26.4 3.3971C26.4999 3.28712 26.5768 3.15836 26.6264 3.01833C26.6759 2.8783 26.6971 2.7298 26.6886 2.58151C26.6801 2.43322 26.6422 2.28809 26.577 2.15461C26.5119 2.02113 26.4208 1.90196 26.3091 1.80407C26.1974 1.70617 26.0673 1.6315 25.9264 1.58443C21.8634 0.149525 17.4334 0.138299 13.3632 1.55259C9.29307 2.96688 5.82449 5.72269 3.52668 9.36781C1.22887 13.0129 0.238293 17.3309 0.717506 21.6131C1.19672 25.8953 3.11725 29.8874 6.16397 32.9344C9.21068 35.9814 13.2026 37.9023 17.4847 38.3819C21.7668 38.8615 26.0848 37.8713 29.7301 35.5737C33.3753 33.2762 36.1314 29.8078 37.546 25.7377C38.9606 21.6676 38.9498 17.2375 37.5153 13.1744C37.4126 12.8997 37.2062 12.6763 36.9405 12.5523C36.6747 12.4283 36.3709 12.4136 36.0945 12.5114C35.818 12.6092 35.591 12.8117 35.4624 13.0752C35.3337 13.3388 35.3147 13.6423 35.4077 13.9204Z" fill="white"/>
<path fill-rule="evenodd" clip-rule="evenodd" d="M27.7455 8.37322L30.7275 11.3553C30.8312 11.4591 30.9544 11.5415 31.09 11.5977C31.2255 11.6539 31.3709 11.6829 31.5176 11.6829C31.6644 11.6829 31.8097 11.6539 31.9453 11.5977C32.0809 11.5415 32.204 11.4591 32.3077 11.3553L38.2717 5.39411C38.4758 5.18344 38.5889 4.90098 38.5866 4.60768C38.5842 4.31437 38.4667 4.03374 38.2593 3.82634C38.0519 3.61894 37.7713 3.50139 37.478 3.49906C37.1847 3.49673 36.9022 3.6098 36.6915 3.81389L31.5176 8.98688L29.3287 6.79299C29.118 6.58891 28.8355 6.47583 28.5422 6.47816C28.2489 6.48049 27.9683 6.59804 27.7609 6.80544C27.5535 7.01285 27.436 7.29348 27.4336 7.58678C27.4313 7.88008 27.5444 8.16254 27.7485 8.37322H27.7455Z" fill="white"/>
</svg>
