<svg xmlns="http://www.w3.org/2000/svg" width="20.955" height="20.955" viewBox="0 0 20.955 20.955"><g transform="translate(0.15 0.15)"><path d="M372.582,417.055h1.21v1.21h-1.21Z" transform="translate(-357.373 -400.031)" fill="#f65a5a"/><path d="M372.582,328.109h1.21v2.421h-1.21Z" transform="translate(-357.373 -314.715)" fill="#f65a5a"/><path d="M18.235,9.117a9.117,9.117,0,1,0-9.117,9.117,9.5,9.5,0,0,0,2-.213l2.634,2.634H17.88l2.775-2.775V13.748l-2.634-2.634a9.5,9.5,0,0,0,.213-2Zm-7.262,7.7a8.251,8.251,0,0,1-1.856.211,7.907,7.907,0,1,1,7.907-7.907,8.251,8.251,0,0,1-.211,1.856H15.56a6.9,6.9,0,0,0,.255-1.856,6.7,6.7,0,1,0-6.7,6.7,6.9,6.9,0,0,0,1.856-.255v1.253Zm0-3.065v.543a5.725,5.725,0,0,1-1.856.313A5.487,5.487,0,1,1,14.6,9.117a5.725,5.725,0,0,1-.313,1.856h-.543Zm8.472.5v3.129l-2.066,2.066H14.249l-2.066-2.066V14.249l2.066-2.066h3.129Z" fill="#f65a5a" stroke="#f65a5a" stroke-width="0.3"/><path d="M209.737,133.418h-1.21v4.276H212.8v-1.21h-3.066Z" transform="translate(-200.338 -127.367)" fill="#f65a5a"/></g></svg>