<svg xmlns="http://www.w3.org/2000/svg" width="86" height="87" viewBox="0 0 86 87">
  <g id="pa-inactive" transform="translate(21191 9372)">
    <g id="Group_788" data-name="Group 788" transform="translate(-39 13440)">
      <rect id="Rectangle_1015" data-name="Rectangle 1015" width="86" height="87" rx="4" transform="translate(-21152 -22812)" fill="rgba(0,0,0,0)"/>
    </g>
    <g id="hierarchical-structure_2_" data-name="hierarchical-structure (2)" transform="translate(-21178.498 -9351)">
      <g id="Group_807" data-name="Group 807" transform="translate(8.499)">
        <g id="Group_806" data-name="Group 806">
          <path id="Path_390" data-name="Path 390" d="M44.522,106.245a4.176,4.176,0,1,0-4.176-4.176A4.18,4.18,0,0,0,44.522,106.245Zm0-6.459a2.278,2.278,0,1,1-2.278,2.278A2.28,2.28,0,0,1,44.522,99.786Z" transform="translate(-36.411 -85.798)" fill="#0084e6"/>
          <path id="Path_391" data-name="Path 391" d="M19.311,175.155H13.959A5.452,5.452,0,0,0,8.5,180.59v4.941a1.58,1.58,0,0,0,1.575,1.575H23.151a1.566,1.566,0,0,0,1.55-1.575V180.59a5.443,5.443,0,0,0-1.563-3.84A5.317,5.317,0,0,0,19.311,175.155ZM22.8,185.214H21.608v-4.568a.791.791,0,1,0-1.582,0v4.568H13.193v-4.568a.791.791,0,1,0-1.582,0v4.568H10.4V180.6a3.557,3.557,0,0,1,3.562-3.543h5.352a3.438,3.438,0,0,1,2.474,1.031A3.561,3.561,0,0,1,22.8,180.6Z" transform="translate(-8.499 -153.512)" fill="#0084e6"/>
          <path id="Path_392" data-name="Path 392" d="M266.165,8.351a4.176,4.176,0,1,0-4.176-4.176A4.18,4.18,0,0,0,266.165,8.351Zm0-6.459a2.278,2.278,0,1,1-2.278,2.278A2.28,2.28,0,0,1,266.165,1.892Z" transform="translate(-230.667)" fill="#0084e6"/>
          <path id="Path_393" data-name="Path 393" d="M246.34,82.509a5.443,5.443,0,0,0-5.447-5.453H235.6a5.465,5.465,0,0,0-5.46,5.46v4.941a1.566,1.566,0,0,0,1.575,1.55h13.058a1.566,1.566,0,0,0,1.575-1.55V82.516C246.34,82.516,246.34,82.516,246.34,82.509Zm-1.892,4.6h-1.189V82.541a.791.791,0,1,0-1.582,0v4.568h-6.871V82.541a.791.791,0,1,0-1.582,0v4.568h-1.189V82.516a3.57,3.57,0,0,1,3.562-3.562h5.3a3.564,3.564,0,0,1,3.556,3.562v4.593Z" transform="translate(-202.756 -67.534)" fill="#0084e6"/>
          <path id="Path_394" data-name="Path 394" d="M270.341,200.118a4.176,4.176,0,1,0-4.176,4.176A4.18,4.18,0,0,0,270.341,200.118Zm-6.459,0a2.278,2.278,0,1,1,2.278,2.278A2.28,2.28,0,0,1,263.882,200.118Z" transform="translate(-230.667 -171.73)" fill="#0084e6"/>
          <path id="Path_395" data-name="Path 395" d="M240.893,273.05H235.6a5.465,5.465,0,0,0-5.46,5.46v4.922a1.58,1.58,0,0,0,1.575,1.575h13.058a1.58,1.58,0,0,0,1.575-1.575V278.51A5.477,5.477,0,0,0,240.893,273.05Zm3.549,10.053h-1.189v-4.568a.791.791,0,1,0-1.582,0V283.1h-6.864v-4.568a.791.791,0,1,0-1.582,0V283.1h-1.189V278.51a3.566,3.566,0,0,1,3.562-3.562h5.3a3.563,3.563,0,0,1,3.549,3.562V283.1Z" transform="translate(-202.756 -239.31)" fill="#0084e6"/>
          <path id="Path_396" data-name="Path 396" d="M135.445,51.375a.948.948,0,0,0-.949-.949h-5.827a1.179,1.179,0,0,0-.209-.025.147.147,0,0,1-.146-.146.786.786,0,0,0-.025-.209V28.264a.158.158,0,0,1,.152-.152h6.048a.949.949,0,1,0,0-1.9h-6.048a2.053,2.053,0,0,0-2.05,2.05V38.3h-6.251a.949.949,0,0,0,0,1.9h6.251V50.268a1.169,1.169,0,0,0,.044.3,2.047,2.047,0,0,0,1.714,1.714.915.915,0,0,0,.3.044H134.5A.947.947,0,0,0,135.445,51.375Z" transform="translate(-105.514 -22.975)" fill="#3dc0d8"/>
        </g>
      </g>
    </g>
  </g>
</svg>
