<svg width="40" height="40" viewBox="0 0 40 40" fill="none" xmlns="http://www.w3.org/2000/svg">
<path d="M33.156 28.67L31.467 27.658C30.9531 27.3507 30.3658 27.188 29.767 27.187H27.221C26.7005 27.1865 26.1822 27.2537 25.679 27.387L18.021 29.443C17.6091 29.5573 17.2306 29.7688 16.9174 30.0598C16.6041 30.3507 16.3653 30.7126 16.221 31.115L9.48501 27.471C8.93977 27.1601 8.30159 27.0538 7.685 27.171C7.45202 27.2121 7.22608 27.2861 7.01401 27.391C6.53515 27.6204 6.13776 27.9906 5.87501 28.452C5.64515 28.8536 5.52415 29.3083 5.524 29.771C5.52051 30.2351 5.63997 30.6918 5.87025 31.0947C6.10052 31.4977 6.43339 31.8324 6.835 32.065L18.908 39.288C19.4321 39.6139 20.0368 39.7871 20.654 39.788H29.997C30.4144 39.7884 30.828 39.7097 31.216 39.556L33.162 38.788V39.788H39.793V26.524H33.156V28.67ZM30.723 38.324C30.4908 38.4154 30.2435 38.4625 29.994 38.463H20.648C20.2746 38.4636 19.9084 38.3597 19.591 38.163L7.502 30.924C7.3003 30.8074 7.13306 30.6395 7.01731 30.4373C6.90156 30.2352 6.84141 30.0059 6.843 29.773C6.84408 29.5403 6.9054 29.3119 7.021 29.11C7.15305 28.8807 7.35191 28.6972 7.591 28.584C7.69608 28.5326 7.80783 28.4963 7.923 28.476C8.00676 28.4603 8.09178 28.4522 8.177 28.452C8.405 28.4513 8.62917 28.5107 8.827 28.624L16.127 32.571C16.135 32.611 16.135 32.651 16.146 32.692C16.2988 33.2552 16.6325 33.7525 17.0959 34.1073C17.5593 34.462 18.1264 34.6545 18.71 34.655C19.0792 34.6212 19.4449 34.5559 19.803 34.46L26.693 32.616L26.351 31.335L19.484 33.171C19.184 33.241 18.791 33.32 18.711 33.327C18.4197 33.3276 18.1362 33.2322 17.9045 33.0556C17.6728 32.879 17.5057 32.631 17.429 32.35C17.4077 32.2699 17.3946 32.1878 17.39 32.105C17.39 32.105 17.385 31.944 17.39 31.888C17.4146 31.6169 17.5212 31.3598 17.6955 31.1508C17.8699 30.9418 18.1037 30.7908 18.366 30.718L26.021 28.67C26.4124 28.5651 26.8158 28.512 27.221 28.512H29.763C30.123 28.5121 30.4762 28.6099 30.785 28.795L33.156 30.214V37.358L30.723 38.324ZM34.482 27.853H38.461V38.463H34.482V27.853Z" fill="#7E5AF6"/>
<path d="M27.35 5.30002L23.793 1.74802C23.2402 1.19202 22.5825 0.751225 21.8582 0.451175C21.1338 0.151124 20.3571 -0.00222015 19.573 2.42861e-05H11.236C10.7213 0.000794143 10.2137 0.120581 9.753 0.350024L8.267 1.09302C7.96758 1.24333 7.63471 1.31459 7.3 1.30002L6.626 1.27602V2.42861e-05H0V14.588H6.631V12.6H7.759L8.159 12.865C9.28154 13.6106 10.5883 14.0314 11.935 14.081V22.547H39.787V5.30002H27.35ZM5.3 13.262H1.326V1.32602H5.3V13.262ZM8.889 11.762L8.151 11.274H6.631V2.60002L7.256 2.62202C7.8099 2.64135 8.35987 2.52208 8.856 2.27502L10.341 1.53202C10.6177 1.39384 10.9227 1.32194 11.232 1.32202H19.569C20.1787 1.3203 20.7828 1.43952 21.3461 1.67279C21.9095 1.90606 22.421 2.24875 22.851 2.68102L25.474 5.30002H20L18.393 3.70002L17.456 4.63702L22.14 9.31702C22.27 9.43881 22.3742 9.58546 22.4464 9.74829C22.5186 9.91111 22.5574 10.0868 22.5605 10.2649C22.5635 10.443 22.5307 10.6199 22.4641 10.7851C22.3975 10.9503 22.2984 11.1004 22.1726 11.2265C22.0469 11.3527 21.8971 11.4523 21.7321 11.5195C21.5671 11.5866 21.3903 11.6199 21.2122 11.6175C21.0341 11.615 20.8583 11.5768 20.6952 11.5051C20.5322 11.4334 20.3852 11.3296 20.263 11.2L16.351 7.29002L15.887 7.69002C15.2653 8.21791 14.4793 8.51316 13.6638 8.5252C12.8483 8.53725 12.054 8.26532 11.417 7.75602L11.033 7.44502L10.2 8.47202L10.589 8.78702C10.9955 9.11173 11.4517 9.36871 11.94 9.54802V12.748C10.8547 12.6998 9.80307 12.3569 8.898 11.756L8.889 11.762ZM18.322 11.141L19.322 12.141C19.8218 12.6325 20.4946 12.9079 21.1955 12.9079C21.8964 12.9079 22.5693 12.6325 23.069 12.141C22.6002 12.8666 22.4292 13.745 22.5914 14.5935C22.7537 15.4419 23.2369 16.1952 23.9403 16.6966C24.6438 17.1979 25.5135 17.4088 26.3685 17.2853C27.2234 17.1619 27.9979 16.7136 28.5308 16.0337C29.0637 15.3538 29.314 14.4946 29.2296 13.6349C29.1452 12.7752 28.7327 11.9811 28.0778 11.4177C27.4229 10.8544 26.576 10.5653 25.7133 10.6104C24.8506 10.6555 24.0386 11.0315 23.446 11.66C23.6692 11.3093 23.8054 10.9103 23.8432 10.4963C23.8809 10.0823 23.8191 9.66531 23.663 9.28002H32.543C32.6821 10.0943 33.0705 10.8453 33.6546 11.4294C34.2388 12.0135 34.9898 12.4019 35.804 12.541V15.304C34.9898 15.4431 34.2388 15.8316 33.6546 16.4157C33.0705 16.9998 32.6821 17.7508 32.543 18.565H19.175C19.0359 17.7508 18.6475 16.9998 18.0634 16.4157C17.4792 15.8316 16.7282 15.4431 15.914 15.304V12.544C16.8612 12.3854 17.7184 11.8878 18.326 11.144L18.322 11.141ZM23.868 13.926C23.868 13.5326 23.9847 13.1481 24.2032 12.821C24.4218 12.4939 24.7324 12.239 25.0958 12.0884C25.4593 11.9379 25.8592 11.8985 26.245 11.9752C26.6309 12.052 26.9853 12.2414 27.2634 12.5196C27.5416 12.7978 27.731 13.1522 27.8078 13.538C27.8845 13.9238 27.8451 14.3237 27.6946 14.6872C27.5441 15.0506 27.2891 15.3613 26.962 15.5798C26.6349 15.7984 26.2504 15.915 25.857 15.915C25.33 15.914 24.825 15.7038 24.4528 15.3307C24.0806 14.9576 23.8717 14.452 23.872 13.925L23.868 13.926ZM38.461 21.22H13.261V9.82602C14.3123 9.90474 15.3605 9.63673 16.245 9.06302L17.378 10.2C17.1327 10.5335 16.8125 10.8048 16.4433 10.992C16.074 11.1792 15.666 11.2772 15.252 11.278H14.589V16.578H15.252C15.9546 16.5793 16.6279 16.8593 17.1244 17.3565C17.6208 17.8537 17.8997 18.5274 17.9 19.23V19.893H33.819V19.23C33.8193 18.5268 34.0988 17.8524 34.596 17.3551C35.0933 16.8578 35.7677 16.5783 36.471 16.578H37.134V11.278H36.471C36.1223 11.2779 35.777 11.209 35.4549 11.0753C35.1328 10.9416 34.8402 10.7457 34.5939 10.4989C34.3476 10.252 34.1524 9.95898 34.0194 9.63659C33.8864 9.3142 33.8183 8.96876 33.819 8.62002V7.95702H22.655L21.329 6.63102H38.461V21.22Z" fill="#7E5AF6"/>
</svg>
