<svg xmlns="http://www.w3.org/2000/svg" width="79" height="79" viewBox="0 0 79 79">
  <g id="pitch-active" transform="translate(21209 -11855)">
    <rect id="Rectangle_2132" data-name="Rectangle 2132" width="79" height="79" transform="translate(-21209 11855)" fill="#0084e6"/>
    <g id="presentation" transform="translate(-21194 11873)">
      <path id="Path_5761" data-name="Path 5761" d="M43.677,0H22.543a4.434,4.434,0,0,0-4.428,4.428V17.986l-3.924-1.951c-.132-.066-.267-.128-.4-.188a6.692,6.692,0,1,0-9.233.409A8.919,8.919,0,0,0,0,24.053v4.529a4.436,4.436,0,0,0,3.019,4.2v7.878a1.409,1.409,0,0,0,1.409,1.409h9.057A1.409,1.409,0,0,0,14.9,40.658V24.823l4.512,2.256a3.867,3.867,0,0,0,5.128-1.617h5.053L24.238,40.176a1.409,1.409,0,0,0,2.649.963l5.7-15.677h.988l5.759,15.682a1.409,1.409,0,0,0,2.646-.972l-5.4-14.71h7.1a4.428,4.428,0,0,0,4.428-4.428V4.428A4.428,4.428,0,0,0,43.677,0ZM5.083,11.222A3.874,3.874,0,1,1,8.957,15.1,3.878,3.878,0,0,1,5.083,11.222ZM22.127,23.955l-.011.032a1.042,1.042,0,0,1-1.448.571c-2.68-1.341-6.552-3.275-6.552-3.275a1.41,1.41,0,0,0-2.039,1.261V39.249H5.838V31.6a1.41,1.41,0,0,0-1.409-1.409,1.611,1.611,0,0,1-1.61-1.61V24.053a6.14,6.14,0,0,1,6.138-6.138H10.2a6.141,6.141,0,0,1,2.731.643s6.991,3.476,8.771,4.363A.845.845,0,0,1,22.127,23.955Zm23.16-2.921a1.6,1.6,0,0,1-.471,1.138,1.62,1.62,0,0,1-1.139.471H24.842c0-.008,0-.015-.007-.023l3.5-6.995a1.409,1.409,0,1,0-2.521-1.261l-2.983,5.966-1.895-.943V4.428a1.612,1.612,0,0,1,1.61-1.61H43.677a1.619,1.619,0,0,1,1.139.472,1.6,1.6,0,0,1,.471,1.138Zm0,0" fill="#fff"/>
      <path id="Path_5762" data-name="Path 5762" d="M273.572,64.266h-15.1a1.409,1.409,0,1,0,0,2.819h15.1a1.409,1.409,0,1,0,0-2.819Zm0,0" transform="translate(-232.913 -58.227)" fill="#3dbfd8"/>
      <path id="Path_5763" data-name="Path 5763" d="M346.356,120.5h-7.548a1.409,1.409,0,1,0,0,2.819h7.548a1.409,1.409,0,1,0,0-2.819Zm0,0" transform="translate(-305.698 -109.178)" fill="#3dbfd8"/>
      <path id="Path_5764" data-name="Path 5764" d="M346.356,176.734h-7.548a1.409,1.409,0,1,0,0,2.819h7.548a1.409,1.409,0,1,0,0-2.819Zm0,0" transform="translate(-305.698 -160.129)" fill="#3dbfd8"/>
    </g>
  </g>
</svg>
