<svg xmlns="http://www.w3.org/2000/svg" width="20.3" height="20.324" viewBox="0 0 20.3 20.324"><path d="M14.988,10.781a.781.781,0,0,1-.781.781h-.755a.781.781,0,0,1,0-1.562h.755a.781.781,0,0,1,.781.781ZM10.73,10H5.392a.781.781,0,0,0,0,1.563H10.73a.781.781,0,1,0,0-1.562Zm3.88-4.609H5.392a.781.781,0,0,0,0,1.563H14.61a.781.781,0,0,0,0-1.562ZM20,3.125v10.7a3.129,3.129,0,0,1-3.125,3.125H8.769L6.262,19.453a1.871,1.871,0,0,1-3.188-1.321V16.946A3.129,3.129,0,0,1,0,13.822V3.125A3.129,3.129,0,0,1,3.126,0h13.75A3.129,3.129,0,0,1,20,3.125Zm-1.562,0a1.564,1.564,0,0,0-1.562-1.562H3.126A1.564,1.564,0,0,0,1.563,3.125v10.7a1.564,1.564,0,0,0,1.563,1.563,1.512,1.512,0,0,1,1.51,1.51v1.238a.306.306,0,0,0,.521.216l2.522-2.522a1.5,1.5,0,0,1,1.068-.442h8.129a1.564,1.564,0,0,0,1.563-1.562V3.125Z" transform="translate(0.149 0.15)" fill="#41bc75" stroke="#41bc75" stroke-width="0.3"/></svg>