<svg xmlns="http://www.w3.org/2000/svg" width="86" height="87" viewBox="0 0 86 87">
  <g id="Group_160325" data-name="Group 160325" transform="translate(3292 -5018)">
    <g id="Group_788" data-name="Group 788" transform="translate(17860 27830)">
      <rect id="Rectangle_1015" data-name="Rectangle 1015" width="86" height="87" rx="4" transform="translate(-21152 -22812)" fill="rgba(0,0,0,0)"/>
    </g>
    <g id="route" transform="translate(-3272 5023)">
      <g id="Group_160320" data-name="Group 160320" transform="translate(0 17)">
        <g id="Group_160319" data-name="Group 160319">
          <path id="Path_5742" data-name="Path 5742" d="M36.483,51.936a4.283,4.283,0,0,0-4.051,2.911H7.187a4.458,4.458,0,1,1,0-8.916h8.734a7.187,7.187,0,0,0,0-14.375H8.327A4.294,4.294,0,0,0,5.641,28.87V25.552H13.01a1.365,1.365,0,0,0,1.365-1.365V18.365A1.365,1.365,0,0,0,13.01,17H4.276a1.365,1.365,0,0,0-1.365,1.365V28.87a4.275,4.275,0,1,0,5.416,5.416h7.594a4.458,4.458,0,1,1,0,8.916H7.187a7.187,7.187,0,0,0,0,14.375H32.431a4.276,4.276,0,1,0,4.051-5.641ZM5.641,19.729h6v3.093h-6ZM4.276,34.468a1.547,1.547,0,1,1,1.547-1.547A1.548,1.548,0,0,1,4.276,34.468ZM36.483,57.759a1.547,1.547,0,1,1,1.547-1.547A1.548,1.548,0,0,1,36.483,57.759Z" transform="translate(0 -17)" fill="#0084e6"/>
        </g>
      </g>
      <g id="Group_160322" data-name="Group 160322" transform="translate(32.207 25.734)">
        <g id="Group_160321" data-name="Group 160321">
          <path id="Path_5743" data-name="Path 5743" d="M358.276,113a4.276,4.276,0,1,0,4.276,4.276A4.281,4.281,0,0,0,358.276,113Zm0,5.823a1.547,1.547,0,1,1,1.547-1.547A1.548,1.548,0,0,1,358.276,118.823Z" transform="translate(-354 -113)" fill="#3dc0d8"/>
        </g>
      </g>
      <g id="Group_160324" data-name="Group 160324" transform="translate(26.384 19.911)">
        <g id="Group_160323" data-name="Group 160323">
          <path id="Path_5744" data-name="Path 5744" d="M300.1,49a10.1,10.1,0,0,0-6.494,17.833l5.278,10.353a1.365,1.365,0,0,0,2.432,0l5.278-10.353A10.1,10.1,0,0,0,300.1,49Zm4.563,15.886a1.364,1.364,0,0,0-.37.451L300.1,73.562l-4.193-8.224a1.364,1.364,0,0,0-.37-.451,7.369,7.369,0,1,1,9.125,0Z" transform="translate(-290 -49)" fill="#3dc0d8"/>
        </g>
      </g>
    </g>
  </g>
</svg>
