<svg xmlns="http://www.w3.org/2000/svg" width="88" height="87" viewBox="0 0 88 87">
  <g id="sop-active" transform="translate(-0.101)">
    <rect id="Rectangle_2120" data-name="Rectangle 2120" width="88" height="87" transform="translate(0.101)" fill="#0084e6"/>
    <g id="_x39_2_Sop" transform="translate(18.378 18.476)">
      <g id="Group_1833" data-name="Group 1833" transform="translate(0 0)">
        <path id="Path_5713" data-name="Path 5713" d="M107.028,65.184A2.388,2.388,0,1,1,104.64,62.8,2.385,2.385,0,0,1,107.028,65.184Z" transform="translate(-92.122 -56.63)" fill="#4dcfe0"/>
        <path id="Path_5714" data-name="Path 5714" d="M362.207,65.184a2.388,2.388,0,1,0,2.388-2.388A2.385,2.385,0,0,0,362.207,65.184Z" transform="translate(-325.964 -56.63)" fill="#4dcfe0"/>
        <path id="Path_5715" data-name="Path 5715" d="M234.617,11.492A2.388,2.388,0,1,0,232.229,9.1,2.385,2.385,0,0,0,234.617,11.492Z" transform="translate(-209.042 -6.183)" fill="#4dcfe0"/>
        <path id="Path_5716" data-name="Path 5716" d="M362.207,404.054a2.388,2.388,0,1,1,2.388,2.388A2.385,2.385,0,0,1,362.207,404.054Z" transform="translate(-325.964 -361.459)" fill="#4dcfe0"/>
        <path id="Path_5717" data-name="Path 5717" d="M107.028,404.055a2.388,2.388,0,1,0-2.388,2.388A2.385,2.385,0,0,0,107.028,404.055Z" transform="translate(-92.122 -361.46)" fill="#4dcfe0"/>
        <path id="Path_5718" data-name="Path 5718" d="M234.616,457.747A2.388,2.388,0,1,0,237,460.135,2.385,2.385,0,0,0,234.616,457.747Z" transform="translate(-209.042 -411.906)" fill="#4dcfe0"/>
        <path id="Path_5719" data-name="Path 5719" d="M457.744,234.619a2.388,2.388,0,1,0,2.388-2.388A2.385,2.385,0,0,0,457.744,234.619Z" transform="translate(-411.904 -209.044)" fill="#4dcfe0"/>
        <path id="Path_5720" data-name="Path 5720" d="M11.49,234.618A2.388,2.388,0,1,0,9.1,237.006,2.385,2.385,0,0,0,11.49,234.618Z" transform="translate(-6.181 -209.043)" fill="#4dcfe0"/>
        <circle id="Ellipse_120" data-name="Ellipse 120" cx="13.112" cy="13.112" r="13.112" transform="translate(8.448 32.673) rotate(-67.486)" fill="#0084e6"/>
        <g id="Group_1832" data-name="Group 1832" transform="translate(0 0)">
          <path id="Path_5721" data-name="Path 5721" d="M173.671,217.483h2.235a.533.533,0,0,0,0-1.066h-2.235a2.255,2.255,0,0,0,0,4.509h.513a1.189,1.189,0,0,1,0,2.378h-2.235a.533.533,0,0,0,0,1.066h2.235a2.254,2.254,0,0,0,0-4.509h-.513a1.189,1.189,0,1,1,0-2.378Z" transform="translate(-154.338 -194.819)" fill="#4dcfe0" stroke="#4dcfe0" stroke-width="0.5"/>
          <path id="Path_5722" data-name="Path 5722" d="M233.5,216.433a2.515,2.515,0,0,0-2.512,2.512v2.925a2.512,2.512,0,0,0,5.024,0v-2.925A2.515,2.515,0,0,0,233.5,216.433Zm1.446,5.437a1.446,1.446,0,0,1-2.893,0v-2.925a1.446,1.446,0,1,1,2.893,0v2.925Z" transform="translate(-207.922 -194.833)" fill="#4dcfe0" stroke="#4dcfe0" stroke-width="0.5"/>
          <path id="Path_5723" data-name="Path 5723" d="M293.357,216.417h-2.234a.532.532,0,0,0-.533.533v6.887a.533.533,0,1,0,1.066,0v-2.911h1.7a2.255,2.255,0,0,0,0-4.509Zm0,3.443h-1.7v-2.378h1.7a1.189,1.189,0,0,1,0,2.378Z" transform="translate(-261.541 -194.819)" fill="#4dcfe0" stroke="#4dcfe0" stroke-width="0.5"/>
          <path id="Path_5724" data-name="Path 5724" d="M49.639,24.065a2.924,2.924,0,0,0-2.87,2.39H40.617a13.664,13.664,0,0,0-7.776-11.791V10.5h4.331a2.921,2.921,0,1,0,0-1.066H32.308a.532.532,0,0,0-.533.533v4.246a13.56,13.56,0,0,0-4.257-.857V7.2a2.92,2.92,0,1,0-1.066,0v6.153a13.563,13.563,0,0,0-4.257.856V9.964a.532.532,0,0,0-.533-.533H16.8a2.921,2.921,0,1,0,0,1.066H21.13v4.166a13.663,13.663,0,0,0-7.776,11.791H7.2a2.92,2.92,0,1,0,0,1.066h6.153A13.664,13.664,0,0,0,21.13,39.308v4.164H16.8a2.921,2.921,0,1,0,0,1.066h4.864A.532.532,0,0,0,22.2,44V39.761a13.563,13.563,0,0,0,4.257.856V46.77a2.92,2.92,0,1,0,1.066,0V40.617a13.56,13.56,0,0,0,4.257-.857V44a.532.532,0,0,0,.533.533h4.864a2.92,2.92,0,1,0,0-1.066H32.841V39.308A13.664,13.664,0,0,0,40.617,27.52H46.77a2.92,2.92,0,1,0,2.87-3.455ZM40.042,8.11a1.855,1.855,0,1,1-1.855,1.855A1.857,1.857,0,0,1,40.042,8.11ZM13.929,11.82a1.855,1.855,0,1,1,1.855-1.855A1.857,1.857,0,0,1,13.929,11.82Zm0,34.041a1.855,1.855,0,1,1,1.855-1.855A1.857,1.857,0,0,1,13.929,45.861Zm26.114-3.71a1.855,1.855,0,1,1-1.855,1.855A1.857,1.857,0,0,1,40.042,42.151ZM25.131,4.332a1.855,1.855,0,1,1,1.855,1.855A1.857,1.857,0,0,1,25.131,4.332ZM4.331,28.84a1.855,1.855,0,1,1,1.855-1.859s0,0,0,.006,0,0,0,0A1.856,1.856,0,0,1,4.331,28.84Zm24.509,20.8a1.855,1.855,0,1,1-1.855-1.855A1.857,1.857,0,0,1,28.84,49.639ZM26.985,39.565a12.579,12.579,0,0,1-.007-25.159h.014a12.579,12.579,0,0,1-.007,25.159ZM49.639,28.84a1.857,1.857,0,0,1-1.855-1.847s0,0,0-.006,0,0,0-.008a1.855,1.855,0,1,1,1.855,1.86Z" transform="translate(-1.411 -1.411)" fill="#fff" stroke="#fff" stroke-width="0.5"/>
        </g>
      </g>
    </g>
  </g>
</svg>
