<svg xmlns="http://www.w3.org/2000/svg" width="88" height="87" viewBox="0 0 88 87">
  <g id="sop" transform="translate(-0.101)">
    <rect id="Rectangle_2121" data-name="Rectangle 2121" width="88" height="87" transform="translate(0.101)" fill="#f4f8fc" opacity="0"/>
    <g id="_x39_2_Sop" transform="translate(18.393 13.23)">
      <g id="Group_1833" data-name="Group 1833" transform="translate(0 0)">
        <path id="Path_5713" data-name="Path 5713" d="M107.025,65.182a2.386,2.386,0,1,1-2.386-2.386A2.384,2.384,0,0,1,107.025,65.182Z" transform="translate(-92.128 -56.633)" fill="#8fdfeb"/>
        <path id="Path_5714" data-name="Path 5714" d="M362.207,65.182a2.386,2.386,0,1,0,2.386-2.386A2.384,2.384,0,0,0,362.207,65.182Z" transform="translate(-325.985 -56.633)" fill="#8fdfeb"/>
        <path id="Path_5715" data-name="Path 5715" d="M234.615,11.489A2.386,2.386,0,1,0,232.229,9.1,2.384,2.384,0,0,0,234.615,11.489Z" transform="translate(-209.056 -6.183)" fill="#8fdfeb"/>
        <path id="Path_5716" data-name="Path 5716" d="M362.207,404.052a2.386,2.386,0,1,1,2.386,2.386A2.384,2.384,0,0,1,362.207,404.052Z" transform="translate(-325.985 -361.483)" fill="#8fdfeb"/>
        <path id="Path_5717" data-name="Path 5717" d="M107.025,404.053a2.386,2.386,0,1,0-2.386,2.386A2.384,2.384,0,0,0,107.025,404.053Z" transform="translate(-92.128 -361.484)" fill="#8fdfeb"/>
        <path id="Path_5718" data-name="Path 5718" d="M234.614,457.747A2.386,2.386,0,1,0,237,460.133,2.384,2.384,0,0,0,234.614,457.747Z" transform="translate(-209.055 -411.934)" fill="#8fdfeb"/>
        <path id="Path_5719" data-name="Path 5719" d="M457.744,234.617a2.386,2.386,0,1,0,2.386-2.386A2.384,2.384,0,0,0,457.744,234.617Z" transform="translate(-411.931 -209.058)" fill="#8fdfeb"/>
        <path id="Path_5720" data-name="Path 5720" d="M11.487,234.616A2.386,2.386,0,1,0,9.1,237,2.384,2.384,0,0,0,11.487,234.616Z" transform="translate(-6.182 -209.057)" fill="#8fdfeb"/>
        <circle id="Ellipse_120" data-name="Ellipse 120" cx="13.104" cy="13.104" r="13.104" transform="translate(8.443 32.654) rotate(-67.486)" fill="#fff" opacity="0"/>
        <g id="Group_1832" data-name="Group 1832" transform="translate(0 0)">
          <path id="Path_5721" data-name="Path 5721" d="M173.669,217.482H175.9a.532.532,0,0,0,0-1.065h-2.233a2.253,2.253,0,0,0,0,4.506h.513a1.188,1.188,0,0,1,0,2.376h-2.233a.532.532,0,1,0,0,1.065h2.233a2.253,2.253,0,0,0,0-4.506h-.513a1.188,1.188,0,1,1,0-2.376Z" transform="translate(-154.349 -194.832)" fill="#00a7fe" stroke="#00a7fe" stroke-width="0.5"/>
          <path id="Path_5722" data-name="Path 5722" d="M233.494,216.433a2.514,2.514,0,0,0-2.511,2.511v2.923a2.511,2.511,0,0,0,5.021,0v-2.923A2.514,2.514,0,0,0,233.494,216.433Zm1.446,5.434a1.446,1.446,0,0,1-2.891,0v-2.923a1.446,1.446,0,0,1,2.891,0v2.923Z" transform="translate(-207.935 -194.846)" fill="#00a7fe" stroke="#00a7fe" stroke-width="0.5"/>
          <path id="Path_5723" data-name="Path 5723" d="M293.355,216.417h-2.233a.532.532,0,0,0-.533.533v6.883a.533.533,0,1,0,1.065,0v-2.909h1.7a2.253,2.253,0,0,0,0-4.506Zm0,3.441h-1.7v-2.376h1.7a1.188,1.188,0,0,1,0,2.376Z" transform="translate(-261.558 -194.832)" fill="#00a7fe" stroke="#00a7fe" stroke-width="0.5"/>
          <path id="Path_5724" data-name="Path 5724" d="M49.611,24.051a2.922,2.922,0,0,0-2.869,2.388H40.593a13.656,13.656,0,0,0-7.771-11.784V10.492h4.329a2.919,2.919,0,1,0,0-1.065H32.29a.532.532,0,0,0-.532.532V14.2a13.552,13.552,0,0,0-4.255-.856V7.2a2.919,2.919,0,1,0-1.065,0v6.149a13.555,13.555,0,0,0-4.255.856V9.959a.532.532,0,0,0-.532-.532H16.789a2.919,2.919,0,1,0,0,1.065h4.329v4.164A13.655,13.655,0,0,0,13.347,26.44H7.2a2.918,2.918,0,1,0,0,1.065h6.149a13.656,13.656,0,0,0,7.771,11.781v4.162H16.789a2.919,2.919,0,1,0,0,1.065h4.861a.532.532,0,0,0,.532-.532V39.738a13.555,13.555,0,0,0,4.255.856v6.149a2.919,2.919,0,1,0,1.065,0V40.594a13.552,13.552,0,0,0,4.255-.856v4.242a.532.532,0,0,0,.532.532h4.861a2.919,2.919,0,1,0,0-1.065H32.822V39.285A13.656,13.656,0,0,0,40.593,27.5h6.149a2.918,2.918,0,1,0,2.868-3.453ZM40.019,8.106A1.854,1.854,0,1,1,38.165,9.96a1.856,1.856,0,0,1,1.854-1.854Zm-26.1,3.708A1.854,1.854,0,1,1,15.775,9.96,1.856,1.856,0,0,1,13.921,11.814Zm0,34.021a1.854,1.854,0,1,1,1.854-1.854A1.856,1.856,0,0,1,13.921,45.835Zm26.1-3.708a1.854,1.854,0,1,1-1.854,1.854A1.856,1.856,0,0,1,40.019,42.127Zm-14.9-37.8A1.854,1.854,0,1,1,26.97,6.184,1.856,1.856,0,0,1,25.116,4.33ZM4.33,28.824a1.854,1.854,0,1,1,1.853-1.857s0,0,0,.006,0,0,0,0A1.855,1.855,0,0,1,4.33,28.824ZM28.824,49.611a1.854,1.854,0,1,1-1.854-1.854A1.856,1.856,0,0,1,28.824,49.611ZM26.97,39.542A12.572,12.572,0,0,1,26.963,14.4h.014a12.572,12.572,0,0,1-.007,25.144Zm22.64-10.718a1.856,1.856,0,0,1-1.853-1.846s0,0,0-.006,0,0,0-.008a1.854,1.854,0,1,1,1.854,1.859Z" transform="translate(-1.411 -1.411)" fill="#116fff" stroke="#00a7fe" stroke-width="1"/>
        </g>
      </g>
    </g>
  </g>
</svg>
