<svg width="47" height="40" viewBox="0 0 47 40" fill="none" xmlns="http://www.w3.org/2000/svg">
<path fill-rule="evenodd" clip-rule="evenodd" d="M13.8156 29.7101C14.3318 28.5277 15.1816 27.5215 16.261 26.8148C17.3404 26.108 18.6024 25.7314 19.8926 25.7311H26.1336C27.4237 25.7314 28.6858 26.108 29.7651 26.8148C30.8445 27.5215 31.6943 28.5277 32.2106 29.7101C32.3347 29.9945 32.5667 30.218 32.8556 30.3314C33.1445 30.4447 33.4666 30.4387 33.7511 30.3146C34.0355 30.1904 34.259 29.9584 34.3724 29.6695C34.4857 29.3806 34.4797 29.0585 34.3556 28.7741C33.6574 27.1739 32.5076 25.8123 31.0469 24.8561C29.5863 23.8999 27.8783 23.3908 26.1326 23.3911H19.8926C18.1468 23.3908 16.4389 23.8999 14.9782 24.8561C13.5176 25.8123 12.3677 27.1739 11.6696 28.7741C11.5454 29.0585 11.5394 29.3806 11.6528 29.6695C11.7661 29.9584 11.9896 30.1904 12.2741 30.3146C12.5585 30.4387 12.8806 30.4447 13.1695 30.3314C13.4584 30.218 13.6904 29.9945 13.8146 29.7101H13.8156Z" fill="white"/>
<path fill-rule="evenodd" clip-rule="evenodd" d="M23.0136 7.78806C21.2391 7.78806 19.5044 8.31425 18.029 9.30011C16.5536 10.286 15.4036 11.6872 14.7245 13.3266C14.0455 14.966 13.8678 16.77 14.214 18.5104C14.5602 20.2508 15.4147 21.8495 16.6694 23.1042C17.9242 24.359 19.5228 25.2135 21.2632 25.5597C23.0036 25.9058 24.8076 25.7282 26.447 25.0491C28.0864 24.37 29.4877 23.2201 30.4735 21.7446C31.4594 20.2692 31.9856 18.5345 31.9856 16.7601C31.9848 14.3808 31.0393 12.0992 29.3569 10.4168C27.6744 8.73437 25.3928 7.78885 23.0136 7.78806ZM23.0136 10.1281C24.3251 10.1281 25.6071 10.517 26.6976 11.2456C27.788 11.9742 28.6379 13.0098 29.1398 14.2215C29.6417 15.4331 29.773 16.7664 29.5172 18.0527C29.2613 19.339 28.6298 20.5205 27.7024 21.4479C26.775 22.3752 25.5935 23.0068 24.3072 23.2626C23.0209 23.5185 21.6877 23.3872 20.476 22.8853C19.2643 22.3834 18.2287 21.5335 17.5001 20.443C16.7715 19.3526 16.3826 18.0705 16.3826 16.7591C16.3834 15.0006 17.0822 13.3145 18.3256 12.0711C19.569 10.8277 21.2552 10.1289 23.0136 10.1281Z" fill="white"/>
<path fill-rule="evenodd" clip-rule="evenodd" d="M40.5676 19.8801C40.5681 24.0217 39.1043 28.0301 36.435 31.1967C33.7656 34.3633 30.0627 36.4842 25.9807 37.1845C21.8988 37.8847 17.7007 37.1192 14.1286 35.0233C10.5565 32.9274 7.84044 29.636 6.46057 25.7311C6.35713 25.4384 6.14167 25.1988 5.86159 25.065C5.5815 24.9312 5.25973 24.9141 4.96707 25.0176C4.6744 25.121 4.43481 25.3365 4.301 25.6166C4.1672 25.8966 4.15013 26.2184 4.25357 26.5111C5.82221 30.9312 8.90164 34.6552 12.9485 37.026C16.9954 39.3968 21.7496 40.262 26.3722 39.469C30.9949 38.676 35.1889 36.2757 38.2142 32.6917C41.2396 29.1077 42.9018 24.5703 42.9076 19.8801C42.9076 19.5698 42.7843 19.2722 42.5649 19.0528C42.3455 18.8334 42.0479 18.7101 41.7376 18.7101C41.4273 18.7101 41.1297 18.8334 40.9103 19.0528C40.6908 19.2722 40.5676 19.5698 40.5676 19.8801Z" fill="white"/>
<path fill-rule="evenodd" clip-rule="evenodd" d="M5.45957 19.8811C5.45706 15.738 6.91997 11.7275 9.58952 8.55911C12.2591 5.39071 15.9632 3.26859 20.0466 2.56814C24.1301 1.86769 28.3297 2.63406 31.9025 4.73168C35.4754 6.8293 38.1912 10.123 39.5696 14.0301C39.6756 14.3191 39.8914 14.5547 40.17 14.6858C40.4486 14.8168 40.7677 14.8328 41.058 14.7301C41.3483 14.6275 41.5864 14.4145 41.7207 14.1375C41.8551 13.8604 41.8748 13.5416 41.7756 13.2501C40.2079 8.82857 37.1286 5.10305 33.0813 2.73112C29.0339 0.359197 24.2787 -0.506616 19.6551 0.286518C15.0314 1.07965 10.8366 3.48073 7.81116 7.06593C4.78567 10.6511 3.12404 15.1899 3.11957 19.8811C3.11957 20.1914 3.24284 20.489 3.46225 20.7084C3.68167 20.9278 3.97926 21.0511 4.28957 21.0511C4.59987 21.0511 4.89747 20.9278 5.11688 20.7084C5.3363 20.489 5.45957 20.1914 5.45957 19.8811Z" fill="white"/>
<path fill-rule="evenodd" clip-rule="evenodd" d="M0.342555 17.5871L3.46355 20.7081C3.57212 20.8167 3.70104 20.9029 3.84294 20.9618C3.98484 21.0206 4.13695 21.0509 4.29055 21.0509C4.44416 21.0509 4.59627 21.0206 4.73817 20.9618C4.88007 20.9029 5.00899 20.8167 5.11755 20.7081L8.23855 17.5871C8.45789 17.3677 8.58111 17.0703 8.58111 16.7601C8.58111 16.4499 8.45789 16.1524 8.23855 15.9331C8.01922 15.7137 7.72174 15.5905 7.41155 15.5905C7.10137 15.5905 6.80389 15.7137 6.58455 15.9331L4.29055 18.2251L1.99655 15.9331C1.77722 15.7137 1.47974 15.5905 1.16955 15.5905C0.85937 15.5905 0.561889 15.7137 0.342555 15.9331C0.123221 16.1524 4.62212e-09 16.4499 0 16.7601C-4.62212e-09 17.0703 0.123221 17.3677 0.342555 17.5871Z" fill="white"/>
<path fill-rule="evenodd" clip-rule="evenodd" d="M39.4435 23.8281L41.7375 21.5361L44.0315 23.8281C44.2509 24.0474 44.5484 24.1706 44.8585 24.1706C45.1687 24.1706 45.4662 24.0474 45.6855 23.8281C45.9049 23.6087 46.0281 23.3113 46.0281 23.0011C46.0281 22.6909 45.9049 22.3934 45.6855 22.1741L42.5645 19.0531C42.456 18.9444 42.3271 18.8582 42.1852 18.7994C42.0433 18.7406 41.8912 18.7103 41.7375 18.7103C41.5839 18.7103 41.4318 18.7406 41.2899 18.7994C41.148 18.8582 41.0191 18.9444 40.9105 19.0531L37.7895 22.1741C37.5702 22.3934 37.447 22.6909 37.447 23.0011C37.447 23.3113 37.5702 23.6087 37.7895 23.8281C38.0089 24.0474 38.3064 24.1706 38.6165 24.1706C38.9267 24.1706 39.2242 24.0474 39.4435 23.8281Z" fill="white"/>
</svg>
