<svg xmlns="http://www.w3.org/2000/svg" xmlns:xlink="http://www.w3.org/1999/xlink" width="44.51" height="26.987" viewBox="0 0 44.51 26.987">
  <defs>
    <linearGradient id="linear-gradient" x1="0.499" x2="0.499" y2="1" gradientUnits="objectBoundingBox">
      <stop offset="0" stop-color="#00efd1"/>
      <stop offset="1" stop-color="#00acea"/>
    </linearGradient>
  </defs>
  <path id="teammate" d="M40.956,33.07a6.266,6.266,0,0,0,1.968-4.545A6.325,6.325,0,1,0,32.195,33.07a8.9,8.9,0,0,0-2.483,1.874,6.506,6.506,0,0,0,.375-2.155,6.325,6.325,0,1,0-12.65,0,7.01,7.01,0,0,0,.375,2.2,8.9,8.9,0,0,0-2.483-1.874A6.266,6.266,0,0,0,17.3,28.572a6.359,6.359,0,0,0-6.325-6.325,6.279,6.279,0,0,0-6.278,6.278A6.187,6.187,0,0,0,6.66,33.07,9.465,9.465,0,0,0,1.6,41.41v2.108a1.38,1.38,0,0,0,1.406,1.406,1.38,1.38,0,0,0,1.406-1.406V41.41A6.675,6.675,0,0,1,10.549,34.8c.141,0,.328.047.469.047a1.922,1.922,0,0,0,.515-.047,6.511,6.511,0,0,1,5.622,4.217,9.463,9.463,0,0,0-2.764,6.653v2.108a1.406,1.406,0,1,0,2.811,0V45.673a6.6,6.6,0,0,1,6.138-6.559h.937a6.75,6.75,0,0,1,3.655,1.406c.047.047.094.047.141.094a6.622,6.622,0,0,1,2.389,5.06v2.108a1.406,1.406,0,1,0,2.811,0V45.673a9.38,9.38,0,0,0-2.764-6.653,6.663,6.663,0,0,1,5.669-4.17c.187,0,.328.047.515.047a1.594,1.594,0,0,0,.469-.047A6.609,6.609,0,0,1,43.3,41.457v2.108a1.406,1.406,0,1,0,2.811,0V41.457A9.751,9.751,0,0,0,40.956,33.07ZM7.5,28.525a3.514,3.514,0,0,1,7.028,0,3.5,3.5,0,0,1-3.092,3.467H10.6A3.5,3.5,0,0,1,7.5,28.525Zm16.3.75a3.54,3.54,0,0,1,3.514,3.514,3.5,3.5,0,0,1-3.092,3.467h-.843a3.5,3.5,0,0,1-3.092-3.467A3.54,3.54,0,0,1,23.808,29.275Zm9.277-.75a3.514,3.514,0,1,1,7.028,0,3.5,3.5,0,0,1-3.092,3.467h-.843A3.5,3.5,0,0,1,33.085,28.525Z" transform="translate(-1.6 -22.2)" fill="url(#linear-gradient)"/>
</svg>
