<svg xmlns="http://www.w3.org/2000/svg" width="39.037" height="39.037" viewBox="0 0 39.037 39.037">
  <g id="total-project" transform="translate(0.125 0.125)">
    <g id="Group_175" data-name="Group 175" transform="translate(11.805)">
      <g id="Group_174" data-name="Group 174">
        <path id="Path_222" data-name="Path 222" d="M160.3,0H153.55a4.221,4.221,0,0,0-4.216,4.216v6.746a4.221,4.221,0,0,0,4.216,4.216H160.3a4.221,4.221,0,0,0,4.216-4.216V4.216A4.221,4.221,0,0,0,160.3,0Zm2.53,10.962a2.533,2.533,0,0,1-2.53,2.53H153.55a2.533,2.533,0,0,1-2.53-2.53V4.216a2.533,2.533,0,0,1,2.53-2.53H160.3a2.533,2.533,0,0,1,2.53,2.53Z" transform="translate(-149.334 0)" fill="#fff" stroke="#fefefe" stroke-width="0.25"/>
      </g>
    </g>
    <g id="Group_177" data-name="Group 177" transform="translate(15.178 30.355)">
      <g id="Group_176" data-name="Group 176">
        <path id="Path_223" data-name="Path 223" d="M198.24,384h-4.047A2.194,2.194,0,0,0,192,386.192v4.047a2.194,2.194,0,0,0,2.192,2.192h4.047a2.194,2.194,0,0,0,2.192-2.192v-4.047A2.194,2.194,0,0,0,198.24,384Zm.506,6.24a.506.506,0,0,1-.506.506h-4.047a.506.506,0,0,1-.506-.506v-4.047a.506.506,0,0,1,.506-.506h4.047a.506.506,0,0,1,.506.506Z" transform="translate(-192 -384)" fill="#fff" stroke="#fefefe" stroke-width="0.25"/>
      </g>
    </g>
    <g id="Group_179" data-name="Group 179" transform="translate(30.355 30.355)">
      <g id="Group_178" data-name="Group 178">
        <path id="Path_224" data-name="Path 224" d="M390.24,384h-4.047A2.194,2.194,0,0,0,384,386.192v4.047a2.194,2.194,0,0,0,2.192,2.192h4.047a2.194,2.194,0,0,0,2.192-2.192v-4.047A2.194,2.194,0,0,0,390.24,384Zm.506,6.24a.506.506,0,0,1-.506.506h-4.047a.506.506,0,0,1-.506-.506v-4.047a.506.506,0,0,1,.506-.506h4.047a.506.506,0,0,1,.506.506Z" transform="translate(-384 -384)" fill="#fff" stroke="#fefefe" stroke-width="0.25"/>
      </g>
    </g>
    <g id="Group_181" data-name="Group 181" transform="translate(0 30.355)">
      <g id="Group_180" data-name="Group 180">
        <path id="Path_225" data-name="Path 225" d="M6.24,384H2.192A2.194,2.194,0,0,0,0,386.192v4.047a2.194,2.194,0,0,0,2.192,2.192H6.24a2.194,2.194,0,0,0,2.192-2.192v-4.047A2.194,2.194,0,0,0,6.24,384Zm.506,6.24a.506.506,0,0,1-.506.506H2.192a.506.506,0,0,1-.506-.506v-4.047a.506.506,0,0,1,.506-.506H6.24a.506.506,0,0,1,.506.506Z" transform="translate(0 -384)" fill="#fff" stroke="#fefefe" stroke-width="0.25"/>
      </g>
    </g>
    <path id="Union_1" data-name="Union 1" d="M347.354-9724.038a4.219,4.219,0,0,0-4.214-4.217h-9.277v4.217a.843.843,0,0,1-.843.843.844.844,0,0,1-.843-.843v-4.217H322.9a4.221,4.221,0,0,0-4.217,4.217.844.844,0,0,1-.843.843.843.843,0,0,1-.843-.843,5.908,5.908,0,0,1,5.9-5.9h9.274v-4.217a.844.844,0,0,1,.843-.843.843.843,0,0,1,.843.843v4.217h9.277a5.908,5.908,0,0,1,5.9,5.9.844.844,0,0,1-.843.843A.845.845,0,0,1,347.354-9724.038Z" transform="translate(-313.627 9751.864)" fill="#fff" stroke="#fefefe" stroke-width="0.25" opacity="0.8"/>
  </g>
</svg>
