<svg xmlns="http://www.w3.org/2000/svg" width="20" height="18" viewBox="0 0 20 18"><g transform="translate(-2 -2)"><path d="M6.05,2a.81.81,0,0,1,.81.81v.81h6.48V2.81a.81.81,0,0,1,1.62,0v.81h.81A2.43,2.43,0,0,1,18.2,6.05v5.67a.81.81,0,1,1-1.62,0V8.48H3.62v7.29a.81.81,0,0,0,.81.81H8.48a.81.81,0,1,1,0,1.62H4.43A2.43,2.43,0,0,1,2,15.77V6.05A2.43,2.43,0,0,1,4.43,3.62h.81V2.81A.81.81,0,0,1,6.05,2ZM4.43,5.24a.81.81,0,0,0-.81.81v.81H16.58V6.05a.81.81,0,0,0-.81-.81Z" fill="#1884e6" fill-rule="evenodd"/><path d="M18.293,17.536a.838.838,0,0,1,0-1.273,1.08,1.08,0,0,1,1.414,0l2,1.8a.838.838,0,0,1,0,1.273l-2,1.8a1.08,1.08,0,0,1-1.414,0,.838.838,0,0,1,0-1.273L19.586,18.7Z" transform="translate(0 -1.4)" fill="#1884e6"/><path d="M13.293,16.264a.838.838,0,0,0,0,1.273L14.586,18.7l-1.293,1.164a.838.838,0,0,0,0,1.273,1.08,1.08,0,0,0,1.414,0l2-1.8a.838.838,0,0,0,0-1.273l-2-1.8A1.08,1.08,0,0,0,13.293,16.264Z" transform="translate(0 -1.4)" fill="#1884e6"/></g></svg>