<svg xmlns="http://www.w3.org/2000/svg" width="23.006" height="20.352" viewBox="0 0 23.006 20.352"><g transform="translate(0.181 -29.552)"><path d="M17.746,117.47C11.578,114.46,3.319,116.3.193,121.7L0,122.039a10.615,10.615,0,0,0,4.9,4.569,14.717,14.717,0,0,0,6.423,1.444,14.717,14.717,0,0,0,6.423-1.444,10.833,10.833,0,0,0,4.705-4.234l.194-.335A10.616,10.616,0,0,0,17.746,117.47ZM16,122.039a4.676,4.676,0,1,1-4.676-4.676A4.682,4.682,0,0,1,16,122.039Zm-14.444,0a10.21,10.21,0,0,1,5.19-3.894,6,6,0,0,0,0,7.789,10.21,10.21,0,0,1-5.19-3.894ZM15.9,125.933a6,6,0,0,0,0-7.789,10.21,10.21,0,0,1,5.19,3.894A10.21,10.21,0,0,1,15.9,125.933Z" transform="translate(0 -82.456)" fill="#41bc75" stroke="#41bc75" stroke-width="0.3"/><path d="M196.891,196.33a2.672,2.672,0,1,0-2.672-2.672A2.675,2.675,0,0,0,196.891,196.33Zm0-4.008a1.336,1.336,0,1,1-1.336,1.336A1.338,1.338,0,0,1,196.891,192.322Z" transform="translate(-185.569 -154.076)" fill="#41bc75" stroke="#41bc75" stroke-width="0.3"/><path d="M0,0H2V1.336H0Z" transform="translate(13.343 31.699) rotate(-78.814)" fill="#41bc75" stroke="#41bc75" stroke-width="0.3"/><path d="M0,0H2V1.336H0Z" transform="matrix(0.552, -0.834, 0.834, 0.552, 18.382, 33.488)" fill="#41bc75" stroke="#41bc75" stroke-width="0.3"/><path d="M0,0H1.336V2H0Z" transform="translate(7.644 29.988) rotate(-11.186)" fill="#41bc75" stroke="#41bc75" stroke-width="0.3"/><path d="M0,0H1.336V2H0Z" transform="matrix(0.834, -0.552, 0.552, 0.834, 2.081, 32.556)" fill="#41bc75" stroke="#41bc75" stroke-width="0.3"/><path d="M0,0H2V1.336H0Z" transform="translate(7.645 49.469) rotate(-78.814)" fill="#41bc75" stroke="#41bc75" stroke-width="0.3"/><path d="M0,0H2V1.336H0Z" transform="matrix(0.552, -0.834, 0.834, 0.552, 2.082, 46.899)" fill="#41bc75" stroke="#41bc75" stroke-width="0.3"/><path d="M0,0H1.336V2H0Z" transform="translate(13.344 47.75) rotate(-11.186)" fill="#41bc75" stroke="#41bc75" stroke-width="0.3"/><path d="M0,0H1.336V2H0Z" transform="matrix(0.834, -0.552, 0.552, 0.834, 18.384, 45.964)" fill="#41bc75" stroke="#41bc75" stroke-width="0.3"/></g></svg>