<svg xmlns="http://www.w3.org/2000/svg" width="36.5" height="36.5" viewBox="0 0 36.5 36.5">
  <g id="work-progress" transform="translate(0.75 0.75)">
    <path id="Path_5576" data-name="Path 5576" d="M212.088,0a3.221,3.221,0,0,0-3.222,3.222v2.2a3.222,3.222,0,1,0,6.444,0v-2.2A3.221,3.221,0,0,0,212.088,0Z" transform="translate(-194.588)" fill="#fff" stroke="#f39c12" stroke-width="1.5"/>
    <path id="Path_5577" data-name="Path 5577" d="M212.088,385.6a3.221,3.221,0,0,0-3.222,3.222v2.2a3.222,3.222,0,0,0,6.444,0v-2.2A3.221,3.221,0,0,0,212.088,385.6Z" transform="translate(-194.588 -359.241)" fill="#fff" stroke="#f39c12" stroke-width="1.5" opacity="0.8"/>
    <path id="Path_5578" data-name="Path 5578" d="M391.018,208.866h-2.2a3.222,3.222,0,1,0,0,6.444h2.2a3.222,3.222,0,1,0,0-6.444Z" transform="translate(-359.24 -194.588)" fill="#fff" stroke="#f39c12" stroke-width="1.5" opacity="0.6"/>
    <path id="Path_5579" data-name="Path 5579" d="M8.641,212.087a3.225,3.225,0,0,0-3.221-3.221h-2.2a3.222,3.222,0,1,0,0,6.444h2.2a3.22,3.22,0,0,0,3.222-3.223Z" transform="translate(0 -194.588)" fill="#fff" stroke="#f39c12" stroke-width="1.5"/>
    <path id="Path_5580" data-name="Path 5580" d="M334.985,68.255a3.194,3.194,0,0,0,4.51-.006l1.574-1.574a3.225,3.225,0,0,0,0-4.555l-.024-.023a3.222,3.222,0,0,0-4.534.022l-1.534,1.534a3.254,3.254,0,0,0,0,4.595Z" transform="translate(-311.194 -56.993)" fill="#fff" stroke="#f39c12" stroke-width="1.5" opacity="0.4"/>
    <path id="Path_5581" data-name="Path 5581" d="M68.249,334.978a3.254,3.254,0,0,0-4.6,0l-1.534,1.534a3.222,3.222,0,1,0,4.557,4.557L68.25,339.5h0a3.194,3.194,0,0,0,.006-4.51Z" transform="translate(-56.995 -311.194)" fill="#fff" stroke="#f39c12" stroke-width="1.5" opacity="0.9"/>
    <path id="Path_5582" data-name="Path 5582" d="M339.5,334.6a3.194,3.194,0,0,0-4.51-.007l-.008.007a3.254,3.254,0,0,0,0,4.6l1.534,1.534a3.222,3.222,0,0,0,4.534.022l.024-.023a3.225,3.225,0,0,0,0-4.555Z" transform="translate(-311.194 -310.855)" fill="#fff" stroke="#f39c12" stroke-width="1.5" opacity="0.7"/>
    <path id="Path_5583" data-name="Path 5583" d="M63.689,68.228a3.222,3.222,0,0,0,4.557-4.556l-1.554-1.554a3.222,3.222,0,0,0-4.534-.023l-.024.023a3.225,3.225,0,0,0,0,4.555Z" transform="translate(-57.009 -56.992)" fill="#fff" stroke="#f39c12" stroke-width="1.5"/>
  </g>
</svg>
