<?xml version="1.0" encoding="UTF-8" standalone="no"?>
<!-- Created with Inkscape (http://www.inkscape.org/) -->

<svg
   xmlns:dc="http://purl.org/dc/elements/1.1/"
   xmlns:cc="http://creativecommons.org/ns#"
   xmlns:rdf="http://www.w3.org/1999/02/22-rdf-syntax-ns#"
   xmlns:svg="http://www.w3.org/2000/svg"
   xmlns="http://www.w3.org/2000/svg"
   xmlns:sodipodi="http://sodipodi.sourceforge.net/DTD/sodipodi-0.dtd"
   xmlns:inkscape="http://www.inkscape.org/namespaces/inkscape"
   width="107.03329mm"
   height="107.05769mm"
   viewBox="0 0 107.03329 107.05769"
   version="1.1"
   id="svg8"
   inkscape:version="0.92.3 (2405546, 2018-03-11)"
   sodipodi:docname="add_new.svg">
  <defs
     id="defs2" />
  <sodipodi:namedview
     id="base"
     pagecolor="#ffffff"
     bordercolor="#666666"
     borderopacity="1.0"
     inkscape:pageopacity="0.0"
     inkscape:pageshadow="2"
     inkscape:zoom="0.7"
     inkscape:cx="71.547371"
     inkscape:cy="364.92995"
     inkscape:document-units="mm"
     inkscape:current-layer="layer1"
     showgrid="false"
     inkscape:pagecheckerboard="true"
     showborder="false"
     fit-margin-top="0"
     fit-margin-left="0"
     fit-margin-right="0"
     fit-margin-bottom="0"
     inkscape:window-width="1920"
     inkscape:window-height="1008"
     inkscape:window-x="0"
     inkscape:window-y="35"
     inkscape:window-maximized="1" />
  <metadata
     id="metadata5">
    <rdf:RDF>
      <cc:Work
         rdf:about="">
        <dc:format>image/svg+xml</dc:format>
        <dc:type
           rdf:resource="http://purl.org/dc/dcmitype/StillImage" />
        <dc:title />
      </cc:Work>
    </rdf:RDF>
  </metadata>
  <g
     inkscape:label="Layer 1"
     inkscape:groupmode="layer"
     id="layer1"
     transform="translate(177.47418,-211.37403)">
    <path
       style="fill:#999999;stroke-width:0.26458332"
       d="m -127.81265,318.32233 c -16.50882,-1.22629 -31.44089,-9.91647 -40.65902,-23.66278 -6.03141,-8.99419 -9.00251,-18.82497 -9.00251,-29.78753 0,-8.63189 1.61621,-15.72043 5.34386,-23.43752 6.8105,-14.09934 19.851,-24.68671 35.15183,-28.53919 4.34802,-1.09475 7.9935,-1.52128 13.0023,-1.52128 8.63189,0 15.72043,1.61622 23.43753,5.34386 14.099334,6.8105 24.686702,19.85101 28.539183,35.15184 2.078125,8.25365 2.078125,17.75095 0,26.0046 -5.299384,21.04747 -22.973751,37.00788 -44.303793,40.00745 -3.62909,0.51035 -8.2094,0.68567 -11.50938,0.44055 z m 12.96458,-6.33887 c 19.277651,-3.89296 34.092626,-18.74783 38.013235,-38.1156 0.536453,-2.65007 0.615934,-3.81091 0.615934,-8.99584 0,-5.18491 -0.07948,-6.34576 -0.615934,-8.99583 -3.934182,-19.43482 -18.710702,-34.21134 -38.145525,-38.14552 -2.65007,-0.53645 -3.81091,-0.61593 -8.99583,-0.61593 -5.18492,0 -6.34576,0.0795 -8.99583,0.61593 -9.56945,1.93714 -18.08328,6.47284 -24.89203,13.26112 -6.69653,6.67639 -11.32795,15.37221 -13.2535,24.8844 -0.53645,2.65007 -0.61593,3.81092 -0.61593,8.99583 0,5.18493 0.0795,6.34577 0.61593,8.99584 1.94149,9.59091 6.46324,18.06665 13.28505,24.90197 6.69675,6.71002 15.65844,11.48247 24.72819,13.16873 4.26997,0.79388 4.05186,0.77843 9.92187,0.70265 4.34896,-0.0561 6.00079,-0.1865 8.33437,-0.65775 z m -10.61491,-30.68334 c -1.27096,-0.77501 -1.42363,-1.61882 -1.42363,-7.86861 v -5.64906 h -5.69704 c -6.33615,0 -7.19531,-0.16871 -7.91142,-1.55352 -0.5235,-1.01232 -0.5235,-1.70149 0,-2.71381 0.71611,-1.3848 1.57527,-1.55351 7.91142,-1.55351 h 5.69704 v -5.69704 c 0,-6.33616 0.16871,-7.19532 1.55352,-7.91143 1.01232,-0.52349 1.70148,-0.52349 2.7138,0 1.38481,0.71611 1.55352,1.57527 1.55352,7.91143 v 5.69704 h 5.69704 c 4.32513,0 5.91376,0.0906 6.59701,0.37603 0.9307,0.38887 1.72886,1.55892 1.72886,2.53438 0,0.97548 -0.79816,2.14552 -1.72886,2.53439 -0.68325,0.28548 -2.27188,0.37604 -6.59701,0.37604 h -5.69704 v 5.69704 c 0,6.33615 -0.16871,7.19531 -1.55352,7.91142 -1.05709,0.54665 -1.83928,0.52167 -2.84369,-0.0908 z"
       id="path826"
       inkscape:connector-curvature="0" />
  </g>
</svg>
