<svg xmlns="http://www.w3.org/2000/svg" width="22.769" height="22.769" viewBox="0 0 22.769 22.769"><defs><style>.a{fill:#0084e5;stroke:#0084e5;stroke-width:0.5px;}</style></defs><g transform="translate(0.25 0.25)"><path class="a" d="M28.369,15.313a2.571,2.571,0,0,0,.686-1.754A2.537,2.537,0,0,0,26.543,11c-1.045,0-3.454,1.563-4.417,2.968-1-1.4-3.395-2.922-4.4-2.922A2.54,2.54,0,0,0,15.213,13.6a2.573,2.573,0,0,0,.641,1.7H11v6.112h1.327V33.269H31.946V21.425h1.322V15.313ZM26.543,11.95a1.6,1.6,0,0,1,1.563,1.659,1.657,1.657,0,0,1-1.282,1.632H22.98c-.245-.073-.323-.159-.323-.209C22.657,14.222,25.5,11.95,26.543,11.95Zm-8.817,0c1,0,3.886,2.272,3.886,3.081,0,.073-.168.155-.291.209H17.449a1.657,1.657,0,0,1-1.282-1.632A1.623,1.623,0,0,1,17.726,11.95Zm1.563,20.369H13.272V21.425h6.017Zm0-11.793H11.95V16.263h7.344v4.263Zm4.735,11.793h-3.79V16.258h3.79Zm6.967,0H24.975V21.425h6.017Zm1.322-11.793h-7.34V16.263h7.344v4.263Z" transform="translate(-11 -11)"/></g></svg>