<svg xmlns="http://www.w3.org/2000/svg" xmlns:xlink="http://www.w3.org/1999/xlink" width="135.438" height="135.436" viewBox="0 0 135.438 135.436">
  <defs>
    <linearGradient id="linear-gradient" x1="0.5" y1="1.912" x2="0.5" y2="-0.324" gradientUnits="objectBoundingBox">
      <stop offset="0" stop-color="#fff" stop-opacity="0"/>
      <stop offset="1" stop-color="#3d4b5c"/>
    </linearGradient>
    <linearGradient id="linear-gradient-2" x1="0.502" y1="13.766" x2="0.502" y2="-3.892" xlink:href="#linear-gradient"/>
    <linearGradient id="linear-gradient-3" x1="0.501" y1="13.175" x2="0.501" y2="-4.547" xlink:href="#linear-gradient"/>
    <linearGradient id="linear-gradient-4" x1="1.05" y1="0.616" x2="1.635" y2="1.56" gradientUnits="objectBoundingBox">
      <stop offset="0" stop-color="#fff" stop-opacity="0"/>
      <stop offset="1" stop-color="#9e3b32"/>
    </linearGradient>
    <linearGradient id="linear-gradient-5" x1="0.961" y1="-1.034" x2="0.105" y2="1.285" gradientUnits="objectBoundingBox">
      <stop offset="0" stop-color="#fff" stop-opacity="0"/>
      <stop offset="1" stop-color="#eab588"/>
    </linearGradient>
    <linearGradient id="linear-gradient-6" x1="0.96" y1="-1.034" x2="0.105" y2="1.285" xlink:href="#linear-gradient-5"/>
    <linearGradient id="linear-gradient-7" x1="1.134" y1="-0.156" x2="-0.015" y2="1.398" xlink:href="#linear-gradient-4"/>
    <linearGradient id="linear-gradient-8" x1="10.605" y1="3.485" x2="9.571" y2="5.59" xlink:href="#linear-gradient-4"/>
    <linearGradient id="linear-gradient-9" x1="11.26" y1="3.226" x2="10.226" y2="5.331" xlink:href="#linear-gradient-4"/>
  </defs>
  <g id="breakfast" transform="translate(0 0)">
    <g id="Layer_1" data-name="Layer 1" transform="translate(0 0)">
      <circle id="Ellipse_396" data-name="Ellipse 396" cx="67.718" cy="67.718" r="67.718" transform="translate(0 0)" fill="#e6f1ff"/>
      <path id="Path_3361" data-name="Path 3361" d="M44.932,113.533A67.716,67.716,0,0,1,160.123,65.245,67.714,67.714,0,1,0,64.365,161a67.493,67.493,0,0,1-19.433-47.47Z" transform="translate(-44.12 -45)" fill="#fff"/>
      <path id="Path_3362" data-name="Path 3362" d="M199.029,104.16a67.715,67.715,0,0,1-95.749,95.749,67.716,67.716,0,1,0,95.749-95.749Z" transform="translate(-84.293 -85.173)" fill="#ccdced"/>
      <path id="Path_3363" data-name="Path 3363" d="M195.446,161.029a47.482,47.482,0,0,0-1.926-10.142,20.507,20.507,0,0,0-3.075-6.03,15.186,15.186,0,0,0-2.474-2.587c-1.82-1.5-4.028-2.568-5.488-4.416h0a7.182,7.182,0,0,0,1.839.619,7.03,7.03,0,0,0,1.393.128,7.208,7.208,0,0,0,5.986-3.232,6.785,6.785,0,0,0,.411-.7c.039-.071.067-.144.1-.218.08-.173.157-.347.225-.523.032-.08.058-.16.087-.241.058-.177.112-.356.16-.536.016-.074.035-.144.051-.218.045-.205.08-.414.109-.619l.019-.138a7.218,7.218,0,0,0-.359-3.19h0a7.224,7.224,0,0,0-12.68-1.887c-.016-.135-.029-.27-.048-.4V126.6c-.045-.347-.1-.69-.154-1.027a.858.858,0,0,0-.026-.154c-.058-.321-.128-.642-.205-.963a.753.753,0,0,0-.042-.183c-.08-.321-.17-.626-.273-.931l-.058-.177a9.05,9.05,0,0,0-.363-.9c-.022-.051-.045-.1-.071-.148a7.968,7.968,0,0,0-.478-.873l-.061-.09a8.051,8.051,0,0,0-.642-.86c-.17-.2-.35-.382-.536-.558-.119-.112-.244-.215-.366-.321-.071-.061-.138-.125-.212-.183a4.784,4.784,0,0,0-.449-.321l-.164-.119c-.164-.112-.321-.218-.5-.321l-.151-.1c-.173-.1-.347-.2-.523-.3l-.157-.087c-.173-.093-.347-.183-.526-.273l-.193-.1-.465-.225-.395-.186-.164-.077-.286-.132h0a23.569,23.569,0,0,1-4.493-2.407l-.2-.141-.032-.029a8.473,8.473,0,0,1-1.143-1.085,8.022,8.022,0,0,1-1.008-1.5c-1.284-2.433-1.39-5.4-1.573-8.36a1.075,1.075,0,0,0-.016-.228h0l-.029-.385v-.209c-.026-.359-.055-.719-.09-1.072a.09.09,0,0,0,0-.029,21.465,21.465,0,0,0-.321-2.154c-.019-.1-.042-.193-.061-.286-.051-.234-.109-.469-.17-.7-.035-.128-.074-.257-.112-.382-.058-.2-.125-.392-.2-.584-.048-.138-.1-.276-.154-.414s-.164-.366-.25-.546c-.055-.119-.1-.238-.16-.353a9.717,9.717,0,0,0-.526-.867l-.083-.119c-.164-.237-.337-.469-.517-.69l-.1-.125c-.209-.25-.424-.491-.642-.722-.029-.032-.061-.058-.09-.087-.193-.193-.388-.379-.591-.562l-.254-.225a.439.439,0,0,1-.058-.051l-.436-.359-.257-.209c-.225-.18-.456-.353-.69-.526l-.449-.321-.27-.193q-.571-.4-1.162-.8h0c-1.133-.761-2.282-1.508-3.347-2.324-2.346-1.8-4.41-4.589-4.724-7.317a6.235,6.235,0,0,1-.035-1.037.816.816,0,0,0-.016-.18.944.944,0,0,0-.671-.79.963.963,0,0,0-.863.132l-2.972,2.109L141.577,82.3l-2.1,1.486-3.055,2.17-1.463,1.04a6,6,0,0,0-.263,5.363,12.929,12.929,0,0,0,4.22,5.456c1.444,1.107,3.039,2.086,4.548,3.139l.177.125c.177.125.353.25.526.379s.44.321.642.5c.112.087.218.177.321.263s.276.225.411.343l.321.286c.141.125.273.254.408.385s.2.189.3.289c.186.193.369.392.542.6.09.106.173.215.26.321s.212.273.321.414.167.234.247.356c.112.17.215.347.321.523.045.083.1.164.144.247a9.145,9.145,0,0,1,.44.963c.029.074.055.151.083.228.09.244.177.494.25.748.032.106.064.212.093.321.064.234.119.472.173.712l.067.321c.058.3.109.594.151.9a.981.981,0,0,0,.022.128c.048.347.09.7.125,1.049a3.207,3.207,0,0,0,.032.353c.019.234.042.472.058.706l.039.539c.093,1.415.151,2.84.321,4.214a13.589,13.589,0,0,0,1.014,4l-.051-.026c-.087-.045-.18-.083-.266-.132h0a8.559,8.559,0,0,1-1.338-.9,8.142,8.142,0,0,1-1.476-1.6c-1.537-2.179-2.089-5.016-2.747-7.818a.154.154,0,0,0-.026-.1h0c-.032-.132-.064-.257-.093-.385l-.048-.193c-.083-.35-.173-.7-.266-1.046a.1.1,0,0,1,0-.026c-.193-.709-.411-1.4-.664-2.073l-.109-.27c-.09-.225-.186-.446-.286-.664q-.083-.177-.173-.356c-.09-.183-.189-.363-.289-.542-.074-.128-.144-.257-.221-.382s-.221-.321-.337-.494c-.077-.109-.141-.221-.221-.321a9.577,9.577,0,0,0-.664-.767l-.1-.1a7.1,7.1,0,0,0-.642-.594c-.042-.035-.08-.074-.122-.106-.247-.212-.5-.414-.764-.6l-.1-.071c-.221-.157-.449-.321-.68-.456-.093-.061-.189-.119-.286-.177l-.087-.055c-.154-.093-.321-.183-.469-.27l-.289-.164c-.25-.138-.507-.27-.767-.4l-.5-.244-.3-.141c-.424-.2-.85-.4-1.284-.594h0c-1.245-.558-2.5-1.1-3.688-1.73-2.59-1.367-5.077-3.774-5.841-6.419a6.148,6.148,0,0,1-.209-1.011.909.909,0,0,0-.042-.16.982.982,0,0,0-1.627-.4l-2.568,2.568-1.73,1.723-1.817,1.817-2.651,2.651-1.265,1.265a5.983,5.983,0,0,0,.642,5.337,13.161,13.161,0,0,0,5.074,4.682c1.027.542,2.109,1.024,3.19,1.508a32.083,32.083,0,0,0-14.927-.5c-5.848,1.284-11.753,3.53-15.784,7.946-8.633,9.481-3.2,20.331-4.14,31.16-.687,7.956,6.5,15.681,14.484,15.569,2.725-.038,5.411-.85,8.136-.748a13.755,13.755,0,0,1,1.887.215c0,.112.022.225.032.34v.132l.048.517c.016.154.029.321.045.465s.029.3.042.459.029.34.042.51.026.282.035.427.029.379.045.568c0,.125.016.25.026.375.019.289.035.578.051.867v.055h0a36.419,36.419,0,0,1-.048,5.09c-.687,7.956,6.5,15.681,14.484,15.569,2.728-.039,5.411-.85,8.136-.748,5.472.212,10.334,4.066,15.809,4.111,7.465.061,13.065-6.83,16.2-13.6a47.226,47.226,0,0,0,3.954-12.751,46.461,46.461,0,0,1,1.672,4.57,2.683,2.683,0,0,0,3.755,1.6,2.712,2.712,0,0,0,.7-.5l3.733-3.729a2.481,2.481,0,0,0,.321.481,2.686,2.686,0,0,0,3.595.459l8.9-6.319a2.693,2.693,0,0,0,1.139-2.465Z" transform="translate(-73.509 -67.815)" opacity="0.5" fill="url(#linear-gradient)"/>
      <path id="Path_3364" data-name="Path 3364" d="M337.958,152.52c.039.022.08.042.122.061.189.093.382.177.578.254l.212.077c.173.061.353.116.533.164l.25.064c.183.042.369.074.558.1a2.028,2.028,0,0,1,.237.039,7.616,7.616,0,0,0,.815.048,7.227,7.227,0,0,0,2.154-.321,7.153,7.153,0,0,0,2.439-1.332c.18-.148.353-.321.517-.469a7.228,7.228,0,0,0,2.121-5.135h0a7.6,7.6,0,0,0-.048-.815,1.527,1.527,0,0,0-.038-.238c-.026-.186-.058-.375-.1-.558-.019-.083-.042-.167-.064-.247-.048-.183-.1-.359-.164-.536l-.077-.212c-.077-.2-.16-.388-.254-.574-.022-.042-.039-.083-.061-.125a7.253,7.253,0,0,0-2.067-2.458h0a7.237,7.237,0,1,0-7.677,12.2Z" transform="translate(-240.948 -108.699)" opacity="0.5" fill="url(#linear-gradient-2)"/>
      <path id="Path_3365" data-name="Path 3365" d="M373.876,178.47l.067.119c.106.18.218.356.34.53l.135.18c.112.151.228.292.353.433.058.064.112.128.173.193.128.135.266.266.408.392.061.055.116.112.18.164a7,7,0,0,0,.642.491,7.293,7.293,0,0,0,1.284.687,7.211,7.211,0,0,0,2.064.5c.231.019.465.029.7.029a7.152,7.152,0,0,0,1.383-.144,6.89,6.89,0,0,0,.674-.167,7.221,7.221,0,0,0,3.931-2.921,7.013,7.013,0,0,0,.408-.7c.039-.074.071-.148.1-.221a5.592,5.592,0,0,0,.225-.517c.032-.083.058-.164.087-.244.061-.177.112-.356.16-.536.016-.074.035-.144.051-.218.045-.205.083-.414.109-.619l.019-.138a7.263,7.263,0,0,0-.356-3.19h0a7.237,7.237,0,1,0-13.158,5.9Z" transform="translate(-267.41 -128.333)" opacity="0.5" fill="url(#linear-gradient-3)"/>
      <path id="Path_3366" data-name="Path 3366" d="M284.444,161.453a2.677,2.677,0,0,1-4.2-1.829c-.825-6.053-2.529-12.064-7.138-15.851-1.82-1.5-4.028-2.568-5.491-4.413-3.851-4.859-1.04-12.87-5.087-17.562-2.85-3.309-8.107-3.665-10.963-6.968-3.919-4.532-1.338-11.913-4.14-17.209-1.977-3.726-6.146-5.6-9.49-8.168s-6.133-7.221-3.954-10.832l11.554-8.213a.979.979,0,0,1,1.55.838c-.17,3.062,2.1,6.342,4.718,8.344,3.347,2.568,7.516,4.445,9.49,8.171,2.8,5.292.225,12.674,4.14,17.206,2.856,3.306,8.113,3.659,10.963,6.968,4.05,4.7,1.239,12.706,5.087,17.562,1.464,1.849,3.672,2.921,5.491,4.416,5.35,4.394,6.785,11.782,7.475,18.759a2.693,2.693,0,0,1-1.117,2.458Z" transform="translate(-172.52 -62.129)" fill="#9e3b32"/>
      <path id="Path_3367" data-name="Path 3367" d="M308.191,158.948l-2.16,1.537c-.809-6.8-2.51-13.723-7.7-17.973-1.926-1.579-4.249-2.712-5.777-4.66-4.063-5.135-1.1-13.579-5.373-18.534-3-3.489-8.556-3.851-11.554-7.353-4.137-4.779-1.412-12.571-4.371-18.159-2.083-3.935-6.486-5.915-10.017-8.62-2.539-1.945-4.772-5.023-4.968-8.023L259.306,75a.928.928,0,0,1,.25.712c-.164,3.139,2.163,6.521,4.849,8.595,3.44,2.632,7.725,4.561,9.757,8.4,2.888,5.456.228,13.03,4.259,17.687,2.93,3.4,8.344,3.761,11.265,7.16,4.172,4.83,1.284,13.062,5.231,18.053,1.505,1.9,3.777,3,5.649,4.538C305.929,144.551,307.469,151.91,308.191,158.948Z" transform="translate(-188.183 -65.372)" fill="#ce5852"/>
      <path id="Path_3368" data-name="Path 3368" d="M292.1,170.358l-2.16,1.537c-.809-6.807-2.5-13.72-7.687-17.973-1.926-1.576-4.252-2.706-5.8-4.654-4.057-5.135-1.094-13.585-5.366-18.534-3.01-3.5-8.553-3.871-11.573-7.353-4.127-4.785-1.412-12.578-4.371-18.162-2.083-3.932-6.477-5.918-10.017-8.627-2.529-1.926-4.756-5.016-4.968-8.023l3.055-2.17a.963.963,0,0,1,.257.719c-.176,3.142,2.157,6.515,4.846,8.575,3.444,2.641,7.728,4.57,9.757,8.4,2.888,5.456.234,13.03,4.256,17.693,2.94,3.4,8.344,3.761,11.275,7.163,4.172,4.814,1.284,13.056,5.228,18.05,1.5,1.9,3.771,3,5.642,4.538C289.854,155.951,291.385,163.319,292.1,170.358Z" transform="translate(-177.243 -73.113)" fill="#ce5852"/>
      <path id="Path_3369" data-name="Path 3369" d="M293.336,155.094l-8.123,5.777-.777.549a2.673,2.673,0,0,1-4.2-1.823c-.822-6.053-2.529-12.071-7.141-15.851-1.817-1.5-4.021-2.568-5.491-4.416-3.851-4.862-1.033-12.87-5.08-17.565-2.856-3.306-8.107-3.662-10.966-6.961-3.919-4.535-1.335-11.92-4.137-17.215-1.977-3.72-6.146-5.6-9.49-8.165s-6.14-7.221-3.96-10.832l1.463-1.04,3.055-2.17,2.1-1.486,3.055-2.176,1.9-1.348a.963.963,0,0,1,1.55.834c-.154,3.081,2.092,6.348,4.721,8.351,3.347,2.568,7.513,4.445,9.481,8.174,2.811,5.289.231,12.671,4.15,17.206,2.856,3.3,8.107,3.655,10.963,6.961,4.047,4.7,1.232,12.709,5.084,17.568,1.46,1.842,3.672,2.917,5.491,4.413,5.353,4.39,6.781,11.785,7.471,18.759A2.68,2.68,0,0,1,293.336,155.094Z" transform="translate(-172.515 -62.092)" fill="url(#linear-gradient-4)"/>
      <path id="Path_3373" data-name="Path 3373" d="M233.655,186.39a2.68,2.68,0,0,1-4.451-1.1c-1.823-5.831-4.493-11.474-9.683-14.442-2.044-1.168-4.4-1.858-6.152-3.434-4.605-4.147-3.174-12.517-7.95-16.464-3.363-2.786-8.6-2.247-11.971-5.039-4.622-3.813-3.312-11.522-6.961-16.272-2.568-3.344-6.993-4.493-10.719-6.47s-7.263-6.091-5.7-10.01L180.1,103.132a.979.979,0,0,1,1.669.565c.343,3.049,3.132,5.9,6.046,7.443,3.726,1.971,8.152,3.126,10.719,6.47,3.652,4.75,2.34,12.459,6.961,16.272,3.367,2.779,8.608,2.247,11.971,5.039,4.776,3.951,3.344,12.318,7.953,16.464,1.749,1.576,4.1,2.266,6.149,3.434,6.008,3.44,8.665,10.485,10.5,17.25a2.7,2.7,0,0,1-.69,2.609Z" transform="translate(-129.389 -84.276)" fill="#9e3b32"/>
      <path id="Path_3374" data-name="Path 3374" d="M253.571,183.5l-1.884,1.874c-1.926-6.57-4.766-13.107-10.591-16.432-2.154-1.239-4.644-1.964-6.489-3.627-4.862-4.378-3.354-13.2-8.393-17.379-3.546-2.937-9.083-2.378-12.632-5.315-4.878-4.021-3.5-12.157-7.346-17.173-2.709-3.53-7.382-4.747-11.316-6.826-2.824-1.5-5.543-4.153-6.239-7.061l2.651-2.645a.915.915,0,0,1,.366.658c.353,3.136,3.209,6.066,6.22,7.654,3.829,2.022,8.376,3.209,11.021,6.65,3.749,4.885,2.4,12.809,7.154,16.727,3.457,2.853,8.848,2.314,12.3,5.177,4.914,4.063,3.44,12.661,8.171,16.923,1.8,1.6,4.227,2.33,6.329,3.53C248.943,169.683,251.687,176.686,253.571,183.5Z" transform="translate(-142.285 -88.406)" fill="#ce5852"/>
      <path id="Path_3375" data-name="Path 3375" d="M239.694,197.4l-1.874,1.874c-1.926-6.576-4.76-13.107-10.591-16.442-2.16-1.229-4.644-1.955-6.5-3.617-4.856-4.381-3.347-13.21-8.386-17.379-3.553-2.943-9.079-2.388-12.639-5.315-4.878-4.028-3.5-12.151-7.353-17.173-2.709-3.53-7.382-4.753-11.313-6.833-2.821-1.489-5.53-4.153-6.242-7.061l2.651-2.651a.985.985,0,0,1,.376.664c.35,3.129,3.209,6.066,6.21,7.645,3.851,2.032,8.386,3.209,11.021,6.65,3.758,4.885,2.41,12.809,7.154,16.734,3.466,2.856,8.848,2.317,12.311,5.18,4.907,4.057,3.434,12.661,8.174,16.923,1.794,1.6,4.217,2.33,6.319,3.53C235.06,183.576,237.8,190.582,239.694,197.4Z" transform="translate(-132.86 -97.831)" fill="#ce5852"/>
      <path id="Path_3379" data-name="Path 3379" d="M180.117,300.029c2.728-.039,5.411-.85,8.136-.748,5.472.212,10.334,4.066,15.809,4.111,7.465.061,13.065-6.83,16.2-13.6,3.351-7.24,5.3-15.389,3.877-23.242s-6.676-15.28-14.24-17.825c-8.136-2.738-15.6-5.3-24.34-3.379-5.851,1.284-11.753,3.53-15.787,7.946-8.633,9.481-3.209,20.344-4.137,31.173C164.946,292.416,172.132,300.141,180.117,300.029Z" transform="translate(-126.064 -180.592)" fill="#fff"/>
      <circle id="Ellipse_397" data-name="Ellipse 397" cx="12.173" cy="12.173" r="12.173" transform="translate(54.754 101.033) rotate(-80.78)" fill="#f8a039"/>
      <path id="Path_3380" data-name="Path 3380" d="M244.5,323a12.167,12.167,0,0,1-24.151.555c-.039.392-.061.783-.061,1.184a12.176,12.176,0,1,0,24.351,0A12.4,12.4,0,0,0,244.5,323Z" transform="translate(-163.75 -233.779)" fill="url(#linear-gradient-5)"/>
      <path id="Path_3381" data-name="Path 3381" d="M276.8,320.414a3.059,3.059,0,1,1-1.266-1.971,3.062,3.062,0,0,1,1.266,1.971Z" transform="translate(-197.996 -230.314)" fill="#f7d33c"/>
      <path id="Path_3382" data-name="Path 3382" d="M265.914,339.69a1.531,1.531,0,1,1-1.778-1.232A1.531,1.531,0,0,1,265.914,339.69Z" transform="translate(-192.669 -244.259)" fill="#f7d33c"/>
      <path id="Path_3383" data-name="Path 3383" d="M204.159,246.853c-6.034-1.829-11.945-2.965-18.6-1.508-5.851,1.284-11.753,3.53-15.787,7.946-7.279,7.995-4.561,16.971-4.089,26.083a16.342,16.342,0,0,1,2.535-.122c5.456.209,10.337,4.063,15.809,4.108,7.465.061,13.065-6.83,16.2-13.6C203.534,262.617,205.466,254.6,204.159,246.853Z" transform="translate(-126.069 -180.595)" fill="#eceff1"/>
      <path id="Path_3384" data-name="Path 3384" d="M102.721,222.629c2.725-.038,5.411-.854,8.136-.748,5.456.212,10.334,4.066,15.809,4.111,7.462.058,13.062-6.83,16.2-13.6,3.351-7.24,5.3-15.389,3.877-23.242s-6.679-15.28-14.24-17.825c-8.139-2.738-15.6-5.3-24.343-3.379-5.848,1.284-11.753,3.53-15.784,7.946-8.633,9.477-3.2,20.344-4.14,31.173C87.55,215.007,94.736,222.742,102.721,222.629Z" transform="translate(-73.509 -128.032)" fill="#fff"/>
      <circle id="Ellipse_398" data-name="Ellipse 398" cx="12.173" cy="12.173" r="12.173" transform="translate(29.913 76.191) rotate(-80.78)" fill="#f8a039"/>
      <path id="Path_3385" data-name="Path 3385" d="M167.1,245.61a12.167,12.167,0,0,1-24.151.555c-.039.388-.061.783-.061,1.184a12.176,12.176,0,1,0,24.351,0A12.392,12.392,0,0,0,167.1,245.61Z" transform="translate(-111.191 -181.226)" fill="url(#linear-gradient-6)"/>
      <path id="Path_3386" data-name="Path 3386" d="M171.988,226.224a3.784,3.784,0,1,1-3.784-3.784A3.784,3.784,0,0,1,171.988,226.224Z" transform="translate(-125.811 -165.493)" fill="#f7d33c"/>
      <path id="Path_3387" data-name="Path 3387" d="M157.447,246.88a1.894,1.894,0,1,1-1.894-1.89,1.894,1.894,0,0,1,1.894,1.89Z" transform="translate(-118.504 -180.805)" fill="#f7d33c"/>
      <circle id="Ellipse_399" data-name="Ellipse 399" cx="7.244" cy="7.244" r="7.244" transform="translate(92.01 40.709) rotate(-80.78)" fill="#bf392e"/>
      <path id="Path_3388" data-name="Path 3388" d="M348.865,135.21a7.231,7.231,0,0,1-10.135,10.135,7.237,7.237,0,1,0,10.135-10.135Z" transform="translate(-244.178 -106.258)" fill="url(#linear-gradient-7)"/>
      <path id="Path_3389" data-name="Path 3389" d="M355.483,150.882A1.082,1.082,0,1,1,354.4,149.8,1.082,1.082,0,0,1,355.483,150.882Z" transform="translate(-254.086 -116.166)" fill="#6c9916"/>
      <path id="Path_3390" data-name="Path 3390" d="M339.615,145.278a3,3,0,0,0,1.258,2.179c.379.225.963.263,1.168-.132a.761.761,0,0,0,.051-.424c-.083-.748-.693-1.367-.748-2.118s.485-1.451.661-2.2c.321-1.406-.838-1.338-1.531-.542A4.012,4.012,0,0,0,339.615,145.278Z" transform="translate(-244.739 -110.51)" fill="#fff" opacity="0.5"/>
      <path id="Path_3391" data-name="Path 3391" d="M386.243,170.6a7.244,7.244,0,1,1-2.015-10.042A7.244,7.244,0,0,1,386.243,170.6Z" transform="translate(-267.428 -122.646)" fill="#bf392e"/>
      <path id="Path_3392" data-name="Path 3392" d="M387.067,174.52A7.234,7.234,0,0,1,373,177.338a7.234,7.234,0,1,0,14.054-2.818Z" transform="translate(-267.45 -132.952)" fill="url(#linear-gradient-8)"/>
      <path id="Path_3393" data-name="Path 3393" d="M394.163,180.227a1.078,1.078,0,1,1-.3-1.5A1.078,1.078,0,0,1,394.163,180.227Z" transform="translate(-280.48 -135.687)" fill="#6c9916"/>
      <path id="Path_3394" data-name="Path 3394" d="M380.562,167.81a2.976,2.976,0,0,0-.16,2.51c.189.4.664.757,1.043.536a.728.728,0,0,0,.276-.321c.347-.671.183-1.524.555-2.179s1.207-.94,1.772-1.47c1.053-.985.042-1.576-.963-1.3A4.015,4.015,0,0,0,380.562,167.81Z" transform="translate(-272.331 -126.839)" fill="#fff" opacity="0.5"/>
      <path id="Path_3395" data-name="Path 3395" d="M384.295,223.358a7.244,7.244,0,1,1-2.012-10.042A7.244,7.244,0,0,1,384.295,223.358Z" transform="translate(-266.106 -158.47)" fill="#bf392e"/>
      <path id="Path_3396" data-name="Path 3396" d="M385.154,227.28A7.231,7.231,0,0,1,371.1,230.1a7.234,7.234,0,1,0,14.054-2.818Z" transform="translate(-266.159 -168.779)" fill="url(#linear-gradient-9)"/>
      <path id="Path_3397" data-name="Path 3397" d="M392.223,232.987a1.078,1.078,0,1,1-.3-1.5A1.078,1.078,0,0,1,392.223,232.987Z" transform="translate(-279.163 -171.514)" fill="#6c9916"/>
      <path id="Path_3398" data-name="Path 3398" d="M378.622,220.59a2.976,2.976,0,0,0-.16,2.51c.189.4.661.757,1.043.536a.729.729,0,0,0,.276-.321c.347-.671.183-1.524.555-2.179s1.207-.94,1.772-1.47c1.053-.985.042-1.576-.963-1.284A4.005,4.005,0,0,0,378.622,220.59Z" transform="translate(-271.014 -162.686)" fill="#fff" opacity="0.5"/>
    </g>
  </g>
</svg>
