<svg xmlns="http://www.w3.org/2000/svg" width="86" height="87" viewBox="0 0 86 87">
  <g id="Group_3295" data-name="Group 3295" transform="translate(-0.137)">
    <rect id="Rectangle_1016" data-name="Rectangle 1016" width="86" height="87" rx="4" transform="translate(0.137 0)" fill="none"/>
    <g id="bill_4_" data-name="bill(4)" transform="translate(23.627 24.268)">
      <g id="Group_3285" data-name="Group 3285" transform="translate(12.893 12.23)">
        <path id="Path_3234" data-name="Path 3234" d="M157.161,143.936H148.7a1.372,1.372,0,1,1,0-2.743h8.458a1.372,1.372,0,0,1,0,2.743Z" transform="translate(-147.331 -141.193)" fill="#4dcfe0"/>
        <path id="Path_3235" data-name="Path 3235" d="M163.562,217.079H148.7a1.372,1.372,0,1,1,0-2.743h14.859a1.372,1.372,0,0,1,0,2.743Z" transform="translate(-147.331 -207.935)" fill="#4dcfe0"/>
      </g>
      <path id="Path_3236" data-name="Path 3236" d="M36.485,1.6a1.328,1.328,0,0,0-1.463.229L31.181,5.209,27.341,1.78a1.391,1.391,0,0,0-1.829,0L21.671,5.209,17.831,1.78A1.391,1.391,0,0,0,16,1.78L12.161,5.209,8.321,1.826A1.328,1.328,0,0,0,6.858,1.6a1.392,1.392,0,0,0-.823,1.234V27.246H1.372A1.347,1.347,0,0,0,0,28.618v3.338a6.551,6.551,0,0,0,6.309,6.538H30.77a6.537,6.537,0,0,0,6.538-6.538V2.831A1.3,1.3,0,0,0,36.485,1.6ZM2.743,31.955V29.989H24.232v1.966a6.385,6.385,0,0,0,1.234,3.795H6.538A3.785,3.785,0,0,1,2.743,31.955Zm31.821,0a3.795,3.795,0,0,1-7.589,0V28.618A1.347,1.347,0,0,0,25.6,27.246H8.778V5.895l2.469,2.195a1.391,1.391,0,0,0,1.829,0L16.916,4.66l3.841,3.429a1.391,1.391,0,0,0,1.829,0L26.426,4.66l3.841,3.429a1.39,1.39,0,0,0,1.829,0l2.469-2.195v26.06Z" transform="translate(0 -1.437)" fill="#00a7fe"/>
    </g>
  </g>
</svg>
