<svg width="39" height="39" viewBox="0 0 39 39" fill="none" xmlns="http://www.w3.org/2000/svg">
<g clip-path="url(#clip0_1135_3150)">
<path d="M34.5317 28.9829C38.9079 22.1993 38.1261 13.0545 32.1862 7.1146C25.3459 0.274301 14.2556 0.274301 7.41535 7.1146C0.575128 13.9549 0.575054 25.0452 7.41535 31.8854C13.3553 37.8254 22.5 38.6072 29.2836 34.2309" stroke="#7E5AF6" stroke-width="2.5" stroke-miterlimit="10" stroke-linecap="round" stroke-linejoin="round"/>
<path d="M19.8006 29.7593C25.4668 29.7593 30.0601 25.166 30.0601 19.4998C30.0601 13.8336 25.4668 9.24023 19.8006 9.24023C14.1344 9.24023 9.54102 13.8336 9.54102 19.4998C9.54102 25.166 14.1344 29.7593 19.8006 29.7593Z" stroke="#7E5AF6" stroke-width="2.5" stroke-miterlimit="10" stroke-linecap="round" stroke-linejoin="round"/>
<path d="M19.8017 22.8524C21.6532 22.8524 23.1541 21.3514 23.1541 19.4999C23.1541 17.6484 21.6532 16.1475 19.8017 16.1475C17.9502 16.1475 16.4492 17.6484 16.4492 19.4999C16.4492 21.3514 17.9502 22.8524 19.8017 22.8524Z" stroke="#7E5AF6" stroke-width="2.5" stroke-miterlimit="10" stroke-linecap="round" stroke-linejoin="round"/>
<path d="M22.25 17.051L34.3117 4.98926" stroke="#7E5AF6" stroke-width="2.5" stroke-miterlimit="10" stroke-linecap="round" stroke-linejoin="round"/>
<path d="M37.3172 4.98905H34.3125V1.98438" stroke="#7E5AF6" stroke-width="2.5" stroke-miterlimit="10" stroke-linecap="round" stroke-linejoin="round"/>
</g>
<defs>
<clipPath id="clip0_1135_3150">
<rect width="38" height="38" fill="white" transform="translate(0.800781 0.5)"/>
</clipPath>
</defs>
</svg>
