<svg xmlns="http://www.w3.org/2000/svg" width="86" height="87" viewBox="0 0 86 87">
  <g id="Group_315" data-name="Group 315" transform="translate(21152 22812)">
    <rect id="Rectangle_1015" data-name="Rectangle 1015" width="86" height="87" rx="4" transform="translate(-21152 -22812)" fill="rgba(0,0,0,0)"/>
    <g id="list" transform="translate(-21216.674 -22811.137)">
      <g id="Group_3805" transform="translate(90.366 17.686)">
        <path id="Path_3631" d="M57.849,26.376H53.908V24.5a1.347,1.347,0,0,0-1.379-1.379H49.474a4.892,4.892,0,0,0-1.281-3.645,4.612,4.612,0,0,0-6.4-.1l-.1.1a4.227,4.227,0,0,0-1.281,3.645H37.356A1.347,1.347,0,0,0,35.977,24.5h0v1.872H32.036A4.2,4.2,0,0,0,27.8,30.613V64.4a4.2,4.2,0,0,0,4.236,4.236H57.947A4.2,4.2,0,0,0,62.183,64.4V30.613a4.353,4.353,0,0,0-4.335-4.236Zm-19.113-.493h3.547a1.431,1.431,0,0,0,1.379-1.478,2.319,2.319,0,0,0-.2-.788,1.789,1.789,0,0,1,.2-2.266,1.725,1.725,0,0,1,2.463,0,1.789,1.789,0,0,1,.2,2.266,1.445,1.445,0,0,0,.394,1.97,1.119,1.119,0,0,0,.788.3h3.547v4.138H38.736ZM59.228,64.4a1.347,1.347,0,0,1-1.379,1.379H31.938A1.347,1.347,0,0,1,30.559,64.4h0V30.613a1.347,1.347,0,0,1,1.379-1.379h3.941V31.6a1.347,1.347,0,0,0,1.379,1.379H52.43A1.347,1.347,0,0,0,53.809,31.6h0V29.233H57.75a1.347,1.347,0,0,1,1.379,1.379h0l.1,33.792Z" transform="translate(-27.8 -18.137)" fill="#00a7fe"/>
      </g>
    </g>
    <g id="settings" transform="translate(-21120.592 -22813.334)">
      <path id="Path_278" data-name="Path 278" d="M15.619,111.038l-.217-1.2a.8.8,0,0,0-.635-.556,1.228,1.228,0,0,1-.994-1.847.843.843,0,0,0-.1-.849s-.149-.178-.424-.44-.459-.4-.459-.4a.843.843,0,0,0-.853-.061,1.433,1.433,0,0,1-1.2.076,1.431,1.431,0,0,1-.689-.986.8.8,0,0,0-.583-.61L8.259,104a.807.807,0,0,0-.725.434,1.434,1.434,0,0,1-.926.765A1.431,1.431,0,0,1,5.47,104.8a.805.805,0,0,0-.83-.152l-1.073.579a.8.8,0,0,0-.332.776,1.431,1.431,0,0,1-.3,1.164,1.432,1.432,0,0,1-1.149.351.8.8,0,0,0-.761.366l-.531,1.1a.806.806,0,0,0,.189.823,1.432,1.432,0,0,1,.443,1.119,1.432,1.432,0,0,1-.723.959.806.806,0,0,0-.4.744l.217,1.2a.8.8,0,0,0,.635.556,1.429,1.429,0,0,1,1.015.645,1.431,1.431,0,0,1-.022,1.2.843.843,0,0,0,.1.849s.149.178.424.441.459.4.459.4a.843.843,0,0,0,.853.061,1.433,1.433,0,0,1,1.2-.075,1.431,1.431,0,0,1,.689.985.8.8,0,0,0,.583.61l1.207.163a.807.807,0,0,0,.725-.434,1.429,1.429,0,0,1,.926-.764,1.432,1.432,0,0,1,1.137.392.806.806,0,0,0,.831.152l1.073-.579a.8.8,0,0,0,.332-.776,1.431,1.431,0,0,1,.3-1.164,1.431,1.431,0,0,1,1.149-.351.8.8,0,0,0,.761-.366l.531-1.1a.806.806,0,0,0-.189-.823,1.228,1.228,0,0,1,.28-2.078A.807.807,0,0,0,15.619,111.038Zm-5.168,3.321a3.654,3.654,0,1,1-.115-5.166A3.653,3.653,0,0,1,10.451,114.359Z" transform="translate(0 -59.336)" fill="#1bb7ea"/>
      <path id="Path_279" data-name="Path 279" d="M281.8,46.047a1.179,1.179,0,0,1-.45-1.812.459.459,0,0,0,0-.436l-.538-.727a.458.458,0,0,0-.416-.132,1.179,1.179,0,0,1-1.6-.963.455.455,0,0,0-.311-.305l-.895-.135a.459.459,0,0,0-.387.2,1.179,1.179,0,0,1-1.812.45.458.458,0,0,0-.436,0l-.727.538a.457.457,0,0,0-.132.416,1.178,1.178,0,0,1-.963,1.6.456.456,0,0,0-.305.311l-.135.894a.458.458,0,0,0,.2.387,1.179,1.179,0,0,1,.449,1.811.458.458,0,0,0,0,.436l.538.727a.456.456,0,0,0,.416.132,1.179,1.179,0,0,1,1.6.964.457.457,0,0,0,.311.306l.894.134a.46.46,0,0,0,.388-.2A1.179,1.179,0,0,1,279.3,50.2a.458.458,0,0,0,.436,0l.727-.537a.457.457,0,0,0,.132-.416,1.178,1.178,0,0,1,.964-1.6.456.456,0,0,0,.305-.311l.135-.894A.459.459,0,0,0,281.8,46.047Zm-2.895,1.082a1.82,1.82,0,1,1-.62-2.5A1.82,1.82,0,0,1,278.906,47.129Z" transform="translate(-259.049)" fill="#4dcfe0"/>
    </g>
  </g>
</svg>
