<svg id="delay-start" xmlns="http://www.w3.org/2000/svg" width="35" height="35" viewBox="0 0 35 35">
  <g id="Group_1463" data-name="Group 1463">
    <path id="Path_5644" data-name="Path 5644" d="M372.582,417.055h2.051v2.051h-2.051Z" transform="translate(-346.811 -388.207)" fill="#6e5c3f"/>
    <path id="Path_5645" data-name="Path 5645" d="M372.582,328.109h2.051v4.1h-2.051Z" transform="translate(-346.811 -305.414)" fill="#6e5c3f"/>
    <path id="Path_5646" data-name="Path 5646" d="M30.9,15.449A15.449,15.449,0,1,0,15.449,30.9a16.1,16.1,0,0,0,3.384-.361L23.3,35h7L35,30.3v-7l-4.462-4.462a16.1,16.1,0,0,0,.361-3.384Zm-12.3,13.04a13.982,13.982,0,0,1-3.145.358,13.4,13.4,0,1,1,13.4-13.4,13.982,13.982,0,0,1-.358,3.145H26.366a11.688,11.688,0,0,0,.431-3.145A11.348,11.348,0,1,0,15.449,26.8a11.687,11.687,0,0,0,3.145-.431v2.124Zm0-5.193v.92a9.7,9.7,0,0,1-3.145.53,9.3,9.3,0,1,1,9.3-9.3,9.7,9.7,0,0,1-.53,3.145H23.3Zm14.355.849v5.3l-3.5,3.5h-5.3l-3.5-3.5v-5.3l3.5-3.5h5.3Z" fill="#f39c12"/>
    <path id="Path_5647" data-name="Path 5647" d="M210.578,133.418h-2.051v7.246h7.246v-2.051h-5.2Z" transform="translate(-194.65 -123.164)" fill="#6e5c3f"/>
  </g>
</svg>
