<svg xmlns="http://www.w3.org/2000/svg" xmlns:xlink="http://www.w3.org/1999/xlink" width="79" height="79" viewBox="0 0 79 79">
  <defs>
    <clipPath id="clip-path">
      <path id="path2403" d="M0-682.665H48.105v48.106H0Z" transform="translate(0 682.665)" fill="#00a7fe"/>
    </clipPath>
  </defs>
  <g id="feature-feedback" transform="translate(21111 -11776)">
    <rect id="Rectangle_2134" data-name="Rectangle 2134" width="79" height="79" transform="translate(-21111 11776)" fill="#fff" opacity="0"/>
    <g id="g2397" transform="translate(-21096 12473.665)">
      <g id="g2399" transform="translate(0 -682.665)">
        <g id="g2401" clip-path="url(#clip-path)">
          <g id="g2407" transform="translate(1.409 16.63)">
            <path id="path2409" d="M-470.962-96.671v16.16a2.819,2.819,0,0,1-2.819,2.819h-27.247l-5.637,3.758v-27.247A2.819,2.819,0,0,1-503.847-104h18.04" transform="translate(506.665 104)" fill="none" stroke="#00a7fe" stroke-linecap="round" stroke-linejoin="round" stroke-miterlimit="10" stroke-width="2.7"/>
          </g>
          <g id="g2411" transform="translate(27.905 1.409)">
            <path id="path2413" d="M-161.119-99.15v-4.7a2.819,2.819,0,0,0-2.819-2.819,2.819,2.819,0,0,0-2.819,2.819v1.154a4.7,4.7,0,0,1-3.407,4.517l-3.17.906v9.865a6.526,6.526,0,0,0,5.667,3.288h9.366a3.758,3.758,0,0,0,3.758-3.758v-7.516A3.758,3.758,0,0,0-158.3-99.15Z" transform="translate(173.333 106.666)" fill="none" stroke="#00a7fe" stroke-linecap="round" stroke-linejoin="round" stroke-miterlimit="10" stroke-width="2.7"/>
          </g>
          <path id="path2415" d="M316-540.966h5.637V-556H316Z" transform="translate(-293.732 564.924)" fill="none" stroke="#00a7fe" stroke-linecap="round" stroke-linejoin="round" stroke-miterlimit="10" stroke-width="2.7"/>
          <g id="g2417" transform="translate(7.047 25.086)">
            <path id="path2419" d="M0,0H9.4" fill="none" stroke="#00a7fe" stroke-linecap="round" stroke-linejoin="round" stroke-miterlimit="10" stroke-width="2.7"/>
          </g>
          <g id="g2421" transform="translate(7.047 30.724)">
            <path id="path2423" d="M0,0H24.429" fill="none" stroke="#00a7fe" stroke-linecap="round" stroke-linejoin="round" stroke-miterlimit="10" stroke-width="2.7"/>
          </g>
          <g id="g2425" transform="translate(7.047 36.361)">
            <path id="path2427" d="M0,0H24.429" fill="none" stroke="#00a7fe" stroke-linecap="round" stroke-linejoin="round" stroke-miterlimit="10" stroke-width="2.7"/>
          </g>
        </g>
      </g>
    </g>
  </g>
</svg>
