<svg width="41" height="41" viewBox="0 0 41 41" fill="none" xmlns="http://www.w3.org/2000/svg">
<path fill-rule="evenodd" clip-rule="evenodd" d="M32.1381 0.850285L29.7151 3.27329C29.5459 3.44237 29.4308 3.65781 29.3841 3.89236C29.3374 4.12691 29.3614 4.37004 29.4529 4.59098C29.5444 4.81192 29.6994 5.00076 29.8983 5.1336C30.0971 5.26644 30.3309 5.33733 30.5701 5.33728H38.6311C38.7898 5.33728 38.947 5.30601 39.0937 5.24525C39.2404 5.1845 39.3737 5.09544 39.4859 4.98318C39.5982 4.87091 39.6873 4.73763 39.748 4.59095C39.8088 4.44427 39.8401 4.28705 39.8401 4.12828C39.8401 3.96952 39.8088 3.8123 39.748 3.66562C39.6873 3.51894 39.5982 3.38566 39.4859 3.27339C39.3737 3.16113 39.2404 3.07207 39.0937 3.01131C38.947 2.95056 38.7898 2.91929 38.6311 2.91929H33.4941L33.8471 2.56428C34.0743 2.33766 34.2023 2.03002 34.2028 1.70905C34.2032 1.38808 34.0762 1.08008 33.8496 0.852784C33.6229 0.625494 33.3153 0.49754 32.9943 0.497072C32.6734 0.496603 32.3653 0.623657 32.1381 0.850285Z" fill="white"/>
<path fill-rule="evenodd" clip-rule="evenodd" d="M30.5741 10.1743H35.7151L35.3621 10.5293C35.1354 10.7559 35.0081 11.0633 35.0081 11.3838C35.0081 11.7043 35.1354 12.0117 35.3621 12.2383C35.5887 12.4649 35.8961 12.5922 36.2166 12.5922C36.5371 12.5922 36.8444 12.4649 37.0711 12.2383L39.4891 9.82029C39.6582 9.6512 39.7734 9.43576 39.82 9.20121C39.8667 8.96666 39.8428 8.72354 39.7512 8.50259C39.6597 8.28165 39.5047 8.09281 39.3059 7.95997C39.107 7.82713 38.8732 7.75624 38.6341 7.75629H30.5741C30.4153 7.75629 30.2581 7.78756 30.1114 7.84832C29.9647 7.90907 29.8314 7.99813 29.7192 8.1104C29.6069 8.22266 29.5178 8.35594 29.4571 8.50262C29.3963 8.64931 29.3651 8.80652 29.3651 8.96529C29.3651 9.12405 29.3963 9.28127 29.4571 9.42795C29.5178 9.57463 29.6069 9.70791 29.7192 9.82018C29.8314 9.93245 29.9647 10.0215 30.1114 10.0823C30.2581 10.143 30.4153 10.1743 30.5741 10.1743Z" fill="white"/>
<path fill-rule="evenodd" clip-rule="evenodd" d="M11.1958 30.2233C11.712 29.0409 12.5619 28.0347 13.6412 27.328C14.7206 26.6213 15.9827 26.2447 17.2728 26.2443H23.5138C24.804 26.2447 26.066 26.6213 27.1454 27.328C28.2248 28.0347 29.0746 29.0409 29.5908 30.2233C29.7149 30.5077 29.947 30.7312 30.2359 30.8446C30.5248 30.958 30.8469 30.9519 31.1313 30.8278C31.4158 30.7037 31.6392 30.4716 31.7526 30.1827C31.866 29.8938 31.8599 29.5717 31.7358 29.2873C31.0377 27.6872 29.8878 26.3255 28.4272 25.3694C26.9665 24.4132 25.2586 23.904 23.5128 23.9043H17.2728C15.527 23.904 13.8191 24.4132 12.3585 25.3694C10.8978 26.3255 9.74793 27.6872 9.04981 29.2873C8.92569 29.5717 8.91965 29.8938 9.03301 30.1827C9.14638 30.4716 9.36987 30.7037 9.65431 30.8278C9.93876 30.9519 10.2609 30.958 10.5498 30.8446C10.8387 30.7312 11.0707 30.5077 11.1948 30.2233H11.1958Z" fill="white"/>
<path fill-rule="evenodd" clip-rule="evenodd" d="M20.3939 8.30176C18.6194 8.30176 16.8847 8.82796 15.4093 9.81381C13.9339 10.7997 12.7839 12.2009 12.1048 13.8403C11.4258 15.4797 11.2481 17.2837 11.5943 19.0241C11.9405 20.7645 12.795 22.3632 14.0497 23.6179C15.3045 24.8727 16.9031 25.7272 18.6435 26.0734C20.3839 26.4196 22.1879 26.2419 23.8273 25.5628C25.4667 24.8837 26.868 23.7338 27.8538 22.2583C28.8397 20.7829 29.3659 19.0483 29.3659 17.2738C29.3651 14.8945 28.4196 12.6129 26.7372 10.9305C25.0548 9.24807 22.7732 8.30255 20.3939 8.30176ZM20.3939 10.6418C21.7054 10.6418 22.9874 11.0307 24.0779 11.7593C25.1683 12.4879 26.0182 13.5235 26.5201 14.7352C27.022 15.9468 27.1533 17.2801 26.8975 18.5664C26.6416 19.8527 26.0101 21.0342 25.0827 21.9616C24.1553 22.8889 22.9738 23.5205 21.6875 23.7763C20.4012 24.0322 19.068 23.9009 17.8563 23.399C16.6446 22.8971 15.609 22.0472 14.8804 20.9567C14.1518 19.8663 13.7629 18.5842 13.7629 17.2728C13.7637 15.5144 14.4626 13.8282 15.7059 12.5848C16.9493 11.3414 18.6355 10.6426 20.3939 10.6418Z" fill="white"/>
<path fill-rule="evenodd" clip-rule="evenodd" d="M36.9501 14.5432C38.2744 18.294 38.2844 22.3836 36.9785 26.1409C35.6726 29.8982 33.1284 33.1 29.7633 35.221C26.3982 37.3421 22.4121 38.2563 18.459 37.8137C14.506 37.3711 10.8207 35.5979 8.00803 32.7852C5.19533 29.9725 3.42221 26.2873 2.9796 22.3342C2.537 18.3812 3.45121 14.3951 5.57222 11.03C7.69323 7.66485 10.8951 5.12063 14.6524 3.81474C18.4097 2.50886 22.4993 2.51888 26.2501 3.84316C26.3954 3.89648 26.5499 3.92044 26.7046 3.91363C26.8592 3.90683 27.011 3.86939 27.1511 3.80351C27.2912 3.73762 27.4168 3.64459 27.5207 3.5298C27.6246 3.41501 27.7046 3.28075 27.7562 3.13479C27.8078 2.98884 27.83 2.83409 27.8213 2.67952C27.8127 2.52495 27.7735 2.37363 27.7059 2.23433C27.6384 2.09503 27.5439 1.97052 27.4279 1.86801C27.3119 1.7655 27.1767 1.68704 27.0301 1.63716C22.7787 0.133999 18.1426 0.120693 13.8827 1.59942C9.62272 3.07815 5.99197 5.96107 3.58628 9.77506C1.18058 13.589 0.142861 18.1075 0.643408 22.589C1.14396 27.0704 3.15304 31.2486 6.34094 34.4378C9.52885 37.627 13.7062 39.6378 18.1874 40.1402C22.6687 40.6426 27.1876 39.6068 31.0025 37.2026C34.8175 34.7985 37.7019 31.169 39.1824 26.9096C40.6629 22.6503 40.6515 18.0142 39.1501 13.7622C39.1002 13.6156 39.0218 13.4804 38.9193 13.3644C38.8167 13.2484 38.6922 13.1539 38.5529 13.0863C38.4136 13.0188 38.2623 12.9796 38.1077 12.9709C37.9532 12.9623 37.7984 12.9844 37.6525 13.036C37.5065 13.0877 37.3723 13.1677 37.2575 13.2716C37.1427 13.3755 37.0497 13.5011 36.9838 13.6412C36.9179 13.7813 36.8804 13.933 36.8736 14.0877C36.8668 14.2423 36.8908 14.3968 36.9441 14.5422L36.9501 14.5432Z" fill="white"/>
</svg>
