<svg xmlns="http://www.w3.org/2000/svg" width="34.713" height="34.702" viewBox="0 0 34.713 34.702">
  <g id="hold-project" transform="translate(0.327 0.348)">
    <g id="_28_Menu" data-name="28 Menu" transform="translate(0.036 0.002)">
      <path id="Path_5573" data-name="Path 5573" d="M17.034,34a17,17,0,1,1,12.022-4.98A17,17,0,0,1,17.034,34Zm0-30.682A13.681,13.681,0,1,0,30.715,17,13.7,13.7,0,0,0,17.034,3.323Z" transform="translate(-0.036 -0.002)" fill="#fff" stroke="#fff" stroke-width="0.7"/>
      <path id="Path_5574" data-name="Path 5574" d="M187.66,164.946a1.66,1.66,0,0,1-1.66-1.66V152.66a1.66,1.66,0,0,1,3.321,0v10.626A1.66,1.66,0,0,1,187.66,164.946Z" transform="translate(-173.65 -140.972)" fill="#fff" stroke="#fff" stroke-width="0.7" opacity="0.9"/>
      <path id="Path_5575" data-name="Path 5575" d="M277.66,164.946a1.66,1.66,0,0,1-1.66-1.66V152.66a1.66,1.66,0,1,1,3.321,0v10.626A1.66,1.66,0,0,1,277.66,164.946Z" transform="translate(-257.673 -140.972)" fill="#fff" stroke="#fff" stroke-width="0.7" opacity="0.9"/>
    </g>
  </g>
</svg>
