<?xml version="1.0" encoding="utf-8"?>
<!-- Generator: Adobe Illustrator 23.0.0, SVG Export Plug-In . SVG Version: 6.00 Build 0)  -->
<svg version="1.1" id="Layer_1" xmlns="http://www.w3.org/2000/svg" xmlns:xlink="http://www.w3.org/1999/xlink" x="0px" y="0px"
	 viewBox="0 0 750 500" style="enable-background:new 0 0 750 500;" xml:space="preserve">
<style type="text/css">
	.st0{fill:none;}
	.st1{fill:#1C9AF9;}
	.st2{fill:#4C5AD8;}
	.st3{fill:#AEBECC;}
	.st4{fill:#F0F0F0;}
	.st5{fill:#FFFFFF;}
	.st6{fill:#FFAB31;}
	.st7{fill:#757575;}
	.st8{fill:#DFE1E8;}
	.st9{fill:#EEF0F7;}
	.st10{fill:#3C4145;}
	.st11{fill:#EEA886;}
	.st12{fill:#E55353;}
	.st13{fill:#A77860;}
	.st14{fill:#BD4444;}
	.st15{fill:#D9C7C1;}
	.st16{fill:#EEA987;}
	.st17{fill:#E8734D;}
	.st18{fill:#C78D71;}
	.st19{fill:#EDDAD3;}
	.st20{fill:#5073AB;}
	.st21{fill:#323657;}
	.st22{fill:#F5F7FF;}
	.st23{fill:#949494;}
	.st24{fill:#21D885;}
	.st25{fill:#F3F3F3;}
	.st26{fill:#706865;}
	.st27{fill:#BDAFAA;}
	.st28{fill:#B5DEFF;}
	.st29{fill:#E2D2CA;}
	.st30{fill:#CCBDB7;}
	.st31{fill:#4667A8;}
	.st32{fill:#B59074;}
	.st33{fill:#EAD8CF;}
	.st34{fill:#DA9B5B;}
	.st35{fill:#424773;}
	.st36{fill:#292C47;}
	.st37{fill:#3A3F47;}
	.st38{fill:#918783;}
	.st39{fill:#5E5854;}
	.st40{fill:#BFB2AC;}
	.st41{fill:#5F8BE3;}
	.st42{fill:#CECFD6;}
	.st43{fill:#59524F;}
	.st44{fill:#314875;}
	.st45{fill:#1D3B54;}
	.st46{fill:#DE9673;}
	.st47{fill:#EB4747;}
	.st48{fill:#754836;}
	.st49{fill:#DB9C7C;}
	.st50{fill:#4DA8F2;}
	.st51{fill:#EFAA88;}
	.st52{fill:#828282;}
	.st53{fill:#D88A51;}
	.st54{fill:#8E8E8E;}
</style>
<g>
	<rect class="st0" width="750" height="500"/>
	<g>
		<g>
			<path class="st1" d="M572.9,86.8c-0.8-3.2-2.1-6.2-3.7-9l3.8-5.7l-5.2-5.2l-5.2-5.2l-5.7,3.8c-2.8-1.6-5.8-2.9-9-3.7l-1.3-6.7
				H539h-7.4l-1.3,6.7c-3.2,0.8-6.2,2.1-9,3.7l-5.7-3.8l-5.2,5.2l-5.2,5.2l3.8,5.7c-1.6,2.8-2.9,5.8-3.7,9l-6.7,1.3v7.4v7.4l6.7,1.3
				c0.8,3.2,2.1,6.2,3.7,9l-3.8,5.7l5.2,5.2l5.2,5.2l5.7-3.8c2.8,1.6,5.8,2.9,9,3.7l1.3,6.7h7.4h7.4l1.3-6.7c3.2-0.8,6.2-2.1,9-3.7
				l5.7,3.8l5.2-5.2l5.2-5.2l-3.8-5.7c1.6-2.8,2.9-5.8,3.7-9l6.7-1.3v-7.4v-7.4L572.9,86.8z M539,121.6c-14.4,0-26-11.6-26-26
				c0-14.4,11.6-26,26-26c14.4,0,26,11.6,26,26C565.1,109.9,553.4,121.6,539,121.6z"/>
		</g>
		<g>
			<path class="st2" d="M583,149.9c-0.4-1.5-1-2.8-1.7-4.1l1.7-2.6l-2.4-2.4l-2.4-2.4l-2.6,1.7c-1.3-0.7-2.6-1.3-4.1-1.7l-0.6-3.1
				h-3.4h-3.4l-0.6,3.1c-1.5,0.4-2.8,1-4.1,1.7l-2.6-1.7l-2.4,2.4l-2.4,2.4l1.7,2.6c-0.7,1.3-1.3,2.6-1.7,4.1l-3.1,0.6v3.4v3.4
				l3.1,0.6c0.4,1.5,1,2.8,1.7,4.1l-1.7,2.6l2.4,2.4l2.4,2.4l2.6-1.7c1.3,0.7,2.6,1.3,4.1,1.7l0.6,3.1h3.4h3.4l0.6-3.1
				c1.5-0.4,2.8-1,4.1-1.7l2.6,1.7l2.4-2.4l2.4-2.4l-1.7-2.6c0.7-1.3,1.3-2.6,1.7-4.1l3.1-0.6v-3.4v-3.4L583,149.9z M567.5,165.8
				c-6.6,0-11.9-5.3-11.9-11.9c0-6.6,5.3-11.9,11.9-11.9s11.9,5.3,11.9,11.9C579.4,160.5,574.1,165.8,567.5,165.8z"/>
		</g>
		<g>
			
				<rect x="367.3" y="275.5" transform="matrix(-1 -1.224647e-16 1.224647e-16 -1 771.1856 661.8586)" class="st3" width="36.5" height="110.9"/>
		</g>
		<g>
			<path class="st4" d="M243.2,328.9H528c8.4,0,15.3-6.8,15.3-15.3V121.7c0-8.4-6.8-15.3-15.3-15.3H243.2c-8.4,0-15.3,6.8-15.3,15.3
				v191.9C227.9,322.1,234.8,328.9,243.2,328.9z"/>
		</g>
		<g>
			
				<rect x="240.3" y="82.8" transform="matrix(-1 -1.224647e-16 1.224647e-16 -1 771.1847 376.8278)" class="st5" width="290.6" height="211.3"/>
		</g>
		<g>
			
				<rect x="240.3" y="82.8" transform="matrix(-1 -1.224647e-16 1.224647e-16 -1 771.1847 191.0869)" class="st6" width="290.6" height="25.5"/>
		</g>
		<g>
			<path class="st7" d="M375.4,310c0,5.6,4.6,10.2,10.2,10.2c5.6,0,10.2-4.6,10.2-10.2c0-5.6-4.6-10.2-10.2-10.2
				C380,299.8,375.4,304.4,375.4,310z"/>
		</g>
		<g>
			<g>
				<g>
					<path class="st8" d="M330.1,134h95.1c1.9,0,3.5-1.6,3.5-3.5V130c0-1.9-1.6-3.5-3.5-3.5h-95.1c-1.9,0-3.5,1.6-3.5,3.5v0.6
						C326.6,132.4,328.1,134,330.1,134z"/>
				</g>
			</g>
		</g>
		<g>
			<g>
				<g>
					<path class="st8" d="M330.1,147.6h95.1c1.9,0,3.5-1.6,3.5-3.5v-0.6c0-1.9-1.6-3.5-3.5-3.5h-95.1c-1.9,0-3.5,1.6-3.5,3.5v0.6
						C326.6,146.1,328.1,147.6,330.1,147.6z"/>
				</g>
			</g>
		</g>
		<g>
			<g>
				<g>
					<path class="st8" d="M330.1,161.3h95.1c1.9,0,3.5-1.6,3.5-3.5v-0.6c0-1.9-1.6-3.5-3.5-3.5h-95.1c-1.9,0-3.5,1.6-3.5,3.5v0.6
						C326.6,159.7,328.1,161.3,330.1,161.3z"/>
				</g>
			</g>
		</g>
		<g>
			<g>
				<g>
					<g>
						<path class="st8" d="M379.2,279.2H270.2c-9.1,0-16.5-7.4-16.5-16.5v-66.3c0-9.1,7.4-16.5,16.5-16.5h108.9
							c9.1,0,16.5,7.4,16.5,16.5v66.3C395.6,271.8,388.2,279.2,379.2,279.2z M270.2,182c-7.9,0-14.4,6.5-14.4,14.4v66.3
							c0,7.9,6.5,14.4,14.4,14.4h108.9c7.9,0,14.4-6.5,14.4-14.4v-66.3c0-7.9-6.5-14.4-14.4-14.4H270.2z"/>
					</g>
				</g>
			</g>
		</g>
		<g>
			<g>
				<g>
					<path class="st8" d="M278.5,204.9h92.4c3.8,0,6.9-3.1,6.9-6.9v-2.1c0-3.8-3.1-6.9-6.9-6.9h-92.4c-3.8,0-6.9,3.1-6.9,6.9v2.1
						C271.6,201.8,274.7,204.9,278.5,204.9z"/>
				</g>
			</g>
		</g>
		<rect x="303.5" y="382.2" class="st4" width="164.3" height="8.4"/>
		<g>
			<path class="st9" d="M498.2,201.7c0,8.7-4.7,16.3-11.7,20.4c-1.4,0.8-2.9,1.5-4.5,2c-0.1,0-0.3,0.1-0.4,0.1
				c-2.2,0.7-4.6,1.1-7,1.1c-3.8,0-7.3-0.9-10.5-2.5c-7.8-3.9-13.1-11.9-13.1-21.2c0-13.1,10.6-23.6,23.6-23.6
				C487.6,178.1,498.2,188.7,498.2,201.7z"/>
			<g>
				<path class="st10" d="M468.9,199.2c0,0-1.6-10.4,7-10.3c8.7,0.2,8.5,5.4,8.4,10.5c-0.2,5.1-3.5,4.7,0.3,11.9s-3.2,7.1-3.2,7.1
					L476,211L468.9,199.2z"/>
			</g>
			<g>
				<path class="st11" d="M475,190c0,0-5.9,0.9-6.1,9.3c-0.2,8.3,1.6,10.1,6.7,8.4c5.1-1.7,6.7-10.4,6.9-11.8
					C482.6,194.5,482.9,189,475,190z"/>
			</g>
			<g>
				<path class="st12" d="M485.3,219c0,2.5-1.3,4.2-3.3,5.2c-0.1,0-0.3,0.1-0.4,0.1c-2.2,0.7-4.6,1.1-7,1.1c-3.8,0-7.3-0.9-10.5-2.5
					c-0.7-1.4,0.3-3.4,2.4-6.5c1.4-2.1,2.9-4.3,5.3-5.4c3.6-0.6,7.3-0.6,10,0.9C483.9,213.1,485.3,215.3,485.3,219z"/>
			</g>
			<g>
				<path class="st12" d="M467.6,216.3l-2.7,4.2c0,0,0.2-0.7,0.5-2.5c0.1-0.4,0.1-0.8,0.2-1.2c0-0.1,0-0.3,0.1-0.4l0,0
					c1.2-2.7,4.8-4.6,4.9-4.7L467.6,216.3z"/>
			</g>
			<g>
				<path class="st11" d="M486.5,222.2c-1.4,0.8-2.9,1.5-4.5,2c-0.1,0-0.3,0.1-0.4,0.1c-0.6-1.5-1.1-2.9-1.2-3.2
					c0-0.1-0.1-0.3-0.2-0.5c-0.5-1.2-1.6-3.8-1.6-5.9c0-1.3,0.4-2.4,1.8-2.7c0.5-0.1,1-0.1,1.4-0.1c1.5,0.3,2.4,1.6,2.8,2.8
					c0,0,0,0,0,0.1c0.4,1,0.5,1.9,0.5,1.9s0,0.1,0.1,0.3c0.1,0.3,0.2,1,0.5,1.8C485.9,219.6,486.2,220.8,486.5,222.2z"/>
			</g>
			<g>
				<path class="st11" d="M478.9,203.9c-0.5,1-1,6.9-1,6.9s-7.2,2.7-6.4,1.2c0.3-0.7,0.4-1.6,0.4-2.4c0-0.6,0-1.1-0.1-1.4
					c0-0.2,0-0.2,0-0.2S479.4,202.9,478.9,203.9z"/>
			</g>
			<g>
				<path class="st10" d="M472.6,196c0,0,3,4.9,5.7,6.8c2.7,1.9,1.3,3.5,1.3,3.5s7.1-15,0.4-16.1c-6.8-1-11-1.1-11.1,9.1
					C468.9,199.2,472,195.9,472.6,196z"/>
			</g>
			<g>
				<path class="st13" d="M475.9,207.5c-1.1,1.6-4,2.1-4,2.1l0,0c0-0.6,0-1.1-0.1-1.4C473.7,208.5,475.9,207.5,475.9,207.5z"/>
			</g>
			<path class="st14" d="M465.7,216.4L465.7,216.4c0,0-0.2,0.3-0.3,1.6l1.1-1.6c0,0,1.9-2.7,2.5-3.4c0.6-0.7,1.6-1.3,1.6-1.3
				S466.8,213.4,465.7,216.4z"/>
			<path class="st12" d="M480,220.4c0,0,4.6-1.8,6-1.9c0,0-0.9-7.4-5.4-6.6C476,212.7,480,220.4,480,220.4z"/>
			<path class="st11" d="M471.7,211c0,0-3.4,5.2-2.2,5.6c1.1,0.5,7.3-0.6,10-5.5C479.5,211.1,475.5,209.1,471.7,211z"/>
		</g>
		<g>
			<path class="st9" d="M507,132.7c0,16.9-13.7,30.8-30.8,30.8c-17,0-30.8-13.8-30.8-30.8c0-17,13.8-30.8,30.8-30.8
				C493.2,102,507,115.8,507,132.7z"/>
			<g>
				<g>
					<path class="st15" d="M496.2,149.7l-2.3,8.1c-4,2.9-8.8,4.8-14,5.4c-0.9,0.1-1.8,0.2-2.8,0.2c-0.3,0-0.7,0-1,0c-1,0-2,0-3-0.1
						c-1.1-0.1-2.2-0.3-3.2-0.5c-4.7-0.9-8.9-2.9-12.6-5.7c-0.4-2.7-0.9-5.7-1.3-8.5c2.3-0.8,9.5-3.3,14-4.8c0.1,0,0.1,0,0.2-0.1
						c0.1,0,0.2-0.1,0.3-0.1c0.3-0.1,0.5-0.2,0.8-0.3c0.2-0.1,0.5-0.2,0.7-0.2c0.9-0.3,1.6-0.5,1.8-0.6c0,0,0,0,0,0
						c0.1,0,0.1,0,0.1,0l0.1,0l6.1,0.5l1,0.1l0.3,0c0,0,0,0,0.1,0c0.4,0.1,1.4,0.4,2.9,0.8c0,0,0,0,0,0
						C488.1,145.1,494,147.2,496.2,149.7z"/>
				</g>
				<g>
					<path class="st16" d="M477.8,117.5c0,0,7.3,1.2,6.1,12.7c-1.2,11.5-7.7,10.5-8.1,10.4c-0.4,0-6.5,0.1-6.8-13.9
						C468.9,126.7,468.8,116.4,477.8,117.5z"/>
				</g>
				<g>
					<path class="st16" d="M481,137.3c0,0-0.3,4.7,0.2,5.7c0.4,1-5.9,4.3-9.8,0.6c0,0,0.8-5.2,0.5-7
						C471.7,134.8,481,137.3,481,137.3z"/>
				</g>
				<g>
					<path class="st16" d="M484,126.9c0,0,0.8-0.8,1.1,0c0.3,0.9-1.3,4.7-1.2,4.9c0,0-0.2,0.3-0.3,0.1
						C483.4,131.8,484,126.9,484,126.9z"/>
				</g>
				<g>
					<path class="st16" d="M469,126.6c0,0-0.8-0.9-1.1,0c-0.3,0.9,0.9,4.7,1,5c0,0,0.3,0.4,0.5,0.2C469.5,131.6,469,126.6,469,126.6
						z"/>
				</g>
				<g>
					<path class="st17" d="M484.5,126c-0.3,1.6-0.5,2.7-0.5,2.7l-1.1,1.4c0,0,0.1-3.1-0.1-3.6c-0.1-0.2-0.1-0.5-0.2-0.9
						c-0.1-0.6-0.2-1.2-0.3-1.5c-0.1-0.3-6.3-2.1-11.7,0.4c0,0,0,0.5,0,1c0,0.6-0.1,1.3-0.4,1.4c-0.5,0.2-0.3,3.6-0.3,3.6l-0.9-1
						c0,0-0.2-1.8-0.5-3.8c0,0,0,0,0,0c-0.1-0.5-0.1-1-0.2-1.5c-0.1-2.1,0.1-5.8,2.8-8c1.8-0.8,4.7-1.4,9.5,0c0,0,1.1,0.1,1.4,0.4
						C485.1,120,484.5,126,484.5,126z"/>
				</g>
				<path class="st18" d="M472.4,139.1c0,0,1.2,1.6,3.9,1.6c2.7-0.1,3.9-1.5,3.9-1.5s-1.3,2.7-3.9,2.7
					C473.7,141.8,472.4,139.1,472.4,139.1z"/>
				<path class="st16" d="M470.6,143.7c0,0,2,3.4,5.7,3.7c2.4,0.2,4.4-2.8,5.4-4.3C481.7,143.2,476.4,140.9,470.6,143.7z"/>
				<path class="st19" d="M481,142.1c0,0-1.5,2-4.7,4.1l2,3.1l3.4-6L481,142.1z"/>
				<path class="st19" d="M471.5,142.6c0,0,1.9,2.4,4.8,3.6l-2.2,3.1l-3.8-5.5L471.5,142.6z"/>
				<path class="st20" d="M476.3,146.2l1.7,2.6c0,0-1.8,1-3.4-0.1L476.3,146.2z"/>
				<path class="st21" d="M498.2,149.2c-0.3,1.1-0.7,2.6-1.9,6.8c-0.4,0.3-0.7,0.6-1.1,0.9c-0.4,0.3-0.8,0.6-1.3,0.9
					c-4,2.9-8.8,4.8-14,5.4c0.5-10.7,1.7-20.1,1.7-20.1c1,0.3,1.9,0.5,2.8,0.8c0,0,0,0,0,0c7.8,2.2,11.8,4.2,13.1,5c0,0,0,0,0,0
					C498,149.1,498.2,149.2,498.2,149.2z"/>
				<path class="st21" d="M470,162.9c-4.7-0.9-8.9-2.9-12.6-5.7c-1.1-0.8-2.1-1.8-3.1-2.7c-0.2-0.2-0.4-0.4-0.6-0.6
					c-0.5-2.3-0.9-3.8-0.9-3.9l0,0c0,0,3.8-2.5,17.3-6.1c0,0,0,0,0,0C470.1,144.2,470.2,152.8,470,162.9z"/>
				<path class="st20" d="M477.3,149c-0.1,2.8-0.1,8.2-0.1,14.5c-0.3,0-0.7,0-1,0c-1,0-2,0-3-0.1c0.6-7.7,1.6-12.4,2-14.3
					c0.1-0.6,0.2-0.9,0.2-0.9l1.8,0.3C477.3,148.6,477.3,148.8,477.3,149z"/>
				<g>
					<path class="st21" d="M499.7,152.5c-1.1,1.3-2.2,2.4-3.4,3.5c-0.4,0.3-0.7,0.6-1.1,0.9l3-7.7
						C498.9,149.9,499.5,151.9,499.7,152.5z"/>
				</g>
				<g>
					<path class="st21" d="M454.3,154.4c-0.2-0.2-0.4-0.4-0.6-0.6c-0.7-0.7-1.3-1.5-2-2.3c0.3-0.8,0.7-1.4,1-1.6l0,0L454.3,154.4z"
						/>
				</g>
			</g>
		</g>
		<path class="st22" d="M290.6,100.4h-34.9c-1.8,0-3.3-1.5-3.3-3.3v-3c0-1.8,1.5-3.3,3.3-3.3h34.9c1.8,0,3.3,1.5,3.3,3.3v3
			C293.9,98.9,292.4,100.4,290.6,100.4z"/>
		<g>
			
				<ellipse transform="matrix(0.9999 -1.315423e-02 1.315423e-02 0.9999 -3.3539 6.265)" class="st9" cx="474.6" cy="258.1" rx="23.6" ry="23.6"/>
			<g>
				<path class="st23" d="M474.6,267.5c-0.7,0-1.2-0.5-1.2-1.2v-16.5c0-0.7,0.5-1.2,1.2-1.2c0.7,0,1.2,0.5,1.2,1.2v16.5
					C475.8,267,475.2,267.5,474.6,267.5z"/>
			</g>
			<g>
				<path class="st23" d="M482.8,259.3h-16.5c-0.7,0-1.2-0.5-1.2-1.2c0-0.7,0.5-1.2,1.2-1.2h16.5c0.7,0,1.2,0.5,1.2,1.2
					C484,258.7,483.5,259.3,482.8,259.3z"/>
			</g>
		</g>
		<g>
			<g>
				<path class="st24" d="M424.3,203.2h-13.4c-2.4,0-4.4-2-4.4-4.4v-13.4c0-2.4,2-4.4,4.4-4.4h13.4c2.4,0,4.4,2,4.4,4.4v13.4
					C428.7,201.2,426.7,203.2,424.3,203.2z"/>
			</g>
			<g>
				<g>
					<g>
						<path class="st25" d="M416.9,197l-5.6-4.9c-0.5-0.4-0.5-1.1-0.1-1.6c0.4-0.5,1.1-0.5,1.6-0.1l4,3.5l5.7-6.3
							c0.4-0.5,1.1-0.5,1.6-0.1c0.5,0.4,0.5,1.1,0.1,1.6L416.9,197z"/>
					</g>
				</g>
			</g>
		</g>
		<g>
			<g>
				<path class="st24" d="M424.3,231.6h-13.4c-2.4,0-4.4-2-4.4-4.4v-13.4c0-2.4,2-4.4,4.4-4.4h13.3c2.4,0,4.4,2,4.4,4.4v13.4
					C428.7,229.6,426.7,231.6,424.3,231.6z"/>
			</g>
			<g>
				<g>
					<g>
						<path class="st25" d="M416.9,225.4l-5.6-4.9c-0.5-0.4-0.5-1.1-0.1-1.6c0.4-0.5,1.1-0.5,1.6-0.1l4,3.5l5.7-6.3
							c0.4-0.5,1.1-0.5,1.6-0.1c0.5,0.4,0.5,1.1,0.1,1.6L416.9,225.4z"/>
					</g>
				</g>
			</g>
		</g>
		<g>
			<g>
				<path class="st9" d="M424.3,260h-13.3c-2.4,0-4.4-2-4.4-4.4v-13.4c0-2.4,2-4.4,4.4-4.4h13.4c2.4,0,4.4,2,4.4,4.4v13.3
					C428.7,258,426.7,260,424.3,260z"/>
			</g>
		</g>
		<rect x="270.6" y="271.2" class="st26" width="3.4" height="153.2"/>
		<path class="st27" d="M279.2,399.1h-91.7c-5.3,0-9.6-4.3-9.6-9.6V216.8c0-5.3,4.3-9.6,9.6-9.6h91.7c5.3,0,9.6,4.3,9.6,9.6v172.7
			C288.8,394.8,284.5,399.1,279.2,399.1z"/>
		<path class="st5" d="M276.3,391.6h-85.8c-5.3,0-9.5-4.3-9.5-9.5V219.8c0-5.3,4.3-9.5,9.5-9.5h85.8c5.3,0,9.5,4.3,9.5,9.5v162.4
			C285.8,387.4,281.5,391.6,276.3,391.6z"/>
		<rect x="216.8" y="205.7" class="st26" width="33.1" height="7.5"/>
		<g>
			<g>
				<g>
					<g>
						<path class="st28" d="M265.6,384.4h-67.1c-5.4,0-9.9-4.4-9.9-9.9v-38.2c0-5.4,4.4-9.9,9.9-9.9h67.1c5.4,0,9.9,4.4,9.9,9.9
							v38.2C275.5,380,271,384.4,265.6,384.4z M198.5,327.7c-4.7,0-8.6,3.9-8.6,8.6v38.2c0,4.7,3.9,8.6,8.6,8.6h67.1
							c4.7,0,8.6-3.9,8.6-8.6v-38.2c0-4.7-3.9-8.6-8.6-8.6H198.5z"/>
					</g>
				</g>
			</g>
		</g>
		<g>
			<g>
				<path class="st21" d="M205.4,292C205.4,292,205.4,292,205.4,292C205.4,292,205.5,292,205.4,292z"/>
			</g>
		</g>
		<g>
			<path class="st28" d="M263.7,287.9c-6,0-10.9-4.9-10.9-10.9c0-6,4.9-10.9,10.9-10.9c6,0,10.9,4.9,10.9,10.9
				C274.6,283,269.7,287.9,263.7,287.9z M263.7,267.3c-5.3,0-9.7,4.3-9.7,9.7c0,5.3,4.3,9.7,9.7,9.7s9.7-4.3,9.7-9.7
				C273.3,271.6,269,267.3,263.7,267.3z"/>
		</g>
		<g>
			<path class="st28" d="M263.7,313.1c-6,0-10.9-4.9-10.9-10.9c0-6,4.9-10.9,10.9-10.9c6,0,10.9,4.9,10.9,10.9
				C274.6,308.2,269.7,313.1,263.7,313.1z M263.7,292.5c-5.3,0-9.7,4.3-9.7,9.7c0,5.3,4.3,9.7,9.7,9.7s9.7-4.3,9.7-9.7
				C273.3,296.8,269,292.5,263.7,292.5z"/>
		</g>
		<g>
			<path class="st28" d="M214.4,277.4c-0.9,0-1.8,0-2.7-0.1c-1-0.1-2-0.2-2.9-0.4c-4.2-0.8-8.2-2.7-11.6-5.3c-1-0.8-2-1.6-2.9-2.5
				c-0.2-0.2-0.4-0.4-0.5-0.5c-0.6-0.7-1.2-1.4-1.8-2.1c-3.9-5-5.9-11-5.9-17.3c0-15.6,12.7-28.3,28.3-28.3v1.3
				c-14.9,0-27.1,12.1-27.1,27.1c0,6,2,11.8,5.6,16.5c0.5,0.7,1.1,1.4,1.7,2c0.2,0.2,0.3,0.3,0.5,0.5c0.9,0.9,1.8,1.7,2.7,2.4
				c3.2,2.5,7.1,4.2,11.1,5c0.9,0.2,1.9,0.3,2.8,0.4c0.9,0.1,1.7,0.1,2.6,0.1c0.3,0,0.6,0,0.9,0c0.8,0,1.6-0.1,2.4-0.2
				c4.4-0.5,8.7-2.2,12.3-4.8c0.4-0.3,0.8-0.6,1.1-0.8c0.3-0.2,0.6-0.5,1-0.8c1.1-0.9,2.1-2,3-3.1c4.1-4.9,6.3-11,6.3-17.4
				c0-1.3-0.1-2.7-0.3-4l1.3-0.2c0.2,1.4,0.3,2.8,0.3,4.2c0,6.7-2.4,13.1-6.6,18.2c-1,1.1-2,2.2-3.2,3.2c-0.3,0.3-0.7,0.6-1,0.8
				c-0.4,0.3-0.8,0.6-1.2,0.9c-3.8,2.7-8.3,4.4-12.9,5c-0.8,0.1-1.7,0.2-2.5,0.2C215,277.4,214.7,277.4,214.4,277.4z"/>
		</g>
		<path class="st28" d="M234.1,264.1c-0.1-0.1-0.2-0.2-0.3-0.3c0,0-0.1-0.1-0.1-0.1c0,0,0,0,0,0l0,0c-5.3-2.9-14.8-5.3-14.8-5.3
			c-0.3-0.6-0.3-2.8-0.2-4.2c1-1.1,1.9-2.9,2.4-5.7c0.2,0.1,0.3-0.2,0.3-0.2c-0.1-0.2,1.3-3.6,1.1-4.4c-0.1-0.4-0.4-0.4-0.7-0.3
			c0-0.2,0.1-0.4,0.1-0.6c0,0,0.6-5.3-2.1-8.3c-0.3-0.3-1.3-0.3-1.3-0.3c-4.3-1.3-6.9-0.7-8.6,0c-2.4,2-2.6,5.3-2.5,7.2
			c0,0.4,0.1,0.9,0.1,1.3c0,0,0,0,0,0c0,0.2,0,0.3,0.1,0.5c-0.2-0.1-0.5-0.2-0.7,0.2c-0.3,0.8,0.8,4.2,0.9,4.5c0,0,0.2,0.4,0.4,0.2
			c0,0,0,0,0,0c0.5,3.1,1.4,4.9,2.3,6.1c-0.1,1.7-0.4,3.9-0.5,4.4c0,0,0,0,0,0c-2.2,0.7-13.3,3.7-16.7,5.9c-0.3,0.2-0.6,0.7-0.9,1.4
			c0.6,0.7,1.1,1.4,1.8,2.1c0.2,0.2,0.3,0.4,0.5,0.5c0.9,0.9,1.8,1.7,2.8,2.5c3.3,2.5,7.1,4.3,11.3,5.2c0.9,0.2,1.9,0.3,2.9,0.4
			c0.9,0.1,1.8,0.1,2.7,0.1c0.3,0,0.6,0,0.9,0c0.8,0,1.7-0.1,2.5-0.2c4.7-0.6,9-2.3,12.6-4.9c0.4-0.3,0.8-0.6,1.1-0.9
			c0.3-0.3,0.7-0.5,1-0.8c1.1-1,2.1-2,3.1-3.1C235.1,265.6,234.6,264.6,234.1,264.1z"/>
		<g>
			<g>
				
					<rect x="531.2" y="325.9" transform="matrix(-1 -1.224647e-16 1.224647e-16 -1 1095.2877 653.6688)" class="st29" width="32.8" height="1.9"/>
			</g>
			<g>
				<rect x="556.8" y="332.9" class="st26" width="2.9" height="88.6"/>
			</g>
			<g>
				
					<rect x="513.6" y="325.3" transform="matrix(-1 -1.224647e-16 1.224647e-16 -1 1049.9341 653.3978)" class="st30" width="22.8" height="2.8"/>
			</g>
			<g>
				
					<rect x="520.6" y="301.6" transform="matrix(-1 -1.224647e-16 1.224647e-16 -1 1049.9341 629.382)" class="st31" width="8.6" height="26.2"/>
			</g>
			<g>
				
					<rect x="449.4" y="327.8" transform="matrix(-1 -1.224647e-16 1.224647e-16 -1 1025.2672 660.7178)" class="st32" width="126.4" height="5"/>
			</g>
			<g>
				<path class="st21" d="M600.1,297.4c0,0,1.4,19.4-2.4,21.7c-2.4,1.5-11.8,6.4-11.6,7.3c0.3,0.9,5.3,8.2,5.3,8.2
					s18.2-12,18.8-15.7c0.6-3.7-0.9-28.4-3.4-29.5c-1.9-0.9-2.9-0.1-5.2,1.6C598.3,293.3,600.1,297.4,600.1,297.4z"/>
			</g>
			<g>
				<g>
					<g>
						<path class="st33" d="M567,302.9l-1.6-0.6c0,0,2-4.7,2.9-4.6c1,0.1,2.3,0.5,2.3,0.5L567,302.9z"/>
					</g>
				</g>
			</g>
			<g>
				<g>
					<g>
						<path class="st34" d="M566.6,303.7c0.2-0.2,3.4-6.3,3.4-6.3l6.8,0.9l-3.7,7.3L566.6,303.7z"/>
					</g>
				</g>
			</g>
			<g>
				<g>
					<g>
						<path class="st35" d="M577.7,409.4c0,0,0.6,3.9,0.6,4.5c0.1,0.6,6.3-0.3,6.3-0.3l0.5-4.7C585.1,408.9,578.5,408.8,577.7,409.4
							z"/>
					</g>
				</g>
			</g>
			<g>
				<g>
					<g>
						<path class="st36" d="M578.3,413.4c0,0-2,2.4-3.9,3.4c-1.9,1-4.9,1.4-6,2.5c-0.8,0.8-3,4.1,4.9,4c7.9-0.1,11.7,0.5,12.6-0.8
							c0.8-1.3-1.2-9.4-1.2-9.4S582.8,413.8,578.3,413.4z"/>
					</g>
				</g>
			</g>
			<g>
				<g>
					<g>
						<path class="st35" d="M537.9,409.4c0,0,0.6,3.9,0.6,4.5c0.1,0.6,6.3-0.3,6.3-0.3l0.5-4.7C545.3,408.9,538.7,408.9,537.9,409.4
							z"/>
					</g>
				</g>
			</g>
			<g>
				<g>
					<g>
						<path class="st36" d="M538.5,413.4c0,0-2,2.4-3.9,3.4c-1.9,1-8.9,1.9-10,2.9c-0.8,0.8-2.2,3.9,9,3.6
							c7.9-0.2,11.7,0.5,12.6-0.8c0.8-1.3-1.2-9.4-1.2-9.4S543.1,413.9,538.5,413.4z"/>
					</g>
				</g>
			</g>
			<g>
				<g>
					<g>
						<path class="st36" d="M597.8,341.6c0,0-22.6,3.8-27.7,4.6c-5.1,0.8-32.8,7.7-36.2,9.8c-2.8,1.7,1.4,41.8,2.4,57.1h10.9
							l0.8-45.9c13.1,0.3,22.4-3.1,31.9-1.6c9.5,1.4,17.5,3.5,23.5-4.6C603.4,361,603.6,343.4,597.8,341.6z"/>
					</g>
				</g>
			</g>
			<g>
				<g>
					<g>
						<path class="st36" d="M575.5,413.2l10.6-0.7l1-45.3c5.6,0.1,7.6-0.2,12.1-0.8l8.6-19.9c-7.5,1.5-31.6,7.6-34.8,9.5
							C570.3,357.7,574.5,397.9,575.5,413.2z"/>
					</g>
				</g>
			</g>
			<g>
				<g>
					<g>
						<path class="st11" d="M587.4,256.9c0,0-8.3-2.3-11.4,4.1c-3.2,6.4-1.7,18.6,2.4,19.8s10.2-0.2,11.9-4.2
							c1.7-4,3.1-9.7,2.7-13.4C592.6,259.6,589.6,257.8,587.4,256.9z"/>
					</g>
				</g>
			</g>
			<g>
				<g>
					<g>
						<path class="st11" d="M580.5,279.5c0,0,0.1,4.9-0.4,5.9c-0.5,1,11.5,0.8,11.5,0.8s-1.9-5.9-0.8-10.9
							C591.9,270.4,580.5,279.5,580.5,279.5z"/>
					</g>
				</g>
			</g>
			<g>
				<g>
					<g>
						<path class="st37" d="M591.4,273.5c0,0-0.6,1.3-3.8,1.1c-3.1-0.2-7.2-4-8.6-4.3c-1.3-0.3-1.4-1.1-1.4-1.1l-0.7,1.2l-1.4,0.2
							c0,0,0.9-3.8-1.1-5.1c-2-1.3,0.9-12,11.1-9.5c0,0,7.8,1.4,7.9,5.8C593.6,266.2,593,271.2,591.4,273.5z"/>
					</g>
				</g>
			</g>
			<g>
				<g>
					<g>
						<path class="st29" d="M579.5,285.4c0,0,0-2,0.9-2.2c0.9-0.2,9.5-1.4,10.6-0.9l0.5,2.6C591.5,284.9,589.3,286.2,579.5,285.4z"
							/>
					</g>
				</g>
			</g>
			<g>
				<g>
					<g>
						<path class="st11" d="M577,268.3c0.2-1.6,2.1-3.5,3.2-1s-0.7,6.2-1.9,6C577,273.2,576.7,270.5,577,268.3z"/>
					</g>
				</g>
			</g>
			<g>
				<g>
					<g>
						<path class="st21" d="M543.5,308.9C543.5,308.9,543.5,308.9,543.5,308.9C543.4,308.9,543.4,308.9,543.5,308.9z"/>
					</g>
				</g>
			</g>
			<g>
				<g>
					<g>
						<path class="st37" d="M589.8,258.1c0,0,10.1-0.5,1.8,15.3L589.8,258.1z"/>
					</g>
				</g>
			</g>
			<g>
				<g>
					<polygon class="st38" points="612.3,418.5 611.5,420.6 579.8,410.8 581.3,406.5 					"/>
				</g>
			</g>
			<g>
				<g>
					
						<rect x="578.7" y="374.8" transform="matrix(-1 -1.224647e-16 1.224647e-16 -1 1161.0092 784.0848)" class="st38" width="3.6" height="34.5"/>
				</g>
			</g>
			<g>
				<g>
					
						<rect x="569.9" y="373" transform="matrix(-1 -1.224647e-16 1.224647e-16 -1 1161.0081 747.9394)" class="st39" width="21.3" height="2"/>
				</g>
			</g>
			<g>
				<g>
					<polygon class="st38" points="548.4,418.5 549.2,420.6 580.9,410.8 579.5,406.3 					"/>
				</g>
			</g>
			<g>
				<g>
					<polygon class="st38" points="570.8,420.4 570.8,422.9 580.9,410.8 579.5,406.3 					"/>
				</g>
			</g>
			<g>
				<g>
					<path class="st40" d="M545.5,421.5c0,1.6,1.3,3,3,3c1.6,0,3-1.3,3-3c0-1.6-1.3-3-3-3C546.8,418.5,545.5,419.8,545.5,421.5z"/>
				</g>
			</g>
			<g>
				<g>
					<path class="st40" d="M570.6,421.5c0,1.6,1.3,3,3,3s3-1.3,3-3c0-1.6-1.3-3-3-3S570.6,419.8,570.6,421.5z"/>
				</g>
			</g>
			<g>
				<g>
					<path class="st40" d="M609.3,421.5c0,1.6,1.3,3,3,3c1.6,0,3-1.3,3-3c0-1.6-1.3-3-3-3C610.6,418.5,609.3,419.8,609.3,421.5z"/>
				</g>
			</g>
			<g>
				<path class="st29" d="M558.8,373H602c2,0,3.6-1.6,3.6-3.6v-0.5c0-2-1.6-3.6-3.6-3.6h-43.2c-2,0-3.6,1.6-3.6,3.6v0.5
					C555.2,371.3,556.8,373,558.8,373z"/>
			</g>
			<g>
				
					<rect x="465.6" y="332.9" transform="matrix(-1 -1.224647e-16 1.224647e-16 -1 934.1019 754.3434)" class="st26" width="2.9" height="88.6"/>
			</g>
			<g>
				<path class="st41" d="M491.3,314.2h67.4c2,0,3.6-1.6,3.6-3.6v-45.4c0-2-1.6-3.6-3.6-3.6h-67.4c-2,0-3.6,1.6-3.6,3.6v45.4
					C487.7,312.6,489.3,314.2,491.3,314.2z"/>
			</g>
			<g>
				
					<rect x="490.6" y="264.4" transform="matrix(-1 -1.224647e-16 1.224647e-16 -1 1049.9352 570.4057)" class="st22" width="68.7" height="41.5"/>
			</g>
			<g>
				
					<rect x="490.6" y="264.4" transform="matrix(-1 -1.224647e-16 1.224647e-16 -1 1049.9352 532.1841)" class="st42" width="68.7" height="3.3"/>
			</g>
			<g>
				<path class="st42" d="M495.4,303.4h3.8c1.2,0,2.2-1,2.2-2.2v-28.7c0-1.2-1-2.2-2.2-2.2h-3.8c-1.2,0-2.2,1-2.2,2.2v28.7
					C493.1,302.4,494.1,303.4,495.4,303.4z"/>
			</g>
			<g>
				<path class="st42" d="M543.5,273.3h12.7c0.7,0,1.2-0.5,1.2-1.2v-0.7c0-0.7-0.5-1.2-1.2-1.2h-12.7c-0.7,0-1.2,0.5-1.2,1.2v0.7
					C542.3,272.8,542.8,273.3,543.5,273.3z"/>
			</g>
			<g>
				<path class="st42" d="M544.8,304.3h10.1c1.4,0,2.5-1.1,2.5-2.5v-23.9c0-1.4-1.1-2.5-2.5-2.5h-10.1c-1.4,0-2.5,1.1-2.5,2.5v23.9
					C542.3,303.1,543.4,304.3,544.8,304.3z"/>
			</g>
			<g>
				<path class="st43" d="M522.6,309.9c0,1.3,1.1,2.4,2.4,2.4c1.3,0,2.4-1.1,2.4-2.4c0-1.3-1.1-2.4-2.4-2.4
					C523.6,307.5,522.6,308.6,522.6,309.9z"/>
			</g>
			<g>
				<path class="st44" d="M509.5,327.9V327c0,0,1.3-5.8,10.6-5.8s9.1,6.8,9.1,6.8H509.5z"/>
			</g>
			<g>
				<g>
					<path class="st11" d="M529.4,322c0,0-2-0.2-2.8-0.6c-0.7-0.4-5.2-3.4-6.2-3c-1,0.5-8,2.6-7.7,3.6c0.2,1,0.9,0.9,1.4,0.7
						c0.5-0.2,5.5-1.2,6-1.1c0,0-4.9,1.8-5,3.1c0,1.3,1,1.6,1.5,2.1c0.5,0.5,1,1.7,2.3,1.8c1.3,0.1,7.5-2.1,8.8-2.2
						c1.3-0.1,3.6,0.1,3.8-0.1C531.6,326.3,529.4,322,529.4,322z"/>
				</g>
			</g>
			<g>
				<g>
					<g>
						<path class="st21" d="M566.2,288.1c6.4-1.1,13.2-2.8,13.2-2.8l12-0.5c0,0,11,2.4,15.4,4.4c0.4,0.2,0.4,9.8,1.5,12.4l-3.6,7.6
							c0,0-2.1,15-2.5,21.7c-0.2,3.1,0.6,29.7,0.6,29.7s-1.1,0.5-9.3,1.4c-8.2,0.9-28.7-0.3-28.8-1.3c-0.1-1,4-36.1,4.1-37.9
							c0.3-2.8-0.8-15.7-0.8-15.7c-1.5,2.1-5.5,11.4-9.6,15.9c-2.4,2.6-14.4,4.2-16.6,4.3c-4.9,0.2-13.9,1.1-14.1,0.7
							c-0.2-0.3-0.8-7.9-0.2-8.1c0.5-0.2,17.1-1.1,21.4-3.4c1.6-0.8,6.2-11,6.2-11S562.7,289.7,566.2,288.1z"/>
					</g>
				</g>
			</g>
			<g>
				<path class="st29" d="M589.5,359.9h20.9c3.8,0,6.9-3.1,6.9-6.9v-34.3c0-3.8-3.1-6.9-6.9-6.9h-20.9c-3.8,0-6.9,3.1-6.9,6.9v34.3
					C582.6,356.7,585.7,359.9,589.5,359.9z"/>
			</g>
			<g>
				<path class="st29" d="M588.7,371c5.1,0,9.3-1.7,12.4-5.1c7-7.7,5.7-21.2,5.6-21.7c-0.1-1.1-1.1-1.8-2.1-1.7
					c-1.1,0.1-1.8,1.1-1.7,2.1c0,0.2,1.1,12.4-4.7,18.8c-2.3,2.6-5.4,3.8-9.5,3.8c-1.1,0-1.9,0.9-1.9,1.9S587.7,371,588.7,371z"/>
			</g>
			<g>
				<path class="st9" d="M526,281.4c0,5.3-4.3,9.7-9.7,9.7c-5.4,0-9.7-4.3-9.7-9.7c0-5.4,4.3-9.7,9.7-9.7
					C521.6,271.7,526,276.1,526,281.4z"/>
				<g>
					<g>
						<path class="st15" d="M522.6,286.8l-0.7,2.6c-1.3,0.9-2.8,1.5-4.4,1.7c-0.3,0-0.6,0.1-0.9,0.1c-0.1,0-0.2,0-0.3,0
							c-0.3,0-0.6,0-0.9,0c-0.3,0-0.7-0.1-1-0.1c-1.5-0.3-2.8-0.9-4-1.8c-0.1-0.8-0.3-1.8-0.4-2.7c0.7-0.3,3-1,4.4-1.5
							c0,0,0,0,0.1,0c0,0,0.1,0,0.1,0c0.1,0,0.2-0.1,0.2-0.1c0.1,0,0.2-0.1,0.2-0.1c0.3-0.1,0.5-0.2,0.6-0.2h0c0,0,0,0,0,0l0,0
							l1.9,0.1l0.3,0l0.1,0c0,0,0,0,0,0c0.1,0,0.5,0.1,0.9,0.3c0,0,0,0,0,0C520,285.3,521.9,286,522.6,286.8z"/>
					</g>
					<g>
						<path class="st16" d="M516.8,276.6c0,0,2.3,0.4,1.9,4c-0.4,3.6-2.4,3.3-2.6,3.3c-0.1,0-2.1,0-2.2-4.4
							C514,279.5,513.9,276.2,516.8,276.6z"/>
					</g>
					<g>
						<path class="st16" d="M517.8,282.8c0,0-0.1,1.5,0.1,1.8c0.1,0.3-1.9,1.4-3.1,0.2c0,0,0.3-1.6,0.2-2.2
							C514.8,282.1,517.8,282.8,517.8,282.8z"/>
					</g>
					<g>
						<path class="st16" d="M518.7,279.6c0,0,0.3-0.3,0.3,0c0.1,0.3-0.4,1.5-0.4,1.6c0,0,0,0.1-0.1,0
							C518.5,281.1,518.7,279.6,518.7,279.6z"/>
					</g>
					<g>
						<path class="st16" d="M514,279.5c0,0-0.2-0.3-0.3,0c-0.1,0.3,0.3,1.5,0.3,1.6c0,0,0.1,0.1,0.1,0.1
							C514.2,281,514,279.5,514,279.5z"/>
					</g>
					<g>
						<path class="st17" d="M518.9,279.3c-0.1,0.5-0.2,0.9-0.2,0.9l-0.3,0.4c0,0,0-1,0-1.1c0-0.1,0-0.2-0.1-0.3
							c0-0.2-0.1-0.4-0.1-0.5c0-0.1-2-0.7-3.7,0.1c0,0,0,0.1,0,0.3c0,0.2,0,0.4-0.1,0.4c-0.2,0.1-0.1,1.1-0.1,1.1l-0.3-0.3
							c0,0-0.1-0.6-0.2-1.2c0,0,0,0,0,0c0-0.2,0-0.3-0.1-0.5c0-0.7,0-1.8,0.9-2.5c0.6-0.2,1.5-0.5,3,0c0,0,0.3,0,0.4,0.1
							C519.1,277.4,518.9,279.3,518.9,279.3z"/>
					</g>
					<path class="st18" d="M515.1,283.4c0,0,0.4,0.5,1.2,0.5c0.9,0,1.2-0.5,1.2-0.5s-0.4,0.8-1.2,0.8
						C515.5,284.3,515.1,283.4,515.1,283.4z"/>
					<path class="st16" d="M514.5,284.9c0,0,0.6,1.1,1.8,1.2c0.7,0.1,1.4-0.9,1.7-1.3C518,284.7,516.3,284,514.5,284.9z"/>
					<path class="st19" d="M517.8,284.4c0,0-0.5,0.6-1.5,1.3l0.6,1l1.1-1.9L517.8,284.4z"/>
					<path class="st19" d="M514.8,284.5c0,0,0.6,0.8,1.5,1.1l-0.7,1l-1.2-1.7L514.8,284.5z"/>
					<path class="st20" d="M516.3,285.6l0.5,0.8c0,0-0.6,0.3-1.1,0L516.3,285.6z"/>
					<path class="st21" d="M523.2,286.6C523.2,286.6,523.2,286.6,523.2,286.6c-0.1,0.3-0.3,1.1-0.6,2.1c-0.1,0.1-0.2,0.2-0.3,0.3
						c-0.1,0.1-0.3,0.2-0.4,0.3c-1.3,0.9-2.8,1.5-4.4,1.7c0.1-3.4,0.5-6.3,0.5-6.3c0.3,0.1,0.6,0.2,0.9,0.2c0,0,0,0,0,0
						c2.5,0.7,3.7,1.3,4.1,1.6c0,0,0,0,0,0C523.1,286.6,523.2,286.6,523.2,286.6z"/>
					<path class="st21" d="M514.3,290.9c-1.5-0.3-2.8-0.9-4-1.8c-0.3-0.3-0.7-0.6-1-0.9c-0.1-0.1-0.1-0.1-0.2-0.2
						c-0.2-0.7-0.3-1.2-0.3-1.2v0c0,0,1.2-0.8,5.5-1.9c0,0,0,0,0,0C514.3,285,514.4,287.7,514.3,290.9z"/>
					<path class="st20" d="M516.6,286.6c0,0.9,0,2.6,0,4.6c-0.1,0-0.2,0-0.3,0c-0.3,0-0.6,0-0.9,0c0.2-2.4,0.5-3.9,0.6-4.5
						c0-0.2,0.1-0.3,0.1-0.3l0.6,0.1C516.6,286.4,516.6,286.5,516.6,286.6z"/>
					<g>
						<path class="st21" d="M523.7,287.7c-0.3,0.4-0.7,0.8-1.1,1.1c-0.1,0.1-0.2,0.2-0.3,0.3c0,0,0.6-1.6,0.9-2.4
							C523.5,286.8,523.6,287.4,523.7,287.7z"/>
					</g>
					<g>
						<path class="st21" d="M509.4,288.3c-0.1-0.1-0.1-0.1-0.2-0.2c-0.2-0.2-0.4-0.5-0.6-0.7c0.1-0.3,0.2-0.4,0.3-0.5v0L509.4,288.3
							z"/>
					</g>
				</g>
			</g>
		</g>
		<g>
			<path class="st45" d="M444.1,404.8c0,0-1.3-2.1-3-2.9c-1.7-0.8-5.3,2-5.6,3.6l-4.1,6l0.8,0.5l2.2-3.2c-1.5,3.6-3.6,7.9-2.1,10.1
				c2,2.9,6.6,5.9,7.8,5.3c1.2-0.5,1-9,1-9C439.7,407.8,444.1,404.8,444.1,404.8z"/>
			<g>
				<path class="st46" d="M444.1,404.8c0,0-1.5,2.9-2.3,5.1c-0.8,2.2-0.9,8.5-1.4,8.9c-0.5,0.4-4.3-1.5-4.8-3.8
					c-0.5-2.3,1-7,2.5-9.4c1.5-2.4,3-3.7,3-3.7S443.7,402.5,444.1,404.8z"/>
			</g>
			<path class="st46" d="M458.9,350.4c0,0-2.3,12.5-2.3,15.4c0,3-0.8,7.9-2.7,11.5c-1.9,3.6-10.2,28.3-10.9,31.2
				c-0.7,2.9-1.3,5.6-1.3,5.6s-4.2-1.9-4.2-4.6c0-2.7,3.6-25.1,4.2-29.5c0.6-4.4,5.9-27.1,5.9-27.1L458.9,350.4z"/>
			<path class="st11" d="M445.6,349.6c0,0,0.8,10.4,0.7,13.1c-0.1,2.7-1.4,8.9-1.4,10.5c0,1.6,0,35.3,1.3,39.4
				c1.3,4.1-3.8,1.3-3.8,1.3s-8.9-22.2-8.9-31.4c0-9.2,1.1-13.9,0.5-19.7c-0.6-5.9-3.4-13.6-3.4-13.6L445.6,349.6z"/>
			<path class="st47" d="M432.1,299.6c0,0-4.8,5.9-6.1,13.7c-1.3,7.9,1.5,22.7,2.5,27c0.9,3.8,2.5,15.8,2.6,17.1
				c0,0,16.2,1.8,28.4-2.1c0,0,1.1-16.8,1.8-24c0.7-7.1-2.8-31.2-2.8-31.2L432.1,299.6z"/>
			<path class="st45" d="M450.6,422.8c-5.8-5.1-4.2-10.2-4.2-10.2s-2.3-0.8-4.2-0.4c-1.9,0.5-2.9,5-2.1,6.4l0.6,7.4l1-0.1l-0.3-3.9
				c1.1,3.8,2.2,8.6,4.7,9.3c3.4,1,8.9,0.4,9.6-0.8C456.2,429.3,450.6,422.8,450.6,422.8z"/>
			<path class="st48" d="M454,244.6c0,0-1.4,8.5-0.2,11.4c1.2,2.9-6.6-3.3-6.6-3.3S450.5,243.2,454,244.6z"/>
			<path class="st48" d="M451.1,220.9c0,0-12.5-2.9-14.1,10.5c-1.6,13.4,4.1,15.1,0.3,24.2c-3.8,9.1,9.3-3,9.3-3L451.1,220.9z"/>
			<path class="st11" d="M450,220.7c3.2-0.1,10.3,1.8,11.2,10.3c0,0-0.3,2.3-0.9,4.1c-0.6,1.8,0.9,7.2,0.4,7.4
				c-0.4,0.3-2.2,0.5-2.2,0.5s-2,5.8-4.1,5.7c-2-0.1-9.7-1.9-13.2-9.3C437.8,232.1,437,220.9,450,220.7z"/>
			<g>
				<g>
					<path class="st45" d="M415,326.8c0,0,0.3-5.2,1.7-6c1.4-0.8,0.6,0.8,0.6,0.8s-0.8,3.7-0.9,5.3C416.3,326.9,415,326.8,415,326.8
						z"/>
				</g>
			</g>
			<g>
				<g>
					<path class="st11" d="M421.3,315.1c0,0,0.4,2.3,1.1,4.5c0.7,2.2,1.3,2.9,1.1,4.2c-0.2,1-1.3,1.7-1.6,1.4c-0.3-0.3-0.4-4.1-2-4
						c-1.6,0,0.5,4.6-0.5,4.3c-0.9-0.3-4.5-2.3-4.3-4.2c0.2-1.9,1.6-3.3,1.6-6.1c-0.1-2.6,0.7-3.6,0.7-3.6L421.3,315.1z"/>
				</g>
			</g>
			<g>
				<g>
					<path class="st45" d="M420,321.1c0,0,2.1,0.5,1.9,7.5l-2.3-0.4c0,0,0-3.9-0.7-6C419,322.2,419.1,320.9,420,321.1z"/>
				</g>
			</g>
			<g>
				<g>
					<polygon class="st19" points="428.6,330.2 410.4,325 410.4,347.5 428.6,358.3 					"/>
				</g>
			</g>
			<g>
				<polygon class="st19" points="428.6,358.3 426.3,358.8 408.7,347.8 408.9,325.1 410.4,325 				"/>
			</g>
			<path class="st47" d="M451.8,252.2c0,0,4.9,2,5.7,2.6c0.9,0.6,2.6,7.6,3,8.2c0.4,0.6,4.6,5.8,4,10c-0.5,3.3-2.3,5.1-3.5,6.4
				c-1.2,1.3-2.3,8.3-2.7,9.4c-0.4,1,0.8,14.7,0.8,14.7s-14.3,5.5-27-3.9c0,0,2.5-9.2,2.5-10.8c0-1.6-1.6-13.3-6.1-20.1
				c-4.4-6.9,0.8-14.1,4.2-15c3.4-0.9,9.9-3.3,9.9-3.3L451.8,252.2z"/>
			<path class="st47" d="M436.2,252.6c0,0-7.1-0.4-10.7,3.7c-3.6,4.2-3.4,9.1-4.3,11.3c-0.9,2.1-3,11.4-3.5,12.9
				c-0.5,1.5-0.9,9.9-1.6,16.7c-0.7,6.8-0.5,19.4-0.5,19.4l6.8-1.2c0,0,0.3-12.1,0.4-19c0.2-7,5.9-19.3,8-24.7
				C433.1,266.2,441.7,256,436.2,252.6z"/>
			<path class="st47" d="M456.8,254.4c0,0,3.1,0.2,4.6,3.3c1.5,3.1,2.1,5.7,2.5,6.5c0.4,0.8,5.8,11.1,6.1,13.3
				c0.3,2.3-0.2,6.4-3.1,7.6c-2.9,1.1-13.1,1.2-13.1,1.2s2.6-5.3,0.2-8c0,0,7.5-1.3,9.2-1.5C465.1,276.6,454.4,256.7,456.8,254.4z"
				/>
			<g>
				<polygon class="st45" points="439.7,263.2 453.6,295.7 470.9,287.5 458.1,256.3 				"/>
			</g>
			<g>
				<path class="st11" d="M447.7,279.2c0,0-1.9,0.5-2.5,0.6c-0.6,0.1,0.1,1.2,0.9,1.2C446.8,281,447.7,279.2,447.7,279.2z"/>
			</g>
			<g>
				<path class="st11" d="M448.9,288.4c0,0,0.9,0,1.2-0.2c0,0,0.6-0.4,1.1-0.7c0.2-0.1,0.3-0.2,0.4-0.2c0.4-0.2,1.3-0.4,2.1-1
					c0.8-0.6,3.5-3.2,3.5-3.2l-1.8-2.7l-1.4-2.1c0,0-5.7,0.2-6.5,0.7c-0.1,0-0.2,0.1-0.2,0.2c-0.7,0.5-0.9,1.1-1.3,1.4
					c-0.1,0.1-1.2,1.3-1.1,1.8c0.1,0.7,0.4,1.1,0.8,1.3c0,0,0.2,1.3,0.9,1.8c0,0,0.2,1.2,1.2,1.7
					C447.9,287.1,448.2,288.3,448.9,288.4z"/>
			</g>
			<path class="st47" d="M454,278.3c0,0,8.5-1.5,10.8-1.8c0,0,0.2-3-0.3-5.5c-0.4-2.5-2.5-5.9-2.5-5.9l4.3,4c0,0,3.6,6.8,3.6,8.4
				c0.1,1.6,0.5,4.1-1.6,6.6c-2.1,2.5-12.1,1.4-12.1,1.4S457.2,282.4,454,278.3z"/>
			<path class="st11" d="M451.4,247.3c0,0-0.3,0.8-0.6,2c-0.2,0.6-0.3,1.3-0.5,2.1c-0.4,2.1-0.7,4.6-0.2,6.2c0,0-4.6,1.4-7.9-5
				c0,0,1.7-6.8-0.1-11C440.1,237.3,451.4,247.3,451.4,247.3z"/>
			<path class="st48" d="M461.2,231c0,0-5.3,3.4-10.5,4c-5.2,0.6-8.1,8.4-8.1,8.4s-8.2-12.7-1.6-20.6
				C447.6,215,462.6,221.1,461.2,231z"/>
			<path class="st11" d="M448.5,234.7c0-1-1.1-2.5-2.8-1.2c-1.7,1.3,0.4,6.2,1.8,5.7C448.9,238.7,448.5,235.7,448.5,234.7z"/>
			<path class="st11" d="M452.1,252.3c0,0,2.1,6.3-2.9,6.3c-5,0-7.2-4-8.6-7.5c0,0,2.3-1.1,3.4-1.3
				C445,249.7,452.1,252.3,452.1,252.3z"/>
			<polygon class="st45" points="422,328.3 419.6,328.6 419.6,327.5 			"/>
			<path class="st45" d="M416.3,326.7l-1.3,0.2c0,0,0-0.4,0-0.5C415,326.2,416.2,326.6,416.3,326.7z"/>
			<g>
				<path class="st11" d="M446.4,412.6c0,0,0.7,3.2,1.5,5.5c0.8,2.3,4.7,7.2,4.6,7.9c-0.1,0.6-4.4,1.6-6.2,0.1c-1.9-1.5-3.6-6.1-4-9
					c-0.4-2.9-0.2-4.7-0.2-4.7S444.5,410.9,446.4,412.6z"/>
			</g>
			<path class="st13" d="M451.2,247.9c-0.2,0.6-0.4,1.4-0.6,2.1c-4.1-2.8-6.1-6.1-6.1-6.1C446.9,246.2,451.2,247.9,451.2,247.9z"/>
		</g>
		<path class="st8" d="M260.2,126.2h49.2c3.8,0,6.8,3,6.8,6.8v20.3c0,3.8-3,6.8-6.8,6.8h-49.2c-3.8,0-6.8-3-6.8-6.8V133
			C253.4,129.3,256.4,126.2,260.2,126.2z"/>
		<g>
			<g>
				<path class="st21" d="M221.1,296.5C221.1,296.5,221,296.5,221.1,296.5C221.1,296.5,221.1,296.5,221.1,296.5z"/>
			</g>
		</g>
		<g>
			<g>
				<g>
					<path class="st28" d="M191.1,291.1h46.6c1.2,0,2.2-1,2.2-2.2v-1.7c0-1.2-1-2.2-2.2-2.2h-46.6c-1.2,0-2.2,1-2.2,2.2v1.7
						C188.8,290.1,189.8,291.1,191.1,291.1z"/>
				</g>
			</g>
		</g>
		<g>
			<g>
				<g>
					<path class="st28" d="M191.1,302.1h46.6c1.2,0,2.2-1,2.2-2.2v-1.7c0-1.2-1-2.2-2.2-2.2h-46.6c-1.2,0-2.2,1-2.2,2.2v1.7
						C188.8,301.1,189.8,302.1,191.1,302.1z"/>
				</g>
			</g>
		</g>
		<g>
			<g>
				<g>
					<path class="st28" d="M191.1,313.1h46.6c1.2,0,2.2-1,2.2-2.2v-1.7c0-1.2-1-2.2-2.2-2.2h-46.6c-1.2,0-2.2,1-2.2,2.2v1.7
						C188.8,312.1,189.8,313.1,191.1,313.1z"/>
				</g>
			</g>
		</g>
		<path class="st28" d="M269.4,261.5h-11.5c-2.3,0-4.1-1.9-4.1-4.1v-34.7c0-2.3,1.9-4.1,4.1-4.1h11.5c2.3,0,4.1,1.9,4.1,4.1v34.7
			C273.6,259.6,271.7,261.5,269.4,261.5z"/>
		<g>
			<g>
				<g>
					<g>
						<path class="st11" d="M150.1,338.4c0,0,0.8,1.2,0.9,2.3c0.1,0.8,0.8,2,1,2.7c0.3,0.7,1.2,3.7,1.3,4.5c0,0.3-0.7,2.3-0.6,3
							c0.1,0.6,0.5,1.9-0.1,2c-0.6,0.1-1.2-1-1.2-1s0.1,0.6-0.4,0.8c-1,0.4-1.5,0.1-1.5,0.1s-0.4,0.7-0.8,0.7
							c-1,0.2-1.4-0.2-1.4-0.2s-0.4,0.4-1.1,0.4c-0.9,0-1.2-0.8-1.2-0.8s-1.1,0.2-1.4-0.3c-0.3-0.5-0.3-1.1-0.4-1.5
							c-0.1-0.5,0-4.6,1.4-7.6c1.4-3-0.4-5.9-0.4-5.9L150.1,338.4z"/>
					</g>
				</g>
			</g>
			<g>
				<g>
					<path class="st49" d="M151.5,351.4c0,0,0.1-3.7-0.9-4.5c-1-0.8-1.1,0.6-1.1,0.6s0.1-1.3-0.9-1.5c-1.1-0.2-1.1,1.4-1.1,1.4
						s-0.2-1-1.3-0.8c-1.1,0.2-0.9,1.5-0.9,1.5s-1.1-1.3-1.8-0.1c-1.2,2.1,0,4.5,0,4.5s0.3,0.6,1.4,0.3c0,0,0.7,1.4,2.3,0.4
						c0,0,1.6,0.9,2.2-0.5C149.4,352.7,151.2,353.5,151.5,351.4z"/>
				</g>
			</g>
			<path class="st7" d="M162.7,284.6c0,0-6.4,21.3-8.5,29.1c-0.7,2.5-2.3,26-2.6,26.9c-0.3,0.9-8.4,2.2-8.4,2.2s1-29.4,1.1-31
				c0.1-1.6,8.9-34.5,11.5-35.6c1.9-0.9,2.9-0.2,5.4,1.7C164.6,280.4,162.7,284.6,162.7,284.6z"/>
			<g>
				
					<rect x="224" y="249.9" transform="matrix(0.8369 -0.5474 0.5474 0.8369 -99.1883 168.2464)" class="st50" width="17.5" height="1.3"/>
			</g>
			<path class="st51" d="M241.9,250.7c0,0-0.1,0.8-0.4,1.2c0,0-0.5,0.6-0.8,1c-0.1,0.1-0.2,0.3-0.2,0.3c-0.2,0.3-0.5,1.2-1.2,1.9
				c-0.7,0.7-3.4,3-3.4,3l-2.3-2l-2.4-1.1c0,0,1.4-5.9,1.9-6.6c0.1-0.1,0.1-0.1,0.2-0.2c0.5-0.6,1.2-0.8,1.5-1
				c0.1-0.1,1.4-1,1.8-0.9c0.6,0.2,1,0.5,1.1,0.9c0,0,1.2,0.4,1.7,1.1c0,0,1.1,0.3,1.4,1.3C240.8,249.6,241.9,250,241.9,250.7z"/>
			<g>
				<g>
					<path class="st35" d="M157.6,430c0,0-0.6,4-0.7,4.6c-0.1,0.6-6.5-0.4-6.5-0.4l-0.5-4.8C149.9,429.5,156.8,429.4,157.6,430z"/>
				</g>
			</g>
			<g>
				<g>
					<path class="st36" d="M157,434.1c0,0,2,2.4,4,3.5c2,1.1,5,1.5,6.2,2.6c0.8,0.8,3.1,4.2-5.1,4.1c-8.2-0.1-12.1,0.5-13-0.8
						c-0.9-1.3,1.3-9.7,1.3-9.7S152.3,434.5,157,434.1z"/>
				</g>
			</g>
			<g>
				<g>
					<path class="st35" d="M203.4,430c0,0-0.6,4-0.7,4.6c-0.1,0.6-6.5-0.4-6.5-0.4l-0.5-4.8C195.8,429.5,202.6,429.4,203.4,430z"/>
				</g>
			</g>
			<g>
				<g>
					<path class="st36" d="M202.9,434.1c0,0,2,2.4,4,3.5c2,1.1,9.2,1.9,10.3,3c0.8,0.8,2.2,4-9.2,3.7c-8.1-0.2-12.1,0.5-13-0.8
						c-0.9-1.3,1.3-9.7,1.3-9.7S198.1,434.6,202.9,434.1z"/>
				</g>
			</g>
			<g>
				<g>
					<path class="st7" d="M162.9,326.1c0,0-6,9.6-5.6,18.2c0.4,8.6-2.2,18.1-3.1,27.1c-1,10.1-5.1,33.9-5.3,39.3
						c-0.1,5.4,0.6,22.6,0.6,22.6l8.3,0.2c0,0,6.9-41.7,8.7-45.9c1.8-4.2,10.7-34.6,11-38C177.8,346.2,162.9,326.1,162.9,326.1z"/>
				</g>
			</g>
			<g>
				<g>
					<path class="st52" d="M194.5,327.4c0,0,4.5,23.7,5.1,29c0.6,5.3,1,25.6,1.3,28.9c0.3,3.3,2.8,43.2,3.6,48.2H194
						c0,0-8.1-29-8.1-42.8c0-13.7-6.3-29.9-10.3-38.9c-4-9.1-13.3-9.3-15.8-26.1C159.8,325.6,191.2,322.1,194.5,327.4z"/>
				</g>
			</g>
			<g>
				<g>
					<path class="st11" d="M172.9,245.7c0,0,8.1-3,11.8,3.1c3.7,6.1,3.4,18.5-0.7,20c-4.1,1.5-10.2,0.7-12.3-3.1
						c-2.1-3.8-4-9.4-3.9-13.1C167.9,248.9,170.8,246.8,172.9,245.7z"/>
				</g>
			</g>
			<g>
				<g>
					<path class="st11" d="M183.1,269.1c0,0-0.3,2.2,0.2,3.3c0.6,1.1-10.5,1.1-10.5,1.1s-0.9-5.8-2.6-10.8
						C168.6,257.8,183.1,269.1,183.1,269.1z"/>
				</g>
			</g>
			<g>
				<g>
					<path class="st53" d="M170.3,262.7c0,0,0.8,1.3,3.9,0.8c3.1-0.5,6.9-4.6,8.2-5.1c1.3-0.5,1.3-1.2,1.3-1.2l0.8,1.2l1.4,0.1
						c0,0-1.3-3.7,0.6-5.2c1.9-1.5-2-12-11.9-8.5c0,0-7.6,2.1-7.4,6.5C167.5,255.6,168.6,260.5,170.3,262.7z"/>
				</g>
			</g>
			<g>
				<g>
					<path class="st29" d="M184,272.2c0,0,0-2.1-1-2.2c-0.9-0.2-10.3-1.1-11.4-0.6v2.4C171.6,271.7,173.8,273.1,184,272.2z"/>
				</g>
			</g>
			<g>
				<g>
					<path class="st11" d="M183.4,255.6c-0.2-0.7-2-2.8-2.7-0.6c-0.7,2.2,1.1,5.2,2.1,5C183.8,259.7,183.9,257.4,183.4,255.6z"/>
				</g>
			</g>
			<g>
				<g>
					<path class="st54" d="M199.4,275.4c-6.4-0.8-15.4-3.1-15.4-3.1l-12.4-0.5c0,0-11.4,2.5-15.8,4.5c-0.4,0.2-0.4,10.1-1.6,12.7
						l3.7,7.8c0,0,2.1,15.5,2.6,22.4c0.2,3.2-4.4,29.7-4.4,29.7s5,1.5,13.4,2.4c8.4,0.9,29.6-0.3,29.7-1.3c0.1-1-4.1-37.2-4.3-39
						c-0.3-2.9,1-18.1,1-18.1c2-1.5,19.1-9.5,23.7-13.6c1.3-1.1,6.5-6.2,8-8c5.3-6.3,9.7-11.7,10.2-12.8c0.6-0.7-5.8-4.1-6.3-4.3
						c-0.5-0.2-7.7,9.1-10.5,12.1c-1.2,1.3-6.4,5.1-6.4,5.1S203.4,275.6,199.4,275.4z"/>
				</g>
			</g>
			<g>
				<g>
					<path class="st53" d="M170.6,246.5c0,0-10.3,0.8-0.3,16.2L170.6,246.5z"/>
				</g>
			</g>
			<polygon class="st8" points="240.4,246.3 241.2,245 239.7,245.2 			"/>
		</g>
	</g>
</g>
</svg>
