<svg width="42" height="39" viewBox="0 0 42 39" fill="none" xmlns="http://www.w3.org/2000/svg">
<path d="M12.7384 17.6643C12.3447 17.6768 11.9634 17.8051 11.6422 18.0329C11.3209 18.2608 11.0738 18.5782 10.9318 18.9456C10.7898 19.313 10.7591 19.714 10.8435 20.0988C10.928 20.4835 11.1238 20.8348 11.4067 21.1089C11.6896 21.383 12.0469 21.5678 12.434 21.6401C12.8212 21.7124 13.2211 21.6692 13.5839 21.5157C13.9466 21.3622 14.2561 21.1053 14.4738 20.777C14.6914 20.4487 14.8076 20.0636 14.8078 19.6698C14.7988 19.1296 14.5758 18.615 14.1878 18.2391C13.7999 17.8631 13.2786 17.6564 12.7384 17.6643ZM12.7384 20.3784C12.6005 20.3661 12.4692 20.3141 12.3604 20.2285C12.2516 20.1429 12.17 20.0276 12.1257 19.8964C12.0813 19.7653 12.076 19.6242 12.1105 19.4901C12.145 19.3561 12.2177 19.2349 12.3198 19.1415C12.4219 19.0481 12.549 18.9863 12.6856 18.9639C12.8221 18.9414 12.9623 18.9591 13.089 19.0149C13.2156 19.0707 13.3233 19.1622 13.3989 19.2781C13.4745 19.394 13.5148 19.5294 13.5148 19.6678C13.5054 19.8648 13.4184 20.05 13.273 20.1831C13.1275 20.3162 12.9354 20.3864 12.7384 20.3784Z" fill="#41BC75"/>
<path d="M16.2422 19.6661C16.2422 19.8375 16.3103 20.002 16.4316 20.1232C16.5528 20.2445 16.7172 20.3126 16.8887 20.3126H25.5094C25.6809 20.3126 25.8453 20.2445 25.9666 20.1232C26.0878 20.002 26.1559 19.8375 26.1559 19.6661C26.1559 19.4946 26.0878 19.3302 25.9666 19.2089C25.8453 19.0877 25.6809 19.0195 25.5094 19.0195H16.8925C16.8073 19.019 16.7228 19.0354 16.644 19.0677C16.5651 19.0999 16.4933 19.1475 16.4329 19.2076C16.3725 19.2676 16.3245 19.3391 16.2918 19.4178C16.259 19.4965 16.2422 19.5808 16.2422 19.6661Z" fill="#41BC75" stroke="#41BC75" stroke-width="0.954989"/>
<path d="M12.7384 12.0412C12.3447 12.0538 11.9634 12.182 11.6422 12.4099C11.3209 12.6377 11.0738 12.9552 10.9318 13.3225C10.7898 13.6899 10.7591 14.091 10.8435 14.4757C10.928 14.8604 11.1238 15.2118 11.4067 15.4859C11.6896 15.76 12.0469 15.9447 12.434 16.0171C12.8212 16.0894 13.2211 16.0461 13.5839 15.8926C13.9466 15.7391 14.2561 15.4822 14.4738 15.154C14.6914 14.8257 14.8076 14.4406 14.8078 14.0467C14.7988 13.5065 14.5758 12.992 14.1878 12.616C13.7999 12.24 13.2786 12.0333 12.7384 12.0412ZM12.7384 14.7563C12.6005 14.744 12.4692 14.692 12.3604 14.6064C12.2516 14.5208 12.17 14.4055 12.1257 14.2744C12.0813 14.1433 12.076 14.0021 12.1105 13.868C12.145 13.734 12.2177 13.6129 12.3198 13.5194C12.4219 13.426 12.549 13.3642 12.6856 13.3418C12.8221 13.3193 12.9623 13.337 13.089 13.3928C13.2156 13.4486 13.3233 13.5401 13.3989 13.656C13.4745 13.7719 13.5148 13.9073 13.5148 14.0458C13.5054 14.2427 13.4184 14.4279 13.273 14.561C13.1275 14.6941 12.9354 14.7643 12.7384 14.7563Z" fill="#41BC75"/>
<path d="M12.7384 23.2844C12.3447 23.297 11.9634 23.4252 11.6422 23.653C11.3209 23.8809 11.0738 24.1983 10.9318 24.5657C10.7898 24.9331 10.7591 25.3342 10.8435 25.7189C10.928 26.1036 11.1238 26.4549 11.4067 26.729C11.6896 27.0031 12.0469 27.1879 12.434 27.2602C12.8212 27.3326 13.2211 27.2893 13.5839 27.1358C13.9466 26.9823 14.2561 26.7254 14.4738 26.3971C14.6914 26.0688 14.8076 25.6838 14.8078 25.2899C14.7988 24.7497 14.5758 24.2352 14.1878 23.8592C13.7999 23.4832 13.2786 23.2765 12.7384 23.2844ZM12.7384 25.9985C12.6005 25.9862 12.4692 25.9342 12.3604 25.8486C12.2516 25.763 12.17 25.6477 12.1257 25.5166C12.0813 25.3855 12.076 25.2443 12.1105 25.1102C12.145 24.9762 12.2177 24.8551 12.3198 24.7616C12.4219 24.6682 12.549 24.6065 12.6856 24.584C12.8221 24.5615 12.9623 24.5793 13.089 24.635C13.2156 24.6908 13.3233 24.7823 13.3989 24.8982C13.4745 25.0141 13.5148 25.1495 13.5148 25.288C13.5058 25.4852 13.4191 25.6708 13.2736 25.8041C13.128 25.9375 12.9356 26.0077 12.7384 25.9994V25.9985Z" fill="#41BC75"/>
<path d="M25.5075 24.6719H16.8907C16.7192 24.6719 16.5548 24.74 16.4335 24.8613C16.3123 24.9825 16.2441 25.1469 16.2441 25.3184C16.2441 25.4899 16.3123 25.6543 16.4335 25.7756C16.5548 25.8968 16.7192 25.9649 16.8907 25.9649H25.5114C25.6828 25.9649 25.8473 25.8968 25.9685 25.7756C26.0898 25.6543 26.1579 25.4899 26.1579 25.3184C26.1579 25.1469 26.0898 24.9825 25.9685 24.8613C25.8473 24.74 25.6828 24.6719 25.5114 24.6719H25.5075Z" fill="#41BC75" stroke="#41BC75" stroke-width="0.954989"/>
<path d="M31.3957 0.5C29.5084 0.512547 27.6699 1.10042 26.1255 2.18514C24.5811 3.26987 23.4042 4.79985 22.7521 6.57087H6.70346C6.52948 6.57849 6.36516 6.65295 6.24472 6.77873C6.12428 6.9045 6.05701 7.0719 6.05693 7.24605L5.90413 29.928H1.32973C1.24541 29.9243 1.1612 29.9374 1.082 29.9666C1.0028 29.9957 0.930199 30.0404 0.868424 30.0979C0.806649 30.1554 0.756938 30.2246 0.722187 30.3015C0.687437 30.3784 0.668342 30.4615 0.666016 30.5459L0.666016 33.4242C0.669104 34.7294 1.17456 35.9833 2.07752 36.9257C2.98047 37.8681 4.2116 38.4268 5.51545 38.4857V38.5H25.4747V38.4809C25.6361 38.4866 25.703 38.5 25.8052 38.5H25.8195C27.1651 38.498 28.4549 37.962 29.4057 37.0098C30.3565 36.0576 30.8905 34.767 30.8905 33.4214V18.8644C31.0519 18.873 31.2228 18.8778 31.3909 18.8778C33.8279 18.8778 36.1652 17.9097 37.8884 16.1864C39.6117 14.4632 40.5798 12.126 40.5798 9.68891C40.5798 7.25186 39.6117 4.91462 37.8884 3.19137C36.1652 1.46811 33.8279 0.5 31.3909 0.5H31.3957ZM5.76088 37.2031C4.75604 37.2016 3.79261 36.8026 3.081 36.0931C2.3694 35.3836 1.96743 34.4214 1.96289 33.4166V31.2201H20.7103V33.4061C20.7108 34.0743 20.8433 34.7359 21.1003 35.3528C21.3573 35.9697 21.7336 36.5297 22.2077 37.0007C22.2755 37.0685 22.3596 37.121 22.4312 37.2022L5.76088 37.2031ZM29.6022 33.4175C29.6025 34.4204 29.2048 35.3823 28.4965 36.0923C27.7882 36.8022 26.8271 37.202 25.8243 37.2041H25.8118C24.805 37.2023 23.8396 36.8024 23.1265 36.0916C22.4134 35.3808 22.0103 34.4168 22.0053 33.4099V30.5449C22.0079 30.4632 21.9938 30.3819 21.9637 30.3059C21.9336 30.2299 21.8883 30.1608 21.8304 30.1031C21.7726 30.0453 21.7035 30.0001 21.6275 29.9701C21.5514 29.9402 21.47 29.9262 21.3883 29.929H7.19719L7.34521 7.86297H22.392C22.2776 8.45465 22.2184 9.0557 22.2154 9.65835C22.2139 10.9328 22.4797 12.1935 22.9956 13.3589H16.8836C16.7987 13.3589 16.7147 13.3757 16.6362 13.4081C16.5578 13.4406 16.4865 13.4883 16.4265 13.5483C16.3664 13.6083 16.3188 13.6796 16.2863 13.758C16.2538 13.8365 16.2371 13.9206 16.2371 14.0055C16.2371 14.0904 16.2538 14.1744 16.2863 14.2529C16.3188 14.3313 16.3664 14.4026 16.4265 14.4626C16.4865 14.5227 16.5578 14.5703 16.6362 14.6028C16.7147 14.6353 16.7987 14.652 16.8836 14.652H23.6927C24.353 15.69 25.2164 16.5839 26.2309 17.2797C27.2455 17.9756 28.3903 18.4591 29.5965 18.7011L29.6022 33.4175ZM31.3966 17.5857C29.8367 17.5857 28.3117 17.1231 27.0147 16.2565C25.7176 15.3898 24.7067 14.158 24.1097 12.7168C23.5128 11.2756 23.3566 9.68971 23.6609 8.15973C23.9652 6.62975 24.7164 5.22438 25.8195 4.12132C26.9225 3.01827 28.3279 2.26708 29.8579 1.96275C31.3879 1.65842 32.9737 1.81461 34.4149 2.41158C35.8562 3.00855 37.088 4.01948 37.9546 5.31653C38.8213 6.61359 39.2839 8.13851 39.2839 9.69846C39.284 10.7343 39.0801 11.7601 38.6837 12.7171C38.2873 13.6742 37.7062 14.5438 36.9737 15.2762C36.2412 16.0086 35.3715 16.5896 34.4144 16.9859C33.4573 17.3821 32.4325 17.586 31.3966 17.5857Z" fill="#41BC75" stroke="#41BC75" stroke-width="0.954989"/>
<path d="M35.0982 10.8789C35.0682 11.788 34.6925 12.6514 34.0478 13.2931C33.7877 13.5794 33.472 13.8096 33.1199 13.9699C32.7679 14.1301 32.387 14.217 32.0003 14.2252C31.6643 14.2683 31.323 14.2266 31.0073 14.1038C30.6917 13.981 30.4119 13.7811 30.1934 13.5223C30.0472 13.309 29.953 13.0643 29.9184 12.808C29.8741 12.4788 29.8537 12.1469 29.8573 11.8148V8.61748H29.078L28.4668 7.80765H29.9184V6.09631C29.9184 5.69903 29.7401 5.5004 29.3836 5.5004C29.3067 5.49815 29.2306 5.51522 29.162 5.55005C29.0904 5.5868 29.0164 5.6187 28.9405 5.64555L28.6349 4.78606C28.9104 4.66749 29.206 4.60267 29.5058 4.59507C29.6979 4.57933 29.8909 4.61322 30.0661 4.69349C30.2414 4.77376 30.3931 4.89771 30.5067 5.05346C30.7524 5.51778 30.8611 6.04243 30.8199 6.56616V7.80765H31.6603L32.3173 8.61748H30.8199V12.575C30.8505 13.0843 31.1459 13.3389 31.7061 13.3389C31.9769 13.3352 32.2438 13.2736 32.4889 13.1583C32.734 13.0431 32.9516 12.8767 33.1271 12.6705C33.5261 12.2678 33.7511 11.7246 33.7536 11.1578C33.6282 11.1863 33.5002 11.2017 33.3716 11.2036C33.243 11.2099 33.1144 11.1902 32.9936 11.1455C32.8729 11.1009 32.7623 11.0323 32.6688 10.9438C32.5766 10.8403 32.5061 10.7194 32.4614 10.5882C32.4168 10.4569 32.399 10.3181 32.409 10.1798C32.3965 10.0167 32.4187 9.85268 32.474 9.69864C32.5293 9.5446 32.6165 9.40398 32.7299 9.28597C32.9555 9.08286 33.2516 8.97594 33.555 8.98802C34.5838 8.98802 35.0982 9.61831 35.0982 10.8789Z" fill="#41BC75" stroke="#41BC75" stroke-width="0.668493"/>
</svg>
