<svg xmlns="http://www.w3.org/2000/svg" width="86" height="87" viewBox="0 0 86 87">
  <g id="leave" transform="translate(-3713 4398)">
    <g id="Group_1844" data-name="Group 1844" transform="translate(3713 -4475)">
      <rect id="Rectangle_1015" data-name="Rectangle 1015" width="86" height="87" transform="translate(0 77)" fill="rgba(0,0,0,0)"/>
      <g id="work-time" transform="translate(6.811 95)">
        <path id="Path_5697" data-name="Path 5697" d="M137.387,287.361a.742.742,0,0,0-.69.469c-.022.044-.234.429-.955.429s-.934-.385-.955-.429a.742.742,0,1,0-1.362.586,2.687,2.687,0,0,0,4.634,0,.741.741,0,0,0-.671-1.055Z" transform="translate(-109.214 -259.016)" fill="#4dcfe0"/>
        <path id="Path_5698" data-name="Path 5698" d="M114.15,240.707a.741.741,0,0,0-.741.741v1.672a.741.741,0,1,0,1.483,0v-1.672A.741.741,0,0,0,114.15,240.707Z" transform="translate(-91.235 -216.964)" fill="#4dcfe0"/>
        <path id="Path_5699" data-name="Path 5699" d="M187.4,240.707a.741.741,0,0,0-.741.741v1.672a.741.741,0,0,0,1.483,0v-1.672A.741.741,0,0,0,187.4,240.707Z" transform="translate(-157.264 -216.964)" fill="#4dcfe0"/>
        <path id="Path_5700" data-name="Path 5700" d="M316.205,76.654a.741.741,0,0,0-.741.741v9.162a.748.748,0,0,0,.217.525l4.281,4.281a.741.741,0,0,0,1.048-1.048l-4.064-4.064V77.4A.741.741,0,0,0,316.205,76.654Z" transform="translate(-273.36 -69.093)" fill="#4dcfe0"/>
        <path id="Path_5701" data-name="Path 5701" d="M54.217,4.221a.741.741,0,0,0-.968,1.123,15.987,15.987,0,0,1-10.4,28.1,15.8,15.8,0,0,1-9.078-2.836,8.142,8.142,0,0,0,.495-1.123,3.215,3.215,0,0,0,1.057-.186,14.011,14.011,0,0,0,13.805.712.741.741,0,0,0-.666-1.325,12.534,12.534,0,0,1-11.791-.3,3.218,3.218,0,0,0,.593-3.262c1.39-5.562,1.043-9.538-1.036-11.817A6.278,6.278,0,0,0,31.9,11.35,12.538,12.538,0,1,1,50.807,27.159.741.741,0,1,0,51.75,28.3,14.026,14.026,0,1,0,30.444,10.925a8.8,8.8,0,0,0-1.67-1A15.953,15.953,0,0,1,50.945,3.69.741.741,0,1,0,51.7,2.414,17.439,17.439,0,0,0,27.361,9.421a9.236,9.236,0,0,0-5.744.417,12.65,12.65,0,0,0-1.652.775.741.741,0,0,0,.728,1.292,11.16,11.16,0,0,1,1.458-.683,7.67,7.67,0,0,1,5.267-.248l.013.007a.739.739,0,0,0,.171.056,6.731,6.731,0,0,1,2.537,1.586.746.746,0,0,0,.665.235,5.271,5.271,0,0,1,4.337,1.459c1.558,1.72,1.88,4.92.95,9.3a3.208,3.208,0,0,0-1.363-.547V21.114a.747.747,0,0,0-.46-.686,8.082,8.082,0,0,1-3.921-4.688.746.746,0,0,0-1.285-.184c-2.838,3.767-10,4.682-10.076,4.691a.741.741,0,0,0-.652.736V23.07a3.209,3.209,0,0,0-1.347.536,16.715,16.715,0,0,1-.314-4.055.746.746,0,0,0-.738-.784A3.5,3.5,0,0,1,14.2,18.34a12.442,12.442,0,0,0,2.62-2.762,20.441,20.441,0,0,1,1.695-2.009.741.741,0,1,0-1.05-1.046,21.6,21.6,0,0,0-1.818,2.15,8.931,8.931,0,0,1-3.046,2.9.746.746,0,0,0-.273,1.1A4.34,4.34,0,0,0,15.166,20.2a20.424,20.424,0,0,0,.63,4.926,3.226,3.226,0,0,0,3,4.366,8.236,8.236,0,0,0,3.267,4.156,9.944,9.944,0,0,0-8.186,9.775v6.344a.741.741,0,0,0,.741.741H38.44a.741.741,0,0,0,.741-.741V43.419A9.944,9.944,0,0,0,31,33.644a8.267,8.267,0,0,0,1.962-1.791,17.265,17.265,0,0,0,9.889,3.077A17.469,17.469,0,0,0,54.217,4.221ZM34.725,26.776v-2.19a1.743,1.743,0,0,1-.086,3.373A8.228,8.228,0,0,0,34.725,26.776ZM17.07,26.261a1.747,1.747,0,0,1,1.261-1.675v2.19a8.227,8.227,0,0,0,.086,1.182A1.747,1.747,0,0,1,17.07,26.261ZM37.7,43.419v5.6H34.475V44.555a.741.741,0,1,0-1.483,0v4.467H20.063V44.555a.741.741,0,1,0-1.483,0v4.467H15.357v-5.6a8.456,8.456,0,0,1,7.974-8.431l1.048,2.7L23.143,44.46a.741.741,0,0,0,.2.654L26,47.8a.746.746,0,0,0,1.054,0l2.655-2.683a.741.741,0,0,0,.2-.654l-1.236-6.774,1.048-2.7A8.455,8.455,0,0,1,37.7,43.419ZM25.764,38.354h1.527l1.093,5.992-1.857,1.876-1.857-1.876Zm-.848-3.38h3.224l-.737,1.9H25.653Zm1.612-1.482a6.722,6.722,0,0,1-6.715-6.715V21.621a26.242,26.242,0,0,0,3.628-.9,14.963,14.963,0,0,0,6-3.355,9.68,9.68,0,0,0,3.8,4.2v5.206a6.723,6.723,0,0,1-6.715,6.715Z" fill="#00a7fe"/>
      </g>
    </g>
  </g>
</svg>
