<?xml version="1.0" encoding="utf-8"?>
<!-- Generator: Adobe Illustrator 23.0.0, SVG Export Plug-In . SVG Version: 6.00 Build 0)  -->
<svg version="1.1" id="Layer_1" xmlns="http://www.w3.org/2000/svg" xmlns:xlink="http://www.w3.org/1999/xlink" x="0px" y="0px"
	 viewBox="0 0 89 87" style="enable-background:new 0 0 89 87;" xml:space="preserve">
<style type="text/css">
	.st0{fill:none;}
	.st1{fill:#4DCFE0;}
	.st2{fill:#00A7FE;}
</style>
<g id="Group_4586" transform="translate(0 -0.236)">
	<path id="Rectangle_1017" class="st0" d="M4,0.2h81c2.2,0,4,1.8,4,4v79c0,2.2-1.8,4-4,4H4c-2.2,0-4-1.8-4-4v-79C0,2,1.8,0.2,4,0.2z
		"/>
	<g>
		<path class="st1" d="M43.9,68.7c-10.5,0-21.8-2.2-21.8-7.2c0-5.4,12.6-6.7,16.5-7l0.2,3.2c-9.4,0.7-13.5,3-13.5,3.8
			c0.2,1.2,6.7,4,18.6,4c11.9,0,18.4-2.8,18.6-4c-0.1-0.8-4.1-3.1-13.4-3.8l0.2-3.2c3.8,0.3,16.3,1.7,16.3,7c0,0.6-0.2,1.6-1.2,2.6
			C61.7,66.8,53.6,68.7,43.9,68.7z"/>
		<g>
			<path class="st2" d="M46.8,30.7h-5.8c-4.7,0-8.5,3.8-8.5,8.5v8.5c0,0.9,0.7,1.6,1.6,1.6h3.3v13.9c0,0.9,0.7,1.6,1.6,1.6h4.9h4.9
				c0.9,0,1.6-0.7,1.6-1.6V49.3h3.3c0.9,0,1.6-0.7,1.6-1.6v-8.5C55.3,34.5,51.4,30.7,46.8,30.7z M52.1,46.1h-1.7v-8.5h-3.2v24h-1.7
				V50.9h-3.2v10.7h-1.7v-24h-3.2v8.5h-1.7v-6.9c0-2.9,2.4-5.3,5.3-5.3h5.8c2.9,0,5.3,2.4,5.3,5.3V46.1z"/>
			<path class="st2" d="M43.9,30.1c3.1,0,5.6-2.5,5.6-5.6s-2.5-5.6-5.6-5.6s-5.6,2.5-5.6,5.6S40.8,30.1,43.9,30.1z M43.9,22
				c1.3,0,2.4,1.1,2.4,2.4c0,1.3-1.1,2.4-2.4,2.4c-1.3,0-2.4-1.1-2.4-2.4C41.4,23.1,42.5,22,43.9,22z"/>
		</g>
	</g>
</g>
</svg>
