<svg xmlns="http://www.w3.org/2000/svg" xmlns:xlink="http://www.w3.org/1999/xlink" width="135.437" height="135.436" viewBox="0 0 135.437 135.436">
  <defs>
    <linearGradient id="linear-gradient" x1="-0.193" y1="2.302" x2="1.303" y2="-1.486" gradientUnits="objectBoundingBox">
      <stop offset="0" stop-color="#fff" stop-opacity="0"/>
      <stop offset="1" stop-color="#3d4b5c"/>
    </linearGradient>
    <linearGradient id="linear-gradient-2" x1="-3.187" y1="-0.932" x2="3.988" y2="1.714" gradientUnits="objectBoundingBox">
      <stop offset="0" stop-color="#fff" stop-opacity="0"/>
      <stop offset="1" stop-color="#9ccc65"/>
    </linearGradient>
    <linearGradient id="linear-gradient-3" x1="1.234" y1="-0.686" x2="0.204" y2="0.984" xlink:href="#linear-gradient-2"/>
    <linearGradient id="linear-gradient-4" x1="0.5" y1="-0.415" x2="0.5" y2="0.681" xlink:href="#linear-gradient-2"/>
    <linearGradient id="linear-gradient-5" x1="0.881" y1="0.798" x2="0.133" y2="0.254" xlink:href="#linear-gradient-2"/>
    <linearGradient id="linear-gradient-6" x1="4.787" y1="-1.665" x2="4.211" y2="1.21" xlink:href="#linear-gradient-2"/>
    <linearGradient id="linear-gradient-7" x1="5.943" y1="-0.621" x2="5.943" y2="0.756" xlink:href="#linear-gradient-2"/>
    <linearGradient id="linear-gradient-8" x1="4.26" y1="0.877" x2="3.781" y2="-0.398" xlink:href="#linear-gradient-2"/>
    <linearGradient id="linear-gradient-9" x1="0.5" y1="13.804" x2="0.5" y2="-3.906" xlink:href="#linear-gradient"/>
    <linearGradient id="linear-gradient-10" x1="0.501" y1="13.794" x2="0.501" y2="-3.902" xlink:href="#linear-gradient"/>
    <linearGradient id="linear-gradient-11" x1="1.135" y1="-0.156" x2="-0.014" y2="1.4" gradientUnits="objectBoundingBox">
      <stop offset="0" stop-color="#fff" stop-opacity="0"/>
      <stop offset="1" stop-color="#9e3b32"/>
    </linearGradient>
    <linearGradient id="linear-gradient-12" x1="0.899" y1="0.047" x2="0.128" y2="0.926" gradientUnits="objectBoundingBox">
      <stop offset="0" stop-color="#fff" stop-opacity="0"/>
      <stop offset="1" stop-color="#cc7a52"/>
    </linearGradient>
    <linearGradient id="linear-gradient-13" x1="0.514" y1="-0.112" x2="0.482" y2="1.366" xlink:href="#linear-gradient-12"/>
    <linearGradient id="linear-gradient-14" x1="0.395" y1="-0.681" x2="0.619" y2="1.779" gradientUnits="objectBoundingBox">
      <stop offset="0" stop-color="#fff" stop-opacity="0"/>
      <stop offset="1" stop-color="#eab588"/>
    </linearGradient>
    <linearGradient id="linear-gradient-15" x1="2.003" y1="-2.486" x2="-1.5" y2="4.514" xlink:href="#linear-gradient-14"/>
    <linearGradient id="linear-gradient-16" x1="3.497" y1="-8.024" x2="-2.444" y2="8.862" xlink:href="#linear-gradient-14"/>
    <linearGradient id="linear-gradient-17" x1="2.407" y1="-2.705" x2="-3.308" y2="7.22" xlink:href="#linear-gradient-14"/>
    <linearGradient id="linear-gradient-18" x1="0.5" y1="13.801" x2="0.5" y2="-3.905" xlink:href="#linear-gradient"/>
    <linearGradient id="linear-gradient-19" x1="1.134" y1="-0.156" x2="-0.014" y2="1.398" xlink:href="#linear-gradient-11"/>
  </defs>
  <g id="lunch" transform="translate(0 0)">
    <g id="Layer_1" data-name="Layer 1" transform="translate(0 0)">
      <circle id="Ellipse_400" data-name="Ellipse 400" cx="67.718" cy="67.718" r="67.718" transform="translate(0)" fill="#e6f1ff"/>
      <path id="Path_3399" data-name="Path 3399" d="M52.361,117.113A67.7,67.7,0,0,1,167.55,68.844a67.7,67.7,0,1,0-95.739,95.739,67.481,67.481,0,0,1-19.45-47.471Z" transform="translate(-51.55 -48.584)" fill="#fff"/>
      <path id="Path_3400" data-name="Path 3400" d="M205.816,107.07a67.714,67.714,0,0,1-95.746,95.749,67.714,67.714,0,1,0,95.746-95.749Z" transform="translate(-91.084 -88.084)" fill="#ccdced"/>
      <path id="Path_3401" data-name="Path 3401" d="M209.917,155.56a2.5,2.5,0,0,0,1.356-2.531v-.539a3.741,3.741,0,0,0-.4-1.324.048.048,0,0,0-.023-.036c-.973-1.713-2.657-3.27-2.443-5.22a.966.966,0,0,1,.029-.169c.019-.107.036-.217.062-.324a.68.68,0,0,1,.019-.078c.065-.253.139-.506.208-.759a.24.24,0,0,1,0-.045c.023-.094.039-.188.058-.279s.026-.117.036-.175a.632.632,0,0,1,.019-.143,3.319,3.319,0,0,0,0-.438,1.759,1.759,0,0,0-.029-.224.86.86,0,0,0-.023-.191c-.023-.062-.045-.162-.068-.243s-.026-.1-.042-.152-.065-.156-.1-.23-.042-.1-.068-.149-.078-.14-.12-.208-.058-.1-.091-.152-.091-.123-.14-.185-.078-.107-.12-.159-.1-.107-.146-.162-.1-.107-.152-.162l-.149-.139-.185-.165-.146-.12-.221-.169-.136-.1c-.084-.062-.169-.12-.256-.175l-.123-.078c-.094-.062-.191-.12-.292-.178l-.107-.058-.324-.175-.094-.049-.347-.172-.075-.036c-.123-.058-.247-.114-.373-.165l-.062-.026c-.127-.055-.253-.11-.383-.159l-.049-.019-.191-.078c-.075-.023-.143-.055-.214-.081a3.481,3.481,0,0,0,1.3-3.325,4.172,4.172,0,0,0-1.3-2.631,5.35,5.35,0,0,0-3.926-1.243,7,7,0,0,0-2.5.623c.152-.393.3-.792.441-1.2a6.072,6.072,0,0,0,.279-3.893,3.037,3.037,0,0,0-.117-.282c-.032-.071-.055-.146-.091-.217s-.088-.14-.13-.211a2.9,2.9,0,0,0-.175-.266c-.042-.055-.094-.107-.139-.159a2.872,2.872,0,0,0-.24-.247c-.058-.052-.12-.094-.182-.139a1.991,1.991,0,0,0-.162-.127l-.149-.084-.036-.026c-1.431-.749-2.6.11-3.841.61l-.152.062a2.733,2.733,0,0,1-2.3-.094,1.32,1.32,0,0,1-.474-.561,3.4,3.4,0,0,1-.136-1.385v-.217a.486.486,0,0,0,0-.062,2.22,2.22,0,0,0-.078-.419v-.026a2.29,2.29,0,0,0-.162-.389v-.016a.54.54,0,0,0-.039-.052,2.03,2.03,0,0,0-.276-.37,1.14,1.14,0,0,0-.107-.11,2.664,2.664,0,0,0-.347-.286c-.029-.019-.052-.042-.081-.058a3.209,3.209,0,0,0-.5-.263l-.1-.036a3.762,3.762,0,0,0-.47-.143l-.117-.026a3.569,3.569,0,0,0-1.171-.039h-.107a3.14,3.14,0,0,0-.457.114l-.117.039a2.6,2.6,0,0,0-.483.24h-.019l-.045.042a2.226,2.226,0,0,0-.367.324c-.032.036-.065.071-.094.11a2.083,2.083,0,0,0-.3.516,1.444,1.444,0,0,1-.951-.941c0-.026-.026-.045-.036-.071a18.3,18.3,0,0,0-.766-2.417c-.042-.075-.075-.152-.12-.221a1.843,1.843,0,0,0-.2-.221,4.519,4.519,0,0,0,.947-2.628,4.062,4.062,0,0,0-.2-1.447,4.285,4.285,0,0,0-.276-.61c-.019-.036-.045-.068-.065-.1a4.465,4.465,0,0,0-.292-.438c-.042-.055-.088-.1-.133-.156a4.066,4.066,0,0,0-.3-.324l-.188-.169c-.1-.084-.2-.169-.308-.243s-.152-.107-.234-.159a3.171,3.171,0,0,0-.324-.178,2.922,2.922,0,0,0-.266-.133c-.107-.049-.217-.088-.324-.127s-.188-.068-.286-.1-.243-.055-.363-.078-.178-.036-.269-.049h-.633a1.57,1.57,0,0,0,.506-.425,2.507,2.507,0,0,0-.37-2.845l-.019-.023c-.045-.065-.094-.127-.143-.185s-.068-.091-.107-.133l-.075-.081c-.065-.071-.133-.143-.2-.211h0a3.513,3.513,0,0,0-.928-.639.05.05,0,0,1-.036-.016c-1.781-.834-4.068-1.11-5.029-2.823-.029-.049-.049-.1-.075-.156s-.1-.195-.14-.3l-.029-.075c-.094-.243-.178-.493-.273-.736a.393.393,0,0,1-.016-.045c-.036-.091-.078-.175-.117-.263s-.045-.11-.071-.162-.045-.081-.068-.127a2.922,2.922,0,0,0-.247-.36c-.049-.062-.1-.11-.152-.165a1.387,1.387,0,0,0-.133-.143c-.062-.058-.13-.107-.195-.159s-.081-.068-.127-.1-.139-.088-.211-.13a1.548,1.548,0,0,0-.143-.081,2.221,2.221,0,0,0-.217-.1l-.165-.071c-.068-.026-.143-.045-.214-.068l-.195-.058-.208-.045-.224-.045-.2-.026-.253-.026h-1.1l-.344.026h-.117l-.37.045h-.1l-.389.062-.078.016-.4.081h-.058l-.412.094h-.042l-.185.114c-.075.019-.149.036-.224.058a3.487,3.487,0,0,0-.873-3.468,4.153,4.153,0,0,0-2.6-1.379,5.35,5.35,0,0,0-3.916,1.275,7.011,7.011,0,0,0-1.668,1.963c-.1-.4-.211-.808-.324-1.21a6.053,6.053,0,0,0-2.047-3.345,2.647,2.647,0,0,0-.26-.159c-.068-.042-.13-.088-.2-.123s-.152-.065-.227-.1a2.515,2.515,0,0,0-.3-.114c-.071-.023-.14-.032-.211-.049a2.814,2.814,0,0,0-.324-.062h-.435l-.169.019h-.045c-1.6.224-2.057,1.622-2.774,2.738-.026.045-.052.091-.081.133h0a2.718,2.718,0,0,1-1.921,1.256,1.3,1.3,0,0,1-.71-.178,3.409,3.409,0,0,1-.918-1.048c-.042-.058-.084-.12-.13-.175a.6.6,0,0,0-.045-.045,2.18,2.18,0,0,0-.3-.3h-.023a1.988,1.988,0,0,0-.367-.237h-.016a.449.449,0,0,0-.062-.019,2.293,2.293,0,0,0-.438-.14l-.152-.029a2.613,2.613,0,0,0-.451-.029h-.1a3.3,3.3,0,0,0-.561.081.416.416,0,0,0-.1.029,3.893,3.893,0,0,0-.464.156l-.114.049a3.542,3.542,0,0,0-.973.649c-.029.026-.052.052-.078.078a2.866,2.866,0,0,0-.3.357c-.026.036-.049.065-.071.1a2.594,2.594,0,0,0-.253.477v.019a1.9,1.9,0,0,0-.1.354.206.206,0,0,1-.016.1c0,.1-.019.195-.023.292s0,.094,0,.143a2.266,2.266,0,0,0,.039.289.268.268,0,0,0,.016.11,1.457,1.457,0,0,1-1.35-.224,20.271,20.271,0,0,0-2.1-1.57,2.014,2.014,0,0,0-.214-.091,2.677,2.677,0,0,0-3.076,1.622,7.585,7.585,0,0,0-.36,3.76c.386,4.9,1.009,9.941,1.9,14.985l-.1.084c-.217.178-.428.367-.649.571h0a9.37,9.37,0,0,0-2.6,8.189c-2.7-2.715-5.687-4.886-8.935-5.107a5.354,5.354,0,0,0-4.662,2.073c-1.69,1.982-2.673,4.967-3.893,7.092-2.3,3.974-4.938,7.835-6.845,12-.058.123-.114.243-.165.367a32.315,32.315,0,0,0-1.174,3.03c-.042.13-.084.26-.123.389-.162.522-.324,1.045-.448,1.58h0a26,26,0,0,0-.675,4.218,31.505,31.505,0,0,0,.282,7.115,39.905,39.905,0,0,0,.973,4.617,49.111,49.111,0,0,0,2.248,6.417,60.416,60.416,0,0,0,7.546,12.9q1.194,1.557,2.475,3.04c.127.146.25.292.38.438a61.032,61.032,0,0,0,12.591,10.833q1.012.649,2.05,1.265a32.75,32.75,0,0,0,11.728,4.5,19.96,19.96,0,0,0,3.115.2c.347,0,.7-.019,1.045-.045a36.225,36.225,0,0,0,9.571-2.5c2.209-.8,4.38-1.46,6.489-2.1a65.4,65.4,0,0,0,12.173-4.5,31.659,31.659,0,0,0,2.848-1.71,29.616,29.616,0,0,0,2.764-2.122,3.964,3.964,0,0,0,.519-.552c.308-.4.558-.837.837-1.262a7.032,7.032,0,0,1,.448-.623,3.705,3.705,0,0,0,.282-.4c.026-.039.042-.081.065-.12a3.024,3.024,0,0,0,.162-.324c.019-.042.032-.088.052-.133.042-.11.084-.221.117-.324a.633.633,0,0,1,.032-.13,3.464,3.464,0,0,0,.081-.373v-.114c.019-.136.032-.279.042-.422a.875.875,0,0,1,0-.091v-.539a3.738,3.738,0,0,0-.052-.532.133.133,0,0,1,0-.036c-.029-.191-.065-.389-.107-.59h0c-.59-2.728-2.651-6.086-5.545-9.483a9.363,9.363,0,0,0,7.786-2.673l.081-.088a4.944,4.944,0,0,0,.461-.513c.081-.1.159-.195.237-.3s.162-.214.24-.324a9.369,9.369,0,0,0,1.729-5.7c2.654.428,5.515,1.265,7.809-.065a7.413,7.413,0,0,0,1.171-.879c1.035-.915,1.963-2,3.29-2.271,1.434-.3,2.894.461,4.364.47a4.066,4.066,0,0,0,1.045-.152,4.5,4.5,0,0,0,2.368-1.564,4.042,4.042,0,0,0,.717-1.356,3.783,3.783,0,0,0,.133-.649c0-.042,0-.081,0-.123a4.068,4.068,0,0,0,.019-.526.884.884,0,0,0-.016-.208,2.45,2.45,0,0,0-.055-.435c-.016-.084-.036-.165-.055-.247s-.065-.253-.107-.38-.062-.175-.1-.263-.1-.221-.149-.324-.091-.178-.143-.263a3.477,3.477,0,0,0-.191-.292c-.058-.084-.114-.165-.178-.247s-.162-.185-.25-.276-.12-.133-.188-.195a.35.35,0,0,0-.036-.036c-.1-.088-.217-.169-.324-.253-.042-.029-.081-.071-.13-.1a1.561,1.561,0,0,0,.652-.052Z" transform="translate(-87.279 -80.146)" fill="url(#linear-gradient)"/>
      <path id="Path_3402" data-name="Path 3402" d="M194.231,92.4a7.522,7.522,0,0,1,.357-3.754,2.677,2.677,0,0,1,3.076-1.622c1.353.474,2.32,2.394,3.66,1.885-.61-2.479,3.342-4.454,4.961-2.479a4.561,4.561,0,0,0,1.048,1.223c.905.535,2.054-.214,2.641-1.087.766-1.145,1.191-2.638,2.852-2.868a3.007,3.007,0,0,1,2.183.6c1.47,1.093,1.947,2.868,2.375,4.542a6.042,6.042,0,0,1,5.587-3.244c2.268.243,4.218,2.693,3.458,4.847,2.362-.649,5.48-1.022,6.706,1.1.324.581.457,1.269.785,1.856.973,1.713,3.244,1.989,5.029,2.826s3.066,3.614,1.34,4.542a4.289,4.289,0,0,1,2.673,7.786c-1.2.85-2.823,1.077-3.815,2.161-1.246,1.356-1.032,3.484-1.791,5.162-1.148,2.534-4.156,3.488-6.628,4.763-5.382,2.771-8.912,7.812-12.805,12.25-3.614,4.117-8.863,11.073-12.471,3.955C198.65,123.465,195.405,107.253,194.231,92.4Z" transform="translate(-147.893 -72.28)" fill="#9ccc65"/>
      <path id="Path_3404" data-name="Path 3404" d="M223.261,135.7a.717.717,0,0,1-1.3.483c-1.583-2.479-2-5.794-2.271-8.824q-1.586-17.844-3.183-35.687a3.319,3.319,0,0,1,4.133-1.778c1.038,6.978.286,14.408.649,21.438q.35,6.781,1.006,13.516c.217,2.252.464,4.493.736,6.738C223.1,132.232,223.112,134.091,223.261,135.7Z" transform="translate(-162.992 -76.333)" fill="url(#linear-gradient-2)"/>
      <path id="Path_3405" data-name="Path 3405" d="M271,104.718a144.167,144.167,0,0,0-15.66,28.225c-1.119,2.67-2.469,5.7-5.23,6.583.383-3.348,1.784-6.489,3.173-9.554q4.218-9.318,8.435-18.638a30.641,30.641,0,0,0,2.738-7.91c2.333-.616,5.291-.892,6.489,1.155Z" transform="translate(-185.691 -85.317)" fill="url(#linear-gradient-3)"/>
      <path id="Path_3406" data-name="Path 3406" d="M252.046,88.842c-.474,2.086-.925,4.179-1.366,6.271q-1.457,6.891-2.673,13.824c-.7,4-.045,17.341-2.19,13.9-1.45-2.31,2.057-23.829,1.947-35.82,0-1.1-.045-2.229-.068-3.355a3,3,0,0,1,1.966.623C251.154,85.393,251.608,87.152,252.046,88.842Z" transform="translate(-182.553 -72.27)" fill="url(#linear-gradient-4)"/>
      <path id="Path_3407" data-name="Path 3407" d="M281.241,126.962a4.976,4.976,0,0,1,.584.016,223.065,223.065,0,0,0-26.775,32.939c-.795-1.7.324-3.624,1.382-5.162q8.555-12.328,17.305-24.494a74.748,74.748,0,0,1,6.2-7.841C281.689,123.28,282.951,126.034,281.241,126.962Z" transform="translate(-188.847 -98.454)" fill="url(#linear-gradient-5)"/>
      <path id="Path_3408" data-name="Path 3408" d="M294.348,159.106a7.468,7.468,0,0,1,2.479-2.842,2.685,2.685,0,0,1,3.445.47c.824,1.171.49,3.3,1.875,3.666.951-2.372,5.311-1.677,5.476.873a4.724,4.724,0,0,0,.139,1.606c.425.973,1.8,1.022,2.78.649,1.3-.483,2.5-1.45,3.99-.668a3.007,3.007,0,0,1,1.424,1.758c.558,1.745-.091,3.462-.727,5.087a6.032,6.032,0,0,1,6.43.62c1.7,1.522,1.849,4.639,0,5.957,2.3.844,5.051,2.362,4.815,4.8-.065.668-.37,1.3-.444,1.966-.214,1.947,1.483,3.51,2.443,5.223s.386,4.727-1.564,4.48a4.289,4.289,0,0,1-2.359,7.884c-1.473,0-2.92-.766-4.364-.464-1.8.376-2.868,2.232-4.461,3.15-2.407,1.392-5.408.415-8.163,0-5.986-.879-11.793,1.161-17.545,2.5-5.334,1.243-13.652,3.838-12.439-4.052C279.853,186.942,286.653,171.866,294.348,159.106Z" transform="translate(-204.17 -121.044)" fill="#9ccc65"/>
      <path id="Path_3411" data-name="Path 3411" d="M350.851,223.95a144,144,0,0,0-29.176,13.827c-2.466,1.522-5.324,3.192-8.085,2.3,2.271-2.5,5.227-4.218,8.143-5.914l17.707-10.233a30.669,30.669,0,0,0,6.832-4.834c2.255.86,4.821,2.355,4.6,4.714C350.864,223.856,350.86,223.9,350.851,223.95Z" transform="translate(-228.576 -163.769)" fill="url(#linear-gradient-6)"/>
      <path id="Path_3412" data-name="Path 3412" d="M342.094,184.522c-1.6,1.418-3.186,2.858-4.763,4.3q-5.191,4.756-10.223,9.681c-2.9,2.842-10.138,14.067-9.882,10.025.169-2.722,15.553-18.168,22.454-27.982.649-.9,1.262-1.84,1.9-2.767a3.027,3.027,0,0,1,1.236,1.651C343.372,181.18,342.723,182.9,342.094,184.522Z" transform="translate(-231.028 -135.854)" fill="url(#linear-gradient-7)"/>
      <path id="Path_3413" data-name="Path 3413" d="M345.532,260.328a4.3,4.3,0,0,1,.467.354,222.978,222.978,0,0,0-40.949,11.18c.341-1.843,2.368-2.764,4.13-3.394q14.122-5.025,28.329-9.827a73.945,73.945,0,0,1,9.613-2.761C348.047,257.593,347.466,260.568,345.532,260.328Z" transform="translate(-222.807 -188.616)" fill="url(#linear-gradient-8)"/>
      <path id="Path_3414" data-name="Path 3414" d="M364.591,181.618l.123.058a6.1,6.1,0,0,0,.578.253c.068.029.139.052.211.078q.263.091.535.165l.247.062c.185.042.373.075.561.1a2.118,2.118,0,0,1,.237.039,7.463,7.463,0,0,0,.814.049,7.173,7.173,0,0,0,2.154-.324,7.255,7.255,0,0,0,2.453-1.327q.266-.224.516-.467a7.231,7.231,0,0,0,2.118-5.123h0a6.774,6.774,0,0,0-.049-.814,1.439,1.439,0,0,0-.036-.237c-.026-.188-.058-.376-.1-.558-.019-.084-.042-.169-.065-.25-.049-.182-.1-.36-.162-.535l-.078-.211c-.075-.195-.162-.389-.253-.577l-.058-.123a7.271,7.271,0,0,0-2.067-2.456h0a7.238,7.238,0,1,0-7.679,12.205Z" transform="translate(-260.371 -129.209)" opacity="0.5" fill="url(#linear-gradient-9)"/>
      <path id="Path_3415" data-name="Path 3415" d="M320.287,153.194l.123.058a6.1,6.1,0,0,0,.577.253c.068.029.139.052.211.078.175.062.354.117.532.162l.25.065c.185.042.37.075.558.1a2.056,2.056,0,0,1,.24.039,7.463,7.463,0,0,0,.814.049,7.239,7.239,0,0,0,4.608-1.655c.178-.149.35-.3.512-.467a7.222,7.222,0,0,0,2.112-5.123h0a7.525,7.525,0,0,0-.049-.814,1.439,1.439,0,0,0-.036-.237c-.029-.188-.058-.376-.1-.558-.019-.084-.042-.169-.065-.25-.049-.182-.1-.36-.162-.535l-.078-.211c-.078-.2-.162-.389-.253-.577-.019-.039-.039-.084-.062-.123a7.306,7.306,0,0,0-2.063-2.459h0a7.238,7.238,0,1,0-7.676,12.205Z" transform="translate(-230.43 -109.999)" opacity="0.5" fill="url(#linear-gradient-10)"/>
      <circle id="Ellipse_401" data-name="Ellipse 401" cx="7.241" cy="7.241" r="7.241" transform="translate(84.448 39.467) rotate(-76.72)" fill="#bf392e"/>
      <path id="Path_3416" data-name="Path 3416" d="M331.075,135.85a7.235,7.235,0,0,1-10.135,10.138,7.235,7.235,0,1,0,10.135-10.138Z" transform="translate(-233.542 -107.527)" fill="url(#linear-gradient-11)"/>
      <path id="Path_3417" data-name="Path 3417" d="M337.5,151.37a1.08,1.08,0,1,1-1.08-1.08A1.08,1.08,0,0,1,337.5,151.37Z" transform="translate(-243.27 -117.283)" fill="#6c9916"/>
      <path id="Path_3418" data-name="Path 3418" d="M321.814,145.856a3,3,0,0,0,1.259,2.177c.38.227.973.266,1.168-.133a.762.762,0,0,0,.052-.419c-.084-.749-.694-1.369-.746-2.122s.483-1.45.649-2.2c.324-1.4-.837-1.337-1.531-.545A4.023,4.023,0,0,0,321.814,145.856Z" transform="translate(-234.091 -111.716)" fill="#fff" opacity="0.5"/>
      <path id="Path_3419" data-name="Path 3419" d="M281.866,170.34a9.376,9.376,0,0,1-13.272,0L228.365,130.11a9.387,9.387,0,1,1,13.276-13.276l40.229,40.229a9.408,9.408,0,0,1,0,13.276Z" transform="translate(-169.143 -92.824)" fill="#cc7a52"/>
      <path id="Path_3420" data-name="Path 3420" d="M279.844,137.826l-4.542,4.542a1.81,1.81,0,0,1-2.56-2.557l4.542-4.542Z" transform="translate(-200.657 -107.135)" fill="#af502b"/>
      <path id="Path_3421" data-name="Path 3421" d="M303.107,161.18l-4.542,4.542a1.81,1.81,0,1,1-2.56-2.56l4.542-4.542Z" transform="translate(-216.338 -122.91)" fill="#af502b"/>
      <path id="Path_3422" data-name="Path 3422" d="M326.527,184.52l-4.542,4.542a1.81,1.81,0,0,1-2.557-2.56l4.542-4.542Z" transform="translate(-232.196 -138.678)" fill="#af502b"/>
      <path id="Path_3423" data-name="Path 3423" d="M349.747,207.83l-4.542,4.542a1.81,1.81,0,1,1-2.56-2.56l4.542-4.542Z" transform="translate(-247.847 -154.425)" fill="#af502b"/>
      <path id="Path_3424" data-name="Path 3424" d="M373.214,231.176l-4.542,4.542a1.81,1.81,0,0,1-2.56-2.556l4.542-4.542Z" transform="translate(-263.735 -170.2)" fill="#af502b"/>
      <path id="Path_3426" data-name="Path 3426" d="M254.5,124.1a1.642,1.642,0,1,1-1.642-1.622A1.642,1.642,0,0,1,254.5,124.1Z" transform="translate(-186.441 -98.495)" fill="#fff" opacity="0.5"/>
      <circle id="Ellipse_402" data-name="Ellipse 402" cx="1.278" cy="1.278" r="1.278" transform="translate(70.421 26.019)" fill="#fff" opacity="0.5"/>
      <path id="Path_3427" data-name="Path 3427" d="M324.307,213.008a1.275,1.275,0,1,1-.373-.9A1.278,1.278,0,0,1,324.307,213.008Z" transform="translate(-234.089 -158.79)" fill="#fff" opacity="0.5"/>
      <path id="Path_3428" data-name="Path 3428" d="M387.6,262.3a1.278,1.278,0,1,1-.365-.914A1.278,1.278,0,0,1,387.6,262.3Z" transform="translate(-276.846 -192.075)" fill="#fff" opacity="0.5"/>
      <path id="Path_3429" data-name="Path 3429" d="M272.375,168.954l-40.229-40.229a9.382,9.382,0,0,1-1.622-11.115,9.278,9.278,0,0,0-2.161,1.606h0a9.408,9.408,0,0,0,0,13.276l40.229,40.229a9.382,9.382,0,0,0,13.272,0h0a9.44,9.44,0,0,0,1.622-2.157A9.389,9.389,0,0,1,272.375,168.954Z" transform="translate(-169.148 -95.205)" fill="url(#linear-gradient-12)"/>
      <path id="Path_3430" data-name="Path 3430" d="M245.762,206.546a9.382,9.382,0,0,1-13.272,0l-40.216-40.213a9.386,9.386,0,0,1,13.272-13.276l40.229,40.229a9.408,9.408,0,0,1-.013,13.259Z" transform="translate(-144.761 -117.295)" fill="#cc7a52"/>
      <path id="Path_3431" data-name="Path 3431" d="M243.674,174l-4.542,4.542a1.81,1.81,0,0,1-2.56-2.557l4.542-4.542Z" transform="translate(-176.222 -131.571)" fill="#af502b"/>
      <path id="Path_3432" data-name="Path 3432" d="M266.907,197.35l-4.542,4.542a1.81,1.81,0,1,1-2.56-2.56l4.542-4.542Z" transform="translate(-191.883 -147.345)" fill="#af502b"/>
      <path id="Path_3433" data-name="Path 3433" d="M290.357,220.67l-4.542,4.542a1.81,1.81,0,0,1-2.557-2.56l4.542-4.542Z" transform="translate(-207.761 -163.1)" fill="#af502b"/>
      <path id="Path_3434" data-name="Path 3434" d="M313.471,244.007l-4.542,4.542a1.81,1.81,0,1,1-2.56-2.556l4.542-4.542Z" transform="translate(-223.305 -178.868)" fill="#af502b"/>
      <path id="Path_3435" data-name="Path 3435" d="M336.917,267.34l-4.542,4.542a1.81,1.81,0,1,1-2.56-2.56l4.542-4.542Z" transform="translate(-239.18 -194.629)" fill="#af502b"/>
      <path id="Path_3437" data-name="Path 3437" d="M216.313,163.512a1.642,1.642,0,1,1-1.642-1.622,1.642,1.642,0,0,1,1.642,1.622Z" transform="translate(-160.641 -125.119)" fill="#fff" opacity="0.5"/>
      <circle id="Ellipse_403" data-name="Ellipse 403" cx="1.278" cy="1.278" r="1.278" transform="translate(58.027 38.805)" fill="#fff" opacity="0.5"/>
      <path id="Path_3438" data-name="Path 3438" d="M286.117,252.415a1.278,1.278,0,1,1-1.278-1.275A1.278,1.278,0,0,1,286.117,252.415Z" transform="translate(-208.289 -185.414)" fill="#fff" opacity="0.5"/>
      <path id="Path_3439" data-name="Path 3439" d="M349.4,301.7a1.278,1.278,0,1,1-1.275-1.278A1.278,1.278,0,0,1,349.4,301.7Z" transform="translate(-251.039 -218.706)" fill="#fff" opacity="0.5"/>
      <path id="Path_3440" data-name="Path 3440" d="M236.192,205.077l-40.229-40.229a9.408,9.408,0,0,1-1.622-11.118,9.3,9.3,0,0,0-2.157,1.622h0a9.386,9.386,0,0,0,0,13.276l40.229,40.229a9.383,9.383,0,0,0,13.272,0h0a9.386,9.386,0,0,0,1.622-2.161A9.382,9.382,0,0,1,236.192,205.077Z" transform="translate(-144.7 -119.606)" fill="url(#linear-gradient-13)"/>
      <path id="Path_3441" data-name="Path 3441" d="M120.066,170.32c-1.69,1.982-2.673,4.967-3.893,7.1-3.244,5.609-7.189,10.992-8.76,17.383-1.827,7.429-.169,15.336,2.839,22.369a61.239,61.239,0,0,0,25.043,28.478c4.831,2.842,10.3,5.055,15.9,4.652a36.232,36.232,0,0,0,9.571-2.5c8.837-3.2,17.029-4.14,24.287-10.421a17.73,17.73,0,0,0,1.8-2.436c3.212-3.916-2.985-12.851-11.274-20.03-8.717-7.556-25.721-23.881-33.724-32.183-4.377-4.542-10.135-14.006-17.114-14.476A5.376,5.376,0,0,0,120.066,170.32Z" transform="translate(-88.775 -129.406)" fill="#ffce55"/>
      <path id="Path_3442" data-name="Path 3442" d="M163.309,282.256a35.734,35.734,0,0,1-9.571,2.5c-5.593.406-11.06-1.807-15.9-4.652A61.233,61.233,0,0,1,112.8,251.627c-3.007-7.034-4.665-14.94-2.839-22.386.016-.071.039-.139.058-.211a32.407,32.407,0,0,0-2.6,6.813c-1.827,7.429-.169,15.336,2.839,22.369A61.239,61.239,0,0,0,135.3,286.691c4.831,2.842,10.3,5.055,15.9,4.652a36.231,36.231,0,0,0,9.571-2.5c8.837-3.2,17.029-4.14,24.287-10.421a17.73,17.73,0,0,0,1.8-2.436,4.706,4.706,0,0,0,.685-4.13C180.293,278.119,172.121,279.067,163.309,282.256Z" transform="translate(-88.781 -170.477)" fill="url(#linear-gradient-14)"/>
      <path id="Path_3443" data-name="Path 3443" d="M138.755,265.083c1.239,1.719,2.758,3.507,4.866,3.828,1.924.292,3.854-.753,5.791-.529a27.179,27.179,0,0,1,3.773,1.22c1.281.344,2.92.149,3.536-1.015a2.9,2.9,0,0,0,.227-1.749c-.59-4.39-5.807-6.563-7.731-10.554-.587-1.217-.844-2.563-1.333-3.819a11.147,11.147,0,0,0-6.784-6.453,10.57,10.57,0,0,0-7.76.324c-2.952,1.509-1.509,2.719-.931,5.532C133.457,256.908,135.712,260.84,138.755,265.083Z" transform="translate(-105.592 -181.559)" fill="url(#linear-gradient-15)"/>
      <path id="Path_3445" data-name="Path 3445" d="M200.187,352.688a3.963,3.963,0,0,0,2.871.921c.931-.2,1.622-1.006,2.557-1.233a13.35,13.35,0,0,1,1.947-.088c.649-.062,1.356-.428,1.444-1.071a1.418,1.418,0,0,0-.195-.837c-1.022-1.908-3.776-2.008-5.34-3.5-.477-.454-.824-1.025-1.262-1.515a5.431,5.431,0,0,0-4.192-1.788,5.172,5.172,0,0,0-3.494,1.47c-1.093,1.194-.227,1.5.519,2.686A16.031,16.031,0,0,0,200.187,352.688Z" transform="translate(-147.789 -247.859)" fill="url(#linear-gradient-16)"/>
      <path id="Path_3447" data-name="Path 3447" d="M156.7,201.357a3.2,3.2,0,0,0,.973.925l6.862,4.938a28.38,28.38,0,0,0,4.977,3.085,2.166,2.166,0,0,0,1.8.185c1.012-.509.74-2.034.178-3.017-1.548-2.709-4.094-4.72-5.739-7.371-1.119-1.8-2.6-6.644-5.285-6.631C157.855,193.48,155.545,199.365,156.7,201.357Z" transform="translate(-122.379 -146.454)" fill="url(#linear-gradient-17)"/>
      <path id="Path_3448" data-name="Path 3448" d="M196.3,241.178a.5.5,0,0,0-.049.324.477.477,0,0,0,.195.23L198.2,243.1a2.043,2.043,0,0,0,1.35.613.438.438,0,0,0,.324-.13c.143-.175.016-.431,0-.649a.723.723,0,0,1,.344-.7c.386-.23.973-.088,1.249-.438a.766.766,0,0,0-.234-1.019,4.372,4.372,0,0,0-1.054-.477,2.978,2.978,0,0,1-1.236-.973C197.728,237.662,196.638,240.348,196.3,241.178Z" transform="translate(-149.301 -177.071)" fill="#689f38"/>
      <path id="Path_3449" data-name="Path 3449" d="M232.094,338.409a.48.48,0,0,0-.052.324.519.519,0,0,0,.195.234l1.749,1.363a2.043,2.043,0,0,0,1.35.613.438.438,0,0,0,.324-.13c.143-.175.016-.431,0-.649a.723.723,0,0,1,.344-.7c.386-.23.973-.088,1.249-.438a.767.767,0,0,0-.234-1.019,4.376,4.376,0,0,0-1.054-.477,2.978,2.978,0,0,1-1.236-.973C233.521,334.892,232.428,337.578,232.094,338.409Z" transform="translate(-173.479 -242.757)" fill="#689f38"/>
      <path id="Path_3450" data-name="Path 3450" d="M182.316,279.781a.5.5,0,0,0-.052.324.51.51,0,0,0,.2.234l1.749,1.363a2.037,2.037,0,0,0,1.35.613.431.431,0,0,0,.324-.13c.14-.175,0-.428-.016-.649a.733.733,0,0,1,.344-.7c.389-.23.973-.088,1.252-.438a.763.763,0,0,0-.234-1.015,4.437,4.437,0,0,0-1.054-.48,2.959,2.959,0,0,1-1.236-.973C183.744,276.268,182.653,278.951,182.316,279.781Z" transform="translate(-139.851 -203.151)" fill="#689f38"/>
      <path id="Path_3451" data-name="Path 3451" d="M179.336,315.2a.5.5,0,0,0-.052.324.526.526,0,0,0,.2.234l1.749,1.363a2.037,2.037,0,0,0,1.35.613.435.435,0,0,0,.324-.13c.143-.175.016-.431,0-.649a.733.733,0,0,1,.344-.7c.389-.23.973-.088,1.252-.438a.721.721,0,0,0-.234-1.015,4.315,4.315,0,0,0-1.054-.48,2.958,2.958,0,0,1-1.236-.973C180.764,311.682,179.673,314.368,179.336,315.2Z" transform="translate(-137.838 -227.077)" fill="#689f38"/>
      <path id="Path_3452" data-name="Path 3452" d="M157.7,236.522a.506.506,0,0,0,.23.214.487.487,0,0,0,.3-.032l2.106-.7c.649-.221,1.794-.448,1.457-1.359s-.509-2.271-1.671-2.342c-.837-.039-1.622.957-2.544,1C155.565,233.388,157.2,235.769,157.7,236.522Z" transform="translate(-122.518 -172.684)" fill="#689f38"/>
      <path id="Path_3453" data-name="Path 3453" d="M239.858,301.49a.477.477,0,0,0,.324,0,.5.5,0,0,0,.2-.227l1.106-1.921c.347-.607,1.045-1.528.185-1.982s-1.9-1.372-2.8-.649c-.649.526-.568,1.784-1.236,2.433C236.179,300.549,238.989,301.256,239.858,301.49Z" transform="translate(-176.987 -216.019)" fill="#689f38"/>
      <path id="Path_3454" data-name="Path 3454" d="M203.042,265.526a.325.325,0,0,0,.162.152.347.347,0,0,0,.214-.023l1.5-.5c.47-.156,1.272-.324,1.032-.973s-.36-1.622-1.184-1.664c-.594-.029-1.142.681-1.8.71C201.527,263.3,202.682,265,203.042,265.526Z" transform="translate(-153.365 -193.1)" fill="#689f38"/>
      <path id="Path_3455" data-name="Path 3455" d="M247.222,318.466a.357.357,0,0,0,.165.152.324.324,0,0,0,.214-.026l1.492-.5c.47-.156,1.275-.324,1.035-.973s-.363-1.622-1.187-1.664c-.594-.029-1.142.678-1.8.711C245.707,316.24,246.862,317.94,247.222,318.466Z" transform="translate(-183.212 -228.865)" fill="#689f38"/>
      <path id="Path_3456" data-name="Path 3456" d="M268.939,338.046a.26.26,0,0,0,.376.127l1.5-.5c.47-.156,1.275-.324,1.032-.973s-.36-1.622-1.184-1.664c-.594-.029-1.142.678-1.8.707C267.42,335.82,268.579,337.52,268.939,338.046Z" transform="translate(-197.882 -242.092)" fill="#689f38"/>
      <path id="Path_3457" data-name="Path 3457" d="M246.464,357.1a.357.357,0,0,0,.224.026.364.364,0,0,0,.156-.149l.9-1.3c.282-.409.831-1.019.25-1.392s-1.259-1.084-1.947-.623c-.493.324-.509,1.226-1.022,1.648C243.918,356.227,245.861,356.9,246.464,357.1Z" transform="translate(-182.029 -254.576)" fill="#689f38"/>
      <path id="Path_3458" data-name="Path 3458" d="M215.042,292.886a.263.263,0,0,0,.376.13l1.5-.5c.47-.156,1.272-.324,1.032-.973s-.36-1.622-1.184-1.664c-.594-.029-1.142.681-1.8.71C213.527,290.66,214.682,292.36,215.042,292.886Z" transform="translate(-161.472 -211.584)" fill="#689f38"/>
      <path id="Path_3459" data-name="Path 3459" d="M239.729,281.012a.264.264,0,0,0,.376.127l1.5-.5c.47-.159,1.272-.324,1.032-.973s-.36-1.622-1.184-1.661c-.594-.029-1.142.678-1.8.707C238.21,278.787,239.369,280.487,239.729,281.012Z" transform="translate(-178.149 -203.565)" fill="#689f38"/>
      <path id="Path_3460" data-name="Path 3460" d="M155.256,287.923a.357.357,0,0,0,.224.016.347.347,0,0,0,.152-.152l.856-1.32c.273-.415.8-1.045.208-1.4s-1.3-1.041-1.947-.561c-.483.347-.47,1.243-.973,1.677C152.7,287.128,154.662,287.735,155.256,287.923Z" transform="translate(-120.396 -207.844)" fill="#689f38"/>
      <path id="Path_3461" data-name="Path 3461" d="M171.533,267.1a.373.373,0,0,0,.165.152.354.354,0,0,0,.214-.026l1.492-.5c.47-.156,1.275-.324,1.035-.973s-.363-1.622-1.187-1.664c-.59-.029-1.142.678-1.8.707C170.018,264.87,171.176,266.57,171.533,267.1Z" transform="translate(-132.079 -194.161)" fill="#689f38"/>
      <path id="Path_3462" data-name="Path 3462" d="M212.778,317.379a.263.263,0,0,0,.376-.13l.866-1.317c.273-.412.8-1.038.217-1.4s-1.3-1.051-1.947-.574c-.483.344-.48,1.239-.973,1.671C210.212,316.568,212.171,317.191,212.778,317.379Z" transform="translate(-159.26 -227.746)" fill="#689f38"/>
      <path id="Path_3463" data-name="Path 3463" d="M375.288,324.884l.123.058c.188.094.383.178.578.253l.211.078c.175.062.354.117.535.162l.25.065c.182.042.37.075.558.1.078,0,.156.029.237.036a6.776,6.776,0,0,0,.814.049,7.273,7.273,0,0,0,2.154-.324,7.2,7.2,0,0,0,2.453-1.327q.269-.224.516-.467a7.222,7.222,0,0,0,2.115-5.123h0a7.517,7.517,0,0,0-.049-.814,1.887,1.887,0,0,0-.036-.237c-.029-.188-.062-.376-.1-.558-.019-.084-.042-.169-.062-.25q-.071-.273-.165-.535c-.026-.071-.049-.143-.078-.211a6.065,6.065,0,0,0-.253-.578l-.058-.123a7.313,7.313,0,0,0-2.067-2.459h0a7.238,7.238,0,1,0-7.679,12.205Z" transform="translate(-267.593 -225.992)" opacity="0.5" fill="url(#linear-gradient-18)"/>
      <circle id="Ellipse_404" data-name="Ellipse 404" cx="7.241" cy="7.241" r="7.241" transform="translate(103.762 82.545)" fill="#bf392e"/>
      <path id="Path_3464" data-name="Path 3464" d="M386.058,307.53a7.235,7.235,0,0,1-10.138,10.138,7.238,7.238,0,1,0,10.138-10.138Z" transform="translate(-270.685 -223.509)" fill="url(#linear-gradient-19)"/>
      <circle id="Ellipse_405" data-name="Ellipse 405" cx="1.08" cy="1.08" r="1.08" transform="translate(109.923 88.706)" fill="#6c9916"/>
      <path id="Path_3465" data-name="Path 3465" d="M376.8,317.536a2.987,2.987,0,0,0,1.259,2.177c.376.227.973.263,1.165-.133a.733.733,0,0,0,.052-.419c-.084-.749-.694-1.369-.746-2.122s.483-1.45.649-2.2c.324-1.4-.84-1.337-1.531-.545A4.013,4.013,0,0,0,376.8,317.536Z" transform="translate(-271.238 -227.698)" fill="#fff" opacity="0.5"/>
      <circle id="Ellipse_406" data-name="Ellipse 406" cx="7.241" cy="7.241" r="7.241" transform="translate(100.284 36.06)" fill="#bf392e"/>
      <path id="Path_3466" data-name="Path 3466" d="M375.345,164.25a7.235,7.235,0,0,1-10.135,10.138,7.235,7.235,0,1,0,10.135-10.138Z" transform="translate(-263.449 -126.714)" fill="url(#linear-gradient-11)"/>
      <path id="Path_3467" data-name="Path 3467" d="M381.811,179.75a1.08,1.08,0,1,1-1.08-1.08A1.08,1.08,0,0,1,381.811,179.75Z" transform="translate(-273.205 -136.455)" fill="#6c9916"/>
      <path id="Path_3468" data-name="Path 3468" d="M366.091,174.257a3,3,0,0,0,1.256,2.18c.38.224.973.263,1.168-.133a.749.749,0,0,0,.052-.422c-.084-.749-.694-1.369-.746-2.122s.483-1.45.649-2.2c.324-1.4-.837-1.337-1.531-.542A4,4,0,0,0,366.091,174.257Z" transform="translate(-264.002 -130.904)" fill="#fff" opacity="0.5"/>
    </g>
  </g>
</svg>
