<svg xmlns="http://www.w3.org/2000/svg" width="86" height="87" viewBox="0 0 86 87">
  <g id="Group_3294" data-name="Group 3294" transform="translate(0.114)">
    <rect id="Rectangle_1015" data-name="Rectangle 1015" width="86" height="87" rx="4" transform="translate(-0.114 0)" fill="none"/>
    <g id="meeting_5_" data-name="meeting(5)" transform="translate(25.009 18.809)">
      <g id="Group_3291" data-name="Group 3291" transform="translate(0 19.949)">
        <path id="Path_3253" data-name="Path 3253" d="M185.065,226.864h-.115a4.956,4.956,0,0,1-4.966-4.966v-.115a4.956,4.956,0,0,1,4.966-4.966h.115a4.956,4.956,0,0,1,4.966,4.966v.115A4.956,4.956,0,0,1,185.065,226.864Zm-.115-7.755a2.658,2.658,0,0,0-2.674,2.674v.115a2.658,2.658,0,0,0,2.674,2.674h.115a2.658,2.658,0,0,0,2.674-2.674v-.115a2.658,2.658,0,0,0-2.674-2.674h-.115Z" transform="translate(-167.568 -216.817)" fill="#00a7fe"/>
        <path id="Path_3254" data-name="Path 3254" d="M139.412,379.337H123.138a1.126,1.126,0,0,1-1.146-1.146V366.243a5.872,5.872,0,0,1,5.425-5.845,1.048,1.048,0,0,1,.879.306,4.256,4.256,0,0,0,2.98,1.222,4.126,4.126,0,0,0,2.98-1.222,1.048,1.048,0,0,1,.879-.306,5.819,5.819,0,0,1,5.425,5.845v11.948A1.126,1.126,0,0,1,139.412,379.337Zm-15.128-2.292h13.982v-10.8a3.606,3.606,0,0,0-2.827-3.515,6.63,6.63,0,0,1-8.328.038,3.526,3.526,0,0,0-2.827,3.476Z" transform="translate(-113.817 -349.893)" fill="#00a7fe"/>
        <path id="Path_3255" data-name="Path 3255" d="M333.161,257.206h-.076a4.19,4.19,0,0,1-4.2-4.2v-.115a4.19,4.19,0,0,1,4.2-4.2h.076a4.19,4.19,0,0,1,4.2,4.2v.076A4.223,4.223,0,0,1,333.161,257.206Zm-.076-6.227a1.891,1.891,0,0,0-1.91,1.91V253a1.891,1.891,0,0,0,1.91,1.91h.076a1.924,1.924,0,0,0,1.91-1.948v-.076a1.892,1.892,0,0,0-1.91-1.91h-.076Z" transform="translate(-305.579 -246.357)" fill="#00a7fe"/>
        <path id="Path_3256" data-name="Path 3256" d="M393.062,385.628h-6.189v-2.292h5.043v-8.158a1.942,1.942,0,0,0-1.872-1.948,4.761,4.761,0,0,1-3.171,1.146v-2.292a2.692,2.692,0,0,0,1.91-.8,1.1,1.1,0,0,1,.8-.344h.382a4.255,4.255,0,0,1,4.24,4.24v9.3A1.125,1.125,0,0,1,393.062,385.628Z" transform="translate(-359.329 -359.668)" fill="#00a7fe"/>
        <path id="Path_3257" data-name="Path 3257" d="M57.308,257.205h-.076a4.223,4.223,0,0,1-4.2-4.24v-.076a4.19,4.19,0,0,1,4.2-4.2h.076a4.19,4.19,0,0,1,4.2,4.2V253A4.19,4.19,0,0,1,57.308,257.205Zm-.076-6.227a1.891,1.891,0,0,0-1.91,1.91v.076a1.924,1.924,0,0,0,1.91,1.948h.076a1.892,1.892,0,0,0,1.91-1.91v-.115a1.892,1.892,0,0,0-1.91-1.91h-.076Z" transform="translate(-49.896 -246.356)" fill="#00a7fe"/>
        <path id="Path_3258" data-name="Path 3258" d="M18.056,385.863H11.829a1.126,1.126,0,0,1-1.146-1.146l.038-9.538a4.255,4.255,0,0,1,4.24-4.24h.382a1.04,1.04,0,0,1,.8.344,2.568,2.568,0,0,0,1.91.8v2.292a4.833,4.833,0,0,1-3.171-1.146,1.916,1.916,0,0,0-1.872,1.948l-.038,8.392h5.081v2.292Z" transform="translate(-10.683 -359.669)" fill="#00a7fe"/>
      </g>
      <g id="Group_3292" data-name="Group 3292" transform="translate(4.612)">
        <path id="Path_3259" data-name="Path 3259" d="M61.969,17a1.139,1.139,0,0,1-.917-.458l-2.369-3.056H55.742A1.126,1.126,0,0,1,54.6,12.339V1.146A1.126,1.126,0,0,1,55.742,0H73.926a1.126,1.126,0,0,1,1.146,1.146V12.339a1.126,1.126,0,0,1-1.146,1.146H64.872l-1.948,2.98a1.208,1.208,0,0,1-.917.535Zm-5.081-5.807h2.369a1.139,1.139,0,0,1,.917.458l1.719,2.254,1.414-2.178a1.234,1.234,0,0,1,.955-.535H72.78v-8.9H56.888Z" transform="translate(-54.596)" fill="#4dcfe0"/>
        <path id="Path_3260" data-name="Path 3260" d="M122.012,55.06h-7.755a1.146,1.146,0,0,1,0-2.292h7.755a1.146,1.146,0,1,1,0,2.292Z" transform="translate(-108.832 -48.91)" fill="#4dcfe0"/>
        <path id="Path_3261" data-name="Path 3261" d="M118.536,102.6h-4.279a1.146,1.146,0,0,1,0-2.292h4.279a1.146,1.146,0,0,1,0,2.292Z" transform="translate(-108.832 -92.976)" fill="#4dcfe0"/>
      </g>
    </g>
  </g>
</svg>
