<svg width="39" height="39" viewBox="0 0 39 39" fill="none" xmlns="http://www.w3.org/2000/svg">
<path d="M32.1989 28.1316L30.5858 27.1651C30.095 26.8716 29.534 26.7162 28.9622 26.7152H26.5306C26.0335 26.7148 25.5384 26.779 25.0579 26.9063L17.744 28.8699C17.3506 28.979 16.9892 29.181 16.69 29.4589C16.3909 29.7368 16.1628 30.0824 16.0249 30.4667L9.59166 26.9865C9.07093 26.6896 8.46143 26.588 7.87255 26.7C7.65004 26.7392 7.43425 26.8099 7.23171 26.9101C6.77437 27.1292 6.39485 27.4827 6.1439 27.9234C5.92437 28.3069 5.80881 28.7412 5.80866 29.1831C5.80533 29.6263 5.91943 30.0625 6.13935 30.4474C6.35927 30.8322 6.67719 31.1519 7.06075 31.374L18.5912 38.2724C19.0917 38.5837 19.6693 38.7491 20.2587 38.75H29.1818C29.5804 38.7504 29.9755 38.6752 30.3461 38.5284L32.2046 37.7949V38.75H38.5376V26.082H32.1989V28.1316ZM29.8752 37.3517C29.6535 37.439 29.4173 37.4841 29.179 37.4845H20.253C19.8963 37.4851 19.5466 37.3859 19.2435 37.198L7.69778 30.2843C7.50514 30.173 7.34541 30.0126 7.23486 29.8195C7.12431 29.6264 7.06687 29.4075 7.06839 29.185C7.06942 28.9628 7.12799 28.7447 7.23839 28.5518C7.36451 28.3329 7.55442 28.1576 7.78277 28.0495C7.88313 28.0004 7.98986 27.9657 8.09986 27.9463C8.17985 27.9313 8.26105 27.9236 8.34244 27.9234C8.56019 27.9228 8.77428 27.9794 8.96323 28.0877L15.9352 31.8573C15.9428 31.8955 15.9428 31.9337 15.9533 31.9728C16.0992 32.5107 16.418 32.9857 16.8605 33.3245C17.3031 33.6633 17.8448 33.8472 18.4021 33.8476C18.7547 33.8153 19.1039 33.753 19.446 33.6614L26.0263 31.9003L25.6997 30.6768L19.1413 32.4303C18.8548 32.4972 18.4794 32.5726 18.403 32.5793C18.1248 32.5799 17.8541 32.4888 17.6328 32.3201C17.4115 32.1515 17.2519 31.9146 17.1787 31.6462C17.1583 31.5697 17.1458 31.4913 17.1414 31.4122C17.1414 31.4122 17.1366 31.2585 17.1414 31.205C17.1649 30.9461 17.2667 30.7005 17.4332 30.5009C17.5997 30.3013 17.8231 30.1571 18.0735 30.0876L25.3845 28.1316C25.7583 28.0314 26.1436 27.9807 26.5306 27.9807H28.9584C29.3022 27.9808 29.6395 28.0742 29.9344 28.251L32.1989 29.6062V36.4292L29.8752 37.3517ZM33.4653 27.3513H37.2655V37.4845H33.4653V27.3513Z" fill="#41BC75" stroke="#41BC75" stroke-width="0.4"/>
<path d="M26.4549 5.31184L23.0577 1.91947C22.5297 1.38845 21.9017 0.967465 21.2098 0.680899C20.518 0.394332 19.7762 0.24788 19.0274 0.250023H11.065C10.5735 0.250758 10.0887 0.365162 9.64868 0.584294L8.22946 1.2939C7.9435 1.43746 7.62559 1.50551 7.30592 1.4916L6.66221 1.46868V0.250023H0.333984V14.1824H6.66699V12.2838H7.74429L8.12632 12.5369C9.19841 13.2489 10.4465 13.6509 11.7326 13.6982V21.7838H38.3329V5.31184H26.4549ZM5.3958 12.916H1.60039V1.51643H5.3958V12.916ZM8.82351 11.4834L8.11868 11.0174H6.66699V2.73318L7.2639 2.75419C7.79291 2.77265 8.31816 2.65874 8.79199 2.42278L10.2103 1.71317C10.4745 1.5812 10.7658 1.51254 11.0612 1.51261H19.0235C19.6059 1.51096 20.1828 1.62483 20.7208 1.84762C21.2588 2.0704 21.7474 2.39769 22.1581 2.81054L24.6632 5.31184H19.4352L17.9004 3.78374L17.0055 4.67864L21.479 9.14831C21.6032 9.26463 21.7027 9.40469 21.7717 9.5602C21.8406 9.7157 21.8777 9.88348 21.8806 10.0536C21.8835 10.2237 21.8522 10.3926 21.7886 10.5504C21.7249 10.7082 21.6303 10.8515 21.5102 10.972C21.3901 11.0925 21.247 11.1876 21.0894 11.2518C20.9318 11.3159 20.763 11.3477 20.5929 11.3454C20.4228 11.343 20.2549 11.3065 20.0992 11.238C19.9435 11.1695 19.8031 11.0705 19.6864 10.9467L15.9502 7.21241L15.507 7.59443C14.9132 8.09859 14.1626 8.38058 13.3838 8.39208C12.6049 8.40358 11.8463 8.14388 11.2379 7.65747L10.8712 7.36044L10.0756 8.34129L10.4471 8.64213C10.8353 8.95225 11.271 9.19767 11.7374 9.36893V12.4251C10.7009 12.3791 9.6965 12.0515 8.83211 11.4777L8.82351 11.4834ZM17.8326 10.8903L18.7876 11.8454C19.2649 12.3148 19.9075 12.5778 20.577 12.5778C21.2464 12.5778 21.889 12.3148 22.3663 11.8454C21.9185 12.5384 21.7552 13.3773 21.9102 14.1876C22.0652 14.998 22.5266 15.7174 23.1984 16.1962C23.8703 16.675 24.7009 16.8764 25.5174 16.7585C26.334 16.6406 27.0737 16.2125 27.5826 15.5631C28.0916 14.9138 28.3306 14.0932 28.25 13.2721C28.1694 12.451 27.7754 11.6926 27.1499 11.1546C26.5245 10.6166 25.7156 10.3405 24.8917 10.3835C24.0678 10.4266 23.2923 10.7857 22.7263 11.386C22.9395 11.0511 23.0696 10.67 23.1056 10.2746C23.1417 9.87924 23.0827 9.48095 22.9336 9.11298H31.4145C31.5474 9.89063 31.9183 10.6079 32.4762 11.1657C33.034 11.7236 33.7513 12.0946 34.5289 12.2274V14.8663C33.7513 14.9991 33.034 15.3701 32.4762 15.9279C31.9183 16.4858 31.5474 17.2031 31.4145 17.9807H18.6473C18.5144 17.2031 18.1434 16.4858 17.5856 15.9279C17.0277 15.3701 16.3105 14.9991 15.5328 14.8663V12.2303C16.4374 12.0788 17.2561 11.6036 17.8364 10.8932L17.8326 10.8903ZM23.1294 13.5502C23.1294 13.1745 23.2408 12.8072 23.4495 12.4948C23.6582 12.1824 23.9549 11.9389 24.302 11.7952C24.6491 11.6514 25.0311 11.6138 25.3996 11.6871C25.7681 11.7604 26.1065 11.9413 26.3722 12.207C26.6379 12.4726 26.8188 12.8111 26.8921 13.1796C26.9654 13.5481 26.9278 13.93 26.784 14.2771C26.6402 14.6242 26.3967 14.9209 26.0843 15.1297C25.7719 15.3384 25.4047 15.4498 25.029 15.4498C24.5257 15.4488 24.0433 15.2481 23.6879 14.8917C23.3324 14.5354 23.1329 14.0525 23.1332 13.5492L23.1294 13.5502ZM37.0665 20.5164H12.999V9.63444C14.0031 9.70962 15.0042 9.45365 15.8489 8.90573L16.931 9.99163C16.6967 10.3101 16.3909 10.5692 16.0383 10.748C15.6856 10.9268 15.2959 11.0204 14.9006 11.0212H14.2674V16.083H14.9006C15.5716 16.0843 16.2147 16.3516 16.6888 16.8265C17.1629 17.3013 17.4293 17.9448 17.4296 18.6158V19.249H32.6332V18.6158C32.6334 17.9442 32.9003 17.3001 33.3753 16.8251C33.8502 16.3502 34.4943 16.0833 35.166 16.083H35.7992V11.0212H35.166C34.8329 11.0211 34.5031 10.9553 34.1955 10.8276C33.8879 10.6999 33.6085 10.5128 33.3732 10.277C33.138 10.0413 32.9516 9.76142 32.8246 9.45352C32.6976 9.14562 32.6325 8.8157 32.6332 8.48264V7.84943H21.9709L20.7045 6.58302H37.0665V20.5164Z" fill="#41BC75" stroke="#41BC75" stroke-width="0.4"/>
</svg>
