<svg id="telephone" xmlns="http://www.w3.org/2000/svg" width="18.248" height="18.248" viewBox="0 0 18.248 18.248">
  <path id="Path_3645" data-name="Path 3645" d="M356.259,4.886a.608.608,0,0,1-.608-.608V1.236h-3.041a.608.608,0,1,1,0-1.216h3.649a.608.608,0,0,1,.608.608V4.278A.608.608,0,0,1,356.259,4.886Z" transform="translate(-338.62 -0.019)" fill="#0084e5"/>
  <path id="Path_3646" data-name="Path 3646" d="M256.581,8.516a.608.608,0,0,1-.431-1.039l7.3-7.3a.609.609,0,0,1,.861.861l-7.3,7.3A.608.608,0,0,1,256.581,8.516Z" transform="translate(-246.241 0)" fill="#0084e5"/>
  <path id="Path_3647" data-name="Path 3647" d="M20.854,53.287l-3.3,1.594A15.814,15.814,0,0,1,16,48.02H19.65A11.962,11.962,0,0,0,20.854,53.287Z" transform="translate(-15.392 -46.195)" fill="#4dcfe0"/>
  <path id="Path_3648" data-name="Path 3648" d="M2.165,40.1a.608.608,0,0,1-.547-.345A16.323,16.323,0,0,1,0,32.628a.608.608,0,0,1,.608-.608H4.257a.608.608,0,0,1,.608.608,11.29,11.29,0,0,0,1.142,5,.608.608,0,0,1-.279.814h0L2.433,40.036A.6.6,0,0,1,2.165,40.1Zm-.937-6.861A15.1,15.1,0,0,0,2.461,38.67l2.2-1.063a12.459,12.459,0,0,1-1-4.371Z" transform="translate(0 -30.803)" fill="#0084e5"/>
  <path id="Path_3649" data-name="Path 3649" d="M258.382,337.544v3.649a15.814,15.814,0,0,1-6.861-1.557l1.594-3.3A11.961,11.961,0,0,0,258.382,337.544Z" transform="translate(-241.96 -323.554)" fill="#4dcfe0"/>
  <path id="Path_3650" data-name="Path 3650" d="M242.973,326.345a16.322,16.322,0,0,1-7.124-1.618.608.608,0,0,1-.287-.811l0,0,1.594-3.3a.608.608,0,0,1,.813-.282h0a11.289,11.289,0,0,0,5,1.145.608.608,0,0,1,.608.608v3.649A.608.608,0,0,1,242.973,326.345Zm-6.042-2.461a15.1,15.1,0,0,0,5.434,1.232v-2.433a12.458,12.458,0,0,1-4.371-1Z" transform="translate(-226.551 -308.097)" fill="#0084e5"/>
  <path id="Path_3651" data-name="Path 3651" d="M50.241,229.763a16.552,16.552,0,0,1-7.68-7.68l1.095-.528a15.343,15.343,0,0,0,7.113,7.113Z" transform="translate(-40.943 -213.134)" fill="#0084e5"/>
</svg>
