<svg xmlns="http://www.w3.org/2000/svg" width="88" height="87" viewBox="0 0 88 87">
  <g id="project" transform="translate(-4430 4398)">
    <rect id="Rectangle_2121" data-name="Rectangle 2121" width="88" height="87" transform="translate(4430 -4398)" fill="#f4f8fc" opacity="0"/>
    <g id="folder_1_" data-name="folder(1)" transform="translate(4454.947 -4374)">
      <path id="Path_5749" data-name="Path 5749" d="M38.58.828A.828.828,0,0,0,37.752,0H17.484a.824.824,0,0,0-.571.229h0L14.766,2.276H.881A.828.828,0,0,0,.053,3.1V35.564A2.98,2.98,0,0,0,3.029,38.54H36.013a2.575,2.575,0,0,0,2.572-2.572Zm-21.1,7.089a.828.828,0,0,0,.828-.828V1.656H36.924V15.6H11.749V7.917Zm-.828-1.656H12.988l3.668-3.5ZM1.709,35.564V3.932H13.03L10.349,6.49a.828.828,0,0,0-.256.6h0v0h0v8.5H5.479a.828.828,0,0,0-.828.828V35.446a1.44,1.44,0,0,1-1.438,1.438H3.029a1.322,1.322,0,0,1-1.32-1.32Zm34.3,1.32H5.951a3.074,3.074,0,0,0,.356-1.438V17.255H36.924l0,18.712a.917.917,0,0,1-.916.916Z" fill="#00a7fe"/>
      <path id="Path_5750" data-name="Path 5750" d="M357.362,356.509h-1.746v-1.746a.828.828,0,0,0-1.656,0v1.746h-1.746a.828.828,0,0,0,0,1.656h1.746v1.746a.828.828,0,0,0,1.656,0v-1.746h1.746a.828.828,0,0,0,0-1.656Z" transform="translate(-324.888 -327.293)" fill="#3cc"/>
      <g id="Group_1865" data-name="Group 1865" transform="translate(9.998 27.242)">
        <path id="Path_5751" data-name="Path 5751" d="M140.6,363.565H133a.828.828,0,0,1,0-1.656h7.6a.828.828,0,0,1,0,1.656Z" transform="translate(-132.173 -361.909)" fill="#0084e6"/>
        <path id="Path_5752" data-name="Path 5752" d="M140.6,423.972H133a.828.828,0,1,1,0-1.656h7.6a.828.828,0,1,1,0,1.656Z" transform="translate(-132.173 -417.769)" fill="#0084e6"/>
      </g>
    </g>
  </g>
</svg>
