<svg xmlns="http://www.w3.org/2000/svg" width="79" height="79" viewBox="0 0 79 79">
  <g id="sales-dashboard" transform="translate(21308 -11776)">
    <rect id="Rectangle_2130" data-name="Rectangle 2130" width="79" height="79" transform="translate(-21308 11776)" fill="#fff" opacity="0"/>
    <g id="Layer_4" transform="translate(-21300.652 11780.892)">
      <g id="Group_1871" data-name="Group 1871" transform="translate(8 13.691)">
        <path id="Path_5755" data-name="Path 5755" d="M52.485,13.691H12.565A4.57,4.57,0,0,0,8,18.256V42.875a4.57,4.57,0,0,0,4.565,4.565H24.774L23.347,53.6a1.767,1.767,0,0,0,1.722,2.167H39.964a1.767,1.767,0,0,0,1.69-2.284L39.81,47.44H52.485a4.57,4.57,0,0,0,4.565-4.565V18.256A4.569,4.569,0,0,0,52.485,13.691ZM25.891,53.343l1.368-5.9H37.348a1.2,1.2,0,0,0,.031.319l1.705,5.584H25.891ZM54.63,42.875a2.149,2.149,0,0,1-2.146,2.146H12.565a2.149,2.149,0,0,1-2.146-2.146V18.256a2.149,2.149,0,0,1,2.146-2.146h39.92a2.149,2.149,0,0,1,2.146,2.146V42.875Z" transform="translate(-8 -13.691)" fill="#00a7fe"/>
        <path id="Path_5756" data-name="Path 5756" d="M33.489,37.195l-5.357.028.028-5.357a1.53,1.53,0,0,0-.443-1.08,1.405,1.405,0,0,0-1.14-.446,8.071,8.071,0,0,0,.145,16.13l.23,0a8.056,8.056,0,0,0,8.062-7.7,1.52,1.52,0,0,0-1.525-1.581Zm-6.537,6.859-.162,0a5.654,5.654,0,0,1-1.055-11.172L25.7,39.655l6.773-.034a5.641,5.641,0,0,1-5.52,4.433Z" transform="translate(-12.21 -20.13)" fill="#00a7fe"/>
        <path id="Path_5757" data-name="Path 5757" d="M37.681,27.057a1.5,1.5,0,0,0-1.5,1.5V34.6h6.041a1.527,1.527,0,0,0,1.5-1.594A5.977,5.977,0,0,0,37.681,27.057Zm.917,5.124V29.575a3.543,3.543,0,0,1,2.594,2.606Z" transform="translate(-18.901 -18.862)" fill="#00a7fe"/>
        <path id="Path_5758" data-name="Path 5758" d="M56.614,28.886A1.209,1.209,0,0,0,55.4,30.1V43.4a1.21,1.21,0,1,0,2.419,0V30.1A1.209,1.209,0,0,0,56.614,28.886Z" transform="translate(-26.339 -19.569)" fill="#00a7fe"/>
        <path id="Path_5759" data-name="Path 5759" d="M64.507,36.779a1.209,1.209,0,0,0-1.21,1.21v8.469a1.21,1.21,0,1,0,2.419,0V37.989A1.209,1.209,0,0,0,64.507,36.779Z" transform="translate(-29.393 -22.623)" fill="#00a7fe"/>
        <path id="Path_5760" data-name="Path 5760" d="M72.4,40.725a1.209,1.209,0,0,0-1.21,1.21v6.05a1.21,1.21,0,1,0,2.419,0v-6.05A1.21,1.21,0,0,0,72.4,40.725Z" transform="translate(-32.447 -24.15)" fill="#00a7fe"/>
      </g>
    </g>
  </g>
</svg>
