<?xml version="1.0" encoding="utf-8"?>
<!-- Generator: Adobe Illustrator 23.0.0, SVG Export Plug-In . SVG Version: 6.00 Build 0)  -->
<svg version="1.1" id="Layer_1" xmlns="http://www.w3.org/2000/svg" xmlns:xlink="http://www.w3.org/1999/xlink" x="0px" y="0px"
	 viewBox="0 0 89 87" style="enable-background:new 0 0 89 87;" xml:space="preserve">
<style type="text/css">
	.st0{fill:none;}
	.st1{fill:#3DC0D8;}
	.st2{fill:#00A7FE;}
</style>
<g id="Group_4586" transform="translate(0 -0.236)">
	<path id="Rectangle_1017" class="st0" d="M4,0.2h81c2.2,0,4,1.8,4,4v79c0,2.2-1.8,4-4,4H4c-2.2,0-4-1.8-4-4v-79C0,2,1.8,0.2,4,0.2z
		"/>
	<g id="list" transform="translate(-62.873 0)">
		<g id="Group_3805" transform="translate(62.873 0)">
			<path id="Path_3627" class="st1" d="M53.2,40.2H37.1c-0.8,0-1.4-0.6-1.4-1.4s0.6-1.4,1.4-1.4h16.1c0.8,0,1.4,0.6,1.4,1.4
				c0,0,0,0,0,0C54.6,39.6,54,40.2,53.2,40.2z"/>
			<path id="Path_3628" class="st1" d="M53.2,47.1H37.1c-0.8,0-1.4-0.6-1.4-1.4s0.6-1.4,1.4-1.4h16.1c0.8,0,1.4,0.6,1.4,1.4
				S54,47.1,53.2,47.1z"/>
			<path id="Path_3629" class="st1" d="M53.2,53.9H37.1c-0.8,0-1.4-0.6-1.4-1.4s0.6-1.4,1.4-1.4h16.1c0.8,0,1.4,0.6,1.4,1.4
				c0,0,0,0,0,0C54.6,53.3,54,53.9,53.2,53.9z"/>
			<path id="Path_3630" class="st1" d="M45.2,60.8h-8.1c-0.8,0-1.4-0.6-1.4-1.4c0-0.8,0.6-1.4,1.4-1.4h8.1c0.8,0,1.4,0.6,1.4,1.4
				C46.6,60.1,45.9,60.8,45.2,60.8z"/>
			<path id="Path_3631" class="st2" d="M58.3,26.5h-4v-1.9c0-0.8-0.6-1.4-1.4-1.4c0,0,0,0,0,0h-3.1c0.1-1.4-0.4-2.7-1.3-3.7
				c-1.8-1.8-4.7-1.8-6.5-0.1c0,0,0,0-0.1,0.1c-1,1-1.5,2.3-1.3,3.7h-3.1c-0.8,0-1.4,0.6-1.4,1.4c0,0,0,0,0,0v1.9h-4
				c-2.4,0-4.3,1.9-4.3,4.3v34.3c0,2.4,1.9,4.3,4.3,4.3h26.3c2.4,0,4.3-1.9,4.3-4.3V30.8C62.6,28.4,60.7,26.5,58.3,26.5
				C58.3,26.5,58.3,26.5,58.3,26.5z M38.9,26h3.6c0.8,0,1.4-0.7,1.4-1.5c0-0.3-0.1-0.5-0.2-0.8c-0.5-0.7-0.4-1.7,0.2-2.3
				c0.7-0.7,1.8-0.7,2.5,0c0.6,0.6,0.7,1.6,0.2,2.3c-0.4,0.6-0.3,1.5,0.4,2c0.2,0.2,0.5,0.3,0.8,0.3h3.6v4.2H38.9V26z M59.7,65.1
				c0,0.8-0.6,1.4-1.4,1.4c0,0,0,0,0,0H32c-0.8,0-1.4-0.6-1.4-1.4c0,0,0,0,0,0V30.8c0-0.8,0.6-1.4,1.4-1.4c0,0,0,0,0,0h4v2.4
				c0,0.8,0.6,1.4,1.4,1.4c0,0,0,0,0,0h15.4c0.8,0,1.4-0.6,1.4-1.4c0,0,0,0,0,0v-2.4h4c0.8,0,1.4,0.6,1.4,1.4c0,0,0,0,0,0L59.7,65.1
				L59.7,65.1z"/>
		</g>
	</g>
</g>
</svg>
