<svg xmlns="http://www.w3.org/2000/svg" width="201.66" height="46.498" viewBox="0 0 201.66 46.498">
  <g id="logo-full" transform="translate(-19.248 -119.585)">
    <path id="Path_887" data-name="Path 887" d="M45.369,121.557c-4.125-2.69-10.783-1.577-15.947,2.959-5.9,5.182-7.6,12.884-3.814,17.2s11.65,3.61,17.549-1.575c5.381-4.729,7.271-11.549,4.687-15.989l-.019-.074c3.333,5.254,1.122,13.544-5.377,19.254-7,6.15-16.309,6.987-20.809,1.867s-2.467-14.242,4.525-20.394c6.275-5.512,14.417-6.758,19.271-3.255Z" transform="translate(0)" fill="#2d499a"/>
    <path id="Path_888" data-name="Path 888" d="M27.393,147.345c6.385-6.16,15.113-7.534,19.875-2.993,4.932,4.7,3.719,13.983-2.711,20.727-5.764,6.051-13.775,8-18.922,4.946l.067-.012c4.349,2.311,10.89.624,15.633-4.359,5.426-5.686,6.446-13.51,2.286-17.482-3.453-3.289-9.693-2.764-14.409.6a8.681,8.681,0,0,1-1.819-1.427" transform="translate(-1.553 -5.369)" fill="#ec3336"/>
    <path id="Path_889" data-name="Path 889" d="M23.87,155.427c-4.141,5.041-5.131,11.426-2.361,15.333l.023.07c-3.137-4.091-2.629-10.666,1.026-16.345Z" transform="translate(-0.053 -8.484)" fill="#ec3336"/>
    <path id="Path_890" data-name="Path 890" d="M73.569,151.592l3.98-.255a3.117,3.117,0,0,0,.529,1.484,2.2,2.2,0,0,0,1.848.818,2.026,2.026,0,0,0,1.379-.421,1.208,1.208,0,0,0,.026-1.916,5.393,5.393,0,0,0-2.142-.789,9.106,9.106,0,0,1-3.931-1.636,3.316,3.316,0,0,1-1.182-2.614,3.53,3.53,0,0,1,.6-1.972,3.991,3.991,0,0,1,1.824-1.461,8.5,8.5,0,0,1,3.328-.536,6.79,6.79,0,0,1,3.958.97,4.128,4.128,0,0,1,1.617,3.065l-3.94.233a1.837,1.837,0,0,0-2.05-1.745,1.7,1.7,0,0,0-1.1.307.959.959,0,0,0-.372.755.747.747,0,0,0,.309.582,3.34,3.34,0,0,0,1.4.5,17.629,17.629,0,0,1,3.929,1.2,4.179,4.179,0,0,1,1.73,1.5,3.76,3.76,0,0,1,.54,2,4.287,4.287,0,0,1-.718,2.4,4.515,4.515,0,0,1-2.015,1.667,8.113,8.113,0,0,1-3.261.565q-3.456,0-4.785-1.322a5.247,5.247,0,0,1-1.508-3.38" transform="translate(-13.206 -5.521)" fill="#2d499a"/>
    <path id="Path_891" data-name="Path 891" d="M91.619,151.583l3.982-.251a3.045,3.045,0,0,0,.524,1.479,2.209,2.209,0,0,0,1.848.821,2.053,2.053,0,0,0,1.384-.422,1.213,1.213,0,0,0,.021-1.917,5.516,5.516,0,0,0-2.142-.786,9.079,9.079,0,0,1-3.931-1.641,3.3,3.3,0,0,1-1.181-2.611,3.545,3.545,0,0,1,.606-1.971,3.97,3.97,0,0,1,1.82-1.458,8.458,8.458,0,0,1,3.327-.537,6.812,6.812,0,0,1,3.959.968,4.146,4.146,0,0,1,1.622,3.065l-3.946.236a1.829,1.829,0,0,0-2.05-1.746,1.7,1.7,0,0,0-1.1.307.947.947,0,0,0-.368.753.767.767,0,0,0,.3.585,3.512,3.512,0,0,0,1.4.5,17.627,17.627,0,0,1,3.931,1.2,4.077,4.077,0,0,1,1.73,1.5,3.8,3.8,0,0,1,.541,2,4.327,4.327,0,0,1-.718,2.406,4.522,4.522,0,0,1-2.016,1.668,8.038,8.038,0,0,1-3.261.564q-3.449.006-4.784-1.322a5.254,5.254,0,0,1-1.505-3.385" transform="translate(-17.594 -5.52)" fill="#2d499a"/>
    <path id="Path_892" data-name="Path 892" d="M110.625,142.594l4.186,0,.005,10.205,6.531,0v3.332l-10.717,0Z" transform="translate(-22.215 -5.594)" fill="#2d499a"/>
    <path id="Path_893" data-name="Path 893" d="M133.79,142.585h3.973l1.434,7.583,2.1-7.583h3.955l2.1,7.567,1.433-7.571h3.952l-2.98,13.538-4.1,0-2.377-8.523-2.361,8.523-4.1,0Z" transform="translate(-27.846 -5.59)" fill="#2d499a"/>
    <rect id="Rectangle_441" data-name="Rectangle 441" width="4.193" height="13.538" transform="translate(126.421 136.985)" fill="#2d499a"/>
    <path id="Path_894" data-name="Path 894" d="M170.429,156.113l0-13.538,6.975,0a10.089,10.089,0,0,1,2.964.332,3.111,3.111,0,0,1,1.648,1.231,3.733,3.733,0,0,1,.634,2.193,3.783,3.783,0,0,1-.481,1.944,3.844,3.844,0,0,1-1.322,1.33,5.283,5.283,0,0,1-1.469.532,4.029,4.029,0,0,1,1.091.5,4.312,4.312,0,0,1,.668.711,5.185,5.185,0,0,1,.585.841l2.025,3.921-4.725,0-2.237-4.133a3.13,3.13,0,0,0-.755-1.044,1.75,1.75,0,0,0-1.027-.311l-.371,0v5.492Zm4.2-8.053,1.764,0a6.577,6.577,0,0,0,1.111-.188,1.114,1.114,0,0,0,.677-.423,1.375,1.375,0,0,0-.151-1.8,2.535,2.535,0,0,0-1.561-.35l-1.84,0v2.753Z" transform="translate(-36.753 -5.588)" fill="#2d499a"/>
    <path id="Path_895" data-name="Path 895" d="M189.779,142.567l11.21,0v2.891l-7.022,0v2.151h6.514l0,2.763h-6.512v2.665H201.2V156.1H189.783Z" transform="translate(-41.458 -5.587)" fill="#2d499a"/>
    <path id="Path_896" data-name="Path 896" d="M207.843,142.565l4.18-.006,0,10.206,6.527-.005,0,3.333-10.712.01Z" transform="translate(-45.849 -5.585)" fill="#2d499a"/>
    <path id="Path_897" data-name="Path 897" d="M224.5,142.559l11.214,0,0,2.889H228.69V147.6H235.2l0,2.761H228.69l0,2.668h7.221v3.067l-11.413,0Z" transform="translate(-49.898 -5.585)" fill="#2d499a"/>
    <path id="Path_898" data-name="Path 898" d="M241.6,151.535l3.982-.251a3.066,3.066,0,0,0,.525,1.482,2.2,2.2,0,0,0,1.844.817,2.057,2.057,0,0,0,1.384-.42,1.207,1.207,0,0,0,.023-1.917,5.325,5.325,0,0,0-2.145-.786,9.1,9.1,0,0,1-3.928-1.642,3.307,3.307,0,0,1-1.181-2.612,3.568,3.568,0,0,1,.6-1.974,4.045,4.045,0,0,1,1.824-1.459,8.544,8.544,0,0,1,3.327-.535,6.817,6.817,0,0,1,3.958.968,4.155,4.155,0,0,1,1.623,3.066l-3.944.235a1.841,1.841,0,0,0-2.053-1.746,1.716,1.716,0,0,0-1.1.307.964.964,0,0,0-.372.758.751.751,0,0,0,.307.581,3.366,3.366,0,0,0,1.4.5,17.531,17.531,0,0,1,3.931,1.2,4.171,4.171,0,0,1,1.728,1.5,3.77,3.77,0,0,1,.54,2,4.3,4.3,0,0,1-.719,2.405,4.507,4.507,0,0,1-2.01,1.665,8.106,8.106,0,0,1-3.262.565q-3.457,0-4.785-1.323a5.234,5.234,0,0,1-1.507-3.381" transform="translate(-54.055 -5.507)" fill="#2d499a"/>
    <path id="Path_899" data-name="Path 899" d="M259.643,151.53l3.981-.254a3.008,3.008,0,0,0,.531,1.482,2.213,2.213,0,0,0,1.847.825,2.051,2.051,0,0,0,1.381-.427,1.213,1.213,0,0,0,.022-1.916,5.445,5.445,0,0,0-2.144-.786,9.089,9.089,0,0,1-3.925-1.639,3.283,3.283,0,0,1-1.187-2.611,3.565,3.565,0,0,1,.607-1.973,3.968,3.968,0,0,1,1.816-1.461,8.41,8.41,0,0,1,3.332-.531,6.754,6.754,0,0,1,3.959.965,4.164,4.164,0,0,1,1.622,3.065l-3.946.237a2.139,2.139,0,0,0-.662-1.335,2.114,2.114,0,0,0-1.388-.411,1.715,1.715,0,0,0-1.1.3.956.956,0,0,0-.372.755.753.753,0,0,0,.31.584,3.408,3.408,0,0,0,1.4.5,17.828,17.828,0,0,1,3.931,1.2,4.124,4.124,0,0,1,1.729,1.5,3.77,3.77,0,0,1,.54,2,4.318,4.318,0,0,1-.718,2.4,4.521,4.521,0,0,1-2.014,1.668,8.2,8.2,0,0,1-3.26.57q-3.457-.007-4.787-1.328a5.258,5.258,0,0,1-1.5-3.381" transform="translate(-58.442 -5.508)" fill="#2d499a"/>
    <path id="Path_900" data-name="Path 900" d="M276.572,142.732a3.447,3.447,0,1,1,3.451,3.448,3.451,3.451,0,0,1-3.451-3.448m.476,0a2.971,2.971,0,1,0,2.975-2.965,2.976,2.976,0,0,0-2.975,2.965" transform="translate(-62.558 -4.79)" fill="#2d499a"/>
    <path id="Path_901" data-name="Path 901" d="M281.719,143.783l.469.116a1.575,1.575,0,0,1-.53.875,1.437,1.437,0,0,1-.93.306,1.633,1.633,0,0,1-.926-.234,1.422,1.422,0,0,1-.545-.668,2.474,2.474,0,0,1-.186-.945,2,2,0,0,1,.211-.958,1.448,1.448,0,0,1,.6-.623,1.726,1.726,0,0,1,.855-.213,1.431,1.431,0,0,1,.887.268,1.389,1.389,0,0,1,.5.758l-.458.1a1.114,1.114,0,0,0-.357-.559.956.956,0,0,0-.586-.176,1.17,1.17,0,0,0-.681.2,1.036,1.036,0,0,0-.379.524,2.147,2.147,0,0,0-.111.678,2.026,2.026,0,0,0,.131.781.949.949,0,0,0,.407.5,1.125,1.125,0,0,0,.6.169.99.99,0,0,0,.661-.229,1.143,1.143,0,0,0,.368-.671" transform="translate(-63.165 -5.312)" fill="#2d499a"/>
  </g>
</svg>
