<svg xmlns="http://www.w3.org/2000/svg" width="88" height="87" viewBox="0 0 88 87">
  <g id="supervisor" transform="translate(-4133 4398)">
    <rect id="Rectangle_2121" data-name="Rectangle 2121" width="88" height="87" transform="translate(4133 -4398)" fill="#f4f8fc" opacity="0"/>
    <g id="hierarchical-structure" transform="translate(4152.151 -4380.56)">
      <g id="Group_1855" data-name="Group 1855" transform="translate(0 0.718)">
        <g id="Group_1854" data-name="Group 1854" transform="translate(0 0)">
          <path id="Path_5725" data-name="Path 5725" d="M155.693,9.919a4.6,4.6,0,1,0-4.6-4.6A4.606,4.606,0,0,0,155.693,9.919Zm0-7.123a2.516,2.516,0,1,1-2.516,2.516A2.52,2.52,0,0,1,155.693,2.8Z" transform="translate(-130.584 -0.718)" fill="#00a7fe"/>
          <path id="Path_5726" data-name="Path 5726" d="M120.713,92.923h14.42a1.737,1.737,0,0,0,1.724-1.744V85.744a6.016,6.016,0,0,0-5.99-6.025h-5.852a6.033,6.033,0,0,0-6.025,6.025v5.435A1.741,1.741,0,0,0,120.713,92.923Zm.368-7.179a3.936,3.936,0,0,1,3.933-3.94h5.851a3.93,3.93,0,0,1,3.906,3.94v5.094h-1.307V85.765a.869.869,0,1,0-1.737,0v5.073h-7.6V85.765a.869.869,0,1,0-1.737,0v5.073h-1.306Z" transform="translate(-102.839 -68.996)" fill="#00a7fe"/>
          <path id="Path_5727" data-name="Path 5727" d="M36.7,201.765a4.6,4.6,0,1,0-4.6-4.6A4.606,4.606,0,0,0,36.7,201.765Zm0-7.116a2.516,2.516,0,1,1-2.516,2.516A2.52,2.52,0,0,1,36.7,194.649Z" transform="translate(-27.746 -166.524)" fill="#00a7fe"/>
          <path id="Path_5728" data-name="Path 5728" d="M17.874,277.208c0-.042-.007-.09-.007-.132-.007-.083-.014-.16-.028-.243v-.014a6,6,0,0,0-1.216-2.933c-.007-.007-.014-.021-.021-.028-.042-.049-.076-.1-.118-.146l-.125-.146-.035-.035a5.948,5.948,0,0,0-4.42-1.967H6.025A6.033,6.033,0,0,0,0,277.59v5.462a1.706,1.706,0,0,0,1.724,1.724H16.165a1.706,1.706,0,0,0,1.724-1.724v-5.49c0-.083,0-.16-.007-.236C17.881,277.285,17.874,277.25,17.874,277.208ZM15.8,282.677H14.469V277.6a.869.869,0,0,0-1.737,0v5.073H5.157V277.6a.869.869,0,0,0-1.737,0v5.073H2.085v-5.094a3.94,3.94,0,0,1,3.94-3.933h5.852a3.929,3.929,0,0,1,2.78,1.147,3.284,3.284,0,0,1,.257.285,3.952,3.952,0,0,1,.89,2.5v5.094Z" transform="translate(0 -234.802)" fill="#00a7fe"/>
          <path id="Path_5729" data-name="Path 5729" d="M274.528,201.765a4.6,4.6,0,1,0-4.6-4.6A4.606,4.606,0,0,0,274.528,201.765Zm0-7.116a2.516,2.516,0,1,1-2.516,2.516A2.52,2.52,0,0,1,274.528,194.649Z" transform="translate(-233.289 -166.524)" fill="#00a7fe"/>
          <path id="Path_5730" data-name="Path 5730" d="M249.686,271.565h-5.824a6.04,6.04,0,0,0-6.039,6.025v5.462a1.744,1.744,0,0,0,1.758,1.724h14.407a1.706,1.706,0,0,0,1.724-1.724V277.59h0A6.033,6.033,0,0,0,249.686,271.565Zm3.941,11.119H252.32v-5.073a.869.869,0,1,0-1.737,0v5.073h-7.6v-5.073a.869.869,0,1,0-1.737,0v5.073h-1.334V277.59a3.949,3.949,0,0,1,3.954-3.94h5.824a3.942,3.942,0,0,1,3.94,3.94Z" transform="translate(-205.542 -234.802)" fill="#00a7fe"/>
          <path id="Path_5731" data-name="Path 5731" d="M140.782,200.066a1.046,1.046,0,0,0-.389-1.425l-6.6-3.753v-5.532a1.042,1.042,0,0,0-2.085,0v5.532l-6.616,3.753a1.04,1.04,0,0,0,.514,1.946,1,1,0,0,0,.514-.139l6.63-3.76,6.609,3.76a1.058,1.058,0,0,0,.514.139A1.007,1.007,0,0,0,140.782,200.066Z" transform="translate(-107.661 -162.851)" fill="#3cc0d8"/>
        </g>
      </g>
    </g>
  </g>
</svg>
