<svg xmlns="http://www.w3.org/2000/svg" width="86" height="87" viewBox="0 0 86 87">
  <g id="supervisor-icon" transform="translate(21329 9372)">
    <g id="Group_788" data-name="Group 788" transform="translate(-177 13440)">
      <rect id="Rectangle_1015" data-name="Rectangle 1015" width="86" height="87" rx="4" transform="translate(-21152 -22812)" fill="rgba(0,0,0,0)"/>
    </g>
    <g id="structure" transform="translate(-21307 -9350)">
      <g id="Group_786" data-name="Group 786" transform="translate(0.838 0.838)">
        <path id="Path_379" data-name="Path 379" d="M46.705,345.357a3.353,3.353,0,1,0-6.705,0v1.676a3.353,3.353,0,0,0,6.705,0Z" transform="translate(-37.486 -314.177)" fill="#fff" fill-rule="evenodd"/>
        <path id="Path_380" data-name="Path 380" d="M15.867,429.8a3.346,3.346,0,0,1-2.493-1.117A5.886,5.886,0,0,0,10,433.988v.838H21.734v-.838a5.886,5.886,0,0,0-3.374-5.307A3.346,3.346,0,0,1,15.867,429.8Z" transform="translate(-10 -393.588)" fill="#4dcfe0" fill-rule="evenodd"/>
        <path id="Path_381" data-name="Path 381" d="M216,347.033a3.353,3.353,0,0,0,6.705,0v-1.676a3.353,3.353,0,0,0-6.705,0v1.676Z" transform="translate(-198.734 -314.177)" fill="#fff" fill-rule="evenodd"/>
        <path id="Path_382" data-name="Path 382" d="M189.376,428.681A5.886,5.886,0,0,0,186,433.988v.838h11.734v-.838a5.886,5.886,0,0,0-3.374-5.307,3.34,3.34,0,0,1-4.985,0Z" transform="translate(-171.249 -393.589)" fill="#4dcfe0" fill-rule="evenodd"/>
        <path id="Path_383" data-name="Path 383" d="M392,347.034a3.353,3.353,0,0,0,6.705,0v-1.676a3.353,3.353,0,0,0-6.705,0v1.676Z" transform="translate(-359.982 -314.177)" fill="#fff" fill-rule="evenodd"/>
        <path id="Path_384" data-name="Path 384" d="M367.868,429.8a3.346,3.346,0,0,1-2.493-1.117A5.886,5.886,0,0,0,362,433.988v.838h11.734v-.838a5.886,5.886,0,0,0-3.374-5.307A3.346,3.346,0,0,1,367.868,429.8Z" transform="translate(-332.498 -393.588)" fill="#4dcfe0" fill-rule="evenodd"/>
        <path id="Path_385" data-name="Path 385" d="M216,75.028a3.353,3.353,0,0,0,6.705,0V73.352a3.353,3.353,0,0,0-6.705,0v1.676Z" transform="translate(-198.734 -64.97)" fill="#fff" fill-rule="evenodd"/>
        <path id="Path_386" data-name="Path 386" d="M190.673,156.676a5.907,5.907,0,0,0-3.256,4.134,9.18,9.18,0,0,0,5.73,2.011h.037a9.18,9.18,0,0,0,5.73-2.011,5.907,5.907,0,0,0-3.256-4.134,3.34,3.34,0,0,1-4.985,0Z" transform="translate(-172.547 -144.382)" fill="#4dcfe0" fill-rule="evenodd"/>
        <path id="Path_387" data-name="Path 387" d="M158.572,18.381v1.676a3.338,3.338,0,0,1-.86,2.236,5.907,5.907,0,0,1,3.256,4.134,9.22,9.22,0,1,0-11.5,0,5.907,5.907,0,0,1,3.256-4.134,3.339,3.339,0,0,1-.86-2.236V18.381a3.353,3.353,0,0,1,6.705,0Z" transform="translate(-134.601 -9.999)" fill="#4dcfe0" fill-rule="evenodd"/>
      </g>
      <g id="Group_787" data-name="Group 787" transform="translate(0 0)">
        <path id="Path_388" data-name="Path 388" d="M39.911,35.655a4.164,4.164,0,0,0,.489-1.961V32.018a4.2,4.2,0,0,0-3.353-4.106V25.648a2.517,2.517,0,0,0-2.514-2.514H22.3V20.081A10.058,10.058,0,1,0,17.585.773a.838.838,0,1,0,.646,1.547A8.379,8.379,0,0,1,27.6,15.757a6.812,6.812,0,0,0-2.438-2.9,4.165,4.165,0,0,0,.489-1.961V9.22a4.191,4.191,0,1,0-8.382,0V10.9a4.164,4.164,0,0,0,.489,1.961,6.8,6.8,0,0,0-2.438,2.9,8.382,8.382,0,0,1-1.73-8.588.838.838,0,1,0-1.574-.578,10.064,10.064,0,0,0,8.606,13.49v3.053H8.382a2.517,2.517,0,0,0-2.514,2.514v2.264a4.2,4.2,0,0,0-3.353,4.106v1.676A4.164,4.164,0,0,0,3,35.656a6.759,6.759,0,0,0-3,5.582v.838a.838.838,0,0,0,.838.838H12.572a.838.838,0,0,0,.838-.838v-.838a6.756,6.756,0,0,0-3-5.582,4.164,4.164,0,0,0,.489-1.961V32.018a4.2,4.2,0,0,0-3.353-4.106V25.648a.839.839,0,0,1,.838-.838H20.619v3.1a4.2,4.2,0,0,0-3.353,4.106v1.676a4.165,4.165,0,0,0,.489,1.961,6.757,6.757,0,0,0-3,5.582v.838a.838.838,0,0,0,.838.838H27.324a.838.838,0,0,0,.838-.838v-.838a6.757,6.757,0,0,0-3-5.582,4.165,4.165,0,0,0,.489-1.961V32.018A4.2,4.2,0,0,0,22.3,27.912v-3.1H34.532a.839.839,0,0,1,.838.838v2.264a4.2,4.2,0,0,0-3.353,4.106v1.676a4.164,4.164,0,0,0,.489,1.961,6.752,6.752,0,0,0-3,5.583v.838a.838.838,0,0,0,.838.838H42.076a.838.838,0,0,0,.838-.838v-.838a6.752,6.752,0,0,0-3-5.582ZM18.943,9.22a2.514,2.514,0,1,1,5.029,0V10.9a2.514,2.514,0,0,1-5.029,0V9.22Zm-.112,4.939a4.179,4.179,0,0,0,5.252,0A5.1,5.1,0,0,1,26.25,16.93a8.363,8.363,0,0,1-9.587,0,5.092,5.092,0,0,1,2.167-2.771Zm-7.1,27.079H1.676a5.071,5.071,0,0,1,2.4-4.281,4.179,4.179,0,0,0,5.254,0A5.07,5.07,0,0,1,11.734,41.238ZM9.22,32.018v1.676a2.514,2.514,0,0,1-5.029,0V32.018a2.514,2.514,0,1,1,5.029,0Zm17.266,9.22H16.428a5.07,5.07,0,0,1,2.4-4.281,4.179,4.179,0,0,0,5.254,0A5.071,5.071,0,0,1,26.486,41.238Zm-2.515-9.22v1.676a2.514,2.514,0,0,1-5.029,0V32.018a2.514,2.514,0,0,1,5.029,0Zm9.723,0a2.514,2.514,0,0,1,5.029,0v1.676a2.514,2.514,0,0,1-5.029,0Zm-2.514,9.22a5.066,5.066,0,0,1,2.4-4.282,4.179,4.179,0,0,0,5.254,0,5.066,5.066,0,0,1,2.4,4.281Z" transform="translate(0 0)" fill="#00a7fe"/>
        <path id="Path_389" data-name="Path 389" d="M167.392,35.592a.838.838,0,0,0,0-1.676h0a.838.838,0,0,0,0,1.676Z" transform="translate(-152.594 -31.073)" fill="#00a7fe"/>
      </g>
    </g>
  </g>
</svg>
