<?xml version="1.0" encoding="utf-8"?>
<!-- Generator: Adobe Illustrator 23.0.0, SVG Export Plug-In . SVG Version: 6.00 Build 0)  -->
<svg version="1.1" id="Layer_1" xmlns="http://www.w3.org/2000/svg" xmlns:xlink="http://www.w3.org/1999/xlink" x="0px" y="0px"
	 viewBox="0 0 750 500" style="enable-background:new 0 0 750 500;" xml:space="preserve">
<style type="text/css">
	.st0{fill:none;}
	.st1{fill:#484E7D;}
	.st2{fill:#EEA886;}
	.st3{fill:#5B639E;}
	.st4{fill:#292C47;}
	.st5{fill:#0CBCA7;}
	.st6{fill:#323657;}
	.st7{fill:#807066;}
	.st8{fill:#3A3A3A;}
	.st9{fill:#A77860;}
	.st10{fill:#05937E;}
	.st11{fill:#869135;}
	.st12{fill:#48753A;}
	.st13{fill:#D6D6D6;}
	.st14{fill:#E8E8E8;}
	.st15{fill:#C2C2C2;}
	.st16{fill:#E2E2E2;}
	.st17{fill:#A5A5A5;}
	.st18{fill:#18D3A2;}
	.st19{fill:#BFBFBF;}
	.st20{fill:#E3F2FF;}
	.st21{opacity:0.83;}
	.st22{fill:#E0F1FF;}
	.st23{fill:#EFD050;}
	.st24{fill:#78C2FF;}
	.st25{fill:#E86767;}
	.st26{fill:#B3DCFF;}
	.st27{opacity:0.78;}
	.st28{fill:#5377B3;}
	.st29{fill:#5B83C2;}
	.st30{fill:#2F4563;}
	.st31{fill:#354C70;}
	.st32{fill:#2B3B57;}
	.st33{fill:#57A7FF;}
	.st34{fill:#353A3D;}
	.st35{fill:#1B91EA;}
	.st36{fill:#E55353;}
	.st37{fill:#FF7E55;}
	.st38{fill:#EDDAD3;}
	.st39{fill:#C9B9B3;}
	.st40{fill:#BA5C3D;}
	.st41{fill:#DBCAC3;}
	.st42{fill:#C2BEBC;}
	.st43{opacity:0.74;}
</style>
<g>
	<rect class="st0" width="750" height="500"/>
	<g>
		<g>
			<g>
				<g>
					<g>
						<path class="st1" d="M588.9,203.8c0,0,4.1,1.9,6,2.5c1.8,0.6,8.6-0.1,9.3,0.5c0.7,0.6,0.8,2.8-0.3,3.1
							c-1.1,0.4-9.1,2.4-11.9,2.1c-2.8-0.3-7.8,1.6-8.9,1.4c-1.2-0.2-1.3-6.9-1-8.4C582.2,203.4,588.9,203.8,588.9,203.8z"/>
					</g>
				</g>
			</g>
			<g>
				<g>
					<g>
						<path class="st2" d="M587.9,201.1l0.9,2.7c0,0-5,1.8-6.9,1.2l-0.7-2.7L587.9,201.1z"/>
					</g>
				</g>
			</g>
			<g>
				<g>
					<g>
						<path class="st3" d="M577.8,206.1c0,0,3.9,2.4,5.6,3.2c1.8,0.9,8.5,1,9.2,1.7c0.7,0.7,0.5,2.8-0.6,3.1
							c-1.1,0.2-9.3,1.2-12.1,0.6c-2.8-0.6-7.9,0.6-9,0.2c-1.1-0.4-0.5-7-0.1-8.5C571.2,205,577.8,206.1,577.8,206.1z"/>
					</g>
				</g>
			</g>
			<g>
				<g>
					<g>
						<path class="st2" d="M577.2,203.4l0.6,2.8c0,0-5.1,1.1-7,0.3l-0.3-2.8L577.2,203.4z"/>
					</g>
				</g>
			</g>
			<g>
				<path class="st4" d="M538.2,153.7c0,0,17.7,0.2,19.9,0.5c2.4,0.3,11.6,0.6,12.7,2.3c11.2,17.1,18.6,45,18.6,45l-8.9,1.7
					c0,0-8.6-16.7-12.2-25.3c-3.2-7.8-6-9.8-12.8-9.6c-6.8,0.2-28.5-1.3-41-2.9L538.2,153.7z"/>
			</g>
			<g>
				<path class="st5" d="M536.3,112.6c0,0,5.3,11.3,4.8,15.5c-0.4,4.2-4.9,15.9-5.3,18.2c-0.3,2.3,2,7,2,7l-23.7,11
					c0,0-1-6.9,0-14.9c1-8,1.7-16.6,2.7-21.1c3.6-15.4,13.1-21.8,13.1-21.8L536.3,112.6z"/>
			</g>
			<g>
				<path class="st6" d="M537.9,153.3c0,0,17.7,0.2,19.9,0.5c2.4,0.3,11.8,0.5,12.7,2.3c6.4,13,7.9,47.7,7.9,47.7l-8.3,1
					c0,0-3.5-17.7-5.3-26c-1-4.4-4.6-9.7-9.7-9.4c-6.8,0.4-33.4,7-40.9-5.1L537.9,153.3z"/>
			</g>
			<g>
				<path class="st2" d="M522.5,123.3c0.1-2.2,1.3-11.7,6.7-11c5.3,0.6,4.7,7.1,4.2,11.9c-0.5,5.1-3.1,17.4-2.3,18.1
					c0.8,0.6,7.2,2.5,8.5,2.8c1.4,0.3,9.6,2.3,10.2,2.5c0.7,0.2-0.7,3.4-0.7,3.4s-22.7-0.7-26.5-2.5
					C518.9,146.6,522.5,123.3,522.5,123.3z"/>
			</g>
			<g>
				<path class="st2" d="M549.9,147.5c0,0,1.7,0.4,2.5,0.5c0.8,0.1,4.7-1.5,5.9-1.2c1.2,0.2,8.9,3.9,9.3,4.2
					c0.3,0.3-0.2,0.8-0.2,0.8l-18.1-0.7L549.9,147.5z"/>
			</g>
			<g>
				
					<rect x="542.4" y="151.2" transform="matrix(0.9992 4.038162e-02 -4.038162e-02 0.9992 6.617 -22.3865)" class="st7" width="30.1" height="2.8"/>
			</g>
			<g>
				
					<rect x="561.2" y="138.6" transform="matrix(0.338 -0.9412 0.9412 0.338 249.7619 634.9838)" class="st7" width="30.1" height="2.8"/>
			</g>
			<g>
				<path class="st2" d="M550.1,94.8c0,0,0.6,4.6-0.7,4.8c-1,0.2-0.7,4.6-0.7,5.4c0,0.7-2,0.5-2.5,0.7c-0.5,0.2-3.6,4.7-5.1,4.3
					c-1.5-0.4-7.2-5.3-8.3-7.9c-1.1-2.6,0.8-11.6,3.4-14.7C538.9,84.3,549.1,86.6,550.1,94.8z"/>
			</g>
			<g>
				<path class="st2" d="M538.3,106.6c0,0-0.2,0.4-0.4,1c-0.2,0.5-0.4,1.1-0.6,1.7c-0.6,1.7-1.2,3.8-1.3,4.9
					c-0.1,1.9-6.1-7.7-6.1-7.7s2.1-5.8,3.5-12.6C534.8,87.1,538.3,106.6,538.3,106.6z"/>
			</g>
			<g>
				<path class="st8" d="M550.2,95.7c0,0,3.7-3.3,1.1-7.9c-2.6-4.6-11.8-2-12.7-2.1c-0.9-0.1-5.5-1.6-6.4,7.3
					c-0.9,8.8-0.3,7.5-0.3,7.5s2.3-3.8,3.9-3.2c1.6,0.6,4.4,0.9,4.4,0.9s0.1-4.1,2.4-3.8C544.9,94.8,548.4,94.1,550.2,95.7z"/>
			</g>
			<g>
				<path class="st5" d="M522.1,123.7l12.2,0.4c0,0,1.9-12.7-5.1-12.4C522.2,111.9,522.1,123.7,522.1,123.7z"/>
			</g>
			<g>
				<path class="st2" d="M538.8,95.4c0-0.6,0.2-2.9-2.1-2.4c-2.3,0.5-0.9,5.7-0.6,5.9C536.4,99,538.7,100.1,538.8,95.4z"/>
			</g>
			<g>
				<path class="st2" d="M530,106.5c0,0,10.5,18.9,10.2,16.2c-0.2-2.1-4.7-12.2-4.7-12.2L530,106.5z"/>
			</g>
			<g>
				<path class="st9" d="M537.9,107.7c-0.2,0.5-0.4,1.1-0.6,1.7c-2.1-2.6-3.6-5.6-4-6.5C534.2,104.4,537.9,107.7,537.9,107.7z"/>
			</g>
			<g>
				<polygon class="st10" points="537.9,153.3 514.6,167.4 514.2,164.3 				"/>
			</g>
		</g>
		<g>
			<g>
				<g>
					<path class="st11" d="M474.2,144.5c0,0,3.1,23.6-14,41.8c-17.1,18.2-55.6,11.7-55.6,11.7s6.4-21.5,20.3-30.3
						C438.9,158.8,466.4,155.8,474.2,144.5z"/>
				</g>
			</g>
		</g>
		<g>
			<g>
				<g>
					<path class="st12" d="M454.4,99.7c0,0,14.1,26.5,2,55.5c-12.1,29-60.4,38.4-60.4,38.4s-2-28.1,10.6-44.7
						C419.1,132.2,450.1,116.5,454.4,99.7z"/>
				</g>
			</g>
		</g>
		<g>
			<g>
				<g>
					<polygon class="st13" points="162.2,254.6 143.9,226.1 153.2,230.3 					"/>
				</g>
			</g>
			<g>
				<g>
					<polygon class="st14" points="162.2,254.6 161.1,237.4 154.4,233.7 					"/>
				</g>
			</g>
			<g>
				<g>
					<polygon class="st15" points="148.1,232.7 145.9,235.7 162.2,254.6 					"/>
				</g>
			</g>
		</g>
		<g>
			<path class="st16" d="M565.5,182.9v169.7c0,8.6-7,15.5-15.5,15.5H324c-8.6,0-15.5-7-15.5-15.5V182.9c0-8.6,7-15.5,15.5-15.5h226
				C558.5,167.4,565.5,174.3,565.5,182.9z"/>
		</g>
		<g>
			<path class="st17" d="M565.5,182.9v4.4H308.4v-4.4c0-8.6,7-15.5,15.5-15.5h226C558.5,167.4,565.5,174.3,565.5,182.9z"/>
		</g>
		<g>
			<path class="st18" d="M410.7,245.1H337c-3,0-5.4-2.4-5.4-5.4v-20.2c0-3,2.4-5.4,5.4-5.4h73.7c3,0,5.4,2.4,5.4,5.4v20.2
				C416.2,242.7,413.7,245.1,410.7,245.1z"/>
		</g>
		<g>
			<path class="st19" d="M410.2,286.8h-72.5c-3.6,0-6.5-2.9-6.5-6.5v-19c0-3.6,2.9-6.5,6.5-6.5h72.5c3.6,0,6.5,2.9,6.5,6.5v19
				C416.7,283.9,413.7,286.8,410.2,286.8z M337.6,255.8c-3,0-5.5,2.5-5.5,5.5v19c0,3,2.5,5.5,5.5,5.5h72.5c3,0,5.5-2.5,5.5-5.5v-19
				c0-3-2.5-5.5-5.5-5.5H337.6z"/>
		</g>
		<g>
			<path class="st19" d="M502.6,301.5h-66c-0.8,0-1.4-0.6-1.4-1.4v-2.2c0-0.8,0.6-1.4,1.4-1.4h66c0.8,0,1.4,0.6,1.4,1.4v2.2
				C504,300.8,503.4,301.5,502.6,301.5z"/>
		</g>
		<g>
			<path class="st19" d="M502.6,319.6h-66c-0.8,0-1.4-0.6-1.4-1.4v-2.2c0-0.8,0.6-1.4,1.4-1.4h66c0.8,0,1.4,0.6,1.4,1.4v2.2
				C504,319,503.4,319.6,502.6,319.6z"/>
		</g>
		<g>
			<path class="st19" d="M533.9,286.8h-90.2c-5,0-9-4.1-9-9v-55.1c0-5,4.1-9,9-9h90.2c5,0,9,4.1,9,9v55.1
				C543,282.7,538.9,286.8,533.9,286.8z M443.7,214.6c-4.4,0-8,3.6-8,8v55.1c0,4.4,3.6,8,8,8h90.2c4.4,0,8-3.6,8-8v-55.1
				c0-4.4-3.6-8-8-8H443.7z"/>
		</g>
		<g>
			<g>
				<path class="st19" d="M530.1,303l-5.7-5c-0.5-0.4-0.5-1.1-0.1-1.6c0.4-0.5,1.1-0.5,1.6-0.1l4,3.5l5.8-6.4
					c0.4-0.5,1.1-0.5,1.6-0.1c0.5,0.4,0.5,1.1,0.1,1.6L530.1,303z"/>
			</g>
		</g>
		<g>
			<g>
				<path class="st19" d="M530.1,322.3l-5.7-5c-0.5-0.4-0.5-1.1-0.1-1.6c0.4-0.5,1.1-0.5,1.6-0.1l4,3.5l5.8-6.4
					c0.4-0.5,1.1-0.5,1.6-0.1c0.5,0.4,0.5,1.1,0.1,1.6L530.1,322.3z"/>
			</g>
		</g>
		<g>
			<path class="st19" d="M502.6,338.9h-66c-0.8,0-1.4-0.6-1.4-1.4v-2.2c0-0.8,0.6-1.4,1.4-1.4h66c0.8,0,1.4,0.6,1.4,1.4v2.2
				C504,338.3,503.4,338.9,502.6,338.9z"/>
		</g>
		<g>
			<g>
				<path class="st19" d="M530.1,341.6l-5.7-5c-0.5-0.4-0.5-1.1-0.1-1.6c0.4-0.5,1.1-0.5,1.6-0.1l4,3.5l5.8-6.4
					c0.4-0.5,1.1-0.5,1.6-0.1c0.5,0.4,0.5,1.1,0.1,1.6L530.1,341.6z"/>
			</g>
		</g>
		<path class="st20" d="M356.8,229.7c0-0.2,0-0.3,0-0.4c0-0.1,0-0.1,0-0.2c0-0.9-0.2-1.8-0.5-2.6c-1.2-3.4-4.5-5.9-8.4-5.9
			c-2.1,0-4,0.7-5.5,1.8c-2.2,1.6-3.6,4.2-3.6,7.1c-0.1,4,2.5,7.4,6.1,8.7l0,0v0c0.9,0.3,1.8,0.5,2.8,0.5c1.1,0,2.2-0.2,3.1-0.5
			c1.6-0.6,3.1-1.6,4.1-3c1-1.3,1.7-2.9,1.8-4.7C356.8,230.2,356.8,229.9,356.8,229.7z M341,229.5c0-2.2,1.1-4.1,2.7-5.3
			c1.2-0.9,2.6-1.4,4.2-1.4c2.9,0,5.3,1.9,6.3,4.4l0,0c0.2,0.6,0.4,1.3,0.4,1.9h0c0,0.1,0,0.3,0,0.5c0,0.7-0.1,1.3-0.3,1.9
			c-0.2,0.8-0.6,1.5-1.1,2.2c-0.2,0.2-0.4,0.5-0.6,0.7c-1.2,1.2-3,2-4.8,2c-0.5,0-1-0.1-1.4-0.2c-0.2,0-0.4-0.1-0.6-0.2
			C342.9,235.1,341,232.5,341,229.5z"/>
		<g>
			<g class="st21">
				<path class="st22" d="M333.3,100h-138c-6.4,0-11.6,5.2-11.6,11.6v81.2c0,6.4,5.2,11.6,11.6,11.6h138c6.4,0,11.6-5.2,11.6-11.6
					v-81.2C344.8,105.2,339.6,100,333.3,100z"/>
			</g>
			<g>
				<g>
					<g>
						<path class="st23" d="M213.9,160.6c2.3,0.8,4.9,1.2,7.5,1.3c7.9,0.1,15-3.6,19.5-9.4c3.1-4,5-9.1,5.1-14.5c0-0.5,0-1.1,0-1.6
							c-0.1-2.4-0.6-4.8-1.4-7c-3.3-9.2-12.1-15.8-22.5-16c-5.6-0.1-10.8,1.8-14.9,4.9c-5.8,4.4-9.6,11.3-9.7,19.1
							C197.3,148.1,204.2,157.3,213.9,160.6z M203.5,137.4c0.1-5.8,2.9-10.9,7.2-14.2c3.1-2.4,7-3.8,11.3-3.7
							c7.8,0.1,14.3,5.1,16.9,12l0,0c0.6,1.6,1,3.4,1.1,5.2c0,0.4,0,0.8,0,1.2c-0.1,4.1-1.5,7.9-3.8,10.9c-3.4,4.4-8.7,7.1-14.6,7
							c-2,0-3.8-0.4-5.6-1C208.6,152.4,203.4,145.5,203.5,137.4z"/>
					</g>
				</g>
				<g>
					<g>
						<path class="st18" d="M236,148.8l4.8,3.7c-4.5,5.8-11.6,9.5-19.5,9.4c-2.6,0-5.1-0.5-7.5-1.3l1.9-5.7c1.8,0.6,3.6,0.9,5.6,1
							C227.4,155.9,232.7,153.1,236,148.8z"/>
					</g>
				</g>
				<path class="st24" d="M244.5,129.3l-5.7,2.1l0,0c0.8,2.1,1.1,4.3,1.1,6.4c-0.1,4.1-1.5,7.9-3.8,10.9l4.8,3.7
					c3.1-4,5-9.1,5.1-14.5C246,135,245.5,132.1,244.5,129.3z"/>
				<g>
					<g>
						<path class="st25" d="M207.1,118.3c4.1-3.1,9.3-4.9,14.9-4.9c10.4,0.1,19.1,6.8,22.5,16l-5.7,2.1l0,0
							c-2.5-6.9-9.1-11.9-16.9-12c-4.2-0.1-8.1,1.3-11.3,3.7L207.1,118.3z"/>
					</g>
				</g>
			</g>
			<g>
				<path class="st24" d="M320.1,190.2h-48.3c-5.6,0-10.2-4.6-10.2-10.2v-56.5c0-5.6,4.6-10.2,10.2-10.2h48.3
					c5.6,0,10.2,4.6,10.2,10.2V180C330.3,185.6,325.7,190.2,320.1,190.2z"/>
			</g>
			<g>
				<path class="st26" d="M246,177.9h-45.4c-1.3,0-2.3-1-2.3-2.3v-0.8c0-1.3,1-2.3,2.3-2.3H246c1.3,0,2.3,1,2.3,2.3v0.8
					C248.3,176.9,247.2,177.9,246,177.9z"/>
			</g>
			<g>
				<path class="st26" d="M246,190.2h-45.4c-1.3,0-2.3-1-2.3-2.3v-0.8c0-1.3,1-2.3,2.3-2.3H246c1.3,0,2.3,1,2.3,2.3v0.8
					C248.3,189.2,247.2,190.2,246,190.2z"/>
			</g>
		</g>
		<g class="st27">
			<path class="st18" d="M588.7,283.2h-91.9c-4.3,0-7.7-3.5-7.7-7.7v-56.7c0-4.3,3.5-7.7,7.7-7.7h91.9c4.3,0,7.7,3.5,7.7,7.7v56.7
				C596.4,279.7,592.9,283.2,588.7,283.2z"/>
		</g>
		<g>
			<path class="st20" d="M533,250.2h-30.2c-1.6,0-2.9-1.3-2.9-2.9v-24.8c0-1.6,1.3-2.9,2.9-2.9H533c1.6,0,2.9,1.3,2.9,2.9v24.8
				C535.9,248.9,534.6,250.2,533,250.2z"/>
		</g>
		<g>
			<path class="st20" d="M586.7,227.8h-43c-0.9,0-1.7-0.8-1.7-1.7v-4.7c0-0.9,0.8-1.7,1.7-1.7h43c0.9,0,1.7,0.8,1.7,1.7v4.7
				C588.4,227,587.6,227.8,586.7,227.8z"/>
		</g>
		<g>
			<path class="st20" d="M586.7,240.5h-43c-0.9,0-1.7-0.8-1.7-1.7v-4.7c0-0.9,0.8-1.7,1.7-1.7h43c0.9,0,1.7,0.8,1.7,1.7v4.7
				C588.4,239.8,587.6,240.5,586.7,240.5z"/>
		</g>
		<g>
			<path class="st20" d="M586.8,273.3h-16.8c-0.9,0-1.6-0.7-1.6-1.6v-1.1c0-0.9,0.7-1.6,1.6-1.6h16.8c0.9,0,1.6,0.7,1.6,1.6v1.1
				C588.4,272.6,587.7,273.3,586.8,273.3z"/>
		</g>
		<g>
			<path class="st2" d="M575.7,300.7c0,0-1.7-3,1-11c2.6-7.8,11.7-7.1,14.6-2.1c2.9,5,1.9,8.1-2.3,13.7
				C584.8,306.9,577.5,303.3,575.7,300.7z"/>
		</g>
		<g>
			<path class="st2" d="M596.9,438.9c0,0,0.5,3.3,0.5,3.8c0.1,0.5,5-0.3,5-0.3l0.4-3.9C602.8,438.5,597.5,438.5,596.9,438.9z"/>
		</g>
		<g>
			<path class="st28" d="M597.3,442.3c0,0-1.6,2-3.1,2.9c-1.5,0.9-3.9,1.2-4.8,2.1c-0.6,0.6-2.4,3.4,3.9,3.4c6.3-0.1,9.3,0.4,10-0.7
				c0.7-1.1-1-7.9-1-7.9S600.9,442.5,597.3,442.3z"/>
		</g>
		<g>
			<path class="st2" d="M562.6,438.9c0,0,0.5,3.3,0.5,3.8c0.1,0.5,5-0.3,5-0.3l0.4-3.9C568.5,438.5,563.2,438.5,562.6,438.9z"/>
		</g>
		<g>
			<path class="st29" d="M563,442.3c0,0-1.6,2-3.1,2.9c-1.5,0.9-7.1,1.6-8,2.5c-0.6,0.6-1.7,3.3,7.1,3c6.3-0.2,9.3,0.4,10-0.7
				c0.7-1.1-1-7.9-1-7.9S566.2,442.4,563,442.3z"/>
		</g>
		<g>
			<path class="st30" d="M595.2,356.8c0,0,2.5,7.9,2.2,14.7c-0.3,6.8,1.3,14.2,2,21.3c0.8,7.9,3.8,26.7,3.9,30.9
				c0.1,4.2-0.5,17.8-0.5,17.8l-6.1,0.1c0,0-5.2-32.8-6.5-36.1c-1.3-3.3-8-27.2-8.2-29.8C581.8,373,595.2,356.8,595.2,356.8z"/>
		</g>
		<g>
			<path class="st31" d="M569.7,356c0,0-3.7,20.9-4.2,25c-0.4,4.2-0.7,20.1-1,22.7c-0.2,2.6-1.5,34-2.7,37.9h6.9c0,0,7-22.8,7-33.6
				c0-10.8,4.7-23.5,7.7-30.6c3-7.1,9.9-7.3,11.7-20.5C595.2,356.8,572.2,351.8,569.7,356z"/>
		</g>
		<g>
			<path class="st2" d="M578.2,302.8c0,0,0.8,2.2,0,3.9c-0.8,1.6,9.9,0.6,9.9,0.6s-0.5-3.3,0.9-6
				C590.4,298.6,578.2,302.8,578.2,302.8z"/>
		</g>
		<g>
			<path class="st32" d="M595.7,358.5c0,0-3.8,3.9-26.3-0.6l0.3-1.9l25.6,1L595.7,358.5z"/>
		</g>
		<g>
			<path class="st2" d="M576.6,307.2c0,0-3.9,0.4-5.1,0.6c-1.1,0.2-8.7-1.4-10.2-1.5c-1.6-0.2-8.2-4.7-8.4-5.2
				c-0.2-0.5-4-10.2-4.2-12.3c-0.2-2.1-3.7-1-3.4,0.4c0.6,2.7,1.3,9.2,1.7,11.1c0.4,2,1.6,6.7,2.2,7.2c0.6,0.6,6.6,5.1,12.4,7
				c5.8,1.9,10.2,4.8,10.2,4.8h28.8c0,0,11.2-16,11.4-18.4c0.2-2.4-7.8-18.4-9.4-20.4c-1.6-2-3.9,0.7-3.9,0.7s4.8,14.1,5.5,16.1
				c0.6,2-5.6,10.8-7.3,10.9c-1.7,0-6.1-0.5-8.1-0.6c-2-0.1-4-0.9-4-0.9L576.6,307.2z"/>
		</g>
		<g>
			<path class="st33" d="M564.2,317.9c0,0,3.5,2.3,3.8,6.4c0.3,4,1.6,10.4,2.2,12.5c0.6,2.2-0.6,17.9-0.7,19
				c-0.2,1.1,22.2,3.8,25.7,1.1c0,0,1-14.7,1.4-18.9c0.4-4.2,2.3-14.3,3-15.7c0.6-1.4,8.4-12.3,8.8-13.7c0,0-4-6.4-6.9-6.5
				c0,0-4.6,5.4-6.1,5.6c-1.5,0.2-10.7-1.4-10.7-1.5c0,0-1,1.4-6.3-0.2c0,0-6.3,0.7-7.4,0.8c-1.2,0.2-9.9-1.1-9.9-1.1
				s-3.5,5.9-2.9,8.8L564.2,317.9z"/>
		</g>
		<g>
			<path class="st2" d="M548.9,290.1c0,0-0.8-3.7,0.2-4.8c0.5-0.6,1.8-2.2,2-2.5c0.1-0.2,1.5-1,1.5-1.4c0-0.4-1.4-0.9-2.5,0.2
				c-1.2,1.1-1.9,1.3-2.4,1.2c-0.5-0.1-1.2-4.1-1.2-5c-0.1-1-0.4-3.5-1-3.4c-0.6,0.2-0.6,1.3-0.6,1.3s-0.7-2-1.2-1.6
				c-0.5,0.4-0.4,1.3-0.4,1.3s-0.9-1.1-1.1-0.3c-0.2,0.8,0,1.5,0,1.5s-0.9-0.5-1,0.7c-0.1,1.2,0.3,4.9,0.9,6.2
				c0.6,1.3,3.1,4.7,3.4,6C545.6,291,548.9,290.1,548.9,290.1z"/>
		</g>
		<g>
			<path class="st2" d="M599.4,283.5c0,0-2.7-4.5-3.6-4.9c-0.9-0.4-2.2-0.6-3.3-1.4c-1.1-0.8-2.6-1.5-2.5-1.7
				c0.1-0.3,1.4-0.2,2.8,0.5c1.4,0.6,2,0.3,2.2,0c0.1-0.3-0.8-2.6-1.2-3.1c-0.4-0.5-3.5-3.6-3-4.1c0.5-0.5,2.5,1.2,2.8,1.6
				c0,0-1.6-3.3-1-3.5c0.6-0.2,1.8,1,1.8,1s-0.1-2.8,2.9,1.8c0,0-0.6-1.5,0.3-1c0.9,0.5,1.8,3.4,2.1,4.8c0.3,1.4,1.6,6,2.8,7.2
				C603.7,281.7,599.4,283.5,599.4,283.5z"/>
		</g>
		<g>
			<path class="st34" d="M589,301.3c0,0-1.4,0.1-4.4-0.9c-3-1-3.2-6.3-3.9-5.7c-1.3,1.3-2.6,0.4-3.1-0.4c0,0,1.5-1.9,0.8-2.9
				c-0.7-0.9-1.8-1.6-1.8-1.6s2.1-10.2,11.7-5.5C599.6,289.8,589,301.3,589,301.3z"/>
		</g>
		<g>
			<path class="st35" d="M578.2,306.7l0.3-1.5c0,0,6.1-0.1,9.5,0.4l0.4,1.8C588.4,307.3,584.1,309.3,578.2,306.7z"/>
		</g>
		<g>
			<path class="st2" d="M579.7,293.4c0.6-0.9,2.6-1.5,2.9,1.1c0.2,2-3.7,4.2-3.7,2.4C578.8,295,579.4,294.1,579.7,293.4z"/>
		</g>
		<g>
			<path class="st36" d="M548.7,289.2c0,0-2.2,0.1-3.3,1c0,0-0.1,0.6,0.2,1.1c0,0,1.9-0.9,3.4-1.1C549,290.3,549,289.5,548.7,289.2z
				"/>
		</g>
		<g>
			<path class="st34" d="M546.1,289.8c-0.2,0.5,0,1,0.5,1.2c0.5,0.2,1,0,1.2-0.5c0.2-0.5,0-1-0.5-1.2
				C546.9,289.1,546.3,289.3,546.1,289.8z"/>
		</g>
		<g class="st27">
			<path class="st23" d="M366.7,290.3H293c-3,0-5.4-2.4-5.4-5.4v-20.2c0-3,2.4-5.4,5.4-5.4h73.7c3,0,5.4,2.4,5.4,5.4v20.2
				C372.1,287.8,369.7,290.3,366.7,290.3z"/>
		</g>
		<g>
			<g>
				<g>
					<g>
						<path class="st2" d="M221.8,350.7c0,0,0.3,1.8,1.4,2.1c0.9,0.2,1.8,1.1,2.1,1.4c0.4,0.4,2,1.1,1.6,1.6c-0.5,0.5-2.8-1-3.3-1.3
							c-0.5-0.2,0.2,2.3,0,2.9c-0.2,0.6-4.5,1.6-4.8-0.2c-0.3-1.8,0.5-3.9,0.4-4.2c-0.1-0.3-0.3-1.3-0.3-1.3L221.8,350.7z"/>
					</g>
				</g>
			</g>
		</g>
		<g>
			<g>
				<g>
					<g>
						<path class="st2" d="M223.6,357c0,0,0.7,5.6,0.4,6c-0.3,0.4-0.6,0.4-0.7-0.1c-0.1-0.5-0.8-5.4-0.8-5.4s-0.3,6.7-0.5,7.1
							c-0.1,0.2-0.7,0.3-0.7,0c-0.1-0.3-0.1-6.9-0.1-6.9s-0.3,6.3-0.5,6.5c-0.2,0.2-0.7,0.2-0.8-0.3c0-0.5,0-6.3,0-6.3
							s-0.5,4.5-0.8,4.7c-0.2,0.1-0.7,0.2-0.5-1c0.2-1.2,0.3-4,0.3-4L223.6,357z"/>
					</g>
				</g>
			</g>
		</g>
		<g>
			<path class="st2" d="M281.5,282.5c0,0,0.9-1.7,1.2-3.1c0.3-1.4,2-3.2,2.7-3.6c0.7-0.4,5.7-4,6.3-4c0.6,0,0.2,1.1-0.3,1.4
				c-0.5,0.3-4.6,3.5-4.6,3.5s5.1-3.5,5.6-3.4c0.5,0.1,0.9,0.8,0.3,1.5c0,0,1.2,0.8,0,1.7l-2.4,1.9c0,0,1.4-0.7,0.9,0.4
				c-0.3,0.6-3.2,2.4-3.7,2.9c-0.5,0.5-4.2,2.3-4.2,2.3L281.5,282.5z"/>
		</g>
		<g>
			<path class="st2" d="M251.8,438.3h1.3c0,0-0.4-4.7,0.7-4.8c1.2,0,4,3.9,5.8,4.5c1.7,0.6,10.6,1.1,10.6-0.5c0-1.6-3.4-2.3-4.5-2.7
				c-1.1-0.5-6.3-5.5-7.2-6.1c-0.9-0.6-2.5-3.7-2.5-3.7h-4.7c0,0-0.5,2.6-0.8,4.7c-0.1,0.8-0.2,1.5-0.2,1.9
				C250.3,433.3,251.8,438.3,251.8,438.3z"/>
		</g>
		<g>
			<path class="st2" d="M230,437.3h1v-4.4c0.9,0.1,3.8,2.8,4.7,3.7c0.9,0.8,2.2,0.8,6,1c3.8,0.2,4.2-2,3.6-2.8
				c-0.6-0.8-2.6-1.1-3.6-1.6c-1-0.5-5-5-6.1-6.1c-1.1-1.1-1.7-4.1-1.7-4.1l-4.5,0.4c0,0,0,2.8-0.5,5.2v0c0,0,0,0,0,0
				c0,0.2-0.1,0.4-0.1,0.6C228.2,431.5,230,437.3,230,437.3z"/>
		</g>
		<g>
			<path class="st2" d="M240.5,289.7c0,0-2.2,4.6-1,8.4c0,0-6.7-0.9-6.9-1.7c-0.2-0.8,0.8-7.8,0.1-10
				C231.8,284.2,240.5,289.7,240.5,289.7z"/>
		</g>
		<g>
			<path class="st37" d="M240.6,296.5c0,0,3.9,1.7,5.7,2.2c1.8,0.5,5.4,2.5,4.6,9c-0.8,6.5-2.3,12.1-2.9,14.9
				c-0.6,2.8-0.9,9.9-0.5,13.5c0,0-9.7,1.7-20.8-1.5c0,0,2.4-5.8,2.5-7.3c0.1-1.5-5.6-14.6-5.8-16.6c-0.2-2-0.9-10.9,2.3-12.6
				c3.2-1.7,5.6-1.3,6.9-2.1C234,295.2,238.8,295.8,240.6,296.5z"/>
		</g>
		<g>
			<path class="st37" d="M240.6,306.7c0,0-1.5-7.8,6.1-7.8c6.7,0,13-1.3,14-1.8c1.1-0.6,5.1-2.6,7.3-4.8c2.1-2.2,13.7-11,13.7-11
				l3.2,3.2c0,0-12.2,13.3-14.2,14.6c-2,1.3-18.5,10.5-20.6,10.8C248,310.2,242.1,311.8,240.6,306.7z"/>
		</g>
		<g>
			<path class="st37" d="M216.8,330.8c-0.2,2.8,1.3,21.8,1.3,21.8l5.4,0.6c0,0-0.4-18.8-0.7-23.1c-0.1-1.3,0.2-3.2,0.7-5.4v0
				c0.3-1.3,0.7-2.8,1-4.1c1-3.7,2.1-7,2.1-7s6-15.7-1.5-15.1c0,0-2.8,2.9-4,7.7c-1.2,4.8-2.6,11.9-2.6,14.7
				C218.4,323.9,216.9,328.8,216.8,330.8z"/>
		</g>
		<g>
			<path class="st38" d="M246.2,335.9c0,0,1.7,4.1,1.9,5.2c0.2,1,5.6,14.6,6,18.6c0.4,4,1.5,14.7,1.9,16.3c0.4,1.5-0.9,8.4-1.1,9.9
				c-0.2,1.5-0.1,26.6,1.7,39c0,0-4.3,1.8-7.6,0c0,0-5.4-19.3-5.1-30.5c0.3-11.2,1.7-15.9,0-20.4c-1.7-4.5-11.9-18-12.9-19.4
				c-1-1.4-7.4-9.4-1.4-17.9C235.8,328.1,246.2,335.9,246.2,335.9z"/>
		</g>
		<g>
			<path class="st38" d="M225.3,372.6c0.5,3.6,0,8.3-1.2,21.4c-1.1,13.1,2,29,2,29c3.9,1.3,8.4,0,8.4,0c-0.1-0.9,0-31.9,0-34.7
				s0.8-5.9,1-9.1c0.1-2.2,1.1-6.1,2.3-10.2c0.3-1.2,0.7-2.4,1-3.6c0,0,0,0,0,0c0.2-0.7,0.4-1.3,0.6-2c1.6-5.5,3.7-26.9,3.7-26.9
				s-11.9-9.6-17.7-0.6c-5.8,9-2.8,15.6-2.6,16.7C223,353.7,224.7,369,225.3,372.6z"/>
		</g>
		<g>
			<path class="st37" d="M248.3,319.8c0,0-1.1,17,2.1,26.5c0,0-12.5,2.1-28.5-3.3c0,0,4.4-11.4,4.2-13.2c-0.2-1.8-4.8-22.5-2.6-27.2
				C225.7,298,247.5,304.6,248.3,319.8z"/>
		</g>
		<g>
			<path class="st2" d="M238,270.8c2.9-0.1,10.2,1,8.8,12c-1.4,11-5.3,10.1-9.3,8.6c-3.9-1.5-8.1-10.4-8-12.7
				C229.8,276.5,229.8,271.1,238,270.8z"/>
		</g>
		<g>
			<path class="st34" d="M246.8,277.7c0,0-3.5,3.9-6.8,4.6c0,0-2.8,4.3-7.2,5.1c0,0-8.6-9.5-0.3-15.6
				C240.7,265.8,247.1,274.3,246.8,277.7z"/>
		</g>
		<g>
			<path class="st2" d="M240.7,280.8c-0.1-0.6-1.3-1.9-2.5-0.6c-1.1,1.3,0.5,4.7,1.2,4.7C240.2,285,241,283.2,240.7,280.8z"/>
		</g>
		<g>
			<path class="st39" d="M230.2,353.3c0.1,0.2,6,13.3,7.5,15.6c0.3-1.2,0.7-2.4,1-3.6c0,0,0,0,0,0S230.4,353.6,230.2,353.3z"/>
		</g>
		<g>
			<path class="st40" d="M223.1,311.3c0,0-0.4,8.3,0.3,13.5c0.3-1.3,0.7-2.8,1-4.1C224.4,320.5,223.3,312.6,223.1,311.3z"/>
		</g>
		<g>
			<path class="st34" d="M235.8,270.1c0,0-10-0.2-8.5,16.9c1.2,13.2-3.7,19.7-3,21.6c0.7,1.9,3,5.1,8.3,2.2c5.2-2.9,1.8-18,4.6-23.9
				c2.8-5.9,9-8.6,9-8.6S245.1,268.4,235.8,270.1z"/>
		</g>
		<g>
			<path class="st37" d="M249.3,304.8c0,0,2.3,8.1,2.8,10.1c0.7,2.5-2.6,7.2-5.5,5.8C243.8,319.2,249.3,304.8,249.3,304.8z"/>
		</g>
		<g>
			<path class="st41" d="M230,437.3h1v-4.4c0.9,0.1,3.8,2.8,4.7,3.7c0.9,0.8,2.2,0.8,6,1c3.8,0.2,4.2-2,3.6-2.8
				c-0.6-0.8-2.6-1.1-3.6-1.6c-4.1,0.2-9.1-5.5-11.5-5.5c-1.3,0-1.3,0.7-1.3,0.8v0c0,0,0,0,0,0c0,0.2-0.1,0.4-0.1,0.6
				C228.2,431.5,230,437.3,230,437.3z"/>
		</g>
		<g>
			<path class="st41" d="M251.8,438.3h1.3c0,0-0.4-4.7,0.7-4.8c1.2,0,4,3.9,5.8,4.5c1.7,0.6,10.6,1.1,10.6-0.5
				c0-1.6-3.4-2.3-4.5-2.7c-3.6,0-9.6-4-11.4-4.8c-1.8-0.8-3.8-0.3-3.8-0.3c-0.1,0.8-0.2,1.5-0.2,1.9
				C250.3,433.3,251.8,438.3,251.8,438.3z"/>
		</g>
		<g>
			<g>
				<path class="st42" d="M506.8,97.3l-0.3-1c2.2-0.4,3.4-0.8,3.4-0.8l0.5,0.9C510.3,96.5,509.1,96.8,506.8,97.3z"/>
			</g>
			<g>
				<path class="st42" d="M143.8,215.8c-0.8-1.7-1.5-3.6-2.2-5.4l1.2-0.3c0.7,1.9,1.4,3.7,2.2,5.4L143.8,215.8z M139.8,204.9
					c-0.5-1.8-1-3.7-1.5-5.6l1.2-0.2c0.4,1.9,0.9,3.7,1.5,5.5L139.8,204.9z M137.1,193.6c-0.3-1.9-0.7-3.8-0.9-5.7l1.3-0.1
					c0.3,1.9,0.6,3.8,0.9,5.6L137.1,193.6z M135.5,182.3c-0.2-1.9-0.3-3.8-0.4-5.7l1.3,0c0.1,1.9,0.2,3.8,0.4,5.7L135.5,182.3z
					 M136.3,170.9l-1.3,0c0-1.9,0-3.8,0.1-5.7l1.3,0C136.3,167.1,136.3,169,136.3,170.9z M136.8,159.5l-1.3-0.1
					c0.2-1.9,0.4-3.8,0.7-5.7l1.3,0.1C137.2,155.8,137,157.7,136.8,159.5z M138.4,148.3l-1.2-0.1c0.4-1.9,0.8-3.8,1.2-5.6l1.2,0.2
					C139.1,144.5,138.7,146.4,138.4,148.3z M141,137.1l-1.2-0.2c0.5-1.9,1.2-3.7,1.8-5.5l1.2,0.3C142.2,133.4,141.6,135.3,141,137.1
					z M144.9,126.2l-1.2-0.3c0.8-1.8,1.6-3.6,2.4-5.4l1.2,0.4C146.5,122.6,145.7,124.4,144.9,126.2z M150,115.6l-1.2-0.4
					c1-1.7,2-3.5,3.1-5.2l1.1,0.5C152,112.2,151,113.9,150,115.6z M156.4,105.5l-1.1-0.5c1.2-1.7,2.5-3.3,3.7-4.9l1.1,0.5
					C158.9,102.2,157.6,103.9,156.4,105.5z M492.5,98.5l0-1c2.4,0,4.8-0.1,7.1-0.3l0.1,1C497.4,98.4,495,98.5,492.5,98.5z
					 M485.3,98.4c-2.3-0.1-4.8-0.3-7.2-0.6l0.2-1c2.4,0.3,4.8,0.4,7.1,0.6L485.3,98.4z M471,96.9c-2.3-0.4-4.7-0.8-7-1.3l0.3-1
					c2.3,0.5,4.7,0.9,6.9,1.3L471,96.9z M164.2,96l-1-0.6c1.4-1.5,2.9-3.1,4.4-4.5l1,0.6C167.1,93,165.6,94.5,164.2,96z M457.1,94.1
					c-2.2-0.6-4.5-1.2-6.8-1.8l0.4-0.9c2.3,0.7,4.5,1.3,6.8,1.8L457.1,94.1z M443.6,90.2c-2.2-0.7-4.4-1.5-6.6-2.3l0.5-0.9
					c2.2,0.8,4.4,1.6,6.5,2.3L443.6,90.2z M173.3,87.3l-0.9-0.7c1.6-1.4,3.3-2.8,5.1-4.1l0.9,0.7C176.6,84.6,174.9,85.9,173.3,87.3z
					 M430.5,85.4c-2.1-0.8-4.2-1.7-6.4-2.7l0.6-0.9c2.1,0.9,4.2,1.8,6.3,2.6L430.5,85.4z M417.9,79.9c-0.8-0.4-1.6-0.8-2.5-1.2
					c-1.2-0.6-2.4-1.1-3.7-1.7l0.6-0.9c1.3,0.6,2.5,1.2,3.7,1.7c0.8,0.4,1.7,0.8,2.5,1.2L417.9,79.9z M183.6,79.5l-0.8-0.8
					c1.3-0.8,2.5-1.7,3.9-2.5c0.6-0.4,1.2-0.7,1.8-1.1l0.8,0.8c-0.6,0.4-1.2,0.7-1.8,1.1C186.1,77.8,184.8,78.7,183.6,79.5z
					 M405.5,74.3c-2.1-0.9-4.2-1.7-6.4-2.6l0.6-0.9c2.2,0.9,4.3,1.7,6.4,2.6L405.5,74.3z M194.9,72.7l-0.7-0.8c2-1.1,4-2.1,6-3.1
					l0.7,0.8C198.9,70.5,196.9,71.6,194.9,72.7z M392.7,69.3c-2.1-0.8-4.3-1.6-6.5-2.3l0.5-0.9c2.2,0.7,4.4,1.5,6.6,2.3L392.7,69.3z
					 M207,66.6l-0.6-0.9c2.1-0.9,4.2-1.8,6.3-2.7l0.6,0.9C211.2,64.8,209.1,65.7,207,66.6z M379.5,64.8c-2.2-0.7-4.4-1.4-6.7-2
					l0.4-0.9c2.2,0.7,4.5,1.3,6.7,2L379.5,64.8z M219.7,61.5l-0.5-0.9c2.2-0.8,4.4-1.5,6.6-2.2l0.5,0.9
					C224.1,60,221.9,60.8,219.7,61.5z M366.1,60.9c-2.3-0.6-4.5-1.2-6.8-1.8l0.4-1c2.3,0.6,4.6,1.2,6.8,1.8L366.1,60.9z M352.5,57.5
					c-2.3-0.5-4.6-1-6.9-1.5l0.3-1c2.3,0.5,4.6,1,6.9,1.5L352.5,57.5z M233,57.3l-0.4-0.9c2.3-0.6,4.6-1.2,6.8-1.7l0.4,1
					C237.5,56.2,235.2,56.7,233,57.3z M338.6,54.7c-2.3-0.4-4.7-0.8-7-1.2l0.2-1c2.3,0.4,4.7,0.8,7,1.2L338.6,54.7z M246.7,54.1
					l-0.3-1c2.3-0.5,4.7-0.9,7-1.3l0.3,1C251.3,53.3,249,53.7,246.7,54.1z M324.6,52.5c-2.4-0.3-4.7-0.6-7.1-0.8l0.2-1
					c2.3,0.3,4.7,0.5,7.1,0.8L324.6,52.5z M260.6,51.9l-0.2-1c2.3-0.3,4.7-0.6,7.1-0.8l0.1,1C265.4,51.3,263,51.6,260.6,51.9z
					 M310.4,51c-2.4-0.2-4.8-0.4-7.1-0.5l0.1-1c2.4,0.1,4.8,0.3,7.2,0.5L310.4,51z M274.8,50.6l-0.1-1c2.4-0.1,4.8-0.3,7.2-0.3l0,1
					C279.6,50.3,277.2,50.4,274.8,50.6z M296.2,50.2c-2.3-0.1-4.6-0.1-6.8-0.1h-0.3l0-1l0.3,0c2.3,0,4.6,0,6.9,0.1L296.2,50.2z"/>
			</g>
			<g>
				<path class="st42" d="M148,223.8c-0.5-0.8-1.1-1.7-1.6-2.6l1.1-0.4c0.5,0.9,1,1.8,1.5,2.6L148,223.8z"/>
			</g>
		</g>
		<g>
			<g>
				<rect x="325.6" y="311.9" class="st19" width="7.7" height="28"/>
			</g>
		</g>
		<g>
			<g>
				<rect x="336.6" y="309.1" class="st19" width="7.7" height="30.8"/>
			</g>
		</g>
		<g>
			<g>
				<rect x="347.7" y="315" class="st19" width="7.7" height="24.9"/>
			</g>
		</g>
		<g>
			<g>
				<rect x="358.8" y="303.4" class="st19" width="7.7" height="36.5"/>
			</g>
		</g>
		<g>
			<g>
				<rect x="370.4" y="307.1" class="st19" width="7.7" height="32.8"/>
			</g>
		</g>
		<g>
			<g>
				<rect x="382.2" y="311.9" class="st19" width="7.7" height="28"/>
			</g>
		</g>
		<g>
			<g>
				<rect x="393.2" y="309.1" class="st19" width="7.7" height="30.8"/>
			</g>
		</g>
		<g>
			<g>
				<rect x="404.3" y="315" class="st19" width="7.7" height="24.9"/>
			</g>
		</g>
		<path class="st20" d="M313.8,273.8c0,0,0-0.1,0-0.1c0-0.9-0.2-1.8-0.5-2.6c-1.2-3.4-4.5-5.9-8.4-5.9c-2.1,0-4,0.6-5.5,1.8
			c-2.2,1.6-3.6,4.2-3.6,7.1c-0.1,4,2.5,7.4,6.1,8.7l0,0l0,0c0.9,0.3,1.8,0.5,2.8,0.5c1.1,0,2.2-0.2,3.2-0.6c1.6-0.6,3-1.6,4-2.9
			c1-1.3,1.7-2.9,1.8-4.6c0-0.2,0-0.5,0-0.8C313.8,274.1,313.8,273.9,313.8,273.8z M298,274.1c0-2.2,1.1-4.1,2.7-5.3
			c1.2-0.9,2.6-1.4,4.2-1.4c2.9,0,5.3,1.9,6.3,4.4l0,0c0.2,0.6,0.4,1.3,0.4,1.9h0c0,0.2,0,0.3,0,0.5c0,0.7-0.1,1.3-0.3,1.9
			c-0.2,0.8-0.6,1.5-1.1,2.2c-0.2,0.2-0.4,0.5-0.6,0.7c-1.2,1.2-3,2-4.8,2c-0.5,0-1-0.1-1.5-0.2c-0.2,0-0.4-0.1-0.6-0.2
			C299.9,279.6,298,277.1,298,274.1z"/>
		<g class="st43">
			<path class="st25" d="M513.4,406.6h-61.7c-3.8,0-7-3.1-7-7v-45.2c0-3.8,3.1-7,7-7h61.7c3.8,0,7,3.1,7,7v45.2
				C520.4,403.5,517.3,406.6,513.4,406.6z"/>
		</g>
		<g>
			<path class="st20" d="M511.6,399.5h-27.9c-2.3,0-4.2-1.9-4.2-4.2v-37.4c0-2.3,1.9-4.3,4.3-4.3h27.9c2.3,0,4.2,1.9,4.2,4.3v37.4
				C515.9,397.6,514,399.5,511.6,399.5z"/>
		</g>
		<g>
			<path class="st20" d="M469.5,360.1h-14.4c-1.4,0-2.6-1.2-2.6-2.6v-1.3c0-1.4,1.2-2.6,2.6-2.6h14.4c1.4,0,2.6,1.2,2.6,2.6v1.3
				C472.2,358.9,471,360.1,469.5,360.1z"/>
		</g>
		<g>
			<path class="st20" d="M469.5,372.3h-14.4c-1.4,0-2.6-1.2-2.6-2.6v-1.3c0-1.4,1.2-2.6,2.6-2.6h14.4c1.4,0,2.6,1.2,2.6,2.6v1.3
				C472.2,371.1,471,372.3,469.5,372.3z"/>
		</g>
	</g>
</g>
</svg>
