<svg xmlns="http://www.w3.org/2000/svg" width="40" height="36.406" viewBox="0 0 40 36.406">
  <g id="total-resources" transform="translate(0 -23.001)">
    <path id="Path_5636" data-name="Path 5636" d="M192.719,134.859a5.859,5.859,0,1,0-5.859,5.859A5.866,5.866,0,0,0,192.719,134.859Zm-5.859,3.516a3.516,3.516,0,1,1,3.516-3.516A3.52,3.52,0,0,1,186.859,138.375Z" transform="translate(-166.859 -97.718)" fill="#1884e6"/>
    <path id="Path_5637" data-name="Path 5637" d="M32.277,199.311a4.668,4.668,0,1,0-.956,0,8.133,8.133,0,0,0-3.565,1.049,10.53,10.53,0,0,0-15.512,0,8.145,8.145,0,0,0-3.565-1.049,4.668,4.668,0,1,0-.956,0A8.213,8.213,0,0,0,0,207.5v3.516a1.172,1.172,0,0,0,1.172,1.172H9.453a1.172,1.172,0,0,0,1.172,1.172h18.75a1.172,1.172,0,0,0,1.172-1.172h8.281A1.172,1.172,0,0,0,40,211.016V207.5A8.213,8.213,0,0,0,32.277,199.311Zm-2.8-4.643a2.324,2.324,0,1,1,2.324,2.324A2.327,2.327,0,0,1,29.473,194.668Zm-23.594,0A2.324,2.324,0,1,1,8.2,196.992,2.327,2.327,0,0,1,5.879,194.668ZM2.344,209.844V207.5a5.867,5.867,0,0,1,8.5-5.231c-1.9,3.305-1.27,6.126-1.391,7.575ZM28.2,211.016H11.8V207.5a8.2,8.2,0,1,1,16.406,0Zm9.453-1.172H30.547c-.121-1.443.505-4.269-1.391-7.575a5.868,5.868,0,0,1,8.5,5.232Z" transform="translate(0 -153.953)" fill="#1884e6"/>
    <path id="Path_5638" data-name="Path 5638" d="M198.265,29.689a1.172,1.172,0,0,0,1.657,0L204.609,25a1.172,1.172,0,1,0-1.657-1.657L199.093,27.2,197.5,25.609a1.172,1.172,0,0,0-1.657,1.657Z" transform="translate(-180.226)" fill="#47a3f7"/>
  </g>
</svg>
