<?xml version="1.0" encoding="utf-8"?>
<!-- Generator: Adobe Illustrator 23.0.0, SVG Export Plug-In . SVG Version: 6.00 Build 0)  -->
<svg version="1.1" id="Layer_1" xmlns="http://www.w3.org/2000/svg" xmlns:xlink="http://www.w3.org/1999/xlink" x="0px" y="0px"
	 viewBox="0 0 750 500" style="enable-background:new 0 0 750 500;" xml:space="preserve">
<style type="text/css">
	.st0{fill:none;}
	.st1{fill:url(#SVGID_1_);}
	.st2{fill:url(#SVGID_2_);}
	.st3{fill:url(#SVGID_3_);}
	.st4{fill:#CEE4F4;}
	.st5{fill:#2C4482;}
	.st6{fill:#CBE3F4;}
	.st7{clip-path:url(#SVGID_5_);}
	.st8{fill:#FFFFFF;}
	.st9{fill:none;stroke:#FFC133;stroke-width:1.7765;stroke-miterlimit:10;}
	.st10{fill:#5239FF;}
	.st11{fill:#A8A8A8;}
	.st12{clip-path:url(#SVGID_7_);}
	.st13{opacity:0.63;}
	.st14{fill:#CECECE;}
	.st15{opacity:0.63;clip-path:url(#SVGID_9_);}
	.st16{fill:#969696;}
	.st17{fill:#413E3F;}
	.st18{fill:#AEAEAE;}
	.st19{fill:#444041;}
	.st20{fill:#C4DCF2;}
	.st21{clip-path:url(#SVGID_11_);fill:#DAEAF7;}
	.st22{clip-path:url(#SVGID_13_);fill:#DAEAF7;}
	.st23{fill:#ADADAD;}
	.st24{clip-path:url(#SVGID_15_);fill:#CCCCCC;}
	.st25{fill:#FF3535;}
	.st26{clip-path:url(#SVGID_17_);fill:#DAEAF7;}
	.st27{fill:#FFB49D;}
	.st28{fill:#003A70;}
	.st29{clip-path:url(#SVGID_19_);fill:#F4EAE9;}
	.st30{clip-path:url(#SVGID_21_);fill:#413E3F;}
	.st31{clip-path:url(#SVGID_23_);fill:#F4EAE9;}
	.st32{clip-path:url(#SVGID_25_);fill:#413E3F;}
	.st33{fill:#EF9884;}
	.st34{fill:#FFC166;}
	.st35{fill:#FFB64D;}
</style>
<g>
	<rect class="st0" width="750" height="500"/>
	<g id="OBJECTS">
		
			<linearGradient id="SVGID_1_" gradientUnits="userSpaceOnUse" x1="379.195" y1="58.4168" x2="379.195" y2="383.6101" gradientTransform="matrix(1 0 0 -1 0 502)">
			<stop  offset="0" style="stop-color:#F7FBFE"/>
			<stop  offset="0.9968" style="stop-color:#E1F1FB"/>
		</linearGradient>
		<path class="st1" d="M111.4,443.6v-70.1h37.2V396h11.7V279.7h31.3v47.6l12.7-17.2v-160c0,0,49-5.3,49,0c0,5.3,0,26.4,0,26.4h20.6
			v39.7H318v120.3h20.6V118.4h35.3v63.5H412v4v115h16.6v-156h34.3v119l32.3,43.6v-74l18.6,25.1v91.2h35.3V245.3h39.2v128.2H647v64.8
			L111.4,443.6z"/>
		
			<linearGradient id="SVGID_2_" gradientUnits="userSpaceOnUse" x1="398.4536" y1="193.5405" x2="398.4536" y2="214.4676" gradientTransform="matrix(1 0 0 -1 0 502)">
			<stop  offset="0" style="stop-color:#F7FBFE"/>
			<stop  offset="0.9968" style="stop-color:#E1F1FB"/>
		</linearGradient>
		<path class="st2" d="M436,308.5h-75.1c0,0,14.3-14.3,29.8-7.2S425.3,262,436,308.5z"/>
		
			<linearGradient id="SVGID_3_" gradientUnits="userSpaceOnUse" x1="512.5239" y1="400.2762" x2="512.5239" y2="437.7422" gradientTransform="matrix(1 0 0 -1 0 502)">
			<stop  offset="0" style="stop-color:#F7FBFE"/>
			<stop  offset="0.9968" style="stop-color:#E1F1FB"/>
		</linearGradient>
		<path class="st3" d="M579.7,101.7H445.3c0,0,25.6-25.6,53.3-12.8C526.4,101.7,560.5,18.5,579.7,101.7z"/>
		<ellipse class="st4" cx="375.6" cy="434.6" rx="280.6" ry="22.6"/>
		<g>
			<path class="st5" d="M622.5,419H497.3c-15.7,0-28.5-12.8-28.5-28.5v-313c0-15.7,12.8-28.5,28.5-28.5h125.2
				c15.7,0,28.5,12.8,28.5,28.5v313C651,406.3,638.3,419,622.5,419z"/>
			<g>
				<g>
					<path id="XMLID_7_" class="st6" d="M616.7,408.2H503.2c-14.7,0-26.6-11.9-26.6-26.6V82.8c0-14.7,11.9-26.6,26.6-26.6h113.5
						c14.7,0,26.6,11.9,26.6,26.6v298.8C643.2,396.3,631.3,408.2,616.7,408.2z"/>
				</g>
				<g>
					<defs>
						<path id="SVGID_4_" d="M616.7,408.2H503.2c-14.7,0-26.6-11.9-26.6-26.6V82.8c0-14.7,11.9-26.6,26.6-26.6h113.5
							c14.7,0,26.6,11.9,26.6,26.6v298.8C643.2,396.3,631.3,408.2,616.7,408.2z"/>
					</defs>
					<clipPath id="SVGID_5_">
						<use xlink:href="#SVGID_4_"  style="overflow:visible;"/>
					</clipPath>
					<g class="st7">
						<g>
							<polygon class="st8" points="520.6,289.7 576.2,354.4 576.3,355.2 590.3,427.1 584.1,428.3 570.4,357.2 515.9,293.8 							
								"/>
						</g>
						<g>
							<path class="st8" d="M553.9,270.3l3,5.5c-45.2,25-113.4,62.9-116.4,65c0,0,0.2-0.1,0.4-0.3l-4.5-4.3
								c0.5-0.6,1.1-1.1,59.6-33.7C524.7,286.4,553.6,270.4,553.9,270.3z"/>
						</g>
						<g>
							<polygon class="st8" points="507.6,199.8 507.8,200.1 547.5,254.9 547.6,255.2 575.5,316 697.2,400.3 693.7,405.4 
								570.6,320.1 542.1,258 503,204.1 418.6,136.3 422.5,131.5 							"/>
						</g>
						<g>
							<polygon class="st8" points="790,290.5 788.5,296.6 582.9,248.2 547.2,262.2 545,256.4 582.5,241.6 							"/>
						</g>
						<g>
							
								<rect x="681.8" y="146.9" transform="matrix(0.1885 -0.9821 0.9821 0.1885 310.112 875.6696)" class="st8" width="6.2" height="206.7"/>
						</g>
						<g>
							
								<rect x="689.6" y="97" transform="matrix(0.1401 -0.9901 0.9901 0.1401 397.5295 857.8886)" class="st8" width="6.2" height="206.1"/>
						</g>
						<g>
							<path class="st8" d="M581.4-13.8l-28.3,151.1c11.2,1.4,49.4,6.3,87.3,11.2c26.4,3.4,47.4,6.2,62.6,8.3
								c29.6,4.1,29.9,4.3,30.9,5.3l-4.3,4.5c0.5,0.5,1,0.6,1,0.7c-5.3-1.6-111.4-15.4-181.5-24.3l-3.3-0.4L575.3-15L581.4-13.8z"/>
						</g>
						<g>
							<path class="st8" d="M621.4-4.9c0.1,0.1,0.2,0.2,0.2,0.2c1.2,1.4,1.6,1.9-2.3,26.7c-2,12.4-4.9,29.6-8.6,50.9
								c-6.2,35.4-12.8,71.1-13.2,73.2l-11.6,99.1l-6.2-0.7l11.7-99.3l0-0.1C601.6,89.3,616.7,4,616.2-2c0.1,1,1.2,2.5,3,2.5
								l-0.1-6.2C619.9-5.8,620.8-5.5,621.4-4.9z"/>
						</g>
						<g>
							
								<rect x="545.5" y="173.9" transform="matrix(5.250109e-02 -0.9986 0.9986 5.250109e-02 308.4186 748.4372)" class="st8" width="6.2" height="75.6"/>
						</g>
						<g>
							<path class="st8" d="M570.6,143.2c-9.3,30-19.2,64-19.1,67.9c0,0,0-0.9-0.8-1.7l0,0c-0.6-0.6-1.4-0.9-2.2-0.8l0.2,6.2
								c-1,0-2-0.4-2.7-1.3c-1.2-1.6-2-2.6,8.5-38.3c5-16.9,10.2-33.7,10.2-33.9L570.6,143.2z"/>
						</g>
						<g>
							
								<rect x="505.5" y="123.5" transform="matrix(0.1279 -0.9918 0.9918 0.1279 272.8391 654.4755)" class="st8" width="6.2" height="97.1"/>
						</g>
						<g>
							
								<rect x="478.8" y="26.7" transform="matrix(0.9649 -0.2626 0.2626 0.9649 -13.5139 130.6051)" class="st8" width="6.2" height="178.4"/>
						</g>
						<g>
							<polygon class="st8" points="463.3,193.7 506.4,300.6 500.6,303 458.4,198.2 410.2,172.7 413.1,167.2 							"/>
						</g>
						<g>
							
								<rect x="568.8" y="341.6" transform="matrix(0.6969 -0.7171 0.7171 0.6969 -70.0564 523.5584)" class="st8" width="31.2" height="6.2"/>
						</g>
						<g>
							<polygon class="st8" points="632.8,257.3 623.4,278.7 661.6,301.4 626.3,354.9 621.1,351.4 652.8,303.4 615.4,281.2 
								627.1,254.8 							"/>
						</g>
					</g>
				</g>
			</g>
			<polyline class="st9" points="555,105.1 549.9,139.8 596.2,146.7 581.4,246.7 547.7,259.1 573.2,317.1 			"/>
			<path class="st10" d="M555,78.2c-4.8-0.1-8.9,3.7-9,8.5c-0.1,4.8,8.4,14.2,8.4,14.2c-0.1,0,9-8.9,9.2-13.7
				C563.6,82.4,559.8,78.4,555,78.2z M554.7,90.6c-2.1-0.1-3.7-1.8-3.6-3.9c0.1-2.1,1.8-3.7,3.9-3.6c2.1,0.1,3.7,1.8,3.6,3.9
				C558.5,89,556.7,90.7,554.7,90.6z"/>
			<g>
				<ellipse class="st10" cx="573.1" cy="317" rx="4.5" ry="4.5"/>
				<g>
					<path class="st10" d="M572,324.6c-4.2-0.6-7.1-4.5-6.4-8.7s4.5-7.1,8.7-6.4c4.2,0.6,7.1,4.5,6.4,8.7
						C580,322.3,576.1,325.2,572,324.6z M574,310.7c-3.5-0.5-6.7,1.9-7.2,5.4c-0.5,3.5,1.9,6.7,5.4,7.2c3.5,0.5,6.7-1.9,7.2-5.4
						C579.9,314.5,577.5,311.2,574,310.7z"/>
				</g>
			</g>
		</g>
		<g>
			<g>
				<g>
					<path id="XMLID_4_" class="st11" d="M600.8,357.3c0,0,2.3-23.7,0-29.4c-2.3-5.7-44.1-6.8-44.1-6.8s-47.5-23.7-73.5-33.9
						c-26-10.2-132.2-6.8-156-4.5c-23.7,2.3-100.6,47.5-100.6,47.5c-56.5,1.1-96.1,13.6-104,21.5c-5.6,5.6-9,37.1-10.4,54.7
						c-0.5,6.5,4.5,12,11,12.1l70.6,0.8c-1.1-3.3-1.7-6.9-1.7-10.6c0-18.7,15.2-33.9,33.9-33.9S260,390,260,408.8
						c0,4-0.7,7.8-1.9,11.3l207.1,2.4c-1.9-4.2-2.9-8.8-2.9-13.7c0-18.7,15.2-33.9,33.9-33.9s33.9,15.2,33.9,33.9
						c0,3.9-0.7,7.5-1.8,11l82.6-10.4C620,373.2,600.8,357.3,600.8,357.3z"/>
				</g>
				<g>
					<defs>
						<path id="SVGID_6_" d="M600.8,357.3c0,0,2.3-23.7,0-29.4c-2.3-5.7-44.1-6.8-44.1-6.8s-47.5-23.7-73.5-33.9
							c-26-10.2-132.2-6.8-156-4.5c-23.7,2.3-100.6,47.5-100.6,47.5c-56.5,1.1-96.1,13.6-104,21.5c-5.6,5.6-9,37.1-10.4,54.7
							c-0.5,6.5,4.5,12,11,12.1l70.6,0.8c-1.1-3.3-1.7-6.9-1.7-10.6c0-18.7,15.2-33.9,33.9-33.9S260,390,260,408.8
							c0,4-0.7,7.8-1.9,11.3l207.1,2.4c-1.9-4.2-2.9-8.8-2.9-13.7c0-18.7,15.2-33.9,33.9-33.9s33.9,15.2,33.9,33.9
							c0,3.9-0.7,7.5-1.8,11l82.6-10.4C620,373.2,600.8,357.3,600.8,357.3z"/>
					</defs>
					<clipPath id="SVGID_7_">
						<use xlink:href="#SVGID_6_"  style="overflow:visible;"/>
					</clipPath>
					<g class="st12">
						<g class="st13">
							<g>
								<path class="st14" d="M386.6,330.5c-7.5,40.6-7.9,82.3-1.1,123c0.1,0.9,1.4,0.5,1.3-0.4c-6.8-40.5-6.4-81.9,1.1-122.3
									C388.1,330,386.8,329.7,386.6,330.5L386.6,330.5z"/>
							</g>
						</g>
						<g class="st13">
							<g>
								<path class="st14" d="M260.7,329c-10.2,29.9-12.1,62.1-5.4,93c0.2,0.8,1.5,0.5,1.3-0.4c-6.6-30.7-4.7-62.6,5.4-92.3
									C262.3,328.5,261,328.1,260.7,329L260.7,329z"/>
							</g>
						</g>
						<g class="st13">
							<g>
								<path class="st14" d="M494.3,332.8c-8.1,23.2-13.6,47.1-16.7,71.5c-0.1,0.9,1.2,0.9,1.3,0c3.1-24.2,8.7-48,16.7-71.1
									C495.9,332.3,494.6,332,494.3,332.8L494.3,332.8z"/>
							</g>
						</g>
					</g>
				</g>
				<g>
					<defs>
						<path id="SVGID_8_" d="M600.8,357.3c0,0,2.3-23.7,0-29.4c-2.3-5.7-44.1-6.8-44.1-6.8s-47.5-23.7-73.5-33.9
							c-26-10.2-132.2-6.8-156-4.5c-23.7,2.3-100.6,47.5-100.6,47.5c-56.5,1.1-96.1,13.6-104,21.5c-5.6,5.6-9,37.1-10.4,54.7
							c-0.5,6.5,4.5,12,11,12.1l70.6,0.8c-1.1-3.3-1.7-6.9-1.7-10.6c0-18.7,15.2-33.9,33.9-33.9S260,390,260,408.8
							c0,4-0.7,7.8-1.9,11.3l207.1,2.4c-1.9-4.2-2.9-8.8-2.9-13.7c0-18.7,15.2-33.9,33.9-33.9s33.9,15.2,33.9,33.9
							c0,3.9-0.7,7.5-1.8,11l82.6-10.4C620,373.2,600.8,357.3,600.8,357.3z"/>
					</defs>
					<clipPath id="SVGID_9_">
						<use xlink:href="#SVGID_8_"  style="overflow:visible;"/>
					</clipPath>
					<g class="st15">
						<g>
							<path class="st16" d="M255.4,333.3c-36.5,8.5-72.5,18.7-108,30.6c-0.8,0.3-0.5,1.6,0.4,1.3c35.5-11.9,71.6-22.1,108-30.6
								C256.6,334.5,256.3,333.2,255.4,333.3L255.4,333.3z"/>
						</g>
					</g>
				</g>
			</g>
			<path class="st17" d="M226.1,378.2c-16.9,0-30.5,13.7-30.5,30.5c0,3.3,0.5,6.5,1.5,9.5c4,12.2,15.5,21,29,21
				c13.3,0,24.6-8.5,28.8-20.4c1.1-3.2,1.7-6.6,1.7-10.2C256.6,391.9,243,378.2,226.1,378.2z"/>
			<path class="st18" d="M226.1,391.8c-9.4,0-17,7.6-17,17c0,1.8,0.3,3.6,0.8,5.3c2.2,6.8,8.6,11.7,16.1,11.7
				c7.4,0,13.7-4.7,16-11.3c0.6-1.8,1-3.7,1-5.7C243.1,399.4,235.5,391.8,226.1,391.8z"/>
			<path class="st17" d="M496.2,378.2c-16.9,0-30.5,13.7-30.5,30.5c0,3.3,0.5,6.5,1.5,9.5c4,12.2,15.5,21,29,21
				c13.3,0,24.6-8.5,28.8-20.4c1.1-3.2,1.7-6.6,1.7-10.2C526.7,391.9,513.1,378.2,496.2,378.2z"/>
			<path class="st18" d="M496.2,391.8c-9.4,0-17,7.6-17,17c0,1.8,0.3,3.6,0.8,5.3c2.2,6.8,8.6,11.7,16.1,11.7
				c7.4,0,13.7-4.7,16-11.3c0.6-1.8,1-3.7,1-5.7C513.2,399.4,505.6,391.8,496.2,391.8z"/>
			<path class="st19" d="M499.7,336.4H249.5c-2.8,0-3.9-3.6-1.6-5.1c12.8-9,42.2-27.9,78.8-41.2c0,0,104-7.9,132.2,0
				c20.7,5.8,37.2,28.1,44.5,39.5C505.3,332.5,503.2,336.4,499.7,336.4z"/>
			<g>
				<g>
					<path id="XMLID_1_" class="st20" d="M492.1,333H262.6c-2.5,0-3.6-3.1-1.5-4.4c11.8-7.8,38.7-24.1,72.3-35.6
						c0,0,95.4-6.8,121.3,0c19,5,34.1,24.2,40.8,34.1C497.3,329.7,495.4,333,492.1,333z"/>
				</g>
				<g>
					<defs>
						<path id="SVGID_10_" d="M492.1,333H262.6c-2.5,0-3.6-3.1-1.5-4.4c11.8-7.8,38.7-24.1,72.3-35.6c0,0,95.4-6.8,121.3,0
							c19,5,34.1,24.2,40.8,34.1C497.3,329.7,495.4,333,492.1,333z"/>
					</defs>
					<clipPath id="SVGID_11_">
						<use xlink:href="#SVGID_10_"  style="overflow:visible;"/>
					</clipPath>
					<polygon class="st21" points="267.9,351.1 381,260.7 416,264.1 288.3,353.4 					"/>
				</g>
				<g>
					<defs>
						<path id="SVGID_12_" d="M492.1,333H262.6c-2.5,0-3.6-3.1-1.5-4.4c11.8-7.8,38.7-24.1,72.3-35.6c0,0,95.4-6.8,121.3,0
							c19,5,34.1,24.2,40.8,34.1C497.3,329.7,495.4,333,492.1,333z"/>
					</defs>
					<clipPath id="SVGID_13_">
						<use xlink:href="#SVGID_12_"  style="overflow:visible;"/>
					</clipPath>
					<polyline class="st22" points="332.4,351.1 336.5,346.8 416,264.1 436.3,269.8 350.4,344.3 419.4,345.5 477,256.2 504.1,260.7 
						430.7,348.9 454.4,347.7 496.2,286.7 504.2,296.2 460.1,351.1 					"/>
				</g>
			</g>
			<g>
				<g>
					<path id="XMLID_3_" class="st23" d="M288.3,332.5c0,4.1-7.1,7.4-15.8,7.4s-15.8-3.3-15.8-7.4c0-4.1,7.1-7.4,15.8-7.4
						C281.2,325.1,288.3,328.4,288.3,332.5z"/>
				</g>
				<g>
					<defs>
						<path id="SVGID_14_" d="M288.3,332.5c0,4.1-7.1,7.4-15.8,7.4s-15.8-3.3-15.8-7.4c0-4.1,7.1-7.4,15.8-7.4
							C281.2,325.1,288.3,328.4,288.3,332.5z"/>
					</defs>
					<clipPath id="SVGID_15_">
						<use xlink:href="#SVGID_14_"  style="overflow:visible;"/>
					</clipPath>
					<ellipse class="st24" cx="267.9" cy="329.1" rx="15.8" ry="7.4"/>
				</g>
			</g>
			<path class="st19" d="M387.9,290.1c0,0,1.7,29.4-2.2,42.9h6c0,0-3.2-21.7,0-43.1L387.9,290.1z"/>
			<g>
				<g>
					<path id="XMLID_2_" class="st25" d="M601.8,339.8c-0.2-0.4-35.5-1.1-34.3,3.4c1.1,4.5,10.2,24.1,37.9,19.4
						C605.3,362.6,609,351.1,601.8,339.8z"/>
				</g>
				<g>
					<defs>
						<path id="SVGID_16_" d="M601.8,339.8c-0.2-0.4-35.5-1.1-34.3,3.4c1.1,4.5,10.2,24.1,37.9,19.4
							C605.3,362.6,609,351.1,601.8,339.8z"/>
					</defs>
					<clipPath id="SVGID_17_">
						<use xlink:href="#SVGID_16_"  style="overflow:visible;"/>
					</clipPath>
					<rect x="540.3" y="328.5" class="st26" width="81.4" height="14.7"/>
				</g>
			</g>
			<path class="st8" d="M115.4,378.2c0,0,26.6-2.8,36.7-6.2c10.2-3.4,17-14.7,17-14.7h-49.3C119.8,357.3,112.6,367.5,115.4,378.2z"
				/>
			<path class="st18" d="M114.7,391.8c0,0,11.4-2.8,12.5,2.8c1.1,5.7-2.5,15.5-14.8,10C112.4,404.6,109,399.1,114.7,391.8z"/>
			<path class="st8" d="M474.8,353.4h-17c-1.2,0-2.3-1-2.3-2.3l0,0c0-1.2,1-2.3,2.3-2.3h17c1.2,0,2.3,1,2.3,2.3l0,0
				C477,352.4,476,353.4,474.8,353.4z"/>
		</g>
		<g>
			<polygon class="st5" points="351.4,231.2 368.3,216 368.3,227.7 352.1,236.9 			"/>
			<path class="st27" d="M354.3,235.5c0.7-0.7-2.2-3.6,0.7-6.5c2.9-2.9,5.8-3.6,6.5-1.4c0.7,2.2-2.2,8-6.5,9.4
				C350.7,238.4,354.3,235.5,354.3,235.5z"/>
			<path class="st28" d="M316.2,172.6c0.7,0,18.1,0.7,11.6-19.5c-1.6-4.9-10.1,0.7-10.1,0.7s2.2-7.2-2.2-9.4
				c-6.4-3.2-22.4,8-21.7,11.6c0,0-7.2,4.3-4.3,12.3c2.9,8,11.6,9.4,11.6,21C301,200.8,316.2,172.6,316.2,172.6z"/>
			<g>
				<g>
					<path id="XMLID_20_" class="st27" d="M283.3,408c-0.4,0.4-6.1,8.3-6.5,7.9c-0.2-0.2-2.6,0.3-4.4,0.7c-1,0.2-1.7,1.2-1.5,2.2
						c0.5,4.3,2,15.3,3.7,17.3c2.2,2.5,9,5.7,9.3,4.3c0.4-1.4-4-6.1-4-6.1l0.4-14.7l8.3-7.5l-5-4"/>
				</g>
				<g>
					<defs>
						<path id="SVGID_18_" d="M283.3,408c-0.4,0.4-6.1,8.3-6.5,7.9c-0.2-0.2-2.6,0.3-4.4,0.7c-1,0.2-1.7,1.2-1.5,2.2
							c0.5,4.3,2,15.3,3.7,17.3c2.2,2.5,9,5.7,9.3,4.3c0.4-1.4-4-6.1-4-6.1l0.4-14.7l8.3-7.5l-5-4"/>
					</defs>
					<clipPath id="SVGID_19_">
						<use xlink:href="#SVGID_18_"  style="overflow:visible;"/>
					</clipPath>
					<path class="st29" d="M278.8,409.6c0,0,5,6.5,7.2,9c2.2,2.5,2.5,25.5,2.5,25.5l-17.6-4.7l-6.5-16.9L278.8,409.6z"/>
				</g>
				<g>
					<defs>
						<path id="SVGID_20_" d="M283.3,408c-0.4,0.4-6.1,8.3-6.5,7.9c-0.2-0.2-2.6,0.3-4.4,0.7c-1,0.2-1.7,1.2-1.5,2.2
							c0.5,4.3,2,15.3,3.7,17.3c2.2,2.5,9,5.7,9.3,4.3c0.4-1.4-4-6.1-4-6.1l0.4-14.7l8.3-7.5l-5-4"/>
					</defs>
					<clipPath id="SVGID_21_">
						<use xlink:href="#SVGID_20_"  style="overflow:visible;"/>
					</clipPath>
					<path class="st30" d="M275.6,407.8c-0.7,1.8,1.8,8.3,7.5,14.4c5.7,6.1,4.3,24,4.3,24l-20.1-6.8L263,424L275.6,407.8z"/>
				</g>
			</g>
			<path class="st5" d="M302.7,321.5c-0.7,1.1,10.4,40.9,12.2,43.4c1.8,2.5-33,42.4-33,42.4s0.4,9.3,5.8,8.4s50.9-44.3,48.1-60.1
				c-2.9-15.8-16.9-65-16.9-65l-21.5,4L302.7,321.5z"/>
			<g>
				<g>
					<path id="XMLID_18_" class="st27" d="M291.5,424.2c0.4,0.4,1.8,11.8,1.8,11.8s-1.4,4.7-1.1,5.7c0.4,1.1,24,1.1,23.3,0
						c-0.7-1.1-16.2-6.5-16.2-6.8s-0.4-10.8-0.4-10.8H291.5z"/>
				</g>
				<g>
					<defs>
						<path id="SVGID_22_" d="M291.5,424.2c0.4,0.4,1.8,11.8,1.8,11.8s-1.4,4.7-1.1,5.7c0.4,1.1,24,1.1,23.3,0
							c-0.7-1.1-16.2-6.5-16.2-6.8s-0.4-10.8-0.4-10.8H291.5z"/>
					</defs>
					<clipPath id="SVGID_23_">
						<use xlink:href="#SVGID_22_"  style="overflow:visible;"/>
					</clipPath>
					<path class="st31" d="M291.7,429.7c0,0,7.2-0.4,10-1.1c2.9-0.7,18.7,10,18.7,10l0.7,9l-30.9-1.4l-4.7-5.7L291.7,429.7z"/>
				</g>
				<g>
					<defs>
						<path id="SVGID_24_" d="M291.5,424.2c0.4,0.4,1.8,11.8,1.8,11.8s-1.4,4.7-1.1,5.7c0.4,1.1,24,1.1,23.3,0
							c-0.7-1.1-16.2-6.5-16.2-6.8s-0.4-10.8-0.4-10.8H291.5z"/>
					</defs>
					<clipPath id="SVGID_25_">
						<use xlink:href="#SVGID_24_"  style="overflow:visible;"/>
					</clipPath>
					<path class="st32" d="M291.7,434.8c0,0,3.6,2.5,10-1.4c6.5-4,17.9,9.3,17.9,9.3l-28,3.6L291.7,434.8z"/>
				</g>
			</g>
			<path class="st5" d="M275.7,289.2c-0.4,1.1-0.7,20.5,3.2,33.4c4,12.9,7.5,97.6,10.1,101.9c2.5,4.3,15.1,0,15.1,0
				s2.1-82.2,1.4-92.6c-0.7-10.4,2.1-39.8,2.1-39.8L275.7,289.2z"/>
			<path class="st33" d="M297.8,179c0,0,0.5,15.8-4.8,19.4c0,0,10.8,8.6,17.2,1.4c0,0-0.7-12.2,0-14.7
				C310.9,182.6,297.8,179,297.8,179z"/>
			<g>
				<g>
					<path id="XMLID_12_" class="st34" d="M296.2,197.7c0,0-18.3-1.1-24.4,10.8c-6.1,11.8-1.1,43.8,0,50.6s-1.4,31.2,3.2,34.5
						c4.7,3.2,44.1,5,48.5,0c4.3-5,0.4-63.2,1.8-67.5c1.4-4.3-1.4-26.9-16.9-27.3C293,198.4,296.2,197.7,296.2,197.7z"/>
				</g>
			</g>
			<path class="st27" d="M321.7,164.7c0.7-0.3-0.7,14.4-1.1,18.7c-0.4,4.3-5.4,9.3-11.8,7.9c-6.5-1.4-12.2-7.9-11.5-19.4
				c0,0-3.6-2.2-2.5-5.7c1.1-3.6,4,2.9,4,2.9s1.4-1.8,1.8-6.1c0.4-4.3,4.7-7.9,8.6-4C313.1,162.9,319.2,165.8,321.7,164.7z"/>
			<path class="st34" d="M315,243c0,0,23-1.4,35.5-9.8c0,0,5.8,4.3,4.9,7.2c-0.9,2.9-25.4,23.2-32.2,16C316.4,249.3,315,243,315,243
				z"/>
			<path class="st35" d="M282,202.7c0,0-14.9,2.2-15.8,28.5c-0.9,26.3,4.2,46.2,2.9,52c-1.3,5.8,9.2,27.8,10.1,28.2s3.6-5.8,3.6-5.8
				s-0.9-29.8,1.3-58.3C286.4,218.8,289,204.1,282,202.7z"/>
		</g>
	</g>
</g>
</svg>
