<svg width="40" height="39" viewBox="0 0 40 39" fill="none" xmlns="http://www.w3.org/2000/svg">
<path fill-rule="evenodd" clip-rule="evenodd" d="M19.829 38.785H19.893H19.946C20.2633 38.7673 20.5621 38.6299 20.782 38.4005C21.002 38.1711 21.1267 37.8668 21.131 37.549C21.131 35.4705 20.3053 33.4771 18.8356 32.0074C17.3659 30.5377 15.3725 29.712 13.294 29.712H8.337C6.25902 29.712 4.2661 30.5373 2.79646 32.0063C1.32683 33.4754 0.500795 35.468 0.5 37.546C0.5 37.572 0.5 37.599 0.5 37.625C0.50262 37.7743 0.535625 37.9216 0.597002 38.0577C0.658379 38.1939 0.746842 38.3161 0.857 38.417C0.971821 38.5331 1.10856 38.6253 1.25928 38.6881C1.41001 38.7509 1.57171 38.7832 1.735 38.783C1.735 38.783 2.973 38.705 2.973 37.542C2.97287 36.838 3.11145 36.1408 3.38081 35.4903C3.65018 34.8398 4.04507 34.2488 4.54291 33.7509C5.04075 33.2531 5.63179 32.8582 6.28228 32.5888C6.93276 32.3195 7.62995 32.1809 8.334 32.181H13.292C13.9961 32.1809 14.6932 32.3195 15.3437 32.5888C15.9942 32.8582 16.5853 33.2531 17.0831 33.7509C17.5809 34.2488 17.9758 34.8398 18.2452 35.4903C18.5146 36.1408 18.6531 36.838 18.653 37.542C18.6529 37.4858 18.6569 37.4296 18.665 37.374C18.6568 37.431 18.6528 37.4885 18.653 37.546C18.6523 37.8641 18.7741 38.1702 18.9931 38.4008C19.212 38.6315 19.5114 38.7691 19.829 38.785Z" fill="white"/>
<path fill-rule="evenodd" clip-rule="evenodd" d="M19.829 20.63H19.893H19.946C20.2633 20.6123 20.5621 20.4749 20.782 20.2455C21.002 20.0161 21.1267 19.7118 21.131 19.394C21.131 17.3155 20.3053 15.3221 18.8356 13.8524C17.3659 12.3827 15.3725 11.557 13.294 11.557H8.337C6.25902 11.557 4.2661 12.3823 2.79646 13.8513C1.32683 15.3204 0.500795 17.313 0.5 19.391C0.5 19.417 0.5 19.444 0.5 19.47C0.50262 19.6193 0.535625 19.7666 0.597002 19.9027C0.658379 20.0389 0.746842 20.1611 0.857 20.262C0.971821 20.3781 1.10856 20.4703 1.25928 20.5331C1.41001 20.5959 1.57171 20.6282 1.735 20.628C1.735 20.628 2.973 20.55 2.973 19.387C2.97287 18.683 3.11145 17.9858 3.38081 17.3353C3.65018 16.6848 4.04507 16.0938 4.54291 15.5959C5.04075 15.0981 5.63179 14.7032 6.28228 14.4338C6.93276 14.1645 7.62995 14.0259 8.334 14.026H13.292C13.9961 14.0259 14.6932 14.1645 15.3437 14.4338C15.9942 14.7032 16.5853 15.0981 17.0831 15.5959C17.5809 16.0938 17.9758 16.6848 18.2452 17.3353C18.5146 17.9858 18.6531 18.683 18.653 19.387C18.6529 19.3308 18.6569 19.2746 18.665 19.219C18.6568 19.276 18.6528 19.3335 18.653 19.391C18.6523 19.7091 18.7741 20.0152 18.9931 20.2458C19.212 20.4765 19.5114 20.6141 19.829 20.63Z" fill="white"/>
<path fill-rule="evenodd" clip-rule="evenodd" d="M37.985 38.785H38.049H38.102C38.4195 38.7692 38.7189 38.6328 38.9392 38.4036C39.1594 38.1745 39.2838 37.8698 39.287 37.552C39.2871 36.5224 39.0844 35.5029 38.6905 34.5516C38.2965 33.6004 37.7191 32.736 36.991 32.008C36.263 31.28 35.3987 30.7025 34.4474 30.3085C33.4961 29.9146 32.4766 29.7119 31.447 29.712H26.493C24.4145 29.712 22.4211 30.5377 20.9514 32.0074C19.4817 33.4771 18.656 35.4705 18.656 37.549C18.656 37.575 18.656 37.602 18.656 37.628C18.6586 37.7773 18.6916 37.9246 18.753 38.0607C18.8144 38.1969 18.9028 38.3191 19.013 38.42C19.1278 38.5361 19.2646 38.6283 19.4153 38.6911C19.566 38.7539 19.7277 38.7862 19.891 38.786C19.891 38.786 21.129 38.708 21.129 37.545C21.1289 36.841 21.2675 36.1438 21.5368 35.4933C21.8062 34.8428 22.2011 34.2518 22.6989 33.7539C23.1968 33.2561 23.7878 32.8612 24.4383 32.5918C25.0888 32.3225 25.786 32.1839 26.49 32.184H31.445C32.8675 32.1843 34.2317 32.7495 35.2376 33.7554C36.2435 34.7613 36.8087 36.1255 36.809 37.548C36.8084 37.4955 36.8117 37.443 36.819 37.391C36.7974 37.56 36.811 37.7317 36.8589 37.8953C36.9067 38.0588 36.9878 38.2107 37.0971 38.3415C37.2063 38.4722 37.3414 38.579 37.4939 38.6552C37.6463 38.7313 37.8128 38.7752 37.983 38.784L37.985 38.785Z" fill="white"/>
<path fill-rule="evenodd" clip-rule="evenodd" d="M37.985 20.63H38.049H38.102C38.4195 20.6142 38.7189 20.4778 38.9392 20.2486C39.1594 20.0195 39.2838 19.7148 39.287 19.397C39.2871 18.3674 39.0844 17.3479 38.6905 16.3966C38.2965 15.4454 37.7191 14.581 36.991 13.853C36.263 13.125 35.3987 12.5475 34.4474 12.1535C33.4961 11.7596 32.4766 11.5569 31.447 11.557H26.493C24.4145 11.557 22.4211 12.3827 20.9514 13.8524C19.4817 15.3221 18.656 17.3155 18.656 19.394C18.656 19.42 18.656 19.447 18.656 19.473C18.6586 19.6223 18.6916 19.7696 18.753 19.9057C18.8144 20.0419 18.9028 20.1641 19.013 20.265C19.1278 20.3811 19.2646 20.4733 19.4153 20.5361C19.566 20.5989 19.7277 20.6312 19.891 20.631C19.891 20.631 21.129 20.553 21.129 19.39C21.1289 18.686 21.2675 17.9888 21.5368 17.3383C21.8062 16.6878 22.2011 16.0968 22.6989 15.5989C23.1968 15.1011 23.7878 14.7062 24.4383 14.4368C25.0888 14.1675 25.786 14.0289 26.49 14.029H31.445C32.8675 14.0293 34.2317 14.5945 35.2376 15.6004C36.2435 16.6063 36.8087 17.9705 36.809 19.393C36.8084 19.3405 36.8117 19.288 36.819 19.236C36.7974 19.405 36.811 19.5767 36.8589 19.7403C36.9067 19.9038 36.9878 20.0557 37.0971 20.1865C37.2063 20.3173 37.3414 20.424 37.4939 20.5002C37.6463 20.5763 37.8128 20.6202 37.983 20.629L37.985 20.63Z" fill="white"/>
<path fill-rule="evenodd" clip-rule="evenodd" d="M10.816 18.156C9.42859 18.156 8.07231 18.5674 6.9187 19.3382C5.76509 20.1091 4.86596 21.2047 4.33501 22.4865C3.80406 23.7683 3.66514 25.1788 3.93582 26.5396C4.2065 27.9003 4.87461 29.1503 5.85567 30.1314C6.83674 31.1124 8.08669 31.7805 9.44747 32.0512C10.8082 32.3219 12.2187 32.183 13.5006 31.652C14.7824 31.1211 15.878 30.2219 16.6488 29.0683C17.4196 27.9147 17.831 26.5584 17.831 25.171C17.8305 23.3107 17.0912 21.5267 15.7758 20.2112C14.4603 18.8958 12.6764 18.1565 10.816 18.156ZM10.816 20.632C11.7138 20.632 12.5913 20.8982 13.3378 21.397C14.0842 21.8957 14.666 22.6046 15.0095 23.434C15.3531 24.2634 15.443 25.176 15.2678 26.0565C15.0927 26.937 14.6604 27.7458 14.0256 28.3806C13.3908 29.0154 12.582 29.4477 11.7015 29.6228C10.8211 29.7979 9.90842 29.708 9.07903 29.3645C8.24963 29.0209 7.54074 28.4392 7.04199 27.6927C6.54324 26.9463 6.27703 26.0687 6.27703 25.171C6.27756 23.9674 6.75594 22.8131 7.60706 21.962C8.45817 21.1109 9.61237 20.6325 10.816 20.632Z" fill="white"/>
<path fill-rule="evenodd" clip-rule="evenodd" d="M10.816 0C9.42859 0 8.07231 0.411422 6.9187 1.18224C5.76509 1.95306 4.86596 3.04865 4.33501 4.33048C3.80406 5.6123 3.66514 7.02278 3.93582 8.38356C4.2065 9.74434 4.87461 10.9943 5.85567 11.9754C6.83674 12.9564 8.08669 13.6245 9.44747 13.8952C10.8082 14.1659 12.2187 14.027 13.5006 13.496C14.7824 12.9651 15.878 12.0659 16.6488 10.9123C17.4196 9.75871 17.831 8.40244 17.831 7.015C17.8305 5.15467 17.0912 3.37068 15.7758 2.05523C14.4603 0.739779 12.6764 0.00053016 10.816 0ZM10.816 2.476C11.7138 2.476 12.5913 2.74221 13.3378 3.24096C14.0842 3.73971 14.666 4.44861 15.0095 5.278C15.3531 6.10739 15.443 7.02003 15.2678 7.90051C15.0927 8.78099 14.6604 9.58977 14.0256 10.2246C13.3908 10.8593 12.582 11.2916 11.7015 11.4668C10.8211 11.6419 9.90842 11.552 9.07903 11.2085C8.24963 10.8649 7.54074 10.2832 7.04199 9.53673C6.54324 8.7903 6.27703 7.91273 6.27703 7.015C6.27756 5.81135 6.75594 4.65714 7.60706 3.80603C8.45817 2.95491 9.61237 2.47653 10.816 2.476Z" fill="white"/>
<path fill-rule="evenodd" clip-rule="evenodd" d="M28.972 18.156C27.5845 18.156 26.2283 18.5674 25.0746 19.3382C23.921 20.1091 23.0219 21.2047 22.491 22.4865C21.96 23.7683 21.8211 25.1788 22.0918 26.5396C22.3624 27.9003 23.0306 29.1503 24.0116 30.1314C24.9927 31.1124 26.2426 31.7805 27.6034 32.0512C28.9642 32.3219 30.3747 32.183 31.6565 31.652C32.9383 31.1211 34.0339 30.2219 34.8047 29.0683C35.5756 27.9147 35.987 26.5584 35.987 25.171C35.9864 23.3107 35.2472 21.5267 33.9317 20.2112C32.6163 18.8958 30.8323 18.1565 28.972 18.156ZM28.972 20.632C29.8697 20.632 30.7473 20.8982 31.4937 21.397C32.2401 21.8957 32.8219 22.6046 33.1655 23.434C33.509 24.2634 33.5989 25.176 33.4238 26.0565C33.2486 26.937 32.8163 27.7458 32.1815 28.3806C31.5467 29.0154 30.738 29.4477 29.8575 29.6228C28.977 29.7979 28.0644 29.708 27.235 29.3645C26.4056 29.0209 25.6967 28.4392 25.1979 27.6927C24.6992 26.9463 24.433 26.0687 24.433 25.171C24.4335 23.9674 24.9119 22.8131 25.763 21.962C26.6141 21.1109 27.7683 20.6325 28.972 20.632Z" fill="white"/>
<path fill-rule="evenodd" clip-rule="evenodd" d="M28.972 0C27.5845 0 26.2283 0.411422 25.0746 1.18224C23.921 1.95306 23.0219 3.04865 22.491 4.33048C21.96 5.6123 21.8211 7.02278 22.0918 8.38356C22.3624 9.74434 23.0306 10.9943 24.0116 11.9754C24.9927 12.9564 26.2426 13.6245 27.6034 13.8952C28.9642 14.1659 30.3747 14.027 31.6565 13.496C32.9383 12.9651 34.0339 12.0659 34.8047 10.9123C35.5756 9.75871 35.987 8.40244 35.987 7.015C35.9864 5.15467 35.2472 3.37068 33.9317 2.05523C32.6163 0.739779 30.8323 0.00053016 28.972 0ZM28.972 2.476C29.8697 2.476 30.7473 2.74221 31.4937 3.24096C32.2401 3.73971 32.8219 4.44861 33.1655 5.278C33.509 6.10739 33.5989 7.02003 33.4238 7.90051C33.2486 8.78099 32.8163 9.58977 32.1815 10.2246C31.5467 10.8593 30.738 11.2916 29.8575 11.4668C28.977 11.6419 28.0644 11.552 27.235 11.2085C26.4056 10.8649 25.6967 10.2832 25.1979 9.53673C24.6992 8.7903 24.433 7.91273 24.433 7.015C24.4335 5.81135 24.9119 4.65714 25.763 3.80603C26.6141 2.95491 27.7683 2.47653 28.972 2.476Z" fill="white"/>
</svg>
