<?xml version="1.0" encoding="utf-8"?>
<!-- Generator: Adobe Illustrator 23.0.0, SVG Export Plug-In . SVG Version: 6.00 Build 0)  -->
<svg version="1.1" id="Layer_1" xmlns="http://www.w3.org/2000/svg" xmlns:xlink="http://www.w3.org/1999/xlink" x="0px" y="0px"
	 viewBox="0 0 750 500" style="enable-background:new 0 0 750 500;" xml:space="preserve">
<style type="text/css">
	.st0{fill:none;}
	.st1{fill:#FFFFFF;}
	.st2{fill:#D4EDFC;}
	
		.st3{opacity:0.6;fill:none;stroke:#55BEFF;stroke-width:0.5;stroke-linecap:round;stroke-linejoin:round;stroke-dasharray:8.0604,8.0604;enable-background:new    ;}
	.st4{fill:none;stroke:url(#SVGID_1_);stroke-linecap:round;stroke-linejoin:round;stroke-dasharray:8.0604,8.0604;}
	.st5{opacity:0.8;}
	.st6{fill:#00DBFF;}
	.st7{fill:#B0B0B0;}
	.st8{fill:#3C3C3A;}
	.st9{fill:#C4C4C4;}
	.st10{fill:#9B9B9A;}
	.st11{fill:#707070;}
	.st12{fill:#575756;}
	.st13{fill:#A5CCE4;}
	.st14{fill:#E54B3C;}
	.st15{fill:#1F71B6;}
	.st16{fill:#C74134;}
	.st17{fill:#606060;}
	.st18{fill:#F7FBFE;}
	.st19{fill:#07AA5C;}
	.st20{fill:#1ED87F;}
	.st21{fill:#19DD68;}
	.st22{fill:#FF9000;}
	.st23{fill:#FFAB28;}
	.st24{fill:#EBEBEB;}
	.st25{fill:#858585;}
	.st26{fill:#D8D8D8;}
	.st27{opacity:0.1;enable-background:new    ;}
	.st28{opacity:0.1;}
	.st29{fill:#38AFEB;}
	.st30{opacity:5.000000e-02;}
</style>
<g>
	<rect class="st0" width="750" height="500"/>
	<g>
		<g id="BACKGROUND">
			<rect x="141" y="15" class="st1" width="472" height="472"/>
			<path class="st2" d="M310.7,92.5c68.8,16,131.4-62.5,201-49.8c7.7,1.4,15.4,4.1,21.1,9.1c7.5,6.6,10.7,16.3,11.8,25.9
				c3.9,34-15.1,71.4,3.4,100.9c5.7,9,14.3,16,21.2,24.3c24.3,28.7,24.8,72.9,1.2,102.1c-8.4,10.3-19.3,18.9-25.9,30.3
				c-20.1,34.9,5.4,87-26.4,113.1c-13,10.6-31.7,12.6-49.1,13c-10.6,0.3-21.9,0-31-5c-12.9-7.1-18.5-21.6-28.5-32
				c-16-16.7-42.3-21.3-66.2-19.2c-23.9,2.1-46.7,9.8-70.3,13.8c-8.2,1.4-16.7,2.3-24.8,0.5c-12.9-3-22.8-12.5-30.1-22.9
				c-40.6-58.1-14.4-132.3-23.3-196.6c-6.1-44.1-67.3-115.9,11.2-139.4C244.7,48.9,275.8,84.4,310.7,92.5z"/>
			<path class="st3" d="M309.4,81.8C383.2,99,450.4,14.9,525,28.5c8.3,1.5,16.5,4.4,22.6,9.7c8,7,11.5,17.5,12.6,27.7
				c4.1,36.4-16.2,76.6,3.6,108.2c6.1,9.7,15.3,17.2,22.8,26c26.1,30.8,26.6,78.2,1.3,109.5c-9,11.1-20.7,20.2-27.8,32.5
				c-21.5,37.4,5.8,93.2-28.3,121.3c-14,11.5-34.1,13.6-52.7,14c-11.4,0.3-23.4,0-33.3-5.4c-13.8-7.6-19.8-23.2-30.6-34.4
				c-17.2-17.9-45.4-22.8-71-20.6c-25.6,2.2-50.1,10.5-75.4,14.8c-8.8,1.5-17.9,2.5-26.6,0.5c-13.8-3.2-24.5-13.4-32.3-24.6
				c-43.5-62.3-15.4-141.9-25-210.8c-6.5-47.3-72.1-124.3,12-149.5C238.6,35.1,271.9,73.1,309.4,81.8z"/>
			
				<linearGradient id="SVGID_1_" gradientUnits="userSpaceOnUse" x1="355.2086" y1="513.3892" x2="355.2086" y2="202.3862" gradientTransform="matrix(0 -1 1 0 33.0774 626.1969)">
				<stop  offset="0" style="stop-color:#F7FBFE"/>
				<stop  offset="0.1232" style="stop-color:#F3FAFE"/>
				<stop  offset="0.2502" style="stop-color:#E6F5FE"/>
				<stop  offset="0.3791" style="stop-color:#D2EEFD"/>
				<stop  offset="0.5092" style="stop-color:#B5E3FD"/>
				<stop  offset="0.6404" style="stop-color:#8FD6FC"/>
				<stop  offset="0.7724" style="stop-color:#62C5FB"/>
				<stop  offset="0.9026" style="stop-color:#2DB2FA"/>
				<stop  offset="1" style="stop-color:#00A2F9"/>
			</linearGradient>
			<ellipse class="st4" cx="391" cy="271" rx="155" ry="155"/>
		</g>
		<g id="OBJECTS">
			<g>
				<g class="st5">
					<path class="st6" d="M512.9,181.9c0,1.6-1.3,2.9-2.9,2.9s-2.9-1.3-2.9-2.9c0-1.6,1.3-2.9,2.9-2.9
						C511.7,179,512.9,180.3,512.9,181.9z"/>
					<path class="st6" d="M497.4,215.3c0,1.6-1.3,2.9-2.9,2.9s-2.9-1.3-2.9-2.9c0-1.6,1.3-2.9,2.9-2.9
						C496.1,212.4,497.4,213.7,497.4,215.3z"/>
					<circle class="st6" cx="423.2" cy="188.9" r="2.2"/>
					<path class="st6" d="M262.2,172c0,1-0.8,1.8-1.8,1.8s-1.8-0.8-1.8-1.8s0.8-1.8,1.8-1.8S262.2,171,262.2,172z"/>
					<path class="st6" d="M238.4,239.7c0,2.1-1.7,3.8-3.8,3.8s-3.8-1.7-3.8-3.8s1.7-3.8,3.8-3.8S238.4,237.6,238.4,239.7z"/>
					<circle class="st6" cx="224.1" cy="290.9" r="2.4"/>
					<circle class="st6" cx="454.8" cy="279.5" r="3.6"/>
					<path class="st6" d="M532.5,308.9c0,1.4-1.1,2.5-2.5,2.5c-1.4,0-2.5-1.1-2.5-2.5s1.1-2.5,2.5-2.5
						C531.4,306.4,532.5,307.6,532.5,308.9z"/>
					<circle class="st6" cx="541.9" cy="198.3" r="1.8"/>
					<path class="st6" d="M296.3,165.9c0,2-1.7,3.7-3.7,3.7s-3.7-1.7-3.7-3.7s1.7-3.7,3.7-3.7C294.6,162.2,296.3,163.9,296.3,165.9z
						"/>
					<path class="st6" d="M237.7,325.2c0,1.9-1.6,3.5-3.5,3.5s-3.5-1.6-3.5-3.5s1.6-3.5,3.5-3.5
						C236.2,321.7,237.7,323.3,237.7,325.2z"/>
					<g>
						<path class="st6" d="M319.2,181.6L319.2,181.6c0.7,2.5,2.6,4.5,5.1,5.1l0,0l0,0c-2.5,0.7-4.5,2.6-5.1,5.1l0,0l0,0
							c-0.7-2.5-2.6-4.5-5.1-5.1l0,0l0,0C316.6,186.1,318.5,184.1,319.2,181.6L319.2,181.6z"/>
						<path class="st6" d="M494.4,152.2L494.4,152.2c0.7,2.5,2.6,4.5,5.1,5.1l0,0l0,0c-2.5,0.7-4.5,2.6-5.1,5.1l0,0l0,0
							c-0.7-2.5-2.6-4.5-5.1-5.1l0,0l0,0C491.8,156.6,493.8,154.7,494.4,152.2L494.4,152.2z"/>
						<path class="st6" d="M564.4,198.1L564.4,198.1c0.7,2.5,2.6,4.5,5.1,5.1l0,0l0,0c-2.5,0.7-4.5,2.6-5.1,5.1l0,0l0,0
							c-0.7-2.5-2.6-4.5-5.1-5.1l0,0l0,0C561.8,202.6,563.8,200.6,564.4,198.1L564.4,198.1z"/>
						<path class="st6" d="M306.7,257.9L306.7,257.9c0.7,2.5,2.6,4.5,5.1,5.1l0,0l0,0c-2.5,0.7-4.5,2.6-5.1,5.1l0,0l0,0
							c-0.7-2.5-2.6-4.5-5.1-5.1l0,0l0,0C304.1,262.4,306,260.4,306.7,257.9L306.7,257.9z"/>
						<path class="st6" d="M507.2,269.6L507.2,269.6c0.7,2.5,2.6,4.5,5.1,5.1l0,0l0,0c-2.5,0.7-4.5,2.6-5.1,5.1l0,0l0,0
							c-0.7-2.5-2.6-4.5-5.1-5.1l0,0l0,0C504.6,274,506.6,272.1,507.2,269.6L507.2,269.6z"/>
					</g>
				</g>
				<g class="st5">
					<path class="st6" d="M458.2,353.7c-1.6,0-2.9-1.3-2.9-2.9s1.3-2.9,2.9-2.9s2.9,1.3,2.9,2.9
						C461.1,352.5,459.8,353.7,458.2,353.7z"/>
					<path class="st6" d="M424.8,338.2c-1.6,0-2.9-1.3-2.9-2.9s1.3-2.9,2.9-2.9s2.9,1.3,2.9,2.9S426.4,338.2,424.8,338.2z"/>
					<circle class="st6" cx="451.2" cy="264" r="2.2"/>
					<path class="st6" d="M468.1,103c-1,0-1.8-0.8-1.8-1.8s0.8-1.8,1.8-1.8s1.8,0.8,1.8,1.8S469.1,103,468.1,103z"/>
					<path class="st6" d="M400.4,79.2c-2.1,0-3.8-1.7-3.8-3.8s1.7-3.8,3.8-3.8s3.8,1.7,3.8,3.8S402.5,79.2,400.4,79.2z"/>
					<circle class="st6" cx="349.2" cy="64.9" r="2.4"/>
					<circle class="st6" cx="360.6" cy="295.6" r="3.6"/>
					<path class="st6" d="M331.2,373.3c-1.4,0-2.5-1.1-2.5-2.5s1.1-2.5,2.5-2.5s2.5,1.1,2.5,2.5S332.5,373.3,331.2,373.3z"/>
					<circle class="st6" cx="441.8" cy="382.7" r="1.8"/>
					<path class="st6" d="M474.2,137.1c-2,0-3.7-1.7-3.7-3.7s1.7-3.7,3.7-3.7s3.7,1.7,3.7,3.7C477.9,135.4,476.2,137.1,474.2,137.1z
						"/>
					<path class="st6" d="M314.9,78.5c-1.9,0-3.5-1.6-3.5-3.5s1.6-3.5,3.5-3.5s3.5,1.6,3.5,3.5C318.4,77,316.8,78.5,314.9,78.5z"/>
					<g>
						<path class="st6" d="M458.5,160L458.5,160c-2.5,0.7-4.5,2.6-5.1,5.1l0,0l0,0c-0.7-2.5-2.6-4.5-5.1-5.1l0,0l0,0
							c2.5-0.7,4.5-2.6,5.1-5.1l0,0l0,0C454,157.4,456,159.3,458.5,160L458.5,160z"/>
						<path class="st6" d="M487.9,335.2L487.9,335.2c-2.5,0.7-4.5,2.6-5.1,5.1l0,0l0,0c-0.7-2.5-2.6-4.5-5.1-5.1l0,0l0,0
							c2.5-0.7,4.5-2.6,5.1-5.1l0,0l0,0C483.5,332.6,485.4,334.6,487.9,335.2L487.9,335.2z"/>
						<path class="st6" d="M442,405.2L442,405.2c-2.5,0.7-4.5,2.6-5.1,5.1l0,0l0,0c-0.7-2.5-2.6-4.5-5.1-5.1l0,0l0,0
							c2.5-0.7,4.5-2.6,5.1-5.1l0,0l0,0C437.5,402.6,439.5,404.6,442,405.2L442,405.2z"/>
						<path class="st6" d="M382.2,147.5L382.2,147.5c-2.5,0.7-4.5,2.6-5.1,5.1l0,0l0,0c-0.7-2.5-2.6-4.5-5.1-5.1l0,0l0,0
							c2.5-0.7,4.5-2.6,5.1-5.1l0,0l0,0C377.7,144.9,379.7,146.8,382.2,147.5L382.2,147.5z"/>
						<path class="st6" d="M370.5,348L370.5,348c-2.5,0.7-4.5,2.6-5.1,5.1l0,0l0,0c-0.7-2.5-2.6-4.5-5.1-5.1l0,0l0,0
							c2.5-0.7,4.5-2.6,5.1-5.1l0,0l0,0C366.1,345.4,368,347.4,370.5,348L370.5,348z"/>
					</g>
				</g>
			</g>
			<g>
				<g>
					<path class="st7" d="M329,351.4c-2.5-4.8-3-8.7-1.6-12c1.4-3.4,4.5-4.3,4.6-4.3l0.5,1.8c-0.2,0-2.3,0.7-3.4,3.4
						s-0.5,6.1,1.6,10.3L329,351.4z"/>
					<path class="st8" d="M332.9,332.3l-2.1,2.5l2.7,3.9c0.4,0.5,0.5,1.2,0.5,2v6.4c0,1.8-1.4,3.2-3.2,3.2h-7.1v1.4h7.7
						c2.5,0,4.5-2,4.5-4.5v-7.1c0-0.9-0.2-1.8-0.5-2.5L332.9,332.3z"/>
					<rect x="318.1" y="340.5" class="st9" width="6.1" height="11.1"/>
					<path class="st10" d="M332.4,326.7h-5.7h-8.6h-0.4c-1.1,0-2.1,0.9-2.1,2.1v9.6c0,1.1,0.9,2.1,2.1,2.1h0.4h6.1h0.2
						c0.4,0,0.7-0.2,1.1-0.4l7.9-4.6c0.5-0.4,1.1-1.1,1.1-1.8v-5.2C334.3,327.6,333.4,326.7,332.4,326.7z"/>
					<path class="st9" d="M324.2,325h-3.4v-7.3c0-1.1,0.4-2.3,0.9-3.2l8.4-14.3l3,1.8l-8.4,14.3c-0.4,0.5-0.4,1.1-0.4,1.4v7.3H324.2
						z"/>
					<path class="st11" d="M318.6,437.9c-5.9,0-14.1-4.3-19.3-11.1c-9.6-12.1-7-26.9,6.8-39.4c15.5-14.1,13-35.7,12.8-35.9h3.4
						c0.2,0.9,2.9,23.2-13.9,38.4c-17.8,16.1-10.3,29.6-6.4,34.8c6.1,7.7,15.9,11.4,19.4,9.1c3.7-2.5,4.5-14.8,5.2-25.5
						c0.9-15,3.2-27.8,10.7-28.2v3.4c-4.5,0.2-6.6,13.9-7.3,25c-0.7,12.7-1.4,24.6-6.6,28.2C322.2,437.6,320.4,437.9,318.6,437.9z"
						/>
					<path class="st12" d="M326.7,325.3c0-0.7-0.5-1.2-1.2-1.2h-6.2c-0.7,0-1.2,0.5-1.2,1.2v1.4h8.6v-1.4H326.7z"/>
				</g>
				<path class="st13" d="M399.8,307.7h-3h-43.2c-4.8,0-8.6,3.9-8.6,8.6v53.2H397h11.6v-20.2v-2.7v-21.8v-2.9v-5.7
					C408.6,311.4,404.6,307.7,399.8,307.7z M407,346.7v2.7V368h-10.2h-50.3v-51.7c0-3.9,3.2-7.1,7.1-7.1h43.2h3
					c3.9,0,7.1,3.2,7.1,7.1v5.5v2.9V346.7L407,346.7z"/>
				<path class="st14" d="M373.4,333l-7.7-7.9l0,0l-2.5-0.7l0.7,2.5l0,0l7.7,7.9c-1.6,2.5-1.4,5.9,0.7,8c2.5,2.5,6.6,2.5,9.1,0.2
					c2.5-2.5,2.5-6.6,0.2-9.1C379.1,331.7,375.9,331.6,373.4,333z"/>
				<path class="st15" d="M397.7,354l0.4-0.5l0,0c0.7-0.9,1.2-2,1.8-2.9l0,0l0.4-0.5l0,0c0.2-0.2,0.2-0.5,0.4-0.7
					c0.4-0.7,0.7-1.6,0.9-2.5l0,0v-0.2l0.2-0.4l0,0l0,0l0,0c0.4-1.1,0.5-2.1,0.7-3.4l0,0l0.2-0.7l0,0c0.2-1.2,0.4-2.5,0.4-3.7
					s-0.2-2.5-0.4-3.7l0,0l-0.2-0.7l0,0c-0.2-1.1-0.4-2.3-0.7-3.4l0,0l0,0l0,0l-0.2-0.5l0,0c-0.4-1.1-0.9-2.1-1.2-3.2l0,0l-0.4-0.5
					l0,0c-0.4-0.5-0.5-1.1-0.9-1.6c-0.4-0.4-0.5-0.9-0.9-1.2l0,0l-0.4-0.5l0,0c-1.4-2-3.2-3.7-5.4-5.4l0,0l-0.5-0.4l0,0
					c-0.9-0.7-2-1.2-2.9-1.8l0,0l-0.5-0.4l0,0c-1.1-0.5-2.1-0.9-3.2-1.2l0,0l-0.5-0.2l0,0l0,0l0,0c-1.1-0.4-2.1-0.5-3.4-0.7l0,0
					l-0.7-0.2l0,0c-1.2-0.2-2.5-0.4-3.7-0.4s-2.5,0.2-3.7,0.4l0,0l-0.7,0.2l0,0c-1.1,0.2-2.3,0.4-3.4,0.7l0,0l0,0l0,0l-0.5,0.2l0,0
					c-1.1,0.4-2.1,0.9-3.2,1.2l0,0l-0.5,0.4l0,0c-1.1,0.5-2,1.1-2.9,1.8l0,0l-0.5,0.4l0,0c-0.9,0.7-1.8,1.4-2.7,2.1l0,0l-0.5,0.5
					l0,0c-0.7,0.9-1.4,1.6-2.1,2.7l0,0l-0.4,0.5l0,0c-0.7,0.9-1.2,2-1.8,2.9l0,0l-0.4,0.5l0,0c-0.5,1.1-0.9,2.1-1.2,3.2l0,0
					l-0.2,0.5l0,0l0,0l0,0c-0.4,1.1-0.5,2.1-0.7,3.4l0,0l-0.2,0.7l0,0c-0.2,1.2-0.4,2.5-0.4,3.7s0.2,2.5,0.4,3.7l0,0l0.2,0.7l0,0
					c0.2,1.1,0.4,2.3,0.7,3.4l0,0l0,0l0,0l0.2,0.5l0,0c0.4,1.1,0.9,2.1,1.2,3.2l0,0l0.4,0.5l0,0c0.5,1.1,1.1,2,1.8,2.9l0,0l0.4,0.5
					l0,0c0.7,0.9,1.4,1.8,2.1,2.7l0,0l0.5,0.5l0,0c0.9,0.7,1.6,1.4,2.7,2.1l0,0l0.5,0.4l0,0c0.9,0.7,2,1.2,2.9,1.8l0,0l0.5,0.4l0,0
					c1.1,0.5,2.1,0.9,3.2,1.2l0,0l0.5,0.2l0,0l0,0l0,0c1.1,0.4,2.1,0.5,3.4,0.7l0,0l0.7,0.2l0,0c1.1,0.2,2.3,0.4,3.4,0.4l0,0h0.7
					l0,0c1.1,0,2.3-0.2,3.4-0.4l0,0l0.7-0.2l0,0c1.1-0.2,2.3-0.4,3.4-0.7l0,0l0,0l0,0l0.5-0.2l0,0c1.1-0.4,2.1-0.9,3.2-1.2l0,0
					l0.5-0.4l0,0c1.1-0.5,2-1.1,2.9-1.8l0,0l0.5-0.4l0,0c0.9-0.7,1.8-1.4,2.7-2.1l0,0l0.5-0.5l0,0c0.5-0.5,1.1-1.1,1.4-1.6
					C397.1,354.8,397.3,354.4,397.7,354L397.7,354z M397,352.6l-1.4-1.1c-0.2,0.2-0.4,0.4-0.4,0.5l1.6,1.1c-0.5,0.7-1.2,1.4-1.8,2.1
					l-2.5-2.5c-0.4,0.4-0.7,0.7-0.9,0.9l2.5,2.5c-0.7,0.7-1.4,1.2-2.1,1.8l-1.1-1.6c-0.2,0.2-0.4,0.4-0.5,0.4l1.1,1.4
					c-0.9,0.5-1.8,1.2-2.7,1.6l-0.9-1.6c-0.2,0.2-0.4,0.2-0.5,0.4l0.9,1.6c-0.9,0.5-2,0.9-2.9,1.2l-0.5-1.8c-0.2,0-0.4,0.2-0.7,0.2
					l0.5,1.8c-1.1,0.4-2,0.5-3,0.7l-0.4-1.8c-0.2,0-0.5,0-0.7,0.2l0.4,2c-0.9,0.2-1.8,0.2-2.9,0.2v-3.6c-0.2,0-0.5,0-0.7,0
					c-0.2,0-0.5,0-0.7,0v3.6c-0.9,0-2-0.2-2.9-0.2l0.4-2c-0.2,0-0.5,0-0.7-0.2l-0.4,1.8c-1.1-0.2-2.1-0.4-3-0.7l0.5-1.8
					c-0.2,0-0.4-0.2-0.7-0.2l-0.5,1.8c-1.1-0.4-2-0.7-2.9-1.2l0.9-1.6c-0.2-0.2-0.4-0.2-0.5-0.4l-0.9,1.6c-0.9-0.5-1.8-1.1-2.7-1.6
					l1.1-1.4c-0.2-0.2-0.4-0.4-0.5-0.4l-1.1,1.6c-0.7-0.5-1.4-1.2-2.1-1.8l2.5-2.5c-0.4-0.4-0.7-0.7-0.9-0.9l-2.5,2.5
					c-0.7-0.7-1.2-1.4-1.8-2.1l1.6-1.1c-0.2-0.2-0.4-0.4-0.4-0.5l-1.4,1.1c-0.5-0.9-1.2-1.8-1.6-2.7l1.6-0.9
					c-0.2-0.2-0.2-0.4-0.4-0.5l-1.6,0.9c-0.5-0.9-0.9-2-1.2-2.9l1.8-0.5c0-0.2-0.2-0.4-0.2-0.7l-1.8,0.5c-0.4-1.1-0.5-2-0.7-3
					l1.8-0.4c0-0.2,0-0.5-0.2-0.7l-2,0.4c-0.2-0.9-0.2-1.8-0.2-2.9h3.6c0-0.2,0-0.5,0-0.7s0-0.5,0-0.7h-3.6c0-0.9,0.2-2,0.2-2.9
					l2,0.4c0-0.2,0-0.5,0.2-0.7l-1.8-0.4c0.2-1.1,0.4-2.1,0.7-3l1.8,0.5c0-0.2,0.2-0.4,0.2-0.7l-1.8-0.5c0.4-1.1,0.7-2,1.2-2.9
					l1.6,0.9c0.2-0.2,0.2-0.4,0.4-0.5l-1.6-0.9c0.5-0.9,1.1-1.8,1.6-2.7l1.4,1.1c0.2-0.2,0.4-0.4,0.4-0.5l-1.6-1.1
					c0.5-0.7,1.2-1.4,1.8-2.1l2.5,2.5c0.4-0.4,0.7-0.7,0.9-0.9l-2.5-2.5c0.7-0.7,1.4-1.2,2.1-1.8l1.1,1.6c0.2-0.2,0.4-0.4,0.5-0.4
					l-1.1-1.4c0.9-0.5,1.8-1.2,2.7-1.6l0.9,1.6c0.2-0.2,0.4-0.2,0.5-0.4l-0.9-1.6c0.9-0.5,2-0.9,2.9-1.2l0.5,1.8
					c0.2,0,0.4-0.2,0.7-0.2l-0.5-1.8c1.1-0.4,2-0.5,3-0.7l0.4,1.8c0.2,0,0.5,0,0.7-0.2l-0.4-2c0.9-0.2,1.8-0.2,2.9-0.2v3.6
					c0.2,0,0.5,0,0.7,0c0.2,0,0.5,0,0.7,0v-3.6c0.9,0,2,0.2,2.9,0.2l-0.4,2c0.2,0,0.5,0,0.7,0.2l0.4-1.8c1.1,0.2,2.1,0.4,3,0.7
					l-0.5,1.8c0.2,0,0.4,0.2,0.7,0.2l0.5-1.8c1.1,0.4,2,0.7,2.9,1.2l-0.9,1.6c0.2,0.2,0.4,0.2,0.5,0.4l0.9-1.6
					c0.9,0.5,1.8,1.1,2.7,1.6l-1.1,1.4c0.2,0.2,0.4,0.4,0.5,0.4l1.1-1.6c0.7,0.5,1.4,1.2,2.1,1.8l-2.5,2.5c0.4,0.4,0.7,0.7,0.9,0.9
					l2.5-2.5c0.7,0.7,1.2,1.4,1.8,2.1l-1.6,1.1c0.2,0.2,0.4,0.4,0.4,0.5l1.4-1.1c0.2,0.2,0.2,0.4,0.4,0.5c0.5,0.7,0.9,1.4,1.4,2.3
					l-1.6,0.9c0.2,0.2,0.2,0.4,0.4,0.5l1.6-0.9c0.5,0.9,0.9,2,1.2,2.9l-1.8,0.5c0,0.2,0.2,0.4,0.2,0.7l1.8-0.5c0.4,1.1,0.5,2,0.7,3
					l-1.8,0.4c0,0.2,0,0.5,0.2,0.7l2-0.4c0.2,0.9,0.2,1.8,0.2,2.9h-3.6c0,0.2,0,0.5,0,0.7s0,0.5,0,0.7h3.6c0,0.9-0.2,2-0.2,2.9
					l-2-0.4c0,0.2,0,0.5-0.2,0.7l1.8,0.4c-0.2,1.1-0.4,2.1-0.7,3l-1.8-0.5c0,0.2-0.2,0.4-0.2,0.7l1.8,0.5v0.2
					c-0.4,0.9-0.7,1.8-1.1,2.7l0,0h-0.2l-1.6-0.7c-0.2,0.2-0.2,0.4-0.4,0.5l0.4,0.2l1.4,0.7C398,350.8,397.5,351.7,397,352.6
					L397,352.6z"/>
				<path class="st12" d="M400.2,349.4C400.2,349.4,400.2,349.2,400.2,349.4L400.2,349.4L400.2,349.4z"/>
				<g>
					<path class="st14" d="M416.8,434.5V316.8c0-9.5-7.7-17-17-17.1l0,0H354c-9.5,0-17.1,7.7-17.1,17.1v117.8H416.8z M343.6,316.2
						c0-5.5,4.5-10.2,10.2-10.2H400c5.5,0,10.2,4.5,10.2,10.2V371h-66.4L343.6,316.2L343.6,316.2z"/>
				</g>
				<g>
					<path class="st1" d="M365.7,395.6c0-0.4-0.2-0.7-0.2-1.1c-0.2-0.4-0.4-0.7-0.5-0.9c-0.2-0.2-0.5-0.5-0.9-0.5
						c-0.4-0.2-0.9-0.2-1.4-0.2c-1.1,0-1.8,0.4-2.3,0.9s-0.7,1.4-0.7,2.5v7.7c0,1.1,0.4,2,0.7,2.5c0.5,0.5,1.2,0.9,2.3,0.9
						c0.9,0,1.8-0.4,2.3-0.9c0.5-0.5,0.9-1.4,0.9-2.5v-2.1h-2.7c-0.4,0-0.5-0.2-0.7-0.4c-0.2-0.2-0.2-0.5-0.2-0.7
						c0-0.4,0-0.5,0.2-0.7c0.2-0.2,0.4-0.4,0.7-0.4h4.5c0.4,0,0.5,0.2,0.7,0.4c0.2,0.2,0.2,0.4,0.2,0.7v3.4c0,1.1-0.2,2-0.5,2.7
						c-0.4,0.7-0.7,1.4-1.2,1.8c-0.5,0.5-1.2,0.7-1.8,1.1c-0.7,0.2-1.4,0.4-2.3,0.4s-1.6-0.2-2.3-0.4s-1.2-0.5-1.8-1.1
						c-0.5-0.5-0.9-1.1-1.2-1.8c-0.4-0.7-0.4-1.6-0.4-2.7v-7.7c0-1.1,0.2-2,0.5-2.7s0.7-1.4,1.2-1.8c0.5-0.5,1.1-0.7,1.8-1.1
						c0.7-0.2,1.4-0.4,2.3-0.4s1.6,0.2,2.3,0.4c0.7,0.2,1.4,0.5,2,0.9c0.5,0.4,0.9,0.9,1.2,1.6c0.4,0.5,0.4,1.2,0.4,2
						c0,0.5-0.2,0.9-0.4,1.1c-0.2,0.2-0.5,0.4-1.1,0.4c-0.4,0-0.7,0-0.9-0.2C365.7,396.2,365.7,396,365.7,395.6z"/>
					<path class="st1" d="M371.8,409.5c-0.2,0-0.4,0-0.5,0c-0.2,0-0.4-0.2-0.5-0.2c-0.2-0.2-0.4-0.2-0.4-0.4
						c-0.2-0.2-0.2-0.4-0.2-0.5c0-0.2,0-0.2,0-0.2l5.2-17c0.2-0.4,0.4-0.5,0.7-0.7c0.4-0.2,0.7-0.2,1.1-0.2c0.4,0,0.7,0,1.1,0.2
						c0.4,0.2,0.5,0.4,0.7,0.7l5.2,17c0,0.2,0,0.2,0,0.2c0,0.2,0,0.4-0.2,0.4c-0.2,0.2-0.2,0.4-0.4,0.4c-0.2,0.2-0.4,0.2-0.5,0.2
						c-0.2,0-0.4,0-0.5,0c-0.2,0-0.4,0-0.5-0.2c-0.2,0-0.4-0.2-0.4-0.4l-1.1-3.7h-6.4l-1.1,3.7c0,0.2-0.2,0.4-0.4,0.4
						C372.2,409.5,372,409.5,371.8,409.5z M379.7,402.9L377,394l-2.7,8.9H379.7z"/>
					<path class="st1" d="M390.9,407.2c0.9,0,1.8-0.2,2.3-0.7s0.9-1.1,0.9-2.1c0-0.7-0.2-1.4-0.5-1.8c-0.4-0.5-0.9-0.9-1.6-1.2
						c-0.5-0.4-1.2-0.5-2.1-0.9c-0.7-0.4-1.4-0.7-2.1-1.1c-0.5-0.4-1.1-0.9-1.6-1.6c-0.4-0.7-0.5-1.4-0.5-2.5c0-0.9,0.2-1.8,0.5-2.3
						c0.4-0.7,0.9-1.2,1.4-1.6c0.5-0.4,1.2-0.7,2-0.9c0.7-0.2,1.4-0.2,2.1-0.2c0.4,0,0.9,0,1.4,0c0.5,0,1.1,0.2,1.6,0.4
						c0.5,0.2,0.9,0.4,1.2,0.5c0.4,0.2,0.5,0.5,0.5,0.9c0,0.2,0,0.4,0,0.5c0,0.2-0.2,0.4-0.2,0.5c-0.2,0.2-0.2,0.4-0.4,0.4
						c-0.2,0.2-0.4,0.2-0.5,0.2c-0.2,0-0.4,0-0.5-0.2c-0.2-0.2-0.4-0.2-0.7-0.4c-0.4-0.2-0.5-0.2-0.9-0.4s-0.9-0.2-1.4-0.2
						c-0.9,0-1.8,0.2-2.3,0.5s-0.9,0.9-0.9,1.8c0,0.7,0.2,1.2,0.5,1.6c0.4,0.4,0.9,0.7,1.6,1.1c0.5,0.4,1.2,0.5,2.1,0.9
						c0.7,0.4,1.4,0.7,2.1,1.1c0.5,0.5,1.1,1.1,1.6,1.8c0.5,0.7,0.5,1.6,0.5,2.9c0,0.9-0.2,1.8-0.4,2.5c-0.4,0.7-0.7,1.2-1.2,1.8
						c-0.5,0.5-1.2,0.9-2,1.1c-0.7,0.2-1.6,0.4-2.3,0.4c-0.9,0-1.6-0.2-2.3-0.4c-0.7-0.2-1.2-0.5-1.8-0.7c-0.5-0.2-0.9-0.7-1.2-1.1
						c-0.4-0.4-0.4-0.7-0.4-1.1c0-0.2,0-0.4,0-0.5s0.2-0.4,0.4-0.5c0.2-0.2,0.2-0.4,0.4-0.4c0.2-0.2,0.4-0.2,0.5-0.2
						c0.2,0,0.5,0.2,0.7,0.4s0.5,0.5,0.9,0.7c0.4,0.2,0.7,0.5,1.2,0.7C389.5,407,390.2,407.2,390.9,407.2z"/>
				</g>
				<path class="st16" d="M420.3,442h-87.3v-3.6c0-2.5,2.1-4.6,4.6-4.6h78c2.5,0,4.6,2.1,4.6,4.6L420.3,442L420.3,442z"/>
			</g>
			<g>
				<g>
					<path class="st17" d="M558,359h-53.2c-6.7,0-12.1-5.4-12.1-12.1V202.4c0-6.7,5.4-12.1,12.1-12.1H558c6.7,0,12.1,5.4,12.1,12.1
						V347C570.1,353.7,564.7,359,558,359z"/>
					<path class="st1" d="M563.3,351.4h-63.9c-1.9,0-3.5-1.5-3.5-3.5V202.4c0-1.9,1.5-3.5,3.5-3.5h63.9c1.9,0,3.5,1.5,3.5,3.5v145.6
						C566.7,349.8,565.2,351.4,563.3,351.4z"/>
				</g>
				<g>
					<rect x="504.1" y="214.3" class="st18" width="57" height="3.5"/>
					<rect x="504.1" y="223.4" class="st18" width="57" height="3.5"/>
					<rect x="504.1" y="232.5" class="st18" width="41.8" height="3.5"/>
				</g>
				<g>
					<rect x="504.1" y="317" class="st18" width="57" height="3.5"/>
					<rect x="504.1" y="326.1" class="st18" width="57" height="3.5"/>
					<rect x="504.1" y="335.1" class="st18" width="57" height="3.5"/>
				</g>
				<g>
					<polygon class="st19" points="507.3,223.6 556.4,223.6 556.4,324.3 507.3,324.3 					"/>
					<path class="st20" d="M511.1,236.6v74.8v9.4h9.4h22.6h9.4v-9.4v-74.8v-9.4h-9.4h-22.6h-9.4V236.6L511.1,236.6z M543.7,230.3
						c1.1,2.8,3.3,5,6.2,5.8v75.6c-2.9,0.8-5.1,3-6.2,5.8l0,0h-23.8l0,0c-1.1-3-3.7-5.4-6.8-6.1c0.2,0.1,0.4,0.1,0.7,0.2v-75.6
						c-0.2,0.1-0.4,0.1-0.7,0.2c3.2-0.7,5.8-3,6.8-6.1l0,0H543.7L543.7,230.3z"/>
					<circle class="st21" cx="531.8" cy="274" r="13.5"/>
				</g>
			</g>
			<g>
				
					<ellipse transform="matrix(0.9292 -0.3696 0.3696 0.9292 -97.772 112.2641)" class="st8" cx="244.1" cy="311.3" rx="6.9" ry="2.9"/>
				<g>
					<path class="st22" d="M226.8,237.8c3.3-1.4,5-5.1,3.5-8.3l-3.2-7.1c0-0.3,0.5-2,1.8-3.8l4.8-6.3c2.1-2.9,1.5-6.8-1.5-8.7
						s-7.1-1.4-9.2,1.5l-4.8,6.3c-1.5,2-6.3,9.2-3.2,16.1l3.2,7.1C219.4,237.6,223.3,239.1,226.8,237.8z"/>
					<path class="st22" d="M164.5,204.7c0.6-0.3,1.4-0.6,1.8-1.2l23-19.9c2.7-2.4,2.9-6.3,0.5-8.9c-2.4-2.6-6.6-2.7-9.3-0.5
						l-23,19.9c-2.7,2.4-2.9,6.3-0.5,8.9C159,205.1,162,205.8,164.5,204.7z"/>
					<path class="st22" d="M171.5,221.2c0.8-0.3,1.4-0.8,2-1.2l44.4-40.2c2.7-2.4,2.7-6.3,0.3-8.9c-2.6-2.6-6.8-2.6-9.3-0.3
						l-44.4,40.2c-2.7,2.4-2.7,6.3-0.3,8.9C166,221.7,169.1,222.1,171.5,221.2z"/>
					<path class="st22" d="M177.9,236c0.6-0.3,1.2-0.6,1.8-1.1l45.6-38.2c2.7-2.3,3-6.3,0.6-8.9c-2.4-2.6-6.6-2.9-9.3-0.6L171,225.5
						c-2.7,2.3-3,6.3-0.6,8.9C172.2,236.4,175.4,236.9,177.9,236z"/>
					<path class="st23" d="M216,180.9c2.7-1.1,4.4-3.8,3.9-6.6c-0.5-3.5-3.9-5.9-7.5-5.4l-37,5c-3.6,0.5-6.2,3.6-5.6,7.1
						c0.5,3.5,3.9,5.9,7.5,5.4l37-5C214.8,181.4,215.4,181.2,216,180.9z"/>
					<path class="st23" d="M223.3,197.6c2.7-1.1,4.4-3.8,3.9-6.6c-0.5-3.5-3.8-5.9-7.4-5.4l-60,7.5c-3.6,0.5-6.2,3.6-5.7,7.1
						c0.5,3.5,3.8,5.9,7.4,5.4l60-7.5C222.3,198.1,222.9,197.9,223.3,197.6z"/>
					<path class="st23" d="M230.9,214.3c2.7-1.1,4.4-3.8,3.9-6.6c-0.5-3.5-3.8-5.9-7.4-5.6l-59.3,6.8c-3.6,0.5-6.2,3.6-5.7,7.1
						c0.5,3.5,3.8,5.9,7.4,5.6l59.3-6.8C229.7,214.8,230.3,214.6,230.9,214.3z"/>
					<path class="st23" d="M198.5,249.2c3.3-1.4,5-5.1,3.5-8.3l-3.2-7.1c-3.2-6.9-11.7-8.6-14.4-8.9l-9.3-1.2
						c-3.6-0.5-6.9,2-7.4,5.4c-0.5,3.5,2.1,6.6,5.7,7.1l9.2,1.2c2.3,0.3,3.8,1.2,4.1,1.5l3.2,6.9
						C191.3,249.1,195.2,250.6,198.5,249.2z"/>
					<polygon class="st9" points="251.9,247.9 243.6,229.4 182.3,254.2 190.6,272.7 					"/>
					<path class="st24" d="M247.6,277.8c4.5-10.4,6.5-20.5,4.2-29.9l-61.2,24.8c5.6,8.1,14.6,13.7,25.7,17.9L247.6,277.8z"/>
					<polygon class="st9" points="249.8,282.7 247.6,277.8 216.3,290.6 218.4,295.4 					"/>
					<polygon class="st24" points="237.2,224.7 239.9,230.9 186,252.8 183.3,246.7 					"/>
					<polygon class="st25" points="255.1,302.9 246.7,284 221.7,294.2 230.1,313 					"/>
					<polygon class="st12" points="255.1,302.9 253,307.7 235.1,314.9 230.1,313 					"/>
					<path class="st12" d="M248,289.2c0.9-0.3,1.2-1.2,1.1-2l0,0c-0.3-0.8-1.2-1.2-2-0.9l-24.5,8c-0.9,0.3-1.2,1.2-1.1,2l0,0
						c0.3,0.8,1.2,1.2,2,0.9L248,289.2z"/>
					<path class="st12" d="M250.1,293.7c0.9-0.3,1.2-1.2,1.1-2l0,0c-0.3-0.8-1.2-1.2-2-0.9l-24.5,8c-0.9,0.3-1.2,1.2-1.1,2l0,0
						c0.3,0.8,1.2,1.2,2,0.9L250.1,293.7z"/>
					<path class="st12" d="M252.1,298.2c0.9-0.3,1.2-1.2,1.1-2l0,0c-0.3-0.8-1.2-1.2-2-0.9l-24.5,8c-0.9,0.3-1.2,1.2-1.1,2l0,0
						c0.3,0.8,1.2,1.2,2,0.9L252.1,298.2z"/>
					<path class="st12" d="M254.2,302.7c0.9-0.3,1.2-1.2,1.1-2l0,0c-0.3-0.8-1.2-1.2-2-0.9l-24.5,8c-0.9,0.3-1.2,1.2-1.1,2l0,0
						c0.3,0.8,1.2,1.2,2,0.9L254.2,302.7z"/>
				</g>
			</g>
			<g>
				<g>
					<g>
						<g>
							<polygon class="st7" points="348.5,59.4 372,74.3 399.1,63.6 399.8,58.4 349.2,54.3 							"/>
							
								<ellipse transform="matrix(0.9328 -0.3604 0.3604 0.9328 4.8786 147.103)" class="st26" cx="396.9" cy="60.5" rx="9.6" ry="9.3"/>
							
								<ellipse transform="matrix(0.9328 -0.3604 0.3604 0.9328 3.158 130.3938)" class="st26" cx="351.2" cy="56.7" rx="9.6" ry="9.3"/>
							<polygon class="st11" points="365.4,81.1 376.9,82.1 378.3,70.4 366.8,69.4 							"/>
							<path class="st9" d="M343.3,170.6l34.8,2.9l10.1-86.3c0.5-4.2-2.5-8-6.9-8.3l-19.3-1.5c-4.4-0.3-8.3,2.7-8.8,6.9L343.3,170.6
								z"/>
							<polygon class="st26" points="427.4,133.3 456.8,135.7 457.8,127.1 428.4,124.7 							"/>
							<path class="st9" d="M386.3,131.5l71.6-4.2l0.2-1c1.4-12.2-7.6-22.8-20.1-23.9L390.3,97L386.3,131.5z"/>
							
								<ellipse transform="matrix(0.6045 -0.7966 0.7966 0.6045 55.8456 337.544)" class="st24" cx="367.9" cy="112.5" rx="30.8" ry="29.6"/>
							
								<ellipse transform="matrix(5.570529e-02 -0.9984 0.9984 5.570529e-02 285.9675 435.474)" class="st10" cx="373.2" cy="66.6" rx="9.8" ry="14.9"/>
							<path class="st11" d="M336.2,180.2l46.7,3.9l0.5-4.2c0.3-3.2-2-6.1-5.4-6.3l-34.7-2.9c-3.4-0.3-6.3,2.2-6.8,5.4L336.2,180.2z
								"/>
							
								<ellipse transform="matrix(0.9328 -0.3604 0.3604 0.9328 4.0183 138.7469)" class="st26" cx="374.1" cy="58.6" rx="9.6" ry="9.3"/>
							<g>
								<path class="st27" d="M348,48.1c-2.5,1.4-4.4,4.1-4.7,7.1c-0.5,4.9,3.2,9.1,8.3,9.5c3.2,0.2,6.1-1.2,8-3.4
									c-1.9,3-5.4,5.1-9.1,4.7c-5.2-0.3-9.1-4.9-8.6-10C342.1,52.3,344.6,49.3,348,48.1z"/>
							</g>
							<g>
								<path class="st27" d="M370.9,49.9c-2.5,1.4-4.4,4.1-4.7,7.1c-0.5,4.9,3.2,9.1,8.3,9.5c3.2,0.2,6.1-1.2,8-3.4
									c-1.9,3-5.4,5.1-9.1,4.7c-5.2-0.3-9.1-4.9-8.6-10C364.9,54.2,367.5,51.3,370.9,49.9z"/>
							</g>
							<g>
								<path class="st27" d="M393.7,51.8c-2.5,1.4-4.4,4.1-4.7,7.1c-0.5,4.9,3.2,9.1,8.3,9.5c3.2,0.2,6.1-1.2,8-3.4
									c-1.9,3-5.4,5.1-9.1,4.7c-5.2-0.3-9.1-4.9-8.6-10C387.8,56,390.3,53.2,393.7,51.8z"/>
							</g>
							<g class="st28">
								<path d="M347.5,135.4c-6.4-14-5.4-30.4,2.5-44c-0.2,1.4-0.5,2.7-0.7,4.2c-3.2,27.7,9.1,53.3,29.9,67.8l-1.2,10.1H378
									c3.4,0.3,5.8,3,5.4,6.3l-0.5,4.2l-46.7-3.9l0.5-4.2c0.3-3.2,3.4-5.6,6.8-5.4h-0.2L347.5,135.4z"/>
							</g>
						</g>
					</g>
					<path class="st1" d="M439.9,108.1c-1.7,2-0.5,5.8,2.7,8.3c3.2,2.5,7.3,3,9.1,0.8c1.7-2,0.5-5.8-2.7-8.3
						C445.6,106.4,441.6,105.9,439.9,108.1z"/>
				</g>
				<g>
					<path class="st29" d="M439.2,143.7c0,0,12.2,16.6,11.5,28.6c-0.3,7.8-6.6,12.5-13.7,12.3c-7.3-0.2-12.9-5.2-12.3-13
						C425.2,159.6,439.2,143.7,439.2,143.7z"/>
					<g class="st30">
						<path d="M438,144.8c-3.9,6.4-8.1,15.2-8.6,22.7c-0.5,9,5.1,14.7,12.3,14.9c1.4,0,2.7-0.2,3.9-0.5c-2.4,1.9-5.6,2.9-8.8,2.7
							c-7.3-0.2-12.9-5.2-12.3-13C425,161.6,434.8,148.9,438,144.8z"/>
					</g>
					
						<ellipse transform="matrix(7.010558e-02 -0.9975 0.9975 7.010558e-02 242.9996 605.464)" class="st1" cx="446.3" cy="172.4" rx="4.4" ry="2.5"/>
				</g>
			</g>
		</g>
	</g>
</g>
</svg>
