<svg xmlns="http://www.w3.org/2000/svg" width="87" height="87" viewBox="0 0 87 87">
  <g id="Group_3296" data-name="Group 3296" transform="translate(0.114 -0.237)">
    <rect id="Rectangle_1017" data-name="Rectangle 1017" width="87" height="87" rx="4" transform="translate(-0.114 0.237)" fill="none"/>
    <g id="network" transform="translate(24.933 25.434)">
      <path id="Path_3297" data-name="Path 3297" d="M296.443,14.629a5.047,5.047,0,0,0-5.045,5.045,4.957,4.957,0,0,0,.525,2.179l-3.269,2.422,1.413,1.937,3.39-2.5a5.112,5.112,0,0,0,2.986,1.009,5.045,5.045,0,1,0,0-10.09Zm0,7.668a2.623,2.623,0,1,1,2.623-2.623A2.618,2.618,0,0,1,296.443,22.3Z" transform="translate(-266.699 -13.499)" fill="#4dcfe0"/>
      <path id="Path_3298" data-name="Path 3298" d="M194.356,280.5l-.161-6.215-2.422.081.161,6.256a5.05,5.05,0,1,0,6.5,4.843A5.063,5.063,0,0,0,194.356,280.5Zm-.969,7.587a2.623,2.623,0,1,1,2.623-2.623A2.618,2.618,0,0,1,193.388,288.089Z" transform="translate(-174.137 -253.098)" fill="#4dcfe0"/>
      <path id="Path_3299" data-name="Path 3299" d="M36.123,17.112a5.031,5.031,0,0,0-3.955,1.937l-2.381-1.09A6.868,6.868,0,0,0,30.11,15.9a6.628,6.628,0,0,0-9.565-5.933L18.89,7.951A5.037,5.037,0,0,0,14.774,0,5.116,5.116,0,0,0,9.688,5.085a5.047,5.047,0,0,0,5.045,5.045,4.852,4.852,0,0,0,2.3-.565l1.574,1.9A6.505,6.505,0,0,0,16.872,15.9a5.939,5.939,0,0,0,.161,1.453l-3.35,1.372a5.034,5.034,0,1,0,.847,2.785,2.485,2.485,0,0,0-.04-.525l3.471-1.413a6.577,6.577,0,0,0,10.614.484l2.543,1.17a6.629,6.629,0,0,0-.081.928A5.108,5.108,0,0,0,36.123,27.2a5.045,5.045,0,1,0,0-10.09Zm-21.39-9.4a2.623,2.623,0,1,1,2.623-2.623A2.618,2.618,0,0,1,14.733,7.708ZM9.487,24.134a2.623,2.623,0,1,1,2.623-2.623A2.618,2.618,0,0,1,9.487,24.134Zm14-4.036a4.2,4.2,0,1,1,4.2-4.2A4.22,4.22,0,0,1,23.491,20.1ZM36.123,24.78a2.623,2.623,0,1,1,2.623-2.623A2.618,2.618,0,0,1,36.123,24.78Z" transform="translate(-4.442)" fill="#00a7fe"/>
    </g>
  </g>
</svg>
