<svg height="512pt" viewBox="-53 0 511 512" width="512pt" xmlns="http://www.w3.org/2000/svg" xmlns:xlink="http://www.w3.org/1999/xlink"><linearGradient id="a" gradientUnits="userSpaceOnUse" x1=".4997" x2="406.3883" y1="256" y2="256"><stop offset="0" stop-color="#00f2fe"/><stop offset=".0208" stop-color="#03effe"/><stop offset=".2931" stop-color="#24d2fe"/><stop offset=".5538" stop-color="#3cbdfe"/><stop offset=".7956" stop-color="#4ab0fe"/><stop offset="1" stop-color="#4facfe"/></linearGradient><path d="m406.386719 432c0 44.113281-35.886719 80-80 80h-245.886719c-44.113281 0-80-35.886719-80-80v-313c0-44.113281 35.886719-80 80-80h3.800781c8.53125-22.757812 30.5-39 56.199219-39 33.085938 0 60 26.914062 60 60v141c0 33.085938-26.914062 60-60 60s-60-26.914062-60-60v-62c0-11.046875 8.953125-20 20-20s20 8.953125 20 20v62c0 11.027344 8.972656 20 20 20s20-8.972656 20-20v-141c0-11.027344-8.972656-20-20-20-9.351562 0-17.199219 6.460938-19.378906 15.144531.242187 1.25.378906 2.535157.378906 3.855469 0 5.777344-2.464844 10.96875-6.382812 14.617188-3.648438 3.917968-8.839844 6.382812-14.617188 6.382812-2.175781 0-4.261719-.359375-6.222656-1h-13.777344c-22.054688 0-40 17.945312-40 40v313c0 22.054688 17.945312 40 40 40h245.890625c22.054687 0 40-17.945312 40-40 0-11.046875 8.953125-20 20-20 11.042969 0 19.996094 8.953125 19.996094 20zm-306.886719-50c-11.046875 0-20 8.953125-20 20s8.953125 20 20 20h146c11.046875 0 20-8.953125 20-20s-8.953125-20-20-20zm226-61c0-11.046875-8.953125-20-20-20h-206c-11.046875 0-20 8.953125-20 20s8.953125 20 20 20h206c11.046875 0 20-8.953125 20-20zm.886719-282h-66.886719c-11.046875 0-20 8.953125-20 20s8.953125 20 20 20h66.886719c22.058593 0 40 17.945312 40 40v213c0 11.046875 8.957031 20 20 20 11.046875 0 20-8.953125 20-20v-213c0-44.113281-35.886719-80-80-80zm0 0" fill="url(#a)"/></svg>