<svg xmlns="http://www.w3.org/2000/svg" width="15.997" height="22.769" viewBox="0 0 15.997 22.769"><defs><style>.a{fill:#0084e5;stroke:#0084e5;stroke-width:0.5px;}</style></defs><g transform="translate(0.25 0.25)"><g transform="translate(0)"><path class="a" d="M84.436.183a.444.444,0,0,0-.717,0c-.3.415-7.39,10.206-7.39,14.338a7.748,7.748,0,1,0,15.5,0C91.826,10.389,84.738.6,84.436.183Zm-.359,21.2a6.869,6.869,0,0,1-6.861-6.861c0-1.568,1.24-4.444,3.585-8.316,1.321-2.181,2.655-4.116,3.276-5,.62.88,1.952,2.811,3.273,4.991,2.347,3.875,3.588,6.753,3.588,8.321A6.869,6.869,0,0,1,84.077,21.381Z" transform="translate(-76.329)"/><path class="a" d="M158.821,228.3v-1.974H160.8a.444.444,0,0,0,.444-.444v-3.016a.444.444,0,0,0-.444-.444h-1.974v-1.974a.444.444,0,0,0-.444-.444h-3.016a.444.444,0,0,0-.444.444v1.974h-1.974a.444.444,0,0,0-.444.444v3.016a.444.444,0,0,0,.444.444h1.974V228.3a.444.444,0,0,0,.444.444h3.016A.444.444,0,0,0,158.821,228.3Zm-.887-2.418v1.974H155.8v-1.974a.444.444,0,0,0-.444-.444h-1.974V223.3h1.974a.444.444,0,0,0,.444-.444v-1.974h2.129v1.974a.444.444,0,0,0,.444.444h1.974v2.129h-1.974A.444.444,0,0,0,157.934,225.878Z" transform="translate(-149.121 -210.241)"/></g></g></svg>