<svg xmlns="http://www.w3.org/2000/svg" width="40.642" height="40.642" viewBox="0 0 40.642 40.642">
  <g id="Group_2040" data-name="Group 2040" transform="translate(0 0)">
    <ellipse id="Ellipse_293" data-name="Ellipse 293" cx="20.321" cy="20.321" rx="20.321" ry="20.321" fill="#4a696f" opacity="0.2"/>
    <g id="bus" transform="translate(9.526 12.652)">
      <path id="Path_1847" data-name="Path 1847" d="M21.746,10.193l-1.121.612,1.121.663V12.1a1.909,1.909,0,0,1-1.911,1.911H1.911A1.909,1.909,0,0,1,0,12.1V10.193l.688-.637L0,8.919V7.645L.714,6.078,0,2.548V1.911A1.909,1.909,0,0,1,1.911,0H17.77a1.9,1.9,0,0,1,1.707,1.057l.752,1.491-2.179,3.7,3.7,2.676Zm0,0" fill="#e63950"/>
      <path id="Path_1848" data-name="Path 1848" d="M208.464,10.193l-1.121.612,1.121.663V12.1a1.909,1.909,0,0,1-1.911,1.911H195V0h9.488A1.9,1.9,0,0,1,206.2,1.057l.752,1.491-2.179,3.7,3.7,2.676Zm0,0" transform="translate(-186.718)" fill="#cc2e43"/>
      <path id="Path_1849" data-name="Path 1849" d="M21.746,65.1v1.274H17.031L15.757,65.1H0V60H20.23l.637,1.274-.268,2.2Zm0,0" transform="translate(0 -57.452)" fill="#cc2e43"/>
      <path id="Path_1850" data-name="Path 1850" d="M208.464,65.1v1.274h-4.714L202.475,65.1H195V60h11.948l.637,1.274-.268,2.2Zm0,0" transform="translate(-186.718 -57.452)" fill="#ae2538"/>
      <path id="Path_1851" data-name="Path 1851" d="M454.548,240v1.274h-1.911a.637.637,0,1,1,0-1.274Zm0,0" transform="translate(-432.803 -229.807)" fill="#c6e2e7"/>
      <path id="Path_1852" data-name="Path 1852" d="M14.016,210.637a.631.631,0,0,1-.637.637H0V210H13.379A.631.631,0,0,1,14.016,210.637Zm0,0" transform="translate(0 -201.081)" fill="#ffa78f"/>
      <path id="Path_1853" data-name="Path 1853" d="M61.911,273.823a1.911,1.911,0,1,1,1.911-1.911A1.913,1.913,0,0,1,61.911,273.823Zm0,0" transform="translate(-57.452 -258.533)" fill="#4a696f"/>
      <path id="Path_1854" data-name="Path 1854" d="M151.911,270a1.911,1.911,0,1,0,1.911,1.911A1.909,1.909,0,0,0,151.911,270Zm0,0" transform="translate(-143.629 -258.533)" fill="#4a696f"/>
      <path id="Path_1855" data-name="Path 1855" d="M363.911,273.823a1.911,1.911,0,1,1,1.911-1.911A1.913,1.913,0,0,1,363.911,273.823Zm0,0" transform="translate(-346.625 -258.533)" fill="#384949"/>
      <path id="Path_1856" data-name="Path 1856" d="M397.033,91.631a.694.694,0,0,1,.064.28v1.911H392.9l-.9-.9V90h4.218Zm0,0" transform="translate(-375.351 -86.177)" fill="#76e2f8"/>
      <path id="Path_1857" data-name="Path 1857" d="M30,90h2.548v2.548H30Zm0,0" transform="translate(-28.726 -86.177)" fill="#a8ebfa"/>
      <path id="Path_1858" data-name="Path 1858" d="M120,90h2.548v2.548H120Zm0,0" transform="translate(-114.903 -86.177)" fill="#a8ebfa"/>
      <path id="Path_1859" data-name="Path 1859" d="M210,90h2.548v2.548H210Zm0,0" transform="translate(-201.081 -86.177)" fill="#76e2f8"/>
      <path id="Path_1860" data-name="Path 1860" d="M300,90h2.633v2.548H300Zm0,0" transform="translate(-287.258 -86.177)" fill="#76e2f8"/>
      <path id="Path_1861" data-name="Path 1861" d="M200.734,210.637a.631.631,0,0,1-.637.637H195V210h5.1A.631.631,0,0,1,200.734,210.637Zm0,0" transform="translate(-186.718 -201.081)" fill="#f89580"/>
      <path id="Path_1862" data-name="Path 1862" d="M196.911,271.911A1.909,1.909,0,0,1,195,273.823V270A1.909,1.909,0,0,1,196.911,271.911Zm0,0" transform="translate(-186.718 -258.533)" fill="#384949"/>
      <path id="Path_1863" data-name="Path 1863" d="M90.637,301.274a.637.637,0,1,1,.637-.637A.637.637,0,0,1,90.637,301.274Zm0,0" transform="translate(-86.177 -287.258)" fill="#deecf1"/>
      <path id="Path_1864" data-name="Path 1864" d="M181.274,300.637a.637.637,0,1,1-.637-.637A.631.631,0,0,1,181.274,300.637Zm0,0" transform="translate(-172.355 -287.258)" fill="#deecf1"/>
      <g id="Group_2025" data-name="Group 2025" transform="translate(8.282 12.742)">
        <path id="Path_1865" data-name="Path 1865" d="M392.637,301.274a.637.637,0,1,1,.637-.637A.638.638,0,0,1,392.637,301.274Zm0,0" transform="translate(-383.633 -300)" fill="#c6e2e7"/>
        <path id="Path_1866" data-name="Path 1866" d="M195.637,300.637a.631.631,0,0,1-.637.637V300A.631.631,0,0,1,195.637,300.637Zm0,0" transform="translate(-195 -300)" fill="#c6e2e7"/>
      </g>
    </g>
  </g>
</svg>
