<svg xmlns="http://www.w3.org/2000/svg" width="40" height="40" viewBox="0 0 51 51">
  <g id="Group_2011" data-name="Group 2011" transform="translate(-1676 -127)">
    <g id="Group_1985" data-name="Group 1985" transform="translate(188 1)">
      <circle id="Ellipse_288" data-name="Ellipse 288" cx="25.5" cy="25.5" r="25.5" transform="translate(1488 126)" fill="#e6e3ff"/>
    </g>
    <g id="noun_receipt_1330110" transform="translate(1958 70.662)">
      <g id="Group_1998" data-name="Group 1998" transform="translate(-264.748 69.574)">
        <path id="Path_2972" data-name="Path 2972" d="M33.274,14.546l-1.762-.972-1.762.972-1.762-.972-2.735,1.509v20.6l2.735,1.509,1.762-.972,1.762.972,1.762-.972,1.762.972,1.762-.972,1.762.972L41.3,35.681v-20.6l-2.735-1.509-1.762.972-1.762-.972ZM38.561,15.8l.79.436v18.3l-.79.436L36.8,34l-1.762.972L33.274,34l-1.762.972L29.749,34l-1.762.972-.79-.436v-18.3l.79-.436,1.762.972,1.762-.972,1.762.972,1.762-.972,1.762.972Z" transform="translate(-25.252 -13.574)" fill="#5c53d5"/>
        <rect id="Rectangle_689" data-name="Rectangle 689" width="8.264" height="1.945" transform="translate(3.891 5.001)" fill="#5c53d5"/>
        <rect id="Rectangle_690" data-name="Rectangle 690" width="8.264" height="1.945" transform="translate(3.891 8.891)" fill="#5c53d5"/>
        <rect id="Rectangle_691" data-name="Rectangle 691" width="5.104" height="1.945" transform="translate(7.05 16.67)" fill="#5c53d5"/>
      </g>
    </g>
  </g>
</svg>
