<svg xmlns="http://www.w3.org/2000/svg" width="40.642" height="40.642" viewBox="0 0 40.642 40.642">
  <g id="Group_2039" data-name="Group 2039" transform="translate(0 0)">
    <path id="Path_1885" data-name="Path 1885" d="M20.321,0A20.321,20.321,0,1,1,0,20.321,20.321,20.321,0,0,1,20.321,0Z" fill="#44c4a1" opacity="0.193"/>
    <g id="rickshaw_1_" data-name="rickshaw(1)" transform="translate(9.526 12.433)">
      <ellipse id="Ellipse_287" data-name="Ellipse 287" cx="1.692" cy="1.692" rx="1.692" ry="1.692" transform="translate(16.763 12.303)" fill="#303e48"/>
      <ellipse id="Ellipse_288" data-name="Ellipse 288" cx="1.034" cy="1.034" rx="1.034" ry="1.034" transform="translate(17.42 12.96)" fill="#e6e6e6"/>
      <ellipse id="Ellipse_289" data-name="Ellipse 289" cx="0.357" cy="0.357" rx="0.357" ry="0.357" transform="translate(18.098 13.638)" fill="#d1d1d1"/>
      <path id="Path_1816" data-name="Path 1816" d="M388.586,317.616a2.935,2.935,0,0,1,.37-.023,2.9,2.9,0,0,1,2.847,2.345.475.475,0,0,1-.461.563h-3.914" transform="translate(-370.526 -307.063)" fill="#44c4a1"/>
      <ellipse id="Ellipse_290" data-name="Ellipse 290" cx="1.692" cy="1.692" rx="1.692" ry="1.692" transform="translate(1.19 12.303)" fill="#303e48"/>
      <ellipse id="Ellipse_291" data-name="Ellipse 291" cx="1.034" cy="1.034" rx="1.034" ry="1.034" transform="translate(1.847 12.96)" fill="#e6e6e6"/>
      <ellipse id="Ellipse_292" data-name="Ellipse 292" cx="0.357" cy="0.357" rx="0.357" ry="0.357" transform="translate(2.525 13.638)" fill="#d1d1d1"/>
      <path id="Path_1884" data-name="Path 1884" d="M0,0H2.659V3.771H0Z" transform="translate(10.47 8.798)" fill="#31978c"/>
      <rect id="Rectangle_609" data-name="Rectangle 609" width="2.659" height="0.906" transform="translate(10.47 8.798)" fill="#44c4a1"/>
      <path id="Path_1817" data-name="Path 1817" d="M234.341,250.312h-2.659v-1.45h2.659a.725.725,0,0,1,.725.725h0A.725.725,0,0,1,234.341,250.312Z" transform="translate(-221.574 -241.33)" fill="#303e48"/>
      <rect id="Rectangle_610" data-name="Rectangle 610" width="0.725" height="10.684" transform="translate(9.745 1.45)" fill="#303e48"/>
      <path id="Path_1818" data-name="Path 1818" d="M419.407,278.893H420a.469.469,0,0,0,.469-.469v-.908a.469.469,0,0,0-.469-.469h-.591a.923.923,0,0,0-.923.923h0A.923.923,0,0,0,419.407,278.893Z" transform="translate(-400.227 -268.285)" fill="#31978c"/>
      <path id="Path_1822" data-name="Path 1822" d="M30.026,77.671a1.451,1.451,0,0,0,1.414-1.127.268.268,0,0,0-.264-.324H16.653A3.267,3.267,0,0,0,13.4,79.478v4.086a1.705,1.705,0,0,0,2.943,1.173l1.214-1.282V79.13a1.459,1.459,0,0,1,1.459-1.459h8.6V82.36l1.813.387,1.742-.387a12.037,12.037,0,0,0-1.552-4.689Z" transform="translate(-12.812 -76.221)" fill="#303e48"/>
      <path id="Path_1823" data-name="Path 1823" d="M341.169,109.462h-2v1.305h2.647A9.3,9.3,0,0,0,341.169,109.462Z" transform="translate(-324.37 -108.012)" fill="#162630"/>
      <path id="Path_1824" data-name="Path 1824" d="M355.955,131.233a8.7,8.7,0,0,0-.921-2.6.264.264,0,0,0-.235-.143l-.675,0a.265.265,0,0,0-.266.265v2.523a.265.265,0,0,0,.265.265h1.57A.266.266,0,0,0,355.955,131.233Z" transform="translate(-338.42 -126.207)" fill="#e6e6e6"/>
      <path id="Path_1825" data-name="Path 1825" d="M27.609,216.944v5.994H20.067v-2.962a1.94,1.94,0,0,0-1.957-1.92H13.4v6.188H29.714a11.852,11.852,0,0,0,1.528-5.891,12.558,12.558,0,0,0-.079-1.409Z" transform="translate(-12.812 -210.805)" fill="#31978c"/>
      <path id="Path_1826" data-name="Path 1826" d="M389.059,317.6l-.1,0a2.935,2.935,0,0,0-.37.023l-1.158,2.885H388A11.85,11.85,0,0,0,389.059,317.6Z" transform="translate(-370.526 -307.063)" fill="#44c4a1"/>
      <g id="Group_2023" data-name="Group 2023" transform="translate(0.584 6.139)">
        <path id="Path_1827" data-name="Path 1827" d="M342.8,218.056c-.009-.387-.034-.751-.075-1.112h-3.554v1.112Z" transform="translate(-324.953 -216.944)" fill="#44c4a1"/>
        <path id="Path_1828" data-name="Path 1828" d="M19.885,243.541a1.963,1.963,0,0,0-1.775-1.112H13.4v1.112Z" transform="translate(-13.396 -241.317)" fill="#44c4a1"/>
      </g>
      <path id="Path_1829" data-name="Path 1829" d="M359.441,237.681h-.431a.363.363,0,0,1,0-.725h.431a.363.363,0,1,1,0,.725Z" transform="translate(-343.001 -229.944)" fill="#fa6657"/>
      <path id="Path_1830" data-name="Path 1830" d="M.316,320.5a.322.322,0,0,1-.313-.36,2.9,2.9,0,0,1,5.78.36H.316Z" transform="translate(0 -307.063)" fill="#44c4a1"/>
    </g>
  </g>
</svg>
