<svg xmlns="http://www.w3.org/2000/svg" width="40" height="40" viewBox="0 0 51 51">
  <g id="Group_2465" data-name="Group 2465" transform="translate(-7910 -7858)">
    <circle id="Ellipse_288" data-name="Ellipse 288" cx="25.5" cy="25.5" r="25.5" transform="translate(7910 7858)" fill="#e6f5ff"/>
    <circle id="Ellipse_291" data-name="Ellipse 291" cx="0.876" cy="0.876" r="0.876" transform="translate(7934.272 7889.748)" fill="#004471"/>
    <rect id="Rectangle_705" data-name="Rectangle 705" width="3.505" height="1.752" transform="translate(7933.396 7876.079)" fill="#004471"/>
    <path id="Path_2986" data-name="Path 2986" d="M16.473,4.486V2.629A2.632,2.632,0,0,0,13.844,0H2.629A2.632,2.632,0,0,0,0,2.629V19.8a2.632,2.632,0,0,0,2.629,2.629H13.844A2.632,2.632,0,0,0,16.473,19.8V18.043a6.835,6.835,0,0,0,0-13.557ZM14.72,19.8a.877.877,0,0,1-.876.876H2.629a.877.877,0,0,1-.876-.876V2.629a.877.877,0,0,1,.876-.876H13.844a.877.877,0,0,1,.876.876V4.486a6.835,6.835,0,0,0,0,13.557Zm.876-3.456a5.082,5.082,0,1,1,5.082-5.082A5.088,5.088,0,0,1,15.6,16.347Z" transform="translate(7927 7872.568)" fill="#004471"/>
    <g id="Group_2150" data-name="Group 2150" transform="matrix(0.998, 0.07, -0.07, 0.998, 7939.395, 7880.054)">
      <path id="Path_3023" data-name="Path 3023" d="M3.2,5.631a.753.753,0,0,0,.052.232,1.257,1.257,0,0,0,.077.18.311.311,0,0,0,.129.129A.274.274,0,0,0,3.66,6.2a1.068,1.068,0,0,0,.516-.155,3.468,3.468,0,0,0,.567-.361,2.9,2.9,0,0,0,.464-.516,1.488,1.488,0,0,0,.232-.67,1.776,1.776,0,0,1-.206.077.568.568,0,0,1-.206.026.819.819,0,0,1-.361-.052.891.891,0,0,1-.309-.18.7.7,0,0,1-.232-.309,1.081,1.081,0,0,1-.1-.412,1.951,1.951,0,0,1,.026-.387.952.952,0,0,1,.18-.361,1.031,1.031,0,0,1,.309-.258A1.226,1.226,0,0,1,5,2.512a1.209,1.209,0,0,1,.619.1,1.245,1.245,0,0,1,.644.8c.052.18.077.335.1.464a3.025,3.025,0,0,1-.052.851,3.726,3.726,0,0,1-.284.748,2.775,2.775,0,0,1-.464.619,3.355,3.355,0,0,1-.593.464,3.163,3.163,0,0,1-.67.309,3.552,3.552,0,0,1-.67.155H3.4a1.294,1.294,0,0,1-.309-.052,2.645,2.645,0,0,1-.361-.1A.981.981,0,0,1,2.4,6.636a1.445,1.445,0,0,1-.258-.387,1.229,1.229,0,0,1-.129-.567L1.753,2.512l-1.34.1-.155-.7,1.34-.1a1.306,1.306,0,0,0-.052-.335.806.806,0,0,0-.129-.258.6.6,0,0,0-.18-.18A.383.383,0,0,0,1.005.991a.89.89,0,0,0-.335.077,1.923,1.923,0,0,0-.309.18L0,.32A2.329,2.329,0,0,1,.541.114c.18-.052.335-.077.464-.1A1.705,1.705,0,0,1,2.32.372a1.859,1.859,0,0,1,.567,1.34L5.7,1.48l.052.722-2.81.232Z" transform="translate(0 0)" fill="#004471"/>
    </g>
  </g>
</svg>
