<svg xmlns="http://www.w3.org/2000/svg" width="14" height="26" viewBox="0 0 14 26">
  <g id="expand-inactive" transform="translate(-1703 7731)">
    <rect id="Rectangle_1240" data-name="Rectangle 1240" width="14" height="26" rx="7" transform="translate(1703 -7731)" fill="#e8e8e8"/>
    <path id="Fill_4" data-name="Fill 4" d="M6.845.608a.605.605,0,0,1-.178.429L3.854,3.864a.61.61,0,0,1-.862,0L.177,1.036A.608.608,0,0,1,1.039.179L3.423,2.573,5.806.179A.608.608,0,0,1,6.845.608" transform="translate(1706.577 -7715.014)" fill="#777"/>
    <path id="Fill_4-2" data-name="Fill 4" d="M6.845.608a.605.605,0,0,1-.178.429L3.854,3.864a.61.61,0,0,1-.862,0L.177,1.036A.608.608,0,0,1,1.039.179L3.423,2.573,5.806.179A.608.608,0,0,1,6.845.608" transform="translate(1713.422 -7720.972) rotate(180)" fill="#777"/>
  </g>
</svg>
