<?xml version="1.0" encoding="utf-8"?>
<!-- Generator: Adobe Illustrator 23.0.0, SVG Export Plug-In . SVG Version: 6.00 Build 0)  -->
<svg version="1.1" id="Layer_1" xmlns="http://www.w3.org/2000/svg" xmlns:xlink="http://www.w3.org/1999/xlink" x="0px" y="0px"
	 viewBox="0 0 750 500" style="enable-background:new 0 0 750 500;" xml:space="preserve">
<style type="text/css">
	.st0{fill:none;}
	.st1{fill:#1E4B61;}
	.st2{fill:#D1E6ED;}
	.st3{fill:#FFFFFF;}
	.st4{opacity:4.000000e-02;}
	.st5{fill:#F7EBE0;}
	.st6{fill:#95CAA0;}
	.st7{fill:#DB1F27;}
	.st8{fill:#EB4943;}
	.st9{fill:#C82127;}
	.st10{fill:#FAC190;}
	.st11{fill:#CE7864;}
	.st12{fill:#C0705D;}
	.st13{fill:#DE8471;}
</style>
<g>
	<rect class="st0" width="750" height="500"/>
	<g>
		<g>
			<g>
				<g>
					<g>
						<g>
							<path class="st1" d="M456.3,333.5H293.6c-3.5,0-6.3-2.8-6.3-6.3V60.7c0-3.5,2.8-6.3,6.3-6.3h162.7c3.5,0,6.3,2.8,6.3,6.3
								v266.5C462.6,330.7,459.8,333.5,456.3,333.5z"/>
						</g>
						<g>
							<rect x="296.3" y="69.1" class="st2" width="156.9" height="238.4"/>
						</g>
						<g>
							<rect x="365.6" y="318.8" class="st3" width="18.8" height="4.3"/>
						</g>
					</g>
					<g class="st4">
						<polygon points="296.3,102.2 296.3,307.6 453.2,307.6 						"/>
					</g>
				</g>
			</g>
			<g>
				<g>
					<polygon class="st3" points="296.3,78.4 296.3,135.7 296.3,150.1 296.3,212.1 296.3,223.2 296.3,278.4 296.3,289.6 					"/>
				</g>
				<g>
					<polygon class="st5" points="296.3,289.6 296.3,307.6 297.6,307.6 300.7,291.2 					"/>
				</g>
				<g>
					<polygon class="st5" points="438.6,283.3 453.2,289.1 453.2,222.3 450.6,221 					"/>
				</g>
				<g>
					<polygon class="st5" points="343.3,69.1 309.4,69.1 340.4,84.4 					"/>
				</g>
				<g>
					<polygon class="st5" points="434,307.6 453.2,307.6 453.2,298.9 436.9,292.5 					"/>
				</g>
				<g>
					<polygon class="st5" points="325.2,163.4 296.3,150.1 296.3,212.1 315.1,216.2 					"/>
				</g>
				<g>
					<polygon class="st5" points="313,227 296.3,223.2 296.3,278.4 302.8,280.6 					"/>
				</g>
				<g>
					<polygon class="st5" points="338.1,96.4 296.3,78.4 296.3,135.7 327.8,150.2 					"/>
				</g>
				<g>
					<polygon class="st5" points="390,179 416.5,69.1 363.1,69.1 346,158.6 					"/>
				</g>
				<g>
					<polygon class="st5" points="443.9,203.9 453.2,155.5 453.2,69.1 435.1,69.1 405.2,186 					"/>
				</g>
				<g>
					<polygon class="st6" points="343.5,171.8 317.5,307.6 349.6,307.6 361.5,269.3 403.5,293.9 402.1,307.6 424.1,307.6 
						441.4,216.9 					"/>
				</g>
				<g>
					<polygon class="st3" points="339.8,87.3 338.1,96.4 327.8,150.2 346,158.6 363.1,69.1 343.3,69.1 340.4,84.4 					"/>
				</g>
				<g>
					<polygon class="st3" points="340.4,84.4 343.3,69.1 343.3,69.1 340.4,84.4 					"/>
				</g>
				<g>
					<polygon class="st3" points="325.2,163.4 315.1,216.2 322,217.8 314.6,227.4 313,227 302.8,280.6 305.4,281.5 300.7,291.2 
						297.6,307.6 310.9,307.6 337.3,169 					"/>
				</g>
				<g>
					<polygon class="st3" points="337.3,169 310.9,307.6 317.5,307.6 343.5,171.8 					"/>
				</g>
				<g>
					<polygon class="st3" points="437.2,282.8 438.6,283.3 450.6,221 449.2,220.4 					"/>
				</g>
				<g>
					<polygon class="st3" points="435.5,292 432.5,307.6 434,307.6 436.9,292.5 					"/>
				</g>
				<g>
					<polygon class="st3" points="453,208.1 453.2,207.2 453.2,155.5 443.9,203.9 					"/>
				</g>
				<g>
					<polygon class="st3" points="434.8,291.7 435,281.9 437.2,282.8 449.2,220.4 441.4,216.9 424.1,307.6 432.5,307.6 435.5,292 
											"/>
				</g>
				<g>
					<polygon class="st3" points="327.8,150.2 296.3,135.7 296.3,150.1 325.2,163.4 					"/>
				</g>
				<g>
					<polygon class="st3" points="442.3,212.5 443.9,203.9 405.2,186 404.6,188.3 387.8,187.9 390,179 346,158.6 344.2,168.2 					
						"/>
				</g>
				<g>
					<polygon class="st3" points="453,208.1 450.6,221 453.2,222.3 453.2,208.2 					"/>
				</g>
				<g>
					<polygon class="st3" points="344.2,168.2 343.5,171.8 441.4,216.9 442.3,212.5 					"/>
				</g>
				<g>
					<polygon class="st3" points="344.2,168.2 346,158.6 327.8,150.2 325.2,163.4 337.3,169 337.9,165.4 					"/>
				</g>
				<g>
					<polygon class="st3" points="337.9,165.4 337.3,169 343.5,171.8 344.2,168.2 					"/>
				</g>
				<g>
					<polygon class="st3" points="442.3,212.5 450,216 449.2,220.4 450.6,221 453,208.1 443.9,203.9 					"/>
				</g>
				<g>
					<polygon class="st3" points="442.3,212.5 441.4,216.9 449.2,220.4 450,216 					"/>
				</g>
				<g>
					<polygon class="st3" points="436.9,292.5 453.2,298.9 453.2,289.1 438.6,283.3 					"/>
				</g>
				<g>
					<polygon class="st3" points="435.5,292 436.9,292.5 438.6,283.3 437.2,282.8 					"/>
				</g>
				<g>
					<polygon class="st3" points="435,281.9 434.8,291.7 435.5,292 437.2,282.8 					"/>
				</g>
				<g>
					<polygon class="st3" points="339.8,87.3 340.4,84.4 309.4,69.1 296.3,69.1 296.3,78.4 338.1,96.4 					"/>
				</g>
				<g>
					<polygon class="st3" points="340.4,84.4 339.8,87.3 340.4,84.4 					"/>
				</g>
				<g>
					<polygon class="st3" points="302.8,280.6 296.3,278.4 296.3,289.6 300.7,291.2 					"/>
				</g>
				<g>
					<polygon class="st3" points="305.4,281.5 302.8,280.6 300.7,291.2 					"/>
				</g>
				<g>
					<polygon class="st3" points="315.1,216.2 296.3,212.1 296.3,223.2 313,227 					"/>
				</g>
				<g>
					<polygon class="st3" points="314.6,227.4 322,217.8 315.1,216.2 313,227 					"/>
				</g>
				<g>
					<polygon class="st3" points="405.2,186 435.1,69.1 416.5,69.1 390,179 					"/>
				</g>
				<g>
					<polygon class="st3" points="404.6,188.3 405.2,186 390,179 387.8,187.9 					"/>
				</g>
				<g>
					<polygon class="st5" points="361.5,269.3 349.6,307.6 402.1,307.6 403.5,293.9 					"/>
				</g>
			</g>
			<g>
				<g>
					<g>
						<g>
							<path class="st7" d="M394.5,126.2c-0.1,10.7-20,38.8-20,38.8s-19.4-28.4-19.4-39.1c0.1-10.7,9-19.3,19.8-19.2
								C385.8,106.8,394.6,115.5,394.5,126.2z"/>
						</g>
						<g>
							
								<ellipse transform="matrix(8.150627e-03 -1 1 8.150627e-03 246.5383 498.9779)" class="st3" cx="374.8" cy="125.2" rx="9.1" ry="9.3"/>
						</g>
					</g>
					<g>
						<path class="st8" d="M358.5,127.6c0.1-9.3,7.8-16.8,17.2-16.7c5.5,0,10.4,2.7,13.5,6.7c-2.9-5.1-8.4-8.5-14.8-8.6
							c-9.4-0.1-17.2,7.4-17.2,16.7c0,3.9,1.3,7.4,3.5,10.3C359.3,133.6,358.4,130.7,358.5,127.6z"/>
					</g>
					<g>
						<path class="st9" d="M369.7,157.7c2.6,4.4,4.7,7.3,4.7,7.3s19.9-28.1,20-38.8c0-0.6,0-1.1-0.1-1.7c-0.8,3-1.9,5.9-3.3,8.6
							c-3.8,7.6-9.3,12.4-15.3,18.6C374,153.7,371.8,155.9,369.7,157.7z"/>
					</g>
				</g>
			</g>
		</g>
		<g>
			<polygon class="st10" points="550.5,353.6 474.1,223.5 466.8,184.1 456.3,174.1 436,168.1 428.7,169.9 405.4,141.9 398.4,145.4 
				420.1,198.9 413.2,191.7 407,195 415.3,216.8 439.5,229.8 439.8,229.7 477.7,353.6 496.3,397.2 559.2,387 			"/>
		</g>
		<g>
			<g>
				<polygon class="st11" points="507.4,277.1 461,312.2 469.7,334.8 520,299.2 				"/>
			</g>
			<g>
				<polygon class="st12" points="602,443.6 522.7,297.3 465.3,338 497.8,443.6 				"/>
			</g>
		</g>
		<g>
			<g>
				<polygon class="st13" points="464.3,309.7 471.6,333.6 475.7,330.6 466.5,308 				"/>
			</g>
			<g>
				<polygon class="st13" points="470,305.4 479.4,328 484.3,324.5 473.6,302.6 				"/>
			</g>
			<g>
				<polygon class="st13" points="477.1,300.3 486.7,322.8 492.3,318.9 480.7,297.3 				"/>
			</g>
			<g>
				<polygon class="st13" points="484.3,294.5 495.1,316.9 499.7,313.6 488,291.7 				"/>
			</g>
			<g>
				<polygon class="st13" points="492,288.7 503.3,311 507.6,308 495.7,285.9 				"/>
			</g>
			<g>
				<polygon class="st13" points="499.8,282.8 510.5,305.9 515.2,302.6 503.9,279.7 				"/>
			</g>
		</g>
		<g>
			<g>
				<polygon class="st10" points="266,219.7 267.6,181.6 287.1,155.8 287.1,248.2 270.1,340.2 207.3,339.4 				"/>
			</g>
			<g>
				<polygon class="st10" points="273.8,181.9 293.2,174.1 315.3,179.4 315.3,191.1 295.7,191 287.1,205.7 				"/>
			</g>
			<g>
				<g>
					<polygon class="st11" points="273.9,338.2 219.5,305.9 208.6,332.7 268,357 					"/>
				</g>
				<g>
					<polygon class="st12" points="205.9,331.7 152.1,443.6 261.8,443.6 271.6,358.2 					"/>
				</g>
			</g>
			<g>
				<polygon class="st13" points="213.7,334.8 225.1,309.3 229.8,312.1 219.7,337.3 				"/>
			</g>
			<g>
				<polygon class="st13" points="235.3,315.3 225.6,339.6 231.2,341.9 240.1,318.1 				"/>
			</g>
			<g>
				<polygon class="st13" points="244.6,320.8 236.4,344.2 241.2,346 250,324 				"/>
			</g>
			<g>
				<polygon class="st13" points="245.7,347.7 255,327 259.9,329.8 251.4,350 				"/>
			</g>
			<g>
				<polygon class="st13" points="255.4,351.7 263,331.7 268.2,334.8 261.8,354.5 				"/>
			</g>
		</g>
	</g>
</g>
</svg>
