<?xml version="1.0" encoding="UTF-8" standalone="no"?>
<!-- Created with Inkscape (http://www.inkscape.org/) -->

<svg
   xmlns:dc="http://purl.org/dc/elements/1.1/"
   xmlns:cc="http://creativecommons.org/ns#"
   xmlns:rdf="http://www.w3.org/1999/02/22-rdf-syntax-ns#"
   xmlns:svg="http://www.w3.org/2000/svg"
   xmlns="http://www.w3.org/2000/svg"
   xmlns:sodipodi="http://sodipodi.sourceforge.net/DTD/sodipodi-0.dtd"
   xmlns:inkscape="http://www.inkscape.org/namespaces/inkscape"
   width="8.3464069mm"
   height="12.301487mm"
   viewBox="0 0 8.3464069 12.301487"
   version="1.1"
   id="svg8"
   inkscape:version="0.92.4 (5da689c313, 2019-01-14)"
   sodipodi:docname="logo_short.svg">
  <defs
     id="defs2">
    <clipPath
       clipPathUnits="userSpaceOnUse"
       id="clipPath58">
      <rect
         style="fill:#ff7f2a;stroke-width:0.97408271"
         id="rect60"
         width="36.42857"
         height="55.17857"
         x="14.3625"
         y="115.51263" />
    </clipPath>
  </defs>
  <sodipodi:namedview
     id="base"
     pagecolor="#ffffff"
     bordercolor="#666666"
     borderopacity="1.0"
     inkscape:pageopacity="0.0"
     inkscape:pageshadow="2"
     inkscape:zoom="11.2"
     inkscape:cx="-12.028172"
     inkscape:cy="37.443168"
     inkscape:document-units="mm"
     inkscape:current-layer="layer1"
     showgrid="false"
     fit-margin-top="0"
     fit-margin-left="0"
     fit-margin-right="0"
     fit-margin-bottom="0"
     inkscape:window-width="2880"
     inkscape:window-height="1496"
     inkscape:window-x="0"
     inkscape:window-y="64"
     inkscape:window-maximized="1" />
  <metadata
     id="metadata5">
    <rdf:RDF>
      <cc:Work
         rdf:about="">
        <dc:format>image/svg+xml</dc:format>
        <dc:type
           rdf:resource="http://purl.org/dc/dcmitype/StillImage" />
        <dc:title></dc:title>
      </cc:Work>
    </rdf:RDF>
  </metadata>
  <g
     inkscape:label="Layer 1"
     inkscape:groupmode="layer"
     id="layer1"
     transform="translate(-39.089605,-150.99806)">
    <g
       transform="matrix(0.26458333,0,0,0.26458333,33.997542,119.3573)"
       id="logo-full"
       clip-path="url(#clipPath58)">
      <path
         d="m 45.369,121.557 c -4.125,-2.69 -10.783,-1.577 -15.947,2.959 -5.9,5.182 -7.6,12.884 -3.814,17.2 3.786,4.316 11.65,3.61 17.549,-1.575 5.381,-4.729 7.271,-11.549 4.687,-15.989 l -0.019,-0.074 c 3.333,5.254 1.122,13.544 -5.377,19.254 -7,6.15 -16.309,6.987 -20.809,1.867 -4.5,-5.12 -2.467,-14.242 4.525,-20.394 6.275,-5.512 14.417,-6.758 19.271,-3.255 z"
         data-name="Path 887"
         id="Path_887"
         inkscape:connector-curvature="0"
         style="fill:#2d499a" />
      <path
         transform="translate(-1.553,-5.369)"
         d="m 27.393,147.345 c 6.385,-6.16 15.113,-7.534 19.875,-2.993 4.932,4.7 3.719,13.983 -2.711,20.727 -5.764,6.051 -13.775,8 -18.922,4.946 l 0.067,-0.012 c 4.349,2.311 10.89,0.624 15.633,-4.359 5.426,-5.686 6.446,-13.51 2.286,-17.482 -3.453,-3.289 -9.693,-2.764 -14.409,0.6 a 8.681,8.681 0 0 1 -1.819,-1.427"
         data-name="Path 888"
         id="Path_888"
         inkscape:connector-curvature="0"
         style="fill:#ec3336" />
      <path
         transform="translate(-0.053,-8.484)"
         d="m 23.87,155.427 c -4.141,5.041 -5.131,11.426 -2.361,15.333 l 0.023,0.07 c -3.137,-4.091 -2.629,-10.666 1.026,-16.345 z"
         data-name="Path 889"
         id="Path_889"
         inkscape:connector-curvature="0"
         style="fill:#ec3336" />
      <path
         transform="translate(-13.206,-5.521)"
         d="m 73.569,151.592 3.98,-0.255 a 3.117,3.117 0 0 0 0.529,1.484 2.2,2.2 0 0 0 1.848,0.818 2.026,2.026 0 0 0 1.379,-0.421 1.208,1.208 0 0 0 0.026,-1.916 5.393,5.393 0 0 0 -2.142,-0.789 9.106,9.106 0 0 1 -3.931,-1.636 3.316,3.316 0 0 1 -1.182,-2.614 3.53,3.53 0 0 1 0.6,-1.972 3.991,3.991 0 0 1 1.824,-1.461 8.5,8.5 0 0 1 3.328,-0.536 6.79,6.79 0 0 1 3.958,0.97 4.128,4.128 0 0 1 1.617,3.065 l -3.94,0.233 a 1.837,1.837 0 0 0 -2.05,-1.745 1.7,1.7 0 0 0 -1.1,0.307 0.959,0.959 0 0 0 -0.372,0.755 0.747,0.747 0 0 0 0.309,0.582 3.34,3.34 0 0 0 1.4,0.5 17.629,17.629 0 0 1 3.929,1.2 4.179,4.179 0 0 1 1.73,1.5 3.76,3.76 0 0 1 0.54,2 4.287,4.287 0 0 1 -0.718,2.4 4.515,4.515 0 0 1 -2.015,1.667 8.113,8.113 0 0 1 -3.261,0.565 q -3.456,0 -4.785,-1.322 a 5.247,5.247 0 0 1 -1.508,-3.38"
         data-name="Path 890"
         id="Path_890"
         inkscape:connector-curvature="0"
         style="fill:#2d499a" />
      <path
         transform="translate(-17.594,-5.52)"
         d="m 91.619,151.583 3.982,-0.251 a 3.045,3.045 0 0 0 0.524,1.479 2.209,2.209 0 0 0 1.848,0.821 2.053,2.053 0 0 0 1.384,-0.422 1.213,1.213 0 0 0 0.021,-1.917 5.516,5.516 0 0 0 -2.142,-0.786 9.079,9.079 0 0 1 -3.931,-1.641 3.3,3.3 0 0 1 -1.181,-2.611 3.545,3.545 0 0 1 0.606,-1.971 3.97,3.97 0 0 1 1.82,-1.458 8.458,8.458 0 0 1 3.327,-0.537 6.812,6.812 0 0 1 3.959,0.968 4.146,4.146 0 0 1 1.622,3.065 l -3.946,0.236 a 1.829,1.829 0 0 0 -2.05,-1.746 1.7,1.7 0 0 0 -1.1,0.307 0.947,0.947 0 0 0 -0.368,0.753 0.767,0.767 0 0 0 0.3,0.585 3.512,3.512 0 0 0 1.4,0.5 17.627,17.627 0 0 1 3.931,1.2 4.077,4.077 0 0 1 1.73,1.5 3.8,3.8 0 0 1 0.541,2 4.327,4.327 0 0 1 -0.718,2.406 4.522,4.522 0 0 1 -2.016,1.668 8.038,8.038 0 0 1 -3.261,0.564 q -3.449,0.006 -4.784,-1.322 a 5.254,5.254 0 0 1 -1.505,-3.385"
         data-name="Path 891"
         id="Path_891"
         inkscape:connector-curvature="0"
         style="fill:#2d499a" />
      <path
         transform="translate(-22.215,-5.594)"
         d="m 110.625,142.594 h 4.186 l 0.005,10.205 h 6.531 v 3.332 H 110.63 Z"
         data-name="Path 892"
         id="Path_892"
         inkscape:connector-curvature="0"
         style="fill:#2d499a" />
      <path
         transform="translate(-27.846,-5.59)"
         d="m 133.79,142.585 h 3.973 l 1.434,7.583 2.1,-7.583 h 3.955 l 2.1,7.567 1.433,-7.571 h 3.952 l -2.98,13.538 h -4.1 l -2.377,-8.523 -2.361,8.523 h -4.1 z"
         data-name="Path 893"
         id="Path_893"
         inkscape:connector-curvature="0"
         style="fill:#2d499a" />
      <rect
         transform="translate(126.421,136.985)"
         height="13.538"
         width="4.1929998"
         data-name="Rectangle 441"
         id="Rectangle_441"
         x="0"
         y="0"
         style="fill:#2d499a" />
      <path
         transform="translate(-36.753,-5.588)"
         d="m 170.429,156.113 v -13.538 h 6.975 a 10.089,10.089 0 0 1 2.964,0.332 3.111,3.111 0 0 1 1.648,1.231 3.733,3.733 0 0 1 0.634,2.193 3.783,3.783 0 0 1 -0.481,1.944 3.844,3.844 0 0 1 -1.322,1.33 5.283,5.283 0 0 1 -1.469,0.532 4.029,4.029 0 0 1 1.091,0.5 4.312,4.312 0 0 1 0.668,0.711 5.185,5.185 0 0 1 0.585,0.841 l 2.025,3.921 h -4.725 l -2.237,-4.133 a 3.13,3.13 0 0 0 -0.755,-1.044 1.75,1.75 0 0 0 -1.027,-0.311 h -0.371 v 5.492 z m 4.2,-8.053 h 1.764 a 6.577,6.577 0 0 0 1.111,-0.188 1.114,1.114 0 0 0 0.677,-0.423 1.375,1.375 0 0 0 -0.151,-1.8 2.535,2.535 0 0 0 -1.561,-0.35 h -1.84 v 2.753 z"
         data-name="Path 894"
         id="Path_894"
         inkscape:connector-curvature="0"
         style="fill:#2d499a" />
      <path
         transform="translate(-41.458,-5.587)"
         d="m 189.779,142.567 h 11.21 v 2.891 h -7.022 v 2.151 h 6.514 v 2.763 h -6.512 v 2.665 h 7.231 v 3.063 h -11.417 z"
         data-name="Path 895"
         id="Path_895"
         inkscape:connector-curvature="0"
         style="fill:#2d499a" />
      <path
         transform="translate(-45.849,-5.585)"
         d="m 207.843,142.565 4.18,-0.006 v 10.206 l 6.527,-0.005 v 3.333 l -10.712,0.01 z"
         data-name="Path 896"
         id="Path_896"
         inkscape:connector-curvature="0"
         style="fill:#2d499a" />
      <path
         transform="translate(-49.898,-5.585)"
         d="m 224.5,142.559 h 11.214 v 2.889 h -7.024 v 2.152 h 6.51 v 2.761 h -6.51 v 2.668 h 7.221 v 3.067 h -11.413 z"
         data-name="Path 897"
         id="Path_897"
         inkscape:connector-curvature="0"
         style="fill:#2d499a" />
      <path
         transform="translate(-54.055,-5.507)"
         d="m 241.6,151.535 3.982,-0.251 a 3.066,3.066 0 0 0 0.525,1.482 2.2,2.2 0 0 0 1.844,0.817 2.057,2.057 0 0 0 1.384,-0.42 1.207,1.207 0 0 0 0.023,-1.917 5.325,5.325 0 0 0 -2.145,-0.786 9.1,9.1 0 0 1 -3.928,-1.642 3.307,3.307 0 0 1 -1.181,-2.612 3.568,3.568 0 0 1 0.6,-1.974 4.045,4.045 0 0 1 1.824,-1.459 8.544,8.544 0 0 1 3.327,-0.535 6.817,6.817 0 0 1 3.958,0.968 4.155,4.155 0 0 1 1.623,3.066 l -3.944,0.235 a 1.841,1.841 0 0 0 -2.053,-1.746 1.716,1.716 0 0 0 -1.1,0.307 0.964,0.964 0 0 0 -0.372,0.758 0.751,0.751 0 0 0 0.307,0.581 3.366,3.366 0 0 0 1.4,0.5 17.531,17.531 0 0 1 3.931,1.2 4.171,4.171 0 0 1 1.728,1.5 3.77,3.77 0 0 1 0.54,2 4.3,4.3 0 0 1 -0.719,2.405 4.507,4.507 0 0 1 -2.01,1.665 8.106,8.106 0 0 1 -3.262,0.565 q -3.457,0 -4.785,-1.323 a 5.234,5.234 0 0 1 -1.507,-3.381"
         data-name="Path 898"
         id="Path_898"
         inkscape:connector-curvature="0"
         style="fill:#2d499a" />
      <path
         transform="translate(-58.442,-5.508)"
         d="m 259.643,151.53 3.981,-0.254 a 3.008,3.008 0 0 0 0.531,1.482 2.213,2.213 0 0 0 1.847,0.825 2.051,2.051 0 0 0 1.381,-0.427 1.213,1.213 0 0 0 0.022,-1.916 5.445,5.445 0 0 0 -2.144,-0.786 9.089,9.089 0 0 1 -3.925,-1.639 3.283,3.283 0 0 1 -1.187,-2.611 3.565,3.565 0 0 1 0.607,-1.973 3.968,3.968 0 0 1 1.816,-1.461 8.41,8.41 0 0 1 3.332,-0.531 6.754,6.754 0 0 1 3.959,0.965 4.164,4.164 0 0 1 1.622,3.065 l -3.946,0.237 a 2.139,2.139 0 0 0 -0.662,-1.335 2.114,2.114 0 0 0 -1.388,-0.411 1.715,1.715 0 0 0 -1.1,0.3 0.956,0.956 0 0 0 -0.372,0.755 0.753,0.753 0 0 0 0.31,0.584 3.408,3.408 0 0 0 1.4,0.5 17.828,17.828 0 0 1 3.931,1.2 4.124,4.124 0 0 1 1.729,1.5 3.77,3.77 0 0 1 0.54,2 4.318,4.318 0 0 1 -0.718,2.4 4.521,4.521 0 0 1 -2.014,1.668 8.2,8.2 0 0 1 -3.26,0.57 q -3.457,-0.007 -4.787,-1.328 a 5.258,5.258 0 0 1 -1.5,-3.381"
         data-name="Path 899"
         id="Path_899"
         inkscape:connector-curvature="0"
         style="fill:#2d499a" />
      <path
         transform="translate(-62.558,-4.79)"
         d="m 276.572,142.732 a 3.447,3.447 0 1 1 3.451,3.448 3.451,3.451 0 0 1 -3.451,-3.448 m 0.476,0 a 2.971,2.971 0 1 0 2.975,-2.965 2.976,2.976 0 0 0 -2.975,2.965"
         data-name="Path 900"
         id="Path_900"
         inkscape:connector-curvature="0"
         style="fill:#2d499a" />
      <path
         transform="translate(-63.165,-5.312)"
         d="m 281.719,143.783 0.469,0.116 a 1.575,1.575 0 0 1 -0.53,0.875 1.437,1.437 0 0 1 -0.93,0.306 1.633,1.633 0 0 1 -0.926,-0.234 1.422,1.422 0 0 1 -0.545,-0.668 2.474,2.474 0 0 1 -0.186,-0.945 2,2 0 0 1 0.211,-0.958 1.448,1.448 0 0 1 0.6,-0.623 1.726,1.726 0 0 1 0.855,-0.213 1.431,1.431 0 0 1 0.887,0.268 1.389,1.389 0 0 1 0.5,0.758 l -0.458,0.1 a 1.114,1.114 0 0 0 -0.357,-0.559 0.956,0.956 0 0 0 -0.586,-0.176 1.17,1.17 0 0 0 -0.681,0.2 1.036,1.036 0 0 0 -0.379,0.524 2.147,2.147 0 0 0 -0.111,0.678 2.026,2.026 0 0 0 0.131,0.781 0.949,0.949 0 0 0 0.407,0.5 1.125,1.125 0 0 0 0.6,0.169 0.99,0.99 0 0 0 0.661,-0.229 1.143,1.143 0 0 0 0.368,-0.671"
         data-name="Path 901"
         id="Path_901"
         inkscape:connector-curvature="0"
         style="fill:#2d499a" />
    </g>
  </g>
</svg>
