<svg xmlns="http://www.w3.org/2000/svg" width="16.757" height="22.771" viewBox="0 0 16.757 22.771"><defs><style>.a{fill:#0084e5;stroke:#0084e5;stroke-width:0.5px;}</style></defs><g transform="translate(0.261 0.253)"><g transform="translate(0 0)"><path class="a" d="M66.628,3.3,66.461.686A.636.636,0,0,0,66.3.313.674.674,0,0,0,65.93.17L63.32,0A.478.478,0,0,0,62.8.439V.447a.478.478,0,0,0,.445.507l1.616.105L62.837,3.086a5.207,5.207,0,0,0-8.463,3.108A5.212,5.212,0,0,0,55.12,16.45v2.214h-1.63a.478.478,0,0,0,0,.956h1.635v2.171a.478.478,0,1,0,.956,0V19.62h1.635a.478.478,0,1,0,0-.956H56.081V16.45a5.221,5.221,0,0,0,4.652-4.3A5.207,5.207,0,0,0,63.52,3.765l2.037-2.037.115,1.63a.479.479,0,0,0,.957-.027C66.63,3.32,66.629,3.308,66.628,3.3ZM55.6,15.518A4.26,4.26,0,0,1,54.3,7.2a5.2,5.2,0,0,0,5.207,5.111h.215A4.265,4.265,0,0,1,55.6,15.518Zm4.255-4.179h-.344a4.251,4.251,0,0,1-4.256-4.245q0-.048,0-.1H55.6a4.265,4.265,0,0,1,4.26,4.26C59.863,11.286,59.858,11.31,59.858,11.339Zm3.78-3.226a4.255,4.255,0,0,1-1.116,1.964v.033a4.237,4.237,0,0,1-1.707,1.023A5.216,5.216,0,0,0,55.6,6.022h-.215a4.255,4.255,0,1,1,8.25,2.091Z" transform="translate(-50.384 -0.001)"/></g></g></svg>