<svg xmlns="http://www.w3.org/2000/svg" viewBox="0 0 500 500"><defs><style>.a1b37ed0-ef87-4e06-8baa-87475f53a5cd,.e66b905f-683a-45ff-8f5d-801a013b6d0d{fill:#fff;}.ab6809bf-9537-4f4c-ad01-e307d49e15e9{fill:#e7edeb;}.bd5a38a4-8fbd-4b64-a6e3-2d72f5b6669b{fill:#dcc9c7;}.b7720990-2cb0-4cfd-b731-c7b493b3d3fc{fill:#b5dbd9;}.f06fa2ed-0c13-47b5-8f5f-15ef979107af{fill:#464757;}.f9aed378-8ccc-4590-b6f0-a783a493a200{fill:#dceeed;}.f8e8d2a1-c814-4a65-9c4e-3b6fb30e8004{fill:#96d799;}.abe870f1-900d-4ad8-8630-16d8b60f7427{fill:#6fc873;}.ed834e49-cce2-4668-be3c-92113d513f71{fill:#e05a67;}.a1b37ed0-ef87-4e06-8baa-87475f53a5cd{stroke:#ff6a76;stroke-miterlimit:10;stroke-width:0.5px;}.a7e38b4e-a382-42e7-b35e-0f41944799d8{fill:#ff6a76;}.b761f7f1-3b4d-466e-805d-f27f7d026f9a{fill:#ff9561;}.b885ad43-3ea2-461a-bd3d-a94bf9d5585e{fill:#ff6300;}.fe5f1cef-4809-419d-9d05-8970368de249{fill:#ffac76;}.b62c62e1-08ac-40e9-bb3e-22e7aa084a0a{fill:#2e2f41;}.f8108467-35c2-4936-af35-5d6fb7004dc0{fill:#ff9d42;}.adf8a039-38e4-4fe5-bf3a-c5e3b8de619c{fill:#98cdca;}.ab1f6f55-ac34-437d-9117-4719bd017f37{fill:#ffae63;}.a146b052-df60-4925-b0be-571b2156b116{fill:#5aafaa;}.ba6d6795-94bc-4f05-a12b-9e9cab93b597{fill:#77bdb9;}</style></defs><title>2083383</title><g id="bc1c6dc0-8507-4929-881a-2472c3287a39" data-name="BACKGROUND"><rect class="e66b905f-683a-45ff-8f5d-801a013b6d0d" width="500" height="500"/></g><g id="e94a8766-c976-4a60-a139-3f02a022af12" data-name="OBJECTS"><ellipse class="ab6809bf-9537-4f4c-ad01-e307d49e15e9" cx="249.33" cy="400.58" rx="224.67" ry="35.36"/><path class="bd5a38a4-8fbd-4b64-a6e3-2d72f5b6669b" d="M238,405.61h-.16a1.91,1.91,0,0,1-1.74-2.06l8.59-100a1.88,1.88,0,0,1,2.06-1.74,1.9,1.9,0,0,1,1.73,2.06l-8.59,100A1.9,1.9,0,0,1,238,405.61Z"/><path class="bd5a38a4-8fbd-4b64-a6e3-2d72f5b6669b" d="M209.92,387.39h-.17a1.9,1.9,0,0,1-1.73-2.06l8.59-100a1.86,1.86,0,0,1,2-1.73,1.89,1.89,0,0,1,1.73,2.06l-8.58,100A1.91,1.91,0,0,1,209.92,387.39Z"/><path class="bd5a38a4-8fbd-4b64-a6e3-2d72f5b6669b" d="M308.86,387.24l-.16,0a1.91,1.91,0,0,1-2.1-1.68l-11-99.75a1.88,1.88,0,0,1,1.68-2.1,1.91,1.91,0,0,1,2.1,1.68l11,99.75A1.91,1.91,0,0,1,308.86,387.24Z"/><path class="bd5a38a4-8fbd-4b64-a6e3-2d72f5b6669b" d="M319.81,397.61l-.16,0a1.91,1.91,0,0,1-2.1-1.68l-11-99.76a1.86,1.86,0,0,1,1.68-2.09,1.9,1.9,0,0,1,2.1,1.68l11,99.75A1.9,1.9,0,0,1,319.81,397.61Z"/><ellipse class="b7720990-2cb0-4cfd-b731-c7b493b3d3fc" cx="262.91" cy="262.75" rx="57.68" ry="55.03"/><path class="f06fa2ed-0c13-47b5-8f5f-15ef979107af" d="M179,380.82l-2.87,10.89s32.69,11.47,33.26,8-17.2-19.5-17.2-19.5Z"/><path class="f06fa2ed-0c13-47b5-8f5f-15ef979107af" d="M159.52,397.45a92.14,92.14,0,0,0,6.3,11.47c2.87,4,24.67,13.76,25.81,6.88s-13.76-17.21-15.48-18.35a17.75,17.75,0,0,1-3.44-3.44S159.52,393.43,159.52,397.45Z"/><path class="b7720990-2cb0-4cfd-b731-c7b493b3d3fc" d="M51.12,231.7s3.44-12,55.06-9.75,52.76,47.6,35,58.5-52.76-6.31-64.81-17.78S51.12,231.7,51.12,231.7Z"/><path class="f9aed378-8ccc-4590-b6f0-a783a493a200" d="M51.12,231.7,96.43,238s1.72,16.06,13.76,28.1,44.74,16.06,44.74,16.06,5.73,12-17.21,17.21-39,6.88-65.38-13.2S51.12,231.7,51.12,231.7Z"/><path class="f06fa2ed-0c13-47b5-8f5f-15ef979107af" d="M159.52,280.45l35.55,14.91-16,85.46s2.86,3.44,5.73,4.58,7.46-.57,7.46-.57,36.7-87.75,38.42-91.19a8.63,8.63,0,0,0-1.72-9.75c-2.29-2.29-57.35-43-57.35-43l-37.28,4.58s8,16.64,13.77,22.94S159.52,280.45,159.52,280.45Z"/><path class="f06fa2ed-0c13-47b5-8f5f-15ef979107af" d="M94.13,244.89s1.15,20.07,8.61,28.68,32.11,14.33,32.11,14.33,3.45,44.17,10.33,60.8,14.34,48.75,14.34,48.75l5.73,1.14c2.87.58,7.46-4.58,7.46-4.58s-5.16-48.75-4.59-60.22,2.29-45.89,1.72-51.62-14.91-16.63-16.63-19.5-4-11.47-11.47-15.49S104.46,234.57,94.13,244.89Z"/><polygon class="f8e8d2a1-c814-4a65-9c4e-3b6fb30e8004" points="179.59 153.13 199.66 207.04 183.6 236.29 167.54 232.85 176.15 204.17 166.97 181.8 168.12 135.92 179.59 153.13"/><path class="abe870f1-900d-4ad8-8630-16d8b60f7427" d="M126.82,121,94.13,137.07a344.76,344.76,0,0,0-2.86,41.29c0,20.65,2.29,58.5,2.29,58.5h78.57s0-41.87.58-55.63,4-43,4-45.88-20.65-15.49-24.09-17.21S130.27,117,126.82,121Z"/><path class="bd5a38a4-8fbd-4b64-a6e3-2d72f5b6669b" d="M340.92,393.75a2.43,2.43,0,0,1-.38,0,2.15,2.15,0,0,1-1.75-2.5l17.09-95.7a2.16,2.16,0,0,1,4.26.76L343,392A2.15,2.15,0,0,1,340.92,393.75Z"/><path class="ed834e49-cce2-4668-be3c-92113d513f71" d="M298.93,144.47s11.81,47.22,13.35,51.84,19,29.26,19,29.26l-20.53.52-15.4-20.54Z"/><path class="a1b37ed0-ef87-4e06-8baa-87475f53a5cd" d="M245.54,136.77s11.81-4.11,21.56-3.6A25.21,25.21,0,0,1,283,140.36s5.64,58,4.1,69.81-2.05,20-2.05,20l-32.34-.51Z"/><path class="a7e38b4e-a382-42e7-b35e-0f41944799d8" d="M252.73,134.71l4.62,97.54-25.15.51s-13.35-91.37-11.3-91.37S252.73,134.71,252.73,134.71Z"/><path class="a7e38b4e-a382-42e7-b35e-0f41944799d8" d="M276.86,135.23s4.62,45.17,5.64,58,.52,34.91.52,34.91l11.8-.51s6.68-33.37,6.68-41.07-2.57-40-2.57-42.09S276.86,135.23,276.86,135.23Z"/><path class="b761f7f1-3b4d-466e-805d-f27f7d026f9a" d="M276.86,135.23s-2.06,19-5.65,21-13.86-15.91-13.86-19-.51-10.78-.51-10.78Z"/><path class="b885ad43-3ea2-461a-bd3d-a94bf9d5585e" d="M257.86,74.14s12.32-5.13,21.56-1,15.4,13.86,16.43,23.1-3.08,18-3.08,24.13a75.5,75.5,0,0,0,1.54,13.35s-6.67,2.56-10.78,2.56a25.55,25.55,0,0,1-8.73-2.05s4.11-15.91,3.08-23.61-3.08-13.35-8.72-13.35-2.06,3.59-10.27,1.54S250.68,75.17,257.86,74.14Z"/><path class="fe5f1cef-4809-419d-9d05-8970368de249" d="M256.32,130.09s15.4,11.81,21.05,7.19,10.27-13.35,10.27-19.51-3.08-27.2-6.16-30.28-5.65-3.08-5.65-3.08L258.89,98.78Z"/><path class="b885ad43-3ea2-461a-bd3d-a94bf9d5585e" d="M264.54,89.54l-6.68,49.79s-13.34-1.54-19-5.13-.51-41.58,5.13-52.36,25.67-8.21,25.67-8.21"/><path class="a7e38b4e-a382-42e7-b35e-0f41944799d8" d="M220.9,141.39s-7.81,27.39-10.26,43.12c-2.57,16.42-4.11,31.82-2.06,32.85s62.12-12.83,62.12-12.83l-2.06-11.3h-38.5l6.68-30.8"/><path class="fe5f1cef-4809-419d-9d05-8970368de249" d="M268.13,193.75,278.4,185s7.7-2.57,8.72.51-3.08,3.6-3.08,3.6l-2.56,1,10.26-.51s8.22-4.11,8.73-1-5.13,9.76-9.24,12.32S270.18,205,270.18,205Z"/><path class="b761f7f1-3b4d-466e-805d-f27f7d026f9a" d="M309.2,265.61a110.66,110.66,0,0,1,11.29,23.1c4.11,12.32-4.62,22.08-12.32,28.75s-44.66,52.36-44.66,52.36,5.65,8.73,8.73,13.86,7.7,9.24,7.18,10.78-5.64,4.11-10.78.52-16.94-13.86-17.45-20,5.13-15.4,5.13-15.4l36.45-63.66-12.32-23.61Z"/><path class="a7e38b4e-a382-42e7-b35e-0f41944799d8" d="M279.42,394.46c.52-1.54-4.1-5.64-7.18-10.78-1.12-1.85-2.56-4.17-4-6.38l-9,3L252,369.37a16,16,0,0,0-.76,5.59c.51,6.16,12.32,16.42,17.45,20S278.91,396,279.42,394.46Z"/><path class="b761f7f1-3b4d-466e-805d-f27f7d026f9a" d="M287.64,272.29s13.86,5.64,12.83,15.91-44.66,88.3-44.66,88.3,18,19,15.91,22.07-6.16-.51-15.4-5.13-14.88-12.84-14.88-15.92,1.54-1.54,5.64-15.4,15.4-47.22,17.46-51.84,4.62-10.78,4.62-10.78l-15.92-4.62s-3.59-9.76,10.27-17.46S287.64,272.29,287.64,272.29Z"/><path class="f06fa2ed-0c13-47b5-8f5f-15ef979107af" d="M228.09,241s-5.65,19-.51,32.86,26.69,39,26.69,39,2.57-20,8.21-28.23,51.85-11.81,51.85-11.81a96.41,96.41,0,0,0-10.27-21.56,183.76,183.76,0,0,0-12.32-17.45Z"/><path class="b7720990-2cb0-4cfd-b731-c7b493b3d3fc" d="M471.46,231.73s3.59-5.13-23.1-8.21S407.29,221,407.29,221l4.11,35.94S466.33,242.51,471.46,231.73Z"/><path class="bd5a38a4-8fbd-4b64-a6e3-2d72f5b6669b" d="M408.83,396.11a2.16,2.16,0,0,1-2.16-2.11l-2.05-81.1a2.16,2.16,0,0,1,2.1-2.22,2.2,2.2,0,0,1,2.22,2.11l2.05,81.1a2.16,2.16,0,0,1-2.1,2.22Z"/><path class="f9aed378-8ccc-4590-b6f0-a783a493a200" d="M429.88,237.38l41.58-5.65s-2.57,35.94-15.91,57.5-35.42,30.29-60.07,30.29-34.39-19-34.39-19,24.13-6.16,33.37-20,3.59-41.58,3.59-41.58Z"/><path class="b62c62e1-08ac-40e9-bb3e-22e7aa084a0a" d="M376,369.31s10.78,8.73,10.26,10.78S367.76,395,367.76,395s-11.8,8.21-11.8,6.67,6.67-11.81,6.67-11.81l1-10.78Z"/><path class="bd5a38a4-8fbd-4b64-a6e3-2d72f5b6669b" d="M321.81,407.24l-.53,0a7.79,7.79,0,0,1-7.22-6.58l-28-175.08a1.62,1.62,0,1,1,3.19-.51l28,175.07a4.6,4.6,0,0,0,9.1-.15l22.31-177a1.62,1.62,0,0,1,1.81-1.41,1.63,1.63,0,0,1,1.4,1.81l-22.3,177A7.86,7.86,0,0,1,321.81,407.24Z"/><path class="b62c62e1-08ac-40e9-bb3e-22e7aa084a0a" d="M348.26,258.43S299,286.15,299.49,291.28s64.17,87.78,64.17,87.78L376,369.31l-42.1-72.9,57-22.07-7.7-25.15L372.38,243Z"/><path class="f06fa2ed-0c13-47b5-8f5f-15ef979107af" d="M384.7,257.91s-71.35,37.48-71.86,41.59,41.58,85.72,41.58,85.72l10.26-4.1s-10.78-42.61-12.32-49.8-3.08-18-3.08-18l40-15.92s5.65-15.91,4.62-22.59S384.7,257.91,384.7,257.91Z"/><path class="b62c62e1-08ac-40e9-bb3e-22e7aa084a0a" d="M354.42,385.22s-4.62,11.81-7.7,16.94-8.22,7.7-5.14,8.73,25.67-9.24,28.75-12.83-5.65-16.94-5.65-16.94Z"/><path class="f8108467-35c2-4936-af35-5d6fb7004dc0" d="M385.73,133.69s-20.53,8.72-23.1,10.26-7.19,4.11-6.67,6.16,3.59,56,4.62,63.66,4.1,22.58,4.1,22.58l-1,10.78-15.4,11.3s25.66-4.62,27.72-3.08,13.34,42.09,13.34,42.09,10.78-10.78,13.35-19.51,3.08-37,3.08-37l24.13-3.59s-1.54-72.38-7.19-86.24-29.26-18.48-29.26-18.48Z"/><path class="bd5a38a4-8fbd-4b64-a6e3-2d72f5b6669b" d="M149.75,436a4.52,4.52,0,0,1-.52,0,7.79,7.79,0,0,1-7.22-6.58L114,254.35a1.62,1.62,0,0,1,3.2-.51l28,175.08a4.6,4.6,0,0,0,9.11-.15l22.31-177a1.62,1.62,0,1,1,3.21.4l-22.3,177A7.86,7.86,0,0,1,149.75,436Z"/><path class="bd5a38a4-8fbd-4b64-a6e3-2d72f5b6669b" d="M375.8,423.8l-.53,0a7.81,7.81,0,0,1-7.22-6.59L340,242.11a1.62,1.62,0,0,1,3.19-.51l28,175.08a4.59,4.59,0,0,0,4.24,3.87,4.66,4.66,0,0,0,4.87-4l22.3-177a1.62,1.62,0,1,1,3.21.4l-22.3,177A7.86,7.86,0,0,1,375.8,423.8Z"/><path class="bd5a38a4-8fbd-4b64-a6e3-2d72f5b6669b" d="M97.4,408.68l-.51,0A7.45,7.45,0,0,1,90,402.37l-26.4-165a1.62,1.62,0,0,1,3.2-.51l26.4,165a4.24,4.24,0,0,0,8.4-.14l21-166.85a1.62,1.62,0,0,1,3.22.4l-21,166.86A7.5,7.5,0,0,1,97.4,408.68Z"/><polygon class="adf8a039-38e4-4fe5-bf3a-c5e3b8de619c" points="55.71 232.27 102.74 251.2 421.04 237.43 349.93 222.52 55.71 232.27"/><path class="f9aed378-8ccc-4590-b6f0-a783a493a200" d="M139.44,109l-10.32,2.86-5.74,10.33,11.47,33.26,14.34-8.6,14.34,6.31-6.88-29.83S145.18,106.67,139.44,109Z"/><path class="b761f7f1-3b4d-466e-805d-f27f7d026f9a" d="M167,125s-11.47,2.87-13.19,9.75-3.44,17.78-3.44,17.78-10.32-24.09-12-29.25a61.86,61.86,0,0,1-2.3-8.6l3.44-8.6s1.72-9.75,10.9-9.75S167,125,167,125Z"/><path class="f06fa2ed-0c13-47b5-8f5f-15ef979107af" d="M181.88,82s9.18-4.59,8.61-11.47-12.62-10.9-12.62-10.9v3.44l-12.05-2.86,1.73,3.44s-10.33-5.74-21.23,3.44S135.43,84.3,136,92.91s1.15,17.78,4,19.5,18.92-6.89,18.92-6.89l9.18-21.79Z"/><path class="fe5f1cef-4809-419d-9d05-8970368de249" d="M148.62,99.22s1.15-4-4-4-4.58,10.32-1.14,12.62a25.75,25.75,0,0,0,5.16,2.87s.57,10.89,4.59,12.61,20.64,7.46,22.94,3.44,7.45-28.1,7.45-33.83V78.57s-21.22-6.88-22.36-1.72,4,9.17,1.14,12.62a15.79,15.79,0,0,1-7.45,4.58s1.72,6.89-.58,6.89S148.62,99.22,148.62,99.22Z"/><path class="f8e8d2a1-c814-4a65-9c4e-3b6fb30e8004" d="M94.71,181.23s28.67,56.78,34.41,59.65,5.73-.58,9.18-2.87,39.57-66.53,39.57-66.53l-11.47-2.87-29.83,31-24.08-55.06s-4-6.31-13.19-4.58S90.12,167.46,94.71,181.23Z"/><path class="fe5f1cef-4809-419d-9d05-8970368de249" d="M177.87,171.48s7.45-13.19,8-18.35-2.3-22.37-6.88-23.52-5.17,3.44-5.17,7.46v7.45l-.57,2.3s-2.29-8-3.44-6.31-1.15,12.62-1.15,12.62l.58,7.45-2.87,8Z"/><path class="bd5a38a4-8fbd-4b64-a6e3-2d72f5b6669b" d="M56.86,396.17h-.19a2.16,2.16,0,0,1-2-2.34l9.75-113.56a2.13,2.13,0,0,1,2.34-2,2.15,2.15,0,0,1,2,2.33L59,394.19A2.16,2.16,0,0,1,56.86,396.17Z"/><path class="bd5a38a4-8fbd-4b64-a6e3-2d72f5b6669b" d="M115.93,422a2.17,2.17,0,0,1-2.16-2l-6.88-118.72a2.16,2.16,0,1,1,4.31-.25l6.88,118.72a2.16,2.16,0,0,1-2,2.28Z"/><path class="f9aed378-8ccc-4590-b6f0-a783a493a200" d="M161.89,221.82a6.16,6.16,0,1,0,6.17,6.16A6.16,6.16,0,0,0,161.89,221.82Zm0,9.09a2.93,2.93,0,1,1,2.93-2.93A2.93,2.93,0,0,1,161.89,230.91Z"/><path class="f9aed378-8ccc-4590-b6f0-a783a493a200" d="M164.24,219.33h27.12a0,0,0,0,1,0,0v15.73a4.61,4.61,0,0,1-4.61,4.61h-17.9a4.61,4.61,0,0,1-4.61-4.61V219.33A0,0,0,0,1,164.24,219.33Z"/><path class="a7e38b4e-a382-42e7-b35e-0f41944799d8" d="M257.86,381.12a29.86,29.86,0,0,1-5.13,4.1l-10.21-11c-.75,1.42-1.08,1.87-1.08,3.29,0,3.08,5.64,11.3,14.88,15.92s13.35,8.21,15.4,5.13c1.48-2.21-7.34-12.59-12.45-18.29A3.3,3.3,0,0,0,257.86,381.12Z"/><path class="f9aed378-8ccc-4590-b6f0-a783a493a200" d="M378,137.79s-6.67,3.6-6.67,7.7v37s15.4-28.23,19-34.39,11.29-12.83,7.7-16.43S378,137.79,378,137.79Z"/><path class="fe5f1cef-4809-419d-9d05-8970368de249" d="M357.5,90.05l2.05,14.89s-5.13,10.27-5.13,11.81,5.13,4.1,5.13,4.1,3.08,15.4,5.65,16.43S378,135.23,378,135.23s-2.57,9.75-.51,11.29,21.56-11.29,20.53-14.89,0-11.8,0-11.8,3.59-7.7,0-18S393.94,88,383.16,86.46,357.5,90.05,357.5,90.05Z"/><path class="f06fa2ed-0c13-47b5-8f5f-15ef979107af" d="M369.82,72.6s-18.48,3.08-19.51,9.24,4.62,10.78,11.29,10.78H376s-8.73,6.67-4.62,9.75a26.54,26.54,0,0,0,9.75,4.11s.51,6.67,2.05,6.67,2.57-9.75,5.65-9.75,10.27,7.19,6.67,11.81a15.66,15.66,0,0,1-7.7,5.64S391.38,128,397,128s6.16-25.15,9.76-30.29,7.18-15.91,0-20.53S378.35,71.25,369.82,72.6Z"/><path class="fe5f1cef-4809-419d-9d05-8970368de249" d="M288.71,221.47s-9.24,1-11.29,2.05-17.46,7.7-17.46,7.7-1,2.57,4.62,2.57,14.89-1,14.89-1-2.57,1.54.51,2.05,11.81-3.08,11.81-3.08Z"/><path class="f8108467-35c2-4936-af35-5d6fb7004dc0" d="M360.62,214.08c0-.1,0-.21,0-.31-1-7.7-4.11-61.6-4.62-63.66l-21.56,61.6-45.69,9.76,2.57,8.21,61.6-4.11Z"/><path class="ab1f6f55-ac34-437d-9117-4719bd017f37" d="M399.08,152.68l-28.75,65.19-53.39,8.73.52,10.27,71.86,1,32.86-55.95s4.62-13.35-2.05-25.67S406.27,145.49,399.08,152.68Z"/><path class="fe5f1cef-4809-419d-9d05-8970368de249" d="M316.94,226.6s-8.21-1.54-11.29-1-22.59,9.24-18,11.3,15.92.51,20,.51,9.76-.51,9.76-.51Z"/><path class="bd5a38a4-8fbd-4b64-a6e3-2d72f5b6669b" d="M374.17,419H374a2.17,2.17,0,0,1-2-2.35l9-98.9a2.16,2.16,0,1,1,4.31.39l-9,98.91A2.17,2.17,0,0,1,374.17,419Z"/><path class="bd5a38a4-8fbd-4b64-a6e3-2d72f5b6669b" d="M453.22,410.31a2.15,2.15,0,0,1-2.15-2c-2.57-31.7-7.53-92.39-7.93-95.18-.1-.71-3.68-2-7.74-2.26a2.15,2.15,0,0,1-2-2.28,2.13,2.13,0,0,1,2.27-2c2.59.14,11.07,1,11.78,6,.51,3.61,7.65,91.69,7.95,95.44a2.16,2.16,0,0,1-2,2.33Z"/><polygon class="a146b052-df60-4925-b0be-571b2156b116" points="55.71 232.27 55.71 236.8 101.91 259.55 102.74 251.2 55.71 232.27"/><polygon class="ba6d6795-94bc-4f05-a12b-9e9cab93b597" points="101.91 259.55 420.66 242.91 421.04 237.43 102.74 251.2 101.91 259.55"/><path class="f9aed378-8ccc-4590-b6f0-a783a493a200" d="M260.46,219a6.17,6.17,0,1,1-6.31,6.16A6.24,6.24,0,0,1,260.46,219Zm0,9.09a2.93,2.93,0,1,0-3-2.93A3,3,0,0,0,260.46,228Z"/><path class="f9aed378-8ccc-4590-b6f0-a783a493a200" d="M235,216.46h18.43a4.67,4.67,0,0,1,4.67,4.67V236.8a0,0,0,0,1,0,0H230.29a0,0,0,0,1,0,0V221.13A4.67,4.67,0,0,1,235,216.46Z" transform="translate(488.34 453.26) rotate(180)"/></g></svg>