<svg xmlns="http://www.w3.org/2000/svg" width="40" height="40" viewBox="0 0 50.54 51.004">
  <g id="Group_1985" data-name="Group 1985" transform="translate(-1488 -126)">
    <ellipse id="Ellipse_288" data-name="Ellipse 288" cx="25.27" cy="25.502" rx="25.27" ry="25.502" transform="translate(1488 126)" fill="#ffe9c4"/>
    <g id="noun_Meeting_2061756" transform="translate(1504.847 142.001)">
      <g id="Group_2002" data-name="Group 2002" transform="translate(0 0)">
        <path id="Path_2973" data-name="Path 2973" d="M7.955,1030.355a3,3,0,0,0-2.973,3v2a3,3,0,0,0,2.973,3H9.406l1.688,2.555a.986.986,0,0,0,1.649,0l1.688-2.555h1.452a3,3,0,0,0,2.973-3v-2a3,3,0,0,0-2.973-3Zm0,2h7.928a.972.972,0,0,1,.991,1v2a.972.972,0,0,1-.991,1H13.9a.989.989,0,0,0-.824.445l-1.157,1.752-1.157-1.752a.989.989,0,0,0-.825-.445H7.955a.972.972,0,0,1-.991-1v-2A.972.972,0,0,1,7.955,1032.355Zm-.991,7a3,3,0,0,0-1.732,5.422A4.007,4.007,0,0,0,3,1048.357v1a.991.991,0,1,0,1.982,0v-1a1.982,1.982,0,1,1,3.964,0v1a.991.991,0,1,0,1.982,0v-1a4.007,4.007,0,0,0-2.232-3.578,3,3,0,0,0-1.732-5.422Zm9.91,0a3,3,0,0,0-1.732,5.422,4.007,4.007,0,0,0-2.232,3.578v1a.991.991,0,1,0,1.982,0v-1a1.982,1.982,0,1,1,3.964,0v1a.991.991,0,1,0,1.982,0v-1a4.007,4.007,0,0,0-2.232-3.578,3,3,0,0,0-1.732-5.422Zm-9.91,2a1,1,0,1,1-.991,1A.972.972,0,0,1,6.964,1041.356Zm9.91,0a1,1,0,1,1-.991,1A.972.972,0,0,1,16.874,1041.356Z" transform="translate(-3 -1030.355)" fill="#e92460"/>
      </g>
    </g>
  </g>
</svg>
