<svg xmlns="http://www.w3.org/2000/svg" width="40" height="40" viewBox="0 0 51 51">
  <g id="Group_2011" data-name="Group 2011" transform="translate(-1363 -33)">
    <g id="Group_2000" data-name="Group 2000" transform="translate(0 9)">
      <g id="Group_1985" data-name="Group 1985" transform="translate(-31 -8)">
        <g id="Group_2010" data-name="Group 2010">
          <circle id="Ellipse_288" data-name="Ellipse 288" cx="25.5" cy="25.5" r="25.5" transform="translate(1394 32)" fill="#cef2dc"/>
        </g>
      </g>
    </g>
    <g id="noun_Technology_376094" transform="translate(1360.836 -19.464)">
      <g id="Group_2003" data-name="Group 2003" transform="translate(17.4 67.39)">
        <path id="Path_2974" data-name="Path 2974" d="M36.874,29.406H34.659V27.745h2.215a1.077,1.077,0,1,0,0-2.153H34.659v-1.6a2.4,2.4,0,0,0-2.4-2.4h-1.6V19.377a1.077,1.077,0,1,0-2.153,0v2.215H26.845V19.377a1.077,1.077,0,1,0-2.153,0v2.215h-1.6a2.4,2.4,0,0,0-2.4,2.4v1.6H18.477a1.077,1.077,0,1,0,0,2.153h2.215v1.661H18.477a1.077,1.077,0,1,0,0,2.153h2.215v1.6a2.4,2.4,0,0,0,2.4,2.4h1.6v2.215a1.077,1.077,0,1,0,2.153,0V35.559h1.661v2.215a1.077,1.077,0,0,0,2.153,0V35.559h1.6a2.4,2.4,0,0,0,2.4-2.4v-1.6h2.215a1.077,1.077,0,1,0,0-2.153Zm-4.368,3.753a.243.243,0,0,1-.246.246H23.091a.243.243,0,0,1-.246-.246v-9.2a.243.243,0,0,1,.246-.246h9.2a.243.243,0,0,1,.246.246v9.2Z" transform="translate(-17.4 -18.3)" fill="#2f533d"/>
        <path id="Path_2975" data-name="Path 2975" d="M47.345,43.6H43.038a.341.341,0,0,0-.338.338v4.307a.341.341,0,0,0,.338.338h4.307a.341.341,0,0,0,.338-.338V43.938A.323.323,0,0,0,47.345,43.6Z" transform="translate(-34.917 -35.817)" fill="#2f533d"/>
      </g>
    </g>
  </g>
</svg>
