<svg xmlns="http://www.w3.org/2000/svg" width="40.643" height="40.642" viewBox="0 0 40.643 40.642">
  <g id="other" transform="translate(0 0)">
    <g id="other-2" data-name="other">
      <path id="Path_1885" data-name="Path 1885" d="M20.321,0A20.321,20.321,0,1,1,0,20.321,20.321,20.321,0,0,1,20.321,0Z" fill="#64bef0" opacity="0.195"/>
    </g>
    <g id="pinwheel" transform="translate(-68.305 7.286)">
      <path id="Path_2046" data-name="Path 2046" d="M195.907,110.25a1.322,1.322,0,0,0-.923.367,1.2,1.2,0,0,0-.377.874,1.273,1.273,0,0,0,1.3,1.241h0a1.322,1.322,0,0,0,.923-.367,1.206,1.206,0,0,0,.377-.874A1.273,1.273,0,0,0,195.907,110.25Z" transform="translate(-107.273 -103.661)" fill="#ccc"/>
      <path id="Path_2047" data-name="Path 2047" d="M104.994,15.394a1.945,1.945,0,0,1,.573.086,6.031,6.031,0,0,0-.521-5.48H97.915l5.965,5.744A1.925,1.925,0,0,1,104.994,15.394Z" transform="translate(-16.36 -9.402)" fill="#f66"/>
      <path id="Path_2048" data-name="Path 2048" d="M115.038,75.574,112.576,73.2l-2.323,2.238A7.451,7.451,0,0,1,115.038,75.574Z" transform="translate(-27.96 -68.828)" fill="#c93"/>
      <path id="Path_2049" data-name="Path 2049" d="M234.972,33.23l2.474-2.383L235.109,28.6a6.713,6.713,0,0,1-.138,4.633Z" transform="translate(-145.224 -26.887)" fill="#c93"/>
      <path id="Path_2050" data-name="Path 2050" d="M242.516,23.588a1.793,1.793,0,0,1-.083.541,6.721,6.721,0,0,0,5.707-.5V16.759l-5.98,5.759A1.79,1.79,0,0,1,242.516,23.588Z" transform="translate(-151.984 -15.757)" fill="#fc6"/>
      <path id="Path_2051" data-name="Path 2051" d="M242.406,149.154l2.462,2.371,2.324-2.238a6.994,6.994,0,0,1-2.144.335A7.985,7.985,0,0,1,242.406,149.154Z" transform="translate(-152.215 -140.239)" fill="#c93"/>
      <path id="Path_2052" data-name="Path 2052" d="M96.141,116.039a1.792,1.792,0,0,1,.083-.541,6.719,6.719,0,0,0-5.707.5v6.867l5.98-5.759A1.789,1.789,0,0,1,96.141,116.039Z" transform="translate(-9.404 -108.209)" fill="#fc6"/>
      <path id="Path_2053" data-name="Path 2053" d="M158.807,155.9l-2.474,2.383,2.338,2.251a6.712,6.712,0,0,1,.138-4.633Z" transform="translate(-71.286 -146.585)" fill="#c93"/>
      <path id="Path_2054" data-name="Path 2054" d="M200.636,156.268h0a1.947,1.947,0,0,1-.573-.086,6.032,6.032,0,0,0,.521,5.48h7.132l-5.965-5.744A1.925,1.925,0,0,1,200.636,156.268Z" transform="translate(-112.001 -146.599)" fill="#f66"/>
      <path id="Path_2055" data-name="Path 2055" d="M96.572.024a.3.3,0,0,0-.324.06L92.653,3.545,89.059.084A.3.3,0,0,0,88.851,0H80.814a.3.3,0,0,0-.207.514L84.185,3.96,80.607,7.407a.3.3,0,0,0-.091.215v7.74a.3.3,0,0,0,.182.275.293.293,0,0,0,.324-.06l3.594-3.462,3.595,3.462a.3.3,0,0,0,.125.071v9.916a.3.3,0,1,0,.6,0v-9.9h7.522a.3.3,0,0,0,.207-.514L93.084,11.7l3.578-3.446a.3.3,0,0,0,.091-.215V.3A.3.3,0,0,0,96.572.024ZM89.885,1.709,92.222,3.96,89.748,6.343h0A6.713,6.713,0,0,0,89.885,1.709Zm.05,6.121a1.205,1.205,0,0,1-.377.874,1.322,1.322,0,0,1-.923.367h0a1.273,1.273,0,0,1-1.3-1.241,1.2,1.2,0,0,1,.377-.874,1.322,1.322,0,0,1,.923-.367A1.273,1.273,0,0,1,89.935,7.83ZM81.555.6h7.132a6.031,6.031,0,0,1,.521,5.48,1.945,1.945,0,0,0-.573-.086,1.925,1.925,0,0,0-1.115.35Zm3.061,3.777,2.462,2.371a7.451,7.451,0,0,0-4.785-.134Zm-3.5,10.284V7.793a6.719,6.719,0,0,1,5.707-.5A1.791,1.791,0,0,0,87.093,8.9Zm6.272-.707L85.047,11.7l2.474-2.383h0A6.713,6.713,0,0,0,87.385,13.952Zm8.329,1.111H88.582a6.032,6.032,0,0,1-.521-5.48,1.944,1.944,0,0,0,.573.086h0a1.925,1.925,0,0,0,1.114-.35Zm-3.061-3.778L90.191,8.915a7.984,7.984,0,0,0,2.642.468,6.994,6.994,0,0,0,2.144-.335Zm3.5-3.417a6.721,6.721,0,0,1-5.707.5,1.792,1.792,0,0,0-.273-1.611L96.156,1V7.868Z" fill="#633"/>
    </g>
  </g>
</svg>
