<svg xmlns="http://www.w3.org/2000/svg" width="40.642" height="40.642" viewBox="0 0 40.642 40.642">
  <g id="Group_2041" data-name="Group 2041" transform="translate(0 0)">
    <path id="Path_1885" data-name="Path 1885" d="M20.321,0A20.321,20.321,0,1,1,0,20.321,20.321,20.321,0,0,1,20.321,0Z" fill="#64bef0" opacity="0.195"/>
    <g id="motorbiking" transform="translate(7.899 11.155)">
      <rect id="Rectangle_611" data-name="Rectangle 611" width="2.907" height="0.867" transform="translate(15.646 3.227) rotate(-116.565)" fill="#cac9cd"/>
      <path id="Path_1886" data-name="Path 1886" d="M424.807,350.857a1.083,1.083,0,1,1,1.083-1.083A1.083,1.083,0,0,1,424.807,350.857Z" transform="translate(-402.924 -335.256)" fill="#b9b7bd"/>
      <path id="Path_1887" data-name="Path 1887" d="M382.836,304.552a3.25,3.25,0,1,0,3.25,3.25A3.25,3.25,0,0,0,382.836,304.552Zm0,5.2a1.95,1.95,0,1,1,1.95-1.95A1.95,1.95,0,0,1,382.836,309.752Z" transform="translate(-360.952 -293.285)" fill="#504b5a"/>
      <path id="Path_1888" data-name="Path 1888" d="M395.832,293.515a.433.433,0,0,1-.372-.21l-2.132-3.548a.433.433,0,0,1,.743-.446l2.132,3.548a.433.433,0,0,1-.371.657Z" transform="translate(-373.961 -278.592)" fill="#dcdbde"/>
      <path id="Path_1889" data-name="Path 1889" d="M386.574,272.032h4.066a.43.43,0,0,0,.386-.24l.225-.455a.587.587,0,0,0-.143-.7,6.776,6.776,0,0,0-3.577-1.392Z" transform="translate(-367.597 -259.708)" fill="#00aadc"/>
      <path id="Path_1890" data-name="Path 1890" d="M20.905,304.552a3.25,3.25,0,1,0,3.25,3.25A3.25,3.25,0,0,0,20.905,304.552Zm0,5.2a1.95,1.95,0,1,1,1.95-1.95A1.95,1.95,0,0,1,20.905,309.752Z" transform="translate(-16.788 -293.285)" fill="#504b5a"/>
      <path id="Path_1891" data-name="Path 1891" d="M67.21,350.857H62.876a1.083,1.083,0,0,1-1.083-1.083h0a1.083,1.083,0,0,1,1.083-1.083H67.21a1.083,1.083,0,0,1,1.083,1.083h0A1.083,1.083,0,0,1,67.21,350.857Z" transform="translate(-58.76 -335.256)" fill="#dcdbde"/>
      <path id="Path_1892" data-name="Path 1892" d="M318.226,164.884l.75-4.123a3.033,3.033,0,0,0-.042-1.278l-1.141-5h1.3l2.167,5.633-1.3,4.767h-1.733Z" transform="translate(-302.193 -150.584)" fill="#00aadc"/>
      <path id="Path_1893" data-name="Path 1893" d="M18.663,183.669l1.838-3.982a1.3,1.3,0,0,0-.084-1.243l-2.473-3.886a.371.371,0,0,0-.479-.133h0a.754.754,0,0,0-.385.891l.714,2.38a5.633,5.633,0,0,1,.128,2.724l-.452,2.259a.867.867,0,0,1-.85.7h-4.49L13,178.609l-.867-1.3L6.5,176.876l-3.311.368a.662.662,0,0,0-.589.658h0a.662.662,0,0,0,.194.468l.673.673S0,179.909,0,182.076v.433a.433.433,0,0,0,.433.433H7.006a.867.867,0,0,1,.613.254l1.226,1.226a.867.867,0,0,0,.613.254h7.632A1.733,1.733,0,0,0,18.663,183.669Z" transform="translate(0.002 -169.509)" fill="#64bef0"/>
      <path id="Path_1894" data-name="Path 1894" d="M63.365,226.836l-.867-1.3-5.633-.433-3.311.368a.662.662,0,0,0-.395,1.126l.673.673h9.455Z" transform="translate(-50.365 -217.736)" fill="#00aadc"/>
      <path id="Path_1895" data-name="Path 1895" d="M312,129.733h-2.167a.867.867,0,0,1-.867-.867h0a.867.867,0,0,1,.867-.867H312Z" transform="translate(-293.799 -125.4)" fill="#64bef0"/>
      <path id="Path_1896" data-name="Path 1896" d="M284.649,129.3a.432.432,0,0,1-.306-.127l-.306-.306h-1.121a.433.433,0,1,1,0-.867h1.121a.872.872,0,0,1,.613.254l.306.306a.433.433,0,0,1-.306.74Z" transform="translate(-268.615 -125.4)" fill="#625d6b"/>
      <path id="Path_1897" data-name="Path 1897" d="M362.364,129.733h-.433V128h.433a.433.433,0,0,1,.433.433v.867A.433.433,0,0,1,362.364,129.733Z" transform="translate(-344.164 -125.4)" fill="#dcdbde"/>
      <ellipse id="Ellipse_294" data-name="Ellipse 294" cx="1.083" cy="1.083" rx="1.083" ry="1.083" transform="translate(3.033 13.434)" fill="#ededee"/>
      <path id="Path_1898" data-name="Path 1898" d="M114.759,216.839h0a.565.565,0,0,0,.251.47l1.475.983a3.467,3.467,0,0,0,1.923.582h3.622a.433.433,0,0,0,.425-.518l-.051-.255a1.734,1.734,0,0,0-1.7-1.393h-2.326a4.764,4.764,0,0,1-1.156-.142l-.595-.149a4.768,4.768,0,0,0-1.156-.142h-.149A.565.565,0,0,0,114.759,216.839Z" transform="translate(-109.125 -209.341)" fill="#625d6b"/>
      <path id="Path_1899" data-name="Path 1899" d="M159.039,288.283l1.3,1.733a.866.866,0,0,0,.693.347H163.2l.63-3.467h-4.1A.867.867,0,0,0,159.039,288.283Z" transform="translate(-151.066 -276.496)" fill="#00aadc"/>
      <path id="Path_1900" data-name="Path 1900" d="M283.349,76.767h-.433a.433.433,0,0,1-.433-.433v-.867a.433.433,0,0,1,.433-.433h.433a.867.867,0,0,1,.867.867h0A.867.867,0,0,1,283.349,76.767Z" transform="translate(-268.615 -75.034)" fill="#dcdbde"/>
    </g>
  </g>
</svg>
