<svg xmlns="http://www.w3.org/2000/svg" width="40.642" height="40.642" viewBox="0 0 40.642 40.642">
  <g id="Group_2038" data-name="Group 2038" transform="translate(0 0)">
    <ellipse id="Ellipse_293" data-name="Ellipse 293" cx="20.321" cy="20.321" rx="20.321" ry="20.321" fill="#ff4b4b" opacity="0.201"/>
    <g id="rickshaw_2_" data-name="rickshaw(2)" transform="translate(10.478 10.715)">
      <g id="Group_2024" data-name="Group 2024" transform="translate(2.19 1.871)">
        <path id="Path_1831" data-name="Path 1831" d="M56.627,58.5a.586.586,0,0,0-.586.586V62.98a.586.586,0,0,0,1.172,0V59.087A.586.586,0,0,0,56.627,58.5Z" transform="translate(-56.041 -58.501)" fill="#999"/>
        <path id="Path_1832" data-name="Path 1832" d="M257.635,265.552H252.3a.586.586,0,1,0,0,1.172h5.334a.586.586,0,1,0,0-1.172Z" transform="translate(-244.07 -257.463)" fill="#999"/>
      </g>
      <path id="Path_1833" data-name="Path 1833" d="M396.367,239.915h-1.622a1.511,1.511,0,0,0-1.509,1.509v.158a1.511,1.511,0,0,0,1.509,1.509h1.622a1.511,1.511,0,0,0,1.509-1.509v-.158A1.511,1.511,0,0,0,396.367,239.915Z" transform="translate(-377.872 -230.956)" fill="#d6cfbf"/>
      <path id="Path_1834" data-name="Path 1834" d="M395.556,239.915h-.811a1.511,1.511,0,0,0-1.509,1.509v.158a1.511,1.511,0,0,0,1.509,1.509h.811Z" transform="translate(-377.872 -230.956)" fill="#fff7e3"/>
      <path id="Path_1835" data-name="Path 1835" d="M13.042,156.031H7.062a1.394,1.394,0,0,0-1.393,1.393v1.223A2.156,2.156,0,0,0,7.823,160.8H16.64a.586.586,0,0,0,.586-.586A4.188,4.188,0,0,0,13.042,156.031Z" transform="translate(-5.448 -150.35)" fill="#d6cfbf"/>
      <path id="Path_1836" data-name="Path 1836" d="M11.289,156.031H7.062a1.394,1.394,0,0,0-1.393,1.393v1.223A2.156,2.156,0,0,0,7.823,160.8h3.466Z" transform="translate(-5.448 -150.35)" fill="#fff7e3"/>
      <path id="Path_1837" data-name="Path 1837" d="M40.322,12.732a2.2,2.2,0,0,0-2.192-2.114H33.775a2.2,2.2,0,0,0-2.193,2.193.584.584,0,0,0,.008.1,1.531,1.531,0,0,0,2.471,1.051,1.529,1.529,0,0,0,1.893,0,1.529,1.529,0,0,0,1.893,0,1.531,1.531,0,0,0,2.468-1.026.589.589,0,0,0,.012-.121A.6.6,0,0,0,40.322,12.732Z" transform="translate(-30.348 -10.618)" fill="#c23434"/>
      <path id="Path_1838" data-name="Path 1838" d="M35.954,10.618H33.775a2.2,2.2,0,0,0-2.193,2.193.584.584,0,0,0,.008.1,1.531,1.531,0,0,0,2.471,1.051,1.529,1.529,0,0,0,1.893,0Z" transform="translate(-30.348 -10.618)" fill="#ff4b4b"/>
      <path id="Path_1839" data-name="Path 1839" d="M13.6,210.238H9.863l2.64-2.64a.586.586,0,0,0-.829-.829l-2.64,2.64v-3.734a.586.586,0,0,0-1.172,0v3.734l-2.64-2.64a.586.586,0,0,0-.829.829l2.64,2.64H3.3a.586.586,0,1,0,0,1.172H7.033l-2.64,2.64a.586.586,0,1,0,.829.829l2.64-2.64v3.734a.586.586,0,1,0,1.172,0v-3.734l2.64,2.64a.586.586,0,0,0,.829-.829l-2.64-2.64H13.6a.586.586,0,0,0,0-1.172Z" transform="translate(-2.607 -197.491)" fill="#a66c45"/>
      <path id="Path_1840" data-name="Path 1840" d="M8.448,205.089a.586.586,0,0,0-.586.586v3.734l-2.64-2.64a.586.586,0,0,0-.829.829l2.64,2.64H3.3a.586.586,0,1,0,0,1.172H7.033l-2.64,2.64a.586.586,0,1,0,.829.829l2.64-2.64v3.734a.586.586,0,0,0,.586.586v-11.47Z" transform="translate(-2.607 -197.491)" fill="#de995b"/>
      <path id="Path_1841" data-name="Path 1841" d="M102.287,302.743a1.92,1.92,0,1,0,1.92,1.92A1.922,1.922,0,0,0,102.287,302.743Z" transform="translate(-96.446 -291.33)" fill="#d6cfbf"/>
      <path id="Path_1842" data-name="Path 1842" d="M102.287,302.743a1.92,1.92,0,1,0,0,3.839Z" transform="translate(-96.446 -291.33)" fill="#fff7e3"/>
      <path id="Path_1843" data-name="Path 1843" d="M5.841,214.058a5.841,5.841,0,1,1,5.841-5.841A5.848,5.848,0,0,1,5.841,214.058Zm0-10.51a4.669,4.669,0,1,0,4.669,4.669A4.674,4.674,0,0,0,5.841,203.548Z" transform="translate(0 -194.884)" fill="#1f1f1f"/>
      <path id="Path_1844" data-name="Path 1844" d="M5.841,212.886a4.669,4.669,0,1,1,0-9.338v-1.172a5.841,5.841,0,1,0,0,11.682Z" transform="translate(0 -194.884)" fill="#525252"/>
      <path id="Path_1845" data-name="Path 1845" d="M131.115,332.743a.748.748,0,1,0,.748.748A.748.748,0,0,0,131.115,332.743Z" transform="translate(-125.274 -320.158)" fill="#707070"/>
      <path id="Path_1846" data-name="Path 1846" d="M131.115,332.743a.748.748,0,1,0,0,1.5Z" transform="translate(-125.274 -320.158)" fill="#999"/>
    </g>
  </g>
</svg>
