<svg xmlns="http://www.w3.org/2000/svg" width="40" height="40" viewBox="0 0 51 51">
  <g id="Group_1985" data-name="Group 1985" transform="translate(-1488 -126)">
    <path id="Path_3024" data-name="Path 3024" d="M25.5,0A25.5,25.5,0,1,1,0,25.5,25.5,25.5,0,0,1,25.5,0Z" transform="translate(1488 126)" fill="#fae5fa"/>
    <path id="exchange" d="M8.6,18.641l1.295,1.295L6.366,23.464,2.806,19.9,4.1,18.608l1.35,1.35V13.746H7.282v6.213ZM1.831,11.869H0A6.326,6.326,0,0,1,3.657,6.14a3.663,3.663,0,1,1,5.384.03,6.325,6.325,0,0,1,3.594,5.7H10.8a4.486,4.486,0,1,0-8.972,0Zm2.7-8.194A1.831,1.831,0,1,0,6.363,1.844,1.833,1.833,0,0,0,4.532,3.675ZM23.438,23.451H21.607a4.486,4.486,0,0,0-8.972,0H10.8a6.326,6.326,0,0,1,3.657-5.729,3.663,3.663,0,1,1,5.384.03A6.325,6.325,0,0,1,23.438,23.451Zm-8.1-8.194a1.831,1.831,0,1,0,1.831-1.831A1.833,1.833,0,0,0,15.335,15.257Zm.915-11.735V9.809h1.831V3.489l1.367,1.367,1.295-1.295L17.183,0,13.655,3.528l1.295,1.295Zm0,0" transform="translate(1502 139.536)" fill="#b300b3"/>
  </g>
</svg>
