<?xml version="1.0" encoding="utf-8"?>
<!-- Generator: Adobe Illustrator 23.0.0, SVG Export Plug-In . SVG Version: 6.00 Build 0)  -->
<svg version="1.1" id="Layer_1" xmlns="http://www.w3.org/2000/svg" xmlns:xlink="http://www.w3.org/1999/xlink" x="0px" y="0px"
	 viewBox="0 0 750 500" style="enable-background:new 0 0 750 500;" xml:space="preserve">
<style type="text/css">
	.st0{fill:none;}
	.st1{fill:#E7F3FE;}
	.st2{fill:#FFB1AD;}
	.st3{fill:#189AD3;}
	.st4{fill:#FFFFFF;stroke:#1998D8;stroke-width:4;stroke-miterlimit:10;}
	.st5{fill:#F17154;}
	.st6{fill:#07A8A0;}
	.st7{fill:none;stroke:#52C686;stroke-width:2;stroke-linecap:round;stroke-linejoin:round;stroke-miterlimit:10;}
	.st8{fill:#EA2121;}
	.st9{opacity:0.3;fill:#5A50BF;}
	.st10{fill:#FF5D62;}
	.st11{opacity:0.3;fill:#FF5D62;}
	.st12{fill:#FFFFFF;}
	.st13{opacity:0.63;fill:#A1A1E7;}
	.st14{fill:#C5C3FD;}
	.st15{fill:#04B7B2;}
	.st16{fill:#666666;}
	.st17{fill:#11CE85;}
	.st18{fill:#F26E61;}
	.st19{fill:#4097FF;}
	.st20{fill:#ED971B;}
	.st21{fill:none;stroke:#FFFFFF;stroke-width:2;stroke-linecap:round;stroke-miterlimit:10;}
	.st22{fill:#CECECE;stroke:#727272;stroke-width:2;stroke-miterlimit:10;}
	.st23{fill:#77522D;}
	.st24{fill:none;stroke:#77522D;stroke-miterlimit:10;}
	.st25{fill:#7686D3;}
	.st26{fill:#FAB620;}
	.st27{fill:#E89F0F;}
	.st28{fill:#FFD180;}
	.st29{fill:#4D5BB2;}
	.st30{fill:#3F4E99;}
	.st31{fill:#F5FAFF;}
	.st32{fill:#342D7A;}
	.st33{fill:#6363AD;}
	.st34{fill:none;stroke:#1B1951;stroke-width:0.2109;stroke-linecap:round;stroke-miterlimit:10;}
	.st35{fill:#FF706A;}
	.st36{fill:#00C4C5;}
	.st37{fill:#008481;}
	.st38{fill:#FF8D71;}
	.st39{fill:none;stroke:#FFFFFF;stroke-width:0.8435;stroke-linecap:round;stroke-miterlimit:10;}
	.st40{fill:none;stroke:#FFFFFF;stroke-width:0.8435;stroke-miterlimit:10;}
	.st41{fill:#008E8B;}
	.st42{fill:none;stroke:#8F9ECC;stroke-width:2;stroke-linecap:round;stroke-miterlimit:10;}
	.st43{fill:#898989;}
	.st44{fill:#AFAFAF;}
	.st45{fill:#F2F3F4;}
	.st46{fill:#A1A1E7;}
	.st47{fill:none;stroke:#FFFFFF;stroke-linecap:round;stroke-miterlimit:10;}
	.st48{fill:none;stroke:#FFFFFF;stroke-linecap:round;stroke-miterlimit:10;stroke-dasharray:3.1265,3.1265;}
	.st49{fill:none;stroke:#FFFFFF;stroke-linecap:round;stroke-miterlimit:10;stroke-dasharray:3;}
</style>
<g>
	<rect class="st0" width="750" height="500"/>
	<g>
		<path class="st1" d="M130.5,434.8c0,0-44.8-66.1-17.9-128.9c26.9-62.9,77.9-48,149.5-111.9c87-77.6,148-81.9,225.7-48
			c43.9,19.2,51,98,120.9,147.1c63,44.2,11.6,119.4-21.5,131.1c-33.1,11.7-55.5,11.7-55.5,11.7L130.5,434.8z"/>
		<g>
			<g>
				<g>
					<path class="st2" d="M228.5,168.7c0,0,3.1-0.2,6.2,1.7c1.1,0.7,3.8,5.4,6.8,8.8c3,3.3-11.1,14.7-11.1,14.7l-1.9-8.5V168.7z"/>
					<path class="st2" d="M248,212.7c0,0,2.5-17,2.7-18.4c0.5-4-0.8-13.5-1.5-15.8c-0.7-2.4-4.8-7.4-6.5-10.2
						c-1.7-2.8-4.3-6-5.3-4.8c-1,1.2-1.6,2.8-0.7,6.3c0.8,3.5,4.2,6.9,4.1,8.8c-0.1,1.9-15.1,7.2-13.9,12.1
						c1.1,4.9,5.7,8.3,7.3,11.2c1.6,2.8-1,12.2-1,12.2L248,212.7z"/>
					<g>
						<path class="st3" d="M231.2,204.9l-3.8-0.9c-1.3-0.3-2-1.6-1.7-2.8l9.6-39.1c0.3-1.3,1.6-2,2.8-1.7l3.8,0.9
							c1.3,0.3,2,1.6,1.7,2.8l-9.6,39.1C233.7,204.5,232.4,205.2,231.2,204.9z"/>
						
							<rect x="238.2" y="155.6" transform="matrix(0.9713 0.2377 -0.2377 0.9713 44.8222 -52.5424)" class="st3" width="4" height="7.9"/>
						
							<ellipse transform="matrix(0.8463 -0.5327 0.5327 0.8463 -32.1876 151.8739)" class="st4" cx="247.1" cy="131.7" rx="24.7" ry="24.7"/>
					</g>
					<g>
						<path class="st2" d="M230.3,187.8c0,0,5.1,4.6,5.5,6.2c0.5,1.6-0.5,2.4-2.2,2c-1.6-0.4-6.3-4.5-6.8-5.1
							c-0.5-0.6-1.4-2.1,0-3.4C227.6,186.8,229.2,186.9,230.3,187.8z"/>
						<g>
							<path class="st5" d="M235.8,194c0.1,0.3,0.2,0.7,0.1,1c0,0.3-0.2,0.7-0.5,0.9c-0.6,0.4-1.4,0.3-2,0.1c-0.7-0.2-1.2-0.6-1.8-1
								c-0.6-0.4-1.1-0.8-1.6-1.2c-1-0.9-2.1-1.7-3-2.7c-0.5-0.5-0.8-1.2-0.9-1.9c0-0.7,0.3-1.4,0.8-1.8c-0.5,0.5-0.8,1.1-0.7,1.8
								c0.1,0.6,0.4,1.2,0.9,1.7c1,0.9,2,1.8,3.1,2.6c1,0.8,2.1,1.7,3.3,2.2c0.6,0.2,1.3,0.3,1.9,0C235.9,195.5,236,194.7,235.8,194
								z"/>
						</g>
						<path class="st2" d="M230.7,181.8c0,0,5.9,5.4,6.5,7.3c0.6,1.9-0.6,2.8-2.5,2.3c-1.9-0.5-7.3-5.3-7.9-6c-0.6-0.7-1.5-2.4,0-4
							C227.7,180.4,229.5,180.6,230.7,181.8z"/>
						<g>
							<path class="st5" d="M237.2,189c0.1,0.4,0.2,0.8,0.2,1.2c0,0.4-0.2,0.8-0.6,1.1c-0.7,0.5-1.6,0.4-2.4,0.2
								c-0.8-0.3-1.4-0.7-2.1-1.2c-0.7-0.4-1.3-0.9-1.9-1.4c-1.2-1-2.4-2-3.5-3.2c-0.6-0.6-0.9-1.4-1-2.2c-0.1-0.8,0.4-1.6,0.9-2.1
								c-0.5,0.6-0.9,1.4-0.8,2.1c0.1,0.8,0.5,1.5,1,2c1.1,1.1,2.3,2.1,3.6,3.1c1.2,1,2.5,2,3.9,2.6c0.7,0.2,1.6,0.3,2.2-0.1
								C237.3,190.7,237.4,189.8,237.2,189z"/>
						</g>
						<path class="st2" d="M230.9,175.7c0,0,5.9,5.4,6.5,7.3c0.6,1.9-0.6,2.8-2.5,2.3c-1.9-0.5-7.3-5.3-7.9-6c-0.6-0.7-1.5-2.4,0-4
							C227.8,174.5,229.7,174.5,230.9,175.7z"/>
						<g>
							<path class="st5" d="M237.4,182.9c0.1,0.4,0.2,0.8,0.2,1.2c0,0.4-0.2,0.8-0.6,1.1c-0.7,0.5-1.6,0.4-2.4,0.2
								c-0.8-0.3-1.4-0.7-2.1-1.2c-0.7-0.4-1.3-0.9-1.9-1.4c-1.2-1-2.4-2-3.5-3.2c-0.6-0.6-0.9-1.4-1-2.2c-0.1-0.8,0.4-1.6,0.9-2.1
								c-0.5,0.6-0.9,1.4-0.8,2.1c0.1,0.8,0.5,1.5,1,2c1.1,1.1,2.3,2.1,3.6,3.1c1.2,1,2.5,2,3.9,2.6c0.7,0.2,1.6,0.3,2.2-0.1
								C237.6,184.6,237.6,183.7,237.4,182.9z"/>
						</g>
						<path class="st2" d="M230.9,169.7c0,0,5.9,5.4,6.5,7.3c0.6,1.9-0.6,2.8-2.5,2.3c-1.9-0.5-7.3-5.3-7.9-6c-0.6-0.7-1.5-2.3,0-4
							C227.7,168.4,229.7,168.5,230.9,169.7z"/>
						<g>
							<path class="st5" d="M237.3,176.9c0.1,0.4,0.2,0.8,0.2,1.2c0,0.4-0.2,0.8-0.6,1.1c-0.7,0.5-1.6,0.4-2.4,0.2
								c-0.8-0.3-1.4-0.7-2.1-1.2c-0.7-0.4-1.3-0.9-1.9-1.4c-1.2-1-2.4-2-3.5-3.2c-0.5-0.6-1-1.4-1-2.2c0-0.8,0.4-1.6,0.9-2.1
								c-0.5,0.6-0.9,1.4-0.8,2.1c0.1,0.8,0.5,1.5,1,2c1.1,1.1,2.3,2.1,3.6,3.1c1.2,1,2.5,2,3.9,2.6c0.7,0.2,1.6,0.3,2.2-0.1
								C237.5,178.6,237.5,177.7,237.3,176.9z"/>
						</g>
					</g>
				</g>
				<g>
					<path class="st6" d="M250.3,209.4l-17.1-3.1c0,0-21.8,69.2-13.2,84.1l28.9-12.6C246.1,262,250.3,209.4,250.3,209.4z"/>
					<path class="st6" d="M291,318.5c0,0-28.4-29.2-42.3-41.6l-28.7,13.4c6.8,14.9,43.1,49.4,43.1,49.4L291,318.5z"/>
				</g>
				<g>
					<polyline class="st7" points="232.9,145.3 234.9,128.6 254.3,135.5 257.3,119.3 					"/>
					<polyline class="st7" points="253.4,122 257.3,119.2 260.1,123.1 					"/>
				</g>
				<path class="st2" d="M240.6,177.4c0,0-6.1-10.3-3.8-13.5c2.2-3.1,4.8,2.6,6.3,4.8"/>
			</g>
			<g>
				<g>
					<g>
						<path class="st8" d="M198.7,235.7c-0.3,0.2-0.6,0.4-1,0.5c-2.6,1.2-5.3,1.2-6.2-0.1c-0.3,0.1-0.5,0.1-0.7,0.2
							c-1.2,0.3-2.1,0.4-2.3,0.1l-4.2-5.8l-0.7-0.9l17.9-8.5l2.2,8c0.1,0.4-0.7,1.2-2.1,2.1C201.9,232.6,200.7,234.4,198.7,235.7z"
							/>
						<path class="st9" d="M190.8,236.3c-1.2,0.3-2.1,0.4-2.3,0.1l-4.2-5.8l3.1,0.8C187.4,231.4,189.3,234.2,190.8,236.3z"/>
						<path class="st8" d="M183.7,229.7c0,0-15.5,8.6-27.7,9.4c-1.1,0.1-2.2-0.5-2.7-1.5c-0.2-0.3-0.3-0.6-0.5-1
							c-1.4-2.6-3.3-6.9-3.9-11.5c-0.2-1.9,1.4-3.4,3.3-3.2c4.2,0.6,12.2,0.9,22.2-2.2c1.4-0.4,2.9-1,4.4-1.5L183.7,229.7z"/>
						<path class="st9" d="M183.7,229.7c0,0-15.5,8.6-27.7,9.4c-1.1,0.1-2.2-0.5-2.7-1.5c-0.2-0.3-0.3-0.6-0.5-1
							c8.7,0.9,27-7.8,27-7.8c-1.2-2.7-4.6-7.8-5.4-9.1c1.4-0.4,2.9-1,4.4-1.5L183.7,229.7z"/>
						<path class="st10" d="M174.9,216.9c0,0-0.7,0.4-1.9,0.7c-2.4,0.6-6.4,1.1-8.8-2.3c-0.3-0.4-0.2-0.9,0.2-1.1
							c0.3-0.2,0.6-0.2,0.9-0.1c0.8,0.5,2.8,1.3,5.5,0.4c0.9-0.3,1.8-0.7,2.8-1.4L174.9,216.9z"/>
						<path class="st11" d="M174.9,216.9c0,0-0.7,0.4-1.9,0.7c-0.7-1.1-1.8-2.6-2.2-3.2c0.9-0.3,1.8-0.7,2.8-1.4L174.9,216.9z"/>
						<path class="st12" d="M194.6,229.6c-0.4,0.2-0.7,0.4-1.1,0.5c-5.1,2.3-9.4,3.6-9.7,2.8c-15.9-33.4-38-38.7-38-38.7l15.1-8.1
							l10.4-5.6l26.7-11.3c0,0-9.8,20.5,6.1,53.9C204.4,224.1,200.2,226.9,194.6,229.6z"/>
						<path class="st13" d="M193.5,230.1c-5.1,2.3-9.4,3.6-9.7,2.8c-15.9-33.4-38-38.7-38-38.7l15.1-8.1c0,0,11,7.4,20.3,20.9
							C186.3,214.5,190.7,223.8,193.5,230.1z"/>
						<g>
							<path class="st8" d="M187.8,164c2.7-1,4.9-1.7,6.4-2.1c2.1-0.5,3-0.5,3.4,0.2c0,0,2.4,4.1,0.4,7.3c-0.1,0.2-0.3,0.5-0.7,0.8
								c0,0,0,0,0,0l0,0c-2.6,2.4-12.4,7.9-24.5,13.6c-12,5.7-22.5,9.9-26,10.4l0,0c0,0,0,0,0,0c-0.5,0.1-0.9,0.1-1.1,0
								c-3.8-0.4-5.4-4.9-5.4-4.9l0,0c-0.3-0.7,0.2-1.4,2-2.7c1.3-1,3.2-2.2,5.7-3.7c5.1-3,12.1-6.6,19.6-10.2
								C175,169.2,182.2,166.1,187.8,164z"/>
							<path class="st14" d="M167.8,173.3c-15.5,7.4-27.6,14.4-27,15.7c0.6,1.3,13.7-3.6,29.2-11c15.5-7.4,27.6-14.4,27-15.7
								C196.4,161,183.3,165.9,167.8,173.3z"/>
							<g>
								<g>
									<path class="st12" d="M168.1,173.9c-4.8,2.3-8.9,4.4-12.5,6.3l0,0c-7.9,4.2-12.7,7.2-13.8,8.5c2.5-0.2,12.7-3.9,28.1-11.2
										c3.9-1.8,7.3-3.6,10.4-5.2c9.2-4.7,14.7-8.2,16-9.6C193.6,162.9,183.4,166.6,168.1,173.9z"/>
								</g>
							</g>
						</g>
						<path class="st9" d="M198.7,235.7c-0.3,0.2-0.6,0.4-1,0.5c-2.6,1.2-5.3,1.2-6.2-0.1c0,0,1.6-0.6,2.1-0.8
							C193.6,235.3,195.2,237,198.7,235.7z"/>
					</g>
					<path class="st2" d="M157.8,238.9c0,0-0.1,0.9,1.8,3.8c1.9,2.9,3.2,2.6,4.1,5.2s1.1,4.5,1.1,4.5l14-3.5c0,0-1.9-4.8-2-6.3
						s1.4-6.2,2-8.3c0.6-2,0.9-2.8,0.6-4.8c-0.3-2-4.9-8.5-5.8-8.8c-0.9-0.3-1.3,1.1-1.5,2.7c-0.2,1.6,1.8,4.7,2.2,5.8
						c0.3,0.7-0.5,2.5-1.1,3.8c-0.5,1-1.3,1.7-2.3,2.2c-1,0.4-2.3,1-3.9,1.5C163.2,238,157.8,238.9,157.8,238.9z"/>
					<path class="st2" d="M161,220.4c0,0,1.8,5.8,2.1,6.8c0.3,0.9,1.4,2.7,2.6,2.4c1.2-0.2,1.5-1.4,1.4-2.7c0-1.6-1-6.6-1.3-7.5
						C165.1,217.4,161,217.5,161,220.4z"/>
					<path class="st2" d="M156.9,221.4c0,0,1.7,5.5,2,6.4c0.3,0.9,1.3,2.2,2.4,2.1c1.1-0.2,1.4-1,1.4-2.3c0-1.5-0.9-6.2-1.3-7.1
						C160.8,218.6,156.9,218.6,156.9,221.4z"/>
					<path class="st2" d="M153.4,222.3c0,0,1.5,4.8,1.7,5.6c0.2,0.8,1.1,2,2.1,1.8c1-0.2,1.3-0.9,1.2-2c0-1.3-0.8-5.5-1.1-6.3
						C156.8,219.8,153.4,219.8,153.4,222.3z"/>
					<path class="st2" d="M165.5,219.9c0,0,1.6,5.1,1.8,6c0.2,0.8,1.2,2.1,2.2,1.9c1-0.2,1.3-1,1.3-2.2c0-1.4-0.9-5.8-1.2-6.6
						C169.1,217.3,165.5,217.3,165.5,219.9z"/>
				</g>
				<path class="st15" d="M204,303.3c-9.3-15.8-23.8-57-23.8-57l-18.6,4.4c0,0,7.8,54.7,16.3,70.6c0,0,2.7,4.9,7.2,7.6
					c13.2,9.8,64.4,23.2,64.4,23.2l14.1-32.1C263.5,319.9,222.2,307.4,204,303.3z"/>
				<g>
					<polygon class="st12" points="156.7,171.3 121.5,153.9 129,151.3 104,129.6 145.2,153.7 134.7,155.3 					"/>
					<polygon class="st12" points="164.6,163.9 139.4,133.8 147.3,134.5 133.1,104.5 161.2,143.1 150.9,140.4 					"/>
					<polygon class="st12" points="178,157.4 167.8,125.9 173.8,128.9 172.2,101 181.9,140.1 174.8,134.7 					"/>
				</g>
			</g>
			<g>
				<g>
					<path class="st16" d="M372.2,149.4l8,33.1c0.4,1.5-0.6,3.1-2.1,3.5l-44.8,10.8c-1.5,0.4-3.1-0.6-3.5-2.1l-8-33.1
						c-0.4-1.5,0.6-3.1,2.1-3.5l44.8-10.8C370.3,147,371.8,147.9,372.2,149.4z"/>
					<g>
						<path class="st17" d="M357.2,172.6l3.3,13.7c0.2,0.7-0.2,1.3-0.9,1.5l-13.7,3.3c-0.7,0.2-1.3-0.2-1.5-0.9l-3.3-13.7
							c-0.2-0.7,0.2-1.3,0.9-1.5l13.7-3.3C356.4,171.6,357,172,357.2,172.6z"/>
						<path class="st18" d="M352.9,155l3.3,13.7c0.2,0.7-0.2,1.3-0.9,1.5l-13.7,3.3c-0.7,0.2-1.3-0.2-1.5-0.9l-3.3-13.7
							c-0.2-0.7,0.2-1.3,0.9-1.5l13.7-3.3C352.1,153.9,352.8,154.3,352.9,155z"/>
						<path class="st19" d="M374.7,168.4l3.3,13.7c0.2,0.7-0.2,1.3-0.9,1.5l-13.7,3.3c-0.7,0.2-1.3-0.2-1.5-0.9l-3.3-13.7
							c-0.2-0.7,0.2-1.3,0.9-1.5l13.7-3.3C373.9,167.4,374.5,167.8,374.7,168.4z"/>
						<path class="st20" d="M370.4,150.8l3.3,13.7c0.2,0.7-0.2,1.3-0.9,1.5l-13.7,3.3c-0.7,0.2-1.3-0.2-1.5-0.9l-3.3-13.7
							c-0.2-0.7,0.2-1.3,0.9-1.5l13.7-3.3C369.6,149.7,370.3,150.1,370.4,150.8z"/>
					</g>
					<path class="st12" d="M333.8,159.5l7.7,31.7c0.1,0.6-0.2,1.1-0.8,1.3l-7.6,1.8c-0.6,0.1-1.1-0.2-1.3-0.8l-7.7-31.7
						c-0.1-0.6,0.2-1.1,0.8-1.3l7.6-1.8C333.1,158.5,333.6,158.9,333.8,159.5z"/>
					<line class="st21" x1="345.8" y1="182.6" x2="355.8" y2="180.2"/>
					<line class="st21" x1="349.6" y1="176.4" x2="352" y2="186.4"/>
					<line class="st21" x1="363.9" y1="174.5" x2="372.7" y2="179.9"/>
					<line class="st21" x1="371" y1="172.8" x2="365.6" y2="181.6"/>
					<line class="st21" x1="345.3" y1="158.8" x2="347.8" y2="168.8"/>
					<line class="st21" x1="362.8" y1="154.6" x2="365.3" y2="164.6"/>
					<path class="st12" d="M360.6,159c0.7-0.2,1.4,0.3,1.6,1c0.2,0.7-0.3,1.4-1,1.6c-0.7,0.2-1.4-0.3-1.6-1
						C359.4,159.9,359.8,159.2,360.6,159z"/>
					<path class="st12" d="M366.9,157.5c0.7-0.2,1.4,0.3,1.6,1c0.2,0.7-0.3,1.4-1,1.6c-0.7,0.2-1.4-0.3-1.6-1
						C365.8,158.4,366.2,157.7,366.9,157.5z"/>
				</g>
				<path class="st2" d="M361,213.1l-1.1-3.7c-0.7-2.3-2.2-4.2-4.2-5.5c-2.9-1.8-7-4.4-7.9-5.4c-1.5-1.6-8.8-17.1-8-17.7
					c0.8-0.6,2-1.7,4.5,0.5c1.6,1.3,3.9,4.8,5.7,7.5c1.3,2,3.8,3,6.2,2.4l12.1-2.9c4,1.3,5.4,9.9,5.2,12c-0.2,2.1,1.6,9.3,1.6,9.3"
					/>
				<path class="st6" d="M358.7,211.7l16.9-4.1c0,0,23.9,55.4,17.1,79.2l-29.2-10.5C365.4,260.4,358.7,211.7,358.7,211.7z"/>
				<path class="st6" d="M321.7,314.9c0,0,28.4-29.2,42.3-41.6l28.7,13.4c-6.8,14.9-43.1,49.4-43.1,49.4L321.7,314.9z"/>
			</g>
			<g>
				<g>
					<path class="st22" d="M482.3,188.8L469,239.5c-0.2,0.8-1.1,1.3-1.9,1.1l-69.3-18.2c-0.8-0.2-1.3-1.1-1.1-1.9l13.3-50.7
						c0.2-0.8,1.1-1.3,1.9-1.1l69.3,18.2C482,187.1,482.5,188,482.3,188.8z"/>
					<path class="st12" d="M477.5,190l-12.1,46.1c-0.2,0.9-1.2,1.4-2,1.2l-63.3-16.6c-0.9-0.2-1.4-1.2-1.2-2l12.1-46.1
						c0.2-0.9,1.2-1.4,2-1.2l63.3,16.6C477.2,188.2,477.8,189.1,477.5,190z"/>
					<path class="st12" d="M466.8,198.7l3.6,13.5l-1,8.7l-4,15.1c-0.2,0.9-1.2,1.5-2.1,1.2l-63.2-16.6c-0.9-0.2-1.5-1.2-1.2-2.1
						l12.1-46c0.2-0.9,1.2-1.5,2.1-1.2l33.2,8.7l4,1.6L466.8,198.7z"/>
					<path class="st23" d="M409.7,185.4l-5.6,21.3c-0.1,0.3-0.4,0.4-0.6,0.4l-4-1c-0.3-0.1-0.4-0.4-0.4-0.6l5.6-21.3
						c0.1-0.3,0.4-0.4,0.6-0.4l4,1C409.6,184.9,409.8,185.2,409.7,185.4z"/>
					<path class="st24" d="M404.7,191.4l-2,7.5l-1.9-0.5c-2.1-0.5-3.3-2.6-2.8-4.7l0,0c0.5-2.1,2.6-3.3,4.7-2.8L404.7,191.4z"/>
				</g>
				<path class="st2" d="M423.4,252.3l0.8-3.8c0.5-2.3,0.1-4.7-1.1-6.8c-1.7-3-4.1-7.2-4.4-8.5c-0.5-2.1,0.4-19.2,1.3-19.4
					c1-0.2,2.6-0.5,3.8,2.6c0.8,1.9,1.2,6.1,1.5,9.3c0.2,2.4,1.9,4.5,4.3,5.1l12,3.2c2.9,3,0,11.3-1.1,13c-1.1,1.8-3,9-3,9"/>
				<path class="st15" d="M422.1,250.4l16.9,4.2c0,0-3.4,67.8-25.6,83.7L396.7,310C405.8,296.8,422.1,250.4,422.1,250.4z"/>
				<path class="st15" d="M339.3,319.6c0,0,38.9-7.7,57.4-9.6l16.6,28.3c-14.2,8.2-63.8,14.9-63.8,14.9L339.3,319.6z"/>
			</g>
			<g>
				<g>
					
						<rect x="497.9" y="362.3" transform="matrix(-1 -1.224647e-16 1.224647e-16 -1 1026.7263 781.9912)" class="st25" width="30.9" height="57.5"/>
					
						<rect x="535.3" y="359.4" transform="matrix(-1 -1.224647e-16 1.224647e-16 -1 1087.8416 794.4154)" class="st26" width="17.3" height="75.6"/>
					<polygon class="st27" points="535.3,359.4 525.4,359.4 515.3,396 494.8,396 494.8,435 535.3,435 					"/>
					<circle class="st28" cx="543.9" cy="373.5" r="5.4"/>
					
						<rect x="539.3" y="382" transform="matrix(-1 -1.224647e-16 1.224647e-16 -1 1087.8416 796.7921)" class="st28" width="9.2" height="32.9"/>
					
						<rect x="539.3" y="416.4" transform="matrix(-1 -1.224647e-16 1.224647e-16 -1 1087.8416 836.1064)" class="st28" width="9.2" height="3.4"/>
					
						<rect x="539.3" y="421.1" transform="matrix(-1 -1.224647e-16 1.224647e-16 -1 1087.8416 845.6353)" class="st28" width="9.2" height="3.4"/>
				</g>
				<g>
					
						<rect x="473.1" y="362.3" transform="matrix(-1 -1.224647e-16 1.224647e-16 -1 977.0272 781.9912)" class="st25" width="30.9" height="57.5"/>
					
						<rect x="510.4" y="359.4" transform="matrix(-1 -1.224647e-16 1.224647e-16 -1 1038.1425 794.4154)" class="st29" width="17.3" height="75.6"/>
					<polygon class="st30" points="510.4,359.4 500.6,359.4 490.5,396 469.9,396 469.9,435 510.4,435 					"/>
					<path class="st25" d="M513.7,373.5c0,3,2.4,5.4,5.4,5.4c3,0,5.4-2.4,5.4-5.4c0-3-2.4-5.4-5.4-5.4
						C516.1,368.1,513.7,370.5,513.7,373.5z"/>
					
						<rect x="514.5" y="382" transform="matrix(-1 -1.224647e-16 1.224647e-16 -1 1038.1423 796.7921)" class="st25" width="9.2" height="32.9"/>
					
						<rect x="514.5" y="416.4" transform="matrix(-1 -1.224647e-16 1.224647e-16 -1 1038.1423 836.1064)" class="st25" width="9.2" height="3.4"/>
					
						<rect x="514.5" y="421.1" transform="matrix(-1 -1.224647e-16 1.224647e-16 -1 1038.1423 845.6353)" class="st25" width="9.2" height="3.4"/>
				</g>
			</g>
			<g>
				
					<rect x="436.9" y="400.4" transform="matrix(-1 -1.224647e-16 1.224647e-16 -1 902.476 835.464)" class="st12" width="28.6" height="34.6"/>
				
					<rect x="436.9" y="400.4" transform="matrix(-1 -1.224647e-16 1.224647e-16 -1 880.5065 835.464)" class="st31" width="6.7" height="34.6"/>
				<g>
					<path class="st31" d="M437.1,430.9l1.4-1.7c-0.1-0.1-10.3-8.2-10.7-15.1c-0.2-3.1,0.6-5.5,2.1-7c1.1-1,2.6-1.5,4-1.3
						c2.3,0.3,4.9,2.7,4.9,2.7l1.5-1.6c-0.1-0.1-3.1-2.8-6.1-3.3c-2.1-0.3-4.3,0.4-5.8,1.9c-1.4,1.3-3.1,3.9-2.8,8.7
						C426,422.1,436.6,430.5,437.1,430.9z"/>
				</g>
			</g>
			<g>
				<path class="st2" d="M437.2,311c0,0-2.6,2.1-3.7,2.8c-1.1,0.7-4.9,2-8.2,5.1c-3.4,3,9.5,15.8,9.5,15.8l5-8.3L437.2,311z"/>
				<path class="st2" d="M407.9,342.6c0,0,6.7-8.7,7.5-9.9c0.9-1.2,1.4-13.1,2.3-15.4c0.9-2.3,4.7-7.7,6.7-10.3
					c2-2.6,4.9-6.5,5.8-5.2c0.9,1.3,0.7,3.9-0.5,7.3c-1.2,3.4-3.6,7.4-3.7,9.2c-0.1,1.9,14.2,8.7,12.6,13.5
					c-1.6,4.8-10.6,8.1-12.5,10.8c-1.9,2.6-6.5,9.8-6.5,9.8L407.9,342.6z"/>
				<path class="st32" d="M447.6,285.9l-8.1,48.8c-0.1,0.6-0.7,1-1.3,0.8l-13.9-4.6c-0.5-0.2-0.8-0.6-0.7-1.1l8-48.1
					c0.1-0.4,0.3-0.7,0.7-0.8l1.1-0.4c0.2-0.1,0.4-0.1,0.7,0l12.9,4.3C447.3,284.9,447.6,285.4,447.6,285.9z"/>
				<path class="st12" d="M436.8,329.7l-11.8-3.9c-0.2-0.1-0.3-0.3-0.3-0.5l6.8-40.9c0-0.3,0.3-0.4,0.5-0.3l11.8,3.9
					c0.2,0.1,0.3,0.3,0.3,0.5l-6.8,40.9C437.3,329.7,437.1,329.8,436.8,329.7z"/>
				<polygon class="st33" points="440.6,285.6 440.5,286.2 435.7,284.6 435.8,284 				"/>
				<path class="st33" d="M432.8,331c-0.2,0.7-1.3,1-2.3,0.6c-1.1-0.3-1.8-1.2-1.5-1.9c0.2-0.7,1.3-1,2.3-0.6
					C432.4,329.5,433.1,330.3,432.8,331z"/>
				<path class="st34" d="M432.8,281.8l12.1,4c0.2,0.1,0.3,0.3,0.3,0.5l-5,30"/>
				<polygon class="st35" points="410.1,339.8 424,345.9 421.6,349.4 				"/>
				<path class="st2" d="M424,307.6c0,0,4.7-6.7,5.3-6.6c0.6,0.1,1.8,1.9,1.2,5.4s-5,10.6-5,10.6L424,307.6z"/>
				<path class="st36" d="M358.9,414.5c-4.1-3.4-8.3-7.4-12.3-11.4c-8.6-8.8-16.4-18.1-21-24c-2.9-3.7-4.6-6-4.6-6l26.4-50.2
					c0,0,31.2,70.3,33.2,76.9C383.1,408.5,378,430.3,358.9,414.5z"/>
				<path class="st36" d="M350,406.5c0,0,18.6,21.4,26.9,13.6c8.2-7.8,47.1-70.8,47.1-70.8s-8.5-6-15.2-10.4l-41.6,47.8L350,406.5z"
					/>
				<path class="st37" d="M346.5,403c-8.6-8.8-16.4-18.1-21-24l8.6-17.1l7.3-3.9C341.4,358,344,389.5,346.5,403z"/>
				<path class="st36" d="M335.9,411.3c-1.4,9.5-2.6,18.5-3.4,24.7H260c-0.7-5.4-1.6-13.3-2.5-22.5c-0.6-5.7-1.1-11.9-1.7-18.3
					c-2.7-31.3-5.1-67-4-70.9c1.9-7,38.8-16,38.8-16l25.9,0.8c0,0,30,7.3,31.2,15.2C348.9,332.2,338.5,394.1,335.9,411.3z"/>
				<path class="st37" d="M267.8,382.3c0,0-4.5,18.4-10.3,31.1c-0.6-5.7-1.1-11.9-1.7-18.3L267.8,382.3z"/>
				<path class="st36" d="M252,323.8c0,0-40,81.6-36.9,90.9c3.1,9.3,28.1,4.2,34.6-0.9c6.5-5.1,18.1-31.5,18.1-31.5
					S279.4,317.8,252,323.8z"/>
				<path class="st38" d="M314.5,435.6c0,0,18.8,0.2,19.5,0.3c0.7,0.1,2.6-0.9,1.4-2.8c-1.3-2-6.1-2-7.9-2.1
					c-1.8-0.1-2.6-1.3-5.8-1.8L314.5,435.6z"/>
				<path class="st2" d="M301.2,421.8c0,0,7.5,1.2,10.7,1.8c3.2,0.6,12.2-2.5,16.5-3.1c4.3-0.6,21.9,14.5,20.7,15
					c-1.2,0.5-4.9,1-8.2-1.2c-3.3-2.2-9.6-5.8-10.8-5.7c-1.3,0-7.2,2.6-9.4,4.1c-2.3,1.5-4.9,3.2-8.3,3.2c-3.4,0-10.4-0.1-17.6-0.7
					L301.2,421.8z"/>
				<polygon class="st35" points="302.7,421.1 307.2,435.9 301.1,435.9 				"/>
				<path class="st36" d="M215.8,408.2c0,0-7.4,23.2,3.6,26c11,2.8,83.5,1.7,83.5,1.7s0.4-10.4,0.4-16.1c0,0-29.5-6.7-40-8.8
					c-5.2-1.1-21.6-4.4-21.6-4.4L215.8,408.2z"/>
				<path class="st2" d="M307.6,333.6c-14.3,1.3-20.7-24.3-20.7-24.3l0.7-0.2c1.6-0.4,2.8-1.8,3-3.4c0,0,1.2-7.8-0.2-16.2
					c-1.1-6.8,27.5,1.8,27.5,1.8l-0.5,8.1l-0.4,6.5c-0.1,1.9,1.1,3.6,2.9,4.1C320,310,321.8,332.4,307.6,333.6z"/>
				<path class="st35" d="M320,310c-16.4-3.1-20.3-17.1-20.3-17.1l10.6,2.9l7.1,3.6l-0.4,6.5C317,307.8,318.2,309.5,320,310z"/>
				<g>
					<path class="st32" d="M337.8,248.6c0,0,1.8,25.2-4.7,23.9l-0.8-21.4L337.8,248.6z"/>
					<line class="st39" x1="339.3" y1="270" x2="333.4" y2="270.3"/>
					<path class="st2" d="M334.1,276.8c-0.1,1.6-0.2,3.3-0.3,4.9c-0.9,10-2.7,19.3-6.7,22c-5.4,3.8-15.1,1.2-22.6-1.8
						c-8.7-3.5-13.9-10.8-18-19.2c-8.8-17.7-6.1-32.1-6.1-32.1H334C334,250.6,334.8,263.6,334.1,276.8z"/>
					<path class="st32" d="M297,253.9c0,0,1.7,23.5-1.6,24.7c-3.3,1.2-5.3-7.3-7.3-7.2c-2,0.1-7.6-0.3-7.6-0.3s-8.7-13.3-6.9-23.7
						c1.9-10.5,10.7-11.5,14.5-10.2c12.1-19.6,43.7-0.7,46.6-18.6c12.4,9.6,11.2,20.8,6,27.8c-2.9,3.9-6.6,5.4-6.6,5.4
						S308.1,250.9,297,253.9z"/>
				</g>
				<g>
					<circle class="st40" cx="309.9" cy="270" r="8.7"/>
					<circle class="st40" cx="330.6" cy="270" r="8.7"/>
					<path class="st40" d="M318.6,270c0,0,1.3-1.3,3.3,0"/>
					<line class="st39" x1="285.3" y1="270.6" x2="301.1" y2="270"/>
				</g>
				<path class="st2" d="M290.3,274.1c0,0-1.5-5.2-7.4-4.8c-4.4,0.3-5.2,5-4.3,9.2c1,4.2,5.7,12,13.1,8.8L290.3,274.1z"/>
				<g>
					<path class="st41" d="M256.7,322.7c5.3-1.3,11.2-0.6,15.8,2.7l0.9,0.6c0.3,0.2,0.5,0.5,0.8,0.7l0.8,0.7l0.4,0.4l0.3,0.4
						l1.3,1.6c0.4,0.6,0.7,1.2,1.1,1.8c0.2,0.3,0.4,0.6,0.5,0.9l0.4,1l0.8,1.9c0.4,1.3,0.8,2.7,1,4.1c0.3,2.8,0.1,5.6-0.4,8.3
						c-0.5,2.7-1.3,5.4-2.1,7.9c-1.8,5.2-3.7,10.2-6,15.2c0.9-2.6,1.8-5.1,2.7-7.7c0.9-2.6,1.7-5.2,2.5-7.8c1.6-5.2,3-10.5,2.2-15.8
						c-0.2-1.3-0.5-2.6-0.9-3.9l-0.8-1.9l-0.4-0.9c-0.1-0.3-0.3-0.6-0.5-0.9c-1.2-2.4-3-4.4-5.1-6c-2.1-1.6-4.6-2.7-7.3-3.2
						C262.1,322.3,259.4,322.2,256.7,322.7z"/>
				</g>
				<g>
					<path class="st41" d="M347.6,330.9c-0.2,4.6-0.6,9.1-1.2,13.6c-0.6,4.5-1.2,9-2.2,13.5c0.2-4.6,0.6-9.1,1.2-13.6
						C345.9,339.9,346.6,335.4,347.6,330.9z"/>
				</g>
				<g>
					<path class="st2" d="M439.9,329.4c0,0-5.5,4-6.2,5.6c-0.6,1.6,0.3,2.5,1.9,2.2c1.7-0.2,6.7-3.8,7.3-4.4
						c0.6-0.6,1.6-1.9,0.3-3.4C442.7,328.7,441,328.5,439.9,329.4z"/>
					<g>
						<path class="st5" d="M433.7,335c-0.2,0.6-0.3,1.4,0.3,1.8c0.5,0.4,1.2,0.4,1.9,0.2c1.2-0.4,2.4-1.2,3.5-1.9
							c1.1-0.7,2.3-1.5,3.3-2.3c0.5-0.4,0.9-1,1.1-1.6c0.2-0.6-0.1-1.3-0.5-1.9c0.4,0.5,0.8,1.2,0.6,1.9c-0.1,0.7-0.5,1.3-1,1.8
							c-1.1,0.9-2.2,1.6-3.3,2.4c-0.6,0.4-1.2,0.7-1.8,1c-0.6,0.3-1.2,0.6-1.9,0.8c-0.7,0.1-1.5,0.1-2-0.4c-0.3-0.2-0.4-0.6-0.4-1
							C433.5,335.6,433.6,335.3,433.7,335z"/>
					</g>
					<path class="st2" d="M440.1,323.3c0,0-6.4,4.7-7.2,6.5c-0.8,1.8,0.3,2.9,2.3,2.6c1.9-0.3,7.8-4.5,8.5-5.1
						c0.6-0.6,1.8-2.3,0.4-4C443.2,322.3,441.4,322.3,440.1,323.3z"/>
					<g>
						<path class="st5" d="M432.9,329.9c-0.3,0.7-0.3,1.7,0.3,2.1c0.6,0.5,1.5,0.5,2.2,0.3c1.5-0.5,2.8-1.4,4.1-2.2
							c1.3-0.8,2.6-1.7,3.9-2.7c0.6-0.5,1-1.2,1.2-1.9c0.2-0.8-0.1-1.6-0.5-2.2c0.5,0.6,0.9,1.4,0.7,2.2c-0.1,0.8-0.6,1.5-1.2,2.1
							c-1.2,1-2.5,1.9-3.9,2.8c-0.7,0.4-1.3,0.8-2,1.2c-0.7,0.4-1.4,0.8-2.2,0.9c-0.8,0.2-1.7,0.1-2.3-0.4c-0.3-0.3-0.5-0.7-0.5-1.1
							C432.6,330.6,432.7,330.2,432.9,329.9z"/>
					</g>
					<path class="st2" d="M440.5,317.2c0,0-6.4,4.7-7.2,6.5c-0.8,1.8,0.3,2.9,2.3,2.6c1.9-0.3,7.8-4.5,8.5-5.1
						c0.6-0.6,1.8-2.3,0.4-4C443.8,316.4,441.8,316.2,440.5,317.2z"/>
					<g>
						<path class="st5" d="M433.3,323.8c-0.3,0.7-0.3,1.7,0.3,2.1c0.6,0.5,1.5,0.5,2.2,0.3c1.5-0.5,2.8-1.4,4.1-2.2
							c1.3-0.8,2.6-1.7,3.9-2.7c0.6-0.5,1-1.2,1.2-1.9c0.2-0.8-0.1-1.6-0.5-2.2c0.5,0.6,0.8,1.4,0.7,2.2c-0.1,0.8-0.6,1.5-1.2,2.1
							c-1.2,1-2.5,1.9-3.9,2.8c-0.7,0.4-1.3,0.8-2,1.2c-0.7,0.4-1.4,0.8-2.2,0.9c-0.8,0.2-1.7,0.1-2.3-0.4c-0.3-0.3-0.5-0.7-0.5-1.1
							C433,324.5,433.1,324.1,433.3,323.8z"/>
					</g>
					<path class="st2" d="M441.2,311.3c0,0-6.4,4.7-7.2,6.5c-0.8,1.8,0.3,2.9,2.3,2.6c1.9-0.3,7.8-4.5,8.5-5.1s1.7-2.1,0.4-4
						C444.5,310.4,442.5,310.3,441.2,311.3z"/>
					<g>
						<path class="st5" d="M434,317.8c-0.3,0.7-0.3,1.7,0.3,2.1c0.6,0.5,1.5,0.5,2.2,0.3c1.5-0.5,2.8-1.4,4.1-2.2
							c1.3-0.8,2.6-1.7,3.9-2.7c0.6-0.5,1.1-1.1,1.2-1.9c0.2-0.8-0.1-1.6-0.5-2.2c0.5,0.6,0.8,1.4,0.7,2.2c-0.1,0.8-0.6,1.5-1.2,2.1
							c-1.2,1-2.5,1.9-3.9,2.8c-0.7,0.4-1.3,0.8-2,1.2c-0.7,0.4-1.4,0.8-2.2,0.9c-0.8,0.1-1.7,0.1-2.3-0.4c-0.3-0.3-0.5-0.7-0.5-1.1
							C433.7,318.6,433.8,318.2,434,317.8z"/>
					</g>
				</g>
				<g>
					<path class="st41" d="M249.5,408.2c2.3,0.4,4.5,0.8,6.8,1.2l6.8,1.3c4.5,0.9,9,1.9,13.5,2.8c4.5,1,9,2,13.5,3l6.7,1.6
						c2.2,0.6,4.5,1.1,6.7,1.7c-2.3-0.4-4.5-0.8-6.8-1.2l-6.8-1.3c-4.5-0.9-9-1.9-13.5-2.8c-4.5-1-9-2-13.5-3l-6.7-1.6
						C253.9,409.4,251.7,408.8,249.5,408.2z"/>
				</g>
				<g>
					<path class="st41" d="M309.9,333.2c0.7,4.6,1.1,9.3,1.3,13.9c0.2,4.7,0.2,9.4-0.3,14c-0.3-4.7-0.5-9.3-0.7-14
						C310,342.5,309.8,337.9,309.9,333.2z"/>
				</g>
				<path class="st41" d="M308.2,340.7c0,0.9-0.7,1.6-1.6,1.6s-1.6-0.7-1.6-1.6s0.7-1.6,1.6-1.6S308.2,339.8,308.2,340.7z"/>
				<path class="st41" d="M308.8,353.1c0,0.9-0.7,1.6-1.6,1.6c-0.9,0-1.6-0.7-1.6-1.6c0-0.9,0.7-1.6,1.6-1.6
					C308,351.5,308.8,352.2,308.8,353.1z"/>
				<path class="st32" d="M286.6,238.5c0,0-1.1-3.5-7.8-4.3c0,0,5.2-2.3,9,1.2c0,0-1.2-7.7,2.3-10.1c0,0-0.8,6.7,1.4,11L286.6,238.5
					z"/>
			</g>
			<g>
				<line class="st42" x1="137.4" y1="435.9" x2="568.2" y2="435.9"/>
			</g>
			<g>
				<path class="st43" d="M314.1,435h-51.6c-0.3,0-0.6-0.3-0.6-0.6v-3.3c0-0.3,0.3-0.6,0.6-0.6h51.6c0.3,0,0.6,0.3,0.6,0.6v3.3
					C314.7,434.8,314.4,435,314.1,435z"/>
				<path class="st43" d="M418.9,435H311.3c-0.4,0-0.7-0.4-0.6-0.8l27.4-79.9c0.1-0.2,0.3-0.4,0.6-0.4h107.6c0.4,0,0.7,0.4,0.6,0.8
					l-27.4,79.9C419.4,434.9,419.1,435,418.9,435z"/>
				<path class="st44" d="M422.2,435H314.7c-0.4,0-0.7-0.4-0.6-0.8l27.4-79.9c0.1-0.2,0.3-0.4,0.6-0.4h107.6c0.4,0,0.7,0.4,0.6,0.8
					l-27.4,79.9C422.7,434.9,422.5,435,422.2,435z"/>
				<ellipse class="st12" cx="384.5" cy="394.5" rx="12.3" ry="8.4"/>
			</g>
			<path class="st45" d="M470.9,202.4c-4.9-18.9-24.6-22.3-24.6-22.3c2.8,1,6.4,3.8,8,6.1c7.8,11,2.9,21,2.9,21c0,0,0.1,0,0.1,0
				c6.6-1.1,12.6,4.4,12.2,11.1c-0.1,1.2-0.2,2.5-0.4,3.9l1.7-6.5C471.9,211.3,472,206.7,470.9,202.4z"/>
			<g>
				
					<ellipse transform="matrix(0.7071 -0.7071 0.7071 0.7071 23.5266 258.4382)" class="st27" cx="323.7" cy="100.8" rx="35.8" ry="35.8"/>
				<circle class="st12" cx="323.7" cy="100.8" r="31.5"/>
				<g>
					<g>
						<path class="st27" d="M323.7,102.2c-0.8,0-1.4-0.6-1.4-1.4v-20c0-0.8,0.6-1.4,1.4-1.4c0.8,0,1.4,0.6,1.4,1.4v20
							C325.1,101.6,324.5,102.2,323.7,102.2z"/>
					</g>
					<g>
						<path class="st27" d="M323.7,75.6c-0.4,0-0.7-0.3-0.7-0.7v-3.6c0-0.4,0.3-0.7,0.7-0.7c0.4,0,0.7,0.3,0.7,0.7v3.6
							C324.4,75.3,324.1,75.6,323.7,75.6z"/>
					</g>
					<g>
						<path class="st27" d="M342.1,83.2c-0.2,0-0.4-0.1-0.5-0.2c-0.3-0.3-0.3-0.7,0-1l2.6-2.6c0.3-0.3,0.7-0.3,1,0
							c0.3,0.3,0.3,0.7,0,1l-2.6,2.6C342.4,83.1,342.3,83.2,342.1,83.2z"/>
					</g>
					<g>
						<path class="st27" d="M353.3,101.5h-3.6c-0.4,0-0.7-0.3-0.7-0.7s0.3-0.7,0.7-0.7h3.6c0.4,0,0.7,0.3,0.7,0.7
							S353.7,101.5,353.3,101.5z"/>
					</g>
					<g>
						<path class="st27" d="M344.6,122.4c-0.2,0-0.4-0.1-0.5-0.2l-2.6-2.6c-0.3-0.3-0.3-0.7,0-1c0.3-0.3,0.7-0.3,1,0l2.6,2.6
							c0.3,0.3,0.3,0.7,0,1C345,122.4,344.8,122.4,344.6,122.4z"/>
					</g>
					<g>
						<path class="st27" d="M323.7,131.1c-0.4,0-0.7-0.3-0.7-0.7v-3.6c0-0.4,0.3-0.7,0.7-0.7c0.4,0,0.7,0.3,0.7,0.7v3.6
							C324.4,130.8,324.1,131.1,323.7,131.1z"/>
					</g>
					<g>
						<path class="st27" d="M302.8,122.4c-0.2,0-0.4-0.1-0.5-0.2c-0.3-0.3-0.3-0.7,0-1l2.6-2.6c0.3-0.3,0.7-0.3,1,0
							c0.3,0.3,0.3,0.7,0,1l-2.6,2.6C303.2,122.4,303,122.4,302.8,122.4z"/>
					</g>
					<g>
						<path class="st27" d="M297.8,101.5h-3.6c-0.4,0-0.7-0.3-0.7-0.7s0.3-0.7,0.7-0.7h3.6c0.4,0,0.7,0.3,0.7,0.7
							S298.2,101.5,297.8,101.5z"/>
					</g>
					<g>
						<path class="st27" d="M305.4,83.2c-0.2,0-0.4-0.1-0.5-0.2l-2.6-2.6c-0.3-0.3-0.3-0.7,0-1c0.3-0.3,0.7-0.3,1,0l2.6,2.6
							c0.3,0.3,0.3,0.7,0,1C305.7,83.1,305.6,83.2,305.4,83.2z"/>
					</g>
				</g>
			</g>
			<g>
				<rect x="144.8" y="359.7" class="st12" width="8.5" height="38.7"/>
				<rect x="158.4" y="365.9" class="st12" width="8.5" height="32.5"/>
				<rect x="131.3" y="371.2" class="st12" width="8.5" height="27.2"/>
				<rect x="172.1" y="354.5" class="st12" width="8.5" height="43.9"/>
				<path class="st12" d="M135.6,367.3c0.8,0,1.5-0.7,1.5-1.5c0-0.1,0-0.2,0-0.4l11.5-11.1c0.2,0.1,0.4,0.1,0.6,0.1
					c0.3,0,0.6-0.1,0.9-0.3l11.3,6.7c0.1,0.7,0.7,1.3,1.5,1.3c0.8,0,1.5-0.7,1.5-1.5c0-0.1,0-0.3-0.1-0.4l11.9-14.2
					c0.1,0,0.2,0,0.3,0c0.8,0,1.5-0.7,1.5-1.5s-0.7-1.5-1.5-1.5c-0.8,0-1.5,0.7-1.5,1.5c0,0.2,0,0.4,0.1,0.5l-11.8,14.1
					c-0.1,0-0.3-0.1-0.4-0.1c-0.3,0-0.6,0.1-0.9,0.3l-11.3-6.7c-0.1-0.7-0.7-1.3-1.5-1.3c-0.8,0-1.5,0.7-1.5,1.5c0,0.1,0,0.1,0,0.2
					L136,364.4c-0.1,0-0.3-0.1-0.4-0.1c-0.8,0-1.5,0.7-1.5,1.5C134.1,366.7,134.8,367.3,135.6,367.3z"/>
			</g>
			<g>
				<path class="st46" d="M292.5,203.4c2.2-2.9,3.5-6.5,3.5-10.4c0-9.5-7.7-17.2-17.2-17.2c-9.5,0-17.2,7.7-17.2,17.2
					c0,9.5,7.7,17.2,17.2,17.2c3.4,0,6.5-1,9.1-2.6l8.1,4.5L292.5,203.4z"/>
				<g>
					<path class="st12" d="M272.3,193.9c0,1.6-1.3,2.9-2.9,2.9c-1.6,0-2.9-1.3-2.9-2.9c0-1.6,1.3-2.9,2.9-2.9
						C271,191,272.3,192.3,272.3,193.9z"/>
					<path class="st12" d="M281.7,193.9c0,1.6-1.3,2.9-2.9,2.9c-1.6,0-2.9-1.3-2.9-2.9c0-1.6,1.3-2.9,2.9-2.9
						C280.4,191,281.7,192.3,281.7,193.9z"/>
					<path class="st12" d="M291,193.9c0,1.6-1.3,2.9-2.9,2.9c-1.6,0-2.9-1.3-2.9-2.9c0-1.6,1.3-2.9,2.9-2.9
						C289.8,191,291,192.3,291,193.9z"/>
				</g>
			</g>
			<g>
				<circle class="st12" cx="481.2" cy="276.1" r="16.7"/>
				<path class="st3" d="M486.4,272c-1.3,0-2.5,0.6-3.4,1.5l-3.6-2.6c0.2-0.4,0.3-0.8,0.3-1.3c0-1.7-1.4-3.1-3.1-3.1
					c-1.7,0-3.1,1.4-3.1,3.1c0,1.7,1.4,3.1,3.1,3.1c0.8,0,1.6-0.3,2.1-0.9l3.6,2.6c-0.3,0.6-0.5,1.4-0.5,2.1c0,1.1,0.4,2.1,1,2.9
					l-1.9,2c-0.5-0.3-1-0.5-1.7-0.5c-1.7,0-3.1,1.4-3.1,3.1c0,1.7,1.4,3.1,3.1,3.1s3.1-1.4,3.1-3.1c0-0.7-0.2-1.3-0.6-1.8l1.9-1.9
					c0.8,0.6,1.7,0.9,2.7,0.9c2.5,0,4.6-2.1,4.6-4.6S489,272,486.4,272z"/>
			</g>
			<g>
				<path class="st12" d="M453.7,122.8v-6.2h-2.6c-0.4-2.2-1.3-4.2-2.5-6l1.8-1.8l-4.4-4.4l-1.8,1.8c-1.8-1.2-3.8-2.1-6-2.5v-2.6
					h-6.2v2.6c-2.2,0.4-4.2,1.3-6,2.5l-1.8-1.8l-4.4,4.4l1.8,1.8c-1.2,1.8-2.1,3.8-2.5,6h-2.6v6.2h2.6c0.4,2.2,1.3,4.2,2.5,6
					l-1.8,1.8l4.4,4.4l1.8-1.8c1.8,1.2,3.8,2.1,6,2.5v2.6h6.2v-2.6c2.2-0.4,4.2-1.3,6-2.5l1.8,1.8l4.4-4.4l-1.8-1.8
					c1.2-1.8,2.1-3.8,2.5-6H453.7z M435.2,130c-5.7,0-10.3-4.6-10.3-10.3c0-5.7,4.6-10.3,10.3-10.3c5.7,0,10.3,4.6,10.3,10.3
					C445.5,125.4,440.9,130,435.2,130z"/>
				<g>
					<g>
						<line class="st47" x1="155.9" y1="403.6" x2="155.9" y2="405.1"/>
						<path class="st48" d="M155.9,408.2v11.7c0,1.6,1.3,3,3,3h44.6"/>
						<line class="st47" x1="205.1" y1="422.8" x2="206.6" y2="422.8"/>
					</g>
				</g>
				<path class="st49" d="M459,118.5h56.2c2.2,0,3.9,1.8,3.9,3.9v149.8c0,2.2-1.8,3.9-3.9,3.9h-14.1"/>
			</g>
		</g>
	</g>
</g>
</svg>
