<svg id="wedding-car" xmlns="http://www.w3.org/2000/svg" width="38.809" height="38.808" viewBox="0 0 38.809 38.808">
  <path id="Path_1752" data-name="Path 1752" d="M38.808,19.4A19.4,19.4,0,1,1,19.4,0,19.4,19.4,0,0,1,38.808,19.4Zm0,0" fill="#80ceed"/>
  <path id="Path_1758" data-name="Path 1758" d="M301.116,137.965v1.579a1.287,1.287,0,0,1-2.573,0v-1.579Zm0,0" transform="translate(-275.914 -127.507)" fill="#d38051"/>
  <path id="Path_1759" data-name="Path 1759" d="M310.524,157.477v.1a.93.93,0,1,1-1.8.168q.129.008.259.008a4.409,4.409,0,0,0,.715-.058A4.357,4.357,0,0,0,310.524,157.477Zm0,0" transform="translate(-285.322 -145.54)" fill="#ea9a69"/>
  <path id="Path_1785" data-name="Path 1785" d="M38.812,208.8a19.333,19.333,0,0,1-3.83,11.577q-.372.5-.775.974-.231.272-.472.535a19.392,19.392,0,0,1-28.659-.006c-.159-.173-.314-.351-.467-.53q-.4-.475-.776-.975a19.4,19.4,0,0,1-2.776-5.254h0A19.527,19.527,0,0,1,.39,204.934H38.426A19.469,19.469,0,0,1,38.812,208.8Zm0,0" transform="translate(-0.004 -189.4)" fill="#884389"/>
  <path id="Path_1786" data-name="Path 1786" d="M168.652,367.743q-5.19-.174-10.379,0c-1.185.04-2.155.616-2.267,1.36a11.739,11.739,0,0,0,0,3.521c.112.744,1.082,1.32,2.267,1.36q5.189.174,10.379,0c1.185-.04,2.155-.616,2.267-1.36a11.738,11.738,0,0,0,0-3.521C170.807,368.359,169.837,367.783,168.652,367.743Zm0,0" transform="translate(-144.058 -339.789)" fill="#151a1c"/>
  <path id="Path_1787" data-name="Path 1787" d="M56.716,400.181q0,1.055-.056,2.109a19.5,19.5,0,0,1-6.136-5.382A1.634,1.634,0,0,1,51.871,396a21.625,21.625,0,0,1,3.266,0,1.626,1.626,0,0,1,1.509,1.526Q56.72,398.855,56.716,400.181Zm0,0" transform="translate(-46.694 -365.928)" fill="#151a1c"/>
  <path id="Path_1788" data-name="Path 1788" d="M385.966,396.909a19.5,19.5,0,0,1-6.137,5.382,45.469,45.469,0,0,1,.015-4.763A1.627,1.627,0,0,1,381.353,396a21.613,21.613,0,0,1,3.265,0A1.635,1.635,0,0,1,385.966,396.909Zm0,0" transform="translate(-350.987 -365.928)" fill="#151a1c"/>
  <path id="Path_1789" data-name="Path 1789" d="M417.732,181.715H414.1v3.612h3.634a1.806,1.806,0,0,0,0-3.612Zm0,0" transform="translate(-382.71 -167.941)" fill="#dd2339"/>
  <path id="Path_1790" data-name="Path 1790" d="M27.935,181.715h3.634v3.612H27.935a1.806,1.806,0,1,1,0-3.612Zm0,0" transform="translate(-24.148 -167.941)" fill="#dd2339"/>
  <path id="Path_1791" data-name="Path 1791" d="M106.643,160.486q-2.207.14-4.414.234a214.767,214.767,0,0,1-22.761-.234,17.863,17.863,0,0,1,1.4-8.559,5.007,5.007,0,0,1,4.478-3.188q6.63-.238,13.261-.066,1.081.026,2.162.066a5.008,5.008,0,0,1,4.479,3.188A17.862,17.862,0,0,1,106.643,160.486Zm0,0" transform="translate(-73.363 -137.338)" fill="#fff"/>
  <path id="Path_1792" data-name="Path 1792" d="M102.229,160.72a214.767,214.767,0,0,1-22.761-.234,17.863,17.863,0,0,1,1.4-8.559,5.007,5.007,0,0,1,4.478-3.188q6.63-.238,13.261-.066a6.4,6.4,0,0,1,1.749,2.487A23.867,23.867,0,0,1,102.229,160.72Zm0,0" transform="translate(-73.363 -137.338)" fill="#d9e5ed"/>
  <path id="Path_1793" data-name="Path 1793" d="M93.5,146.135l-2.361-.272a16.633,16.633,0,0,0-1.322-7.991,3.813,3.813,0,0,0-3.41-2.433c-5.083-.183-10.238-.183-15.32,0a3.813,3.813,0,0,0-3.41,2.433,16.633,16.633,0,0,0-1.322,7.991l-2.36.272a18.921,18.921,0,0,1,1.47-9.129A6.189,6.189,0,0,1,71,133.064c5.14-.185,10.352-.185,15.491,0a6.189,6.189,0,0,1,5.537,3.942A18.924,18.924,0,0,1,93.5,146.135Zm0,0" transform="translate(-59.056 -122.85)" fill="#f74570"/>
  <path id="Path_1794" data-name="Path 1794" d="M114.638,169.094l-.945-.109a16.159,16.159,0,0,0-1.294-7.763,3.343,3.343,0,0,0-2.988-2.132c-5.077-.182-10.226-.182-15.3,0a3.344,3.344,0,0,0-2.988,2.132,16.163,16.163,0,0,0-1.294,7.763l-.944.109a17.075,17.075,0,0,1,1.353-8.219,4.293,4.293,0,0,1,3.839-2.735c5.1-.183,10.272-.183,15.371,0a4.293,4.293,0,0,1,3.839,2.735A17.075,17.075,0,0,1,114.638,169.094Zm0,0" transform="translate(-82.067 -146.027)" fill="#dd2339"/>
  <path id="Path_1795" data-name="Path 1795" d="M50.461,243.1a19.338,19.338,0,0,1-2.777,5.256q-.372.5-.775.974a288.22,288.22,0,0,1-29.6,0q-.4-.475-.776-.975a19.4,19.4,0,0,1-2.776-5.254h0q-.029-.823.017-1.647a18.208,18.208,0,0,1,.4-2.89c.046-.208.1-.417.148-.626a3.08,3.08,0,0,1,.555-1.135,3.147,3.147,0,0,1,2.324-1.213,288.493,288.493,0,0,1,29.818,0,3.147,3.147,0,0,1,2.325,1.213,3.079,3.079,0,0,1,.554,1.135A18.146,18.146,0,0,1,50.461,243.1Zm0,0" transform="translate(-12.706 -217.379)" fill="#f74570"/>
  <path id="Path_1796" data-name="Path 1796" d="M143.306,302.684a67.611,67.611,0,0,1-7.127-.38l-.562-.06-.251-.506a7.931,7.931,0,0,1-.594-5.911,3.058,3.058,0,0,1,2.69-2.2c1.939-.17,3.905-.255,5.844-.255s3.905.086,5.844.255a3.058,3.058,0,0,1,2.69,2.2,7.93,7.93,0,0,1-.594,5.911l-.251.506-.562.06A67.61,67.61,0,0,1,143.306,302.684Zm0,0" transform="translate(-124.26 -271.138)" fill="#dd2339"/>
  <path id="Path_1797" data-name="Path 1797" d="M161.614,307.208a65.993,65.993,0,0,0-11.509,0,2.048,2.048,0,0,0-1.792,1.461,6.9,6.9,0,0,0,.528,5.164,66.09,66.09,0,0,0,14.037,0,6.9,6.9,0,0,0,.528-5.164A2.048,2.048,0,0,0,161.614,307.208Zm0,0" transform="translate(-136.813 -283.69)" fill="#2a3347"/>
  <path id="Path_1798" data-name="Path 1798" d="M17.494,244.474a19.556,19.556,0,0,0,1.26,8q-.721-.033-1.443-.07-.4-.475-.776-.975a19.391,19.391,0,0,1-2.776-5.255q-.029-.824.017-1.647a18.209,18.209,0,0,1,.4-2.89c.046-.208.1-.417.148-.626a3.135,3.135,0,0,1,2.878-2.348q1.435-.074,2.87-.134a3.285,3.285,0,0,0-2,2.251c-.055.219-.107.439-.155.657A19.052,19.052,0,0,0,17.494,244.474Zm0,0" transform="translate(-12.706 -220.447)" fill="#dd2339"/>
  <path id="Path_1799" data-name="Path 1799" d="M67.291,381.441a19.4,19.4,0,0,1-2.538,3.482q-12.475.133-24.948.03-1.856-.015-3.711-.036a19.377,19.377,0,0,1-2.528-3.47q3.121-.039,6.242-.066Q53.55,381.269,67.291,381.441Zm0,0" transform="translate(-31.022 -352.432)" fill="#b9ccd6"/>
  <path id="Path_1800" data-name="Path 1800" d="M121.73,381.441a19.4,19.4,0,0,1-2.538,3.482q-12.475.133-24.948.03a2.532,2.532,0,0,1-1.4-.864,1.322,1.322,0,0,1,0-1.843,2.529,2.529,0,0,1,1.4-.864Q107.989,381.269,121.73,381.441Zm0,0" transform="translate(-85.461 -352.432)" fill="#d9e5ed"/>
  <path id="Path_1801" data-name="Path 1801" d="M63.111,236.806a3.148,3.148,0,0,1-2.324,1.212,288.494,288.494,0,0,1-29.818,0,3.148,3.148,0,0,1-2.325-1.212,3.147,3.147,0,0,1,2.324-1.213,288.493,288.493,0,0,1,29.818,0A3.147,3.147,0,0,1,63.111,236.806Zm0,0" transform="translate(-26.473 -217.379)" fill="#ff5c88"/>
  <path id="Path_1802" data-name="Path 1802" d="M40.112,284.455a5.675,5.675,0,0,1-2.412-.4,2.438,2.438,0,0,1-1.4-2.371,3.808,3.808,0,1,1,7.615,0,2.483,2.483,0,0,1-1.014,2.147,3.783,3.783,0,0,1-1.99.6C40.678,284.447,40.416,284.455,40.112,284.455Zm0,0" transform="translate(-33.553 -256.816)" fill="#dd2339"/>
  <path id="Path_1803" data-name="Path 1803" d="M55.442,294.239c0,1.281-.867,1.635-2.047,1.717-.233.016-.478.021-.732.021-1.534,0-2.778-.2-2.778-1.738a2.778,2.778,0,1,1,5.556,0Zm0,0" transform="translate(-46.105 -269.369)" fill="#ffb93b"/>
  <path id="Path_1804" data-name="Path 1804" d="M73.288,295.427c0,1.281-.867,1.635-2.047,1.717-1.179-.082-2.046-.436-2.046-1.717a2.78,2.78,0,0,1,2.046-2.681A2.78,2.78,0,0,1,73.288,295.427Zm0,0" transform="translate(-63.95 -270.556)" fill="#ffe96e"/>
  <path id="Path_1805" data-name="Path 1805" d="M379.05,284.455a5.676,5.676,0,0,1-2.413-.4,2.439,2.439,0,0,1-1.395-2.372,3.807,3.807,0,1,1,7.615,0,2.439,2.439,0,0,1-1.4,2.372A5.675,5.675,0,0,1,379.05,284.455Zm0,0" transform="translate(-346.799 -256.816)" fill="#dd2339"/>
  <path id="Path_1806" data-name="Path 1806" d="M394.38,294.243a2.778,2.778,0,1,0-5.556,0c0,1.534,1.244,1.739,2.778,1.739S394.38,295.777,394.38,294.243Zm0,0" transform="translate(-359.352 -269.372)" fill="#ffb93b"/>
  <path id="Path_1807" data-name="Path 1807" d="M412.221,295.423c0,1.281-.867,1.635-2.047,1.717-1.179-.082-2.046-.436-2.046-1.717a2.121,2.121,0,1,1,4.092,0Zm0,0" transform="translate(-377.193 -270.553)" fill="#ffe96e"/>
</svg>
